  0
SECTION
  2
HEADER
  9
$ACADVER
  1
AC1014
  9
$HANDSEED
  5
FFFF
  9
$MEASUREMENT
 70
     1
  0
ENDSEC
  0
SECTION
  2
TABLES
  0
TABLE
  2
VPORT
  5
8
330
0
100
AcDbSymbolTable
 70
     4
  0
VPORT
  5
2E
330
8
100
AcDbSymbolTableRecord
100
AcDbViewportTableRecord
  2
*ACTIVE
 70
     0
 10
0.0
 20
0.0
 11
1.0
 21
1.0
 12
210.0
 22
148.5
 13
0.0
 23
0.0
 14
10.0
 24
10.0
 15
10.0
 25
10.0
 16
0.0
 26
0.0
 36
1.0
 17
0.0
 27
0.0
 37
0.0
 40
341.0
 41
1.24
 42
50.0
 43
0.0
 44
0.0
 50
0.0
 51
0.0
 71
     0
 72
   100
 73
     1
 74
     3
 75
     0
 76
     0
 77
     0
 78
     0
  0
ENDTAB
  0
TABLE
  2
LTYPE
  5
5
330
0
100
AcDbSymbolTable
 70
     1
  0
LTYPE
  5
14
330
5
100
AcDbSymbolTableRecord
100
AcDbLinetypeTableRecord
  2
BYBLOCK
 70
     0
  3

 72
    65
 73
     0
 40
0.0
  0
LTYPE
  5
15
330
5
100
AcDbSymbolTableRecord
100
AcDbLinetypeTableRecord
  2
BYLAYER
 70
     0
  3

 72
    65
 73
     0
 40
0.0
  0
LTYPE
  5
16
330
5
100
AcDbSymbolTableRecord
100
AcDbLinetypeTableRecord
  2
CONTINUOUS
 70
     0
  3
Solid line
 72
    65
 73
     0
 40
0.0
  0
ENDTAB
  0
TABLE
  2
LAYER
  5
2
100
AcDbSymbolTable
 70
2
  0
LAYER
  5
50
100
AcDbSymbolTableRecord
100
AcDbLayerTableRecord
  2
0
 70
0
  6
CONTINUOUS
  0
LAYER
  5
51
100
AcDbSymbolTableRecord
100
AcDbLayerTableRecord
  2
Layer_1
 70
0
  6
CONTINUOUS
  0
ENDTAB
  0
TABLE
  2
STYLE
  5
3
330
0
100
AcDbSymbolTable
 70
     1
  0
STYLE
  5
11
330
3
100
AcDbSymbolTableRecord
100
AcDbTextStyleTableRecord
  2
STANDARD
 70
     0
 40
0.0
 41
1.0
 50
0.0
 71
     0
 42
2.5
  3
txt
  4

  0
ENDTAB
  0
TABLE
  2
VIEW
  5
6
330
0
100
AcDbSymbolTable
 70
     0
  0
ENDTAB
  0
TABLE
  2
UCS
  5
7
330
0
100
AcDbSymbolTable
 70
     0
  0
ENDTAB
  0
TABLE
  2
APPID
  5
9
330
0
100
AcDbSymbolTable
 70
     2
  0
APPID
  5
12
330
9
100
AcDbSymbolTableRecord
100
AcDbRegAppTableRecord
  2
ACAD
 70
     0
  0
ENDTAB
  0
TABLE
  2
DIMSTYLE
  5
A
330
0
100
AcDbSymbolTable
 70
     1
  0
DIMSTYLE
105
27
330
A
100
AcDbSymbolTableRecord
100
AcDbDimStyleTableRecord
  2
ISO-25
 70
     0
  3

  4

  5

  6

  7

 40
1.0
 41
2.5
 42
0.625
 43
3.75
 44
1.25
 45
0.0
 46
0.0
 47
0.0
 48
0.0
140
2.5
141
2.5
142
0.0
143
0.03937007874016
144
1.0
145
0.0
146
1.0
147
0.625
 71
     0
 72
     0
 73
     0
 74
     0
 75
     0
 76
     0
 77
     1
 78
     8
170
     0
171
     3
172
     1
173
     0
174
     0
175
     0
176
     0
177
     0
178
     0
270
     2
271
     2
272
     2
273
     2
274
     3
340
11
275
     0
280
     0
281
     0
282
     0
283
     0
284
     8
285
     0
286
     0
287
     3
288
     0
  0
ENDTAB
  0
TABLE
  2
BLOCK_RECORD
  5
1
330
0
100
AcDbSymbolTable
 70
     1
  0
BLOCK_RECORD
  5
1F
330
1
100
AcDbSymbolTableRecord
100
AcDbBlockTableRecord
  2
*MODEL_SPACE
  0
BLOCK_RECORD
  5
1B
330
1
100
AcDbSymbolTableRecord
100
AcDbBlockTableRecord
  2
*PAPER_SPACE
  0
ENDTAB
  0
ENDSEC
  0
SECTION
  2
BLOCKS
  0
BLOCK
  5
20
330
1F
100
AcDbEntity
  8
0
100
AcDbBlockBegin
  2
*MODEL_SPACE
 70
     0
 10
0.0
 20
0.0
 30
0.0
  3
*MODEL_SPACE
  1

  0
ENDBLK
  5
21
330
1F
100
AcDbEntity
  8
0
100
AcDbBlockEnd
  0
BLOCK
  5
1C
330
1B
100
AcDbEntity
 67
     1
  8
0
100
AcDbBlockBegin
  2
*PAPER_SPACE
  1

  0
ENDBLK
  5
1D
330
1B
100
AcDbEntity
 67
     1
  8
0
100
AcDbBlockEnd
  0
ENDSEC
  0
SECTION
  2
ENTITIES
  0
SPLINE
  5
100
100
AcDbEntity
  8
Layer_1
 62
7
100
AcDbSpline
 70
8
 71
3
 72
8
 73
4
 74
0
 40
0
 40
0
 40
0
 40
0
 40
1
 40
1
 40
1
 40
1
 10
4.049740
 20
250.060737
 30
0.0
 10
2.043580
 20
250.060673
 30
0.0
 10
0.417330
 20
249.055537
 30
0.0
 10
0.417340
 20
247.815665
 30
0.0
  0
SPLINE
  5
101
100
AcDbEntity
  8
Layer_1
 62
7
100
AcDbSpline
 70
8
 71
3
 72
8
 73
4
 74
0
 40
0
 40
0
 40
0
 40
0
 40
1
 40
1
 40
1
 40
1
 10
0.497210
 20
209.455241
 30
0.0
 10
0.846650
 20
208.414278
 30
0.0
 10
2.329560
 20
207.667507
 30
0.0
 10
4.049740
 20
207.666243
 30
0.0
  0
SPLINE
  5
102
100
AcDbEntity
  8
Layer_1
 62
7
100
AcDbSpline
 70
8
 71
3
 72
8
 73
4
 74
0
 40
0
 40
0
 40
0
 40
0
 40
1
 40
1
 40
1
 40
1
 10
4.049740
 20
207.666243
 30
0.0
 10
5.485120
 20
207.666772
 30
0.0
 10
6.785220
 20
208.190001
 30
0.0
 10
7.367280
 20
209.000901
 30
0.0
  0
SPLINE
  5
103
100
AcDbEntity
  8
Layer_1
 62
7
100
AcDbSpline
 70
8
 71
3
 72
8
 73
4
 74
0
 40
0
 40
0
 40
0
 40
0
 40
1
 40
1
 40
1
 40
1
 10
7.367280
 20
209.000901
 30
0.0
 10
7.949100
 20
208.190358
 30
0.0
 10
9.248340
 20
207.667391
 30
0.0
 10
10.683090
 20
207.666243
 30
0.0
  0
SPLINE
  5
104
100
AcDbEntity
  8
Layer_1
 62
7
100
AcDbSpline
 70
8
 71
3
 72
8
 73
4
 74
0
 40
0
 40
0
 40
0
 40
0
 40
1
 40
1
 40
1
 40
1
 10
10.683090
 20
207.666243
 30
0.0
 10
12.118470
 20
207.666772
 30
0.0
 10
13.418560
 20
208.189999
 30
0.0
 10
14.000630
 20
209.000901
 30
0.0
  0
SPLINE
  5
105
100
AcDbEntity
  8
Layer_1
 62
7
100
AcDbSpline
 70
8
 71
3
 72
8
 73
4
 74
0
 40
0
 40
0
 40
0
 40
0
 40
1
 40
1
 40
1
 40
1
 10
14.000630
 20
209.000901
 30
0.0
 10
14.582360
 20
208.190475
 30
0.0
 10
15.881320
 20
207.667531
 30
0.0
 10
17.315860
 20
207.666243
 30
0.0
  0
SPLINE
  5
106
100
AcDbEntity
  8
Layer_1
 62
7
100
AcDbSpline
 70
8
 71
3
 72
8
 73
4
 74
0
 40
0
 40
0
 40
0
 40
0
 40
1
 40
1
 40
1
 40
1
 10
17.315860
 20
207.666243
 30
0.0
 10
18.751240
 20
207.666772
 30
0.0
 10
20.051330
 20
208.189999
 30
0.0
 10
20.633410
 20
209.000901
 30
0.0
  0
SPLINE
  5
107
100
AcDbEntity
  8
Layer_1
 62
7
100
AcDbSpline
 70
8
 71
3
 72
8
 73
4
 74
0
 40
0
 40
0
 40
0
 40
0
 40
1
 40
1
 40
1
 40
1
 10
20.633410
 20
209.000901
 30
0.0
 10
21.215220
 20
208.190358
 30
0.0
 10
22.514460
 20
207.667391
 30
0.0
 10
23.949220
 20
207.666243
 30
0.0
  0
SPLINE
  5
108
100
AcDbEntity
  8
Layer_1
 62
7
100
AcDbSpline
 70
8
 71
3
 72
8
 73
4
 74
0
 40
0
 40
0
 40
0
 40
0
 40
1
 40
1
 40
1
 40
1
 10
23.949220
 20
207.666243
 30
0.0
 10
25.384590
 20
207.666772
 30
0.0
 10
26.684700
 20
208.190001
 30
0.0
 10
27.266760
 20
209.000901
 30
0.0
  0
SPLINE
  5
109
100
AcDbEntity
  8
Layer_1
 62
7
100
AcDbSpline
 70
8
 71
3
 72
8
 73
4
 74
0
 40
0
 40
0
 40
0
 40
0
 40
1
 40
1
 40
1
 40
1
 10
27.266760
 20
209.000901
 30
0.0
 10
27.848490
 20
208.190472
 30
0.0
 10
29.147450
 20
207.667531
 30
0.0
 10
30.581990
 20
207.666243
 30
0.0
  0
SPLINE
  5
10a
100
AcDbEntity
  8
Layer_1
 62
7
100
AcDbSpline
 70
8
 71
3
 72
8
 73
4
 74
0
 40
0
 40
0
 40
0
 40
0
 40
1
 40
1
 40
1
 40
1
 10
30.581990
 20
207.666243
 30
0.0
 10
32.017370
 20
207.666772
 30
0.0
 10
33.317460
 20
208.190001
 30
0.0
 10
33.899530
 20
209.000901
 30
0.0
  0
SPLINE
  5
10b
100
AcDbEntity
  8
Layer_1
 62
7
100
AcDbSpline
 70
8
 71
3
 72
8
 73
4
 74
0
 40
0
 40
0
 40
0
 40
0
 40
1
 40
1
 40
1
 40
1
 10
33.899530
 20
209.000901
 30
0.0
 10
34.481350
 20
208.190358
 30
0.0
 10
35.780580
 20
207.667391
 30
0.0
 10
37.215340
 20
207.666243
 30
0.0
  0
SPLINE
  5
10c
100
AcDbEntity
  8
Layer_1
 62
7
100
AcDbSpline
 70
8
 71
3
 72
8
 73
4
 74
0
 40
0
 40
0
 40
0
 40
0
 40
1
 40
1
 40
1
 40
1
 10
37.215340
 20
207.666243
 30
0.0
 10
38.650720
 20
207.666772
 30
0.0
 10
39.950810
 20
208.189999
 30
0.0
 10
40.532880
 20
209.000901
 30
0.0
  0
SPLINE
  5
10d
100
AcDbEntity
  8
Layer_1
 62
7
100
AcDbSpline
 70
8
 71
3
 72
8
 73
4
 74
0
 40
0
 40
0
 40
0
 40
0
 40
1
 40
1
 40
1
 40
1
 10
40.532880
 20
209.000901
 30
0.0
 10
40.776780
 20
208.661190
 30
0.0
 10
42.099780
 20
207.390613
 30
0.0
 10
42.404060
 20
207.159817
 30
0.0
  0
SPLINE
  5
10e
100
AcDbEntity
  8
Layer_1
 62
7
100
AcDbSpline
 70
8
 71
3
 72
8
 73
4
 74
0
 40
0
 40
0
 40
0
 40
0
 40
1
 40
1
 40
1
 40
1
 10
42.404060
 20
207.159817
 30
0.0
 10
41.604200
 20
206.552998
 30
0.0
 10
41.092970
 20
205.253158
 30
0.0
 10
41.091980
 20
203.823746
 30
0.0
  0
SPLINE
  5
10f
100
AcDbEntity
  8
Layer_1
 62
7
100
AcDbSpline
 70
8
 71
3
 72
8
 73
4
 74
0
 40
0
 40
0
 40
0
 40
0
 40
1
 40
1
 40
1
 40
1
 10
41.091980
 20
203.823746
 30
0.0
 10
41.093980
 20
202.394547
 30
0.0
 10
41.604310
 20
201.094985
 30
0.0
 10
42.404060
 20
200.488263
 30
0.0
  0
SPLINE
  5
110
100
AcDbEntity
  8
Layer_1
 62
7
100
AcDbSpline
 70
8
 71
3
 72
8
 73
4
 74
0
 40
0
 40
0
 40
0
 40
0
 40
1
 40
1
 40
1
 40
1
 10
42.404060
 20
200.488263
 30
0.0
 10
41.604200
 20
199.881447
 30
0.0
 10
41.092970
 20
198.581610
 30
0.0
 10
41.091980
 20
197.152196
 30
0.0
  0
SPLINE
  5
111
100
AcDbEntity
  8
Layer_1
 62
7
100
AcDbSpline
 70
8
 71
3
 72
8
 73
4
 74
0
 40
0
 40
0
 40
0
 40
0
 40
1
 40
1
 40
1
 40
1
 10
41.091980
 20
197.152196
 30
0.0
 10
41.092780
 20
195.722790
 30
0.0
 10
41.604200
 20
194.422950
 30
0.0
 10
42.404060
 20
193.816130
 30
0.0
  0
SPLINE
  5
112
100
AcDbEntity
  8
Layer_1
 62
7
100
AcDbSpline
 70
8
 71
3
 72
8
 73
4
 74
0
 40
0
 40
0
 40
0
 40
0
 40
1
 40
1
 40
1
 40
1
 10
42.404060
 20
193.816130
 30
0.0
 10
41.604310
 20
193.209410
 30
0.0
 10
41.093100
 20
191.909850
 30
0.0
 10
41.091980
 20
190.480650
 30
0.0
  0
SPLINE
  5
113
100
AcDbEntity
  8
Layer_1
 62
7
100
AcDbSpline
 70
8
 71
3
 72
8
 73
4
 74
0
 40
0
 40
0
 40
0
 40
0
 40
1
 40
1
 40
1
 40
1
 10
41.091980
 20
190.480650
 30
0.0
 10
41.092780
 20
189.051230
 30
0.0
 10
41.604200
 20
187.751400
 30
0.0
 10
42.404060
 20
187.144580
 30
0.0
  0
SPLINE
  5
114
100
AcDbEntity
  8
Layer_1
 62
7
100
AcDbSpline
 70
8
 71
3
 72
8
 73
4
 74
0
 40
0
 40
0
 40
0
 40
0
 40
1
 40
1
 40
1
 40
1
 10
42.404060
 20
187.144580
 30
0.0
 10
41.604200
 20
186.537770
 30
0.0
 10
41.092970
 20
185.237930
 30
0.0
 10
41.091980
 20
183.808520
 30
0.0
  0
SPLINE
  5
115
100
AcDbEntity
  8
Layer_1
 62
7
100
AcDbSpline
 70
8
 71
3
 72
8
 73
4
 74
0
 40
0
 40
0
 40
0
 40
0
 40
1
 40
1
 40
1
 40
1
 10
41.091980
 20
183.808520
 30
0.0
 10
41.093980
 20
182.379310
 30
0.0
 10
41.604310
 20
181.079750
 30
0.0
 10
42.404060
 20
180.473030
 30
0.0
  0
SPLINE
  5
116
100
AcDbEntity
  8
Layer_1
 62
7
100
AcDbSpline
 70
8
 71
3
 72
8
 73
4
 74
0
 40
0
 40
0
 40
0
 40
0
 40
1
 40
1
 40
1
 40
1
 10
42.404060
 20
180.473030
 30
0.0
 10
41.604200
 20
179.866220
 30
0.0
 10
41.092970
 20
178.566370
 30
0.0
 10
41.091980
 20
177.136960
 30
0.0
  0
SPLINE
  5
117
100
AcDbEntity
  8
Layer_1
 62
7
100
AcDbSpline
 70
8
 71
3
 72
8
 73
4
 74
0
 40
0
 40
0
 40
0
 40
0
 40
1
 40
1
 40
1
 40
1
 10
41.091980
 20
177.136960
 30
0.0
 10
41.092780
 20
175.707550
 30
0.0
 10
41.604200
 20
174.407710
 30
0.0
 10
42.404060
 20
173.800900
 30
0.0
  0
SPLINE
  5
118
100
AcDbEntity
  8
Layer_1
 62
7
100
AcDbSpline
 70
8
 71
3
 72
8
 73
4
 74
0
 40
0
 40
0
 40
0
 40
0
 40
1
 40
1
 40
1
 40
1
 10
42.404060
 20
173.800900
 30
0.0
 10
41.604310
 20
173.194170
 30
0.0
 10
41.093100
 20
171.894610
 30
0.0
 10
41.091980
 20
170.465410
 30
0.0
  0
SPLINE
  5
119
100
AcDbEntity
  8
Layer_1
 62
7
100
AcDbSpline
 70
8
 71
3
 72
8
 73
4
 74
0
 40
0
 40
0
 40
0
 40
0
 40
1
 40
1
 40
1
 40
1
 10
41.091980
 20
170.465410
 30
0.0
 10
41.092190
 20
170.150300
 30
0.0
 10
41.117580
 20
169.836560
 30
0.0
 10
41.167180
 20
169.531850
 30
0.0
  0
SPLINE
  5
11a
100
AcDbEntity
  8
Layer_1
 62
7
100
AcDbSpline
 70
8
 71
3
 72
8
 73
4
 74
0
 40
0
 40
0
 40
0
 40
0
 40
1
 40
1
 40
1
 40
1
 10
41.167180
 20
169.531850
 30
0.0
 10
40.907410
 20
169.355900
 30
0.0
 10
40.691100
 20
169.154400
 30
0.0
 10
40.531100
 20
168.932240
 30
0.0
  0
SPLINE
  5
11b
100
AcDbEntity
  8
Layer_1
 62
7
100
AcDbSpline
 70
8
 71
3
 72
8
 73
4
 74
0
 40
0
 40
0
 40
0
 40
0
 40
1
 40
1
 40
1
 40
1
 10
40.531100
 20
168.932240
 30
0.0
 10
39.949290
 20
169.742780
 30
0.0
 10
38.650050
 20
170.265750
 30
0.0
 10
37.215300
 20
170.266890
 30
0.0
  0
SPLINE
  5
11c
100
AcDbEntity
  8
Layer_1
 62
7
100
AcDbSpline
 70
8
 71
3
 72
8
 73
4
 74
0
 40
0
 40
0
 40
0
 40
0
 40
1
 40
1
 40
1
 40
1
 10
37.215300
 20
170.266890
 30
0.0
 10
35.779920
 20
170.266360
 30
0.0
 10
34.479820
 20
169.743130
 30
0.0
 10
33.897750
 20
168.932240
 30
0.0
  0
SPLINE
  5
11d
100
AcDbEntity
  8
Layer_1
 62
7
100
AcDbSpline
 70
8
 71
3
 72
8
 73
4
 74
0
 40
0
 40
0
 40
0
 40
0
 40
1
 40
1
 40
1
 40
1
 10
33.897750
 20
168.932240
 30
0.0
 10
33.315940
 20
169.742780
 30
0.0
 10
32.016700
 20
170.265740
 30
0.0
 10
30.581940
 20
170.266890
 30
0.0
  0
SPLINE
  5
11e
100
AcDbEntity
  8
Layer_1
 62
7
100
AcDbSpline
 70
8
 71
3
 72
8
 73
4
 74
0
 40
0
 40
0
 40
0
 40
0
 40
1
 40
1
 40
1
 40
1
 10
30.581940
 20
170.266890
 30
0.0
 10
29.146770
 20
170.266100
 30
0.0
 10
27.846970
 20
169.743020
 30
0.0
 10
27.264980
 20
168.932240
 30
0.0
  0
SPLINE
  5
11f
100
AcDbEntity
  8
Layer_1
 62
7
100
AcDbSpline
 70
8
 71
3
 72
8
 73
4
 74
0
 40
0
 40
0
 40
0
 40
0
 40
1
 40
1
 40
1
 40
1
 10
27.264980
 20
168.932240
 30
0.0
 10
26.683180
 20
169.742780
 30
0.0
 10
25.383920
 20
170.265740
 30
0.0
 10
23.949170
 20
170.266890
 30
0.0
  0
SPLINE
  5
120
100
AcDbEntity
  8
Layer_1
 62
7
100
AcDbSpline
 70
8
 71
3
 72
8
 73
4
 74
0
 40
0
 40
0
 40
0
 40
0
 40
1
 40
1
 40
1
 40
1
 10
23.949170
 20
170.266890
 30
0.0
 10
22.513790
 20
170.266360
 30
0.0
 10
21.213690
 20
169.743130
 30
0.0
 10
20.631620
 20
168.932240
 30
0.0
  0
SPLINE
  5
121
100
AcDbEntity
  8
Layer_1
 62
7
100
AcDbSpline
 70
8
 71
3
 72
8
 73
4
 74
0
 40
0
 40
0
 40
0
 40
0
 40
1
 40
1
 40
1
 40
1
 10
20.631620
 20
168.932240
 30
0.0
 10
20.049810
 20
169.742780
 30
0.0
 10
18.750580
 20
170.265750
 30
0.0
 10
17.315820
 20
170.266890
 30
0.0
  0
SPLINE
  5
122
100
AcDbEntity
  8
Layer_1
 62
7
100
AcDbSpline
 70
8
 71
3
 72
8
 73
4
 74
0
 40
0
 40
0
 40
0
 40
0
 40
1
 40
1
 40
1
 40
1
 10
17.315820
 20
170.266890
 30
0.0
 10
15.880660
 20
170.266360
 30
0.0
 10
14.580620
 20
169.743490
 30
0.0
 10
13.998270
 20
168.932810
 30
0.0
  0
SPLINE
  5
123
100
AcDbEntity
  8
Layer_1
 62
7
100
AcDbSpline
 70
8
 71
3
 72
8
 73
4
 74
0
 40
0
 40
0
 40
0
 40
0
 40
1
 40
1
 40
1
 40
1
 10
13.998270
 20
168.932810
 30
0.0
 10
13.416260
 20
169.743010
 30
0.0
 10
12.117380
 20
170.265700
 30
0.0
 10
10.683050
 20
170.266890
 30
0.0
  0
SPLINE
  5
124
100
AcDbEntity
  8
Layer_1
 62
7
100
AcDbSpline
 70
8
 71
3
 72
8
 73
4
 74
0
 40
0
 40
0
 40
0
 40
0
 40
1
 40
1
 40
1
 40
1
 10
10.683050
 20
170.266890
 30
0.0
 10
9.247660
 20
170.266360
 30
0.0
 10
7.947570
 20
169.743130
 30
0.0
 10
7.365500
 20
168.932240
 30
0.0
  0
SPLINE
  5
125
100
AcDbEntity
  8
Layer_1
 62
7
100
AcDbSpline
 70
8
 71
3
 72
8
 73
4
 74
0
 40
0
 40
0
 40
0
 40
0
 40
1
 40
1
 40
1
 40
1
 10
7.365500
 20
168.932240
 30
0.0
 10
6.783700
 20
169.742780
 30
0.0
 10
5.484450
 20
170.265740
 30
0.0
 10
4.049700
 20
170.266890
 30
0.0
  0
SPLINE
  5
126
100
AcDbEntity
  8
Layer_1
 62
7
100
AcDbSpline
 70
8
 71
3
 72
8
 73
4
 74
0
 40
0
 40
0
 40
0
 40
0
 40
1
 40
1
 40
1
 40
1
 10
4.049700
 20
170.266890
 30
0.0
 10
2.299440
 20
170.266100
 30
0.0
 10
0.798940
 20
169.494080
 30
0.0
 10
0.480380
 20
168.430440
 30
0.0
  0
LWPOLYLINE
  5
127
100
AcDbEntity
  8
Layer_1
 62
7
100
AcDbPolyline
 90
5
 70
0
 10
0.417340
 20
247.815665
 30
0.0
 10
0.417340
 20
247.812465
 30
0.0
 10
0.000040
 20
247.812465
 30
0.0
 10
0.000040
 20
209.455241
 30
0.0
 10
0.497210
 20
209.455241
 30
0.0
  0
SPLINE
  5
128
100
AcDbEntity
  8
Layer_1
 62
7
100
AcDbSpline
 70
8
 71
3
 72
8
 73
4
 74
0
 40
0
 40
0
 40
0
 40
0
 40
1
 40
1
 40
1
 40
1
 10
0.427140
 20
126.712600
 30
0.0
 10
0.564130
 20
125.538540
 30
0.0
 10
2.145080
 20
124.629210
 30
0.0
 10
4.049700
 20
124.629010
 30
0.0
  0
SPLINE
  5
129
100
AcDbEntity
  8
Layer_1
 62
7
100
AcDbSpline
 70
8
 71
3
 72
8
 73
4
 74
0
 40
0
 40
0
 40
0
 40
0
 40
1
 40
1
 40
1
 40
1
 10
4.049700
 20
124.629010
 30
0.0
 10
5.485080
 20
124.629540
 30
0.0
 10
6.785180
 20
125.152760
 30
0.0
 10
7.367240
 20
125.963660
 30
0.0
  0
SPLINE
  5
12a
100
AcDbEntity
  8
Layer_1
 62
7
100
AcDbSpline
 70
8
 71
3
 72
8
 73
4
 74
0
 40
0
 40
0
 40
0
 40
0
 40
1
 40
1
 40
1
 40
1
 10
7.367240
 20
125.963660
 30
0.0
 10
7.949050
 20
125.153120
 30
0.0
 10
9.248300
 20
124.630160
 30
0.0
 10
10.683050
 20
124.629010
 30
0.0
  0
SPLINE
  5
12b
100
AcDbEntity
  8
Layer_1
 62
7
100
AcDbSpline
 70
8
 71
3
 72
8
 73
4
 74
0
 40
0
 40
0
 40
0
 40
0
 40
1
 40
1
 40
1
 40
1
 10
10.683050
 20
124.629010
 30
0.0
 10
12.118430
 20
124.629540
 30
0.0
 10
13.418530
 20
125.152760
 30
0.0
 10
14.000590
 20
125.963660
 30
0.0
  0
SPLINE
  5
12c
100
AcDbEntity
  8
Layer_1
 62
7
100
AcDbSpline
 70
8
 71
3
 72
8
 73
4
 74
0
 40
0
 40
0
 40
0
 40
0
 40
1
 40
1
 40
1
 40
1
 10
14.000590
 20
125.963660
 30
0.0
 10
14.582320
 20
125.153240
 30
0.0
 10
15.881280
 20
124.630300
 30
0.0
 10
17.315820
 20
124.629010
 30
0.0
  0
SPLINE
  5
12d
100
AcDbEntity
  8
Layer_1
 62
7
100
AcDbSpline
 70
8
 71
3
 72
8
 73
4
 74
0
 40
0
 40
0
 40
0
 40
0
 40
1
 40
1
 40
1
 40
1
 10
17.315820
 20
124.629010
 30
0.0
 10
18.751200
 20
124.629540
 30
0.0
 10
20.051300
 20
125.152760
 30
0.0
 10
20.633370
 20
125.963660
 30
0.0
  0
SPLINE
  5
12e
100
AcDbEntity
  8
Layer_1
 62
7
100
AcDbSpline
 70
8
 71
3
 72
8
 73
4
 74
0
 40
0
 40
0
 40
0
 40
0
 40
1
 40
1
 40
1
 40
1
 10
20.633370
 20
125.963660
 30
0.0
 10
21.215180
 20
125.153120
 30
0.0
 10
22.514420
 20
124.630160
 30
0.0
 10
23.949180
 20
124.629010
 30
0.0
  0
SPLINE
  5
12f
100
AcDbEntity
  8
Layer_1
 62
7
100
AcDbSpline
 70
8
 71
3
 72
8
 73
4
 74
0
 40
0
 40
0
 40
0
 40
0
 40
1
 40
1
 40
1
 40
1
 10
23.949180
 20
124.629010
 30
0.0
 10
25.384550
 20
124.629540
 30
0.0
 10
26.684660
 20
125.152760
 30
0.0
 10
27.266720
 20
125.963660
 30
0.0
  0
SPLINE
  5
130
100
AcDbEntity
  8
Layer_1
 62
7
100
AcDbSpline
 70
8
 71
3
 72
8
 73
4
 74
0
 40
0
 40
0
 40
0
 40
0
 40
1
 40
1
 40
1
 40
1
 10
27.266720
 20
125.963660
 30
0.0
 10
27.848450
 20
125.153230
 30
0.0
 10
29.147410
 20
124.630300
 30
0.0
 10
30.581950
 20
124.629010
 30
0.0
  0
SPLINE
  5
131
100
AcDbEntity
  8
Layer_1
 62
7
100
AcDbSpline
 70
8
 71
3
 72
8
 73
4
 74
0
 40
0
 40
0
 40
0
 40
0
 40
1
 40
1
 40
1
 40
1
 10
30.581950
 20
124.629010
 30
0.0
 10
32.017330
 20
124.629540
 30
0.0
 10
33.317420
 20
125.152760
 30
0.0
 10
33.899490
 20
125.963660
 30
0.0
  0
SPLINE
  5
132
100
AcDbEntity
  8
Layer_1
 62
7
100
AcDbSpline
 70
8
 71
3
 72
8
 73
4
 74
0
 40
0
 40
0
 40
0
 40
0
 40
1
 40
1
 40
1
 40
1
 10
33.899490
 20
125.963660
 30
0.0
 10
34.481300
 20
125.153120
 30
0.0
 10
35.780540
 20
124.630160
 30
0.0
 10
37.215300
 20
124.629010
 30
0.0
  0
SPLINE
  5
133
100
AcDbEntity
  8
Layer_1
 62
7
100
AcDbSpline
 70
8
 71
3
 72
8
 73
4
 74
0
 40
0
 40
0
 40
0
 40
0
 40
1
 40
1
 40
1
 40
1
 10
37.215300
 20
124.629010
 30
0.0
 10
38.650680
 20
124.629540
 30
0.0
 10
39.950780
 20
125.152760
 30
0.0
 10
40.532840
 20
125.963660
 30
0.0
  0
SPLINE
  5
134
100
AcDbEntity
  8
Layer_1
 62
7
100
AcDbSpline
 70
8
 71
3
 72
8
 73
4
 74
0
 40
0
 40
0
 40
0
 40
0
 40
1
 40
1
 40
1
 40
1
 10
40.532840
 20
125.963660
 30
0.0
 10
40.717650
 20
125.706030
 30
0.0
 10
40.980340
 20
125.477360
 30
0.0
 10
41.296830
 20
125.283020
 30
0.0
  0
SPLINE
  5
135
100
AcDbEntity
  8
Layer_1
 62
7
100
AcDbSpline
 70
8
 71
3
 72
8
 73
4
 74
0
 40
0
 40
0
 40
0
 40
0
 40
1
 40
1
 40
1
 40
1
 10
41.296830
 20
125.283020
 30
0.0
 10
41.162540
 20
124.805720
 30
0.0
 10
41.092700
 20
124.287580
 30
0.0
 10
41.091940
 20
123.763160
 30
0.0
  0
SPLINE
  5
136
100
AcDbEntity
  8
Layer_1
 62
7
100
AcDbSpline
 70
8
 71
3
 72
8
 73
4
 74
0
 40
0
 40
0
 40
0
 40
0
 40
1
 40
1
 40
1
 40
1
 10
41.091940
 20
123.763160
 30
0.0
 10
41.092740
 20
122.333740
 30
0.0
 10
41.604160
 20
121.033900
 30
0.0
 10
42.404020
 20
120.427100
 30
0.0
  0
SPLINE
  5
137
100
AcDbEntity
  8
Layer_1
 62
7
100
AcDbSpline
 70
8
 71
3
 72
8
 73
4
 74
0
 40
0
 40
0
 40
0
 40
0
 40
1
 40
1
 40
1
 40
1
 10
42.404020
 20
120.427100
 30
0.0
 10
41.604160
 20
119.820270
 30
0.0
 10
41.092930
 20
118.520440
 30
0.0
 10
41.091940
 20
117.091030
 30
0.0
  0
SPLINE
  5
138
100
AcDbEntity
  8
Layer_1
 62
7
100
AcDbSpline
 70
8
 71
3
 72
8
 73
4
 74
0
 40
0
 40
0
 40
0
 40
0
 40
1
 40
1
 40
1
 40
1
 10
41.091940
 20
117.091030
 30
0.0
 10
41.093940
 20
115.661830
 30
0.0
 10
41.604270
 20
114.362260
 30
0.0
 10
42.404020
 20
113.755540
 30
0.0
  0
SPLINE
  5
139
100
AcDbEntity
  8
Layer_1
 62
7
100
AcDbSpline
 70
8
 71
3
 72
8
 73
4
 74
0
 40
0
 40
0
 40
0
 40
0
 40
1
 40
1
 40
1
 40
1
 10
42.404020
 20
113.755540
 30
0.0
 10
41.604160
 20
113.148730
 30
0.0
 10
41.092930
 20
111.848880
 30
0.0
 10
41.091940
 20
110.419470
 30
0.0
  0
SPLINE
  5
13a
100
AcDbEntity
  8
Layer_1
 62
7
100
AcDbSpline
 70
8
 71
3
 72
8
 73
4
 74
0
 40
0
 40
0
 40
0
 40
0
 40
1
 40
1
 40
1
 40
1
 10
41.091940
 20
110.419470
 30
0.0
 10
41.093940
 20
108.990270
 30
0.0
 10
41.604280
 20
107.690720
 30
0.0
 10
42.404020
 20
107.083980
 30
0.0
  0
SPLINE
  5
13b
100
AcDbEntity
  8
Layer_1
 62
7
100
AcDbSpline
 70
8
 71
3
 72
8
 73
4
 74
0
 40
0
 40
0
 40
0
 40
0
 40
1
 40
1
 40
1
 40
1
 10
42.404020
 20
107.083980
 30
0.0
 10
41.604160
 20
106.477180
 30
0.0
 10
41.092930
 20
105.177340
 30
0.0
 10
41.091940
 20
103.747930
 30
0.0
  0
SPLINE
  5
13c
100
AcDbEntity
  8
Layer_1
 62
7
100
AcDbSpline
 70
8
 71
3
 72
8
 73
4
 74
0
 40
0
 40
0
 40
0
 40
0
 40
1
 40
1
 40
1
 40
1
 10
41.091940
 20
103.747930
 30
0.0
 10
41.092740
 20
102.318510
 30
0.0
 10
41.604160
 20
101.018670
 30
0.0
 10
42.404020
 20
100.411860
 30
0.0
  0
SPLINE
  5
13d
100
AcDbEntity
  8
Layer_1
 62
7
100
AcDbSpline
 70
8
 71
3
 72
8
 73
4
 74
0
 40
0
 40
0
 40
0
 40
0
 40
1
 40
1
 40
1
 40
1
 10
42.404020
 20
100.411860
 30
0.0
 10
41.604160
 20
99.805030
 30
0.0
 10
41.092930
 20
98.505200
 30
0.0
 10
41.091940
 20
97.075790
 30
0.0
  0
SPLINE
  5
13e
100
AcDbEntity
  8
Layer_1
 62
7
100
AcDbSpline
 70
8
 71
3
 72
8
 73
4
 74
0
 40
0
 40
0
 40
0
 40
0
 40
1
 40
1
 40
1
 40
1
 10
41.091940
 20
97.075790
 30
0.0
 10
41.093940
 20
95.646580
 30
0.0
 10
41.604270
 20
94.347030
 30
0.0
 10
42.404020
 20
93.740300
 30
0.0
  0
SPLINE
  5
13f
100
AcDbEntity
  8
Layer_1
 62
7
100
AcDbSpline
 70
8
 71
3
 72
8
 73
4
 74
0
 40
0
 40
0
 40
0
 40
0
 40
1
 40
1
 40
1
 40
1
 10
42.404020
 20
93.740300
 30
0.0
 10
41.604160
 20
93.133500
 30
0.0
 10
41.092930
 20
91.833660
 30
0.0
 10
41.091940
 20
90.404240
 30
0.0
  0
SPLINE
  5
140
100
AcDbEntity
  8
Layer_1
 62
7
100
AcDbSpline
 70
8
 71
3
 72
8
 73
4
 74
0
 40
0
 40
0
 40
0
 40
0
 40
1
 40
1
 40
1
 40
1
 10
41.091940
 20
90.404240
 30
0.0
 10
41.093940
 20
88.974180
 30
0.0
 10
41.604740
 20
87.673960
 30
0.0
 10
42.405180
 20
87.067600
 30
0.0
  0
SPLINE
  5
141
100
AcDbEntity
  8
Layer_1
 62
7
100
AcDbSpline
 70
8
 71
3
 72
8
 73
4
 74
0
 40
0
 40
0
 40
0
 40
0
 40
1
 40
1
 40
1
 40
1
 10
42.405180
 20
87.067600
 30
0.0
 10
41.605100
 20
86.461500
 30
0.0
 10
41.093420
 20
85.162100
 30
0.0
 10
41.091940
 20
83.732690
 30
0.0
  0
SPLINE
  5
142
100
AcDbEntity
  8
Layer_1
 62
7
100
AcDbSpline
 70
8
 71
3
 72
8
 73
4
 74
0
 40
0
 40
0
 40
0
 40
0
 40
1
 40
1
 40
1
 40
1
 10
41.091940
 20
83.732690
 30
0.0
 10
41.092740
 20
82.303270
 30
0.0
 10
41.604160
 20
81.003440
 30
0.0
 10
42.404020
 20
80.396620
 30
0.0
  0
SPLINE
  5
143
100
AcDbEntity
  8
Layer_1
 62
7
100
AcDbSpline
 70
8
 71
3
 72
8
 73
4
 74
0
 40
0
 40
0
 40
0
 40
0
 40
1
 40
1
 40
1
 40
1
 10
42.404020
 20
80.396620
 30
0.0
 10
41.604270
 20
79.789900
 30
0.0
 10
41.093060
 20
78.490330
 30
0.0
 10
41.091940
 20
77.061140
 30
0.0
  0
SPLINE
  5
144
100
AcDbEntity
  8
Layer_1
 62
7
100
AcDbSpline
 70
8
 71
3
 72
8
 73
4
 74
0
 40
0
 40
0
 40
0
 40
0
 40
1
 40
1
 40
1
 40
1
 10
41.091940
 20
77.061140
 30
0.0
 10
41.092740
 20
75.631730
 30
0.0
 10
41.604160
 20
74.331880
 30
0.0
 10
42.404020
 20
73.725070
 30
0.0
  0
SPLINE
  5
145
100
AcDbEntity
  8
Layer_1
 62
7
100
AcDbSpline
 70
8
 71
3
 72
8
 73
4
 74
0
 40
0
 40
0
 40
0
 40
0
 40
1
 40
1
 40
1
 40
1
 10
42.404020
 20
73.725070
 30
0.0
 10
41.604160
 20
73.118260
 30
0.0
 10
41.092930
 20
71.818410
 30
0.0
 10
41.091940
 20
70.389000
 30
0.0
  0
SPLINE
  5
146
100
AcDbEntity
  8
Layer_1
 62
7
100
AcDbSpline
 70
8
 71
3
 72
8
 73
4
 74
0
 40
0
 40
0
 40
0
 40
0
 40
1
 40
1
 40
1
 40
1
 10
41.091940
 20
70.389000
 30
0.0
 10
41.093940
 20
68.959810
 30
0.0
 10
41.604270
 20
67.660240
 30
0.0
 10
42.404020
 20
67.053510
 30
0.0
  0
SPLINE
  5
147
100
AcDbEntity
  8
Layer_1
 62
7
100
AcDbSpline
 70
8
 71
3
 72
8
 73
4
 74
0
 40
0
 40
0
 40
0
 40
0
 40
1
 40
1
 40
1
 40
1
 10
42.404020
 20
67.053510
 30
0.0
 10
41.604160
 20
66.446700
 30
0.0
 10
41.092930
 20
65.146860
 30
0.0
 10
41.091940
 20
63.717460
 30
0.0
  0
SPLINE
  5
148
100
AcDbEntity
  8
Layer_1
 62
7
100
AcDbSpline
 70
8
 71
3
 72
8
 73
4
 74
0
 40
0
 40
0
 40
0
 40
0
 40
1
 40
1
 40
1
 40
1
 10
41.091940
 20
63.717460
 30
0.0
 10
41.092740
 20
62.288030
 30
0.0
 10
41.604160
 20
60.988200
 30
0.0
 10
42.404020
 20
60.381390
 30
0.0
  0
SPLINE
  5
149
100
AcDbEntity
  8
Layer_1
 62
7
100
AcDbSpline
 70
8
 71
3
 72
8
 73
4
 74
0
 40
0
 40
0
 40
0
 40
0
 40
1
 40
1
 40
1
 40
1
 10
42.404020
 20
60.381390
 30
0.0
 10
41.604270
 20
59.774660
 30
0.0
 10
41.093060
 20
58.475100
 30
0.0
 10
41.091940
 20
57.045900
 30
0.0
  0
SPLINE
  5
14a
100
AcDbEntity
  8
Layer_1
 62
7
100
AcDbSpline
 70
8
 71
3
 72
8
 73
4
 74
0
 40
0
 40
0
 40
0
 40
0
 40
1
 40
1
 40
1
 40
1
 10
41.091940
 20
57.045900
 30
0.0
 10
41.092740
 20
55.616500
 30
0.0
 10
41.604160
 20
54.316660
 30
0.0
 10
42.404020
 20
53.709830
 30
0.0
  0
SPLINE
  5
14b
100
AcDbEntity
  8
Layer_1
 62
7
100
AcDbSpline
 70
8
 71
3
 72
8
 73
4
 74
0
 40
0
 40
0
 40
0
 40
0
 40
1
 40
1
 40
1
 40
1
 10
42.404020
 20
53.709830
 30
0.0
 10
41.604160
 20
53.103020
 30
0.0
 10
41.092930
 20
51.803180
 30
0.0
 10
41.091940
 20
50.373770
 30
0.0
  0
SPLINE
  5
14c
100
AcDbEntity
  8
Layer_1
 62
7
100
AcDbSpline
 70
8
 71
3
 72
8
 73
4
 74
0
 40
0
 40
0
 40
0
 40
0
 40
1
 40
1
 40
1
 40
1
 10
41.091940
 20
50.373770
 30
0.0
 10
41.093940
 20
48.943930
 30
0.0
 10
41.604860
 20
47.643980
 30
0.0
 10
42.405180
 20
47.037710
 30
0.0
  0
SPLINE
  5
14d
100
AcDbEntity
  8
Layer_1
 62
7
100
AcDbSpline
 70
8
 71
3
 72
8
 73
4
 74
0
 40
0
 40
0
 40
0
 40
0
 40
1
 40
1
 40
1
 40
1
 10
42.405180
 20
47.037710
 30
0.0
 10
41.604980
 20
46.431530
 30
0.0
 10
41.093280
 20
45.131850
 30
0.0
 10
41.091940
 20
43.702220
 30
0.0
  0
SPLINE
  5
14e
100
AcDbEntity
  8
Layer_1
 62
7
100
AcDbSpline
 70
8
 71
3
 72
8
 73
4
 74
0
 40
0
 40
0
 40
0
 40
0
 40
1
 40
1
 40
1
 40
1
 10
41.091940
 20
43.702220
 30
0.0
 10
41.093940
 20
42.273020
 30
0.0
 10
41.604270
 20
40.973460
 30
0.0
 10
42.404020
 20
40.366740
 30
0.0
  0
SPLINE
  5
14f
100
AcDbEntity
  8
Layer_1
 62
7
100
AcDbSpline
 70
8
 71
3
 72
8
 73
4
 74
0
 40
0
 40
0
 40
0
 40
0
 40
1
 40
1
 40
1
 40
1
 10
42.404020
 20
40.366740
 30
0.0
 10
41.604160
 20
39.759920
 30
0.0
 10
41.092930
 20
38.460070
 30
0.0
 10
41.091940
 20
37.030660
 30
0.0
  0
SPLINE
  5
150
100
AcDbEntity
  8
Layer_1
 62
7
100
AcDbSpline
 70
8
 71
3
 72
8
 73
4
 74
0
 40
0
 40
0
 40
0
 40
0
 40
1
 40
1
 40
1
 40
1
 10
41.091940
 20
37.030660
 30
0.0
 10
41.092740
 20
35.601260
 30
0.0
 10
41.604160
 20
34.301410
 30
0.0
 10
42.404020
 20
33.694600
 30
0.0
  0
SPLINE
  5
151
100
AcDbEntity
  8
Layer_1
 62
7
100
AcDbSpline
 70
8
 71
3
 72
8
 73
4
 74
0
 40
0
 40
0
 40
0
 40
0
 40
1
 40
1
 40
1
 40
1
 10
42.404020
 20
33.694600
 30
0.0
 10
41.604160
 20
33.087800
 30
0.0
 10
41.092930
 20
31.787950
 30
0.0
 10
41.091940
 20
30.358540
 30
0.0
  0
SPLINE
  5
152
100
AcDbEntity
  8
Layer_1
 62
7
100
AcDbSpline
 70
8
 71
3
 72
8
 73
4
 74
0
 40
0
 40
0
 40
0
 40
0
 40
1
 40
1
 40
1
 40
1
 10
41.091940
 20
30.358540
 30
0.0
 10
41.093940
 20
28.929330
 30
0.0
 10
41.604270
 20
27.629780
 30
0.0
 10
42.404020
 20
27.023060
 30
0.0
  0
SPLINE
  5
153
100
AcDbEntity
  8
Layer_1
 62
7
100
AcDbSpline
 70
8
 71
3
 72
8
 73
4
 74
0
 40
0
 40
0
 40
0
 40
0
 40
1
 40
1
 40
1
 40
1
 10
42.404020
 20
27.023060
 30
0.0
 10
41.604160
 20
26.416230
 30
0.0
 10
41.092930
 20
25.116390
 30
0.0
 10
41.091940
 20
23.686980
 30
0.0
  0
SPLINE
  5
154
100
AcDbEntity
  8
Layer_1
 62
7
100
AcDbSpline
 70
8
 71
3
 72
8
 73
4
 74
0
 40
0
 40
0
 40
0
 40
0
 40
1
 40
1
 40
1
 40
1
 10
41.091940
 20
23.686980
 30
0.0
 10
41.093940
 20
22.257790
 30
0.0
 10
41.604270
 20
20.958220
 30
0.0
 10
42.404020
 20
20.351500
 30
0.0
  0
SPLINE
  5
155
100
AcDbEntity
  8
Layer_1
 62
7
100
AcDbSpline
 70
8
 71
3
 72
8
 73
4
 74
0
 40
0
 40
0
 40
0
 40
0
 40
1
 40
1
 40
1
 40
1
 10
42.404020
 20
20.351500
 30
0.0
 10
41.604160
 20
19.744690
 30
0.0
 10
41.092930
 20
18.444850
 30
0.0
 10
41.091940
 20
17.015440
 30
0.0
  0
SPLINE
  5
156
100
AcDbEntity
  8
Layer_1
 62
7
100
AcDbSpline
 70
8
 71
3
 72
8
 73
4
 74
0
 40
0
 40
0
 40
0
 40
0
 40
1
 40
1
 40
1
 40
1
 10
41.091940
 20
17.015440
 30
0.0
 10
41.092740
 20
15.586030
 30
0.0
 10
41.604160
 20
14.286190
 30
0.0
 10
42.404020
 20
13.679360
 30
0.0
  0
SPLINE
  5
157
100
AcDbEntity
  8
Layer_1
 62
7
100
AcDbSpline
 70
8
 71
3
 72
8
 73
4
 74
0
 40
0
 40
0
 40
0
 40
0
 40
1
 40
1
 40
1
 40
1
 10
42.404020
 20
13.679360
 30
0.0
 10
41.604270
 20
13.072640
 30
0.0
 10
41.093060
 20
11.773090
 30
0.0
 10
41.091940
 20
10.343870
 30
0.0
  0
SPLINE
  5
158
100
AcDbEntity
  8
Layer_1
 62
7
100
AcDbSpline
 70
8
 71
3
 72
8
 73
4
 74
0
 40
0
 40
0
 40
0
 40
0
 40
1
 40
1
 40
1
 40
1
 10
41.091940
 20
10.343870
 30
0.0
 10
41.092740
 20
8.953140
 30
0.0
 10
41.577130
 20
7.681470
 30
0.0
 10
42.344420
 20
7.054700
 30
0.0
  0
SPLINE
  5
159
100
AcDbEntity
  8
Layer_1
 62
7
100
AcDbSpline
 70
8
 71
3
 72
8
 73
4
 74
0
 40
0
 40
0
 40
0
 40
0
 40
1
 40
1
 40
1
 40
1
 10
42.344420
 20
7.054700
 30
0.0
 10
41.576950
 20
6.573200
 30
0.0
 10
41.092680
 20
5.596170
 30
0.0
 10
41.091940
 20
4.527760
 30
0.0
  0
SPLINE
  5
15a
100
AcDbEntity
  8
Layer_1
 62
7
100
AcDbSpline
 70
8
 71
3
 72
8
 73
4
 74
0
 40
0
 40
0
 40
0
 40
0
 40
1
 40
1
 40
1
 40
1
 10
41.091940
 20
4.527760
 30
0.0
 10
41.091820
 20
2.962890
 30
0.0
 10
41.583360
 20
0.295700
 30
0.0
 10
44.845850
 20
0.257770
 30
0.0
  0
SPLINE
  5
15b
100
AcDbEntity
  8
Layer_1
 62
7
100
AcDbSpline
 70
8
 71
3
 72
8
 73
4
 74
0
 40
0
 40
0
 40
0
 40
0
 40
1
 40
1
 40
1
 40
1
 10
44.845850
 20
0.257770
 30
0.0
 10
45.330050
 20
0.257770
 30
0.0
 10
46.775500
 20
0.978870
 30
0.0
 10
47.165640
 20
1.335260
 30
0.0
  0
SPLINE
  5
15c
100
AcDbEntity
  8
Layer_1
 62
7
100
AcDbSpline
 70
8
 71
3
 72
8
 73
4
 74
0
 40
0
 40
0
 40
0
 40
0
 40
1
 40
1
 40
1
 40
1
 10
47.165640
 20
1.335260
 30
0.0
 10
47.166170
 20
0.095530
 30
0.0
 10
48.876740
 20
0.075460
 30
0.0
 10
50.467040
 20
0.000000
 30
0.0
  0
SPLINE
  5
15d
100
AcDbEntity
  8
Layer_1
 62
7
100
AcDbSpline
 70
8
 71
3
 72
8
 73
4
 74
0
 40
0
 40
0
 40
0
 40
0
 40
1
 40
1
 40
1
 40
1
 10
50.467040
 20
0.000000
 30
0.0
 10
51.902420
 20
0.000000
 30
0.0
 10
53.202520
 20
0.523750
 30
0.0
 10
53.784580
 20
1.334640
 30
0.0
  0
SPLINE
  5
15e
100
AcDbEntity
  8
Layer_1
 62
7
100
AcDbSpline
 70
8
 71
3
 72
8
 73
4
 74
0
 40
0
 40
0
 40
0
 40
0
 40
1
 40
1
 40
1
 40
1
 10
53.784580
 20
1.334640
 30
0.0
 10
54.366310
 20
0.524220
 30
0.0
 10
55.665270
 20
0.001300
 30
0.0
 10
57.099810
 20
0.000000
 30
0.0
  0
SPLINE
  5
15f
100
AcDbEntity
  8
Layer_1
 62
7
100
AcDbSpline
 70
8
 71
3
 72
8
 73
4
 74
0
 40
0
 40
0
 40
0
 40
0
 40
1
 40
1
 40
1
 40
1
 10
57.099810
 20
0.000000
 30
0.0
 10
58.535190
 20
0.000000
 30
0.0
 10
59.835300
 20
0.523750
 30
0.0
 10
60.417360
 20
1.334640
 30
0.0
  0
SPLINE
  5
160
100
AcDbEntity
  8
Layer_1
 62
7
100
AcDbSpline
 70
8
 71
3
 72
8
 73
4
 74
0
 40
0
 40
0
 40
0
 40
0
 40
1
 40
1
 40
1
 40
1
 10
60.417360
 20
1.334640
 30
0.0
 10
60.999180
 20
0.524110
 30
0.0
 10
62.298410
 20
0.001170
 30
0.0
 10
63.733160
 20
0.000000
 30
0.0
  0
SPLINE
  5
161
100
AcDbEntity
  8
Layer_1
 62
7
100
AcDbSpline
 70
8
 71
3
 72
8
 73
4
 74
0
 40
0
 40
0
 40
0
 40
0
 40
1
 40
1
 40
1
 40
1
 10
63.733160
 20
0.000000
 30
0.0
 10
65.168540
 20
0.000000
 30
0.0
 10
66.468650
 20
0.523750
 30
0.0
 10
67.050700
 20
1.334640
 30
0.0
  0
SPLINE
  5
162
100
AcDbEntity
  8
Layer_1
 62
7
100
AcDbSpline
 70
8
 71
3
 72
8
 73
4
 74
0
 40
0
 40
0
 40
0
 40
0
 40
1
 40
1
 40
1
 40
1
 10
67.050700
 20
1.334640
 30
0.0
 10
67.632440
 20
0.524220
 30
0.0
 10
68.931390
 20
0.001300
 30
0.0
 10
70.365940
 20
0.000000
 30
0.0
  0
SPLINE
  5
163
100
AcDbEntity
  8
Layer_1
 62
7
100
AcDbSpline
 70
8
 71
3
 72
8
 73
4
 74
0
 40
0
 40
0
 40
0
 40
0
 40
1
 40
1
 40
1
 40
1
 10
70.365940
 20
0.000000
 30
0.0
 10
71.801540
 20
0.000000
 30
0.0
 10
73.101700
 20
0.524110
 30
0.0
 10
73.683480
 20
1.335240
 30
0.0
  0
SPLINE
  5
164
100
AcDbEntity
  8
Layer_1
 62
7
100
AcDbSpline
 70
8
 71
3
 72
8
 73
4
 74
0
 40
0
 40
0
 40
0
 40
0
 40
1
 40
1
 40
1
 40
1
 10
73.683480
 20
1.335240
 30
0.0
 10
74.265020
 20
0.524470
 30
0.0
 10
75.564310
 20
0.001250
 30
0.0
 10
76.999290
 20
0.000000
 30
0.0
  0
SPLINE
  5
165
100
AcDbEntity
  8
Layer_1
 62
7
100
AcDbSpline
 70
8
 71
3
 72
8
 73
4
 74
0
 40
0
 40
0
 40
0
 40
0
 40
1
 40
1
 40
1
 40
1
 10
76.999290
 20
0.000000
 30
0.0
 10
78.434670
 20
0.000000
 30
0.0
 10
79.734770
 20
0.523750
 30
0.0
 10
80.316830
 20
1.334640
 30
0.0
  0
SPLINE
  5
166
100
AcDbEntity
  8
Layer_1
 62
7
100
AcDbSpline
 70
8
 71
3
 72
8
 73
4
 74
0
 40
0
 40
0
 40
0
 40
0
 40
1
 40
1
 40
1
 40
1
 10
80.316830
 20
1.334640
 30
0.0
 10
80.898650
 20
0.524110
 30
0.0
 10
82.197890
 20
0.001170
 30
0.0
 10
83.632640
 20
0.000000
 30
0.0
  0
SPLINE
  5
167
100
AcDbEntity
  8
Layer_1
 62
7
100
AcDbSpline
 70
8
 71
3
 72
8
 73
4
 74
0
 40
0
 40
0
 40
0
 40
0
 40
1
 40
1
 40
1
 40
1
 10
83.632640
 20
0.000000
 30
0.0
 10
85.068250
 20
0.000000
 30
0.0
 10
86.368400
 20
0.524110
 30
0.0
 10
86.950180
 20
1.335240
 30
0.0
  0
SPLINE
  5
168
100
AcDbEntity
  8
Layer_1
 62
7
100
AcDbSpline
 70
8
 71
3
 72
8
 73
4
 74
0
 40
0
 40
0
 40
0
 40
0
 40
1
 40
1
 40
1
 40
1
 10
86.950180
 20
1.335240
 30
0.0
 10
87.531630
 20
0.524580
 30
0.0
 10
88.830650
 20
0.001400
 30
0.0
 10
90.265420
 20
0.000000
 30
0.0
  0
SPLINE
  5
169
100
AcDbEntity
  8
Layer_1
 62
7
100
AcDbSpline
 70
8
 71
3
 72
8
 73
4
 74
0
 40
0
 40
0
 40
0
 40
0
 40
1
 40
1
 40
1
 40
1
 10
90.265420
 20
0.000000
 30
0.0
 10
91.700790
 20
0.000000
 30
0.0
 10
93.000900
 20
0.523750
 30
0.0
 10
93.582960
 20
1.334640
 30
0.0
  0
SPLINE
  5
16a
100
AcDbEntity
  8
Layer_1
 62
7
100
AcDbSpline
 70
8
 71
3
 72
8
 73
4
 74
0
 40
0
 40
0
 40
0
 40
0
 40
1
 40
1
 40
1
 40
1
 10
93.582960
 20
1.334640
 30
0.0
 10
94.164780
 20
0.524110
 30
0.0
 10
95.464020
 20
0.001140
 30
0.0
 10
96.898770
 20
0.000000
 30
0.0
  0
SPLINE
  5
16b
100
AcDbEntity
  8
Layer_1
 62
7
100
AcDbSpline
 70
8
 71
3
 72
8
 73
4
 74
0
 40
0
 40
0
 40
0
 40
0
 40
1
 40
1
 40
1
 40
1
 10
96.898770
 20
0.000000
 30
0.0
 10
98.334140
 20
0.000000
 30
0.0
 10
99.634250
 20
0.523750
 30
0.0
 10
100.216310
 20
1.334640
 30
0.0
  0
SPLINE
  5
16c
100
AcDbEntity
  8
Layer_1
 62
7
100
AcDbSpline
 70
8
 71
3
 72
8
 73
4
 74
0
 40
0
 40
0
 40
0
 40
0
 40
1
 40
1
 40
1
 40
1
 10
100.216310
 20
1.334640
 30
0.0
 10
100.798040
 20
0.524220
 30
0.0
 10
102.097000
 20
0.001300
 30
0.0
 10
103.531540
 20
0.000000
 30
0.0
  0
SPLINE
  5
16d
100
AcDbEntity
  8
Layer_1
 62
7
100
AcDbSpline
 70
8
 71
3
 72
8
 73
4
 74
0
 40
0
 40
0
 40
0
 40
0
 40
1
 40
1
 40
1
 40
1
 10
103.531540
 20
0.000000
 30
0.0
 10
104.966920
 20
0.000000
 30
0.0
 10
106.267020
 20
0.523750
 30
0.0
 10
106.849090
 20
1.334640
 30
0.0
  0
SPLINE
  5
16e
100
AcDbEntity
  8
Layer_1
 62
7
100
AcDbSpline
 70
8
 71
3
 72
8
 73
4
 74
0
 40
0
 40
0
 40
0
 40
0
 40
1
 40
1
 40
1
 40
1
 10
106.849090
 20
1.334640
 30
0.0
 10
107.430900
 20
0.524110
 30
0.0
 10
108.730140
 20
0.001170
 30
0.0
 10
110.164890
 20
0.000000
 30
0.0
  0
SPLINE
  5
16f
100
AcDbEntity
  8
Layer_1
 62
7
100
AcDbSpline
 70
8
 71
3
 72
8
 73
4
 74
0
 40
0
 40
0
 40
0
 40
0
 40
1
 40
1
 40
1
 40
1
 10
110.164890
 20
0.000000
 30
0.0
 10
111.600270
 20
0.000000
 30
0.0
 10
112.900370
 20
0.523750
 30
0.0
 10
113.482430
 20
1.334640
 30
0.0
  0
SPLINE
  5
170
100
AcDbEntity
  8
Layer_1
 62
7
100
AcDbSpline
 70
8
 71
3
 72
8
 73
4
 74
0
 40
0
 40
0
 40
0
 40
0
 40
1
 40
1
 40
1
 40
1
 10
113.482430
 20
1.334640
 30
0.0
 10
114.064160
 20
0.524220
 30
0.0
 10
115.363120
 20
0.001300
 30
0.0
 10
116.797660
 20
0.000000
 30
0.0
  0
SPLINE
  5
171
100
AcDbEntity
  8
Layer_1
 62
7
100
AcDbSpline
 70
8
 71
3
 72
8
 73
4
 74
0
 40
0
 40
0
 40
0
 40
0
 40
1
 40
1
 40
1
 40
1
 10
116.797660
 20
0.000000
 30
0.0
 10
118.233060
 20
0.000000
 30
0.0
 10
119.533140
 20
0.523750
 30
0.0
 10
120.115210
 20
1.334640
 30
0.0
  0
SPLINE
  5
172
100
AcDbEntity
  8
Layer_1
 62
7
100
AcDbSpline
 70
8
 71
3
 72
8
 73
4
 74
0
 40
0
 40
0
 40
0
 40
0
 40
1
 40
1
 40
1
 40
1
 10
120.115210
 20
1.334640
 30
0.0
 10
120.697030
 20
0.524110
 30
0.0
 10
121.996260
 20
0.001170
 30
0.0
 10
123.431020
 20
0.000000
 30
0.0
  0
SPLINE
  5
173
100
AcDbEntity
  8
Layer_1
 62
7
100
AcDbSpline
 70
8
 71
3
 72
8
 73
4
 74
0
 40
0
 40
0
 40
0
 40
0
 40
1
 40
1
 40
1
 40
1
 10
123.431020
 20
0.000000
 30
0.0
 10
124.866400
 20
0.000000
 30
0.0
 10
126.166500
 20
0.523750
 30
0.0
 10
126.748560
 20
1.334640
 30
0.0
  0
SPLINE
  5
174
100
AcDbEntity
  8
Layer_1
 62
7
100
AcDbSpline
 70
8
 71
3
 72
8
 73
4
 74
0
 40
0
 40
0
 40
0
 40
0
 40
1
 40
1
 40
1
 40
1
 10
126.748560
 20
1.334640
 30
0.0
 10
127.330380
 20
0.524110
 30
0.0
 10
128.629620
 20
0.001170
 30
0.0
 10
130.064370
 20
0.000000
 30
0.0
  0
SPLINE
  5
175
100
AcDbEntity
  8
Layer_1
 62
7
100
AcDbSpline
 70
8
 71
3
 72
8
 73
4
 74
0
 40
0
 40
0
 40
0
 40
0
 40
1
 40
1
 40
1
 40
1
 10
130.064370
 20
0.000000
 30
0.0
 10
131.499980
 20
0.000000
 30
0.0
 10
132.800130
 20
0.524110
 30
0.0
 10
133.381910
 20
1.335240
 30
0.0
  0
SPLINE
  5
176
100
AcDbEntity
  8
Layer_1
 62
7
100
AcDbSpline
 70
8
 71
3
 72
8
 73
4
 74
0
 40
0
 40
0
 40
0
 40
0
 40
1
 40
1
 40
1
 40
1
 10
133.381910
 20
1.335240
 30
0.0
 10
133.963360
 20
0.524580
 30
0.0
 10
135.262390
 20
0.001400
 30
0.0
 10
136.697140
 20
0.000000
 30
0.0
  0
SPLINE
  5
177
100
AcDbEntity
  8
Layer_1
 62
7
100
AcDbSpline
 70
8
 71
3
 72
8
 73
4
 74
0
 40
0
 40
0
 40
0
 40
0
 40
1
 40
1
 40
1
 40
1
 10
136.697140
 20
0.000000
 30
0.0
 10
138.132540
 20
0.000000
 30
0.0
 10
139.432620
 20
0.523750
 30
0.0
 10
140.014690
 20
1.334640
 30
0.0
  0
SPLINE
  5
178
100
AcDbEntity
  8
Layer_1
 62
7
100
AcDbSpline
 70
8
 71
3
 72
8
 73
4
 74
0
 40
0
 40
0
 40
0
 40
0
 40
1
 40
1
 40
1
 40
1
 10
140.014690
 20
1.334640
 30
0.0
 10
140.596500
 20
0.524110
 30
0.0
 10
141.895740
 20
0.001170
 30
0.0
 10
143.330500
 20
0.000000
 30
0.0
  0
SPLINE
  5
179
100
AcDbEntity
  8
Layer_1
 62
7
100
AcDbSpline
 70
8
 71
3
 72
8
 73
4
 74
0
 40
0
 40
0
 40
0
 40
0
 40
1
 40
1
 40
1
 40
1
 10
143.330500
 20
0.000000
 30
0.0
 10
144.766100
 20
0.000000
 30
0.0
 10
146.066260
 20
0.524110
 30
0.0
 10
146.648040
 20
1.335240
 30
0.0
  0
SPLINE
  5
17a
100
AcDbEntity
  8
Layer_1
 62
7
100
AcDbSpline
 70
8
 71
3
 72
8
 73
4
 74
0
 40
0
 40
0
 40
0
 40
0
 40
1
 40
1
 40
1
 40
1
 10
146.648040
 20
1.335240
 30
0.0
 10
147.229490
 20
0.524580
 30
0.0
 10
148.528500
 20
0.001400
 30
0.0
 10
149.963270
 20
0.000000
 30
0.0
  0
SPLINE
  5
17b
100
AcDbEntity
  8
Layer_1
 62
7
100
AcDbSpline
 70
8
 71
3
 72
8
 73
4
 74
0
 40
0
 40
0
 40
0
 40
0
 40
1
 40
1
 40
1
 40
1
 10
149.963270
 20
0.000000
 30
0.0
 10
151.398650
 20
0.000000
 30
0.0
 10
152.698750
 20
0.523750
 30
0.0
 10
153.280820
 20
1.334640
 30
0.0
  0
SPLINE
  5
17c
100
AcDbEntity
  8
Layer_1
 62
7
100
AcDbSpline
 70
8
 71
3
 72
8
 73
4
 74
0
 40
0
 40
0
 40
0
 40
0
 40
1
 40
1
 40
1
 40
1
 10
153.280820
 20
1.334640
 30
0.0
 10
153.862630
 20
0.524110
 30
0.0
 10
155.161860
 20
0.001140
 30
0.0
 10
156.596620
 20
0.000000
 30
0.0
  0
SPLINE
  5
17d
100
AcDbEntity
  8
Layer_1
 62
7
100
AcDbSpline
 70
8
 71
3
 72
8
 73
4
 74
0
 40
0
 40
0
 40
0
 40
0
 40
1
 40
1
 40
1
 40
1
 10
156.596620
 20
0.000000
 30
0.0
 10
158.032000
 20
0.000000
 30
0.0
 10
159.332100
 20
0.523750
 30
0.0
 10
159.914160
 20
1.334640
 30
0.0
  0
SPLINE
  5
17e
100
AcDbEntity
  8
Layer_1
 62
7
100
AcDbSpline
 70
8
 71
3
 72
8
 73
4
 74
0
 40
0
 40
0
 40
0
 40
0
 40
1
 40
1
 40
1
 40
1
 10
159.914160
 20
1.334640
 30
0.0
 10
160.495900
 20
0.524220
 30
0.0
 10
161.794850
 20
0.001300
 30
0.0
 10
163.229390
 20
0.000000
 30
0.0
  0
SPLINE
  5
17f
100
AcDbEntity
  8
Layer_1
 62
7
100
AcDbSpline
 70
8
 71
3
 72
8
 73
4
 74
0
 40
0
 40
0
 40
0
 40
0
 40
1
 40
1
 40
1
 40
1
 10
163.229390
 20
0.000000
 30
0.0
 10
164.664780
 20
0.000000
 30
0.0
 10
165.964870
 20
0.523750
 30
0.0
 10
166.546940
 20
1.334640
 30
0.0
  0
SPLINE
  5
180
100
AcDbEntity
  8
Layer_1
 62
7
100
AcDbSpline
 70
8
 71
3
 72
8
 73
4
 74
0
 40
0
 40
0
 40
0
 40
0
 40
1
 40
1
 40
1
 40
1
 10
166.546940
 20
1.334640
 30
0.0
 10
167.128760
 20
0.524110
 30
0.0
 10
168.427990
 20
0.001170
 30
0.0
 10
169.862740
 20
0.000000
 30
0.0
  0
SPLINE
  5
181
100
AcDbEntity
  8
Layer_1
 62
7
100
AcDbSpline
 70
8
 71
3
 72
8
 73
4
 74
0
 40
0
 40
0
 40
0
 40
0
 40
1
 40
1
 40
1
 40
1
 10
169.862740
 20
0.000000
 30
0.0
 10
171.298130
 20
0.000000
 30
0.0
 10
172.598220
 20
0.523750
 30
0.0
 10
173.180290
 20
1.334640
 30
0.0
  0
SPLINE
  5
182
100
AcDbEntity
  8
Layer_1
 62
7
100
AcDbSpline
 70
8
 71
3
 72
8
 73
4
 74
0
 40
0
 40
0
 40
0
 40
0
 40
1
 40
1
 40
1
 40
1
 10
173.180290
 20
1.334640
 30
0.0
 10
173.762020
 20
0.524220
 30
0.0
 10
175.060980
 20
0.001300
 30
0.0
 10
176.495520
 20
0.000000
 30
0.0
  0
SPLINE
  5
183
100
AcDbEntity
  8
Layer_1
 62
7
100
AcDbSpline
 70
8
 71
3
 72
8
 73
4
 74
0
 40
0
 40
0
 40
0
 40
0
 40
1
 40
1
 40
1
 40
1
 10
176.495520
 20
0.000000
 30
0.0
 10
178.391360
 20
-0.000130
 30
0.0
 10
178.872320
 20
3.470740
 30
0.0
 10
178.872470
 20
4.386540
 30
0.0
  0
SPLINE
  5
184
100
AcDbEntity
  8
Layer_1
 62
7
100
AcDbSpline
 70
8
 71
3
 72
8
 73
4
 74
0
 40
0
 40
0
 40
0
 40
0
 40
1
 40
1
 40
1
 40
1
 10
178.872470
 20
4.386540
 30
0.0
 10
178.871680
 20
5.512620
 30
0.0
 10
178.382980
 20
6.541370
 30
0.0
 10
177.610740
 20
7.044290
 30
0.0
  0
SPLINE
  5
185
100
AcDbEntity
  8
Layer_1
 62
7
100
AcDbSpline
 70
8
 71
3
 72
8
 73
4
 74
0
 40
0
 40
0
 40
0
 40
0
 40
1
 40
1
 40
1
 40
1
 10
177.610740
 20
7.044290
 30
0.0
 10
178.383700
 20
7.668560
 30
0.0
 10
178.872200
 20
8.946070
 30
0.0
 10
178.872470
 20
10.343870
 30
0.0
  0
SPLINE
  5
186
100
AcDbEntity
  8
Layer_1
 62
7
100
AcDbSpline
 70
8
 71
3
 72
8
 73
4
 74
0
 40
0
 40
0
 40
0
 40
0
 40
1
 40
1
 40
1
 40
1
 10
178.872470
 20
10.343870
 30
0.0
 10
178.870470
 20
11.773090
 30
0.0
 10
178.359670
 20
13.072430
 30
0.0
 10
177.559810
 20
13.678790
 30
0.0
  0
SPLINE
  5
187
100
AcDbEntity
  8
Layer_1
 62
7
100
AcDbSpline
 70
8
 71
3
 72
8
 73
4
 74
0
 40
0
 40
0
 40
0
 40
0
 40
1
 40
1
 40
1
 40
1
 10
177.559810
 20
13.678790
 30
0.0
 10
178.360020
 20
14.285420
 30
0.0
 10
178.871520
 20
15.585610
 30
0.0
 10
178.872470
 20
17.015440
 30
0.0
  0
SPLINE
  5
188
100
AcDbEntity
  8
Layer_1
 62
7
100
AcDbSpline
 70
8
 71
3
 72
8
 73
4
 74
0
 40
0
 40
0
 40
0
 40
0
 40
1
 40
1
 40
1
 40
1
 10
178.872470
 20
17.015440
 30
0.0
 10
178.871680
 20
18.444630
 30
0.0
 10
178.360140
 20
19.744210
 30
0.0
 10
177.560380
 20
20.350930
 30
0.0
  0
SPLINE
  5
189
100
AcDbEntity
  8
Layer_1
 62
7
100
AcDbSpline
 70
8
 71
3
 72
8
 73
4
 74
0
 40
0
 40
0
 40
0
 40
0
 40
1
 40
1
 40
1
 40
1
 10
177.560380
 20
20.350930
 30
0.0
 10
178.360260
 20
20.957730
 30
0.0
 10
178.871490
 20
22.257580
 30
0.0
 10
178.872470
 20
23.686980
 30
0.0
  0
SPLINE
  5
18a
100
AcDbEntity
  8
Layer_1
 62
7
100
AcDbSpline
 70
8
 71
3
 72
8
 73
4
 74
0
 40
0
 40
0
 40
0
 40
0
 40
1
 40
1
 40
1
 40
1
 10
178.872470
 20
23.686980
 30
0.0
 10
178.871680
 20
25.116410
 30
0.0
 10
178.359780
 20
26.416020
 30
0.0
 10
177.559810
 20
27.022470
 30
0.0
  0
SPLINE
  5
18b
100
AcDbEntity
  8
Layer_1
 62
7
100
AcDbSpline
 70
8
 71
3
 72
8
 73
4
 74
0
 40
0
 40
0
 40
0
 40
0
 40
1
 40
1
 40
1
 40
1
 10
177.559810
 20
27.022470
 30
0.0
 10
178.359900
 20
27.629020
 30
0.0
 10
178.871380
 20
28.928900
 30
0.0
 10
178.872470
 20
30.358540
 30
0.0
  0
SPLINE
  5
18c
100
AcDbEntity
  8
Layer_1
 62
7
100
AcDbSpline
 70
8
 71
3
 72
8
 73
4
 74
0
 40
0
 40
0
 40
0
 40
0
 40
1
 40
1
 40
1
 40
1
 10
178.872470
 20
30.358540
 30
0.0
 10
178.871680
 20
31.787950
 30
0.0
 10
178.359780
 20
33.087570
 30
0.0
 10
177.559810
 20
33.694030
 30
0.0
  0
SPLINE
  5
18d
100
AcDbEntity
  8
Layer_1
 62
7
100
AcDbSpline
 70
8
 71
3
 72
8
 73
4
 74
0
 40
0
 40
0
 40
0
 40
0
 40
1
 40
1
 40
1
 40
1
 10
177.559810
 20
33.694030
 30
0.0
 10
178.360020
 20
34.300670
 30
0.0
 10
178.871520
 20
35.600830
 30
0.0
 10
178.872470
 20
37.030660
 30
0.0
  0
SPLINE
  5
18e
100
AcDbEntity
  8
Layer_1
 62
7
100
AcDbSpline
 70
8
 71
3
 72
8
 73
4
 74
0
 40
0
 40
0
 40
0
 40
0
 40
1
 40
1
 40
1
 40
1
 10
178.872470
 20
37.030660
 30
0.0
 10
178.871680
 20
38.459870
 30
0.0
 10
178.360140
 20
39.759420
 30
0.0
 10
177.560380
 20
40.366160
 30
0.0
  0
SPLINE
  5
18f
100
AcDbEntity
  8
Layer_1
 62
7
100
AcDbSpline
 70
8
 71
3
 72
8
 73
4
 74
0
 40
0
 40
0
 40
0
 40
0
 40
1
 40
1
 40
1
 40
1
 10
177.560380
 20
40.366160
 30
0.0
 10
178.360260
 20
40.972970
 30
0.0
 10
178.871490
 20
42.272820
 30
0.0
 10
178.872470
 20
43.702220
 30
0.0
  0
SPLINE
  5
190
100
AcDbEntity
  8
Layer_1
 62
7
100
AcDbSpline
 70
8
 71
3
 72
8
 73
4
 74
0
 40
0
 40
0
 40
0
 40
0
 40
1
 40
1
 40
1
 40
1
 10
178.872470
 20
43.702220
 30
0.0
 10
178.871680
 20
45.131630
 30
0.0
 10
178.359780
 20
46.431250
 30
0.0
 10
177.559810
 20
47.037710
 30
0.0
  0
SPLINE
  5
191
100
AcDbEntity
  8
Layer_1
 62
7
100
AcDbSpline
 70
8
 71
3
 72
8
 73
4
 74
0
 40
0
 40
0
 40
0
 40
0
 40
1
 40
1
 40
1
 40
1
 10
177.559810
 20
47.037710
 30
0.0
 10
178.359900
 20
47.644250
 30
0.0
 10
178.871380
 20
48.944140
 30
0.0
 10
178.872470
 20
50.373770
 30
0.0
  0
SPLINE
  5
192
100
AcDbEntity
  8
Layer_1
 62
7
100
AcDbSpline
 70
8
 71
3
 72
8
 73
4
 74
0
 40
0
 40
0
 40
0
 40
0
 40
1
 40
1
 40
1
 40
1
 10
178.872470
 20
50.373770
 30
0.0
 10
178.871680
 20
51.803190
 30
0.0
 10
178.359780
 20
53.102810
 30
0.0
 10
177.559810
 20
53.709260
 30
0.0
  0
SPLINE
  5
193
100
AcDbEntity
  8
Layer_1
 62
7
100
AcDbSpline
 70
8
 71
3
 72
8
 73
4
 74
0
 40
0
 40
0
 40
0
 40
0
 40
1
 40
1
 40
1
 40
1
 10
177.559810
 20
53.709260
 30
0.0
 10
178.360020
 20
54.315900
 30
0.0
 10
178.871520
 20
55.616060
 30
0.0
 10
178.872470
 20
57.045900
 30
0.0
  0
SPLINE
  5
194
100
AcDbEntity
  8
Layer_1
 62
7
100
AcDbSpline
 70
8
 71
3
 72
8
 73
4
 74
0
 40
0
 40
0
 40
0
 40
0
 40
1
 40
1
 40
1
 40
1
 10
178.872470
 20
57.045900
 30
0.0
 10
178.870470
 20
58.475110
 30
0.0
 10
178.359670
 20
59.774450
 30
0.0
 10
177.559810
 20
60.380820
 30
0.0
  0
SPLINE
  5
195
100
AcDbEntity
  8
Layer_1
 62
7
100
AcDbSpline
 70
8
 71
3
 72
8
 73
4
 74
0
 40
0
 40
0
 40
0
 40
0
 40
1
 40
1
 40
1
 40
1
 10
177.559810
 20
60.380820
 30
0.0
 10
178.360020
 20
60.987440
 30
0.0
 10
178.871520
 20
62.287620
 30
0.0
 10
178.872470
 20
63.717460
 30
0.0
  0
SPLINE
  5
196
100
AcDbEntity
  8
Layer_1
 62
7
100
AcDbSpline
 70
8
 71
3
 72
8
 73
4
 74
0
 40
0
 40
0
 40
0
 40
0
 40
1
 40
1
 40
1
 40
1
 10
178.872470
 20
63.717460
 30
0.0
 10
178.871680
 20
65.146660
 30
0.0
 10
178.360140
 20
66.446220
 30
0.0
 10
177.560380
 20
67.052940
 30
0.0
  0
SPLINE
  5
197
100
AcDbEntity
  8
Layer_1
 62
7
100
AcDbSpline
 70
8
 71
3
 72
8
 73
4
 74
0
 40
0
 40
0
 40
0
 40
0
 40
1
 40
1
 40
1
 40
1
 10
177.560380
 20
67.052940
 30
0.0
 10
178.360260
 20
67.659760
 30
0.0
 10
178.871490
 20
68.959600
 30
0.0
 10
178.872470
 20
70.389000
 30
0.0
  0
SPLINE
  5
198
100
AcDbEntity
  8
Layer_1
 62
7
100
AcDbSpline
 70
8
 71
3
 72
8
 73
4
 74
0
 40
0
 40
0
 40
0
 40
0
 40
1
 40
1
 40
1
 40
1
 10
178.872470
 20
70.389000
 30
0.0
 10
178.871680
 20
71.818420
 30
0.0
 10
178.359780
 20
73.118040
 30
0.0
 10
177.559810
 20
73.724490
 30
0.0
  0
SPLINE
  5
199
100
AcDbEntity
  8
Layer_1
 62
7
100
AcDbSpline
 70
8
 71
3
 72
8
 73
4
 74
0
 40
0
 40
0
 40
0
 40
0
 40
1
 40
1
 40
1
 40
1
 10
177.559810
 20
73.724490
 30
0.0
 10
178.359900
 20
74.331040
 30
0.0
 10
178.871380
 20
75.630940
 30
0.0
 10
178.872470
 20
77.060560
 30
0.0
  0
SPLINE
  5
19a
100
AcDbEntity
  8
Layer_1
 62
7
100
AcDbSpline
 70
8
 71
3
 72
8
 73
4
 74
0
 40
0
 40
0
 40
0
 40
0
 40
1
 40
1
 40
1
 40
1
 10
178.872470
 20
77.060560
 30
0.0
 10
178.870470
 20
78.490410
 30
0.0
 10
178.358140
 20
79.789690
 30
0.0
 10
177.557490
 20
80.394890
 30
0.0
  0
SPLINE
  5
19b
100
AcDbEntity
  8
Layer_1
 62
7
100
AcDbSpline
 70
8
 71
3
 72
8
 73
4
 74
0
 40
0
 40
0
 40
0
 40
0
 40
1
 40
1
 40
1
 40
1
 10
177.557490
 20
80.394890
 30
0.0
 10
178.358840
 20
81.000610
 30
0.0
 10
178.871380
 20
82.301570
 30
0.0
 10
178.872470
 20
83.732690
 30
0.0
  0
SPLINE
  5
19c
100
AcDbEntity
  8
Layer_1
 62
7
100
AcDbSpline
 70
8
 71
3
 72
8
 73
4
 74
0
 40
0
 40
0
 40
0
 40
0
 40
1
 40
1
 40
1
 40
1
 10
178.872470
 20
83.732690
 30
0.0
 10
178.871680
 20
85.161890
 30
0.0
 10
178.360140
 20
86.461450
 30
0.0
 10
177.560380
 20
87.068170
 30
0.0
  0
SPLINE
  5
19d
100
AcDbEntity
  8
Layer_1
 62
7
100
AcDbSpline
 70
8
 71
3
 72
8
 73
4
 74
0
 40
0
 40
0
 40
0
 40
0
 40
1
 40
1
 40
1
 40
1
 10
177.560380
 20
87.068170
 30
0.0
 10
178.360260
 20
87.674990
 30
0.0
 10
178.871490
 20
88.974830
 30
0.0
 10
178.872470
 20
90.404240
 30
0.0
  0
SPLINE
  5
19e
100
AcDbEntity
  8
Layer_1
 62
7
100
AcDbSpline
 70
8
 71
3
 72
8
 73
4
 74
0
 40
0
 40
0
 40
0
 40
0
 40
1
 40
1
 40
1
 40
1
 10
178.872470
 20
90.404240
 30
0.0
 10
178.871680
 20
91.833660
 30
0.0
 10
178.359780
 20
93.133270
 30
0.0
 10
177.559810
 20
93.739730
 30
0.0
  0
SPLINE
  5
19f
100
AcDbEntity
  8
Layer_1
 62
7
100
AcDbSpline
 70
8
 71
3
 72
8
 73
4
 74
0
 40
0
 40
0
 40
0
 40
0
 40
1
 40
1
 40
1
 40
1
 10
177.559810
 20
93.739730
 30
0.0
 10
178.359900
 20
94.346270
 30
0.0
 10
178.871380
 20
95.646170
 30
0.0
 10
178.872470
 20
97.075790
 30
0.0
  0
SPLINE
  5
1a0
100
AcDbEntity
  8
Layer_1
 62
7
100
AcDbSpline
 70
8
 71
3
 72
8
 73
4
 74
0
 40
0
 40
0
 40
0
 40
0
 40
1
 40
1
 40
1
 40
1
 10
178.872470
 20
97.075790
 30
0.0
 10
178.871680
 20
98.505210
 30
0.0
 10
178.359780
 20
99.804820
 30
0.0
 10
177.559810
 20
100.411280
 30
0.0
  0
SPLINE
  5
1a1
100
AcDbEntity
  8
Layer_1
 62
7
100
AcDbSpline
 70
8
 71
3
 72
8
 73
4
 74
0
 40
0
 40
0
 40
0
 40
0
 40
1
 40
1
 40
1
 40
1
 10
177.559810
 20
100.411280
 30
0.0
 10
178.360020
 20
101.017910
 30
0.0
 10
178.871520
 20
102.318100
 30
0.0
 10
178.872470
 20
103.747930
 30
0.0
  0
SPLINE
  5
1a2
100
AcDbEntity
  8
Layer_1
 62
7
100
AcDbSpline
 70
8
 71
3
 72
8
 73
4
 74
0
 40
0
 40
0
 40
0
 40
0
 40
1
 40
1
 40
1
 40
1
 10
178.872470
 20
103.747930
 30
0.0
 10
178.871680
 20
105.177130
 30
0.0
 10
178.360140
 20
106.476670
 30
0.0
 10
177.560380
 20
107.083410
 30
0.0
  0
SPLINE
  5
1a3
100
AcDbEntity
  8
Layer_1
 62
7
100
AcDbSpline
 70
8
 71
3
 72
8
 73
4
 74
0
 40
0
 40
0
 40
0
 40
0
 40
1
 40
1
 40
1
 40
1
 10
177.560380
 20
107.083410
 30
0.0
 10
178.360260
 20
107.690220
 30
0.0
 10
178.871490
 20
108.990060
 30
0.0
 10
178.872470
 20
110.419470
 30
0.0
  0
SPLINE
  5
1a4
100
AcDbEntity
  8
Layer_1
 62
7
100
AcDbSpline
 70
8
 71
3
 72
8
 73
4
 74
0
 40
0
 40
0
 40
0
 40
0
 40
1
 40
1
 40
1
 40
1
 10
178.872470
 20
110.419470
 30
0.0
 10
178.871680
 20
111.848880
 30
0.0
 10
178.359780
 20
113.148500
 30
0.0
 10
177.559810
 20
113.754960
 30
0.0
  0
SPLINE
  5
1a5
100
AcDbEntity
  8
Layer_1
 62
7
100
AcDbSpline
 70
8
 71
3
 72
8
 73
4
 74
0
 40
0
 40
0
 40
0
 40
0
 40
1
 40
1
 40
1
 40
1
 10
177.559810
 20
113.754960
 30
0.0
 10
178.359900
 20
114.361500
 30
0.0
 10
178.871380
 20
115.661410
 30
0.0
 10
178.872470
 20
117.091030
 30
0.0
  0
SPLINE
  5
1a6
100
AcDbEntity
  8
Layer_1
 62
7
100
AcDbSpline
 70
8
 71
3
 72
8
 73
4
 74
0
 40
0
 40
0
 40
0
 40
0
 40
1
 40
1
 40
1
 40
1
 10
178.872470
 20
117.091030
 30
0.0
 10
178.871680
 20
118.520440
 30
0.0
 10
178.359780
 20
119.820060
 30
0.0
 10
177.559810
 20
120.426510
 30
0.0
  0
SPLINE
  5
1a7
100
AcDbEntity
  8
Layer_1
 62
7
100
AcDbSpline
 70
8
 71
3
 72
8
 73
4
 74
0
 40
0
 40
0
 40
0
 40
0
 40
1
 40
1
 40
1
 40
1
 10
177.559810
 20
120.426510
 30
0.0
 10
178.360020
 20
121.033150
 30
0.0
 10
178.871520
 20
122.333330
 30
0.0
 10
178.872470
 20
123.763160
 30
0.0
  0
SPLINE
  5
1a8
100
AcDbEntity
  8
Layer_1
 62
7
100
AcDbSpline
 70
8
 71
3
 72
8
 73
4
 74
0
 40
0
 40
0
 40
0
 40
0
 40
1
 40
1
 40
1
 40
1
 10
178.872470
 20
123.763160
 30
0.0
 10
178.871680
 20
124.303370
 30
0.0
 10
178.797170
 20
124.836630
 30
0.0
 10
178.654860
 20
125.325270
 30
0.0
  0
SPLINE
  5
1a9
100
AcDbEntity
  8
Layer_1
 62
7
100
AcDbSpline
 70
8
 71
3
 72
8
 73
4
 74
0
 40
0
 40
0
 40
0
 40
0
 40
1
 40
1
 40
1
 40
1
 10
178.654860
 20
125.325270
 30
0.0
 10
180.023170
 20
124.889840
 30
0.0
 10
182.134380
 20
124.629840
 30
0.0
 10
183.143260
 20
124.629010
 30
0.0
  0
SPLINE
  5
1aa
100
AcDbEntity
  8
Layer_1
 62
7
100
AcDbSpline
 70
8
 71
3
 72
8
 73
4
 74
0
 40
0
 40
0
 40
0
 40
0
 40
1
 40
1
 40
1
 40
1
 10
183.143260
 20
124.629010
 30
0.0
 10
184.578640
 20
124.629540
 30
0.0
 10
185.878740
 20
125.152760
 30
0.0
 10
186.460810
 20
125.963660
 30
0.0
  0
SPLINE
  5
1ab
100
AcDbEntity
  8
Layer_1
 62
7
100
AcDbSpline
 70
8
 71
3
 72
8
 73
4
 74
0
 40
0
 40
0
 40
0
 40
0
 40
1
 40
1
 40
1
 40
1
 10
186.460810
 20
125.963660
 30
0.0
 10
187.042620
 20
125.153120
 30
0.0
 10
188.341860
 20
124.630150
 30
0.0
 10
189.776620
 20
124.629010
 30
0.0
  0
SPLINE
  5
1ac
100
AcDbEntity
  8
Layer_1
 62
7
100
AcDbSpline
 70
8
 71
3
 72
8
 73
4
 74
0
 40
0
 40
0
 40
0
 40
0
 40
1
 40
1
 40
1
 40
1
 10
189.776620
 20
124.629010
 30
0.0
 10
191.211990
 20
124.629540
 30
0.0
 10
192.512100
 20
125.152760
 30
0.0
 10
193.094160
 20
125.963660
 30
0.0
  0
SPLINE
  5
1ad
100
AcDbEntity
  8
Layer_1
 62
7
100
AcDbSpline
 70
8
 71
3
 72
8
 73
4
 74
0
 40
0
 40
0
 40
0
 40
0
 40
1
 40
1
 40
1
 40
1
 10
193.094160
 20
125.963660
 30
0.0
 10
193.675890
 20
125.153230
 30
0.0
 10
194.974850
 20
124.630300
 30
0.0
 10
196.409380
 20
124.629010
 30
0.0
  0
SPLINE
  5
1ae
100
AcDbEntity
  8
Layer_1
 62
7
100
AcDbSpline
 70
8
 71
3
 72
8
 73
4
 74
0
 40
0
 40
0
 40
0
 40
0
 40
1
 40
1
 40
1
 40
1
 10
196.409380
 20
124.629010
 30
0.0
 10
197.844770
 20
124.629540
 30
0.0
 10
199.144890
 20
125.152760
 30
0.0
 10
199.726930
 20
125.963660
 30
0.0
  0
SPLINE
  5
1af
100
AcDbEntity
  8
Layer_1
 62
7
100
AcDbSpline
 70
8
 71
3
 72
8
 73
4
 74
0
 40
0
 40
0
 40
0
 40
0
 40
1
 40
1
 40
1
 40
1
 10
199.726930
 20
125.963660
 30
0.0
 10
200.308740
 20
125.153120
 30
0.0
 10
201.607980
 20
124.630160
 30
0.0
 10
203.042740
 20
124.629010
 30
0.0
  0
SPLINE
  5
1b0
100
AcDbEntity
  8
Layer_1
 62
7
100
AcDbSpline
 70
8
 71
3
 72
8
 73
4
 74
0
 40
0
 40
0
 40
0
 40
0
 40
1
 40
1
 40
1
 40
1
 10
203.042740
 20
124.629010
 30
0.0
 10
204.478120
 20
124.629540
 30
0.0
 10
205.778220
 20
125.152760
 30
0.0
 10
206.360280
 20
125.963660
 30
0.0
  0
SPLINE
  5
1b1
100
AcDbEntity
  8
Layer_1
 62
7
100
AcDbSpline
 70
8
 71
3
 72
8
 73
4
 74
0
 40
0
 40
0
 40
0
 40
0
 40
1
 40
1
 40
1
 40
1
 10
206.360280
 20
125.963660
 30
0.0
 10
206.942010
 20
125.153240
 30
0.0
 10
208.240970
 20
124.630300
 30
0.0
 10
209.675510
 20
124.629010
 30
0.0
  0
SPLINE
  5
1b2
100
AcDbEntity
  8
Layer_1
 62
7
100
AcDbSpline
 70
8
 71
3
 72
8
 73
4
 74
0
 40
0
 40
0
 40
0
 40
0
 40
1
 40
1
 40
1
 40
1
 10
209.675510
 20
124.629010
 30
0.0
 10
211.110900
 20
124.629540
 30
0.0
 10
212.410990
 20
125.152760
 30
0.0
 10
212.993060
 20
125.963660
 30
0.0
  0
SPLINE
  5
1b3
100
AcDbEntity
  8
Layer_1
 62
7
100
AcDbSpline
 70
8
 71
3
 72
8
 73
4
 74
0
 40
0
 40
0
 40
0
 40
0
 40
1
 40
1
 40
1
 40
1
 10
212.993060
 20
125.963660
 30
0.0
 10
213.574860
 20
125.153120
 30
0.0
 10
214.874110
 20
124.630160
 30
0.0
 10
216.308880
 20
124.629010
 30
0.0
  0
SPLINE
  5
1b4
100
AcDbEntity
  8
Layer_1
 62
7
100
AcDbSpline
 70
8
 71
3
 72
8
 73
4
 74
0
 40
0
 40
0
 40
0
 40
0
 40
1
 40
1
 40
1
 40
1
 10
216.308880
 20
124.629010
 30
0.0
 10
218.212350
 20
124.629800
 30
0.0
 10
219.791620
 20
125.539220
 30
0.0
 10
219.928530
 20
126.712600
 30
0.0
  0
LWPOLYLINE
  5
1b5
100
AcDbEntity
  8
Layer_1
 62
7
100
AcDbPolyline
 90
4
 70
0
 10
0.480380
 20
168.430440
 30
0.0
 10
0.000000
 20
168.430440
 30
0.0
 10
0.000000
 20
126.712600
 30
0.0
 10
0.427140
 20
126.712600
 30
0.0
  0
SPLINE
  5
1b6
100
AcDbEntity
  8
Layer_1
 62
7
100
AcDbSpline
 70
8
 71
3
 72
8
 73
4
 74
0
 40
0
 40
0
 40
0
 40
0
 40
1
 40
1
 40
1
 40
1
 10
219.878760
 20
168.430170
 30
0.0
 10
219.560160
 20
169.493950
 30
0.0
 10
218.059340
 20
170.266010
 30
0.0
 10
216.308880
 20
170.266620
 30
0.0
  0
SPLINE
  5
1b7
100
AcDbEntity
  8
Layer_1
 62
7
100
AcDbSpline
 70
8
 71
3
 72
8
 73
4
 74
0
 40
0
 40
0
 40
0
 40
0
 40
1
 40
1
 40
1
 40
1
 10
216.308880
 20
170.266620
 30
0.0
 10
214.873480
 20
170.266090
 30
0.0
 10
213.573380
 20
169.742870
 30
0.0
 10
212.991320
 20
168.931960
 30
0.0
  0
SPLINE
  5
1b8
100
AcDbEntity
  8
Layer_1
 62
7
100
AcDbSpline
 70
8
 71
3
 72
8
 73
4
 74
0
 40
0
 40
0
 40
0
 40
0
 40
1
 40
1
 40
1
 40
1
 10
212.991320
 20
168.931960
 30
0.0
 10
212.409510
 20
169.742510
 30
0.0
 10
211.110260
 20
170.265470
 30
0.0
 10
209.675510
 20
170.266620
 30
0.0
  0
SPLINE
  5
1b9
100
AcDbEntity
  8
Layer_1
 62
7
100
AcDbSpline
 70
8
 71
3
 72
8
 73
4
 74
0
 40
0
 40
0
 40
0
 40
0
 40
1
 40
1
 40
1
 40
1
 10
209.675510
 20
170.266620
 30
0.0
 10
208.240340
 20
170.265830
 30
0.0
 10
206.940540
 20
169.742740
 30
0.0
 10
206.358540
 20
168.931960
 30
0.0
  0
SPLINE
  5
1ba
100
AcDbEntity
  8
Layer_1
 62
7
100
AcDbSpline
 70
8
 71
3
 72
8
 73
4
 74
0
 40
0
 40
0
 40
0
 40
0
 40
1
 40
1
 40
1
 40
1
 10
206.358540
 20
168.931960
 30
0.0
 10
205.776730
 20
169.742510
 30
0.0
 10
204.477500
 20
170.265470
 30
0.0
 10
203.042740
 20
170.266620
 30
0.0
  0
SPLINE
  5
1bb
100
AcDbEntity
  8
Layer_1
 62
7
100
AcDbSpline
 70
8
 71
3
 72
8
 73
4
 74
0
 40
0
 40
0
 40
0
 40
0
 40
1
 40
1
 40
1
 40
1
 10
203.042740
 20
170.266620
 30
0.0
 10
201.607360
 20
170.266090
 30
0.0
 10
200.307260
 20
169.742860
 30
0.0
 10
199.725190
 20
168.931960
 30
0.0
  0
SPLINE
  5
1bc
100
AcDbEntity
  8
Layer_1
 62
7
100
AcDbSpline
 70
8
 71
3
 72
8
 73
4
 74
0
 40
0
 40
0
 40
0
 40
0
 40
1
 40
1
 40
1
 40
1
 10
199.725190
 20
168.931960
 30
0.0
 10
199.143380
 20
169.742510
 30
0.0
 10
197.844140
 20
170.265470
 30
0.0
 10
196.409380
 20
170.266620
 30
0.0
  0
SPLINE
  5
1bd
100
AcDbEntity
  8
Layer_1
 62
7
100
AcDbSpline
 70
8
 71
3
 72
8
 73
4
 74
0
 40
0
 40
0
 40
0
 40
0
 40
1
 40
1
 40
1
 40
1
 10
196.409380
 20
170.266620
 30
0.0
 10
194.974220
 20
170.266090
 30
0.0
 10
193.674180
 20
169.743220
 30
0.0
 10
193.091840
 20
168.932540
 30
0.0
  0
SPLINE
  5
1be
100
AcDbEntity
  8
Layer_1
 62
7
100
AcDbSpline
 70
8
 71
3
 72
8
 73
4
 74
0
 40
0
 40
0
 40
0
 40
0
 40
1
 40
1
 40
1
 40
1
 10
193.091840
 20
168.932540
 30
0.0
 10
192.509830
 20
169.742740
 30
0.0
 10
191.210930
 20
170.265430
 30
0.0
 10
189.776620
 20
170.266620
 30
0.0
  0
SPLINE
  5
1bf
100
AcDbEntity
  8
Layer_1
 62
7
100
AcDbSpline
 70
8
 71
3
 72
8
 73
4
 74
0
 40
0
 40
0
 40
0
 40
0
 40
1
 40
1
 40
1
 40
1
 10
189.776620
 20
170.266620
 30
0.0
 10
188.341230
 20
170.266090
 30
0.0
 10
187.041140
 20
169.742870
 30
0.0
 10
186.459070
 20
168.931960
 30
0.0
  0
SPLINE
  5
1c0
100
AcDbEntity
  8
Layer_1
 62
7
100
AcDbSpline
 70
8
 71
3
 72
8
 73
4
 74
0
 40
0
 40
0
 40
0
 40
0
 40
1
 40
1
 40
1
 40
1
 10
186.459070
 20
168.931960
 30
0.0
 10
185.877260
 20
169.742510
 30
0.0
 10
184.578020
 20
170.265470
 30
0.0
 10
183.143260
 20
170.266620
 30
0.0
  0
SPLINE
  5
1c1
100
AcDbEntity
  8
Layer_1
 62
7
100
AcDbSpline
 70
8
 71
3
 72
8
 73
4
 74
0
 40
0
 40
0
 40
0
 40
0
 40
1
 40
1
 40
1
 40
1
 10
183.143260
 20
170.266620
 30
0.0
 10
181.707880
 20
170.266090
 30
0.0
 10
180.407780
 20
169.742860
 30
0.0
 10
179.825710
 20
168.931960
 30
0.0
  0
SPLINE
  5
1c2
100
AcDbEntity
  8
Layer_1
 62
7
100
AcDbSpline
 70
8
 71
3
 72
8
 73
4
 74
0
 40
0
 40
0
 40
0
 40
0
 40
1
 40
1
 40
1
 40
1
 10
179.825710
 20
168.931960
 30
0.0
 10
179.597070
 20
169.250380
 30
0.0
 10
179.251610
 20
169.525760
 30
0.0
 10
178.827900
 20
169.743990
 30
0.0
  0
SPLINE
  5
1c3
100
AcDbEntity
  8
Layer_1
 62
7
100
AcDbSpline
 70
8
 71
3
 72
8
 73
4
 74
0
 40
0
 40
0
 40
0
 40
0
 40
1
 40
1
 40
1
 40
1
 10
178.827900
 20
169.743990
 30
0.0
 10
178.857300
 20
169.981420
 30
0.0
 10
178.872300
 20
170.222970
 30
0.0
 10
178.872500
 20
170.465140
 30
0.0
  0
SPLINE
  5
1c4
100
AcDbEntity
  8
Layer_1
 62
7
100
AcDbSpline
 70
8
 71
3
 72
8
 73
4
 74
0
 40
0
 40
0
 40
0
 40
0
 40
1
 40
1
 40
1
 40
1
 10
178.872500
 20
170.465140
 30
0.0
 10
178.871710
 20
171.851100
 30
0.0
 10
178.390310
 20
173.119130
 30
0.0
 10
177.626980
 20
173.747960
 30
0.0
  0
LWPOLYLINE
  5
1c5
100
AcDbEntity
  8
Layer_1
 62
7
100
AcDbPolyline
 90
4
 70
0
 10
219.928530
 20
126.712600
 30
0.0
 10
220.358570
 20
126.712600
 30
0.0
 10
220.358570
 20
168.430170
 30
0.0
 10
219.878760
 20
168.430170
 30
0.0
  0
SPLINE
  5
1c6
100
AcDbEntity
  8
Layer_1
 62
7
100
AcDbSpline
 70
8
 71
3
 72
8
 73
4
 74
0
 40
0
 40
0
 40
0
 40
0
 40
1
 40
1
 40
1
 40
1
 10
177.626980
 20
173.848660
 30
0.0
 10
178.391340
 20
174.478350
 30
0.0
 10
178.872620
 20
175.748860
 30
0.0
 10
178.872500
 20
177.136690
 30
0.0
  0
SPLINE
  5
1c7
100
AcDbEntity
  8
Layer_1
 62
7
100
AcDbSpline
 70
8
 71
3
 72
8
 73
4
 74
0
 40
0
 40
0
 40
0
 40
0
 40
1
 40
1
 40
1
 40
1
 10
178.872500
 20
177.136690
 30
0.0
 10
178.871710
 20
178.522860
 30
0.0
 10
178.390420
 20
179.791160
 30
0.0
 10
177.626980
 20
180.420090
 30
0.0
  0
LWPOLYLINE
  5
1c8
100
AcDbEntity
  8
Layer_1
 62
7
100
AcDbPolyline
 90
2
 70
0
 10
177.626980
 20
173.747960
 30
0.0
 10
177.626980
 20
173.848660
 30
0.0
  0
SPLINE
  5
1c9
100
AcDbEntity
  8
Layer_1
 62
7
100
AcDbSpline
 70
8
 71
3
 72
8
 73
4
 74
0
 40
0
 40
0
 40
0
 40
0
 40
1
 40
1
 40
1
 40
1
 10
177.626980
 20
180.520790
 30
0.0
 10
178.391220
 20
181.150380
 30
0.0
 10
178.872480
 20
182.420620
 30
0.0
 10
178.872500
 20
183.808240
 30
0.0
  0
SPLINE
  5
1ca
100
AcDbEntity
  8
Layer_1
 62
7
100
AcDbSpline
 70
8
 71
3
 72
8
 73
4
 74
0
 40
0
 40
0
 40
0
 40
0
 40
1
 40
1
 40
1
 40
1
 10
178.872500
 20
183.808240
 30
0.0
 10
178.871710
 20
185.194410
 30
0.0
 10
178.390420
 20
186.462710
 30
0.0
 10
177.626980
 20
187.091640
 30
0.0
  0
LWPOLYLINE
  5
1cb
100
AcDbEntity
  8
Layer_1
 62
7
100
AcDbPolyline
 90
2
 70
0
 10
177.626980
 20
180.420090
 30
0.0
 10
177.626980
 20
180.520790
 30
0.0
  0
SPLINE
  5
1cc
100
AcDbEntity
  8
Layer_1
 62
7
100
AcDbSpline
 70
8
 71
3
 72
8
 73
4
 74
0
 40
0
 40
0
 40
0
 40
0
 40
1
 40
1
 40
1
 40
1
 10
177.626980
 20
187.192350
 30
0.0
 10
178.391340
 20
187.822030
 30
0.0
 10
178.872620
 20
189.092540
 30
0.0
 10
178.872500
 20
190.480370
 30
0.0
  0
SPLINE
  5
1cd
100
AcDbEntity
  8
Layer_1
 62
7
100
AcDbSpline
 70
8
 71
3
 72
8
 73
4
 74
0
 40
0
 40
0
 40
0
 40
0
 40
1
 40
1
 40
1
 40
1
 10
178.872500
 20
190.480370
 30
0.0
 10
178.871710
 20
191.866330
 30
0.0
 10
178.390310
 20
193.134360
 30
0.0
 10
177.626980
 20
193.763190
 30
0.0
  0
LWPOLYLINE
  5
1ce
100
AcDbEntity
  8
Layer_1
 62
7
100
AcDbPolyline
 90
2
 70
0
 10
177.626980
 20
187.091640
 30
0.0
 10
177.626980
 20
187.192350
 30
0.0
  0
SPLINE
  5
1cf
100
AcDbEntity
  8
Layer_1
 62
7
100
AcDbSpline
 70
8
 71
3
 72
8
 73
4
 74
0
 40
0
 40
0
 40
0
 40
0
 40
1
 40
1
 40
1
 40
1
 10
177.626980
 20
193.863900
 30
0.0
 10
178.391340
 20
194.493580
 30
0.0
 10
178.872620
 20
195.764090
 30
0.0
 10
178.872500
 20
197.151923
 30
0.0
  0
SPLINE
  5
1d0
100
AcDbEntity
  8
Layer_1
 62
7
100
AcDbSpline
 70
8
 71
3
 72
8
 73
4
 74
0
 40
0
 40
0
 40
0
 40
0
 40
1
 40
1
 40
1
 40
1
 10
178.872500
 20
197.151923
 30
0.0
 10
178.871710
 20
198.538091
 30
0.0
 10
178.390420
 20
199.806395
 30
0.0
 10
177.626980
 20
200.435320
 30
0.0
  0
LWPOLYLINE
  5
1d1
100
AcDbEntity
  8
Layer_1
 62
7
100
AcDbPolyline
 90
2
 70
0
 10
177.626980
 20
193.763190
 30
0.0
 10
177.626980
 20
193.863900
 30
0.0
  0
SPLINE
  5
1d2
100
AcDbEntity
  8
Layer_1
 62
7
100
AcDbSpline
 70
8
 71
3
 72
8
 73
4
 74
0
 40
0
 40
0
 40
0
 40
0
 40
1
 40
1
 40
1
 40
1
 10
177.626980
 20
200.536029
 30
0.0
 10
178.391220
 20
201.165615
 30
0.0
 10
178.872480
 20
202.435851
 30
0.0
 10
178.872500
 20
203.823477
 30
0.0
  0
SPLINE
  5
1d3
100
AcDbEntity
  8
Layer_1
 62
7
100
AcDbSpline
 70
8
 71
3
 72
8
 73
4
 74
0
 40
0
 40
0
 40
0
 40
0
 40
1
 40
1
 40
1
 40
1
 10
178.872500
 20
203.823477
 30
0.0
 10
178.871710
 20
205.209642
 30
0.0
 10
178.390420
 20
206.477946
 30
0.0
 10
177.626980
 20
207.106874
 30
0.0
  0
LWPOLYLINE
  5
1d4
100
AcDbEntity
  8
Layer_1
 62
7
100
AcDbPolyline
 90
2
 70
0
 10
177.626980
 20
200.435320
 30
0.0
 10
177.626980
 20
200.536029
 30
0.0
  0
SPLINE
  5
1d5
100
AcDbEntity
  8
Layer_1
 62
7
100
AcDbSpline
 70
8
 71
3
 72
8
 73
4
 74
0
 40
0
 40
0
 40
0
 40
0
 40
1
 40
1
 40
1
 40
1
 10
177.626980
 20
207.207582
 30
0.0
 10
177.853220
 20
207.395518
 30
0.0
 10
178.058420
 20
207.643375
 30
0.0
 10
178.234110
 20
207.940888
 30
0.0
  0
SPLINE
  5
1d6
100
AcDbEntity
  8
Layer_1
 62
7
100
AcDbSpline
 70
8
 71
3
 72
8
 73
4
 74
0
 40
0
 40
0
 40
0
 40
0
 40
1
 40
1
 40
1
 40
1
 10
178.234110
 20
207.940888
 30
0.0
 10
178.934910
 20
208.174830
 30
0.0
 10
179.499860
 20
208.544553
 30
0.0
 10
179.828640
 20
209.001206
 30
0.0
  0
SPLINE
  5
1d7
100
AcDbEntity
  8
Layer_1
 62
7
100
AcDbSpline
 70
8
 71
3
 72
8
 73
4
 74
0
 40
0
 40
0
 40
0
 40
0
 40
1
 40
1
 40
1
 40
1
 10
179.828640
 20
209.001206
 30
0.0
 10
180.410000
 20
208.190671
 30
0.0
 10
181.708740
 20
207.667502
 30
0.0
 10
183.143290
 20
207.665970
 30
0.0
  0
SPLINE
  5
1d8
100
AcDbEntity
  8
Layer_1
 62
7
100
AcDbSpline
 70
8
 71
3
 72
8
 73
4
 74
0
 40
0
 40
0
 40
0
 40
0
 40
1
 40
1
 40
1
 40
1
 10
183.143290
 20
207.665970
 30
0.0
 10
184.578670
 20
207.666499
 30
0.0
 10
185.878780
 20
208.189729
 30
0.0
 10
186.460840
 20
209.000629
 30
0.0
  0
SPLINE
  5
1d9
100
AcDbEntity
  8
Layer_1
 62
7
100
AcDbSpline
 70
8
 71
3
 72
8
 73
4
 74
0
 40
0
 40
0
 40
0
 40
0
 40
1
 40
1
 40
1
 40
1
 10
186.460840
 20
209.000629
 30
0.0
 10
187.042660
 20
208.190081
 30
0.0
 10
188.341890
 20
207.667118
 30
0.0
 10
189.776650
 20
207.665970
 30
0.0
  0
SPLINE
  5
1da
100
AcDbEntity
  8
Layer_1
 62
7
100
AcDbSpline
 70
8
 71
3
 72
8
 73
4
 74
0
 40
0
 40
0
 40
0
 40
0
 40
1
 40
1
 40
1
 40
1
 10
189.776650
 20
207.665970
 30
0.0
 10
191.212020
 20
207.666499
 30
0.0
 10
192.512130
 20
208.189729
 30
0.0
 10
193.094190
 20
209.000629
 30
0.0
  0
SPLINE
  5
1db
100
AcDbEntity
  8
Layer_1
 62
7
100
AcDbSpline
 70
8
 71
3
 72
8
 73
4
 74
0
 40
0
 40
0
 40
0
 40
0
 40
1
 40
1
 40
1
 40
1
 10
193.094190
 20
209.000629
 30
0.0
 10
193.675920
 20
208.190200
 30
0.0
 10
194.974880
 20
207.667261
 30
0.0
 10
196.409420
 20
207.665970
 30
0.0
  0
SPLINE
  5
1dc
100
AcDbEntity
  8
Layer_1
 62
7
100
AcDbSpline
 70
8
 71
3
 72
8
 73
4
 74
0
 40
0
 40
0
 40
0
 40
0
 40
1
 40
1
 40
1
 40
1
 10
196.409420
 20
207.665970
 30
0.0
 10
197.844800
 20
207.666499
 30
0.0
 10
199.144920
 20
208.189729
 30
0.0
 10
199.726960
 20
209.000629
 30
0.0
  0
SPLINE
  5
1dd
100
AcDbEntity
  8
Layer_1
 62
7
100
AcDbSpline
 70
8
 71
3
 72
8
 73
4
 74
0
 40
0
 40
0
 40
0
 40
0
 40
1
 40
1
 40
1
 40
1
 10
199.726960
 20
209.000629
 30
0.0
 10
200.308780
 20
208.190083
 30
0.0
 10
201.608020
 20
207.667118
 30
0.0
 10
203.042770
 20
207.665970
 30
0.0
  0
SPLINE
  5
1de
100
AcDbEntity
  8
Layer_1
 62
7
100
AcDbSpline
 70
8
 71
3
 72
8
 73
4
 74
0
 40
0
 40
0
 40
0
 40
0
 40
1
 40
1
 40
1
 40
1
 10
203.042770
 20
207.665970
 30
0.0
 10
204.478150
 20
207.666499
 30
0.0
 10
205.778240
 20
208.189726
 30
0.0
 10
206.360310
 20
209.000629
 30
0.0
  0
SPLINE
  5
1df
100
AcDbEntity
  8
Layer_1
 62
7
100
AcDbSpline
 70
8
 71
3
 72
8
 73
4
 74
0
 40
0
 40
0
 40
0
 40
0
 40
1
 40
1
 40
1
 40
1
 10
206.360310
 20
209.000629
 30
0.0
 10
206.942040
 20
208.190202
 30
0.0
 10
208.241000
 20
207.667261
 30
0.0
 10
209.675540
 20
207.665970
 30
0.0
  0
SPLINE
  5
1e0
100
AcDbEntity
  8
Layer_1
 62
7
100
AcDbSpline
 70
8
 71
3
 72
8
 73
4
 74
0
 40
0
 40
0
 40
0
 40
0
 40
1
 40
1
 40
1
 40
1
 10
209.675540
 20
207.665970
 30
0.0
 10
211.110930
 20
207.666499
 30
0.0
 10
212.411010
 20
208.189726
 30
0.0
 10
212.993100
 20
209.000629
 30
0.0
  0
SPLINE
  5
1e1
100
AcDbEntity
  8
Layer_1
 62
7
100
AcDbSpline
 70
8
 71
3
 72
8
 73
4
 74
0
 40
0
 40
0
 40
0
 40
0
 40
1
 40
1
 40
1
 40
1
 10
212.993100
 20
209.000629
 30
0.0
 10
213.574900
 20
208.190083
 30
0.0
 10
214.874150
 20
207.667118
 30
0.0
 10
216.308900
 20
207.665970
 30
0.0
  0
SPLINE
  5
1e2
100
AcDbEntity
  8
Layer_1
 62
7
100
AcDbSpline
 70
8
 71
3
 72
8
 73
4
 74
0
 40
0
 40
0
 40
0
 40
0
 40
1
 40
1
 40
1
 40
1
 10
216.308900
 20
207.665970
 30
0.0
 10
218.030380
 20
207.666182
 30
0.0
 10
219.515200
 20
208.413214
 30
0.0
 10
219.864900
 20
209.454966
 30
0.0
  0
LWPOLYLINE
  5
1e3
100
AcDbEntity
  8
Layer_1
 62
7
100
AcDbPolyline
 90
2
 70
0
 10
177.626980
 20
207.106874
 30
0.0
 10
177.626980
 20
207.207582
 30
0.0
  0
SPLINE
  5
1e4
100
AcDbEntity
  8
Layer_1
 62
7
100
AcDbSpline
 70
8
 71
3
 72
8
 73
4
 74
0
 40
0
 40
0
 40
0
 40
0
 40
1
 40
1
 40
1
 40
1
 10
219.941300
 20
247.815393
 30
0.0
 10
219.941300
 20
249.055265
 30
0.0
 10
218.315050
 20
250.060401
 30
0.0
 10
216.308900
 20
250.060465
 30
0.0
  0
SPLINE
  5
1e5
100
AcDbEntity
  8
Layer_1
 62
7
100
AcDbSpline
 70
8
 71
3
 72
8
 73
4
 74
0
 40
0
 40
0
 40
0
 40
0
 40
1
 40
1
 40
1
 40
1
 10
216.308900
 20
250.060465
 30
0.0
 10
214.873310
 20
250.059665
 30
0.0
 10
213.573140
 20
249.536361
 30
0.0
 10
212.991360
 20
248.725225
 30
0.0
  0
SPLINE
  5
1e6
100
AcDbEntity
  8
Layer_1
 62
7
100
AcDbSpline
 70
8
 71
3
 72
8
 73
4
 74
0
 40
0
 40
0
 40
0
 40
0
 40
1
 40
1
 40
1
 40
1
 10
212.991360
 20
248.725225
 30
0.0
 10
212.409820
 20
249.536001
 30
0.0
 10
211.110520
 20
250.059217
 30
0.0
 10
209.675540
 20
250.060465
 30
0.0
  0
SPLINE
  5
1e7
100
AcDbEntity
  8
Layer_1
 62
7
100
AcDbSpline
 70
8
 71
3
 72
8
 73
4
 74
0
 40
0
 40
0
 40
0
 40
0
 40
1
 40
1
 40
1
 40
1
 10
209.675540
 20
250.060465
 30
0.0
 10
208.240150
 20
250.059665
 30
0.0
 10
206.940280
 20
249.536233
 30
0.0
 10
206.358580
 20
248.725225
 30
0.0
  0
SPLINE
  5
1e8
100
AcDbEntity
  8
Layer_1
 62
7
100
AcDbSpline
 70
8
 71
3
 72
8
 73
4
 74
0
 40
0
 40
0
 40
0
 40
0
 40
1
 40
1
 40
1
 40
1
 10
206.358580
 20
248.725225
 30
0.0
 10
205.777040
 20
249.536001
 30
0.0
 10
204.477740
 20
250.059217
 30
0.0
 10
203.042770
 20
250.060465
 30
0.0
  0
SPLINE
  5
1e9
100
AcDbEntity
  8
Layer_1
 62
7
100
AcDbSpline
 70
8
 71
3
 72
8
 73
4
 74
0
 40
0
 40
0
 40
0
 40
0
 40
1
 40
1
 40
1
 40
1
 10
203.042770
 20
250.060465
 30
0.0
 10
201.607170
 20
250.059665
 30
0.0
 10
200.307010
 20
249.536353
 30
0.0
 10
199.725220
 20
248.725225
 30
0.0
  0
SPLINE
  5
1ea
100
AcDbEntity
  8
Layer_1
 62
7
100
AcDbSpline
 70
8
 71
3
 72
8
 73
4
 74
0
 40
0
 40
0
 40
0
 40
0
 40
1
 40
1
 40
1
 40
1
 10
199.725220
 20
248.725225
 30
0.0
 10
199.143700
 20
249.536001
 30
0.0
 10
197.844400
 20
250.059217
 30
0.0
 10
196.409420
 20
250.060465
 30
0.0
  0
SPLINE
  5
1eb
100
AcDbEntity
  8
Layer_1
 62
7
100
AcDbSpline
 70
8
 71
3
 72
8
 73
4
 74
0
 40
0
 40
0
 40
0
 40
0
 40
1
 40
1
 40
1
 40
1
 10
196.409420
 20
250.060465
 30
0.0
 10
194.974040
 20
250.059753
 30
0.0
 10
193.673940
 20
249.536713
 30
0.0
 10
193.091870
 20
248.725809
 30
0.0
  0
SPLINE
  5
1ec
100
AcDbEntity
  8
Layer_1
 62
7
100
AcDbSpline
 70
8
 71
3
 72
8
 73
4
 74
0
 40
0
 40
0
 40
0
 40
0
 40
1
 40
1
 40
1
 40
1
 10
193.091870
 20
248.725809
 30
0.0
 10
192.510140
 20
249.536233
 30
0.0
 10
191.211180
 20
250.059177
 30
0.0
 10
189.776650
 20
250.060465
 30
0.0
  0
SPLINE
  5
1ed
100
AcDbEntity
  8
Layer_1
 62
7
100
AcDbSpline
 70
8
 71
3
 72
8
 73
4
 74
0
 40
0
 40
0
 40
0
 40
0
 40
1
 40
1
 40
1
 40
1
 10
189.776650
 20
250.060465
 30
0.0
 10
188.341040
 20
250.059665
 30
0.0
 10
187.040880
 20
249.536361
 30
0.0
 10
186.459100
 20
248.725225
 30
0.0
  0
SPLINE
  5
1ee
100
AcDbEntity
  8
Layer_1
 62
7
100
AcDbSpline
 70
8
 71
3
 72
8
 73
4
 74
0
 40
0
 40
0
 40
0
 40
0
 40
1
 40
1
 40
1
 40
1
 10
186.459100
 20
248.725225
 30
0.0
 10
185.877580
 20
249.536001
 30
0.0
 10
184.578270
 20
250.059217
 30
0.0
 10
183.143290
 20
250.060465
 30
0.0
  0
SPLINE
  5
1ef
100
AcDbEntity
  8
Layer_1
 62
7
100
AcDbSpline
 70
8
 71
3
 72
8
 73
4
 74
0
 40
0
 40
0
 40
0
 40
0
 40
1
 40
1
 40
1
 40
1
 10
183.143290
 20
250.060465
 30
0.0
 10
181.707690
 20
250.059665
 30
0.0
 10
180.407540
 20
249.536353
 30
0.0
 10
179.825740
 20
248.725225
 30
0.0
  0
SPLINE
  5
1f0
100
AcDbEntity
  8
Layer_1
 62
7
100
AcDbSpline
 70
8
 71
3
 72
8
 73
4
 74
0
 40
0
 40
0
 40
0
 40
0
 40
1
 40
1
 40
1
 40
1
 10
179.825740
 20
248.725225
 30
0.0
 10
179.244300
 20
249.535881
 30
0.0
 10
177.945290
 20
250.059073
 30
0.0
 10
176.510520
 20
250.060465
 30
0.0
  0
SPLINE
  5
1f1
100
AcDbEntity
  8
Layer_1
 62
7
100
AcDbSpline
 70
8
 71
3
 72
8
 73
4
 74
0
 40
0
 40
0
 40
0
 40
0
 40
1
 40
1
 40
1
 40
1
 10
176.510520
 20
250.060465
 30
0.0
 10
175.074910
 20
250.059665
 30
0.0
 10
173.774760
 20
249.536353
 30
0.0
 10
173.192980
 20
248.725225
 30
0.0
  0
SPLINE
  5
1f2
100
AcDbEntity
  8
Layer_1
 62
7
100
AcDbSpline
 70
8
 71
3
 72
8
 73
4
 74
0
 40
0
 40
0
 40
0
 40
0
 40
1
 40
1
 40
1
 40
1
 10
173.192980
 20
248.725225
 30
0.0
 10
172.611450
 20
249.536001
 30
0.0
 10
171.312140
 20
250.059217
 30
0.0
 10
169.877170
 20
250.060465
 30
0.0
  0
SPLINE
  5
1f3
100
AcDbEntity
  8
Layer_1
 62
7
100
AcDbSpline
 70
8
 71
3
 72
8
 73
4
 74
0
 40
0
 40
0
 40
0
 40
0
 40
1
 40
1
 40
1
 40
1
 10
169.877170
 20
250.060465
 30
0.0
 10
168.441560
 20
250.059665
 30
0.0
 10
167.141410
 20
249.536361
 30
0.0
 10
166.559620
 20
248.725225
 30
0.0
  0
SPLINE
  5
1f4
100
AcDbEntity
  8
Layer_1
 62
7
100
AcDbSpline
 70
8
 71
3
 72
8
 73
4
 74
0
 40
0
 40
0
 40
0
 40
0
 40
1
 40
1
 40
1
 40
1
 10
166.559620
 20
248.725225
 30
0.0
 10
165.978180
 20
249.535881
 30
0.0
 10
164.679160
 20
250.059073
 30
0.0
 10
163.244390
 20
250.060465
 30
0.0
  0
SPLINE
  5
1f5
100
AcDbEntity
  8
Layer_1
 62
7
100
AcDbSpline
 70
8
 71
3
 72
8
 73
4
 74
0
 40
0
 40
0
 40
0
 40
0
 40
1
 40
1
 40
1
 40
1
 10
163.244390
 20
250.060465
 30
0.0
 10
161.808790
 20
250.059665
 30
0.0
 10
160.508630
 20
249.536353
 30
0.0
 10
159.926850
 20
248.725225
 30
0.0
  0
SPLINE
  5
1f6
100
AcDbEntity
  8
Layer_1
 62
7
100
AcDbSpline
 70
8
 71
3
 72
8
 73
4
 74
0
 40
0
 40
0
 40
0
 40
0
 40
1
 40
1
 40
1
 40
1
 10
159.926850
 20
248.725225
 30
0.0
 10
159.345310
 20
249.536001
 30
0.0
 10
158.046020
 20
250.059217
 30
0.0
 10
156.611040
 20
250.060465
 30
0.0
  0
SPLINE
  5
1f7
100
AcDbEntity
  8
Layer_1
 62
7
100
AcDbSpline
 70
8
 71
3
 72
8
 73
4
 74
0
 40
0
 40
0
 40
0
 40
0
 40
1
 40
1
 40
1
 40
1
 10
156.611040
 20
250.060465
 30
0.0
 10
155.175440
 20
250.059665
 30
0.0
 10
153.875280
 20
249.536353
 30
0.0
 10
153.293500
 20
248.725225
 30
0.0
  0
SPLINE
  5
1f8
100
AcDbEntity
  8
Layer_1
 62
7
100
AcDbSpline
 70
8
 71
3
 72
8
 73
4
 74
0
 40
0
 40
0
 40
0
 40
0
 40
1
 40
1
 40
1
 40
1
 10
153.293500
 20
248.725225
 30
0.0
 10
152.711970
 20
249.536001
 30
0.0
 10
151.412670
 20
250.059217
 30
0.0
 10
149.977690
 20
250.060465
 30
0.0
  0
SPLINE
  5
1f9
100
AcDbEntity
  8
Layer_1
 62
7
100
AcDbSpline
 70
8
 71
3
 72
8
 73
4
 74
0
 40
0
 40
0
 40
0
 40
0
 40
1
 40
1
 40
1
 40
1
 10
149.977690
 20
250.060465
 30
0.0
 10
148.542300
 20
250.059665
 30
0.0
 10
147.242430
 20
249.536241
 30
0.0
 10
146.660720
 20
248.725225
 30
0.0
  0
SPLINE
  5
1fa
100
AcDbEntity
  8
Layer_1
 62
7
100
AcDbSpline
 70
8
 71
3
 72
8
 73
4
 74
0
 40
0
 40
0
 40
0
 40
0
 40
1
 40
1
 40
1
 40
1
 10
146.660720
 20
248.725225
 30
0.0
 10
146.079200
 20
249.536001
 30
0.0
 10
144.779900
 20
250.059217
 30
0.0
 10
143.344920
 20
250.060465
 30
0.0
  0
SPLINE
  5
1fb
100
AcDbEntity
  8
Layer_1
 62
7
100
AcDbSpline
 70
8
 71
3
 72
8
 73
4
 74
0
 40
0
 40
0
 40
0
 40
0
 40
1
 40
1
 40
1
 40
1
 10
143.344920
 20
250.060465
 30
0.0
 10
141.909310
 20
250.059665
 30
0.0
 10
140.609150
 20
249.536361
 30
0.0
 10
140.027380
 20
248.725225
 30
0.0
  0
SPLINE
  5
1fc
100
AcDbEntity
  8
Layer_1
 62
7
100
AcDbSpline
 70
8
 71
3
 72
8
 73
4
 74
0
 40
0
 40
0
 40
0
 40
0
 40
1
 40
1
 40
1
 40
1
 10
140.027380
 20
248.725225
 30
0.0
 10
139.445850
 20
249.536001
 30
0.0
 10
138.146540
 20
250.059217
 30
0.0
 10
136.711560
 20
250.060465
 30
0.0
  0
SPLINE
  5
1fd
100
AcDbEntity
  8
Layer_1
 62
7
100
AcDbSpline
 70
8
 71
3
 72
8
 73
4
 74
0
 40
0
 40
0
 40
0
 40
0
 40
1
 40
1
 40
1
 40
1
 10
136.711560
 20
250.060465
 30
0.0
 10
135.276180
 20
250.059753
 30
0.0
 10
133.976080
 20
249.536705
 30
0.0
 10
133.394020
 20
248.725809
 30
0.0
  0
SPLINE
  5
1fe
100
AcDbEntity
  8
Layer_1
 62
7
100
AcDbSpline
 70
8
 71
3
 72
8
 73
4
 74
0
 40
0
 40
0
 40
0
 40
0
 40
1
 40
1
 40
1
 40
1
 10
133.394020
 20
248.725809
 30
0.0
 10
132.812300
 20
249.536233
 30
0.0
 10
131.513330
 20
250.059177
 30
0.0
 10
130.078790
 20
250.060465
 30
0.0
  0
SPLINE
  5
1ff
100
AcDbEntity
  8
Layer_1
 62
7
100
AcDbSpline
 70
8
 71
3
 72
8
 73
4
 74
0
 40
0
 40
0
 40
0
 40
0
 40
1
 40
1
 40
1
 40
1
 10
130.078790
 20
250.060465
 30
0.0
 10
128.643180
 20
250.059665
 30
0.0
 10
127.343030
 20
249.536353
 30
0.0
 10
126.761250
 20
248.725225
 30
0.0
  0
SPLINE
  5
200
100
AcDbEntity
  8
Layer_1
 62
7
100
AcDbSpline
 70
8
 71
3
 72
8
 73
4
 74
0
 40
0
 40
0
 40
0
 40
0
 40
1
 40
1
 40
1
 40
1
 10
126.761250
 20
248.725225
 30
0.0
 10
126.179720
 20
249.536001
 30
0.0
 10
124.880420
 20
250.059217
 30
0.0
 10
123.445440
 20
250.060465
 30
0.0
  0
SPLINE
  5
201
100
AcDbEntity
  8
Layer_1
 62
7
100
AcDbSpline
 70
8
 71
3
 72
8
 73
4
 74
0
 40
0
 40
0
 40
0
 40
0
 40
1
 40
1
 40
1
 40
1
 10
123.445440
 20
250.060465
 30
0.0
 10
122.009830
 20
250.059665
 30
0.0
 10
120.709680
 20
249.536361
 30
0.0
 10
120.127900
 20
248.725225
 30
0.0
  0
SPLINE
  5
202
100
AcDbEntity
  8
Layer_1
 62
7
100
AcDbSpline
 70
8
 71
3
 72
8
 73
4
 74
0
 40
0
 40
0
 40
0
 40
0
 40
1
 40
1
 40
1
 40
1
 10
120.127900
 20
248.725225
 30
0.0
 10
119.546450
 20
249.535881
 30
0.0
 10
118.247430
 20
250.059073
 30
0.0
 10
116.812660
 20
250.060465
 30
0.0
  0
SPLINE
  5
203
100
AcDbEntity
  8
Layer_1
 62
7
100
AcDbSpline
 70
8
 71
3
 72
8
 73
4
 74
0
 40
0
 40
0
 40
0
 40
0
 40
1
 40
1
 40
1
 40
1
 10
116.812660
 20
250.060465
 30
0.0
 10
115.377060
 20
250.059665
 30
0.0
 10
114.076900
 20
249.536361
 30
0.0
 10
113.495120
 20
248.725225
 30
0.0
  0
SPLINE
  5
204
100
AcDbEntity
  8
Layer_1
 62
7
100
AcDbSpline
 70
8
 71
3
 72
8
 73
4
 74
0
 40
0
 40
0
 40
0
 40
0
 40
1
 40
1
 40
1
 40
1
 10
113.495120
 20
248.725225
 30
0.0
 10
112.913590
 20
249.536001
 30
0.0
 10
111.614290
 20
250.059217
 30
0.0
 10
110.179310
 20
250.060465
 30
0.0
  0
SPLINE
  5
205
100
AcDbEntity
  8
Layer_1
 62
7
100
AcDbSpline
 70
8
 71
3
 72
8
 73
4
 74
0
 40
0
 40
0
 40
0
 40
0
 40
1
 40
1
 40
1
 40
1
 10
110.179310
 20
250.060465
 30
0.0
 10
108.743710
 20
250.059665
 30
0.0
 10
107.443550
 20
249.536361
 30
0.0
 10
106.861770
 20
248.725225
 30
0.0
  0
SPLINE
  5
206
100
AcDbEntity
  8
Layer_1
 62
7
100
AcDbSpline
 70
8
 71
3
 72
8
 73
4
 74
0
 40
0
 40
0
 40
0
 40
0
 40
1
 40
1
 40
1
 40
1
 10
106.861770
 20
248.725225
 30
0.0
 10
106.280320
 20
249.535881
 30
0.0
 10
104.981300
 20
250.059073
 30
0.0
 10
103.546540
 20
250.060465
 30
0.0
  0
SPLINE
  5
207
100
AcDbEntity
  8
Layer_1
 62
7
100
AcDbSpline
 70
8
 71
3
 72
8
 73
4
 74
0
 40
0
 40
0
 40
0
 40
0
 40
1
 40
1
 40
1
 40
1
 10
103.546540
 20
250.060465
 30
0.0
 10
102.110930
 20
250.059665
 30
0.0
 10
100.810780
 20
249.536353
 30
0.0
 10
100.228990
 20
248.725225
 30
0.0
  0
SPLINE
  5
208
100
AcDbEntity
  8
Layer_1
 62
7
100
AcDbSpline
 70
8
 71
3
 72
8
 73
4
 74
0
 40
0
 40
0
 40
0
 40
0
 40
1
 40
1
 40
1
 40
1
 10
100.228990
 20
248.725225
 30
0.0
 10
99.647460
 20
249.536001
 30
0.0
 10
98.348170
 20
250.059217
 30
0.0
 10
96.913180
 20
250.060465
 30
0.0
  0
SPLINE
  5
209
100
AcDbEntity
  8
Layer_1
 62
7
100
AcDbSpline
 70
8
 71
3
 72
8
 73
4
 74
0
 40
0
 40
0
 40
0
 40
0
 40
1
 40
1
 40
1
 40
1
 10
96.913180
 20
250.060465
 30
0.0
 10
95.477580
 20
250.059665
 30
0.0
 10
94.177420
 20
249.536353
 30
0.0
 10
93.595650
 20
248.725225
 30
0.0
  0
SPLINE
  5
20a
100
AcDbEntity
  8
Layer_1
 62
7
100
AcDbSpline
 70
8
 71
3
 72
8
 73
4
 74
0
 40
0
 40
0
 40
0
 40
0
 40
1
 40
1
 40
1
 40
1
 10
93.595650
 20
248.725225
 30
0.0
 10
93.014120
 20
249.536001
 30
0.0
 10
91.714820
 20
250.059217
 30
0.0
 10
90.279830
 20
250.060465
 30
0.0
  0
SPLINE
  5
20b
100
AcDbEntity
  8
Layer_1
 62
7
100
AcDbSpline
 70
8
 71
3
 72
8
 73
4
 74
0
 40
0
 40
0
 40
0
 40
0
 40
1
 40
1
 40
1
 40
1
 10
90.279830
 20
250.060465
 30
0.0
 10
88.844440
 20
250.059665
 30
0.0
 10
87.544560
 20
249.536241
 30
0.0
 10
86.962870
 20
248.725225
 30
0.0
  0
SPLINE
  5
20c
100
AcDbEntity
  8
Layer_1
 62
7
100
AcDbSpline
 70
8
 71
3
 72
8
 73
4
 74
0
 40
0
 40
0
 40
0
 40
0
 40
1
 40
1
 40
1
 40
1
 10
86.962870
 20
248.725225
 30
0.0
 10
86.381340
 20
249.536001
 30
0.0
 10
85.082040
 20
250.059217
 30
0.0
 10
83.647060
 20
250.060465
 30
0.0
  0
SPLINE
  5
20d
100
AcDbEntity
  8
Layer_1
 62
7
100
AcDbSpline
 70
8
 71
3
 72
8
 73
4
 74
0
 40
0
 40
0
 40
0
 40
0
 40
1
 40
1
 40
1
 40
1
 10
83.647060
 20
250.060465
 30
0.0
 10
82.211460
 20
250.059665
 30
0.0
 10
80.911300
 20
249.536353
 30
0.0
 10
80.329520
 20
248.725225
 30
0.0
  0
SPLINE
  5
20e
100
AcDbEntity
  8
Layer_1
 62
7
100
AcDbSpline
 70
8
 71
3
 72
8
 73
4
 74
0
 40
0
 40
0
 40
0
 40
0
 40
1
 40
1
 40
1
 40
1
 10
80.329520
 20
248.725225
 30
0.0
 10
79.747980
 20
249.536001
 30
0.0
 10
78.448690
 20
250.059217
 30
0.0
 10
77.013710
 20
250.060465
 30
0.0
  0
SPLINE
  5
20f
100
AcDbEntity
  8
Layer_1
 62
7
100
AcDbSpline
 70
8
 71
3
 72
8
 73
4
 74
0
 40
0
 40
0
 40
0
 40
0
 40
1
 40
1
 40
1
 40
1
 10
77.013710
 20
250.060465
 30
0.0
 10
75.578330
 20
250.059753
 30
0.0
 10
74.278230
 20
249.536705
 30
0.0
 10
73.696160
 20
248.725809
 30
0.0
  0
SPLINE
  5
210
100
AcDbEntity
  8
Layer_1
 62
7
100
AcDbSpline
 70
8
 71
3
 72
8
 73
4
 74
0
 40
0
 40
0
 40
0
 40
0
 40
1
 40
1
 40
1
 40
1
 10
73.696160
 20
248.725809
 30
0.0
 10
73.114440
 20
249.536233
 30
0.0
 10
71.815470
 20
250.059177
 30
0.0
 10
70.380940
 20
250.060465
 30
0.0
  0
SPLINE
  5
211
100
AcDbEntity
  8
Layer_1
 62
7
100
AcDbSpline
 70
8
 71
3
 72
8
 73
4
 74
0
 40
0
 40
0
 40
0
 40
0
 40
1
 40
1
 40
1
 40
1
 10
70.380940
 20
250.060465
 30
0.0
 10
68.945330
 20
250.059665
 30
0.0
 10
67.645180
 20
249.536353
 30
0.0
 10
67.063390
 20
248.725225
 30
0.0
  0
SPLINE
  5
212
100
AcDbEntity
  8
Layer_1
 62
7
100
AcDbSpline
 70
8
 71
3
 72
8
 73
4
 74
0
 40
0
 40
0
 40
0
 40
0
 40
1
 40
1
 40
1
 40
1
 10
67.063390
 20
248.725225
 30
0.0
 10
66.481860
 20
249.536001
 30
0.0
 10
65.182560
 20
250.059217
 30
0.0
 10
63.747580
 20
250.060465
 30
0.0
  0
SPLINE
  5
213
100
AcDbEntity
  8
Layer_1
 62
7
100
AcDbSpline
 70
8
 71
3
 72
8
 73
4
 74
0
 40
0
 40
0
 40
0
 40
0
 40
1
 40
1
 40
1
 40
1
 10
63.747580
 20
250.060465
 30
0.0
 10
62.311980
 20
250.059665
 30
0.0
 10
61.011820
 20
249.536361
 30
0.0
 10
60.430040
 20
248.725225
 30
0.0
  0
SPLINE
  5
214
100
AcDbEntity
  8
Layer_1
 62
7
100
AcDbSpline
 70
8
 71
3
 72
8
 73
4
 74
0
 40
0
 40
0
 40
0
 40
0
 40
1
 40
1
 40
1
 40
1
 10
60.430040
 20
248.725225
 30
0.0
 10
59.848590
 20
249.535881
 30
0.0
 10
58.549580
 20
250.059073
 30
0.0
 10
57.114810
 20
250.060465
 30
0.0
  0
SPLINE
  5
215
100
AcDbEntity
  8
Layer_1
 62
7
100
AcDbSpline
 70
8
 71
3
 72
8
 73
4
 74
0
 40
0
 40
0
 40
0
 40
0
 40
1
 40
1
 40
1
 40
1
 10
57.114810
 20
250.060465
 30
0.0
 10
55.680290
 20
250.059665
 30
0.0
 10
54.380880
 20
249.537177
 30
0.0
 10
53.798420
 20
248.726961
 30
0.0
  0
SPLINE
  5
216
100
AcDbEntity
  8
Layer_1
 62
7
100
AcDbSpline
 70
8
 71
3
 72
8
 73
4
 74
0
 40
0
 40
0
 40
0
 40
0
 40
1
 40
1
 40
1
 40
1
 10
53.798420
 20
248.726961
 30
0.0
 10
53.215880
 20
249.537297
 30
0.0
 10
51.916180
 20
250.059801
 30
0.0
 10
50.481460
 20
250.060465
 30
0.0
  0
SPLINE
  5
217
100
AcDbEntity
  8
Layer_1
 62
7
100
AcDbSpline
 70
8
 71
3
 72
8
 73
4
 74
0
 40
0
 40
0
 40
0
 40
0
 40
1
 40
1
 40
1
 40
1
 10
50.481460
 20
250.060465
 30
0.0
 10
49.045860
 20
250.059665
 30
0.0
 10
47.745700
 20
249.536353
 30
0.0
 10
47.163910
 20
248.725225
 30
0.0
  0
SPLINE
  5
218
100
AcDbEntity
  8
Layer_1
 62
7
100
AcDbSpline
 70
8
 71
3
 72
8
 73
4
 74
0
 40
0
 40
0
 40
0
 40
0
 40
1
 40
1
 40
1
 40
1
 10
47.163910
 20
248.725225
 30
0.0
 10
46.582460
 20
249.535881
 30
0.0
 10
45.283450
 20
250.059073
 30
0.0
 10
43.848690
 20
250.060465
 30
0.0
  0
SPLINE
  5
219
100
AcDbEntity
  8
Layer_1
 62
7
100
AcDbSpline
 70
8
 71
3
 72
8
 73
4
 74
0
 40
0
 40
0
 40
0
 40
0
 40
1
 40
1
 40
1
 40
1
 10
43.848690
 20
250.060465
 30
0.0
 10
42.413080
 20
250.059665
 30
0.0
 10
41.112900
 20
249.536353
 30
0.0
 10
40.531140
 20
248.725225
 30
0.0
  0
SPLINE
  5
21a
100
AcDbEntity
  8
Layer_1
 62
7
100
AcDbSpline
 70
8
 71
3
 72
8
 73
4
 74
0
 40
0
 40
0
 40
0
 40
0
 40
1
 40
1
 40
1
 40
1
 10
40.531140
 20
248.725225
 30
0.0
 10
39.949620
 20
249.536001
 30
0.0
 10
38.650310
 20
250.059217
 30
0.0
 10
37.215330
 20
250.060465
 30
0.0
  0
SPLINE
  5
21b
100
AcDbEntity
  8
Layer_1
 62
7
100
AcDbSpline
 70
8
 71
3
 72
8
 73
4
 74
0
 40
0
 40
0
 40
0
 40
0
 40
1
 40
1
 40
1
 40
1
 10
37.215330
 20
250.060465
 30
0.0
 10
35.779730
 20
250.059665
 30
0.0
 10
34.479570
 20
249.536353
 30
0.0
 10
33.897780
 20
248.725225
 30
0.0
  0
SPLINE
  5
21c
100
AcDbEntity
  8
Layer_1
 62
7
100
AcDbSpline
 70
8
 71
3
 72
8
 73
4
 74
0
 40
0
 40
0
 40
0
 40
0
 40
1
 40
1
 40
1
 40
1
 10
33.897780
 20
248.725225
 30
0.0
 10
33.316250
 20
249.536001
 30
0.0
 10
32.016960
 20
250.059217
 30
0.0
 10
30.581980
 20
250.060465
 30
0.0
  0
SPLINE
  5
21d
100
AcDbEntity
  8
Layer_1
 62
7
100
AcDbSpline
 70
8
 71
3
 72
8
 73
4
 74
0
 40
0
 40
0
 40
0
 40
0
 40
1
 40
1
 40
1
 40
1
 10
30.581980
 20
250.060465
 30
0.0
 10
29.146580
 20
250.059665
 30
0.0
 10
27.846720
 20
249.536233
 30
0.0
 10
27.265020
 20
248.725225
 30
0.0
  0
SPLINE
  5
21e
100
AcDbEntity
  8
Layer_1
 62
7
100
AcDbSpline
 70
8
 71
3
 72
8
 73
4
 74
0
 40
0
 40
0
 40
0
 40
0
 40
1
 40
1
 40
1
 40
1
 10
27.265020
 20
248.725225
 30
0.0
 10
26.683470
 20
249.536001
 30
0.0
 10
25.384180
 20
250.059217
 30
0.0
 10
23.949210
 20
250.060465
 30
0.0
  0
SPLINE
  5
21f
100
AcDbEntity
  8
Layer_1
 62
7
100
AcDbSpline
 70
8
 71
3
 72
8
 73
4
 74
0
 40
0
 40
0
 40
0
 40
0
 40
1
 40
1
 40
1
 40
1
 10
23.949210
 20
250.060465
 30
0.0
 10
22.513600
 20
250.059665
 30
0.0
 10
21.213450
 20
249.536353
 30
0.0
 10
20.631660
 20
248.725225
 30
0.0
  0
SPLINE
  5
220
100
AcDbEntity
  8
Layer_1
 62
7
100
AcDbSpline
 70
8
 71
3
 72
8
 73
4
 74
0
 40
0
 40
0
 40
0
 40
0
 40
1
 40
1
 40
1
 40
1
 10
20.631660
 20
248.725225
 30
0.0
 10
20.050140
 20
249.536001
 30
0.0
 10
18.750830
 20
250.059217
 30
0.0
 10
17.315860
 20
250.060465
 30
0.0
  0
SPLINE
  5
221
100
AcDbEntity
  8
Layer_1
 62
7
100
AcDbSpline
 70
8
 71
3
 72
8
 73
4
 74
0
 40
0
 40
0
 40
0
 40
0
 40
1
 40
1
 40
1
 40
1
 10
17.315860
 20
250.060465
 30
0.0
 10
15.880470
 20
250.059753
 30
0.0
 10
14.580380
 20
249.536713
 30
0.0
 10
13.998310
 20
248.725809
 30
0.0
  0
SPLINE
  5
222
100
AcDbEntity
  8
Layer_1
 62
7
100
AcDbSpline
 70
8
 71
3
 72
8
 73
4
 74
0
 40
0
 40
0
 40
0
 40
0
 40
1
 40
1
 40
1
 40
1
 10
13.998310
 20
248.725809
 30
0.0
 10
13.416580
 20
249.536233
 30
0.0
 10
12.117620
 20
250.059177
 30
0.0
 10
10.683080
 20
250.060465
 30
0.0
  0
SPLINE
  5
223
100
AcDbEntity
  8
Layer_1
 62
7
100
AcDbSpline
 70
8
 71
3
 72
8
 73
4
 74
0
 40
0
 40
0
 40
0
 40
0
 40
1
 40
1
 40
1
 40
1
 10
10.683080
 20
250.060465
 30
0.0
 10
9.247470
 20
250.059665
 30
0.0
 10
7.947320
 20
249.536361
 30
0.0
 10
7.365540
 20
248.725225
 30
0.0
  0
SPLINE
  5
224
100
AcDbEntity
  8
Layer_1
 62
7
100
AcDbSpline
 70
8
 71
3
 72
8
 73
4
 74
0
 40
0
 40
0
 40
0
 40
0
 40
1
 40
1
 40
1
 40
1
 10
7.365540
 20
248.725225
 30
0.0
 10
6.784010
 20
249.536001
 30
0.0
 10
5.484700
 20
250.059217
 30
0.0
 10
4.049730
 20
250.060465
 30
0.0
  0
LWPOLYLINE
  5
225
100
AcDbEntity
  8
Layer_1
 62
7
100
AcDbPolyline
 90
5
 70
0
 10
219.864900
 20
209.454966
 30
0.0
 10
220.358580
 20
209.454966
 30
0.0
 10
220.358580
 20
247.812193
 30
0.0
 10
219.941300
 20
247.812193
 30
0.0
 10
219.941300
 20
247.815393
 30
0.0
  0
LWPOLYLINE
  5
226
100
AcDbEntity
  8
Layer_1
 62
7
100
AcDbPolyline
 90
2
 70
0
 10
4.049730
 20
250.060465
 30
0.0
 10
4.049740
 20
250.060737
 30
0.0
  0
ENDSEC
  0
SECTION
  2
OBJECTS
  0
DICTIONARY
  5
C
330
0
100
AcDbDictionary
  3
ACAD_GROUP
350
D
  3
ACAD_MLINESTYLE
350
17
  0
DICTIONARY
  5
D
330
C
100
AcDbDictionary
  0
DICTIONARY
  5
1A
330
C
100
AcDbDictionary
  0
DICTIONARY
  5
17
330
C
100
AcDbDictionary
  3
STANDARD
350
18
  0
DICTIONARY
  5
19
330
C
100
AcDbDictionary
  0
ENDSEC
  0
EOF
