<?xml version="1.0" encoding="UTF-8" standalone="no"?>
<!-- Created with Inkscape (http://www.inkscape.org/) -->

<svg
   xmlns:dc="http://purl.org/dc/elements/1.1/"
   xmlns:cc="http://creativecommons.org/ns#"
   xmlns:rdf="http://www.w3.org/1999/02/22-rdf-syntax-ns#"
   xmlns:svg="http://www.w3.org/2000/svg"
   xmlns="http://www.w3.org/2000/svg"
   xmlns:sodipodi="http://sodipodi.sourceforge.net/DTD/sodipodi-0.dtd"
   xmlns:inkscape="http://www.inkscape.org/namespaces/inkscape"
   width="210mm"
   height="297mm"
   viewBox="0 0 210 297"
   version="1.1"
   id="svg5250"
   inkscape:version="0.92.2 (5c3e80d, 2017-08-06)"
   sodipodi:docname="v6.0.MVMask-Child.svg">
  <defs
     id="defs5244" />
  <sodipodi:namedview
     id="base"
     pagecolor="#ffffff"
     bordercolor="#666666"
     borderopacity="1.0"
     inkscape:pageopacity="0.0"
     inkscape:pageshadow="2"
     inkscape:zoom="0.35"
     inkscape:cx="335.96421"
     inkscape:cy="715.65649"
     inkscape:document-units="mm"
     inkscape:current-layer="layer1"
     showgrid="false"
     inkscape:window-width="1600"
     inkscape:window-height="837"
     inkscape:window-x="-8"
     inkscape:window-y="-8"
     inkscape:window-maximized="1" />
  <metadata
     id="metadata5247">
    <rdf:RDF>
      <cc:Work
         rdf:about="">
        <dc:format>image/svg+xml</dc:format>
        <dc:type
           rdf:resource="http://purl.org/dc/dcmitype/StillImage" />
        <dc:title></dc:title>
      </cc:Work>
    </rdf:RDF>
  </metadata>
  <g
     inkscape:label="Layer 1"
     inkscape:groupmode="layer"
     id="layer1">
    <path
       style="opacity:1;fill:#999999;fill-opacity:0.98994978;stroke:none;stroke-width:0.54791081;stroke-miterlimit:4;stroke-dasharray:none;stroke-opacity:1"
       d="m -18.563861,274.38644 c 6.2e-5,2.00616 1.005198,3.63241 2.245072,3.6324 h 0.0034 v 0.4173 h 38.357224 v -0.49717 c 1.040962,-0.34944 1.787731,-1.83235 1.788997,-3.55253 -5.93e-4,-1.43538 -0.523758,-2.73548 -1.334659,-3.31754 0.810546,-0.58182 1.333512,-1.88106 1.334659,-3.31581 -5.93e-4,-1.43538 -0.523755,-2.73547 -1.334659,-3.31754 0.810427,-0.58173 1.333369,-1.88069 1.334659,-3.31523 -5.93e-4,-1.43538 -0.523755,-2.73547 -1.334659,-3.31755 0.810546,-0.58181 1.333512,-1.88105 1.334659,-3.31581 -5.93e-4,-1.43537 -0.523758,-2.73548 -1.334659,-3.31754 0.81043,-0.58173 1.333369,-1.88069 1.334659,-3.31523 -5.93e-4,-1.43538 -0.523758,-2.73548 -1.334659,-3.31755 0.810546,-0.58181 1.333512,-1.88104 1.334659,-3.3158 -5.93e-4,-1.43538 -0.523755,-2.73547 -1.334659,-3.31754 0.339711,-0.2439 1.61029,-1.5669 1.841086,-1.87118 0.606817,0.79986 1.906657,1.31109 3.336068,1.31208 1.429201,-0.002 2.728762,-0.51233 3.335486,-1.31208 0.606814,0.79986 1.906653,1.31109 3.336064,1.31208 1.429412,-8e-4 2.729251,-0.51222 3.336064,-1.31208 0.606725,0.79975 1.906286,1.31096 3.335488,1.31208 1.429411,-8e-4 2.72925,-0.51222 3.336064,-1.31208 0.606816,0.79986 1.906656,1.31109 3.336067,1.31208 1.429201,-0.002 2.728761,-0.51233 3.335486,-1.31208 0.606814,0.79986 1.906654,1.31109 3.336065,1.31208 1.429411,-8e-4 2.72925,-0.51222 3.336064,-1.31208 0.606725,0.79975 1.906286,1.31096 3.335486,1.31208 0.315112,-3e-4 0.628856,-0.0256 0.933568,-0.0753 0.175944,0.25977 0.377448,0.47608 0.599608,0.63608 -0.810544,0.58181 -1.333512,1.88105 -1.334656,3.3158 5.92e-4,1.43538 0.52376,2.73548 1.334656,3.31755 -0.810544,0.58181 -1.333504,1.88105 -1.334656,3.31581 8e-4,1.43517 0.523872,2.73497 1.334656,3.31696 -0.810544,0.5818 -1.333504,1.88105 -1.334656,3.31581 5.92e-4,1.43538 0.52376,2.73548 1.334656,3.31755 -0.810544,0.58181 -1.333512,1.88104 -1.334656,3.3158 5.92e-4,1.43516 0.523408,2.7352 1.33408,3.31755 -0.8102,0.58201 -1.332888,1.88089 -1.33408,3.31522 5.92e-4,1.43539 0.52376,2.73548 1.334656,3.31755 -0.810544,0.5818 -1.333504,1.88105 -1.334656,3.3158 8e-4,1.75026 0.772808,3.25076 1.836456,3.56932 v 0.48038 h 41.717603 v -0.42714 c 1.17406,-0.13699 2.08339,-1.71794 2.08359,-3.62256 -5.9e-4,-1.43538 -0.52375,-2.73548 -1.33466,-3.31754 0.81055,-0.58181 1.33351,-1.88106 1.33466,-3.31581 -5.9e-4,-1.43538 -0.52375,-2.73548 -1.33466,-3.31754 0.81043,-0.58173 1.33337,-1.88069 1.33466,-3.31523 -5.9e-4,-1.43538 -0.52375,-2.73548 -1.33466,-3.31755 0.81055,-0.58181 1.33351,-1.88105 1.33466,-3.31581 -5.9e-4,-1.43537 -0.52375,-2.73548 -1.33466,-3.31754 0.81043,-0.58173 1.33337,-1.88069 1.33466,-3.31523 -5.9e-4,-1.43538 -0.52375,-2.73548 -1.33466,-3.31755 0.81055,-0.5818 1.33351,-1.88104 1.33466,-3.3158 -5.9e-4,-1.43538 -0.52375,-2.73548 -1.33466,-3.31754 0.25763,-0.18481 0.48631,-0.4475 0.68064,-0.76399 0.47731,0.13429 0.99544,0.20413 1.51987,0.20489 1.42941,-8e-4 2.72925,-0.51222 3.33606,-1.31208 0.60682,0.79986 1.90666,1.31109 3.33606,1.31208 1.4292,-0.002 2.72877,-0.51233 3.33549,-1.31208 0.60682,0.79986 1.90666,1.31109 3.33607,1.31208 1.4292,-0.002 2.72876,-0.51234 3.33548,-1.31208 0.60682,0.79986 1.90666,1.31109 3.33607,1.31208 1.42941,-8e-4 2.72925,-0.51222 3.33607,-1.31208 0.60682,0.79986 1.90666,1.31109 3.33606,1.31208 1.4292,-0.002 2.72876,-0.51233 3.33549,-1.31208 0.60681,0.79986 1.90665,1.31109 3.33607,1.31208 1.43004,-0.002 2.73028,-0.5128 3.33664,-1.31324 0.60609,0.80008 1.90549,1.31176 3.33491,1.31324 1.42941,-8e-4 2.72925,-0.51222 3.33606,-1.31208 0.60673,0.79975 1.90629,1.31096 3.33549,1.31208 1.42941,-8e-4 2.72925,-0.51222 3.33606,-1.31208 0.60682,0.79986 1.90666,1.31109 3.33607,1.31208 1.4292,-0.002 2.72876,-0.51233 3.33549,-1.31208 0.60681,0.79986 1.90665,1.31109 3.33606,1.31208 1.42942,-8e-4 2.72926,-0.51222 3.33606,-1.31208 0.60673,0.79975 1.90629,1.31096 3.33549,1.31208 1.42941,-8e-4 2.72925,-0.51222 3.33607,-1.31208 0.60681,0.79986 1.90665,1.31109 3.33606,1.31208 1.42984,-0.002 2.72979,-0.51292 3.33606,-1.31324 0.60619,0.8002 1.90586,1.3119 3.33549,1.31324 1.4292,-0.002 2.72876,-0.51233 3.33549,-1.31208 0.60682,0.79986 1.90666,1.31109 3.33606,1.31208 1.42942,-8e-4 2.72926,-0.51222 3.33607,-1.31208 0.60681,0.79986 1.90665,1.31109 3.33606,1.31208 1.4292,-0.002 2.72876,-0.51233 3.33549,-1.31208 0.60682,0.79986 1.90666,1.31109 3.33606,1.31208 1.4292,-0.002 2.72876,-0.51233 3.33549,-1.31208 0.60682,0.79986 1.90666,1.31109 3.33607,1.31208 1.4294,-8e-4 2.72924,-0.51222 3.33606,-1.31208 0.60673,0.79975 1.90629,1.31096 3.33549,1.31208 1.39073,-8e-4 2.66242,-0.48519 3.28918,-1.25248 0.4815,0.76747 1.45854,1.25174 2.52694,1.25248 1.56486,1.2e-4 2.83355,-1.02059 2.83369,-2.2798 -8e-4,-0.4842 -0.19403,-0.95551 -0.55042,-1.34565 1.23974,-5.9e-4 2.24463,-1.62691 2.2445,-3.63298 -6e-4,-1.43538 -0.52376,-2.73549 -1.33466,-3.31755 0.81043,-0.58172 1.33337,-1.88069 1.33466,-3.31522 -6e-4,-1.43539 -0.52376,-2.73548 -1.33466,-3.31755 0.81054,-0.58181 1.3335,-1.88105 1.33466,-3.31581 -6e-4,-1.43538 -0.52376,-2.73548 -1.33466,-3.31754 0.81043,-0.58173 1.33337,-1.88069 1.33466,-3.31523 -8e-4,-1.43561 -0.52412,-2.73576 -1.33524,-3.31755 0.81077,-0.58153 1.33399,-1.88083 1.33524,-3.3158 -6e-4,-1.43539 -0.52376,-2.73548 -1.33466,-3.31755 0.81054,-0.58181 1.3335,-1.88105 1.33466,-3.31581 -8e-4,-1.4356 -0.52412,-2.73576 -1.33524,-3.31754 0.81065,-0.58145 1.33384,-1.88046 1.33524,-3.31523 -6e-4,-1.43538 -0.52376,-2.73548 -1.33466,-3.31755 0.81054,-0.58181 1.33351,-1.88105 1.33466,-3.3158 -6e-4,-1.43538 -0.52376,-2.73548 -1.33466,-3.31755 0.81043,-0.58173 1.33337,-1.88069 1.33466,-3.31523 -6e-4,-1.43538 -0.52376,-2.73548 -1.33466,-3.31754 0.81054,-0.58182 1.3335,-1.88105 1.33466,-3.3158 -6e-4,-1.43539 -0.52376,-2.73548 -1.33466,-3.31755 0.81043,-0.58173 1.33337,-1.88069 1.33466,-3.31523 -6e-4,-1.43539 -0.52376,-2.73548 -1.33466,-3.31754 0.81054,-0.58183 1.3335,-1.88106 1.33466,-3.31581 -6e-4,-1.43539 -0.52376,-2.73548 -1.33466,-3.31755 0.81054,-0.58181 1.3335,-1.88105 1.33466,-3.3158 -8e-4,-1.43562 -0.52411,-2.73576 -1.33524,-3.31755 0.81065,-0.58145 1.33384,-1.88048 1.33524,-3.31523 -6e-4,-1.43539 -0.52376,-2.73548 -1.33466,-3.31754 0.81054,-0.58182 1.3335,-1.88106 1.33466,-3.31581 -8e-4,-1.4356 -0.52412,-2.73576 -1.33524,-3.31755 0.81065,-0.58144 1.33384,-1.88046 1.33524,-3.31523 -6e-4,-1.43537 -0.52376,-2.73548 -1.33466,-3.31754 0.81054,-0.58182 1.33351,-1.88105 1.33466,-3.3158 -6e-4,-1.43539 -0.52376,-2.73548 -1.33466,-3.31755 0.81043,-0.58173 1.33337,-1.88068 1.33466,-3.31523 -6e-4,-1.43539 -0.52376,-2.73548 -1.33466,-3.31754 0.81054,-0.58183 1.3335,-1.88106 1.33466,-3.31581 -6e-4,-1.43538 -0.52376,-2.73548 -1.33466,-3.31754 0.81043,-0.58173 1.33337,-1.88069 1.33466,-3.31524 1.2e-4,-1.89584 -3.47076,-4.493461 -4.38655,-4.493613 -1.12609,8e-4 -2.15482,0.489493 -2.65774,1.261733 -0.62427,-0.77296 -1.90179,-1.261461 -3.2996,-1.261733 -1.42921,0.0016 -2.72855,0.512803 -3.33491,1.312663 -0.60663,-0.80021 -1.90681,-1.311711 -3.33664,-1.312663 -1.4292,8e-4 -2.72876,0.512333 -3.33549,1.312093 -0.60682,-0.79988 -1.90666,-1.311109 -3.33607,-1.312093 -1.42941,8e-4 -2.72903,0.512693 -3.33548,1.312663 -0.60655,-0.80009 -1.90644,-1.311575 -3.33607,-1.312663 -1.42941,8e-4 -2.72903,0.512693 -3.33549,1.312663 -0.60663,-0.80021 -1.9068,-1.311711 -3.33664,-1.312663 -1.4292,8e-4 -2.72876,0.512333 -3.33548,1.312093 -0.60682,-0.79988 -1.90666,-1.311109 -3.33607,-1.312093 -1.42941,8e-4 -2.72903,0.512693 -3.33549,1.312663 -0.60654,-0.80009 -1.90644,-1.311575 -3.33606,-1.312663 -1.42942,8e-4 -2.72903,0.512693 -3.33549,1.312663 -0.60663,-0.80021 -1.90681,-1.311711 -3.33664,-1.312663 -1.42921,0.0016 -2.72854,0.512803 -3.33491,1.312663 -0.60663,-0.80021 -1.90681,-1.311711 -3.33664,-1.312663 -1.4292,8e-4 -2.72876,0.512333 -3.33549,1.312093 -0.60681,-0.79988 -1.90665,-1.311109 -3.33606,-1.312093 -1.42942,8e-4 -2.72903,0.512693 -3.33549,1.312663 -0.60654,-0.80009 -1.90644,-1.311575 -3.33606,-1.312663 -1.42986,0.0024 -2.72914,0.514333 -3.33433,1.314983 -0.60572,-0.80135 -1.90669,-1.313887 -3.3378,-1.314983 -1.4292,8e-4 -2.72876,0.512333 -3.33549,1.312093 -0.60682,-0.79988 -1.90666,-1.311109 -3.33606,-1.312093 -1.42942,8e-4 -2.72904,0.512693 -3.33549,1.312663 -0.60655,-0.80009 -1.90644,-1.311575 -3.33607,-1.312663 -1.42941,8e-4 -2.72903,0.512693 -3.33548,1.312663 -0.60664,-0.80021 -1.90682,-1.311711 -3.33665,-1.312663 -1.4292,8e-4 -2.72875,0.512333 -3.33548,1.312093 -0.60682,-0.79988 -1.90666,-1.311109 -3.33607,-1.312093 -1.42941,8e-4 -2.72903,0.512693 -3.33548,1.312663 -0.60655,-0.80009 -1.90645,-1.311575 -3.33608,-1.312663 -1.4294,8e-4 -2.72903,0.512693 -3.33548,1.312663 -0.60664,-0.80021 -1.90681,-1.311711 -3.33664,-1.312663 -0.54021,8e-4 -1.07348,0.07528 -1.56212,0.217616 0.43544,-1.368312 0.69544,-3.47952 0.69627,-4.4884 -5.9e-4,-1.435384 -0.52375,-2.735488 -1.33466,-3.317552 0.81055,-0.581816 1.33351,-1.881048 1.33466,-3.315808 -5.9e-4,-1.435376 -0.52375,-2.73548 -1.33466,-3.317544 0.81043,-0.581728 1.33337,-1.880688 1.33466,-3.315224 -5.9e-4,-1.435384 -0.52375,-2.735504 -1.33466,-3.317544 0.81055,-0.581808 1.33351,-1.881056 1.33466,-3.315808 -5.9e-4,-1.435384 -0.52375,-2.73548 -1.33466,-3.317544 0.81043,-0.581728 1.33337,-1.880688 1.33466,-3.315232 -5.9e-4,-1.435384 -0.52375,-2.73548 -1.33466,-3.317544 0.81055,-0.581808 1.33351,-1.881056 1.33466,-3.315808 -8e-4,-1.903496 -0.91022,-3.48276 -2.08359,-3.619664 V 58.077579 H 63.066709 v 0.479808 c -1.063784,0.318592 -1.835848,1.819416 -1.836456,3.569888 5.92e-4,1.435384 0.523752,2.73548 1.334664,3.317544 -0.810552,0.581808 -1.333512,1.881056 -1.334664,3.315808 8e-4,1.435168 0.52388,2.734976 1.334664,3.316968 -0.810552,0.581816 -1.333512,1.881048 -1.334664,3.315808 5.92e-4,1.435376 0.52376,2.73548 1.334664,3.317544 -0.810552,0.581808 -1.333512,1.881056 -1.334664,3.315808 5.92e-4,1.435168 0.5234,2.7352 1.33408,3.317544 -0.8102,0.582008 -1.332888,1.880912 -1.33408,3.315224 5.92e-4,1.435384 0.523752,2.73548 1.334664,3.317544 -0.810552,0.581808 -1.333512,1.881056 -1.334664,3.315816 5.92e-4,1.435376 0.52376,2.73548 1.334664,3.317544 -0.318424,0.22864 -0.5938,0.574104 -0.812032,0.997808 -0.237432,-0.02944 -0.478984,-0.0444 -0.721152,-0.04456 -1.38596,8e-4 -2.653987,0.482195 -3.282818,1.245525 h -0.100706 c -0.629681,-0.76436 -1.900192,-1.245637 -3.288025,-1.245525 -1.386167,8e-4 -2.654471,0.482085 -3.283398,1.245525 h -0.100705 c -0.629587,-0.76424 -1.899823,-1.245501 -3.287448,-1.245525 -1.386168,8e-4 -2.654472,0.482085 -3.283397,1.245525 h -0.100709 c -0.629682,-0.76436 -1.900193,-1.245637 -3.288026,-1.245525 -1.38596,8e-4 -2.653985,0.482195 -3.282816,1.245525 h -0.100709 c -0.629682,-0.76436 -1.900193,-1.245637 -3.288026,-1.245525 -1.386167,8e-4 -2.654471,0.482085 -3.283397,1.245525 h -0.100706 c -0.629586,-0.76424 -1.899822,-1.245501 -3.287447,-1.245525 -1.386168,8e-4 -2.654471,0.482085 -3.283398,1.245525 h -0.100709 c -0.187937,-0.22624 -0.435793,-0.43144 -0.733306,-0.60713 -0.233943,-0.700803 -0.603666,-1.265747 -1.060319,-1.594531 0.810537,-0.58136 1.333705,-1.880104 1.335237,-3.314648 -5.93e-4,-1.435384 -0.523758,-2.735488 -1.33466,-3.317552 0.810549,-0.581816 1.333512,-1.881048 1.33466,-3.315808 -5.93e-4,-1.435376 -0.523758,-2.73548 -1.33466,-3.317544 0.810431,-0.581728 1.33337,-1.880688 1.33466,-3.315224 -5.93e-4,-1.435384 -0.523758,-2.735504 -1.33466,-3.317544 0.810547,-0.581816 1.333512,-1.881056 1.33466,-3.315808 -5.93e-4,-1.435384 -0.523755,-2.735472 -1.33466,-3.317544 0.810428,-0.581728 1.33337,-1.880688 1.33466,-3.315232 -5.93e-4,-1.435384 -0.523755,-2.735464 -1.33466,-3.317544 0.810547,-0.581816 1.333512,-1.881056 1.33466,-3.315808 -2.49e-4,-1.721488 -0.747247,-3.206296 -1.788997,-3.556 v -0.493696 h -38.357224 v 0.417296 h -0.0034 c -1.23987,0 -2.245007,1.626248 -2.245073,3.6324 8e-4,1.4356 0.524106,2.73576 1.335237,3.317544 -0.810773,0.581528 -1.333987,1.880832 -1.335237,3.315808 9.6e-4,1.435392 0.524228,2.735264 1.335237,3.316968 -0.810775,0.581536 -1.333989,1.880832 -1.335237,3.315808 8e-4,1.4356 0.524109,2.73576 1.335237,3.317544 -0.810773,0.581528 -1.333987,1.880824 -1.335237,3.315808 7.11e-4,1.435376 0.523754,2.73548 1.334658,3.317544 -0.810428,0.581728 -1.333368,1.880688 -1.334658,3.315224 8e-4,1.435608 0.524106,2.735768 1.335237,3.317544 -0.810773,0.581528 -1.333987,1.880832 -1.335237,3.315816 8e-4,1.4356 0.524109,2.735752 1.335237,3.317544 -0.810656,0.58144 -1.333847,1.880455 -1.335237,3.315225 8e-4,1.43561 0.524109,2.73576 1.335237,3.31754 -0.810773,0.58153 -1.333987,1.88084 -1.335237,3.31581 8e-4,1.43561 0.524106,2.73576 1.335237,3.31755 -0.810654,0.58144 -1.333845,1.88046 -1.335237,3.31523 8e-4,1.4356 0.524109,2.73576 1.335237,3.31754 -0.810775,0.58154 -1.333989,1.88083 -1.335237,3.31581 8e-4,1.4356 0.524109,2.73576 1.335237,3.31754 -0.810773,0.58153 -1.333987,1.88083 -1.335237,3.31581 9.6e-4,1.43539 0.524226,2.73526 1.335237,3.31697 -0.810773,0.58152 -1.333987,1.88082 -1.335237,3.3158 8e-4,1.43561 0.524106,2.73577 1.335237,3.31754 -0.810773,0.58153 -1.333987,1.88084 -1.335237,3.31582 7.11e-4,1.43538 0.523756,2.73548 1.334658,3.31754 -0.81043,0.58172 -1.33337,1.88069 -1.334658,3.31523 8e-4,1.43561 0.524109,2.73576 1.335237,3.31754 -0.810773,0.58153 -1.333987,1.88083 -1.335237,3.31581 8e-4,1.43561 0.524106,2.73576 1.335237,3.31754 -0.810654,0.58145 -1.333845,1.88047 -1.335237,3.31524 8e-4,1.4356 0.524106,2.73576 1.335237,3.31754 -0.810773,0.58153 -1.333987,1.88083 -1.335237,3.31581 8e-4,1.4356 0.524106,2.73576 1.335237,3.31754 -0.810654,0.58145 -1.333845,1.88047 -1.335237,3.31523 8e-4,1.43561 0.524109,2.73576 1.335237,3.31755 -0.810775,0.58153 -1.333989,1.88082 -1.335237,3.31581 8e-4,1.4356 0.524109,2.73576 1.335237,3.31753 -0.810773,0.58153 -1.333987,1.88083 -1.335237,3.31582 9.6e-4,1.43539 0.524226,2.73527 1.335237,3.31696 -0.810773,0.58153 -1.333987,1.88083 -1.335237,3.31581 8e-4,1.4356 0.524109,2.73576 1.335237,3.31754 -0.810775,0.58154 -1.333989,1.88083 -1.335237,3.31581 7.11e-4,1.43538 0.523756,2.73548 1.334658,3.31755 -0.81043,0.58172 -1.33337,1.88069 -1.334658,3.31522 8e-4,1.43561 0.524109,2.73576 1.335237,3.31755 -0.810773,0.58153 -1.333987,1.88083 -1.335237,3.31581 8e-4,1.4356 0.524106,2.73576 1.335237,3.31754 -0.810654,0.58145 -1.333845,1.88046 -1.335237,3.31523 8e-4,1.43452 0.523288,2.73393 1.3335,3.31639 -0.810332,0.58255 -1.332839,1.88224 -1.3335,3.31696 8e-4,1.4356 0.524109,2.73576 1.335237,3.31755 -0.810656,0.58145 -1.333847,1.88046 -1.335237,3.31522 8e-4,1.43561 0.524109,2.73579 1.335237,3.31755 -0.810773,0.58152 -1.333987,1.88083 -1.335237,3.31581 8e-4,1.4356 0.524109,2.73576 1.335237,3.31755 -0.810775,0.58153 -1.333989,1.88082 -1.335237,3.3158 9.6e-4,1.4354 0.524228,2.73526 1.335237,3.31696 -0.810775,0.58155 -1.333989,1.88084 -1.335237,3.31581 8e-4,1.43561 0.524109,2.73576 1.335237,3.31755 -0.810773,0.58152 -1.333987,1.88083 -1.335237,3.3158 7.11e-4,1.43539 0.523754,2.73548 1.334658,3.31755 -0.810428,0.58173 -1.333368,1.88069 -1.334658,3.31523 8e-4,1.43561 0.524106,2.73576 1.335237,3.31754 -0.810773,0.58153 -1.333987,1.88084 -1.335236,3.31581 z"
       id="path21044-0"
       inkscape:connector-curvature="0"
       sodipodi:nodetypes="cccccccccccccccccccccccccccccccccccccccccccccccccccccccccccccccccccccccccccccccccccccccccccccccccccccccccccccccccccccccccccccccccccccccccccccccccccccccccccccccccccccccccccccccccccccccccccccccccccccccccccccccccccccccccccccccccccccccccccccccsccccccccccccccccccccccccccccccccccccccccccccccccccccccccccccccccc" />
  </g>
</svg>
