<?xml version="1.0" encoding="UTF-8" standalone="no"?>
<!-- Created with Inkscape (http://www.inkscape.org/) -->

<svg
   xmlns:dc="http://purl.org/dc/elements/1.1/"
   xmlns:cc="http://creativecommons.org/ns#"
   xmlns:rdf="http://www.w3.org/1999/02/22-rdf-syntax-ns#"
   xmlns:svg="http://www.w3.org/2000/svg"
   xmlns="http://www.w3.org/2000/svg"
   xmlns:sodipodi="http://sodipodi.sourceforge.net/DTD/sodipodi-0.dtd"
   xmlns:inkscape="http://www.inkscape.org/namespaces/inkscape"
   width="210mm"
   height="297mm"
   viewBox="0 0 210 297"
   version="1.1"
   id="svg5250"
   inkscape:version="0.92.2 (5c3e80d, 2017-08-06)"
   sodipodi:docname="v6.0.MVMask-Child.svg">
  <defs
     id="defs5244" />
  <sodipodi:namedview
     id="base"
     pagecolor="#ffffff"
     bordercolor="#666666"
     borderopacity="1.0"
     inkscape:pageopacity="0.0"
     inkscape:pageshadow="2"
     inkscape:zoom="0.35"
     inkscape:cx="800.24992"
     inkscape:cy="659.58142"
     inkscape:document-units="mm"
     inkscape:current-layer="layer1"
     showgrid="false"
     inkscape:window-width="1600"
     inkscape:window-height="837"
     inkscape:window-x="-8"
     inkscape:window-y="-8"
     inkscape:window-maximized="1" />
  <metadata
     id="metadata5247">
    <rdf:RDF>
      <cc:Work
         rdf:about="">
        <dc:format>image/svg+xml</dc:format>
        <dc:type
           rdf:resource="http://purl.org/dc/dcmitype/StillImage" />
        <dc:title></dc:title>
      </cc:Work>
    </rdf:RDF>
  </metadata>
  <g
     inkscape:label="Layer 1"
     inkscape:groupmode="layer"
     id="layer1">
    <path
       style="opacity:1;fill:#999999;fill-opacity:0.98994978;stroke:none;stroke-width:0.47942194;stroke-miterlimit:4;stroke-dasharray:none;stroke-opacity:1"
       d="m 3.5434844,78.196865 c -1.755386,5.4e-5 -3.1783588,0.879548 -3.178349,1.964438 v 0.003 H 0 v 33.562567 h 0.4350227 c 0.3057593,0.91085 1.6033097,1.56427 3.1084617,1.56538 1.255958,-5.2e-4 2.393547,-0.45829 2.902851,-1.16783 0.50909,0.70923 1.645922,1.16682 2.901332,1.16783 1.2559576,-5.2e-4 2.3935356,-0.45829 2.9028516,-1.16783 0.509012,0.70912 1.645602,1.1667 2.900825,1.16783 1.255958,-5.2e-4 2.393535,-0.45829 2.902851,-1.16783 0.50909,0.70923 1.645924,1.16682 2.901331,1.16783 1.25596,-5.2e-4 2.393547,-0.45829 2.902853,-1.16783 0.50901,0.70913 1.645602,1.1667 2.900826,1.16783 1.255957,-5.2e-4 2.393545,-0.45829 2.90285,-1.16783 0.509091,0.70923 1.645922,1.16682 2.901331,1.16783 1.25596,-5.2e-4 2.393537,-0.45829 2.902851,-1.16783 0.213407,0.29725 1.371038,1.409 1.637287,1.61095 -0.699885,0.53096 -1.147213,1.66832 -1.148077,2.91906 10e-4,1.25055 0.448292,2.38767 1.148077,2.91855 -0.699885,0.53096 -1.147213,1.66832 -1.148077,2.91906 7.7e-4,1.25073 0.448192,2.38809 1.148077,2.91905 -0.699785,0.53089 -1.147091,1.668 -1.148077,2.91855 7.7e-4,1.25074 0.448192,2.3881 1.148077,2.91906 -0.699885,0.53096 -1.147213,1.66832 -1.148077,2.91906 10e-4,1.25055 0.448292,2.38766 1.148077,2.91855 -0.699885,0.53096 -1.147213,1.66832 -1.148077,2.91906 7.7e-4,1.25073 0.448192,2.38809 1.148077,2.91905 -0.699785,0.53089 -1.147091,1.668 -1.148077,2.91855 2.6e-4,0.27572 0.02243,0.55025 0.06583,0.81687 -0.227303,0.15395 -0.41657,0.33027 -0.556564,0.52466 -0.509091,-0.70923 -1.645924,-1.16682 -2.901334,-1.16782 -1.255957,5.1e-4 -2.393544,0.45829 -2.90285,1.16782 -0.509081,-0.70923 -1.645924,-1.16682 -2.901332,-1.16782 -1.255783,7e-4 -2.393108,0.45838 -2.902344,1.16782 -0.50908,-0.70923 -1.645924,-1.16682 -2.901334,-1.16782 -1.255957,5.1e-4 -2.393545,0.45829 -2.90285,1.16782 -0.509091,-0.70923 -1.645923,-1.16682 -2.901332,-1.16782 -1.255762,5.1e-4 -2.3933,0.45798 -2.902851,1.16732 -0.509257,-0.70893 -1.645789,-1.16628 -2.9008266,-1.16732 -1.255958,5.1e-4 -2.393545,0.45829 -2.902851,1.16782 -0.50908,-0.70923 -1.645922,-1.16682 -2.901332,-1.16782 -1.531474,7e-4 -2.8444159,0.6762 -3.1231475,1.6069 H 0 v 36.5029 h 0.3737447 c 0.1198638,1.0273 1.5032007,1.82296 3.1697397,1.82314 1.255958,-5.2e-4 2.393547,-0.45828 2.902851,-1.16783 0.509081,0.70923 1.645922,1.16682 2.901332,1.16783 1.2559576,-5.2e-4 2.3935456,-0.45828 2.9028516,-1.16783 0.509012,0.70913 1.645602,1.1667 2.900825,1.16783 1.255958,-5.2e-4 2.393545,-0.45828 2.902851,-1.16783 0.509081,0.70923 1.645924,1.16682 2.901331,1.16783 1.25596,-5.2e-4 2.393547,-0.45828 2.902853,-1.16783 0.50901,0.70913 1.645602,1.1667 2.900826,1.16783 1.255957,-5.2e-4 2.393545,-0.45828 2.90285,-1.16783 0.50908,0.70923 1.645922,1.16682 2.901331,1.16783 1.25596,-5.2e-4 2.393545,-0.45828 2.902851,-1.16783 0.161702,0.22543 0.391564,0.42552 0.668488,0.59556 -0.117501,0.41765 -0.178619,0.87101 -0.179277,1.32989 7.69e-4,1.25073 0.448191,2.38809 1.148076,2.91905 -0.699885,0.53097 -1.147213,1.66833 -1.148076,2.91906 0.0011,1.25055 0.448291,2.38767 1.148076,2.91855 -0.699885,0.53096 -1.147213,1.66832 -1.148076,2.91906 0.0011,1.25055 0.448294,2.38766 1.148076,2.91855 -0.699885,0.53096 -1.147213,1.66832 -1.148076,2.91905 7.69e-4,1.25074 0.448191,2.3881 1.148076,2.91907 -0.699885,0.53096 -1.147213,1.66832 -1.148076,2.91905 0.0011,1.25055 0.448291,2.38767 1.148076,2.91855 -0.699885,0.53096 -1.147213,1.66832 -1.148076,2.91906 0.0011,1.25129 0.448704,2.389 1.149087,2.91956 -0.700075,0.53033 -1.147799,1.66731 -1.149087,2.91805 7.69e-4,1.25073 0.448191,2.38809 1.148076,2.91905 -0.699785,0.53089 -1.147091,1.66801 -1.148076,2.91856 7.69e-4,1.25073 0.448191,2.38809 1.148076,2.91905 -0.699885,0.53097 -1.147213,1.66833 -1.148076,2.91906 0.0011,1.25055 0.448291,2.38766 1.148076,2.91855 -0.699885,0.53096 -1.147213,1.66832 -1.148076,2.91906 7.69e-4,1.25074 0.448191,2.3881 1.148076,2.91905 -0.699785,0.53089 -1.147091,1.668 -1.148076,2.91855 7.69e-4,1.25074 0.448191,2.3881 1.148076,2.91906 -0.699885,0.53096 -1.147213,1.66832 -1.148076,2.91906 0.0011,1.25111 0.448807,2.38856 1.149087,2.91905 -0.700178,0.53041 -1.147918,1.66763 -1.149087,2.91855 0.0011,1.25055 0.448291,2.38767 1.148076,2.91856 -0.699885,0.53096 -1.147213,1.66832 -1.148076,2.91905 7.69e-4,1.25074 0.448191,2.3881 1.148076,2.91906 -0.699885,0.53096 -1.147213,1.66832 -1.148076,2.91905 0.0011,1.25055 0.448291,2.38767 1.148076,2.91856 -0.699885,0.53096 -1.147213,1.66832 -1.148076,2.91905 0.0011,1.25055 0.448291,2.38767 1.148076,2.91855 -0.699885,0.53097 -1.147213,1.66833 -1.148076,2.91906 7.69e-4,1.25073 0.448191,2.38809 1.148076,2.91906 -0.699785,0.53088 -1.147091,1.668 -1.148076,2.91855 7.69e-4,1.21689 0.424536,2.32962 1.095914,2.87803 -0.671529,0.42131 -1.095266,1.27622 -1.095914,2.21107 -1.01e-4,1.36926 0.893013,2.47936 1.994824,2.47948 0.423677,-7e-4 0.836073,-0.16977 1.177448,-0.48161 5.19e-4,1.08477 1.423548,1.96405 3.178854,1.96393 1.25596,-5.2e-4 2.393547,-0.45829 2.902853,-1.16782 0.50901,0.70912 1.645602,1.16669 2.900825,1.16782 1.255958,-5.2e-4 2.393545,-0.45829 2.902851,-1.16782 0.509091,0.70922 1.645922,1.16681 2.901331,1.16782 1.25596,-5.2e-4 2.393545,-0.45829 2.902851,-1.16782 0.509013,0.70912 1.645602,1.16669 2.900825,1.16782 1.256157,-7e-4 2.393792,-0.4586 2.902853,-1.16833 0.508845,0.70942 1.645727,1.16724 2.901331,1.16833 1.255961,-5.2e-4 2.393545,-0.45829 2.902851,-1.16782 0.509089,0.70922 1.645926,1.16681 2.901334,1.16782 1.256157,-7e-4 2.39379,-0.4586 2.902851,-1.16833 0.508767,0.70932 1.645406,1.16711 2.900828,1.16833 1.255954,-5.2e-4 2.393545,-0.45829 2.902851,-1.16782 0.509089,0.70922 1.645924,1.16682 2.901332,1.16782 1.255954,-5.2e-4 2.393545,-0.45829 2.902851,-1.16782 0.509012,0.70912 1.645602,1.16669 2.900828,1.16782 1.255954,-5.2e-4 2.393541,-0.45829 2.902851,-1.16782 0.50909,0.70922 1.64592,1.16681 2.90132,1.16782 1.25597,-5.2e-4 2.39355,-0.45829 2.90286,-1.16782 0.50901,0.70912 1.6456,1.16669 2.900819,1.16782 1.25597,-5.2e-4 2.39355,-0.45829 2.90286,-1.16782 0.50909,0.70922 1.64592,1.16681 2.90133,1.16782 1.25596,-5.2e-4 2.39354,-0.45829 2.90285,-1.16782 0.50909,0.70922 1.64592,1.16681 2.90133,1.16782 1.25616,-7e-4 2.39379,-0.45859 2.90285,-1.16833 0.50877,0.70932 1.64542,1.16711 2.90083,1.16833 1.25597,-5.2e-4 2.39354,-0.45829 2.90285,-1.16782 0.50909,0.70922 1.64592,1.16681 2.90133,1.16782 1.25615,-7e-4 2.39379,-0.4586 2.90285,-1.16833 0.50877,0.70932 1.64541,1.16711 2.90083,1.16833 1.25596,-5.2e-4 2.39355,-0.45829 2.90285,-1.16782 0.50909,0.70922 1.64592,1.16682 2.90133,1.16782 1.25596,-5.2e-4 2.39354,-0.45829 2.90285,-1.16782 0.50902,0.70912 1.6456,1.16669 2.90083,1.16782 1.25596,-5.2e-4 2.39354,-0.45829 2.90285,-1.16782 0.50909,0.70922 1.64592,1.16681 2.90133,1.16782 1.25596,-5.2e-4 2.39354,-0.45829 2.90285,-1.16782 0.50901,0.70912 1.6456,1.16669 2.90083,1.16782 1.65886,1.1e-4 3.93178,-3.03691 3.93191,-3.83823 -7e-4,-0.98532 -0.42831,-1.88547 -1.10402,-2.32552 0.67634,-0.54624 1.10378,-1.66406 1.10402,-2.88715 -0.001,-1.25056 -0.4487,-2.38748 -1.14858,-2.91804 0.70018,-0.53081 1.14775,-1.66847 1.14858,-2.91957 -7e-4,-1.25055 -0.44829,-2.38766 -1.14807,-2.91855 0.69988,-0.53097 1.14721,-1.66833 1.14807,-2.91906 -7e-4,-1.25074 -0.4486,-2.3879 -1.14858,-2.91855 0.70009,-0.53073 1.14763,-1.66813 1.14858,-2.91906 -7e-4,-1.25073 -0.4486,-2.3879 -1.14858,-2.91855 0.70018,-0.5308 1.14775,-1.66845 1.14858,-2.91956 -7e-4,-1.25055 -0.44829,-2.38766 -1.14807,-2.91855 0.69988,-0.53096 1.14721,-1.66832 1.14807,-2.91906 -7e-4,-1.25073 -0.4486,-2.3879 -1.14858,-2.91855 0.70009,-0.53072 1.14763,-1.66813 1.14858,-2.91905 -7e-4,-1.25074 -0.4486,-2.38791 -1.14858,-2.91856 0.70018,-0.5308 1.14775,-1.66845 1.14858,-2.91956 -0.001,-1.25055 -0.4487,-2.38747 -1.14858,-2.91804 0.70018,-0.53081 1.14775,-1.66846 1.14858,-2.91956 -7e-4,-1.25055 -0.44829,-2.38767 -1.14807,-2.91856 0.69988,-0.53096 1.14721,-1.66832 1.14807,-2.91905 -7e-4,-1.25074 -0.4486,-2.3879 -1.14858,-2.91855 0.70009,-0.53073 1.14763,-1.66814 1.14858,-2.91906 -0.002,-1.25112 -0.45004,-2.38799 -1.15061,-2.91754 0.70118,-0.53 1.14965,-1.66835 1.15061,-2.92057 -7e-4,-1.25055 -0.44829,-2.38767 -1.14807,-2.91855 0.69988,-0.53097 1.14721,-1.66833 1.14807,-2.91906 -7e-4,-1.25074 -0.4486,-2.3879 -1.14858,-2.91855 0.70009,-0.53073 1.14763,-1.66814 1.14858,-2.91906 -7e-4,-1.25074 -0.4486,-2.3879 -1.14858,-2.91855 0.70018,-0.5308 1.14775,-1.66846 1.14858,-2.91957 -7e-4,-1.25055 -0.44829,-2.38765 -1.14807,-2.91854 0.69988,-0.53097 1.14721,-1.66833 1.14807,-2.91906 -7e-4,-1.25074 -0.4486,-2.3879 -1.14858,-2.91855 0.70009,-0.53073 1.14763,-1.66814 1.14858,-2.91906 -7e-4,-1.25073 -0.4486,-2.38791 -1.14858,-2.91855 0.70018,-0.53081 1.14775,-1.66846 1.14858,-2.91956 -7e-4,-0.47269 -0.0659,-0.93929 -0.19041,-1.36685 1.19727,0.381 3.04458,0.6085 3.92735,0.60923 1.25596,-5.2e-4 2.39355,-0.45828 2.90286,-1.16783 0.50909,0.70923 1.64591,1.16683 2.90133,1.16783 1.25595,-5.2e-4 2.39354,-0.45828 2.90285,-1.16783 0.50901,0.70913 1.6456,1.1667 2.90082,1.16783 1.25596,-5.2e-4 2.39357,-0.45828 2.90285,-1.16783 0.50908,0.70923 1.64593,1.16682 2.90133,1.16783 1.25596,-5.2e-4 2.39355,-0.45828 2.90285,-1.16783 0.50902,0.70913 1.64561,1.1667 2.90083,1.16783 1.25596,-5.2e-4 2.39355,-0.45828 2.90285,-1.16783 0.50909,0.70923 1.64593,1.16682 2.90134,1.16783 1.66555,-7e-4 3.04741,-0.79644 3.1672,-1.82314 h 0.37628 v -36.50287 h -0.41983 c -0.27877,-0.93081 -1.59199,-1.60636 -3.12365,-1.6069 -1.25597,5.2e-4 -2.39355,0.45829 -2.90286,1.16784 -0.50908,-0.70924 -1.64592,-1.16683 -2.90133,-1.16784 -1.25577,7e-4 -2.3931,0.4584 -2.90234,1.16784 -0.50909,-0.70924 -1.64592,-1.16683 -2.90134,-1.16784 -1.25595,5.2e-4 -2.39354,0.45829 -2.90285,1.16784 -0.50908,-0.70924 -1.64592,-1.16683 -2.90133,-1.16784 -1.25577,5.2e-4 -2.3933,0.45798 -2.90285,1.16732 -0.50926,-0.70892 -1.6458,-1.16627 -2.90082,-1.16732 -1.25596,5.2e-4 -2.39355,0.45829 -2.90285,1.16784 -0.50908,-0.70924 -1.64593,-1.16683 -2.90134,-1.16784 -1.25596,5.2e-4 -2.39355,0.45829 -2.90285,1.16784 -0.20006,-0.27863 -0.50234,-0.51958 -0.87308,-0.71053 0.0258,-0.20776 0.0388,-0.41911 0.039,-0.63101 -7e-4,-1.21272 -0.42192,-2.32224 -1.08984,-2.87247 v -0.0881 c 0.66882,-0.55098 1.08993,-1.66267 1.08984,-2.87703 -7e-4,-1.21289 -0.42182,-2.32266 -1.08984,-2.87297 v -0.0881 c 0.66872,-0.55088 1.08981,-1.66234 1.08984,-2.87651 -7e-4,-1.2129 -0.42182,-2.32267 -1.08984,-2.87298 v -0.0881 c 0.66882,-0.55097 1.08993,-1.66266 1.08984,-2.87702 -7e-4,-1.21271 -0.42192,-2.32224 -1.08984,-2.87246 v -0.0881 c 0.66882,-0.55097 1.08993,-1.66267 1.08984,-2.87703 -7e-4,-1.21289 -0.42182,-2.32266 -1.08984,-2.87297 v -0.0881 c 0.66872,-0.55088 1.08981,-1.66234 1.08984,-2.87651 -7e-4,-1.2129 -0.42182,-2.32266 -1.08984,-2.87298 v -0.0881 c 0.19796,-0.16444 0.37752,-0.38131 0.53124,-0.64164 0.6132,-0.2047 1.10753,-0.52821 1.39521,-0.92778 0.50869,0.70922 1.6451,1.16699 2.90032,1.16833 1.25596,-5.1e-4 2.39355,-0.45828 2.90286,-1.16782 0.50909,0.70923 1.64592,1.16682 2.90133,1.16782 1.25596,-5.1e-4 2.39355,-0.45828 2.90285,-1.16782 0.50901,0.70912 1.6456,1.1667 2.90082,1.16782 1.25596,-5.1e-4 2.39357,-0.45828 2.90285,-1.16782 0.50909,0.70923 1.64593,1.16682 2.90134,1.16782 1.25596,-5.1e-4 2.39353,-0.45828 2.90285,-1.16782 0.50901,0.70912 1.6456,1.1667 2.90083,1.16782 1.25596,-5.1e-4 2.39353,-0.45828 2.90285,-1.16782 0.50909,0.70923 1.64592,1.16682 2.90133,1.16782 1.5063,-2.1e-4 2.80551,-0.65384 3.1115,-1.56537 h 0.43198 V 80.164341 h -0.36513 v -0.003 c 0,-1.084886 -1.42297,-1.96438 -3.17835,-1.964438 -1.25615,7e-4 -2.39379,0.458593 -2.90285,1.168332 -0.50884,-0.709426 -1.64573,-1.167238 -2.90133,-1.168332 -1.25597,8.4e-4 -2.39336,0.458699 -2.90235,1.168332 -0.50885,-0.709428 -1.64573,-1.16724 -2.90133,-1.168332 -1.25615,7e-4 -2.39379,0.458595 -2.90285,1.168332 -0.50884,-0.709426 -1.64573,-1.167238 -2.90134,-1.168332 -1.25595,6.22e-4 -2.39354,0.458285 -2.90285,1.167825 -0.50901,-0.709124 -1.6456,-1.166696 -2.90082,-1.167825 -1.25616,7e-4 -2.3938,0.458593 -2.90285,1.168332 -0.50884,-0.709426 -1.64573,-1.167238 -2.90134,-1.168332 -1.25615,7e-4 -2.39378,0.458595 -2.90285,1.168332 -0.50876,-0.709324 -1.6454,-1.167116 -2.90082,-1.168332 -1.25616,7e-4 -2.39379,0.458595 -2.90285,1.168332 -0.50884,-0.709426 -1.64573,-1.167238 -2.90133,-1.168332 -1.25616,7e-4 -2.39379,0.458593 -2.90285,1.168332 -0.50877,-0.709322 -1.64541,-1.167114 -2.90083,-1.168332 -1.25615,7e-4 -2.39379,0.458595 -2.90285,1.168332 -0.50885,-0.709428 -1.64573,-1.16724 -2.90134,-1.168332 -1.25614,7e-4 -2.39379,0.458595 -2.90285,1.168332 -0.50883,-0.709426 -1.64572,-1.167238 -2.90133,-1.168332 -1.25597,8.4e-4 -2.39335,0.458697 -2.90234,1.168332 -0.50883,-0.709426 -1.64573,-1.167238 -2.90133,-1.168332 -1.25616,7e-4 -2.3938,0.458593 -2.90285,1.168332 -0.50884,-0.709426 -1.64573,-1.167238 -2.90134,-1.168332 -1.25595,6.22e-4 -2.39354,0.458286 -2.90285,1.167825 -0.50901,-0.709126 -1.6456,-1.166698 -2.90082,-1.167825 -1.25616,7e-4 -2.39379,0.458595 -2.90285,1.168332 -0.50884,-0.709426 -1.64573,-1.167238 -2.90133,-1.168332 -1.25616,7e-4 -2.39379,0.458593 -2.90286,1.168332 -0.50876,-0.709322 -1.6454,-1.167114 -2.90082,-1.168332 -1.25616,7e-4 -2.393799,0.458593 -2.902859,1.168332 -0.50883,-0.709426 -1.64572,-1.167238 -2.90133,-1.168332 -1.25615,7e-4 -2.39379,0.458593 -2.90285,1.168332 -0.50877,-0.709322 -1.64541,-1.167114 -2.90082,-1.168332 -1.256164,7e-4 -2.393797,0.458595 -2.902858,1.168332 -0.508844,-0.709428 -1.645721,-1.16724 -2.901332,-1.168332 -1.25615,7e-4 -2.39379,0.458595 -2.902844,1.168332 -0.508837,-0.709426 -1.645728,-1.167238 -2.901339,-1.168332 -1.255968,8.4e-4 -2.393363,0.458697 -2.90234,1.168332 -0.508837,-0.709426 -1.645728,-1.167238 -2.901332,-1.168332 -1.256157,7e-4 -2.39379,0.458595 -2.902851,1.168332 -0.508846,-0.709428 -1.64573,-1.16724 -2.901334,-1.168332 -1.255961,6.22e-4 -2.393545,0.458286 -2.902854,1.167825 -0.50901,-0.709126 -1.645602,-1.166698 -2.900825,-1.167825 -1.256154,7e-4 -2.393789,0.458595 -2.902851,1.168332 -0.508836,-0.709426 -1.645727,-1.167238 -2.901331,-1.168332 -1.256154,7e-4 -2.393791,0.458593 -2.902851,1.168332 -0.508769,-0.709322 -1.645408,-1.167114 -2.900825,-1.168332 -1.255205,7e-4 -2.392191,0.457877 -2.901839,1.166812 -0.509729,-0.70904 -1.646956,-1.166234 -2.902345,-1.166812 -1.256154,7e-4 -2.393792,0.458595 -2.902851,1.168332 -0.508767,-0.709324 -1.645408,-1.167116 -2.900825,-1.168332 -1.256155,7e-4 -2.393809,0.458595 -2.902851,1.168332 -0.508837,-0.709426 -1.645726,-1.167238 -2.901334,-1.168332 -1.256153,7e-4 -2.393791,0.458595 -2.90285,1.168332 -0.508844,-0.709428 -1.645727,-1.16724 -2.901331,-1.168332 -1.25597,8.4e-4 -2.393353,0.458699 -2.902345,1.168332 -0.508847,-0.709428 -1.645727,-1.16724 -2.901334,-1.168332 -1.256154,7e-4 -2.393788,0.458595 -2.90285,1.168332 -0.508836,-0.709426 -1.645727,-1.167238 -2.901332,-1.168332 -1.255958,6.22e-4 -2.393545,0.458285 -2.902851,1.167825 -0.509012,-0.709124 -1.645603,-1.166696 -2.9008256,-1.167825 -1.256155,7e-4 -2.39379,0.458593 -2.902851,1.168332 -0.508846,-0.709436 -1.645737,-1.167248 -2.901342,-1.168342 z"
       id="path21044-0"
       inkscape:connector-curvature="0"
       sodipodi:nodetypes="cccccccccccccccccccccccccccccccccccccccccccccccccccccccccccccccccccccccccccccccccccccccccccccccccccccccccccccccccccccccccccccccccccccccccccccccccccccccccccccccccccccccccccccccccccccccccccccccccccccccccccccccccccccccccccccccccccccccccccccccsccccccccccccccccccccccccccccccccccccccccccccccccccccccccccccccccc" />
  </g>
</svg>
