  0
SECTION
  2
HEADER
  9
$ACADVER
  1
AC1014
  9
$HANDSEED
  5
FFFF
  9
$MEASUREMENT
 70
     1
  0
ENDSEC
  0
SECTION
  2
TABLES
  0
TABLE
  2
VPORT
  5
8
330
0
100
AcDbSymbolTable
 70
     4
  0
VPORT
  5
2E
330
8
100
AcDbSymbolTableRecord
100
AcDbViewportTableRecord
  2
*ACTIVE
 70
     0
 10
0.0
 20
0.0
 11
1.0
 21
1.0
 12
210.0
 22
148.5
 13
0.0
 23
0.0
 14
10.0
 24
10.0
 15
10.0
 25
10.0
 16
0.0
 26
0.0
 36
1.0
 17
0.0
 27
0.0
 37
0.0
 40
341.0
 41
1.24
 42
50.0
 43
0.0
 44
0.0
 50
0.0
 51
0.0
 71
     0
 72
   100
 73
     1
 74
     3
 75
     0
 76
     0
 77
     0
 78
     0
  0
ENDTAB
  0
TABLE
  2
LTYPE
  5
5
330
0
100
AcDbSymbolTable
 70
     1
  0
LTYPE
  5
14
330
5
100
AcDbSymbolTableRecord
100
AcDbLinetypeTableRecord
  2
BYBLOCK
 70
     0
  3

 72
    65
 73
     0
 40
0.0
  0
LTYPE
  5
15
330
5
100
AcDbSymbolTableRecord
100
AcDbLinetypeTableRecord
  2
BYLAYER
 70
     0
  3

 72
    65
 73
     0
 40
0.0
  0
LTYPE
  5
16
330
5
100
AcDbSymbolTableRecord
100
AcDbLinetypeTableRecord
  2
CONTINUOUS
 70
     0
  3
Solid line
 72
    65
 73
     0
 40
0.0
  0
ENDTAB
  0
TABLE
  2
LAYER
  5
2
100
AcDbSymbolTable
 70
2
  0
LAYER
  5
50
100
AcDbSymbolTableRecord
100
AcDbLayerTableRecord
  2
0
 70
0
  6
CONTINUOUS
  0
LAYER
  5
51
100
AcDbSymbolTableRecord
100
AcDbLayerTableRecord
  2
Layer_1
 70
0
  6
CONTINUOUS
  0
ENDTAB
  0
TABLE
  2
STYLE
  5
3
330
0
100
AcDbSymbolTable
 70
     1
  0
STYLE
  5
11
330
3
100
AcDbSymbolTableRecord
100
AcDbTextStyleTableRecord
  2
STANDARD
 70
     0
 40
0.0
 41
1.0
 50
0.0
 71
     0
 42
2.5
  3
txt
  4

  0
ENDTAB
  0
TABLE
  2
VIEW
  5
6
330
0
100
AcDbSymbolTable
 70
     0
  0
ENDTAB
  0
TABLE
  2
UCS
  5
7
330
0
100
AcDbSymbolTable
 70
     0
  0
ENDTAB
  0
TABLE
  2
APPID
  5
9
330
0
100
AcDbSymbolTable
 70
     2
  0
APPID
  5
12
330
9
100
AcDbSymbolTableRecord
100
AcDbRegAppTableRecord
  2
ACAD
 70
     0
  0
ENDTAB
  0
TABLE
  2
DIMSTYLE
  5
A
330
0
100
AcDbSymbolTable
 70
     1
  0
DIMSTYLE
105
27
330
A
100
AcDbSymbolTableRecord
100
AcDbDimStyleTableRecord
  2
ISO-25
 70
     0
  3

  4

  5

  6

  7

 40
1.0
 41
2.5
 42
0.625
 43
3.75
 44
1.25
 45
0.0
 46
0.0
 47
0.0
 48
0.0
140
2.5
141
2.5
142
0.0
143
0.03937007874016
144
1.0
145
0.0
146
1.0
147
0.625
 71
     0
 72
     0
 73
     0
 74
     0
 75
     0
 76
     0
 77
     1
 78
     8
170
     0
171
     3
172
     1
173
     0
174
     0
175
     0
176
     0
177
     0
178
     0
270
     2
271
     2
272
     2
273
     2
274
     3
340
11
275
     0
280
     0
281
     0
282
     0
283
     0
284
     8
285
     0
286
     0
287
     3
288
     0
  0
ENDTAB
  0
TABLE
  2
BLOCK_RECORD
  5
1
330
0
100
AcDbSymbolTable
 70
     1
  0
BLOCK_RECORD
  5
1F
330
1
100
AcDbSymbolTableRecord
100
AcDbBlockTableRecord
  2
*MODEL_SPACE
  0
BLOCK_RECORD
  5
1B
330
1
100
AcDbSymbolTableRecord
100
AcDbBlockTableRecord
  2
*PAPER_SPACE
  0
ENDTAB
  0
ENDSEC
  0
SECTION
  2
BLOCKS
  0
BLOCK
  5
20
330
1F
100
AcDbEntity
  8
0
100
AcDbBlockBegin
  2
*MODEL_SPACE
 70
     0
 10
0.0
 20
0.0
 30
0.0
  3
*MODEL_SPACE
  1

  0
ENDBLK
  5
21
330
1F
100
AcDbEntity
  8
0
100
AcDbBlockEnd
  0
BLOCK
  5
1C
330
1B
100
AcDbEntity
 67
     1
  8
0
100
AcDbBlockBegin
  2
*PAPER_SPACE
  1

  0
ENDBLK
  5
1D
330
1B
100
AcDbEntity
 67
     1
  8
0
100
AcDbBlockEnd
  0
ENDSEC
  0
SECTION
  2
ENTITIES
  0
SPLINE
  5
100
100
AcDbEntity
  8
Layer_1
 62
7
100
AcDbSpline
 70
8
 71
3
 72
8
 73
4
 74
0
 40
0
 40
0
 40
0
 40
0
 40
1
 40
1
 40
1
 40
1
 10
-18.563861
 20
22.613560
 30
0.0
 10
-18.563799
 20
20.607400
 30
0.0
 10
-17.558663
 20
18.981150
 30
0.0
 10
-16.318789
 20
18.981160
 30
0.0
  0
SPLINE
  5
101
100
AcDbEntity
  8
Layer_1
 62
7
100
AcDbSpline
 70
8
 71
3
 72
8
 73
4
 74
0
 40
0
 40
0
 40
0
 40
0
 40
1
 40
1
 40
1
 40
1
 10
22.041835
 20
19.061030
 30
0.0
 10
23.082797
 20
19.410470
 30
0.0
 10
23.829566
 20
20.893380
 30
0.0
 10
23.830832
 20
22.613560
 30
0.0
  0
SPLINE
  5
102
100
AcDbEntity
  8
Layer_1
 62
7
100
AcDbSpline
 70
8
 71
3
 72
8
 73
4
 74
0
 40
0
 40
0
 40
0
 40
0
 40
1
 40
1
 40
1
 40
1
 10
23.830832
 20
22.613560
 30
0.0
 10
23.830239
 20
24.048940
 30
0.0
 10
23.307074
 20
25.349040
 30
0.0
 10
22.496173
 20
25.931100
 30
0.0
  0
SPLINE
  5
103
100
AcDbEntity
  8
Layer_1
 62
7
100
AcDbSpline
 70
8
 71
3
 72
8
 73
4
 74
0
 40
0
 40
0
 40
0
 40
0
 40
1
 40
1
 40
1
 40
1
 10
22.496173
 20
25.931100
 30
0.0
 10
23.306719
 20
26.512920
 30
0.0
 10
23.829685
 20
27.812160
 30
0.0
 10
23.830832
 20
29.246910
 30
0.0
  0
SPLINE
  5
104
100
AcDbEntity
  8
Layer_1
 62
7
100
AcDbSpline
 70
8
 71
3
 72
8
 73
4
 74
0
 40
0
 40
0
 40
0
 40
0
 40
1
 40
1
 40
1
 40
1
 10
23.830832
 20
29.246910
 30
0.0
 10
23.830239
 20
30.682290
 30
0.0
 10
23.307077
 20
31.982380
 30
0.0
 10
22.496173
 20
32.564450
 30
0.0
  0
SPLINE
  5
105
100
AcDbEntity
  8
Layer_1
 62
7
100
AcDbSpline
 70
8
 71
3
 72
8
 73
4
 74
0
 40
0
 40
0
 40
0
 40
0
 40
1
 40
1
 40
1
 40
1
 10
22.496173
 20
32.564450
 30
0.0
 10
23.306600
 20
33.146180
 30
0.0
 10
23.829542
 20
34.445140
 30
0.0
 10
23.830832
 20
35.879680
 30
0.0
  0
SPLINE
  5
106
100
AcDbEntity
  8
Layer_1
 62
7
100
AcDbSpline
 70
8
 71
3
 72
8
 73
4
 74
0
 40
0
 40
0
 40
0
 40
0
 40
1
 40
1
 40
1
 40
1
 10
23.830832
 20
35.879680
 30
0.0
 10
23.830239
 20
37.315060
 30
0.0
 10
23.307077
 20
38.615150
 30
0.0
 10
22.496173
 20
39.197230
 30
0.0
  0
SPLINE
  5
107
100
AcDbEntity
  8
Layer_1
 62
7
100
AcDbSpline
 70
8
 71
3
 72
8
 73
4
 74
0
 40
0
 40
0
 40
0
 40
0
 40
1
 40
1
 40
1
 40
1
 10
22.496173
 20
39.197230
 30
0.0
 10
23.306719
 20
39.779040
 30
0.0
 10
23.829685
 20
41.078280
 30
0.0
 10
23.830832
 20
42.513040
 30
0.0
  0
SPLINE
  5
108
100
AcDbEntity
  8
Layer_1
 62
7
100
AcDbSpline
 70
8
 71
3
 72
8
 73
4
 74
0
 40
0
 40
0
 40
0
 40
0
 40
1
 40
1
 40
1
 40
1
 10
23.830832
 20
42.513040
 30
0.0
 10
23.830239
 20
43.948410
 30
0.0
 10
23.307074
 20
45.248520
 30
0.0
 10
22.496173
 20
45.830580
 30
0.0
  0
SPLINE
  5
109
100
AcDbEntity
  8
Layer_1
 62
7
100
AcDbSpline
 70
8
 71
3
 72
8
 73
4
 74
0
 40
0
 40
0
 40
0
 40
0
 40
1
 40
1
 40
1
 40
1
 10
22.496173
 20
45.830580
 30
0.0
 10
23.306603
 20
46.412310
 30
0.0
 10
23.829542
 20
47.711270
 30
0.0
 10
23.830832
 20
49.145810
 30
0.0
  0
SPLINE
  5
10a
100
AcDbEntity
  8
Layer_1
 62
7
100
AcDbSpline
 70
8
 71
3
 72
8
 73
4
 74
0
 40
0
 40
0
 40
0
 40
0
 40
1
 40
1
 40
1
 40
1
 10
23.830832
 20
49.145810
 30
0.0
 10
23.830239
 20
50.581190
 30
0.0
 10
23.307074
 20
51.881290
 30
0.0
 10
22.496173
 20
52.463360
 30
0.0
  0
SPLINE
  5
10b
100
AcDbEntity
  8
Layer_1
 62
7
100
AcDbSpline
 70
8
 71
3
 72
8
 73
4
 74
0
 40
0
 40
0
 40
0
 40
0
 40
1
 40
1
 40
1
 40
1
 10
22.496173
 20
52.463360
 30
0.0
 10
23.306719
 20
53.045170
 30
0.0
 10
23.829685
 20
54.344400
 30
0.0
 10
23.830832
 20
55.779160
 30
0.0
  0
SPLINE
  5
10c
100
AcDbEntity
  8
Layer_1
 62
7
100
AcDbSpline
 70
8
 71
3
 72
8
 73
4
 74
0
 40
0
 40
0
 40
0
 40
0
 40
1
 40
1
 40
1
 40
1
 10
23.830832
 20
55.779160
 30
0.0
 10
23.830239
 20
57.214540
 30
0.0
 10
23.307077
 20
58.514630
 30
0.0
 10
22.496173
 20
59.096700
 30
0.0
  0
SPLINE
  5
10d
100
AcDbEntity
  8
Layer_1
 62
7
100
AcDbSpline
 70
8
 71
3
 72
8
 73
4
 74
0
 40
0
 40
0
 40
0
 40
0
 40
1
 40
1
 40
1
 40
1
 10
22.496173
 20
59.096700
 30
0.0
 10
22.835884
 20
59.340600
 30
0.0
 10
24.106463
 20
60.663600
 30
0.0
 10
24.337259
 20
60.967880
 30
0.0
  0
SPLINE
  5
10e
100
AcDbEntity
  8
Layer_1
 62
7
100
AcDbSpline
 70
8
 71
3
 72
8
 73
4
 74
0
 40
0
 40
0
 40
0
 40
0
 40
1
 40
1
 40
1
 40
1
 10
24.337259
 20
60.967880
 30
0.0
 10
24.944076
 20
60.168020
 30
0.0
 10
26.243916
 20
59.656790
 30
0.0
 10
27.673327
 20
59.655800
 30
0.0
  0
SPLINE
  5
10f
100
AcDbEntity
  8
Layer_1
 62
7
100
AcDbSpline
 70
8
 71
3
 72
8
 73
4
 74
0
 40
0
 40
0
 40
0
 40
0
 40
1
 40
1
 40
1
 40
1
 10
27.673327
 20
59.655800
 30
0.0
 10
29.102528
 20
59.657800
 30
0.0
 10
30.402089
 20
60.168130
 30
0.0
 10
31.008813
 20
60.967880
 30
0.0
  0
SPLINE
  5
110
100
AcDbEntity
  8
Layer_1
 62
7
100
AcDbSpline
 70
8
 71
3
 72
8
 73
4
 74
0
 40
0
 40
0
 40
0
 40
0
 40
1
 40
1
 40
1
 40
1
 10
31.008813
 20
60.967880
 30
0.0
 10
31.615627
 20
60.168020
 30
0.0
 10
32.915466
 20
59.656790
 30
0.0
 10
34.344877
 20
59.655800
 30
0.0
  0
SPLINE
  5
111
100
AcDbEntity
  8
Layer_1
 62
7
100
AcDbSpline
 70
8
 71
3
 72
8
 73
4
 74
0
 40
0
 40
0
 40
0
 40
0
 40
1
 40
1
 40
1
 40
1
 10
34.344877
 20
59.655800
 30
0.0
 10
35.774289
 20
59.656600
 30
0.0
 10
37.074128
 20
60.168020
 30
0.0
 10
37.680941
 20
60.967880
 30
0.0
  0
SPLINE
  5
112
100
AcDbEntity
  8
Layer_1
 62
7
100
AcDbSpline
 70
8
 71
3
 72
8
 73
4
 74
0
 40
0
 40
0
 40
0
 40
0
 40
1
 40
1
 40
1
 40
1
 10
37.680941
 20
60.967880
 30
0.0
 10
38.287666
 20
60.168130
 30
0.0
 10
39.587227
 20
59.656920
 30
0.0
 10
41.016429
 20
59.655800
 30
0.0
  0
SPLINE
  5
113
100
AcDbEntity
  8
Layer_1
 62
7
100
AcDbSpline
 70
8
 71
3
 72
8
 73
4
 74
0
 40
0
 40
0
 40
0
 40
0
 40
1
 40
1
 40
1
 40
1
 10
41.016429
 20
59.655800
 30
0.0
 10
42.445840
 20
59.656600
 30
0.0
 10
43.745679
 20
60.168020
 30
0.0
 10
44.352493
 20
60.967880
 30
0.0
  0
SPLINE
  5
114
100
AcDbEntity
  8
Layer_1
 62
7
100
AcDbSpline
 70
8
 71
3
 72
8
 73
4
 74
0
 40
0
 40
0
 40
0
 40
0
 40
1
 40
1
 40
1
 40
1
 10
44.352493
 20
60.967880
 30
0.0
 10
44.959309
 20
60.168020
 30
0.0
 10
46.259149
 20
59.656790
 30
0.0
 10
47.688560
 20
59.655800
 30
0.0
  0
SPLINE
  5
115
100
AcDbEntity
  8
Layer_1
 62
7
100
AcDbSpline
 70
8
 71
3
 72
8
 73
4
 74
0
 40
0
 40
0
 40
0
 40
0
 40
1
 40
1
 40
1
 40
1
 10
47.688560
 20
59.655800
 30
0.0
 10
49.117761
 20
59.657800
 30
0.0
 10
50.417321
 20
60.168130
 30
0.0
 10
51.024046
 20
60.967880
 30
0.0
  0
SPLINE
  5
116
100
AcDbEntity
  8
Layer_1
 62
7
100
AcDbSpline
 70
8
 71
3
 72
8
 73
4
 74
0
 40
0
 40
0
 40
0
 40
0
 40
1
 40
1
 40
1
 40
1
 10
51.024046
 20
60.967880
 30
0.0
 10
51.630860
 20
60.168020
 30
0.0
 10
52.930700
 20
59.656790
 30
0.0
 10
54.360111
 20
59.655800
 30
0.0
  0
SPLINE
  5
117
100
AcDbEntity
  8
Layer_1
 62
7
100
AcDbSpline
 70
8
 71
3
 72
8
 73
4
 74
0
 40
0
 40
0
 40
0
 40
0
 40
1
 40
1
 40
1
 40
1
 10
54.360111
 20
59.655800
 30
0.0
 10
55.789522
 20
59.656600
 30
0.0
 10
57.089361
 20
60.168020
 30
0.0
 10
57.696175
 20
60.967880
 30
0.0
  0
SPLINE
  5
118
100
AcDbEntity
  8
Layer_1
 62
7
100
AcDbSpline
 70
8
 71
3
 72
8
 73
4
 74
0
 40
0
 40
0
 40
0
 40
0
 40
1
 40
1
 40
1
 40
1
 10
57.696175
 20
60.967880
 30
0.0
 10
58.302900
 20
60.168130
 30
0.0
 10
59.602461
 20
59.656920
 30
0.0
 10
61.031661
 20
59.655800
 30
0.0
  0
SPLINE
  5
119
100
AcDbEntity
  8
Layer_1
 62
7
100
AcDbSpline
 70
8
 71
3
 72
8
 73
4
 74
0
 40
0
 40
0
 40
0
 40
0
 40
1
 40
1
 40
1
 40
1
 10
61.031661
 20
59.655800
 30
0.0
 10
61.346773
 20
59.656100
 30
0.0
 10
61.660517
 20
59.681400
 30
0.0
 10
61.965229
 20
59.731100
 30
0.0
  0
SPLINE
  5
11a
100
AcDbEntity
  8
Layer_1
 62
7
100
AcDbSpline
 70
8
 71
3
 72
8
 73
4
 74
0
 40
0
 40
0
 40
0
 40
0
 40
1
 40
1
 40
1
 40
1
 10
61.965229
 20
59.731100
 30
0.0
 10
62.141173
 20
59.471330
 30
0.0
 10
62.342677
 20
59.255020
 30
0.0
 10
62.564837
 20
59.095020
 30
0.0
  0
SPLINE
  5
11b
100
AcDbEntity
  8
Layer_1
 62
7
100
AcDbSpline
 70
8
 71
3
 72
8
 73
4
 74
0
 40
0
 40
0
 40
0
 40
0
 40
1
 40
1
 40
1
 40
1
 10
62.564837
 20
59.095020
 30
0.0
 10
61.754293
 20
58.513210
 30
0.0
 10
61.231325
 20
57.213970
 30
0.0
 10
61.230181
 20
55.779220
 30
0.0
  0
SPLINE
  5
11c
100
AcDbEntity
  8
Layer_1
 62
7
100
AcDbSpline
 70
8
 71
3
 72
8
 73
4
 74
0
 40
0
 40
0
 40
0
 40
0
 40
1
 40
1
 40
1
 40
1
 10
61.230181
 20
55.779220
 30
0.0
 10
61.230773
 20
54.343840
 30
0.0
 10
61.753941
 20
53.043740
 30
0.0
 10
62.564837
 20
52.461670
 30
0.0
  0
SPLINE
  5
11d
100
AcDbEntity
  8
Layer_1
 62
7
100
AcDbSpline
 70
8
 71
3
 72
8
 73
4
 74
0
 40
0
 40
0
 40
0
 40
0
 40
1
 40
1
 40
1
 40
1
 10
62.564837
 20
52.461670
 30
0.0
 10
61.754293
 20
51.879860
 30
0.0
 10
61.231333
 20
50.580620
 30
0.0
 10
61.230181
 20
49.145860
 30
0.0
  0
SPLINE
  5
11e
100
AcDbEntity
  8
Layer_1
 62
7
100
AcDbSpline
 70
8
 71
3
 72
8
 73
4
 74
0
 40
0
 40
0
 40
0
 40
0
 40
1
 40
1
 40
1
 40
1
 10
61.230181
 20
49.145860
 30
0.0
 10
61.230981
 20
47.710690
 30
0.0
 10
61.754053
 20
46.410890
 30
0.0
 10
62.564837
 20
45.828900
 30
0.0
  0
SPLINE
  5
11f
100
AcDbEntity
  8
Layer_1
 62
7
100
AcDbSpline
 70
8
 71
3
 72
8
 73
4
 74
0
 40
0
 40
0
 40
0
 40
0
 40
1
 40
1
 40
1
 40
1
 10
62.564837
 20
45.828900
 30
0.0
 10
61.754293
 20
45.247100
 30
0.0
 10
61.231333
 20
43.947850
 30
0.0
 10
61.230181
 20
42.513090
 30
0.0
  0
SPLINE
  5
120
100
AcDbEntity
  8
Layer_1
 62
7
100
AcDbSpline
 70
8
 71
3
 72
8
 73
4
 74
0
 40
0
 40
0
 40
0
 40
0
 40
1
 40
1
 40
1
 40
1
 10
61.230181
 20
42.513090
 30
0.0
 10
61.230773
 20
41.077710
 30
0.0
 10
61.753941
 20
39.777610
 30
0.0
 10
62.564837
 20
39.195540
 30
0.0
  0
SPLINE
  5
121
100
AcDbEntity
  8
Layer_1
 62
7
100
AcDbSpline
 70
8
 71
3
 72
8
 73
4
 74
0
 40
0
 40
0
 40
0
 40
0
 40
1
 40
1
 40
1
 40
1
 10
62.564837
 20
39.195540
 30
0.0
 10
61.754293
 20
38.613730
 30
0.0
 10
61.231325
 20
37.314500
 30
0.0
 10
61.230181
 20
35.879740
 30
0.0
  0
SPLINE
  5
122
100
AcDbEntity
  8
Layer_1
 62
7
100
AcDbSpline
 70
8
 71
3
 72
8
 73
4
 74
0
 40
0
 40
0
 40
0
 40
0
 40
1
 40
1
 40
1
 40
1
 10
61.230181
 20
35.879740
 30
0.0
 10
61.230773
 20
34.444580
 30
0.0
 10
61.753589
 20
33.144540
 30
0.0
 10
62.564261
 20
32.562190
 30
0.0
  0
SPLINE
  5
123
100
AcDbEntity
  8
Layer_1
 62
7
100
AcDbSpline
 70
8
 71
3
 72
8
 73
4
 74
0
 40
0
 40
0
 40
0
 40
0
 40
1
 40
1
 40
1
 40
1
 10
62.564261
 20
32.562190
 30
0.0
 10
61.754061
 20
31.980180
 30
0.0
 10
61.231373
 20
30.681300
 30
0.0
 10
61.230181
 20
29.246970
 30
0.0
  0
SPLINE
  5
124
100
AcDbEntity
  8
Layer_1
 62
7
100
AcDbSpline
 70
8
 71
3
 72
8
 73
4
 74
0
 40
0
 40
0
 40
0
 40
0
 40
1
 40
1
 40
1
 40
1
 10
61.230181
 20
29.246970
 30
0.0
 10
61.230773
 20
27.811580
 30
0.0
 10
61.753941
 20
26.511490
 30
0.0
 10
62.564837
 20
25.929420
 30
0.0
  0
SPLINE
  5
125
100
AcDbEntity
  8
Layer_1
 62
7
100
AcDbSpline
 70
8
 71
3
 72
8
 73
4
 74
0
 40
0
 40
0
 40
0
 40
0
 40
1
 40
1
 40
1
 40
1
 10
62.564837
 20
25.929420
 30
0.0
 10
61.754293
 20
25.347620
 30
0.0
 10
61.231333
 20
24.048370
 30
0.0
 10
61.230181
 20
22.613620
 30
0.0
  0
SPLINE
  5
126
100
AcDbEntity
  8
Layer_1
 62
7
100
AcDbSpline
 70
8
 71
3
 72
8
 73
4
 74
0
 40
0
 40
0
 40
0
 40
0
 40
1
 40
1
 40
1
 40
1
 10
61.230181
 20
22.613620
 30
0.0
 10
61.230981
 20
20.863360
 30
0.0
 10
62.002989
 20
19.362860
 30
0.0
 10
63.066637
 20
19.044300
 30
0.0
  0
LWPOLYLINE
  5
127
100
AcDbEntity
  8
Layer_1
 62
7
100
AcDbPolyline
 90
5
 70
0
 10
-16.318789
 20
18.981160
 30
0.0
 10
-16.315389
 20
18.981160
 30
0.0
 10
-16.315389
 20
18.563860
 30
0.0
 10
22.041835
 20
18.563860
 30
0.0
 10
22.041835
 20
19.061030
 30
0.0
  0
SPLINE
  5
128
100
AcDbEntity
  8
Layer_1
 62
7
100
AcDbSpline
 70
8
 71
3
 72
8
 73
4
 74
0
 40
0
 40
0
 40
0
 40
0
 40
1
 40
1
 40
1
 40
1
 10
104.784240
 20
18.991060
 30
0.0
 10
105.958300
 20
19.128050
 30
0.0
 10
106.867630
 20
20.709000
 30
0.0
 10
106.867830
 20
22.613620
 30
0.0
  0
SPLINE
  5
129
100
AcDbEntity
  8
Layer_1
 62
7
100
AcDbSpline
 70
8
 71
3
 72
8
 73
4
 74
0
 40
0
 40
0
 40
0
 40
0
 40
1
 40
1
 40
1
 40
1
 10
106.867830
 20
22.613620
 30
0.0
 10
106.867240
 20
24.049000
 30
0.0
 10
106.344080
 20
25.349100
 30
0.0
 10
105.533170
 20
25.931160
 30
0.0
  0
SPLINE
  5
12a
100
AcDbEntity
  8
Layer_1
 62
7
100
AcDbSpline
 70
8
 71
3
 72
8
 73
4
 74
0
 40
0
 40
0
 40
0
 40
0
 40
1
 40
1
 40
1
 40
1
 10
105.533170
 20
25.931160
 30
0.0
 10
106.343720
 20
26.512970
 30
0.0
 10
106.866680
 20
27.812220
 30
0.0
 10
106.867830
 20
29.246970
 30
0.0
  0
SPLINE
  5
12b
100
AcDbEntity
  8
Layer_1
 62
7
100
AcDbSpline
 70
8
 71
3
 72
8
 73
4
 74
0
 40
0
 40
0
 40
0
 40
0
 40
1
 40
1
 40
1
 40
1
 10
106.867830
 20
29.246970
 30
0.0
 10
106.867240
 20
30.682350
 30
0.0
 10
106.344080
 20
31.982450
 30
0.0
 10
105.533170
 20
32.564510
 30
0.0
  0
SPLINE
  5
12c
100
AcDbEntity
  8
Layer_1
 62
7
100
AcDbSpline
 70
8
 71
3
 72
8
 73
4
 74
0
 40
0
 40
0
 40
0
 40
0
 40
1
 40
1
 40
1
 40
1
 10
105.533170
 20
32.564510
 30
0.0
 10
106.343600
 20
33.146240
 30
0.0
 10
106.866540
 20
34.445200
 30
0.0
 10
106.867830
 20
35.879740
 30
0.0
  0
SPLINE
  5
12d
100
AcDbEntity
  8
Layer_1
 62
7
100
AcDbSpline
 70
8
 71
3
 72
8
 73
4
 74
0
 40
0
 40
0
 40
0
 40
0
 40
1
 40
1
 40
1
 40
1
 10
106.867830
 20
35.879740
 30
0.0
 10
106.867240
 20
37.315120
 30
0.0
 10
106.344080
 20
38.615220
 30
0.0
 10
105.533170
 20
39.197290
 30
0.0
  0
SPLINE
  5
12e
100
AcDbEntity
  8
Layer_1
 62
7
100
AcDbSpline
 70
8
 71
3
 72
8
 73
4
 74
0
 40
0
 40
0
 40
0
 40
0
 40
1
 40
1
 40
1
 40
1
 10
105.533170
 20
39.197290
 30
0.0
 10
106.343720
 20
39.779100
 30
0.0
 10
106.866680
 20
41.078340
 30
0.0
 10
106.867830
 20
42.513100
 30
0.0
  0
SPLINE
  5
12f
100
AcDbEntity
  8
Layer_1
 62
7
100
AcDbSpline
 70
8
 71
3
 72
8
 73
4
 74
0
 40
0
 40
0
 40
0
 40
0
 40
1
 40
1
 40
1
 40
1
 10
106.867830
 20
42.513100
 30
0.0
 10
106.867240
 20
43.948470
 30
0.0
 10
106.344080
 20
45.248580
 30
0.0
 10
105.533170
 20
45.830640
 30
0.0
  0
SPLINE
  5
130
100
AcDbEntity
  8
Layer_1
 62
7
100
AcDbSpline
 70
8
 71
3
 72
8
 73
4
 74
0
 40
0
 40
0
 40
0
 40
0
 40
1
 40
1
 40
1
 40
1
 10
105.533170
 20
45.830640
 30
0.0
 10
106.343600
 20
46.412370
 30
0.0
 10
106.866540
 20
47.711330
 30
0.0
 10
106.867830
 20
49.145870
 30
0.0
  0
SPLINE
  5
131
100
AcDbEntity
  8
Layer_1
 62
7
100
AcDbSpline
 70
8
 71
3
 72
8
 73
4
 74
0
 40
0
 40
0
 40
0
 40
0
 40
1
 40
1
 40
1
 40
1
 10
106.867830
 20
49.145870
 30
0.0
 10
106.867240
 20
50.581250
 30
0.0
 10
106.344080
 20
51.881350
 30
0.0
 10
105.533170
 20
52.463420
 30
0.0
  0
SPLINE
  5
132
100
AcDbEntity
  8
Layer_1
 62
7
100
AcDbSpline
 70
8
 71
3
 72
8
 73
4
 74
0
 40
0
 40
0
 40
0
 40
0
 40
1
 40
1
 40
1
 40
1
 10
105.533170
 20
52.463420
 30
0.0
 10
106.343720
 20
53.045220
 30
0.0
 10
106.866680
 20
54.344460
 30
0.0
 10
106.867830
 20
55.779220
 30
0.0
  0
SPLINE
  5
133
100
AcDbEntity
  8
Layer_1
 62
7
100
AcDbSpline
 70
8
 71
3
 72
8
 73
4
 74
0
 40
0
 40
0
 40
0
 40
0
 40
1
 40
1
 40
1
 40
1
 10
106.867830
 20
55.779220
 30
0.0
 10
106.867240
 20
57.214600
 30
0.0
 10
106.344080
 20
58.514700
 30
0.0
 10
105.533170
 20
59.096760
 30
0.0
  0
SPLINE
  5
134
100
AcDbEntity
  8
Layer_1
 62
7
100
AcDbSpline
 70
8
 71
3
 72
8
 73
4
 74
0
 40
0
 40
0
 40
0
 40
0
 40
1
 40
1
 40
1
 40
1
 10
105.533170
 20
59.096760
 30
0.0
 10
105.790800
 20
59.281570
 30
0.0
 10
106.019480
 20
59.544260
 30
0.0
 10
106.213810
 20
59.860750
 30
0.0
  0
SPLINE
  5
135
100
AcDbEntity
  8
Layer_1
 62
7
100
AcDbSpline
 70
8
 71
3
 72
8
 73
4
 74
0
 40
0
 40
0
 40
0
 40
0
 40
1
 40
1
 40
1
 40
1
 10
106.213810
 20
59.860750
 30
0.0
 10
106.691120
 20
59.726460
 30
0.0
 10
107.209250
 20
59.656620
 30
0.0
 10
107.733680
 20
59.655860
 30
0.0
  0
SPLINE
  5
136
100
AcDbEntity
  8
Layer_1
 62
7
100
AcDbSpline
 70
8
 71
3
 72
8
 73
4
 74
0
 40
0
 40
0
 40
0
 40
0
 40
1
 40
1
 40
1
 40
1
 10
107.733680
 20
59.655860
 30
0.0
 10
109.163090
 20
59.656660
 30
0.0
 10
110.462930
 20
60.168080
 30
0.0
 10
111.069740
 20
60.967940
 30
0.0
  0
SPLINE
  5
137
100
AcDbEntity
  8
Layer_1
 62
7
100
AcDbSpline
 70
8
 71
3
 72
8
 73
4
 74
0
 40
0
 40
0
 40
0
 40
0
 40
1
 40
1
 40
1
 40
1
 10
111.069740
 20
60.967940
 30
0.0
 10
111.676560
 20
60.168080
 30
0.0
 10
112.976400
 20
59.656850
 30
0.0
 10
114.405800
 20
59.655860
 30
0.0
  0
SPLINE
  5
138
100
AcDbEntity
  8
Layer_1
 62
7
100
AcDbSpline
 70
8
 71
3
 72
8
 73
4
 74
0
 40
0
 40
0
 40
0
 40
0
 40
1
 40
1
 40
1
 40
1
 10
114.405800
 20
59.655860
 30
0.0
 10
115.835000
 20
59.657860
 30
0.0
 10
117.134570
 20
60.168190
 30
0.0
 10
117.741290
 20
60.967940
 30
0.0
  0
SPLINE
  5
139
100
AcDbEntity
  8
Layer_1
 62
7
100
AcDbSpline
 70
8
 71
3
 72
8
 73
4
 74
0
 40
0
 40
0
 40
0
 40
0
 40
1
 40
1
 40
1
 40
1
 10
117.741290
 20
60.967940
 30
0.0
 10
118.348110
 20
60.168080
 30
0.0
 10
119.647950
 20
59.656850
 30
0.0
 10
121.077360
 20
59.655860
 30
0.0
  0
SPLINE
  5
13a
100
AcDbEntity
  8
Layer_1
 62
7
100
AcDbSpline
 70
8
 71
3
 72
8
 73
4
 74
0
 40
0
 40
0
 40
0
 40
0
 40
1
 40
1
 40
1
 40
1
 10
121.077360
 20
59.655860
 30
0.0
 10
122.506560
 20
59.657860
 30
0.0
 10
123.806120
 20
60.168200
 30
0.0
 10
124.412840
 20
60.967940
 30
0.0
  0
SPLINE
  5
13b
100
AcDbEntity
  8
Layer_1
 62
7
100
AcDbSpline
 70
8
 71
3
 72
8
 73
4
 74
0
 40
0
 40
0
 40
0
 40
0
 40
1
 40
1
 40
1
 40
1
 10
124.412840
 20
60.967940
 30
0.0
 10
125.019660
 20
60.168080
 30
0.0
 10
126.319500
 20
59.656850
 30
0.0
 10
127.748910
 20
59.655860
 30
0.0
  0
SPLINE
  5
13c
100
AcDbEntity
  8
Layer_1
 62
7
100
AcDbSpline
 70
8
 71
3
 72
8
 73
4
 74
0
 40
0
 40
0
 40
0
 40
0
 40
1
 40
1
 40
1
 40
1
 10
127.748910
 20
59.655860
 30
0.0
 10
129.178320
 20
59.656660
 30
0.0
 10
130.478160
 20
60.168080
 30
0.0
 10
131.084980
 20
60.967940
 30
0.0
  0
SPLINE
  5
13d
100
AcDbEntity
  8
Layer_1
 62
7
100
AcDbSpline
 70
8
 71
3
 72
8
 73
4
 74
0
 40
0
 40
0
 40
0
 40
0
 40
1
 40
1
 40
1
 40
1
 10
131.084980
 20
60.967940
 30
0.0
 10
131.691800
 20
60.168080
 30
0.0
 10
132.991640
 20
59.656850
 30
0.0
 10
134.421040
 20
59.655860
 30
0.0
  0
SPLINE
  5
13e
100
AcDbEntity
  8
Layer_1
 62
7
100
AcDbSpline
 70
8
 71
3
 72
8
 73
4
 74
0
 40
0
 40
0
 40
0
 40
0
 40
1
 40
1
 40
1
 40
1
 10
134.421040
 20
59.655860
 30
0.0
 10
135.850240
 20
59.657860
 30
0.0
 10
137.149800
 20
60.168190
 30
0.0
 10
137.756530
 20
60.967940
 30
0.0
  0
SPLINE
  5
13f
100
AcDbEntity
  8
Layer_1
 62
7
100
AcDbSpline
 70
8
 71
3
 72
8
 73
4
 74
0
 40
0
 40
0
 40
0
 40
0
 40
1
 40
1
 40
1
 40
1
 10
137.756530
 20
60.967940
 30
0.0
 10
138.363340
 20
60.168080
 30
0.0
 10
139.663180
 20
59.656850
 30
0.0
 10
141.092600
 20
59.655860
 30
0.0
  0
SPLINE
  5
140
100
AcDbEntity
  8
Layer_1
 62
7
100
AcDbSpline
 70
8
 71
3
 72
8
 73
4
 74
0
 40
0
 40
0
 40
0
 40
0
 40
1
 40
1
 40
1
 40
1
 10
141.092600
 20
59.655860
 30
0.0
 10
142.522640
 20
59.657860
 30
0.0
 10
143.822880
 20
60.168660
 30
0.0
 10
144.429240
 20
60.969100
 30
0.0
  0
SPLINE
  5
141
100
AcDbEntity
  8
Layer_1
 62
7
100
AcDbSpline
 70
8
 71
3
 72
8
 73
4
 74
0
 40
0
 40
0
 40
0
 40
0
 40
1
 40
1
 40
1
 40
1
 10
144.429240
 20
60.969100
 30
0.0
 10
145.035330
 20
60.169020
 30
0.0
 10
146.334730
 20
59.657340
 30
0.0
 10
147.764150
 20
59.655860
 30
0.0
  0
SPLINE
  5
142
100
AcDbEntity
  8
Layer_1
 62
7
100
AcDbSpline
 70
8
 71
3
 72
8
 73
4
 74
0
 40
0
 40
0
 40
0
 40
0
 40
1
 40
1
 40
1
 40
1
 10
147.764150
 20
59.655860
 30
0.0
 10
149.193560
 20
59.656660
 30
0.0
 10
150.493400
 20
60.168080
 30
0.0
 10
151.100210
 20
60.967940
 30
0.0
  0
SPLINE
  5
143
100
AcDbEntity
  8
Layer_1
 62
7
100
AcDbSpline
 70
8
 71
3
 72
8
 73
4
 74
0
 40
0
 40
0
 40
0
 40
0
 40
1
 40
1
 40
1
 40
1
 10
151.100210
 20
60.967940
 30
0.0
 10
151.706940
 20
60.168190
 30
0.0
 10
153.006500
 20
59.656980
 30
0.0
 10
154.435700
 20
59.655860
 30
0.0
  0
SPLINE
  5
144
100
AcDbEntity
  8
Layer_1
 62
7
100
AcDbSpline
 70
8
 71
3
 72
8
 73
4
 74
0
 40
0
 40
0
 40
0
 40
0
 40
1
 40
1
 40
1
 40
1
 10
154.435700
 20
59.655860
 30
0.0
 10
155.865110
 20
59.656660
 30
0.0
 10
157.164950
 20
60.168080
 30
0.0
 10
157.771760
 20
60.967940
 30
0.0
  0
SPLINE
  5
145
100
AcDbEntity
  8
Layer_1
 62
7
100
AcDbSpline
 70
8
 71
3
 72
8
 73
4
 74
0
 40
0
 40
0
 40
0
 40
0
 40
1
 40
1
 40
1
 40
1
 10
157.771760
 20
60.967940
 30
0.0
 10
158.378580
 20
60.168080
 30
0.0
 10
159.678420
 20
59.656850
 30
0.0
 10
161.107830
 20
59.655860
 30
0.0
  0
SPLINE
  5
146
100
AcDbEntity
  8
Layer_1
 62
7
100
AcDbSpline
 70
8
 71
3
 72
8
 73
4
 74
0
 40
0
 40
0
 40
0
 40
0
 40
1
 40
1
 40
1
 40
1
 10
161.107830
 20
59.655860
 30
0.0
 10
162.537030
 20
59.657860
 30
0.0
 10
163.836590
 20
60.168190
 30
0.0
 10
164.443320
 20
60.967940
 30
0.0
  0
SPLINE
  5
147
100
AcDbEntity
  8
Layer_1
 62
7
100
AcDbSpline
 70
8
 71
3
 72
8
 73
4
 74
0
 40
0
 40
0
 40
0
 40
0
 40
1
 40
1
 40
1
 40
1
 10
164.443320
 20
60.967940
 30
0.0
 10
165.050130
 20
60.168080
 30
0.0
 10
166.349970
 20
59.656850
 30
0.0
 10
167.779380
 20
59.655860
 30
0.0
  0
SPLINE
  5
148
100
AcDbEntity
  8
Layer_1
 62
7
100
AcDbSpline
 70
8
 71
3
 72
8
 73
4
 74
0
 40
0
 40
0
 40
0
 40
0
 40
1
 40
1
 40
1
 40
1
 10
167.779380
 20
59.655860
 30
0.0
 10
169.208800
 20
59.656660
 30
0.0
 10
170.508640
 20
60.168080
 30
0.0
 10
171.115440
 20
60.967940
 30
0.0
  0
SPLINE
  5
149
100
AcDbEntity
  8
Layer_1
 62
7
100
AcDbSpline
 70
8
 71
3
 72
8
 73
4
 74
0
 40
0
 40
0
 40
0
 40
0
 40
1
 40
1
 40
1
 40
1
 10
171.115440
 20
60.967940
 30
0.0
 10
171.722170
 20
60.168190
 30
0.0
 10
173.021730
 20
59.656980
 30
0.0
 10
174.450930
 20
59.655860
 30
0.0
  0
SPLINE
  5
14a
100
AcDbEntity
  8
Layer_1
 62
7
100
AcDbSpline
 70
8
 71
3
 72
8
 73
4
 74
0
 40
0
 40
0
 40
0
 40
0
 40
1
 40
1
 40
1
 40
1
 10
174.450930
 20
59.655860
 30
0.0
 10
175.880340
 20
59.656660
 30
0.0
 10
177.180180
 20
60.168080
 30
0.0
 10
177.787000
 20
60.967940
 30
0.0
  0
SPLINE
  5
14b
100
AcDbEntity
  8
Layer_1
 62
7
100
AcDbSpline
 70
8
 71
3
 72
8
 73
4
 74
0
 40
0
 40
0
 40
0
 40
0
 40
1
 40
1
 40
1
 40
1
 10
177.787000
 20
60.967940
 30
0.0
 10
178.393810
 20
60.168080
 30
0.0
 10
179.693650
 20
59.656850
 30
0.0
 10
181.123060
 20
59.655860
 30
0.0
  0
SPLINE
  5
14c
100
AcDbEntity
  8
Layer_1
 62
7
100
AcDbSpline
 70
8
 71
3
 72
8
 73
4
 74
0
 40
0
 40
0
 40
0
 40
0
 40
1
 40
1
 40
1
 40
1
 10
181.123060
 20
59.655860
 30
0.0
 10
182.552900
 20
59.657860
 30
0.0
 10
183.852850
 20
60.168780
 30
0.0
 10
184.459120
 20
60.969100
 30
0.0
  0
SPLINE
  5
14d
100
AcDbEntity
  8
Layer_1
 62
7
100
AcDbSpline
 70
8
 71
3
 72
8
 73
4
 74
0
 40
0
 40
0
 40
0
 40
0
 40
1
 40
1
 40
1
 40
1
 10
184.459120
 20
60.969100
 30
0.0
 10
185.065310
 20
60.168900
 30
0.0
 10
186.364980
 20
59.657200
 30
0.0
 10
187.794610
 20
59.655860
 30
0.0
  0
SPLINE
  5
14e
100
AcDbEntity
  8
Layer_1
 62
7
100
AcDbSpline
 70
8
 71
3
 72
8
 73
4
 74
0
 40
0
 40
0
 40
0
 40
0
 40
1
 40
1
 40
1
 40
1
 10
187.794610
 20
59.655860
 30
0.0
 10
189.223810
 20
59.657860
 30
0.0
 10
190.523370
 20
60.168190
 30
0.0
 10
191.130100
 20
60.967940
 30
0.0
  0
SPLINE
  5
14f
100
AcDbEntity
  8
Layer_1
 62
7
100
AcDbSpline
 70
8
 71
3
 72
8
 73
4
 74
0
 40
0
 40
0
 40
0
 40
0
 40
1
 40
1
 40
1
 40
1
 10
191.130100
 20
60.967940
 30
0.0
 10
191.736920
 20
60.168080
 30
0.0
 10
193.036760
 20
59.656850
 30
0.0
 10
194.466160
 20
59.655860
 30
0.0
  0
SPLINE
  5
150
100
AcDbEntity
  8
Layer_1
 62
7
100
AcDbSpline
 70
8
 71
3
 72
8
 73
4
 74
0
 40
0
 40
0
 40
0
 40
0
 40
1
 40
1
 40
1
 40
1
 10
194.466160
 20
59.655860
 30
0.0
 10
195.895580
 20
59.656660
 30
0.0
 10
197.195420
 20
60.168080
 30
0.0
 10
197.802230
 20
60.967940
 30
0.0
  0
SPLINE
  5
151
100
AcDbEntity
  8
Layer_1
 62
7
100
AcDbSpline
 70
8
 71
3
 72
8
 73
4
 74
0
 40
0
 40
0
 40
0
 40
0
 40
1
 40
1
 40
1
 40
1
 10
197.802230
 20
60.967940
 30
0.0
 10
198.409040
 20
60.168080
 30
0.0
 10
199.708880
 20
59.656850
 30
0.0
 10
201.138290
 20
59.655860
 30
0.0
  0
SPLINE
  5
152
100
AcDbEntity
  8
Layer_1
 62
7
100
AcDbSpline
 70
8
 71
3
 72
8
 73
4
 74
0
 40
0
 40
0
 40
0
 40
0
 40
1
 40
1
 40
1
 40
1
 10
201.138290
 20
59.655860
 30
0.0
 10
202.567490
 20
59.657860
 30
0.0
 10
203.867050
 20
60.168190
 30
0.0
 10
204.473780
 20
60.967940
 30
0.0
  0
SPLINE
  5
153
100
AcDbEntity
  8
Layer_1
 62
7
100
AcDbSpline
 70
8
 71
3
 72
8
 73
4
 74
0
 40
0
 40
0
 40
0
 40
0
 40
1
 40
1
 40
1
 40
1
 10
204.473780
 20
60.967940
 30
0.0
 10
205.080600
 20
60.168080
 30
0.0
 10
206.380440
 20
59.656850
 30
0.0
 10
207.809840
 20
59.655860
 30
0.0
  0
SPLINE
  5
154
100
AcDbEntity
  8
Layer_1
 62
7
100
AcDbSpline
 70
8
 71
3
 72
8
 73
4
 74
0
 40
0
 40
0
 40
0
 40
0
 40
1
 40
1
 40
1
 40
1
 10
207.809840
 20
59.655860
 30
0.0
 10
209.239040
 20
59.657860
 30
0.0
 10
210.538600
 20
60.168190
 30
0.0
 10
211.145330
 20
60.967940
 30
0.0
  0
SPLINE
  5
155
100
AcDbEntity
  8
Layer_1
 62
7
100
AcDbSpline
 70
8
 71
3
 72
8
 73
4
 74
0
 40
0
 40
0
 40
0
 40
0
 40
1
 40
1
 40
1
 40
1
 10
211.145330
 20
60.967940
 30
0.0
 10
211.752150
 20
60.168080
 30
0.0
 10
213.051990
 20
59.656850
 30
0.0
 10
214.481400
 20
59.655860
 30
0.0
  0
SPLINE
  5
156
100
AcDbEntity
  8
Layer_1
 62
7
100
AcDbSpline
 70
8
 71
3
 72
8
 73
4
 74
0
 40
0
 40
0
 40
0
 40
0
 40
1
 40
1
 40
1
 40
1
 10
214.481400
 20
59.655860
 30
0.0
 10
215.910800
 20
59.656660
 30
0.0
 10
217.210640
 20
60.168080
 30
0.0
 10
217.817460
 20
60.967940
 30
0.0
  0
SPLINE
  5
157
100
AcDbEntity
  8
Layer_1
 62
7
100
AcDbSpline
 70
8
 71
3
 72
8
 73
4
 74
0
 40
0
 40
0
 40
0
 40
0
 40
1
 40
1
 40
1
 40
1
 10
217.817460
 20
60.967940
 30
0.0
 10
218.424190
 20
60.168190
 30
0.0
 10
219.723750
 20
59.656980
 30
0.0
 10
221.152950
 20
59.655860
 30
0.0
  0
SPLINE
  5
158
100
AcDbEntity
  8
Layer_1
 62
7
100
AcDbSpline
 70
8
 71
3
 72
8
 73
4
 74
0
 40
0
 40
0
 40
0
 40
0
 40
1
 40
1
 40
1
 40
1
 10
221.152950
 20
59.655860
 30
0.0
 10
222.543680
 20
59.656660
 30
0.0
 10
223.815370
 20
60.141050
 30
0.0
 10
224.442130
 20
60.908340
 30
0.0
  0
SPLINE
  5
159
100
AcDbEntity
  8
Layer_1
 62
7
100
AcDbSpline
 70
8
 71
3
 72
8
 73
4
 74
0
 40
0
 40
0
 40
0
 40
0
 40
1
 40
1
 40
1
 40
1
 10
224.442130
 20
60.908340
 30
0.0
 10
224.923630
 20
60.140870
 30
0.0
 10
225.900670
 20
59.656600
 30
0.0
 10
226.969070
 20
59.655860
 30
0.0
  0
SPLINE
  5
15a
100
AcDbEntity
  8
Layer_1
 62
7
100
AcDbSpline
 70
8
 71
3
 72
8
 73
4
 74
0
 40
0
 40
0
 40
0
 40
0
 40
1
 40
1
 40
1
 40
1
 10
226.969070
 20
59.655860
 30
0.0
 10
228.533930
 20
59.655740
 30
0.0
 10
229.802620
 20
60.676450
 30
0.0
 10
229.802760
 20
61.935660
 30
0.0
  0
SPLINE
  5
15b
100
AcDbEntity
  8
Layer_1
 62
7
100
AcDbSpline
 70
8
 71
3
 72
8
 73
4
 74
0
 40
0
 40
0
 40
0
 40
0
 40
1
 40
1
 40
1
 40
1
 10
229.802760
 20
61.935660
 30
0.0
 10
229.801960
 20
62.419860
 30
0.0
 10
229.608730
 20
62.891170
 30
0.0
 10
229.252340
 20
63.281310
 30
0.0
  0
SPLINE
  5
15c
100
AcDbEntity
  8
Layer_1
 62
7
100
AcDbSpline
 70
8
 71
3
 72
8
 73
4
 74
0
 40
0
 40
0
 40
0
 40
0
 40
1
 40
1
 40
1
 40
1
 10
229.252340
 20
63.281310
 30
0.0
 10
230.492080
 20
63.281900
 30
0.0
 10
231.496970
 20
64.908220
 30
0.0
 10
231.496840
 20
66.914290
 30
0.0
  0
SPLINE
  5
15d
100
AcDbEntity
  8
Layer_1
 62
7
100
AcDbSpline
 70
8
 71
3
 72
8
 73
4
 74
0
 40
0
 40
0
 40
0
 40
0
 40
1
 40
1
 40
1
 40
1
 10
231.496840
 20
66.914290
 30
0.0
 10
231.496240
 20
68.349670
 30
0.0
 10
230.973080
 20
69.649780
 30
0.0
 10
230.162180
 20
70.231840
 30
0.0
  0
SPLINE
  5
15e
100
AcDbEntity
  8
Layer_1
 62
7
100
AcDbSpline
 70
8
 71
3
 72
8
 73
4
 74
0
 40
0
 40
0
 40
0
 40
0
 40
1
 40
1
 40
1
 40
1
 10
230.162180
 20
70.231840
 30
0.0
 10
230.972610
 20
70.813560
 30
0.0
 10
231.495550
 20
72.112530
 30
0.0
 10
231.496840
 20
73.547060
 30
0.0
  0
SPLINE
  5
15f
100
AcDbEntity
  8
Layer_1
 62
7
100
AcDbSpline
 70
8
 71
3
 72
8
 73
4
 74
0
 40
0
 40
0
 40
0
 40
0
 40
1
 40
1
 40
1
 40
1
 10
231.496840
 20
73.547060
 30
0.0
 10
231.496240
 20
74.982450
 30
0.0
 10
230.973080
 20
76.282540
 30
0.0
 10
230.162180
 20
76.864610
 30
0.0
  0
SPLINE
  5
160
100
AcDbEntity
  8
Layer_1
 62
7
100
AcDbSpline
 70
8
 71
3
 72
8
 73
4
 74
0
 40
0
 40
0
 40
0
 40
0
 40
1
 40
1
 40
1
 40
1
 10
230.162180
 20
76.864610
 30
0.0
 10
230.972720
 20
77.446420
 30
0.0
 10
231.495680
 20
78.745660
 30
0.0
 10
231.496840
 20
80.180420
 30
0.0
  0
SPLINE
  5
161
100
AcDbEntity
  8
Layer_1
 62
7
100
AcDbSpline
 70
8
 71
3
 72
8
 73
4
 74
0
 40
0
 40
0
 40
0
 40
0
 40
1
 40
1
 40
1
 40
1
 10
231.496840
 20
80.180420
 30
0.0
 10
231.496240
 20
81.615800
 30
0.0
 10
230.973080
 20
82.915900
 30
0.0
 10
230.162180
 20
83.497960
 30
0.0
  0
SPLINE
  5
162
100
AcDbEntity
  8
Layer_1
 62
7
100
AcDbSpline
 70
8
 71
3
 72
8
 73
4
 74
0
 40
0
 40
0
 40
0
 40
0
 40
1
 40
1
 40
1
 40
1
 10
230.162180
 20
83.497960
 30
0.0
 10
230.972610
 20
84.079690
 30
0.0
 10
231.495550
 20
85.378650
 30
0.0
 10
231.496840
 20
86.813190
 30
0.0
  0
SPLINE
  5
163
100
AcDbEntity
  8
Layer_1
 62
7
100
AcDbSpline
 70
8
 71
3
 72
8
 73
4
 74
0
 40
0
 40
0
 40
0
 40
0
 40
1
 40
1
 40
1
 40
1
 10
231.496840
 20
86.813190
 30
0.0
 10
231.496040
 20
88.248800
 30
0.0
 10
230.972720
 20
89.548950
 30
0.0
 10
230.161600
 20
90.130740
 30
0.0
  0
SPLINE
  5
164
100
AcDbEntity
  8
Layer_1
 62
7
100
AcDbSpline
 70
8
 71
3
 72
8
 73
4
 74
0
 40
0
 40
0
 40
0
 40
0
 40
1
 40
1
 40
1
 40
1
 10
230.161600
 20
90.130740
 30
0.0
 10
230.972370
 20
90.712270
 30
0.0
 10
231.495590
 20
92.011570
 30
0.0
 10
231.496840
 20
93.446540
 30
0.0
  0
SPLINE
  5
165
100
AcDbEntity
  8
Layer_1
 62
7
100
AcDbSpline
 70
8
 71
3
 72
8
 73
4
 74
0
 40
0
 40
0
 40
0
 40
0
 40
1
 40
1
 40
1
 40
1
 10
231.496840
 20
93.446540
 30
0.0
 10
231.496240
 20
94.881930
 30
0.0
 10
230.973080
 20
96.182020
 30
0.0
 10
230.162180
 20
96.764090
 30
0.0
  0
SPLINE
  5
166
100
AcDbEntity
  8
Layer_1
 62
7
100
AcDbSpline
 70
8
 71
3
 72
8
 73
4
 74
0
 40
0
 40
0
 40
0
 40
0
 40
1
 40
1
 40
1
 40
1
 10
230.162180
 20
96.764090
 30
0.0
 10
230.972720
 20
97.345900
 30
0.0
 10
231.495680
 20
98.645140
 30
0.0
 10
231.496840
 20
100.079900
 30
0.0
  0
SPLINE
  5
167
100
AcDbEntity
  8
Layer_1
 62
7
100
AcDbSpline
 70
8
 71
3
 72
8
 73
4
 74
0
 40
0
 40
0
 40
0
 40
0
 40
1
 40
1
 40
1
 40
1
 10
231.496840
 20
100.079900
 30
0.0
 10
231.496040
 20
101.515500
 30
0.0
 10
230.972720
 20
102.815660
 30
0.0
 10
230.161600
 20
103.397440
 30
0.0
  0
SPLINE
  5
168
100
AcDbEntity
  8
Layer_1
 62
7
100
AcDbSpline
 70
8
 71
3
 72
8
 73
4
 74
0
 40
0
 40
0
 40
0
 40
0
 40
1
 40
1
 40
1
 40
1
 10
230.161600
 20
103.397440
 30
0.0
 10
230.972250
 20
103.978890
 30
0.0
 10
231.495440
 20
105.277900
 30
0.0
 10
231.496840
 20
106.712670
 30
0.0
  0
SPLINE
  5
169
100
AcDbEntity
  8
Layer_1
 62
7
100
AcDbSpline
 70
8
 71
3
 72
8
 73
4
 74
0
 40
0
 40
0
 40
0
 40
0
 40
1
 40
1
 40
1
 40
1
 10
231.496840
 20
106.712670
 30
0.0
 10
231.496240
 20
108.148050
 30
0.0
 10
230.973080
 20
109.448150
 30
0.0
 10
230.162180
 20
110.030220
 30
0.0
  0
SPLINE
  5
16a
100
AcDbEntity
  8
Layer_1
 62
7
100
AcDbSpline
 70
8
 71
3
 72
8
 73
4
 74
0
 40
0
 40
0
 40
0
 40
0
 40
1
 40
1
 40
1
 40
1
 10
230.162180
 20
110.030220
 30
0.0
 10
230.972720
 20
110.612030
 30
0.0
 10
231.495690
 20
111.911270
 30
0.0
 10
231.496840
 20
113.346020
 30
0.0
  0
SPLINE
  5
16b
100
AcDbEntity
  8
Layer_1
 62
7
100
AcDbSpline
 70
8
 71
3
 72
8
 73
4
 74
0
 40
0
 40
0
 40
0
 40
0
 40
1
 40
1
 40
1
 40
1
 10
231.496840
 20
113.346020
 30
0.0
 10
231.496240
 20
114.781400
 30
0.0
 10
230.973080
 20
116.081500
 30
0.0
 10
230.162180
 20
116.663570
 30
0.0
  0
SPLINE
  5
16c
100
AcDbEntity
  8
Layer_1
 62
7
100
AcDbSpline
 70
8
 71
3
 72
8
 73
4
 74
0
 40
0
 40
0
 40
0
 40
0
 40
1
 40
1
 40
1
 40
1
 10
230.162180
 20
116.663570
 30
0.0
 10
230.972610
 20
117.245300
 30
0.0
 10
231.495550
 20
118.544260
 30
0.0
 10
231.496840
 20
119.978800
 30
0.0
  0
SPLINE
  5
16d
100
AcDbEntity
  8
Layer_1
 62
7
100
AcDbSpline
 70
8
 71
3
 72
8
 73
4
 74
0
 40
0
 40
0
 40
0
 40
0
 40
1
 40
1
 40
1
 40
1
 10
231.496840
 20
119.978800
 30
0.0
 10
231.496240
 20
121.414180
 30
0.0
 10
230.973080
 20
122.714280
 30
0.0
 10
230.162180
 20
123.296340
 30
0.0
  0
SPLINE
  5
16e
100
AcDbEntity
  8
Layer_1
 62
7
100
AcDbSpline
 70
8
 71
3
 72
8
 73
4
 74
0
 40
0
 40
0
 40
0
 40
0
 40
1
 40
1
 40
1
 40
1
 10
230.162180
 20
123.296340
 30
0.0
 10
230.972720
 20
123.878160
 30
0.0
 10
231.495680
 20
125.177390
 30
0.0
 10
231.496840
 20
126.612140
 30
0.0
  0
SPLINE
  5
16f
100
AcDbEntity
  8
Layer_1
 62
7
100
AcDbSpline
 70
8
 71
3
 72
8
 73
4
 74
0
 40
0
 40
0
 40
0
 40
0
 40
1
 40
1
 40
1
 40
1
 10
231.496840
 20
126.612140
 30
0.0
 10
231.496240
 20
128.047530
 30
0.0
 10
230.973080
 20
129.347620
 30
0.0
 10
230.162180
 20
129.929690
 30
0.0
  0
SPLINE
  5
170
100
AcDbEntity
  8
Layer_1
 62
7
100
AcDbSpline
 70
8
 71
3
 72
8
 73
4
 74
0
 40
0
 40
0
 40
0
 40
0
 40
1
 40
1
 40
1
 40
1
 10
230.162180
 20
129.929690
 30
0.0
 10
230.972610
 20
130.511420
 30
0.0
 10
231.495550
 20
131.810380
 30
0.0
 10
231.496840
 20
133.244920
 30
0.0
  0
SPLINE
  5
171
100
AcDbEntity
  8
Layer_1
 62
7
100
AcDbSpline
 70
8
 71
3
 72
8
 73
4
 74
0
 40
0
 40
0
 40
0
 40
0
 40
1
 40
1
 40
1
 40
1
 10
231.496840
 20
133.244920
 30
0.0
 10
231.496240
 20
134.680310
 30
0.0
 10
230.973080
 20
135.980400
 30
0.0
 10
230.162180
 20
136.562460
 30
0.0
  0
SPLINE
  5
172
100
AcDbEntity
  8
Layer_1
 62
7
100
AcDbSpline
 70
8
 71
3
 72
8
 73
4
 74
0
 40
0
 40
0
 40
0
 40
0
 40
1
 40
1
 40
1
 40
1
 10
230.162180
 20
136.562460
 30
0.0
 10
230.972720
 20
137.144290
 30
0.0
 10
231.495680
 20
138.443520
 30
0.0
 10
231.496840
 20
139.878270
 30
0.0
  0
SPLINE
  5
173
100
AcDbEntity
  8
Layer_1
 62
7
100
AcDbSpline
 70
8
 71
3
 72
8
 73
4
 74
0
 40
0
 40
0
 40
0
 40
0
 40
1
 40
1
 40
1
 40
1
 10
231.496840
 20
139.878270
 30
0.0
 10
231.496240
 20
141.313660
 30
0.0
 10
230.973080
 20
142.613750
 30
0.0
 10
230.162180
 20
143.195820
 30
0.0
  0
SPLINE
  5
174
100
AcDbEntity
  8
Layer_1
 62
7
100
AcDbSpline
 70
8
 71
3
 72
8
 73
4
 74
0
 40
0
 40
0
 40
0
 40
0
 40
1
 40
1
 40
1
 40
1
 10
230.162180
 20
143.195820
 30
0.0
 10
230.972720
 20
143.777630
 30
0.0
 10
231.495680
 20
145.076870
 30
0.0
 10
231.496840
 20
146.511620
 30
0.0
  0
SPLINE
  5
175
100
AcDbEntity
  8
Layer_1
 62
7
100
AcDbSpline
 70
8
 71
3
 72
8
 73
4
 74
0
 40
0
 40
0
 40
0
 40
0
 40
1
 40
1
 40
1
 40
1
 10
231.496840
 20
146.511620
 30
0.0
 10
231.496040
 20
147.947240
 30
0.0
 10
230.972730
 20
149.247380
 30
0.0
 10
230.161600
 20
149.829170
 30
0.0
  0
SPLINE
  5
176
100
AcDbEntity
  8
Layer_1
 62
7
100
AcDbSpline
 70
8
 71
3
 72
8
 73
4
 74
0
 40
0
 40
0
 40
0
 40
0
 40
1
 40
1
 40
1
 40
1
 10
230.161600
 20
149.829170
 30
0.0
 10
230.972250
 20
150.410620
 30
0.0
 10
231.495440
 20
151.709650
 30
0.0
 10
231.496840
 20
153.144400
 30
0.0
  0
SPLINE
  5
177
100
AcDbEntity
  8
Layer_1
 62
7
100
AcDbSpline
 70
8
 71
3
 72
8
 73
4
 74
0
 40
0
 40
0
 40
0
 40
0
 40
1
 40
1
 40
1
 40
1
 10
231.496840
 20
153.144400
 30
0.0
 10
231.496240
 20
154.579790
 30
0.0
 10
230.973080
 20
155.879880
 30
0.0
 10
230.162180
 20
156.461940
 30
0.0
  0
SPLINE
  5
178
100
AcDbEntity
  8
Layer_1
 62
7
100
AcDbSpline
 70
8
 71
3
 72
8
 73
4
 74
0
 40
0
 40
0
 40
0
 40
0
 40
1
 40
1
 40
1
 40
1
 10
230.162180
 20
156.461940
 30
0.0
 10
230.972720
 20
157.043760
 30
0.0
 10
231.495680
 20
158.343000
 30
0.0
 10
231.496840
 20
159.777750
 30
0.0
  0
SPLINE
  5
179
100
AcDbEntity
  8
Layer_1
 62
7
100
AcDbSpline
 70
8
 71
3
 72
8
 73
4
 74
0
 40
0
 40
0
 40
0
 40
0
 40
1
 40
1
 40
1
 40
1
 10
231.496840
 20
159.777750
 30
0.0
 10
231.496040
 20
161.213350
 30
0.0
 10
230.972720
 20
162.513510
 30
0.0
 10
230.161600
 20
163.095300
 30
0.0
  0
SPLINE
  5
17a
100
AcDbEntity
  8
Layer_1
 62
7
100
AcDbSpline
 70
8
 71
3
 72
8
 73
4
 74
0
 40
0
 40
0
 40
0
 40
0
 40
1
 40
1
 40
1
 40
1
 10
230.161600
 20
163.095300
 30
0.0
 10
230.972250
 20
163.676740
 30
0.0
 10
231.495440
 20
164.975760
 30
0.0
 10
231.496840
 20
166.410530
 30
0.0
  0
SPLINE
  5
17b
100
AcDbEntity
  8
Layer_1
 62
7
100
AcDbSpline
 70
8
 71
3
 72
8
 73
4
 74
0
 40
0
 40
0
 40
0
 40
0
 40
1
 40
1
 40
1
 40
1
 10
231.496840
 20
166.410530
 30
0.0
 10
231.496240
 20
167.845900
 30
0.0
 10
230.973080
 20
169.146010
 30
0.0
 10
230.162180
 20
169.728070
 30
0.0
  0
SPLINE
  5
17c
100
AcDbEntity
  8
Layer_1
 62
7
100
AcDbSpline
 70
8
 71
3
 72
8
 73
4
 74
0
 40
0
 40
0
 40
0
 40
0
 40
1
 40
1
 40
1
 40
1
 10
230.162180
 20
169.728070
 30
0.0
 10
230.972720
 20
170.309890
 30
0.0
 10
231.495690
 20
171.609120
 30
0.0
 10
231.496840
 20
173.043870
 30
0.0
  0
SPLINE
  5
17d
100
AcDbEntity
  8
Layer_1
 62
7
100
AcDbSpline
 70
8
 71
3
 72
8
 73
4
 74
0
 40
0
 40
0
 40
0
 40
0
 40
1
 40
1
 40
1
 40
1
 10
231.496840
 20
173.043870
 30
0.0
 10
231.496240
 20
174.479260
 30
0.0
 10
230.973080
 20
175.779350
 30
0.0
 10
230.162180
 20
176.361420
 30
0.0
  0
SPLINE
  5
17e
100
AcDbEntity
  8
Layer_1
 62
7
100
AcDbSpline
 70
8
 71
3
 72
8
 73
4
 74
0
 40
0
 40
0
 40
0
 40
0
 40
1
 40
1
 40
1
 40
1
 10
230.162180
 20
176.361420
 30
0.0
 10
230.972610
 20
176.943150
 30
0.0
 10
231.495550
 20
178.242100
 30
0.0
 10
231.496840
 20
179.676650
 30
0.0
  0
SPLINE
  5
17f
100
AcDbEntity
  8
Layer_1
 62
7
100
AcDbSpline
 70
8
 71
3
 72
8
 73
4
 74
0
 40
0
 40
0
 40
0
 40
0
 40
1
 40
1
 40
1
 40
1
 10
231.496840
 20
179.676650
 30
0.0
 10
231.496240
 20
181.112040
 30
0.0
 10
230.973080
 20
182.412130
 30
0.0
 10
230.162180
 20
182.994190
 30
0.0
  0
SPLINE
  5
180
100
AcDbEntity
  8
Layer_1
 62
7
100
AcDbSpline
 70
8
 71
3
 72
8
 73
4
 74
0
 40
0
 40
0
 40
0
 40
0
 40
1
 40
1
 40
1
 40
1
 10
230.162180
 20
182.994190
 30
0.0
 10
230.972720
 20
183.576020
 30
0.0
 10
231.495680
 20
184.875250
 30
0.0
 10
231.496840
 20
186.310000
 30
0.0
  0
SPLINE
  5
181
100
AcDbEntity
  8
Layer_1
 62
7
100
AcDbSpline
 70
8
 71
3
 72
8
 73
4
 74
0
 40
0
 40
0
 40
0
 40
0
 40
1
 40
1
 40
1
 40
1
 10
231.496840
 20
186.310000
 30
0.0
 10
231.496240
 20
187.745380
 30
0.0
 10
230.973080
 20
189.045480
 30
0.0
 10
230.162180
 20
189.627540
 30
0.0
  0
SPLINE
  5
182
100
AcDbEntity
  8
Layer_1
 62
7
100
AcDbSpline
 70
8
 71
3
 72
8
 73
4
 74
0
 40
0
 40
0
 40
0
 40
0
 40
1
 40
1
 40
1
 40
1
 10
230.162180
 20
189.627540
 30
0.0
 10
230.972610
 20
190.209270
 30
0.0
 10
231.495550
 20
191.508230
 30
0.0
 10
231.496840
 20
192.942780
 30
0.0
  0
SPLINE
  5
183
100
AcDbEntity
  8
Layer_1
 62
7
100
AcDbSpline
 70
8
 71
3
 72
8
 73
4
 74
0
 40
0
 40
0
 40
0
 40
0
 40
1
 40
1
 40
1
 40
1
 10
231.496840
 20
192.942780
 30
0.0
 10
231.496960
 20
194.838620
 30
0.0
 10
228.026080
 20
197.436241
 30
0.0
 10
227.110290
 20
197.436393
 30
0.0
  0
SPLINE
  5
184
100
AcDbEntity
  8
Layer_1
 62
7
100
AcDbSpline
 70
8
 71
3
 72
8
 73
4
 74
0
 40
0
 40
0
 40
0
 40
0
 40
1
 40
1
 40
1
 40
1
 10
227.110290
 20
197.436393
 30
0.0
 10
225.984200
 20
197.435593
 30
0.0
 10
224.955470
 20
196.946900
 30
0.0
 10
224.452550
 20
196.174660
 30
0.0
  0
SPLINE
  5
185
100
AcDbEntity
  8
Layer_1
 62
7
100
AcDbSpline
 70
8
 71
3
 72
8
 73
4
 74
0
 40
0
 40
0
 40
0
 40
0
 40
1
 40
1
 40
1
 40
1
 10
224.452550
 20
196.174660
 30
0.0
 10
223.828280
 20
196.947620
 30
0.0
 10
222.550760
 20
197.436121
 30
0.0
 10
221.152950
 20
197.436393
 30
0.0
  0
SPLINE
  5
186
100
AcDbEntity
  8
Layer_1
 62
7
100
AcDbSpline
 70
8
 71
3
 72
8
 73
4
 74
0
 40
0
 40
0
 40
0
 40
0
 40
1
 40
1
 40
1
 40
1
 10
221.152950
 20
197.436393
 30
0.0
 10
219.723740
 20
197.434793
 30
0.0
 10
218.424400
 20
196.923590
 30
0.0
 10
217.818040
 20
196.123730
 30
0.0
  0
SPLINE
  5
187
100
AcDbEntity
  8
Layer_1
 62
7
100
AcDbSpline
 70
8
 71
3
 72
8
 73
4
 74
0
 40
0
 40
0
 40
0
 40
0
 40
1
 40
1
 40
1
 40
1
 10
217.818040
 20
196.123730
 30
0.0
 10
217.211410
 20
196.923940
 30
0.0
 10
215.911230
 20
197.435441
 30
0.0
 10
214.481400
 20
197.436393
 30
0.0
  0
SPLINE
  5
188
100
AcDbEntity
  8
Layer_1
 62
7
100
AcDbSpline
 70
8
 71
3
 72
8
 73
4
 74
0
 40
0
 40
0
 40
0
 40
0
 40
1
 40
1
 40
1
 40
1
 10
214.481400
 20
197.436393
 30
0.0
 10
213.052200
 20
197.435593
 30
0.0
 10
211.752640
 20
196.924060
 30
0.0
 10
211.145910
 20
196.124300
 30
0.0
  0
SPLINE
  5
189
100
AcDbEntity
  8
Layer_1
 62
7
100
AcDbSpline
 70
8
 71
3
 72
8
 73
4
 74
0
 40
0
 40
0
 40
0
 40
0
 40
1
 40
1
 40
1
 40
1
 10
211.145910
 20
196.124300
 30
0.0
 10
210.539090
 20
196.924180
 30
0.0
 10
209.239250
 20
197.435409
 30
0.0
 10
207.809840
 20
197.436393
 30
0.0
  0
SPLINE
  5
18a
100
AcDbEntity
  8
Layer_1
 62
7
100
AcDbSpline
 70
8
 71
3
 72
8
 73
4
 74
0
 40
0
 40
0
 40
0
 40
0
 40
1
 40
1
 40
1
 40
1
 10
207.809840
 20
197.436393
 30
0.0
 10
206.380430
 20
197.435593
 30
0.0
 10
205.080810
 20
196.923700
 30
0.0
 10
204.474360
 20
196.123730
 30
0.0
  0
SPLINE
  5
18b
100
AcDbEntity
  8
Layer_1
 62
7
100
AcDbSpline
 70
8
 71
3
 72
8
 73
4
 74
0
 40
0
 40
0
 40
0
 40
0
 40
1
 40
1
 40
1
 40
1
 10
204.474360
 20
196.123730
 30
0.0
 10
203.867810
 20
196.923820
 30
0.0
 10
202.567920
 20
197.435305
 30
0.0
 10
201.138290
 20
197.436393
 30
0.0
  0
SPLINE
  5
18c
100
AcDbEntity
  8
Layer_1
 62
7
100
AcDbSpline
 70
8
 71
3
 72
8
 73
4
 74
0
 40
0
 40
0
 40
0
 40
0
 40
1
 40
1
 40
1
 40
1
 10
201.138290
 20
197.436393
 30
0.0
 10
199.708880
 20
197.435593
 30
0.0
 10
198.409260
 20
196.923700
 30
0.0
 10
197.802800
 20
196.123730
 30
0.0
  0
SPLINE
  5
18d
100
AcDbEntity
  8
Layer_1
 62
7
100
AcDbSpline
 70
8
 71
3
 72
8
 73
4
 74
0
 40
0
 40
0
 40
0
 40
0
 40
1
 40
1
 40
1
 40
1
 10
197.802800
 20
196.123730
 30
0.0
 10
197.196170
 20
196.923940
 30
0.0
 10
195.896000
 20
197.435441
 30
0.0
 10
194.466160
 20
197.436393
 30
0.0
  0
SPLINE
  5
18e
100
AcDbEntity
  8
Layer_1
 62
7
100
AcDbSpline
 70
8
 71
3
 72
8
 73
4
 74
0
 40
0
 40
0
 40
0
 40
0
 40
1
 40
1
 40
1
 40
1
 10
194.466160
 20
197.436393
 30
0.0
 10
193.036960
 20
197.435593
 30
0.0
 10
191.737400
 20
196.924060
 30
0.0
 10
191.130680
 20
196.124300
 30
0.0
  0
SPLINE
  5
18f
100
AcDbEntity
  8
Layer_1
 62
7
100
AcDbSpline
 70
8
 71
3
 72
8
 73
4
 74
0
 40
0
 40
0
 40
0
 40
0
 40
1
 40
1
 40
1
 40
1
 10
191.130680
 20
196.124300
 30
0.0
 10
190.523860
 20
196.924180
 30
0.0
 10
189.224020
 20
197.435409
 30
0.0
 10
187.794610
 20
197.436393
 30
0.0
  0
SPLINE
  5
190
100
AcDbEntity
  8
Layer_1
 62
7
100
AcDbSpline
 70
8
 71
3
 72
8
 73
4
 74
0
 40
0
 40
0
 40
0
 40
0
 40
1
 40
1
 40
1
 40
1
 10
187.794610
 20
197.436393
 30
0.0
 10
186.365200
 20
197.435593
 30
0.0
 10
185.065580
 20
196.923700
 30
0.0
 10
184.459120
 20
196.123730
 30
0.0
  0
SPLINE
  5
191
100
AcDbEntity
  8
Layer_1
 62
7
100
AcDbSpline
 70
8
 71
3
 72
8
 73
4
 74
0
 40
0
 40
0
 40
0
 40
0
 40
1
 40
1
 40
1
 40
1
 10
184.459120
 20
196.123730
 30
0.0
 10
183.852580
 20
196.923820
 30
0.0
 10
182.552680
 20
197.435305
 30
0.0
 10
181.123060
 20
197.436393
 30
0.0
  0
SPLINE
  5
192
100
AcDbEntity
  8
Layer_1
 62
7
100
AcDbSpline
 70
8
 71
3
 72
8
 73
4
 74
0
 40
0
 40
0
 40
0
 40
0
 40
1
 40
1
 40
1
 40
1
 10
181.123060
 20
197.436393
 30
0.0
 10
179.693640
 20
197.435593
 30
0.0
 10
178.394030
 20
196.923700
 30
0.0
 10
177.787570
 20
196.123730
 30
0.0
  0
SPLINE
  5
193
100
AcDbEntity
  8
Layer_1
 62
7
100
AcDbSpline
 70
8
 71
3
 72
8
 73
4
 74
0
 40
0
 40
0
 40
0
 40
0
 40
1
 40
1
 40
1
 40
1
 10
177.787570
 20
196.123730
 30
0.0
 10
177.180940
 20
196.923940
 30
0.0
 10
175.880760
 20
197.435441
 30
0.0
 10
174.450930
 20
197.436393
 30
0.0
  0
SPLINE
  5
194
100
AcDbEntity
  8
Layer_1
 62
7
100
AcDbSpline
 70
8
 71
3
 72
8
 73
4
 74
0
 40
0
 40
0
 40
0
 40
0
 40
1
 40
1
 40
1
 40
1
 10
174.450930
 20
197.436393
 30
0.0
 10
173.021720
 20
197.434793
 30
0.0
 10
171.722390
 20
196.923590
 30
0.0
 10
171.116020
 20
196.123730
 30
0.0
  0
SPLINE
  5
195
100
AcDbEntity
  8
Layer_1
 62
7
100
AcDbSpline
 70
8
 71
3
 72
8
 73
4
 74
0
 40
0
 40
0
 40
0
 40
0
 40
1
 40
1
 40
1
 40
1
 10
171.116020
 20
196.123730
 30
0.0
 10
170.509390
 20
196.923940
 30
0.0
 10
169.209210
 20
197.435441
 30
0.0
 10
167.779380
 20
197.436393
 30
0.0
  0
SPLINE
  5
196
100
AcDbEntity
  8
Layer_1
 62
7
100
AcDbSpline
 70
8
 71
3
 72
8
 73
4
 74
0
 40
0
 40
0
 40
0
 40
0
 40
1
 40
1
 40
1
 40
1
 10
167.779380
 20
197.436393
 30
0.0
 10
166.350180
 20
197.435593
 30
0.0
 10
165.050620
 20
196.924060
 30
0.0
 10
164.443890
 20
196.124300
 30
0.0
  0
SPLINE
  5
197
100
AcDbEntity
  8
Layer_1
 62
7
100
AcDbSpline
 70
8
 71
3
 72
8
 73
4
 74
0
 40
0
 40
0
 40
0
 40
0
 40
1
 40
1
 40
1
 40
1
 10
164.443890
 20
196.124300
 30
0.0
 10
163.837080
 20
196.924180
 30
0.0
 10
162.537240
 20
197.435409
 30
0.0
 10
161.107830
 20
197.436393
 30
0.0
  0
SPLINE
  5
198
100
AcDbEntity
  8
Layer_1
 62
7
100
AcDbSpline
 70
8
 71
3
 72
8
 73
4
 74
0
 40
0
 40
0
 40
0
 40
0
 40
1
 40
1
 40
1
 40
1
 10
161.107830
 20
197.436393
 30
0.0
 10
159.678410
 20
197.435593
 30
0.0
 10
158.378800
 20
196.923700
 30
0.0
 10
157.772340
 20
196.123730
 30
0.0
  0
SPLINE
  5
199
100
AcDbEntity
  8
Layer_1
 62
7
100
AcDbSpline
 70
8
 71
3
 72
8
 73
4
 74
0
 40
0
 40
0
 40
0
 40
0
 40
1
 40
1
 40
1
 40
1
 10
157.772340
 20
196.123730
 30
0.0
 10
157.165800
 20
196.923820
 30
0.0
 10
155.865900
 20
197.435305
 30
0.0
 10
154.436280
 20
197.436393
 30
0.0
  0
SPLINE
  5
19a
100
AcDbEntity
  8
Layer_1
 62
7
100
AcDbSpline
 70
8
 71
3
 72
8
 73
4
 74
0
 40
0
 40
0
 40
0
 40
0
 40
1
 40
1
 40
1
 40
1
 10
154.436280
 20
197.436393
 30
0.0
 10
153.006420
 20
197.433993
 30
0.0
 10
151.707140
 20
196.922060
 30
0.0
 10
151.101950
 20
196.121410
 30
0.0
  0
SPLINE
  5
19b
100
AcDbEntity
  8
Layer_1
 62
7
100
AcDbSpline
 70
8
 71
3
 72
8
 73
4
 74
0
 40
0
 40
0
 40
0
 40
0
 40
1
 40
1
 40
1
 40
1
 10
151.101950
 20
196.121410
 30
0.0
 10
150.496230
 20
196.922760
 30
0.0
 10
149.195260
 20
197.435297
 30
0.0
 10
147.764150
 20
197.436393
 30
0.0
  0
SPLINE
  5
19c
100
AcDbEntity
  8
Layer_1
 62
7
100
AcDbSpline
 70
8
 71
3
 72
8
 73
4
 74
0
 40
0
 40
0
 40
0
 40
0
 40
1
 40
1
 40
1
 40
1
 10
147.764150
 20
197.436393
 30
0.0
 10
146.334950
 20
197.435593
 30
0.0
 10
145.035390
 20
196.924060
 30
0.0
 10
144.428660
 20
196.124300
 30
0.0
  0
SPLINE
  5
19d
100
AcDbEntity
  8
Layer_1
 62
7
100
AcDbSpline
 70
8
 71
3
 72
8
 73
4
 74
0
 40
0
 40
0
 40
0
 40
0
 40
1
 40
1
 40
1
 40
1
 10
144.428660
 20
196.124300
 30
0.0
 10
143.821840
 20
196.924180
 30
0.0
 10
142.522000
 20
197.435409
 30
0.0
 10
141.092600
 20
197.436393
 30
0.0
  0
SPLINE
  5
19e
100
AcDbEntity
  8
Layer_1
 62
7
100
AcDbSpline
 70
8
 71
3
 72
8
 73
4
 74
0
 40
0
 40
0
 40
0
 40
0
 40
1
 40
1
 40
1
 40
1
 10
141.092600
 20
197.436393
 30
0.0
 10
139.663180
 20
197.435593
 30
0.0
 10
138.363560
 20
196.923700
 30
0.0
 10
137.757110
 20
196.123730
 30
0.0
  0
SPLINE
  5
19f
100
AcDbEntity
  8
Layer_1
 62
7
100
AcDbSpline
 70
8
 71
3
 72
8
 73
4
 74
0
 40
0
 40
0
 40
0
 40
0
 40
1
 40
1
 40
1
 40
1
 10
137.757110
 20
196.123730
 30
0.0
 10
137.150560
 20
196.923820
 30
0.0
 10
135.850670
 20
197.435305
 30
0.0
 10
134.421040
 20
197.436393
 30
0.0
  0
SPLINE
  5
1a0
100
AcDbEntity
  8
Layer_1
 62
7
100
AcDbSpline
 70
8
 71
3
 72
8
 73
4
 74
0
 40
0
 40
0
 40
0
 40
0
 40
1
 40
1
 40
1
 40
1
 10
134.421040
 20
197.436393
 30
0.0
 10
132.991630
 20
197.435593
 30
0.0
 10
131.692010
 20
196.923700
 30
0.0
 10
131.085560
 20
196.123730
 30
0.0
  0
SPLINE
  5
1a1
100
AcDbEntity
  8
Layer_1
 62
7
100
AcDbSpline
 70
8
 71
3
 72
8
 73
4
 74
0
 40
0
 40
0
 40
0
 40
0
 40
1
 40
1
 40
1
 40
1
 10
131.085560
 20
196.123730
 30
0.0
 10
130.478920
 20
196.923940
 30
0.0
 10
129.178740
 20
197.435441
 30
0.0
 10
127.748910
 20
197.436393
 30
0.0
  0
SPLINE
  5
1a2
100
AcDbEntity
  8
Layer_1
 62
7
100
AcDbSpline
 70
8
 71
3
 72
8
 73
4
 74
0
 40
0
 40
0
 40
0
 40
0
 40
1
 40
1
 40
1
 40
1
 10
127.748910
 20
197.436393
 30
0.0
 10
126.319710
 20
197.435593
 30
0.0
 10
125.020160
 20
196.924060
 30
0.0
 10
124.413430
 20
196.124300
 30
0.0
  0
SPLINE
  5
1a3
100
AcDbEntity
  8
Layer_1
 62
7
100
AcDbSpline
 70
8
 71
3
 72
8
 73
4
 74
0
 40
0
 40
0
 40
0
 40
0
 40
1
 40
1
 40
1
 40
1
 10
124.413430
 20
196.124300
 30
0.0
 10
123.806610
 20
196.924180
 30
0.0
 10
122.506770
 20
197.435409
 30
0.0
 10
121.077360
 20
197.436393
 30
0.0
  0
SPLINE
  5
1a4
100
AcDbEntity
  8
Layer_1
 62
7
100
AcDbSpline
 70
8
 71
3
 72
8
 73
4
 74
0
 40
0
 40
0
 40
0
 40
0
 40
1
 40
1
 40
1
 40
1
 10
121.077360
 20
197.436393
 30
0.0
 10
119.647950
 20
197.435593
 30
0.0
 10
118.348330
 20
196.923700
 30
0.0
 10
117.741880
 20
196.123730
 30
0.0
  0
SPLINE
  5
1a5
100
AcDbEntity
  8
Layer_1
 62
7
100
AcDbSpline
 70
8
 71
3
 72
8
 73
4
 74
0
 40
0
 40
0
 40
0
 40
0
 40
1
 40
1
 40
1
 40
1
 10
117.741880
 20
196.123730
 30
0.0
 10
117.135330
 20
196.923820
 30
0.0
 10
115.835430
 20
197.435305
 30
0.0
 10
114.405800
 20
197.436393
 30
0.0
  0
SPLINE
  5
1a6
100
AcDbEntity
  8
Layer_1
 62
7
100
AcDbSpline
 70
8
 71
3
 72
8
 73
4
 74
0
 40
0
 40
0
 40
0
 40
0
 40
1
 40
1
 40
1
 40
1
 10
114.405800
 20
197.436393
 30
0.0
 10
112.976400
 20
197.435593
 30
0.0
 10
111.676770
 20
196.923700
 30
0.0
 10
111.070320
 20
196.123730
 30
0.0
  0
SPLINE
  5
1a7
100
AcDbEntity
  8
Layer_1
 62
7
100
AcDbSpline
 70
8
 71
3
 72
8
 73
4
 74
0
 40
0
 40
0
 40
0
 40
0
 40
1
 40
1
 40
1
 40
1
 10
111.070320
 20
196.123730
 30
0.0
 10
110.463680
 20
196.923940
 30
0.0
 10
109.163510
 20
197.435441
 30
0.0
 10
107.733680
 20
197.436393
 30
0.0
  0
SPLINE
  5
1a8
100
AcDbEntity
  8
Layer_1
 62
7
100
AcDbSpline
 70
8
 71
3
 72
8
 73
4
 74
0
 40
0
 40
0
 40
0
 40
0
 40
1
 40
1
 40
1
 40
1
 10
107.733680
 20
197.436393
 30
0.0
 10
107.193470
 20
197.435593
 30
0.0
 10
106.660200
 20
197.361113
 30
0.0
 10
106.171560
 20
197.218777
 30
0.0
  0
SPLINE
  5
1a9
100
AcDbEntity
  8
Layer_1
 62
7
100
AcDbSpline
 70
8
 71
3
 72
8
 73
4
 74
0
 40
0
 40
0
 40
0
 40
0
 40
1
 40
1
 40
1
 40
1
 10
106.171560
 20
197.218777
 30
0.0
 10
106.607000
 20
198.587089
 30
0.0
 10
106.867000
 20
200.698297
 30
0.0
 10
106.867830
 20
201.707177
 30
0.0
  0
SPLINE
  5
1aa
100
AcDbEntity
  8
Layer_1
 62
7
100
AcDbSpline
 70
8
 71
3
 72
8
 73
4
 74
0
 40
0
 40
0
 40
0
 40
0
 40
1
 40
1
 40
1
 40
1
 10
106.867830
 20
201.707177
 30
0.0
 10
106.867240
 20
203.142561
 30
0.0
 10
106.344080
 20
204.442665
 30
0.0
 10
105.533170
 20
205.024729
 30
0.0
  0
SPLINE
  5
1ab
100
AcDbEntity
  8
Layer_1
 62
7
100
AcDbSpline
 70
8
 71
3
 72
8
 73
4
 74
0
 40
0
 40
0
 40
0
 40
0
 40
1
 40
1
 40
1
 40
1
 10
105.533170
 20
205.024729
 30
0.0
 10
106.343720
 20
205.606545
 30
0.0
 10
106.866680
 20
206.905777
 30
0.0
 10
106.867830
 20
208.340537
 30
0.0
  0
SPLINE
  5
1ac
100
AcDbEntity
  8
Layer_1
 62
7
100
AcDbSpline
 70
8
 71
3
 72
8
 73
4
 74
0
 40
0
 40
0
 40
0
 40
0
 40
1
 40
1
 40
1
 40
1
 10
106.867830
 20
208.340537
 30
0.0
 10
106.867240
 20
209.775913
 30
0.0
 10
106.344080
 20
211.076017
 30
0.0
 10
105.533170
 20
211.658081
 30
0.0
  0
SPLINE
  5
1ad
100
AcDbEntity
  8
Layer_1
 62
7
100
AcDbSpline
 70
8
 71
3
 72
8
 73
4
 74
0
 40
0
 40
0
 40
0
 40
0
 40
1
 40
1
 40
1
 40
1
 10
105.533170
 20
211.658081
 30
0.0
 10
106.343600
 20
212.239809
 30
0.0
 10
106.866540
 20
213.538769
 30
0.0
 10
106.867830
 20
214.973305
 30
0.0
  0
SPLINE
  5
1ae
100
AcDbEntity
  8
Layer_1
 62
7
100
AcDbSpline
 70
8
 71
3
 72
8
 73
4
 74
0
 40
0
 40
0
 40
0
 40
0
 40
1
 40
1
 40
1
 40
1
 10
106.867830
 20
214.973305
 30
0.0
 10
106.867240
 20
216.408689
 30
0.0
 10
106.344080
 20
217.708809
 30
0.0
 10
105.533170
 20
218.290849
 30
0.0
  0
SPLINE
  5
1af
100
AcDbEntity
  8
Layer_1
 62
7
100
AcDbSpline
 70
8
 71
3
 72
8
 73
4
 74
0
 40
0
 40
0
 40
0
 40
0
 40
1
 40
1
 40
1
 40
1
 10
105.533170
 20
218.290849
 30
0.0
 10
106.343720
 20
218.872657
 30
0.0
 10
106.866680
 20
220.171905
 30
0.0
 10
106.867830
 20
221.606657
 30
0.0
  0
SPLINE
  5
1b0
100
AcDbEntity
  8
Layer_1
 62
7
100
AcDbSpline
 70
8
 71
3
 72
8
 73
4
 74
0
 40
0
 40
0
 40
0
 40
0
 40
1
 40
1
 40
1
 40
1
 10
106.867830
 20
221.606657
 30
0.0
 10
106.867240
 20
223.042041
 30
0.0
 10
106.344080
 20
224.342137
 30
0.0
 10
105.533170
 20
224.924201
 30
0.0
  0
SPLINE
  5
1b1
100
AcDbEntity
  8
Layer_1
 62
7
100
AcDbSpline
 70
8
 71
3
 72
8
 73
4
 74
0
 40
0
 40
0
 40
0
 40
0
 40
1
 40
1
 40
1
 40
1
 10
105.533170
 20
224.924201
 30
0.0
 10
106.343600
 20
225.505929
 30
0.0
 10
106.866540
 20
226.804889
 30
0.0
 10
106.867830
 20
228.239433
 30
0.0
  0
SPLINE
  5
1b2
100
AcDbEntity
  8
Layer_1
 62
7
100
AcDbSpline
 70
8
 71
3
 72
8
 73
4
 74
0
 40
0
 40
0
 40
0
 40
0
 40
1
 40
1
 40
1
 40
1
 10
106.867830
 20
228.239433
 30
0.0
 10
106.867240
 20
229.674817
 30
0.0
 10
106.344080
 20
230.974913
 30
0.0
 10
105.533170
 20
231.556977
 30
0.0
  0
SPLINE
  5
1b3
100
AcDbEntity
  8
Layer_1
 62
7
100
AcDbSpline
 70
8
 71
3
 72
8
 73
4
 74
0
 40
0
 40
0
 40
0
 40
0
 40
1
 40
1
 40
1
 40
1
 10
105.533170
 20
231.556977
 30
0.0
 10
106.343720
 20
232.138785
 30
0.0
 10
106.866680
 20
233.438033
 30
0.0
 10
106.867830
 20
234.872785
 30
0.0
  0
SPLINE
  5
1b4
100
AcDbEntity
  8
Layer_1
 62
7
100
AcDbSpline
 70
8
 71
3
 72
8
 73
4
 74
0
 40
0
 40
0
 40
0
 40
0
 40
1
 40
1
 40
1
 40
1
 10
106.867830
 20
234.872785
 30
0.0
 10
106.867030
 20
236.776281
 30
0.0
 10
105.957610
 20
238.355545
 30
0.0
 10
104.784240
 20
238.492449
 30
0.0
  0
LWPOLYLINE
  5
1b5
100
AcDbEntity
  8
Layer_1
 62
7
100
AcDbPolyline
 90
4
 70
0
 10
63.066637
 20
19.044300
 30
0.0
 10
63.066637
 20
18.563920
 30
0.0
 10
104.784240
 20
18.563920
 30
0.0
 10
104.784240
 20
18.991060
 30
0.0
  0
SPLINE
  5
1b6
100
AcDbEntity
  8
Layer_1
 62
7
100
AcDbSpline
 70
8
 71
3
 72
8
 73
4
 74
0
 40
0
 40
0
 40
0
 40
0
 40
1
 40
1
 40
1
 40
1
 10
63.066709
 20
238.442613
 30
0.0
 10
62.002925
 20
238.124021
 30
0.0
 10
61.230861
 20
236.623197
 30
0.0
 10
61.230253
 20
234.872725
 30
0.0
  0
SPLINE
  5
1b7
100
AcDbEntity
  8
Layer_1
 62
7
100
AcDbSpline
 70
8
 71
3
 72
8
 73
4
 74
0
 40
0
 40
0
 40
0
 40
0
 40
1
 40
1
 40
1
 40
1
 10
61.230253
 20
234.872725
 30
0.0
 10
61.230845
 20
233.437341
 30
0.0
 10
61.754005
 20
232.137245
 30
0.0
 10
62.564917
 20
231.555181
 30
0.0
  0
SPLINE
  5
1b8
100
AcDbEntity
  8
Layer_1
 62
7
100
AcDbSpline
 70
8
 71
3
 72
8
 73
4
 74
0
 40
0
 40
0
 40
0
 40
0
 40
1
 40
1
 40
1
 40
1
 10
62.564917
 20
231.555181
 30
0.0
 10
61.754365
 20
230.973373
 30
0.0
 10
61.231405
 20
229.674125
 30
0.0
 10
61.230253
 20
228.239373
 30
0.0
  0
SPLINE
  5
1b9
100
AcDbEntity
  8
Layer_1
 62
7
100
AcDbSpline
 70
8
 71
3
 72
8
 73
4
 74
0
 40
0
 40
0
 40
0
 40
0
 40
1
 40
1
 40
1
 40
1
 10
61.230253
 20
228.239373
 30
0.0
 10
61.231053
 20
226.804205
 30
0.0
 10
61.754133
 20
225.504397
 30
0.0
 10
62.564917
 20
224.922405
 30
0.0
  0
SPLINE
  5
1ba
100
AcDbEntity
  8
Layer_1
 62
7
100
AcDbSpline
 70
8
 71
3
 72
8
 73
4
 74
0
 40
0
 40
0
 40
0
 40
0
 40
1
 40
1
 40
1
 40
1
 10
62.564917
 20
224.922405
 30
0.0
 10
61.754365
 20
224.340589
 30
0.0
 10
61.231405
 20
223.041357
 30
0.0
 10
61.230253
 20
221.606597
 30
0.0
  0
SPLINE
  5
1bb
100
AcDbEntity
  8
Layer_1
 62
7
100
AcDbSpline
 70
8
 71
3
 72
8
 73
4
 74
0
 40
0
 40
0
 40
0
 40
0
 40
1
 40
1
 40
1
 40
1
 10
61.230253
 20
221.606597
 30
0.0
 10
61.230845
 20
220.171221
 30
0.0
 10
61.754013
 20
218.871117
 30
0.0
 10
62.564917
 20
218.289053
 30
0.0
  0
SPLINE
  5
1bc
100
AcDbEntity
  8
Layer_1
 62
7
100
AcDbSpline
 70
8
 71
3
 72
8
 73
4
 74
0
 40
0
 40
0
 40
0
 40
0
 40
1
 40
1
 40
1
 40
1
 10
62.564917
 20
218.289053
 30
0.0
 10
61.754365
 20
217.707245
 30
0.0
 10
61.231405
 20
216.407997
 30
0.0
 10
61.230253
 20
214.973245
 30
0.0
  0
SPLINE
  5
1bd
100
AcDbEntity
  8
Layer_1
 62
7
100
AcDbSpline
 70
8
 71
3
 72
8
 73
4
 74
0
 40
0
 40
0
 40
0
 40
0
 40
1
 40
1
 40
1
 40
1
 10
61.230253
 20
214.973245
 30
0.0
 10
61.230845
 20
213.538077
 30
0.0
 10
61.753653
 20
212.238045
 30
0.0
 10
62.564333
 20
211.655701
 30
0.0
  0
SPLINE
  5
1be
100
AcDbEntity
  8
Layer_1
 62
7
100
AcDbSpline
 70
8
 71
3
 72
8
 73
4
 74
0
 40
0
 40
0
 40
0
 40
0
 40
1
 40
1
 40
1
 40
1
 10
62.564333
 20
211.655701
 30
0.0
 10
61.754133
 20
211.073693
 30
0.0
 10
61.231445
 20
209.774789
 30
0.0
 10
61.230253
 20
208.340477
 30
0.0
  0
SPLINE
  5
1bf
100
AcDbEntity
  8
Layer_1
 62
7
100
AcDbSpline
 70
8
 71
3
 72
8
 73
4
 74
0
 40
0
 40
0
 40
0
 40
0
 40
1
 40
1
 40
1
 40
1
 10
61.230253
 20
208.340477
 30
0.0
 10
61.230845
 20
206.905093
 30
0.0
 10
61.754005
 20
205.604997
 30
0.0
 10
62.564917
 20
205.022933
 30
0.0
  0
SPLINE
  5
1c0
100
AcDbEntity
  8
Layer_1
 62
7
100
AcDbSpline
 70
8
 71
3
 72
8
 73
4
 74
0
 40
0
 40
0
 40
0
 40
0
 40
1
 40
1
 40
1
 40
1
 10
62.564917
 20
205.022933
 30
0.0
 10
61.754365
 20
204.441125
 30
0.0
 10
61.231405
 20
203.141877
 30
0.0
 10
61.230253
 20
201.707117
 30
0.0
  0
SPLINE
  5
1c1
100
AcDbEntity
  8
Layer_1
 62
7
100
AcDbSpline
 70
8
 71
3
 72
8
 73
4
 74
0
 40
0
 40
0
 40
0
 40
0
 40
1
 40
1
 40
1
 40
1
 10
61.230253
 20
201.707117
 30
0.0
 10
61.230845
 20
200.271741
 30
0.0
 10
61.754013
 20
198.971637
 30
0.0
 10
62.564917
 20
198.389573
 30
0.0
  0
SPLINE
  5
1c2
100
AcDbEntity
  8
Layer_1
 62
7
100
AcDbSpline
 70
8
 71
3
 72
8
 73
4
 74
0
 40
0
 40
0
 40
0
 40
0
 40
1
 40
1
 40
1
 40
1
 10
62.564917
 20
198.389573
 30
0.0
 10
62.246493
 20
198.160933
 30
0.0
 10
61.971117
 20
197.815469
 30
0.0
 10
61.752885
 20
197.391765
 30
0.0
  0
SPLINE
  5
1c3
100
AcDbEntity
  8
Layer_1
 62
7
100
AcDbSpline
 70
8
 71
3
 72
8
 73
4
 74
0
 40
0
 40
0
 40
0
 40
0
 40
1
 40
1
 40
1
 40
1
 10
61.752885
 20
197.391765
 30
0.0
 10
61.515453
 20
197.421205
 30
0.0
 10
61.273901
 20
197.436165
 30
0.0
 10
61.031733
 20
197.436325
 30
0.0
  0
SPLINE
  5
1c4
100
AcDbEntity
  8
Layer_1
 62
7
100
AcDbSpline
 70
8
 71
3
 72
8
 73
4
 74
0
 40
0
 40
0
 40
0
 40
0
 40
1
 40
1
 40
1
 40
1
 10
61.031733
 20
197.436325
 30
0.0
 10
59.645773
 20
197.435525
 30
0.0
 10
58.377746
 20
196.954130
 30
0.0
 10
57.748915
 20
196.190800
 30
0.0
  0
LWPOLYLINE
  5
1c5
100
AcDbEntity
  8
Layer_1
 62
7
100
AcDbPolyline
 90
4
 70
0
 10
104.784240
 20
238.492449
 30
0.0
 10
104.784240
 20
238.922421
 30
0.0
 10
63.066709
 20
238.922421
 30
0.0
 10
63.066709
 20
238.442613
 30
0.0
  0
SPLINE
  5
1c6
100
AcDbEntity
  8
Layer_1
 62
7
100
AcDbSpline
 70
8
 71
3
 72
8
 73
4
 74
0
 40
0
 40
0
 40
0
 40
0
 40
1
 40
1
 40
1
 40
1
 10
57.648209
 20
196.190800
 30
0.0
 10
57.018528
 20
196.955160
 30
0.0
 10
55.748017
 20
197.436437
 30
0.0
 10
54.360184
 20
197.436325
 30
0.0
  0
SPLINE
  5
1c7
100
AcDbEntity
  8
Layer_1
 62
7
100
AcDbSpline
 70
8
 71
3
 72
8
 73
4
 74
0
 40
0
 40
0
 40
0
 40
0
 40
1
 40
1
 40
1
 40
1
 10
54.360184
 20
197.436325
 30
0.0
 10
52.974017
 20
197.435525
 30
0.0
 10
51.705713
 20
196.954240
 30
0.0
 10
51.076786
 20
196.190800
 30
0.0
  0
LWPOLYLINE
  5
1c8
100
AcDbEntity
  8
Layer_1
 62
7
100
AcDbPolyline
 90
2
 70
0
 10
57.748915
 20
196.190800
 30
0.0
 10
57.648209
 20
196.190800
 30
0.0
  0
SPLINE
  5
1c9
100
AcDbEntity
  8
Layer_1
 62
7
100
AcDbSpline
 70
8
 71
3
 72
8
 73
4
 74
0
 40
0
 40
0
 40
0
 40
0
 40
1
 40
1
 40
1
 40
1
 10
50.976081
 20
196.190800
 30
0.0
 10
50.346494
 20
196.955040
 30
0.0
 10
49.076258
 20
197.436301
 30
0.0
 10
47.688633
 20
197.436325
 30
0.0
  0
SPLINE
  5
1ca
100
AcDbEntity
  8
Layer_1
 62
7
100
AcDbSpline
 70
8
 71
3
 72
8
 73
4
 74
0
 40
0
 40
0
 40
0
 40
0
 40
1
 40
1
 40
1
 40
1
 10
47.688633
 20
197.436325
 30
0.0
 10
46.302465
 20
197.435525
 30
0.0
 10
45.034161
 20
196.954240
 30
0.0
 10
44.405236
 20
196.190800
 30
0.0
  0
LWPOLYLINE
  5
1cb
100
AcDbEntity
  8
Layer_1
 62
7
100
AcDbPolyline
 90
2
 70
0
 10
51.076786
 20
196.190800
 30
0.0
 10
50.976081
 20
196.190800
 30
0.0
  0
SPLINE
  5
1cc
100
AcDbEntity
  8
Layer_1
 62
7
100
AcDbSpline
 70
8
 71
3
 72
8
 73
4
 74
0
 40
0
 40
0
 40
0
 40
0
 40
1
 40
1
 40
1
 40
1
 10
44.304527
 20
196.190800
 30
0.0
 10
43.674845
 20
196.955160
 30
0.0
 10
42.404334
 20
197.436437
 30
0.0
 10
41.016501
 20
197.436325
 30
0.0
  0
SPLINE
  5
1cd
100
AcDbEntity
  8
Layer_1
 62
7
100
AcDbSpline
 70
8
 71
3
 72
8
 73
4
 74
0
 40
0
 40
0
 40
0
 40
0
 40
1
 40
1
 40
1
 40
1
 10
41.016501
 20
197.436325
 30
0.0
 10
39.630541
 20
197.435525
 30
0.0
 10
38.362516
 20
196.954130
 30
0.0
 10
37.733685
 20
196.190800
 30
0.0
  0
LWPOLYLINE
  5
1ce
100
AcDbEntity
  8
Layer_1
 62
7
100
AcDbPolyline
 90
2
 70
0
 10
44.405236
 20
196.190800
 30
0.0
 10
44.304527
 20
196.190800
 30
0.0
  0
SPLINE
  5
1cf
100
AcDbEntity
  8
Layer_1
 62
7
100
AcDbSpline
 70
8
 71
3
 72
8
 73
4
 74
0
 40
0
 40
0
 40
0
 40
0
 40
1
 40
1
 40
1
 40
1
 10
37.632976
 20
196.190800
 30
0.0
 10
37.003294
 20
196.955160
 30
0.0
 10
35.732783
 20
197.436437
 30
0.0
 10
34.344950
 20
197.436325
 30
0.0
  0
SPLINE
  5
1d0
100
AcDbEntity
  8
Layer_1
 62
7
100
AcDbSpline
 70
8
 71
3
 72
8
 73
4
 74
0
 40
0
 40
0
 40
0
 40
0
 40
1
 40
1
 40
1
 40
1
 10
34.344950
 20
197.436325
 30
0.0
 10
32.958783
 20
197.435525
 30
0.0
 10
31.690479
 20
196.954240
 30
0.0
 10
31.061553
 20
196.190800
 30
0.0
  0
LWPOLYLINE
  5
1d1
100
AcDbEntity
  8
Layer_1
 62
7
100
AcDbPolyline
 90
2
 70
0
 10
37.733685
 20
196.190800
 30
0.0
 10
37.632976
 20
196.190800
 30
0.0
  0
SPLINE
  5
1d2
100
AcDbEntity
  8
Layer_1
 62
7
100
AcDbSpline
 70
8
 71
3
 72
8
 73
4
 74
0
 40
0
 40
0
 40
0
 40
0
 40
1
 40
1
 40
1
 40
1
 10
30.960847
 20
196.190800
 30
0.0
 10
30.331261
 20
196.955040
 30
0.0
 10
29.061025
 20
197.436301
 30
0.0
 10
27.673400
 20
197.436325
 30
0.0
  0
SPLINE
  5
1d3
100
AcDbEntity
  8
Layer_1
 62
7
100
AcDbSpline
 70
8
 71
3
 72
8
 73
4
 74
0
 40
0
 40
0
 40
0
 40
0
 40
1
 40
1
 40
1
 40
1
 10
27.673400
 20
197.436325
 30
0.0
 10
26.287232
 20
197.435525
 30
0.0
 10
25.018929
 20
196.954240
 30
0.0
 10
24.390002
 20
196.190800
 30
0.0
  0
LWPOLYLINE
  5
1d4
100
AcDbEntity
  8
Layer_1
 62
7
100
AcDbPolyline
 90
2
 70
0
 10
31.061553
 20
196.190800
 30
0.0
 10
30.960847
 20
196.190800
 30
0.0
  0
SPLINE
  5
1d5
100
AcDbEntity
  8
Layer_1
 62
7
100
AcDbSpline
 70
8
 71
3
 72
8
 73
4
 74
0
 40
0
 40
0
 40
0
 40
0
 40
1
 40
1
 40
1
 40
1
 10
24.289293
 20
196.190800
 30
0.0
 10
24.101356
 20
196.417040
 30
0.0
 10
23.853500
 20
196.622240
 30
0.0
 10
23.555987
 20
196.797930
 30
0.0
  0
SPLINE
  5
1d6
100
AcDbEntity
  8
Layer_1
 62
7
100
AcDbSpline
 70
8
 71
3
 72
8
 73
4
 74
0
 40
0
 40
0
 40
0
 40
0
 40
1
 40
1
 40
1
 40
1
 10
23.555987
 20
196.797930
 30
0.0
 10
23.322044
 20
197.498733
 30
0.0
 10
22.952321
 20
198.063677
 30
0.0
 10
22.495668
 20
198.392461
 30
0.0
  0
SPLINE
  5
1d7
100
AcDbEntity
  8
Layer_1
 62
7
100
AcDbSpline
 70
8
 71
3
 72
8
 73
4
 74
0
 40
0
 40
0
 40
0
 40
0
 40
1
 40
1
 40
1
 40
1
 10
22.495668
 20
198.392461
 30
0.0
 10
23.306205
 20
198.973821
 30
0.0
 10
23.829373
 20
200.272565
 30
0.0
 10
23.830905
 20
201.707109
 30
0.0
  0
SPLINE
  5
1d8
100
AcDbEntity
  8
Layer_1
 62
7
100
AcDbSpline
 70
8
 71
3
 72
8
 73
4
 74
0
 40
0
 40
0
 40
0
 40
0
 40
1
 40
1
 40
1
 40
1
 10
23.830905
 20
201.707109
 30
0.0
 10
23.830312
 20
203.142493
 30
0.0
 10
23.307147
 20
204.442597
 30
0.0
 10
22.496245
 20
205.024661
 30
0.0
  0
SPLINE
  5
1d9
100
AcDbEntity
  8
Layer_1
 62
7
100
AcDbSpline
 70
8
 71
3
 72
8
 73
4
 74
0
 40
0
 40
0
 40
0
 40
0
 40
1
 40
1
 40
1
 40
1
 10
22.496245
 20
205.024661
 30
0.0
 10
23.306794
 20
205.606477
 30
0.0
 10
23.829757
 20
206.905709
 30
0.0
 10
23.830905
 20
208.340469
 30
0.0
  0
SPLINE
  5
1da
100
AcDbEntity
  8
Layer_1
 62
7
100
AcDbSpline
 70
8
 71
3
 72
8
 73
4
 74
0
 40
0
 40
0
 40
0
 40
0
 40
1
 40
1
 40
1
 40
1
 10
23.830905
 20
208.340469
 30
0.0
 10
23.830312
 20
209.775845
 30
0.0
 10
23.307147
 20
211.075949
 30
0.0
 10
22.496245
 20
211.658013
 30
0.0
  0
SPLINE
  5
1db
100
AcDbEntity
  8
Layer_1
 62
7
100
AcDbSpline
 70
8
 71
3
 72
8
 73
4
 74
0
 40
0
 40
0
 40
0
 40
0
 40
1
 40
1
 40
1
 40
1
 10
22.496245
 20
211.658013
 30
0.0
 10
23.306676
 20
212.239741
 30
0.0
 10
23.829615
 20
213.538701
 30
0.0
 10
23.830905
 20
214.973237
 30
0.0
  0
SPLINE
  5
1dc
100
AcDbEntity
  8
Layer_1
 62
7
100
AcDbSpline
 70
8
 71
3
 72
8
 73
4
 74
0
 40
0
 40
0
 40
0
 40
0
 40
1
 40
1
 40
1
 40
1
 10
23.830905
 20
214.973237
 30
0.0
 10
23.830312
 20
216.408621
 30
0.0
 10
23.307147
 20
217.708741
 30
0.0
 10
22.496245
 20
218.290781
 30
0.0
  0
SPLINE
  5
1dd
100
AcDbEntity
  8
Layer_1
 62
7
100
AcDbSpline
 70
8
 71
3
 72
8
 73
4
 74
0
 40
0
 40
0
 40
0
 40
0
 40
1
 40
1
 40
1
 40
1
 10
22.496245
 20
218.290781
 30
0.0
 10
23.306792
 20
218.872597
 30
0.0
 10
23.829757
 20
220.171837
 30
0.0
 10
23.830905
 20
221.606589
 30
0.0
  0
SPLINE
  5
1de
100
AcDbEntity
  8
Layer_1
 62
7
100
AcDbSpline
 70
8
 71
3
 72
8
 73
4
 74
0
 40
0
 40
0
 40
0
 40
0
 40
1
 40
1
 40
1
 40
1
 10
23.830905
 20
221.606589
 30
0.0
 10
23.830312
 20
223.041973
 30
0.0
 10
23.307150
 20
224.342061
 30
0.0
 10
22.496245
 20
224.924133
 30
0.0
  0
SPLINE
  5
1df
100
AcDbEntity
  8
Layer_1
 62
7
100
AcDbSpline
 70
8
 71
3
 72
8
 73
4
 74
0
 40
0
 40
0
 40
0
 40
0
 40
1
 40
1
 40
1
 40
1
 10
22.496245
 20
224.924133
 30
0.0
 10
23.306673
 20
225.505861
 30
0.0
 10
23.829615
 20
226.804821
 30
0.0
 10
23.830905
 20
228.239365
 30
0.0
  0
SPLINE
  5
1e0
100
AcDbEntity
  8
Layer_1
 62
7
100
AcDbSpline
 70
8
 71
3
 72
8
 73
4
 74
0
 40
0
 40
0
 40
0
 40
0
 40
1
 40
1
 40
1
 40
1
 10
23.830905
 20
228.239365
 30
0.0
 10
23.830312
 20
229.674749
 30
0.0
 10
23.307150
 20
230.974829
 30
0.0
 10
22.496245
 20
231.556909
 30
0.0
  0
SPLINE
  5
1e1
100
AcDbEntity
  8
Layer_1
 62
7
100
AcDbSpline
 70
8
 71
3
 72
8
 73
4
 74
0
 40
0
 40
0
 40
0
 40
0
 40
1
 40
1
 40
1
 40
1
 10
22.496245
 20
231.556909
 30
0.0
 10
23.306792
 20
232.138725
 30
0.0
 10
23.829757
 20
233.437965
 30
0.0
 10
23.830905
 20
234.872717
 30
0.0
  0
SPLINE
  5
1e2
100
AcDbEntity
  8
Layer_1
 62
7
100
AcDbSpline
 70
8
 71
3
 72
8
 73
4
 74
0
 40
0
 40
0
 40
0
 40
0
 40
1
 40
1
 40
1
 40
1
 10
23.830905
 20
234.872717
 30
0.0
 10
23.830656
 20
236.594205
 30
0.0
 10
23.083658
 20
238.079013
 30
0.0
 10
22.041908
 20
238.428717
 30
0.0
  0
LWPOLYLINE
  5
1e3
100
AcDbEntity
  8
Layer_1
 62
7
100
AcDbPolyline
 90
2
 70
0
 10
24.390002
 20
196.190800
 30
0.0
 10
24.289293
 20
196.190800
 30
0.0
  0
SPLINE
  5
1e4
100
AcDbEntity
  8
Layer_1
 62
7
100
AcDbSpline
 70
8
 71
3
 72
8
 73
4
 74
0
 40
0
 40
0
 40
0
 40
0
 40
1
 40
1
 40
1
 40
1
 10
-16.318716
 20
238.505117
 30
0.0
 10
-17.558586
 20
238.505117
 30
0.0
 10
-18.563723
 20
236.878869
 30
0.0
 10
-18.563789
 20
234.872717
 30
0.0
  0
SPLINE
  5
1e5
100
AcDbEntity
  8
Layer_1
 62
7
100
AcDbSpline
 70
8
 71
3
 72
8
 73
4
 74
0
 40
0
 40
0
 40
0
 40
0
 40
1
 40
1
 40
1
 40
1
 10
-18.563789
 20
234.872717
 30
0.0
 10
-18.562989
 20
233.437117
 30
0.0
 10
-18.039683
 20
232.136957
 30
0.0
 10
-17.228552
 20
231.555173
 30
0.0
  0
SPLINE
  5
1e6
100
AcDbEntity
  8
Layer_1
 62
7
100
AcDbSpline
 70
8
 71
3
 72
8
 73
4
 74
0
 40
0
 40
0
 40
0
 40
0
 40
1
 40
1
 40
1
 40
1
 10
-17.228552
 20
231.555173
 30
0.0
 10
-18.039325
 20
230.973645
 30
0.0
 10
-18.562539
 20
229.674341
 30
0.0
 10
-18.563789
 20
228.239365
 30
0.0
  0
SPLINE
  5
1e7
100
AcDbEntity
  8
Layer_1
 62
7
100
AcDbSpline
 70
8
 71
3
 72
8
 73
4
 74
0
 40
0
 40
0
 40
0
 40
0
 40
1
 40
1
 40
1
 40
1
 10
-18.563789
 20
228.239365
 30
0.0
 10
-18.562829
 20
226.803973
 30
0.0
 10
-18.039561
 20
225.504101
 30
0.0
 10
-17.228552
 20
224.922397
 30
0.0
  0
SPLINE
  5
1e8
100
AcDbEntity
  8
Layer_1
 62
7
100
AcDbSpline
 70
8
 71
3
 72
8
 73
4
 74
0
 40
0
 40
0
 40
0
 40
0
 40
1
 40
1
 40
1
 40
1
 10
-17.228552
 20
224.922397
 30
0.0
 10
-18.039327
 20
224.340861
 30
0.0
 10
-18.562541
 20
223.041565
 30
0.0
 10
-18.563789
 20
221.606589
 30
0.0
  0
SPLINE
  5
1e9
100
AcDbEntity
  8
Layer_1
 62
7
100
AcDbSpline
 70
8
 71
3
 72
8
 73
4
 74
0
 40
0
 40
0
 40
0
 40
0
 40
1
 40
1
 40
1
 40
1
 10
-18.563789
 20
221.606589
 30
0.0
 10
-18.562989
 20
220.170989
 30
0.0
 10
-18.039680
 20
218.870829
 30
0.0
 10
-17.228552
 20
218.289045
 30
0.0
  0
SPLINE
  5
1ea
100
AcDbEntity
  8
Layer_1
 62
7
100
AcDbSpline
 70
8
 71
3
 72
8
 73
4
 74
0
 40
0
 40
0
 40
0
 40
0
 40
1
 40
1
 40
1
 40
1
 10
-17.228552
 20
218.289045
 30
0.0
 10
-18.039325
 20
217.707517
 30
0.0
 10
-18.562539
 20
216.408221
 30
0.0
 10
-18.563789
 20
214.973237
 30
0.0
  0
SPLINE
  5
1eb
100
AcDbEntity
  8
Layer_1
 62
7
100
AcDbSpline
 70
8
 71
3
 72
8
 73
4
 74
0
 40
0
 40
0
 40
0
 40
0
 40
1
 40
1
 40
1
 40
1
 10
-18.563789
 20
214.973237
 30
0.0
 10
-18.563078
 20
213.537861
 30
0.0
 10
-18.040035
 20
212.237757
 30
0.0
 10
-17.229131
 20
211.655693
 30
0.0
  0
SPLINE
  5
1ec
100
AcDbEntity
  8
Layer_1
 62
7
100
AcDbSpline
 70
8
 71
3
 72
8
 73
4
 74
0
 40
0
 40
0
 40
0
 40
0
 40
1
 40
1
 40
1
 40
1
 10
-17.229131
 20
211.655693
 30
0.0
 10
-18.039559
 20
211.073965
 30
0.0
 10
-18.562499
 20
209.775005
 30
0.0
 10
-18.563789
 20
208.340469
 30
0.0
  0
SPLINE
  5
1ed
100
AcDbEntity
  8
Layer_1
 62
7
100
AcDbSpline
 70
8
 71
3
 72
8
 73
4
 74
0
 40
0
 40
0
 40
0
 40
0
 40
1
 40
1
 40
1
 40
1
 10
-18.563789
 20
208.340469
 30
0.0
 10
-18.562989
 20
206.904861
 30
0.0
 10
-18.039683
 20
205.604701
 30
0.0
 10
-17.228552
 20
205.022925
 30
0.0
  0
SPLINE
  5
1ee
100
AcDbEntity
  8
Layer_1
 62
7
100
AcDbSpline
 70
8
 71
3
 72
8
 73
4
 74
0
 40
0
 40
0
 40
0
 40
0
 40
1
 40
1
 40
1
 40
1
 10
-17.228552
 20
205.022925
 30
0.0
 10
-18.039325
 20
204.441397
 30
0.0
 10
-18.562539
 20
203.142093
 30
0.0
 10
-18.563789
 20
201.707109
 30
0.0
  0
SPLINE
  5
1ef
100
AcDbEntity
  8
Layer_1
 62
7
100
AcDbSpline
 70
8
 71
3
 72
8
 73
4
 74
0
 40
0
 40
0
 40
0
 40
0
 40
1
 40
1
 40
1
 40
1
 10
-18.563789
 20
201.707109
 30
0.0
 10
-18.562989
 20
200.271509
 30
0.0
 10
-18.039680
 20
198.971357
 30
0.0
 10
-17.228552
 20
198.389565
 30
0.0
  0
SPLINE
  5
1f0
100
AcDbEntity
  8
Layer_1
 62
7
100
AcDbSpline
 70
8
 71
3
 72
8
 73
4
 74
0
 40
0
 40
0
 40
0
 40
0
 40
1
 40
1
 40
1
 40
1
 10
-17.228552
 20
198.389565
 30
0.0
 10
-18.039208
 20
197.808125
 30
0.0
 10
-18.562399
 20
196.509110
 30
0.0
 10
-18.563789
 20
195.074340
 30
0.0
  0
SPLINE
  5
1f1
100
AcDbEntity
  8
Layer_1
 62
7
100
AcDbSpline
 70
8
 71
3
 72
8
 73
4
 74
0
 40
0
 40
0
 40
0
 40
0
 40
1
 40
1
 40
1
 40
1
 10
-18.563789
 20
195.074340
 30
0.0
 10
-18.562989
 20
193.638730
 30
0.0
 10
-18.039680
 20
192.338580
 30
0.0
 10
-17.228552
 20
191.756800
 30
0.0
  0
SPLINE
  5
1f2
100
AcDbEntity
  8
Layer_1
 62
7
100
AcDbSpline
 70
8
 71
3
 72
8
 73
4
 74
0
 40
0
 40
0
 40
0
 40
0
 40
1
 40
1
 40
1
 40
1
 10
-17.228552
 20
191.756800
 30
0.0
 10
-18.039325
 20
191.175270
 30
0.0
 10
-18.562539
 20
189.875960
 30
0.0
 10
-18.563789
 20
188.440990
 30
0.0
  0
SPLINE
  5
1f3
100
AcDbEntity
  8
Layer_1
 62
7
100
AcDbSpline
 70
8
 71
3
 72
8
 73
4
 74
0
 40
0
 40
0
 40
0
 40
0
 40
1
 40
1
 40
1
 40
1
 10
-18.563789
 20
188.440990
 30
0.0
 10
-18.562989
 20
187.005380
 30
0.0
 10
-18.039683
 20
185.705230
 30
0.0
 10
-17.228552
 20
185.123440
 30
0.0
  0
SPLINE
  5
1f4
100
AcDbEntity
  8
Layer_1
 62
7
100
AcDbSpline
 70
8
 71
3
 72
8
 73
4
 74
0
 40
0
 40
0
 40
0
 40
0
 40
1
 40
1
 40
1
 40
1
 10
-17.228552
 20
185.123440
 30
0.0
 10
-18.039206
 20
184.542000
 30
0.0
 10
-18.562397
 20
183.242980
 30
0.0
 10
-18.563789
 20
181.808210
 30
0.0
  0
SPLINE
  5
1f5
100
AcDbEntity
  8
Layer_1
 62
7
100
AcDbSpline
 70
8
 71
3
 72
8
 73
4
 74
0
 40
0
 40
0
 40
0
 40
0
 40
1
 40
1
 40
1
 40
1
 10
-18.563789
 20
181.808210
 30
0.0
 10
-18.562989
 20
180.372610
 30
0.0
 10
-18.039680
 20
179.072450
 30
0.0
 10
-17.228552
 20
178.490670
 30
0.0
  0
SPLINE
  5
1f6
100
AcDbEntity
  8
Layer_1
 62
7
100
AcDbSpline
 70
8
 71
3
 72
8
 73
4
 74
0
 40
0
 40
0
 40
0
 40
0
 40
1
 40
1
 40
1
 40
1
 10
-17.228552
 20
178.490670
 30
0.0
 10
-18.039327
 20
177.909130
 30
0.0
 10
-18.562541
 20
176.609840
 30
0.0
 10
-18.563789
 20
175.174860
 30
0.0
  0
SPLINE
  5
1f7
100
AcDbEntity
  8
Layer_1
 62
7
100
AcDbSpline
 70
8
 71
3
 72
8
 73
4
 74
0
 40
0
 40
0
 40
0
 40
0
 40
1
 40
1
 40
1
 40
1
 10
-18.563789
 20
175.174860
 30
0.0
 10
-18.562989
 20
173.739260
 30
0.0
 10
-18.039680
 20
172.439100
 30
0.0
 10
-17.228552
 20
171.857320
 30
0.0
  0
SPLINE
  5
1f8
100
AcDbEntity
  8
Layer_1
 62
7
100
AcDbSpline
 70
8
 71
3
 72
8
 73
4
 74
0
 40
0
 40
0
 40
0
 40
0
 40
1
 40
1
 40
1
 40
1
 10
-17.228552
 20
171.857320
 30
0.0
 10
-18.039325
 20
171.275790
 30
0.0
 10
-18.562539
 20
169.976490
 30
0.0
 10
-18.563789
 20
168.541510
 30
0.0
  0
SPLINE
  5
1f9
100
AcDbEntity
  8
Layer_1
 62
7
100
AcDbSpline
 70
8
 71
3
 72
8
 73
4
 74
0
 40
0
 40
0
 40
0
 40
0
 40
1
 40
1
 40
1
 40
1
 10
-18.563789
 20
168.541510
 30
0.0
 10
-18.562829
 20
167.106120
 30
0.0
 10
-18.039563
 20
165.806250
 30
0.0
 10
-17.228552
 20
165.224540
 30
0.0
  0
SPLINE
  5
1fa
100
AcDbEntity
  8
Layer_1
 62
7
100
AcDbSpline
 70
8
 71
3
 72
8
 73
4
 74
0
 40
0
 40
0
 40
0
 40
0
 40
1
 40
1
 40
1
 40
1
 10
-17.228552
 20
165.224540
 30
0.0
 10
-18.039325
 20
164.643020
 30
0.0
 10
-18.562539
 20
163.343720
 30
0.0
 10
-18.563789
 20
161.908740
 30
0.0
  0
SPLINE
  5
1fb
100
AcDbEntity
  8
Layer_1
 62
7
100
AcDbSpline
 70
8
 71
3
 72
8
 73
4
 74
0
 40
0
 40
0
 40
0
 40
0
 40
1
 40
1
 40
1
 40
1
 10
-18.563789
 20
161.908740
 30
0.0
 10
-18.562989
 20
160.473130
 30
0.0
 10
-18.039683
 20
159.172970
 30
0.0
 10
-17.228552
 20
158.591200
 30
0.0
  0
SPLINE
  5
1fc
100
AcDbEntity
  8
Layer_1
 62
7
100
AcDbSpline
 70
8
 71
3
 72
8
 73
4
 74
0
 40
0
 40
0
 40
0
 40
0
 40
1
 40
1
 40
1
 40
1
 10
-17.228552
 20
158.591200
 30
0.0
 10
-18.039325
 20
158.009670
 30
0.0
 10
-18.562539
 20
156.710360
 30
0.0
 10
-18.563789
 20
155.275380
 30
0.0
  0
SPLINE
  5
1fd
100
AcDbEntity
  8
Layer_1
 62
7
100
AcDbSpline
 70
8
 71
3
 72
8
 73
4
 74
0
 40
0
 40
0
 40
0
 40
0
 40
1
 40
1
 40
1
 40
1
 10
-18.563789
 20
155.275380
 30
0.0
 10
-18.563078
 20
153.840000
 30
0.0
 10
-18.040033
 20
152.539900
 30
0.0
 10
-17.229131
 20
151.957840
 30
0.0
  0
SPLINE
  5
1fe
100
AcDbEntity
  8
Layer_1
 62
7
100
AcDbSpline
 70
8
 71
3
 72
8
 73
4
 74
0
 40
0
 40
0
 40
0
 40
0
 40
1
 40
1
 40
1
 40
1
 10
-17.229131
 20
151.957840
 30
0.0
 10
-18.039561
 20
151.376120
 30
0.0
 10
-18.562501
 20
150.077150
 30
0.0
 10
-18.563789
 20
148.642610
 30
0.0
  0
SPLINE
  5
1ff
100
AcDbEntity
  8
Layer_1
 62
7
100
AcDbSpline
 70
8
 71
3
 72
8
 73
4
 74
0
 40
0
 40
0
 40
0
 40
0
 40
1
 40
1
 40
1
 40
1
 10
-18.563789
 20
148.642610
 30
0.0
 10
-18.562989
 20
147.207000
 30
0.0
 10
-18.039680
 20
145.906850
 30
0.0
 10
-17.228552
 20
145.325070
 30
0.0
  0
SPLINE
  5
200
100
AcDbEntity
  8
Layer_1
 62
7
100
AcDbSpline
 70
8
 71
3
 72
8
 73
4
 74
0
 40
0
 40
0
 40
0
 40
0
 40
1
 40
1
 40
1
 40
1
 10
-17.228552
 20
145.325070
 30
0.0
 10
-18.039325
 20
144.743540
 30
0.0
 10
-18.562539
 20
143.444240
 30
0.0
 10
-18.563789
 20
142.009260
 30
0.0
  0
SPLINE
  5
201
100
AcDbEntity
  8
Layer_1
 62
7
100
AcDbSpline
 70
8
 71
3
 72
8
 73
4
 74
0
 40
0
 40
0
 40
0
 40
0
 40
1
 40
1
 40
1
 40
1
 10
-18.563789
 20
142.009260
 30
0.0
 10
-18.562989
 20
140.573650
 30
0.0
 10
-18.039683
 20
139.273500
 30
0.0
 10
-17.228552
 20
138.691720
 30
0.0
  0
SPLINE
  5
202
100
AcDbEntity
  8
Layer_1
 62
7
100
AcDbSpline
 70
8
 71
3
 72
8
 73
4
 74
0
 40
0
 40
0
 40
0
 40
0
 40
1
 40
1
 40
1
 40
1
 10
-17.228552
 20
138.691720
 30
0.0
 10
-18.039206
 20
138.110270
 30
0.0
 10
-18.562397
 20
136.811250
 30
0.0
 10
-18.563789
 20
135.376480
 30
0.0
  0
SPLINE
  5
203
100
AcDbEntity
  8
Layer_1
 62
7
100
AcDbSpline
 70
8
 71
3
 72
8
 73
4
 74
0
 40
0
 40
0
 40
0
 40
0
 40
1
 40
1
 40
1
 40
1
 10
-18.563789
 20
135.376480
 30
0.0
 10
-18.562989
 20
133.940880
 30
0.0
 10
-18.039683
 20
132.640720
 30
0.0
 10
-17.228552
 20
132.058940
 30
0.0
  0
SPLINE
  5
204
100
AcDbEntity
  8
Layer_1
 62
7
100
AcDbSpline
 70
8
 71
3
 72
8
 73
4
 74
0
 40
0
 40
0
 40
0
 40
0
 40
1
 40
1
 40
1
 40
1
 10
-17.228552
 20
132.058940
 30
0.0
 10
-18.039325
 20
131.477410
 30
0.0
 10
-18.562539
 20
130.178110
 30
0.0
 10
-18.563789
 20
128.743130
 30
0.0
  0
SPLINE
  5
205
100
AcDbEntity
  8
Layer_1
 62
7
100
AcDbSpline
 70
8
 71
3
 72
8
 73
4
 74
0
 40
0
 40
0
 40
0
 40
0
 40
1
 40
1
 40
1
 40
1
 10
-18.563789
 20
128.743130
 30
0.0
 10
-18.562989
 20
127.307530
 30
0.0
 10
-18.039683
 20
126.007370
 30
0.0
 10
-17.228552
 20
125.425590
 30
0.0
  0
SPLINE
  5
206
100
AcDbEntity
  8
Layer_1
 62
7
100
AcDbSpline
 70
8
 71
3
 72
8
 73
4
 74
0
 40
0
 40
0
 40
0
 40
0
 40
1
 40
1
 40
1
 40
1
 10
-17.228552
 20
125.425590
 30
0.0
 10
-18.039206
 20
124.844140
 30
0.0
 10
-18.562397
 20
123.545120
 30
0.0
 10
-18.563789
 20
122.110360
 30
0.0
  0
SPLINE
  5
207
100
AcDbEntity
  8
Layer_1
 62
7
100
AcDbSpline
 70
8
 71
3
 72
8
 73
4
 74
0
 40
0
 40
0
 40
0
 40
0
 40
1
 40
1
 40
1
 40
1
 10
-18.563789
 20
122.110360
 30
0.0
 10
-18.562989
 20
120.674750
 30
0.0
 10
-18.039680
 20
119.374600
 30
0.0
 10
-17.228552
 20
118.792810
 30
0.0
  0
SPLINE
  5
208
100
AcDbEntity
  8
Layer_1
 62
7
100
AcDbSpline
 70
8
 71
3
 72
8
 73
4
 74
0
 40
0
 40
0
 40
0
 40
0
 40
1
 40
1
 40
1
 40
1
 10
-17.228552
 20
118.792810
 30
0.0
 10
-18.039327
 20
118.211280
 30
0.0
 10
-18.562541
 20
116.911990
 30
0.0
 10
-18.563789
 20
115.477000
 30
0.0
  0
SPLINE
  5
209
100
AcDbEntity
  8
Layer_1
 62
7
100
AcDbSpline
 70
8
 71
3
 72
8
 73
4
 74
0
 40
0
 40
0
 40
0
 40
0
 40
1
 40
1
 40
1
 40
1
 10
-18.563789
 20
115.477000
 30
0.0
 10
-18.562989
 20
114.041400
 30
0.0
 10
-18.039680
 20
112.741240
 30
0.0
 10
-17.228552
 20
112.159470
 30
0.0
  0
SPLINE
  5
20a
100
AcDbEntity
  8
Layer_1
 62
7
100
AcDbSpline
 70
8
 71
3
 72
8
 73
4
 74
0
 40
0
 40
0
 40
0
 40
0
 40
1
 40
1
 40
1
 40
1
 10
-17.228552
 20
112.159470
 30
0.0
 10
-18.039325
 20
111.577940
 30
0.0
 10
-18.562539
 20
110.278640
 30
0.0
 10
-18.563789
 20
108.843650
 30
0.0
  0
SPLINE
  5
20b
100
AcDbEntity
  8
Layer_1
 62
7
100
AcDbSpline
 70
8
 71
3
 72
8
 73
4
 74
0
 40
0
 40
0
 40
0
 40
0
 40
1
 40
1
 40
1
 40
1
 10
-18.563789
 20
108.843650
 30
0.0
 10
-18.562829
 20
107.408260
 30
0.0
 10
-18.039563
 20
106.108380
 30
0.0
 10
-17.228552
 20
105.526690
 30
0.0
  0
SPLINE
  5
20c
100
AcDbEntity
  8
Layer_1
 62
7
100
AcDbSpline
 70
8
 71
3
 72
8
 73
4
 74
0
 40
0
 40
0
 40
0
 40
0
 40
1
 40
1
 40
1
 40
1
 10
-17.228552
 20
105.526690
 30
0.0
 10
-18.039325
 20
104.945160
 30
0.0
 10
-18.562539
 20
103.645860
 30
0.0
 10
-18.563789
 20
102.210880
 30
0.0
  0
SPLINE
  5
20d
100
AcDbEntity
  8
Layer_1
 62
7
100
AcDbSpline
 70
8
 71
3
 72
8
 73
4
 74
0
 40
0
 40
0
 40
0
 40
0
 40
1
 40
1
 40
1
 40
1
 10
-18.563789
 20
102.210880
 30
0.0
 10
-18.562989
 20
100.775280
 30
0.0
 10
-18.039680
 20
99.475120
 30
0.0
 10
-17.228552
 20
98.893340
 30
0.0
  0
SPLINE
  5
20e
100
AcDbEntity
  8
Layer_1
 62
7
100
AcDbSpline
 70
8
 71
3
 72
8
 73
4
 74
0
 40
0
 40
0
 40
0
 40
0
 40
1
 40
1
 40
1
 40
1
 10
-17.228552
 20
98.893340
 30
0.0
 10
-18.039327
 20
98.311800
 30
0.0
 10
-18.562541
 20
97.012510
 30
0.0
 10
-18.563789
 20
95.577530
 30
0.0
  0
SPLINE
  5
20f
100
AcDbEntity
  8
Layer_1
 62
7
100
AcDbSpline
 70
8
 71
3
 72
8
 73
4
 74
0
 40
0
 40
0
 40
0
 40
0
 40
1
 40
1
 40
1
 40
1
 10
-18.563789
 20
95.577530
 30
0.0
 10
-18.563078
 20
94.142150
 30
0.0
 10
-18.040033
 20
92.842050
 30
0.0
 10
-17.229131
 20
92.259980
 30
0.0
  0
SPLINE
  5
210
100
AcDbEntity
  8
Layer_1
 62
7
100
AcDbSpline
 70
8
 71
3
 72
8
 73
4
 74
0
 40
0
 40
0
 40
0
 40
0
 40
1
 40
1
 40
1
 40
1
 10
-17.229131
 20
92.259980
 30
0.0
 10
-18.039561
 20
91.678260
 30
0.0
 10
-18.562501
 20
90.379290
 30
0.0
 10
-18.563789
 20
88.944760
 30
0.0
  0
SPLINE
  5
211
100
AcDbEntity
  8
Layer_1
 62
7
100
AcDbSpline
 70
8
 71
3
 72
8
 73
4
 74
0
 40
0
 40
0
 40
0
 40
0
 40
1
 40
1
 40
1
 40
1
 10
-18.563789
 20
88.944760
 30
0.0
 10
-18.562989
 20
87.509150
 30
0.0
 10
-18.039680
 20
86.209000
 30
0.0
 10
-17.228552
 20
85.627210
 30
0.0
  0
SPLINE
  5
212
100
AcDbEntity
  8
Layer_1
 62
7
100
AcDbSpline
 70
8
 71
3
 72
8
 73
4
 74
0
 40
0
 40
0
 40
0
 40
0
 40
1
 40
1
 40
1
 40
1
 10
-17.228552
 20
85.627210
 30
0.0
 10
-18.039325
 20
85.045680
 30
0.0
 10
-18.562539
 20
83.746380
 30
0.0
 10
-18.563789
 20
82.311400
 30
0.0
  0
SPLINE
  5
213
100
AcDbEntity
  8
Layer_1
 62
7
100
AcDbSpline
 70
8
 71
3
 72
8
 73
4
 74
0
 40
0
 40
0
 40
0
 40
0
 40
1
 40
1
 40
1
 40
1
 10
-18.563789
 20
82.311400
 30
0.0
 10
-18.562989
 20
80.875800
 30
0.0
 10
-18.039683
 20
79.575640
 30
0.0
 10
-17.228552
 20
78.993860
 30
0.0
  0
SPLINE
  5
214
100
AcDbEntity
  8
Layer_1
 62
7
100
AcDbSpline
 70
8
 71
3
 72
8
 73
4
 74
0
 40
0
 40
0
 40
0
 40
0
 40
1
 40
1
 40
1
 40
1
 10
-17.228552
 20
78.993860
 30
0.0
 10
-18.039206
 20
78.412410
 30
0.0
 10
-18.562397
 20
77.113400
 30
0.0
 10
-18.563789
 20
75.678630
 30
0.0
  0
SPLINE
  5
215
100
AcDbEntity
  8
Layer_1
 62
7
100
AcDbSpline
 70
8
 71
3
 72
8
 73
4
 74
0
 40
0
 40
0
 40
0
 40
0
 40
1
 40
1
 40
1
 40
1
 10
-18.563789
 20
75.678630
 30
0.0
 10
-18.562989
 20
74.244110
 30
0.0
 10
-18.040501
 20
72.944700
 30
0.0
 10
-17.230289
 20
72.362240
 30
0.0
  0
SPLINE
  5
216
100
AcDbEntity
  8
Layer_1
 62
7
100
AcDbSpline
 70
8
 71
3
 72
8
 73
4
 74
0
 40
0
 40
0
 40
0
 40
0
 40
1
 40
1
 40
1
 40
1
 10
-17.230289
 20
72.362240
 30
0.0
 10
-18.040621
 20
71.779690
 30
0.0
 10
-18.563128
 20
70.480000
 30
0.0
 10
-18.563789
 20
69.045280
 30
0.0
  0
SPLINE
  5
217
100
AcDbEntity
  8
Layer_1
 62
7
100
AcDbSpline
 70
8
 71
3
 72
8
 73
4
 74
0
 40
0
 40
0
 40
0
 40
0
 40
1
 40
1
 40
1
 40
1
 10
-18.563789
 20
69.045280
 30
0.0
 10
-18.562989
 20
67.609680
 30
0.0
 10
-18.039680
 20
66.309520
 30
0.0
 10
-17.228552
 20
65.727730
 30
0.0
  0
SPLINE
  5
218
100
AcDbEntity
  8
Layer_1
 62
7
100
AcDbSpline
 70
8
 71
3
 72
8
 73
4
 74
0
 40
0
 40
0
 40
0
 40
0
 40
1
 40
1
 40
1
 40
1
 10
-17.228552
 20
65.727730
 30
0.0
 10
-18.039208
 20
65.146280
 30
0.0
 10
-18.562399
 20
63.847270
 30
0.0
 10
-18.563789
 20
62.412510
 30
0.0
  0
SPLINE
  5
219
100
AcDbEntity
  8
Layer_1
 62
7
100
AcDbSpline
 70
8
 71
3
 72
8
 73
4
 74
0
 40
0
 40
0
 40
0
 40
0
 40
1
 40
1
 40
1
 40
1
 10
-18.563789
 20
62.412510
 30
0.0
 10
-18.562989
 20
60.976900
 30
0.0
 10
-18.039680
 20
59.676720
 30
0.0
 10
-17.228552
 20
59.094960
 30
0.0
  0
SPLINE
  5
21a
100
AcDbEntity
  8
Layer_1
 62
7
100
AcDbSpline
 70
8
 71
3
 72
8
 73
4
 74
0
 40
0
 40
0
 40
0
 40
0
 40
1
 40
1
 40
1
 40
1
 10
-17.228552
 20
59.094960
 30
0.0
 10
-18.039325
 20
58.513440
 30
0.0
 10
-18.562539
 20
57.214130
 30
0.0
 10
-18.563789
 20
55.779150
 30
0.0
  0
SPLINE
  5
21b
100
AcDbEntity
  8
Layer_1
 62
7
100
AcDbSpline
 70
8
 71
3
 72
8
 73
4
 74
0
 40
0
 40
0
 40
0
 40
0
 40
1
 40
1
 40
1
 40
1
 10
-18.563789
 20
55.779150
 30
0.0
 10
-18.562989
 20
54.343550
 30
0.0
 10
-18.039680
 20
53.043390
 30
0.0
 10
-17.228552
 20
52.461600
 30
0.0
  0
SPLINE
  5
21c
100
AcDbEntity
  8
Layer_1
 62
7
100
AcDbSpline
 70
8
 71
3
 72
8
 73
4
 74
0
 40
0
 40
0
 40
0
 40
0
 40
1
 40
1
 40
1
 40
1
 10
-17.228552
 20
52.461600
 30
0.0
 10
-18.039327
 20
51.880070
 30
0.0
 10
-18.562541
 20
50.580780
 30
0.0
 10
-18.563789
 20
49.145800
 30
0.0
  0
SPLINE
  5
21d
100
AcDbEntity
  8
Layer_1
 62
7
100
AcDbSpline
 70
8
 71
3
 72
8
 73
4
 74
0
 40
0
 40
0
 40
0
 40
0
 40
1
 40
1
 40
1
 40
1
 10
-18.563789
 20
49.145800
 30
0.0
 10
-18.562829
 20
47.710400
 30
0.0
 10
-18.039561
 20
46.410540
 30
0.0
 10
-17.228552
 20
45.828840
 30
0.0
  0
SPLINE
  5
21e
100
AcDbEntity
  8
Layer_1
 62
7
100
AcDbSpline
 70
8
 71
3
 72
8
 73
4
 74
0
 40
0
 40
0
 40
0
 40
0
 40
1
 40
1
 40
1
 40
1
 10
-17.228552
 20
45.828840
 30
0.0
 10
-18.039327
 20
45.247290
 30
0.0
 10
-18.562541
 20
43.948000
 30
0.0
 10
-18.563789
 20
42.513030
 30
0.0
  0
SPLINE
  5
21f
100
AcDbEntity
  8
Layer_1
 62
7
100
AcDbSpline
 70
8
 71
3
 72
8
 73
4
 74
0
 40
0
 40
0
 40
0
 40
0
 40
1
 40
1
 40
1
 40
1
 10
-18.563789
 20
42.513030
 30
0.0
 10
-18.562989
 20
41.077420
 30
0.0
 10
-18.039680
 20
39.777270
 30
0.0
 10
-17.228552
 20
39.195480
 30
0.0
  0
SPLINE
  5
220
100
AcDbEntity
  8
Layer_1
 62
7
100
AcDbSpline
 70
8
 71
3
 72
8
 73
4
 74
0
 40
0
 40
0
 40
0
 40
0
 40
1
 40
1
 40
1
 40
1
 10
-17.228552
 20
39.195480
 30
0.0
 10
-18.039325
 20
38.613960
 30
0.0
 10
-18.562539
 20
37.314650
 30
0.0
 10
-18.563789
 20
35.879680
 30
0.0
  0
SPLINE
  5
221
100
AcDbEntity
  8
Layer_1
 62
7
100
AcDbSpline
 70
8
 71
3
 72
8
 73
4
 74
0
 40
0
 40
0
 40
0
 40
0
 40
1
 40
1
 40
1
 40
1
 10
-18.563789
 20
35.879680
 30
0.0
 10
-18.563078
 20
34.444290
 30
0.0
 10
-18.040035
 20
33.144200
 30
0.0
 10
-17.229131
 20
32.562130
 30
0.0
  0
SPLINE
  5
222
100
AcDbEntity
  8
Layer_1
 62
7
100
AcDbSpline
 70
8
 71
3
 72
8
 73
4
 74
0
 40
0
 40
0
 40
0
 40
0
 40
1
 40
1
 40
1
 40
1
 10
-17.229131
 20
32.562130
 30
0.0
 10
-18.039559
 20
31.980400
 30
0.0
 10
-18.562499
 20
30.681440
 30
0.0
 10
-18.563789
 20
29.246900
 30
0.0
  0
SPLINE
  5
223
100
AcDbEntity
  8
Layer_1
 62
7
100
AcDbSpline
 70
8
 71
3
 72
8
 73
4
 74
0
 40
0
 40
0
 40
0
 40
0
 40
1
 40
1
 40
1
 40
1
 10
-18.563789
 20
29.246900
 30
0.0
 10
-18.562989
 20
27.811290
 30
0.0
 10
-18.039683
 20
26.511140
 30
0.0
 10
-17.228552
 20
25.929360
 30
0.0
  0
SPLINE
  5
224
100
AcDbEntity
  8
Layer_1
 62
7
100
AcDbSpline
 70
8
 71
3
 72
8
 73
4
 74
0
 40
0
 40
0
 40
0
 40
0
 40
1
 40
1
 40
1
 40
1
 10
-17.228552
 20
25.929360
 30
0.0
 10
-18.039325
 20
25.347830
 30
0.0
 10
-18.562539
 20
24.048520
 30
0.0
 10
-18.563788
 20
22.613550
 30
0.0
  0
LWPOLYLINE
  5
225
100
AcDbEntity
  8
Layer_1
 62
7
100
AcDbPolyline
 90
5
 70
0
 10
22.041908
 20
238.428717
 30
0.0
 10
22.041908
 20
238.922413
 30
0.0
 10
-16.315316
 20
238.922413
 30
0.0
 10
-16.315316
 20
238.505117
 30
0.0
 10
-16.318716
 20
238.505117
 30
0.0
  0
LWPOLYLINE
  5
226
100
AcDbEntity
  8
Layer_1
 62
7
100
AcDbPolyline
 90
1
 70
1
 10
-18.563788
 20
22.613550
 30
0.0
  0
ENDSEC
  0
SECTION
  2
OBJECTS
  0
DICTIONARY
  5
C
330
0
100
AcDbDictionary
  3
ACAD_GROUP
350
D
  3
ACAD_MLINESTYLE
350
17
  0
DICTIONARY
  5
D
330
C
100
AcDbDictionary
  0
DICTIONARY
  5
1A
330
C
100
AcDbDictionary
  0
DICTIONARY
  5
17
330
C
100
AcDbDictionary
  3
STANDARD
350
18
  0
DICTIONARY
  5
19
330
C
100
AcDbDictionary
  0
ENDSEC
  0
EOF
