<?xml version="1.0" encoding="UTF-8" standalone="no"?>
<!-- Created with Inkscape (http://www.inkscape.org/) -->

<svg
   xmlns:dc="http://purl.org/dc/elements/1.1/"
   xmlns:cc="http://creativecommons.org/ns#"
   xmlns:rdf="http://www.w3.org/1999/02/22-rdf-syntax-ns#"
   xmlns:svg="http://www.w3.org/2000/svg"
   xmlns="http://www.w3.org/2000/svg"
   xmlns:sodipodi="http://sodipodi.sourceforge.net/DTD/sodipodi-0.dtd"
   xmlns:inkscape="http://www.inkscape.org/namespaces/inkscape"
   width="210mm"
   height="297mm"
   viewBox="0 0 210 297"
   version="1.1"
   id="svg8"
   inkscape:version="0.92.2 (5c3e80d, 2017-08-06)"
   sodipodi:docname="v6.0.MVMask-Adult.svg">
  <defs
     id="defs2" />
  <sodipodi:namedview
     id="base"
     pagecolor="#ffffff"
     bordercolor="#666666"
     borderopacity="1.0"
     inkscape:pageopacity="0.0"
     inkscape:pageshadow="2"
     inkscape:zoom="0.24748737"
     inkscape:cx="550.64337"
     inkscape:cy="493.03052"
     inkscape:document-units="mm"
     inkscape:current-layer="layer1"
     showgrid="false"
     inkscape:window-width="1600"
     inkscape:window-height="837"
     inkscape:window-x="-8"
     inkscape:window-y="-8"
     inkscape:window-maximized="1" />
  <metadata
     id="metadata5">
    <rdf:RDF>
      <cc:Work
         rdf:about="">
        <dc:format>image/svg+xml</dc:format>
        <dc:type
           rdf:resource="http://purl.org/dc/dcmitype/StillImage" />
        <dc:title></dc:title>
      </cc:Work>
    </rdf:RDF>
  </metadata>
  <g
     inkscape:label="Layer 1"
     inkscape:groupmode="layer"
     id="layer1">
    <path
       style="opacity:1;fill:#999999;fill-opacity:0.98994978;stroke:none;stroke-width:0.68488848;stroke-miterlimit:4;stroke-dasharray:none;stroke-opacity:1"
       d="m 5.0621201,-15.575927 c -2.50769,7.8e-5 -4.54051,1.256498 -4.5405,2.80634 v 0.0043 H 0 v 47.94653 h 0.6214601 c 0.4368,1.301203 2.29044,2.234664 4.44066,2.236246 1.79423,-7.41e-4 3.41935,-0.654697 4.14693,-1.668324 0.72727,1.013183 2.3513199,1.66689 4.1447599,1.668324 1.79423,-7.41e-4 3.41934,-0.654693 4.14693,-1.668324 0.72716,1.013034 2.35086,1.666712 4.14404,1.668324 1.79422,-7.41e-4 3.41933,-0.654693 4.14693,-1.668324 0.72727,1.013183 2.35132,1.66689 4.14476,1.668324 1.79422,-7.41e-4 3.41935,-0.654697 4.14693,-1.668324 0.72716,1.013038 2.35086,1.666712 4.14404,1.668324 1.79422,-7.41e-4 3.41935,-0.654697 4.14693,-1.668324 0.72727,1.013183 2.35131,1.66689 4.14475,1.668324 1.79423,-7.41e-4 3.41934,-0.654693 4.14693,-1.668324 0.30487,0.424639 1.95863,2.012863 2.33898,2.301358 -0.99983,0.758521 -1.63887,2.383321 -1.6401,4.170085 10e-4,1.786501 0.64041,3.410952 1.6401,4.169358 -0.99983,0.758517 -1.63887,2.383316 -1.6401,4.17008 10e-4,1.786764 0.64027,3.411563 1.6401,4.17008 -0.99969,0.758406 -1.6387,2.382857 -1.6401,4.169359 10e-4,1.786764 0.64027,3.411563 1.6401,4.17008 -0.99983,0.758521 -1.63887,2.38332 -1.6401,4.170084 10e-4,1.786501 0.64041,3.410952 1.6401,4.169358 -0.99983,0.758517 -1.63887,2.383317 -1.6401,4.170081 10e-4,1.786764 0.64027,3.411563 1.6401,4.17008 -0.99969,0.758406 -1.6387,2.382857 -1.6401,4.169357 3.7e-4,0.39389 0.032,0.78607 0.0941,1.16696 -0.32472,0.21993 -0.59511,0.47181 -0.7951,0.74951 -0.72727,-1.01318 -2.35132,-1.66689 -4.14476,-1.66832 -1.79422,7.4e-4 -3.41935,0.6547 -4.14693,1.66832 -0.72726,-1.01318 -2.35132,-1.66688 -4.14476,-1.66832 -1.79397,0.001 -3.41872,0.65484 -4.1462,1.66832 -0.72726,-1.01318 -2.35132,-1.66688 -4.14477,-1.66832 -1.79422,7.4e-4 -3.41935,0.6547 -4.14693,1.66832 -0.72727,-1.01318 -2.35131,-1.66689 -4.14476,-1.66832 -1.79394,7.4e-4 -3.419,0.65426 -4.14693,1.6676 -0.72751,-1.01275 -2.35112,-1.66611 -4.14403,-1.6676 -1.79423,7.4e-4 -3.4193499,0.6547 -4.1469299,1.66832 -0.72726,-1.01318 -2.35132,-1.66688 -4.14476,-1.66832 -2.18782,0.001 -4.06345,0.96601 -4.46164,2.29557 H 5e-5 v 52.147005 h 0.5339201 c 0.17124,1.46758 2.14743,2.60424 4.5282,2.60449 1.79423,-7.4e-4 3.41935,-0.65469 4.14693,-1.66832 0.72726,1.01318 2.3513199,1.66688 4.1447599,1.66832 1.79423,-7.4e-4 3.41935,-0.65469 4.14693,-1.66832 0.72716,1.01303 2.35086,1.66671 4.14404,1.66832 1.79422,-7.4e-4 3.41935,-0.65469 4.14693,-1.66832 0.72726,1.01318 2.35132,1.66688 4.14476,1.66832 1.79422,-7.4e-4 3.41935,-0.65469 4.14693,-1.66832 0.72716,1.01304 2.35086,1.66671 4.14404,1.66832 1.79422,-7.4e-4 3.41935,-0.65469 4.14693,-1.66832 0.72725,1.01318 2.35131,1.66688 4.14475,1.66832 1.79423,-7.4e-4 3.41935,-0.65469 4.14693,-1.66832 0.23101,0.32204 0.55938,0.60788 0.95499,0.8508 -0.16786,0.59663 -0.25517,1.2443 -0.25611,1.89983 10e-4,1.78677 0.64027,3.41157 1.6401,4.17008 -0.99983,0.75852 -1.63887,2.38332 -1.6401,4.17008 10e-4,1.7865 0.64041,3.41096 1.6401,4.16936 -0.99983,0.75852 -1.63887,2.38332 -1.6401,4.17009 10e-4,1.7865 0.64042,3.41094 1.6401,4.16935 -0.99983,0.75852 -1.63887,2.38332 -1.6401,4.17008 10e-4,1.78677 0.64027,3.41157 1.6401,4.17009 -0.99983,0.75852 -1.63887,2.38332 -1.6401,4.17008 10e-4,1.7865 0.64041,3.41095 1.6401,4.16936 -0.99983,0.75851 -1.63887,2.38331 -1.6401,4.17008 10e-4,1.78756 0.641,3.41285 1.64155,4.1708 -1.00011,0.75762 -1.63971,2.38187 -1.64155,4.16864 10e-4,1.78676 0.64027,3.41156 1.6401,4.17008 -0.99969,0.75841 -1.6387,2.38286 -1.6401,4.16936 10e-4,1.78676 0.64027,3.41156 1.6401,4.17008 -0.99983,0.75852 -1.63887,2.38332 -1.6401,4.17008 10e-4,1.7865 0.64041,3.41095 1.6401,4.16936 -0.99983,0.75852 -1.63887,2.38332 -1.6401,4.17008 10e-4,1.78677 0.64027,3.41157 1.6401,4.17008 -0.99969,0.75841 -1.6387,2.38286 -1.6401,4.16936 10e-4,1.78676 0.64027,3.41156 1.6401,4.17008 -0.99983,0.75852 -1.63887,2.38332 -1.6401,4.17008 10e-4,1.7873 0.64115,3.41224 1.64155,4.17008 -1.00026,0.75773 -1.63988,2.38232 -1.64155,4.16936 10e-4,1.7865 0.64041,3.41095 1.6401,4.16936 -0.99983,0.75852 -1.63887,2.38332 -1.6401,4.17008 10e-4,1.78677 0.64027,3.41157 1.6401,4.17008 -0.99983,0.75852 -1.63887,2.38332 -1.6401,4.17008 10e-4,1.7865 0.64041,3.41095 1.6401,4.16936 -0.99983,0.75852 -1.63887,2.38332 -1.6401,4.17008 10e-4,1.7865 0.64041,3.41095 1.6401,4.16936 -0.99983,0.75852 -1.63887,2.38332 -1.6401,4.17008 10e-4,1.78676 0.64027,3.41156 1.6401,4.17008 -0.99969,0.75841 -1.6387,2.38286 -1.6401,4.16936 10e-4,1.73842 0.60648,3.32803 1.56559,4.11148 -0.95933,0.60187 -1.56467,1.82317 -1.56559,3.15867 -1.5e-4,1.95608 0.61427,5.29008 4.69238,5.3375 0.60525,-0.001 2.41206,-0.90139 2.89974,-1.34688 7.4e-4,1.54968 2.13888,1.57477 4.12675,1.66909 1.79422,-7.4e-4 3.41935,-0.6547 4.14693,-1.66832 0.72716,1.01304 2.35086,1.66671 4.14404,1.66832 1.79422,-7.4e-4 3.41935,-0.6547 4.14693,-1.66832 0.72727,1.01317 2.35131,1.66687 4.14475,1.66832 1.79423,-7.4e-4 3.41935,-0.6547 4.14693,-1.66832 0.72716,1.01304 2.35086,1.66671 4.14404,1.66832 1.79451,-10e-4 3.419699,-0.65514 4.146929,-1.66905 0.72692,1.01347 2.35104,1.66749 4.14476,1.66905 1.79423,-7.4e-4 3.41935,-0.6547 4.146931,-1.66832 0.72727,1.01317 2.35132,1.66687 4.14476,1.66832 1.79451,-10e-4 3.4197,-0.65514 4.14693,-1.66905 0.72681,1.01332 2.35058,1.66731 4.14404,1.66905 1.79422,-7.4e-4 3.41935,-0.6547 4.14693,-1.66832 0.72727,1.01317 2.35132,1.66689 4.14476,1.66832 1.79422,-7.4e-4 3.41935,-0.6547 4.14693,-1.66832 0.72716,1.01304 2.35086,1.66671 4.14404,1.66832 1.79422,-7.4e-4 3.41935,-0.6547 4.14693,-1.66832 0.72727,1.01317 2.35131,1.66687 4.14475,1.66832 1.79423,-7.4e-4 3.41935,-0.6547 4.14693,-1.66832 0.72716,1.01304 2.35086,1.66671 4.14404,1.66832 1.79424,-7.4e-4 3.41935,-0.6547 4.14693,-1.66832 0.72728,1.01317 2.35132,1.66687 4.14476,1.66832 1.79423,-7.4e-4 3.41935,-0.6547 4.14693,-1.66832 0.72727,1.01317 2.35132,1.66687 4.14476,1.66832 1.79452,-10e-4 3.4197,-0.65513 4.14693,-1.66905 0.72681,1.01332 2.3506,1.66731 4.14404,1.66905 1.79424,-7.4e-4 3.41935,-0.6547 4.14693,-1.66832 0.72727,1.01317 2.35132,1.66687 4.14476,1.66832 1.7945,-10e-4 3.4197,-0.65514 4.14693,-1.66905 0.72681,1.01332 2.35058,1.66731 4.14404,1.66905 1.79422,-7.4e-4 3.41935,-0.6547 4.14693,-1.66832 0.72727,1.01317 2.35131,1.66689 4.14475,1.66832 1.79423,-7.4e-4 3.41935,-0.6547 4.14693,-1.66832 0.72717,1.01304 2.35086,1.66671 4.14404,1.66832 1.79424,-7.4e-4 3.41935,-0.6547 4.14693,-1.66832 0.72728,1.01317 2.35132,1.66687 4.14476,1.66832 1.79423,-7.4e-4 3.41935,-0.6547 4.14693,-1.66832 0.72716,1.01304 2.35086,1.66671 4.14404,1.66832 2.3698,1.5e-4 2.971,-4.33844 2.97119,-5.48318 -0.001,-1.40761 -0.61187,-2.69353 -1.57717,-3.32218 0.9662,-0.78034 1.57683,-2.37723 1.57717,-4.1245 -0.002,-1.78651 -0.641,-3.41068 -1.64083,-4.16863 1.00026,-0.75829 1.63964,-2.38352 1.64083,-4.17081 -0.001,-1.7865 -0.64042,-3.41095 -1.64011,-4.16936 0.99984,-0.75852 1.63888,-2.38332 1.64011,-4.17008 -0.001,-1.78677 -0.64086,-3.41129 -1.64083,-4.16936 1.00012,-0.75818 1.63947,-2.38305 1.64083,-4.17008 -0.001,-1.78676 -0.64086,-3.41129 -1.64083,-4.16936 1.00026,-0.75829 1.63964,-2.38351 1.64083,-4.1708 -0.001,-1.7865 -0.64042,-3.41095 -1.64011,-4.16936 0.99984,-0.75852 1.63888,-2.38332 1.64011,-4.17008 -0.001,-1.78677 -0.64086,-3.41129 -1.64083,-4.16936 1.00012,-0.75818 1.63947,-2.38305 1.64083,-4.17008 -0.001,-1.78677 -0.64086,-3.41129 -1.64083,-4.16936 1.00026,-0.75829 1.63964,-2.38351 1.64083,-4.1708 -0.002,-1.78651 -0.641,-3.41068 -1.64083,-4.16864 1.00026,-0.75829 1.63964,-2.38351 1.64083,-4.1708 -0.001,-1.7865 -0.64042,-3.41095 -1.64011,-4.16936 0.99984,-0.75852 1.63888,-2.38332 1.64011,-4.17008 -0.001,-1.78677 -0.64086,-3.41129 -1.64083,-4.16936 1.00012,-0.75818 1.63947,-2.38305 1.64083,-4.17008 -0.003,-1.78732 -0.64292,-3.41142 -1.64373,-4.16791 1.00169,-0.75715 1.64236,-2.38336 1.64373,-4.17225 -0.001,-1.7865 -0.64042,-3.41095 -1.64011,-4.16936 0.99984,-0.75852 1.63888,-2.38332 1.64011,-4.17008 -0.001,-1.78677 -0.64086,-3.41129 -1.64083,-4.16936 1.00012,-0.75818 1.63947,-2.38305 1.64083,-4.17008 -0.001,-1.78677 -0.64086,-3.41129 -1.64083,-4.16936 1.00026,-0.75829 1.63964,-2.38352 1.64083,-4.17081 -0.001,-1.7865 -0.64042,-3.41094 -1.64011,-4.16935 0.99984,-0.75852 1.63888,-2.38332 1.64011,-4.17008 -0.001,-1.78677 -0.64086,-3.41129 -1.64083,-4.16936 1.00012,-0.75818 1.63947,-2.38306 1.64083,-4.17009 -0.001,-1.78676 -0.64086,-3.41129 -1.64083,-4.16935 1.00026,-0.7583 1.63964,-2.38352 1.64083,-4.17081 -0.001,-0.67526 -0.0941,-1.34184 -0.27202,-1.95264 1.71039,0.54429 4.3494,0.86929 5.6105,0.87033 1.79423,-7.4e-4 3.41936,-0.65469 4.14694,-1.66832 0.72727,1.01318 2.35131,1.66689 4.14476,1.66832 1.79422,-7.4e-4 3.41935,-0.65469 4.14693,-1.66832 0.72716,1.01304 2.35086,1.66671 4.14403,1.66832 1.79423,-7.4e-4 3.41938,-0.65469 4.14693,-1.66832 0.72726,1.01318 2.35132,1.66688 4.14476,1.66832 1.79423,-7.4e-4 3.41935,-0.65469 4.14693,-1.66832 0.72716,1.01303 2.35086,1.66671 4.14404,1.66832 1.79423,-7.4e-4 3.41935,-0.65469 4.14693,-1.66832 0.72726,1.01318 2.35132,1.66688 4.14476,1.66832 2.37937,-0.001 4.35345,-1.13777 4.52458,-2.60449 h 0.53749 V 86.462285 h -0.59976 c -0.39824,-1.32973 -2.27427,-2.29481 -4.46236,-2.29557 -1.79423,7.4e-4 -3.41935,0.65469 -4.14693,1.66833 -0.72726,-1.01319 -2.35132,-1.66689 -4.14476,-1.66833 -1.79396,0.001 -3.41872,0.65485 -4.14621,1.66833 -0.72727,-1.01319 -2.35131,-1.66689 -4.14476,-1.66833 -1.79422,7.4e-4 -3.41935,0.6547 -4.14693,1.66833 -0.72726,-1.01319 -2.35132,-1.66689 -4.14476,-1.66833 -1.79396,7.4e-4 -3.419,0.65425 -4.14693,1.6676 -0.72751,-1.01275 -2.35114,-1.66611 -4.14403,-1.6676 -1.79423,7.4e-4 -3.41935,0.65469 -4.14693,1.66833 -0.72726,-1.01319 -2.35132,-1.66689 -4.14477,-1.66833 -1.79422,7.4e-4 -3.41935,0.6547 -4.14693,1.66833 -0.2858,-0.39803 -0.71763,-0.74225 -1.24726,-1.01504 0.0368,-0.29679 0.0555,-0.59873 0.0557,-0.90144 -10e-4,-1.73245 -0.60274,-3.317483 -1.55691,-4.103522 v -0.125882 c 0.95546,-0.787102 1.55705,-2.375241 1.55691,-4.110032 -10e-4,-1.732709 -0.6026,-3.318089 -1.55691,-4.104247 V 71.349 c 0.95531,-0.786983 1.55688,-2.374778 1.55691,-4.10931 -10e-4,-1.732709 -0.6026,-3.318089 -1.55691,-4.104246 v -0.125886 c 0.95546,-0.787102 1.55705,-2.375241 1.55691,-4.110032 -10e-4,-1.73245 -0.60274,-3.317482 -1.55691,-4.103521 v -0.125886 c 0.95546,-0.787102 1.55705,-2.375241 1.55691,-4.110032 -10e-4,-1.732709 -0.6026,-3.318089 -1.55691,-4.104246 v -0.125883 c 0.95531,-0.786983 1.55688,-2.374778 1.55691,-4.109309 -10e-4,-1.73271 -0.6026,-3.318089 -1.55691,-4.104247 v -0.125886 c 0.2828,-0.234922 0.53931,-0.544742 0.75892,-0.916633 0.876,-0.292429 1.58218,-0.754583 1.99316,-1.325399 0.7267,1.013171 2.35013,1.667131 4.14331,1.669046 1.79423,-7.41e-4 3.41936,-0.654697 4.14694,-1.668324 0.72727,1.013186 2.35131,1.66689 4.14476,1.668324 1.79422,-7.41e-4 3.41935,-0.654697 4.14693,-1.668324 0.72716,1.013038 2.35086,1.666712 4.14403,1.668324 1.79423,-7.41e-4 3.41938,-0.654697 4.14693,-1.668324 0.72727,1.013183 2.35132,1.66689 4.14476,1.668324 1.79423,-7.41e-4 3.41934,-0.654693 4.14693,-1.668324 0.72716,1.013034 2.35086,1.666712 4.14404,1.668324 1.79423,-7.41e-4 3.41933,-0.654693 4.14693,-1.668324 0.72727,1.013183 2.35132,1.66689 4.14476,1.668324 2.15186,-3.11e-4 4.00787,-0.934058 4.445,-2.236246 h 0.61712 v -47.94653 h -0.52162 v -0.0043 c 0,-1.549837 -2.03281,-2.806258 -4.5405,-2.806341 -1.7945,10e-4 -3.4197,0.655133 -4.14693,1.669046 -0.72691,-1.013466 -2.35104,-1.667483 -4.14476,-1.669046 -1.79424,0.0012 -3.41908,0.655285 -4.14621,1.669046 -0.72692,-1.013469 -2.35104,-1.667486 -4.14476,-1.669046 -1.7945,10e-4 -3.4197,0.655136 -4.14693,1.669046 -0.72691,-1.013466 -2.35103,-1.667483 -4.14476,-1.669046 -1.79422,8.89e-4 -3.41935,0.654693 -4.14693,1.668322 -0.72716,-1.013034 -2.35086,-1.666709 -4.14403,-1.668322 -1.79451,10e-4 -3.41971,0.655133 -4.14693,1.669046 -0.72691,-1.013466 -2.35104,-1.667483 -4.14477,-1.669046 -1.7945,10e-4 -3.41969,0.655136 -4.14693,1.669046 -0.7268,-1.01332 -2.35057,-1.667308 -4.14403,-1.669046 -1.79451,10e-4 -3.4197,0.655136 -4.14693,1.669046 -0.72691,-1.013466 -2.35104,-1.667483 -4.14476,-1.669046 -1.79451,10e-4 -3.4197,0.655133 -4.14693,1.669046 -0.72681,-1.013317 -2.35058,-1.667306 -4.14404,-1.669046 -1.7945,10e-4 -3.4197,0.655136 -4.14693,1.669046 -0.72692,-1.013469 -2.35104,-1.667486 -4.14476,-1.669046 -1.7945,10e-4 -3.4197,0.655136 -4.14693,1.669046 -0.72691,-1.013466 -2.35103,-1.667483 -4.14476,-1.669046 -1.79424,0.0012 -3.41907,0.655282 -4.14621,1.669046 -0.7269,-1.013466 -2.35103,-1.667483 -4.14475,-1.669046 -1.79451,10e-4 -3.41971,0.655133 -4.14693,1.669046 -0.72691,-1.013466 -2.35104,-1.667483 -4.14477,-1.669046 -1.79422,8.89e-4 -3.41935,0.654695 -4.14693,1.668322 -0.72715,-1.013037 -2.35086,-1.666712 -4.14403,-1.668322 -1.79451,10e-4 -3.4197,0.655136 -4.14693,1.669046 -0.72691,-1.013466 -2.35104,-1.667483 -4.14476,-1.669046 -1.79451,10e-4 -3.4197,0.655133 -4.14693,1.669046 -0.72681,-1.013317 -2.35058,-1.667306 -4.14404,-1.669046 -1.79451,10e-4 -3.4197,0.655133 -4.14693,1.669046 -0.72691,-1.013466 -2.35104,-1.667483 -4.14476,-1.669046 -1.7945,10e-4 -3.4197,0.655133 -4.14693,1.669046 -0.72681,-1.013317 -2.35058,-1.667306 -4.14403,-1.669046 -1.79452,10e-4 -3.41971,0.655136 -4.14694,1.669046 -0.72692,-1.013469 -2.35103,-1.667486 -4.14476,-1.669046 -1.7945,10e-4 -3.4197,0.655136 -4.14692,1.669046 -0.72691,-1.013466 -2.35104,-1.667483 -4.14477,-1.669046 -1.79424,0.0012 -3.41909,0.655282 -4.1462,1.669046 -0.72691,-1.013466 -2.35104,-1.667483 -4.14476,-1.669046 -1.79451,10e-4 -3.4197,0.655136 -4.14693,1.669046 -0.726921,-1.013469 -2.351041,-1.667486 -4.144761,-1.669046 -1.79423,8.89e-4 -3.41935,0.654695 -4.14694,1.668322 -0.72715,-1.013037 -2.350859,-1.666712 -4.144029,-1.668322 -1.79451,10e-4 -3.4197,0.655136 -4.14693,1.669046 -0.72691,-1.013466 -2.35104,-1.667483 -4.14476,-1.669046 -1.79451,10e-4 -3.4197,0.655133 -4.14693,1.669046 -0.72681,-1.013317 -2.35058,-1.667306 -4.14404,-1.669046 -1.79315,10e-4 -3.41741,0.65411 -4.14548,1.666875 -0.72819,-1.012915 -2.3528,-1.666049 -4.14621,-1.666875 -1.7945,10e-4 -3.4197,0.655136 -4.14693,1.669046 -0.72681,-1.01332 -2.35058,-1.667308 -4.14403,-1.669046 -1.79451,10e-4 -3.41973,0.655136 -4.14693,1.669046 -0.72691,-1.013466 -2.35104,-1.667483 -4.14477,-1.669046 -1.7945,10e-4 -3.4197,0.655136 -4.14693,1.669046 -0.72692,-1.013469 -2.35103,-1.667486 -4.14475,-1.669046 -1.79425,0.0012 -3.41908,0.655285 -4.14621,1.669046 -0.72693,-1.013469 -2.35104,-1.667486 -4.14476,-1.669046 -1.79451,10e-4 -3.4197,0.655136 -4.14693,1.669046 -0.72691,-1.013466 -2.35104,-1.667483 -4.14476,-1.669046 -1.79423,8.89e-4 -3.41935,0.654693 -4.14693,1.668322 -0.72716,-1.013034 -2.35086,-1.666709 -4.14404,-1.668322 -1.79451,10e-4 -3.4196999,0.655133 -4.1469299,1.669046 -0.72691,-1.013466 -2.35104,-1.667483 -4.14476,-1.669045 z"
       id="path21044-0-1"
       inkscape:connector-curvature="0"
       sodipodi:nodetypes="cccccccccccccccccccccccccccccccccccccccccccccccccccccccccccccccccccccccccccccccccccccccccccccccccccccccccccccccccccccccccccccccccccccccccccccccccccccccccccccccccccccccccccccccccccccccccccccccccccccccccccccccccccccccccccccccccccccccccccccccscccccccccccccccccccccccccccccccccccccccccccccccccccccccccccccccccc" />
  </g>
</svg>
