  0
SECTION
  2
HEADER
  9
$ACADVER
  1
AC1014
  9
$HANDSEED
  5
FFFF
  9
$MEASUREMENT
 70
     1
  0
ENDSEC
  0
SECTION
  2
TABLES
  0
TABLE
  2
VPORT
  5
8
330
0
100
AcDbSymbolTable
 70
     4
  0
VPORT
  5
2E
330
8
100
AcDbSymbolTableRecord
100
AcDbViewportTableRecord
  2
*ACTIVE
 70
     0
 10
0.0
 20
0.0
 11
1.0
 21
1.0
 12
210.0
 22
148.5
 13
0.0
 23
0.0
 14
10.0
 24
10.0
 15
10.0
 25
10.0
 16
0.0
 26
0.0
 36
1.0
 17
0.0
 27
0.0
 37
0.0
 40
341.0
 41
1.24
 42
50.0
 43
0.0
 44
0.0
 50
0.0
 51
0.0
 71
     0
 72
   100
 73
     1
 74
     3
 75
     0
 76
     0
 77
     0
 78
     0
  0
ENDTAB
  0
TABLE
  2
LTYPE
  5
5
330
0
100
AcDbSymbolTable
 70
     1
  0
LTYPE
  5
14
330
5
100
AcDbSymbolTableRecord
100
AcDbLinetypeTableRecord
  2
BYBLOCK
 70
     0
  3

 72
    65
 73
     0
 40
0.0
  0
LTYPE
  5
15
330
5
100
AcDbSymbolTableRecord
100
AcDbLinetypeTableRecord
  2
BYLAYER
 70
     0
  3

 72
    65
 73
     0
 40
0.0
  0
LTYPE
  5
16
330
5
100
AcDbSymbolTableRecord
100
AcDbLinetypeTableRecord
  2
CONTINUOUS
 70
     0
  3
Solid line
 72
    65
 73
     0
 40
0.0
  0
ENDTAB
  0
TABLE
  2
LAYER
  5
2
100
AcDbSymbolTable
 70
2
  0
LAYER
  5
50
100
AcDbSymbolTableRecord
100
AcDbLayerTableRecord
  2
0
 70
0
  6
CONTINUOUS
  0
LAYER
  5
51
100
AcDbSymbolTableRecord
100
AcDbLayerTableRecord
  2
Layer_1
 70
0
  6
CONTINUOUS
  0
ENDTAB
  0
TABLE
  2
STYLE
  5
3
330
0
100
AcDbSymbolTable
 70
     1
  0
STYLE
  5
11
330
3
100
AcDbSymbolTableRecord
100
AcDbTextStyleTableRecord
  2
STANDARD
 70
     0
 40
0.0
 41
1.0
 50
0.0
 71
     0
 42
2.5
  3
txt
  4

  0
ENDTAB
  0
TABLE
  2
VIEW
  5
6
330
0
100
AcDbSymbolTable
 70
     0
  0
ENDTAB
  0
TABLE
  2
UCS
  5
7
330
0
100
AcDbSymbolTable
 70
     0
  0
ENDTAB
  0
TABLE
  2
APPID
  5
9
330
0
100
AcDbSymbolTable
 70
     2
  0
APPID
  5
12
330
9
100
AcDbSymbolTableRecord
100
AcDbRegAppTableRecord
  2
ACAD
 70
     0
  0
ENDTAB
  0
TABLE
  2
DIMSTYLE
  5
A
330
0
100
AcDbSymbolTable
 70
     1
  0
DIMSTYLE
105
27
330
A
100
AcDbSymbolTableRecord
100
AcDbDimStyleTableRecord
  2
ISO-25
 70
     0
  3

  4

  5

  6

  7

 40
1.0
 41
2.5
 42
0.625
 43
3.75
 44
1.25
 45
0.0
 46
0.0
 47
0.0
 48
0.0
140
2.5
141
2.5
142
0.0
143
0.03937007874016
144
1.0
145
0.0
146
1.0
147
0.625
 71
     0
 72
     0
 73
     0
 74
     0
 75
     0
 76
     0
 77
     1
 78
     8
170
     0
171
     3
172
     1
173
     0
174
     0
175
     0
176
     0
177
     0
178
     0
270
     2
271
     2
272
     2
273
     2
274
     3
340
11
275
     0
280
     0
281
     0
282
     0
283
     0
284
     8
285
     0
286
     0
287
     3
288
     0
  0
ENDTAB
  0
TABLE
  2
BLOCK_RECORD
  5
1
330
0
100
AcDbSymbolTable
 70
     1
  0
BLOCK_RECORD
  5
1F
330
1
100
AcDbSymbolTableRecord
100
AcDbBlockTableRecord
  2
*MODEL_SPACE
  0
BLOCK_RECORD
  5
1B
330
1
100
AcDbSymbolTableRecord
100
AcDbBlockTableRecord
  2
*PAPER_SPACE
  0
ENDTAB
  0
ENDSEC
  0
SECTION
  2
BLOCKS
  0
BLOCK
  5
20
330
1F
100
AcDbEntity
  8
0
100
AcDbBlockBegin
  2
*MODEL_SPACE
 70
     0
 10
0.0
 20
0.0
 30
0.0
  3
*MODEL_SPACE
  1

  0
ENDBLK
  5
21
330
1F
100
AcDbEntity
  8
0
100
AcDbBlockEnd
  0
BLOCK
  5
1C
330
1B
100
AcDbEntity
 67
     1
  8
0
100
AcDbBlockBegin
  2
*PAPER_SPACE
  1

  0
ENDBLK
  5
1D
330
1B
100
AcDbEntity
 67
     1
  8
0
100
AcDbBlockEnd
  0
ENDSEC
  0
SECTION
  2
ENTITIES
  0
SPLINE
  5
100
100
AcDbEntity
  8
Layer_1
 62
7
100
AcDbSpline
 70
8
 71
3
 72
8
 73
4
 74
0
 40
0
 40
0
 40
0
 40
0
 40
1
 40
1
 40
1
 40
1
 10
5.062120
 20
312.575922
 30
0.0
 10
2.554426
 20
312.575844
 30
0.0
 10
0.521608
 20
311.319424
 30
0.0
 10
0.521622
 20
309.769582
 30
0.0
  0
SPLINE
  5
101
100
AcDbEntity
  8
Layer_1
 62
7
100
AcDbSpline
 70
8
 71
3
 72
8
 73
4
 74
0
 40
0
 40
0
 40
0
 40
0
 40
1
 40
1
 40
1
 40
1
 10
0.621461
 20
261.818752
 30
0.0
 10
1.058260
 20
260.517549
 30
0.0
 10
2.911903
 20
259.584088
 30
0.0
 10
5.062120
 20
259.582506
 30
0.0
  0
SPLINE
  5
102
100
AcDbEntity
  8
Layer_1
 62
7
100
AcDbSpline
 70
8
 71
3
 72
8
 73
4
 74
0
 40
0
 40
0
 40
0
 40
0
 40
1
 40
1
 40
1
 40
1
 10
5.062120
 20
259.582506
 30
0.0
 10
6.856346
 20
259.583247
 30
0.0
 10
8.481473
 20
260.237203
 30
0.0
 10
9.209050
 20
261.250830
 30
0.0
  0
SPLINE
  5
103
100
AcDbEntity
  8
Layer_1
 62
7
100
AcDbSpline
 70
8
 71
3
 72
8
 73
4
 74
0
 40
0
 40
0
 40
0
 40
0
 40
1
 40
1
 40
1
 40
1
 10
9.209050
 20
261.250830
 30
0.0
 10
9.936322
 20
260.237647
 30
0.0
 10
11.560368
 20
259.583940
 30
0.0
 10
13.353810
 20
259.582506
 30
0.0
  0
SPLINE
  5
104
100
AcDbEntity
  8
Layer_1
 62
7
100
AcDbSpline
 70
8
 71
3
 72
8
 73
4
 74
0
 40
0
 40
0
 40
0
 40
0
 40
1
 40
1
 40
1
 40
1
 10
13.353810
 20
259.582506
 30
0.0
 10
15.148036
 20
259.583247
 30
0.0
 10
16.773147
 20
260.237199
 30
0.0
 10
17.500741
 20
261.250830
 30
0.0
  0
SPLINE
  5
105
100
AcDbEntity
  8
Layer_1
 62
7
100
AcDbSpline
 70
8
 71
3
 72
8
 73
4
 74
0
 40
0
 40
0
 40
0
 40
0
 40
1
 40
1
 40
1
 40
1
 10
17.500741
 20
261.250830
 30
0.0
 10
18.227901
 20
260.237796
 30
0.0
 10
19.851601
 20
259.584118
 30
0.0
 10
21.644777
 20
259.582506
 30
0.0
  0
SPLINE
  5
106
100
AcDbEntity
  8
Layer_1
 62
7
100
AcDbSpline
 70
8
 71
3
 72
8
 73
4
 74
0
 40
0
 40
0
 40
0
 40
0
 40
1
 40
1
 40
1
 40
1
 10
21.644777
 20
259.582506
 30
0.0
 10
23.439003
 20
259.583247
 30
0.0
 10
25.064113
 20
260.237199
 30
0.0
 10
25.791707
 20
261.250830
 30
0.0
  0
SPLINE
  5
107
100
AcDbEntity
  8
Layer_1
 62
7
100
AcDbSpline
 70
8
 71
3
 72
8
 73
4
 74
0
 40
0
 40
0
 40
0
 40
0
 40
1
 40
1
 40
1
 40
1
 10
25.791707
 20
261.250830
 30
0.0
 10
26.518979
 20
260.237647
 30
0.0
 10
28.143027
 20
259.583940
 30
0.0
 10
29.936466
 20
259.582506
 30
0.0
  0
SPLINE
  5
108
100
AcDbEntity
  8
Layer_1
 62
7
100
AcDbSpline
 70
8
 71
3
 72
8
 73
4
 74
0
 40
0
 40
0
 40
0
 40
0
 40
1
 40
1
 40
1
 40
1
 10
29.936466
 20
259.582506
 30
0.0
 10
31.730694
 20
259.583247
 30
0.0
 10
33.355819
 20
260.237203
 30
0.0
 10
34.083399
 20
261.250830
 30
0.0
  0
SPLINE
  5
109
100
AcDbEntity
  8
Layer_1
 62
7
100
AcDbSpline
 70
8
 71
3
 72
8
 73
4
 74
0
 40
0
 40
0
 40
0
 40
0
 40
1
 40
1
 40
1
 40
1
 10
34.083399
 20
261.250830
 30
0.0
 10
34.810556
 20
260.237792
 30
0.0
 10
36.434259
 20
259.584118
 30
0.0
 10
38.227435
 20
259.582506
 30
0.0
  0
SPLINE
  5
10a
100
AcDbEntity
  8
Layer_1
 62
7
100
AcDbSpline
 70
8
 71
3
 72
8
 73
4
 74
0
 40
0
 40
0
 40
0
 40
0
 40
1
 40
1
 40
1
 40
1
 10
38.227435
 20
259.582506
 30
0.0
 10
40.021660
 20
259.583247
 30
0.0
 10
41.646785
 20
260.237203
 30
0.0
 10
42.374365
 20
261.250830
 30
0.0
  0
SPLINE
  5
10b
100
AcDbEntity
  8
Layer_1
 62
7
100
AcDbSpline
 70
8
 71
3
 72
8
 73
4
 74
0
 40
0
 40
0
 40
0
 40
0
 40
1
 40
1
 40
1
 40
1
 10
42.374365
 20
261.250830
 30
0.0
 10
43.101637
 20
260.237647
 30
0.0
 10
44.725681
 20
259.583940
 30
0.0
 10
46.519123
 20
259.582506
 30
0.0
  0
SPLINE
  5
10c
100
AcDbEntity
  8
Layer_1
 62
7
100
AcDbSpline
 70
8
 71
3
 72
8
 73
4
 74
0
 40
0
 40
0
 40
0
 40
0
 40
1
 40
1
 40
1
 40
1
 10
46.519123
 20
259.582506
 30
0.0
 10
48.313351
 20
259.583247
 30
0.0
 10
49.938462
 20
260.237199
 30
0.0
 10
50.666053
 20
261.250830
 30
0.0
  0
SPLINE
  5
10d
100
AcDbEntity
  8
Layer_1
 62
7
100
AcDbSpline
 70
8
 71
3
 72
8
 73
4
 74
0
 40
0
 40
0
 40
0
 40
0
 40
1
 40
1
 40
1
 40
1
 10
50.666053
 20
261.250830
 30
0.0
 10
50.970920
 20
260.826191
 30
0.0
 10
52.624679
 20
259.237967
 30
0.0
 10
53.005034
 20
258.949472
 30
0.0
  0
SPLINE
  5
10e
100
AcDbEntity
  8
Layer_1
 62
7
100
AcDbSpline
 70
8
 71
3
 72
8
 73
4
 74
0
 40
0
 40
0
 40
0
 40
0
 40
1
 40
1
 40
1
 40
1
 10
53.005034
 20
258.949472
 30
0.0
 10
52.005198
 20
258.190951
 30
0.0
 10
51.366159
 20
256.566151
 30
0.0
 10
51.364925
 20
254.779387
 30
0.0
  0
SPLINE
  5
10f
100
AcDbEntity
  8
Layer_1
 62
7
100
AcDbSpline
 70
8
 71
3
 72
8
 73
4
 74
0
 40
0
 40
0
 40
0
 40
0
 40
1
 40
1
 40
1
 40
1
 10
51.364925
 20
254.779387
 30
0.0
 10
51.366425
 20
252.992886
 30
0.0
 10
52.005342
 20
251.368435
 30
0.0
 10
53.005034
 20
250.610029
 30
0.0
  0
SPLINE
  5
110
100
AcDbEntity
  8
Layer_1
 62
7
100
AcDbSpline
 70
8
 71
3
 72
8
 73
4
 74
0
 40
0
 40
0
 40
0
 40
0
 40
1
 40
1
 40
1
 40
1
 10
53.005034
 20
250.610029
 30
0.0
 10
52.005198
 20
249.851512
 30
0.0
 10
51.366159
 20
248.226713
 30
0.0
 10
51.364925
 20
246.439949
 30
0.0
  0
SPLINE
  5
111
100
AcDbEntity
  8
Layer_1
 62
7
100
AcDbSpline
 70
8
 71
3
 72
8
 73
4
 74
0
 40
0
 40
0
 40
0
 40
0
 40
1
 40
1
 40
1
 40
1
 10
51.364925
 20
246.439949
 30
0.0
 10
51.366025
 20
244.653185
 30
0.0
 10
52.005198
 20
243.028386
 30
0.0
 10
53.005034
 20
242.269869
 30
0.0
  0
SPLINE
  5
112
100
AcDbEntity
  8
Layer_1
 62
7
100
AcDbSpline
 70
8
 71
3
 72
8
 73
4
 74
0
 40
0
 40
0
 40
0
 40
0
 40
1
 40
1
 40
1
 40
1
 10
53.005034
 20
242.269869
 30
0.0
 10
52.005342
 20
241.511463
 30
0.0
 10
51.366333
 20
239.887012
 30
0.0
 10
51.364925
 20
238.100510
 30
0.0
  0
SPLINE
  5
113
100
AcDbEntity
  8
Layer_1
 62
7
100
AcDbSpline
 70
8
 71
3
 72
8
 73
4
 74
0
 40
0
 40
0
 40
0
 40
0
 40
1
 40
1
 40
1
 40
1
 10
51.364925
 20
238.100510
 30
0.0
 10
51.366025
 20
236.313746
 30
0.0
 10
52.005198
 20
234.688947
 30
0.0
 10
53.005034
 20
233.930430
 30
0.0
  0
SPLINE
  5
114
100
AcDbEntity
  8
Layer_1
 62
7
100
AcDbSpline
 70
8
 71
3
 72
8
 73
4
 74
0
 40
0
 40
0
 40
0
 40
0
 40
1
 40
1
 40
1
 40
1
 10
53.005034
 20
233.930430
 30
0.0
 10
52.005198
 20
233.171909
 30
0.0
 10
51.366159
 20
231.547110
 30
0.0
 10
51.364925
 20
229.760346
 30
0.0
  0
SPLINE
  5
115
100
AcDbEntity
  8
Layer_1
 62
7
100
AcDbSpline
 70
8
 71
3
 72
8
 73
4
 74
0
 40
0
 40
0
 40
0
 40
0
 40
1
 40
1
 40
1
 40
1
 10
51.364925
 20
229.760346
 30
0.0
 10
51.366425
 20
227.973845
 30
0.0
 10
52.005342
 20
226.349394
 30
0.0
 10
53.005034
 20
225.590988
 30
0.0
  0
SPLINE
  5
116
100
AcDbEntity
  8
Layer_1
 62
7
100
AcDbSpline
 70
8
 71
3
 72
8
 73
4
 74
0
 40
0
 40
0
 40
0
 40
0
 40
1
 40
1
 40
1
 40
1
 10
53.005034
 20
225.590988
 30
0.0
 10
52.005198
 20
224.832471
 30
0.0
 10
51.366159
 20
223.207671
 30
0.0
 10
51.364925
 20
221.420907
 30
0.0
  0
SPLINE
  5
117
100
AcDbEntity
  8
Layer_1
 62
7
100
AcDbSpline
 70
8
 71
3
 72
8
 73
4
 74
0
 40
0
 40
0
 40
0
 40
0
 40
1
 40
1
 40
1
 40
1
 10
51.364925
 20
221.420907
 30
0.0
 10
51.366025
 20
219.634143
 30
0.0
 10
52.005198
 20
218.009344
 30
0.0
 10
53.005034
 20
217.250827
 30
0.0
  0
SPLINE
  5
118
100
AcDbEntity
  8
Layer_1
 62
7
100
AcDbSpline
 70
8
 71
3
 72
8
 73
4
 74
0
 40
0
 40
0
 40
0
 40
0
 40
1
 40
1
 40
1
 40
1
 10
53.005034
 20
217.250827
 30
0.0
 10
52.005342
 20
216.492421
 30
0.0
 10
51.366333
 20
214.867970
 30
0.0
 10
51.364925
 20
213.081470
 30
0.0
  0
SPLINE
  5
119
100
AcDbEntity
  8
Layer_1
 62
7
100
AcDbSpline
 70
8
 71
3
 72
8
 73
4
 74
0
 40
0
 40
0
 40
0
 40
0
 40
1
 40
1
 40
1
 40
1
 10
51.364925
 20
213.081470
 30
0.0
 10
51.365296
 20
212.687580
 30
0.0
 10
51.396965
 20
212.295400
 30
0.0
 10
51.458975
 20
211.914510
 30
0.0
  0
SPLINE
  5
11a
100
AcDbEntity
  8
Layer_1
 62
7
100
AcDbSpline
 70
8
 71
3
 72
8
 73
4
 74
0
 40
0
 40
0
 40
0
 40
0
 40
1
 40
1
 40
1
 40
1
 10
51.458975
 20
211.914510
 30
0.0
 10
51.134256
 20
211.694580
 30
0.0
 10
50.863874
 20
211.442700
 30
0.0
 10
50.663883
 20
211.165000
 30
0.0
  0
SPLINE
  5
11b
100
AcDbEntity
  8
Layer_1
 62
7
100
AcDbSpline
 70
8
 71
3
 72
8
 73
4
 74
0
 40
0
 40
0
 40
0
 40
0
 40
1
 40
1
 40
1
 40
1
 10
50.663883
 20
211.165000
 30
0.0
 10
49.936610
 20
212.178180
 30
0.0
 10
48.312563
 20
212.831890
 30
0.0
 10
46.519120
 20
212.833320
 30
0.0
  0
SPLINE
  5
11c
100
AcDbEntity
  8
Layer_1
 62
7
100
AcDbSpline
 70
8
 71
3
 72
8
 73
4
 74
0
 40
0
 40
0
 40
0
 40
0
 40
1
 40
1
 40
1
 40
1
 10
46.519120
 20
212.833320
 30
0.0
 10
44.724896
 20
212.832580
 30
0.0
 10
43.099771
 20
212.178620
 30
0.0
 10
42.372191
 20
211.165000
 30
0.0
  0
SPLINE
  5
11d
100
AcDbEntity
  8
Layer_1
 62
7
100
AcDbSpline
 70
8
 71
3
 72
8
 73
4
 74
0
 40
0
 40
0
 40
0
 40
0
 40
1
 40
1
 40
1
 40
1
 10
42.372191
 20
211.165000
 30
0.0
 10
41.644933
 20
212.178180
 30
0.0
 10
40.020871
 20
212.831880
 30
0.0
 10
38.227432
 20
212.833320
 30
0.0
  0
SPLINE
  5
11e
100
AcDbEntity
  8
Layer_1
 62
7
100
AcDbSpline
 70
8
 71
3
 72
8
 73
4
 74
0
 40
0
 40
0
 40
0
 40
0
 40
1
 40
1
 40
1
 40
1
 10
38.227432
 20
212.833320
 30
0.0
 10
36.433456
 20
212.832320
 30
0.0
 10
34.808705
 20
212.178480
 30
0.0
 10
34.081225
 20
211.165000
 30
0.0
  0
SPLINE
  5
11f
100
AcDbEntity
  8
Layer_1
 62
7
100
AcDbSpline
 70
8
 71
3
 72
8
 73
4
 74
0
 40
0
 40
0
 40
0
 40
0
 40
1
 40
1
 40
1
 40
1
 10
34.081225
 20
211.165000
 30
0.0
 10
33.353968
 20
212.178180
 30
0.0
 10
31.729905
 20
212.831880
 30
0.0
 10
29.936463
 20
212.833320
 30
0.0
  0
SPLINE
  5
120
100
AcDbEntity
  8
Layer_1
 62
7
100
AcDbSpline
 70
8
 71
3
 72
8
 73
4
 74
0
 40
0
 40
0
 40
0
 40
0
 40
1
 40
1
 40
1
 40
1
 10
29.936463
 20
212.833320
 30
0.0
 10
28.142239
 20
212.832580
 30
0.0
 10
26.517113
 20
212.178620
 30
0.0
 10
25.789534
 20
211.165000
 30
0.0
  0
SPLINE
  5
121
100
AcDbEntity
  8
Layer_1
 62
7
100
AcDbSpline
 70
8
 71
3
 72
8
 73
4
 74
0
 40
0
 40
0
 40
0
 40
0
 40
1
 40
1
 40
1
 40
1
 10
25.789534
 20
211.165000
 30
0.0
 10
25.062262
 20
212.178180
 30
0.0
 10
23.438216
 20
212.831890
 30
0.0
 10
21.644774
 20
212.833320
 30
0.0
  0
SPLINE
  5
122
100
AcDbEntity
  8
Layer_1
 62
7
100
AcDbSpline
 70
8
 71
3
 72
8
 73
4
 74
0
 40
0
 40
0
 40
0
 40
0
 40
1
 40
1
 40
1
 40
1
 10
21.644774
 20
212.833320
 30
0.0
 10
19.850828
 20
212.832580
 30
0.0
 10
18.225774
 20
212.179060
 30
0.0
 10
17.497844
 20
211.165720
 30
0.0
  0
SPLINE
  5
123
100
AcDbEntity
  8
Layer_1
 62
7
100
AcDbSpline
 70
8
 71
3
 72
8
 73
4
 74
0
 40
0
 40
0
 40
0
 40
0
 40
1
 40
1
 40
1
 40
1
 10
17.497844
 20
211.165720
 30
0.0
 10
16.770334
 20
212.178470
 30
0.0
 10
15.146717
 20
212.831830
 30
0.0
 10
13.353807
 20
212.833320
 30
0.0
  0
SPLINE
  5
124
100
AcDbEntity
  8
Layer_1
 62
7
100
AcDbSpline
 70
8
 71
3
 72
8
 73
4
 74
0
 40
0
 40
0
 40
0
 40
0
 40
1
 40
1
 40
1
 40
1
 10
13.353807
 20
212.833320
 30
0.0
 10
11.559581
 20
212.832580
 30
0.0
 10
9.934457
 20
212.178620
 30
0.0
 10
9.206877
 20
211.165000
 30
0.0
  0
SPLINE
  5
125
100
AcDbEntity
  8
Layer_1
 62
7
100
AcDbSpline
 70
8
 71
3
 72
8
 73
4
 74
0
 40
0
 40
0
 40
0
 40
0
 40
1
 40
1
 40
1
 40
1
 10
9.206877
 20
211.165000
 30
0.0
 10
8.479619
 20
212.178180
 30
0.0
 10
6.855559
 20
212.831880
 30
0.0
 10
5.062117
 20
212.833320
 30
0.0
  0
SPLINE
  5
126
100
AcDbEntity
  8
Layer_1
 62
7
100
AcDbSpline
 70
8
 71
3
 72
8
 73
4
 74
0
 40
0
 40
0
 40
0
 40
0
 40
1
 40
1
 40
1
 40
1
 10
5.062117
 20
212.833320
 30
0.0
 10
2.874296
 20
212.832320
 30
0.0
 10
0.998665
 20
211.867310
 30
0.0
 10
0.600477
 20
210.537750
 30
0.0
  0
LWPOLYLINE
  5
127
100
AcDbEntity
  8
Layer_1
 62
7
100
AcDbPolyline
 90
5
 70
0
 10
0.521622
 20
309.769582
 30
0.0
 10
0.521622
 20
309.765282
 30
0.0
 10
0.000000
 20
309.765282
 30
0.0
 10
0.000000
 20
261.818752
 30
0.0
 10
0.621461
 20
261.818752
 30
0.0
  0
SPLINE
  5
128
100
AcDbEntity
  8
Layer_1
 62
7
100
AcDbSpline
 70
8
 71
3
 72
8
 73
4
 74
0
 40
0
 40
0
 40
0
 40
0
 40
1
 40
1
 40
1
 40
1
 10
0.533921
 20
158.390750
 30
0.0
 10
0.705155
 20
156.923170
 30
0.0
 10
2.681350
 20
155.786510
 30
0.0
 10
5.062120
 20
155.786260
 30
0.0
  0
SPLINE
  5
129
100
AcDbEntity
  8
Layer_1
 62
7
100
AcDbSpline
 70
8
 71
3
 72
8
 73
4
 74
0
 40
0
 40
0
 40
0
 40
0
 40
1
 40
1
 40
1
 40
1
 10
5.062120
 20
155.786260
 30
0.0
 10
6.856346
 20
155.787000
 30
0.0
 10
8.481473
 20
156.440950
 30
0.0
 10
9.209050
 20
157.454580
 30
0.0
  0
SPLINE
  5
12a
100
AcDbEntity
  8
Layer_1
 62
7
100
AcDbSpline
 70
8
 71
3
 72
8
 73
4
 74
0
 40
0
 40
0
 40
0
 40
0
 40
1
 40
1
 40
1
 40
1
 10
9.209050
 20
157.454580
 30
0.0
 10
9.936309
 20
156.441400
 30
0.0
 10
11.560368
 20
155.787700
 30
0.0
 10
13.353810
 20
155.786260
 30
0.0
  0
SPLINE
  5
12b
100
AcDbEntity
  8
Layer_1
 62
7
100
AcDbSpline
 70
8
 71
3
 72
8
 73
4
 74
0
 40
0
 40
0
 40
0
 40
0
 40
1
 40
1
 40
1
 40
1
 10
13.353810
 20
155.786260
 30
0.0
 10
15.148036
 20
155.787000
 30
0.0
 10
16.773161
 20
156.440950
 30
0.0
 10
17.500741
 20
157.454580
 30
0.0
  0
SPLINE
  5
12c
100
AcDbEntity
  8
Layer_1
 62
7
100
AcDbSpline
 70
8
 71
3
 72
8
 73
4
 74
0
 40
0
 40
0
 40
0
 40
0
 40
1
 40
1
 40
1
 40
1
 10
17.500741
 20
157.454580
 30
0.0
 10
18.227901
 20
156.441550
 30
0.0
 10
19.851601
 20
155.787870
 30
0.0
 10
21.644777
 20
155.786260
 30
0.0
  0
SPLINE
  5
12d
100
AcDbEntity
  8
Layer_1
 62
7
100
AcDbSpline
 70
8
 71
3
 72
8
 73
4
 74
0
 40
0
 40
0
 40
0
 40
0
 40
1
 40
1
 40
1
 40
1
 10
21.644777
 20
155.786260
 30
0.0
 10
23.439003
 20
155.787000
 30
0.0
 10
25.064127
 20
156.440950
 30
0.0
 10
25.791707
 20
157.454580
 30
0.0
  0
SPLINE
  5
12e
100
AcDbEntity
  8
Layer_1
 62
7
100
AcDbSpline
 70
8
 71
3
 72
8
 73
4
 74
0
 40
0
 40
0
 40
0
 40
0
 40
1
 40
1
 40
1
 40
1
 10
25.791707
 20
157.454580
 30
0.0
 10
26.518965
 20
156.441400
 30
0.0
 10
28.143027
 20
155.787700
 30
0.0
 10
29.936466
 20
155.786260
 30
0.0
  0
SPLINE
  5
12f
100
AcDbEntity
  8
Layer_1
 62
7
100
AcDbSpline
 70
8
 71
3
 72
8
 73
4
 74
0
 40
0
 40
0
 40
0
 40
0
 40
1
 40
1
 40
1
 40
1
 10
29.936466
 20
155.786260
 30
0.0
 10
31.730694
 20
155.787000
 30
0.0
 10
33.355819
 20
156.440950
 30
0.0
 10
34.083399
 20
157.454580
 30
0.0
  0
SPLINE
  5
130
100
AcDbEntity
  8
Layer_1
 62
7
100
AcDbSpline
 70
8
 71
3
 72
8
 73
4
 74
0
 40
0
 40
0
 40
0
 40
0
 40
1
 40
1
 40
1
 40
1
 10
34.083399
 20
157.454580
 30
0.0
 10
34.810556
 20
156.441540
 30
0.0
 10
36.434259
 20
155.787870
 30
0.0
 10
38.227435
 20
155.786260
 30
0.0
  0
SPLINE
  5
131
100
AcDbEntity
  8
Layer_1
 62
7
100
AcDbSpline
 70
8
 71
3
 72
8
 73
4
 74
0
 40
0
 40
0
 40
0
 40
0
 40
1
 40
1
 40
1
 40
1
 10
38.227435
 20
155.786260
 30
0.0
 10
40.021660
 20
155.787000
 30
0.0
 10
41.646785
 20
156.440950
 30
0.0
 10
42.374365
 20
157.454580
 30
0.0
  0
SPLINE
  5
132
100
AcDbEntity
  8
Layer_1
 62
7
100
AcDbSpline
 70
8
 71
3
 72
8
 73
4
 74
0
 40
0
 40
0
 40
0
 40
0
 40
1
 40
1
 40
1
 40
1
 10
42.374365
 20
157.454580
 30
0.0
 10
43.101622
 20
156.441400
 30
0.0
 10
44.725681
 20
155.787700
 30
0.0
 10
46.519123
 20
155.786260
 30
0.0
  0
SPLINE
  5
133
100
AcDbEntity
  8
Layer_1
 62
7
100
AcDbSpline
 70
8
 71
3
 72
8
 73
4
 74
0
 40
0
 40
0
 40
0
 40
0
 40
1
 40
1
 40
1
 40
1
 10
46.519123
 20
155.786260
 30
0.0
 10
48.313351
 20
155.787000
 30
0.0
 10
49.938473
 20
156.440950
 30
0.0
 10
50.666053
 20
157.454580
 30
0.0
  0
SPLINE
  5
134
100
AcDbEntity
  8
Layer_1
 62
7
100
AcDbSpline
 70
8
 71
3
 72
8
 73
4
 74
0
 40
0
 40
0
 40
0
 40
0
 40
1
 40
1
 40
1
 40
1
 10
50.666053
 20
157.454580
 30
0.0
 10
50.897056
 20
157.132540
 30
0.0
 10
51.225430
 20
156.846700
 30
0.0
 10
51.621035
 20
156.603780
 30
0.0
  0
SPLINE
  5
135
100
AcDbEntity
  8
Layer_1
 62
7
100
AcDbSpline
 70
8
 71
3
 72
8
 73
4
 74
0
 40
0
 40
0
 40
0
 40
0
 40
1
 40
1
 40
1
 40
1
 10
51.621035
 20
156.603780
 30
0.0
 10
51.453177
 20
156.007150
 30
0.0
 10
51.365866
 20
155.359480
 30
0.0
 10
51.364925
 20
154.703950
 30
0.0
  0
SPLINE
  5
136
100
AcDbEntity
  8
Layer_1
 62
7
100
AcDbSpline
 70
8
 71
3
 72
8
 73
4
 74
0
 40
0
 40
0
 40
0
 40
0
 40
1
 40
1
 40
1
 40
1
 10
51.364925
 20
154.703950
 30
0.0
 10
51.366025
 20
152.917180
 30
0.0
 10
52.005198
 20
151.292380
 30
0.0
 10
53.005034
 20
150.533870
 30
0.0
  0
SPLINE
  5
137
100
AcDbEntity
  8
Layer_1
 62
7
100
AcDbSpline
 70
8
 71
3
 72
8
 73
4
 74
0
 40
0
 40
0
 40
0
 40
0
 40
1
 40
1
 40
1
 40
1
 10
53.005034
 20
150.533870
 30
0.0
 10
52.005198
 20
149.775350
 30
0.0
 10
51.366159
 20
148.150550
 30
0.0
 10
51.364925
 20
146.363790
 30
0.0
  0
SPLINE
  5
138
100
AcDbEntity
  8
Layer_1
 62
7
100
AcDbSpline
 70
8
 71
3
 72
8
 73
4
 74
0
 40
0
 40
0
 40
0
 40
0
 40
1
 40
1
 40
1
 40
1
 10
51.364925
 20
146.363790
 30
0.0
 10
51.366425
 20
144.577290
 30
0.0
 10
52.005342
 20
142.952830
 30
0.0
 10
53.005034
 20
142.194430
 30
0.0
  0
SPLINE
  5
139
100
AcDbEntity
  8
Layer_1
 62
7
100
AcDbSpline
 70
8
 71
3
 72
8
 73
4
 74
0
 40
0
 40
0
 40
0
 40
0
 40
1
 40
1
 40
1
 40
1
 10
53.005034
 20
142.194430
 30
0.0
 10
52.005198
 20
141.435910
 30
0.0
 10
51.366159
 20
139.811110
 30
0.0
 10
51.364925
 20
138.024340
 30
0.0
  0
SPLINE
  5
13a
100
AcDbEntity
  8
Layer_1
 62
7
100
AcDbSpline
 70
8
 71
3
 72
8
 73
4
 74
0
 40
0
 40
0
 40
0
 40
0
 40
1
 40
1
 40
1
 40
1
 10
51.364925
 20
138.024340
 30
0.0
 10
51.366425
 20
136.237840
 30
0.0
 10
52.005346
 20
134.613400
 30
0.0
 10
53.005034
 20
133.854990
 30
0.0
  0
SPLINE
  5
13b
100
AcDbEntity
  8
Layer_1
 62
7
100
AcDbSpline
 70
8
 71
3
 72
8
 73
4
 74
0
 40
0
 40
0
 40
0
 40
0
 40
1
 40
1
 40
1
 40
1
 10
53.005034
 20
133.854990
 30
0.0
 10
52.005198
 20
133.096470
 30
0.0
 10
51.366159
 20
131.471670
 30
0.0
 10
51.364925
 20
129.684910
 30
0.0
  0
SPLINE
  5
13c
100
AcDbEntity
  8
Layer_1
 62
7
100
AcDbSpline
 70
8
 71
3
 72
8
 73
4
 74
0
 40
0
 40
0
 40
0
 40
0
 40
1
 40
1
 40
1
 40
1
 10
51.364925
 20
129.684910
 30
0.0
 10
51.366025
 20
127.898140
 30
0.0
 10
52.005198
 20
126.273340
 30
0.0
 10
53.005034
 20
125.514820
 30
0.0
  0
SPLINE
  5
13d
100
AcDbEntity
  8
Layer_1
 62
7
100
AcDbSpline
 70
8
 71
3
 72
8
 73
4
 74
0
 40
0
 40
0
 40
0
 40
0
 40
1
 40
1
 40
1
 40
1
 10
53.005034
 20
125.514820
 30
0.0
 10
52.005198
 20
124.756300
 30
0.0
 10
51.366159
 20
123.131500
 30
0.0
 10
51.364925
 20
121.344740
 30
0.0
  0
SPLINE
  5
13e
100
AcDbEntity
  8
Layer_1
 62
7
100
AcDbSpline
 70
8
 71
3
 72
8
 73
4
 74
0
 40
0
 40
0
 40
0
 40
0
 40
1
 40
1
 40
1
 40
1
 10
51.364925
 20
121.344740
 30
0.0
 10
51.366425
 20
119.558240
 30
0.0
 10
52.005342
 20
117.933790
 30
0.0
 10
53.005034
 20
117.175380
 30
0.0
  0
SPLINE
  5
13f
100
AcDbEntity
  8
Layer_1
 62
7
100
AcDbSpline
 70
8
 71
3
 72
8
 73
4
 74
0
 40
0
 40
0
 40
0
 40
0
 40
1
 40
1
 40
1
 40
1
 10
53.005034
 20
117.175380
 30
0.0
 10
52.005198
 20
116.416870
 30
0.0
 10
51.366159
 20
114.792070
 30
0.0
 10
51.364925
 20
113.005300
 30
0.0
  0
SPLINE
  5
140
100
AcDbEntity
  8
Layer_1
 62
7
100
AcDbSpline
 70
8
 71
3
 72
8
 73
4
 74
0
 40
0
 40
0
 40
0
 40
0
 40
1
 40
1
 40
1
 40
1
 10
51.364925
 20
113.005300
 30
0.0
 10
51.366425
 20
111.217740
 30
0.0
 10
52.005931
 20
109.592450
 30
0.0
 10
53.006479
 20
108.834500
 30
0.0
  0
SPLINE
  5
141
100
AcDbEntity
  8
Layer_1
 62
7
100
AcDbSpline
 70
8
 71
3
 72
8
 73
4
 74
0
 40
0
 40
0
 40
0
 40
0
 40
1
 40
1
 40
1
 40
1
 10
53.006479
 20
108.834500
 30
0.0
 10
52.006372
 20
108.076880
 30
0.0
 10
51.366766
 20
106.452630
 30
0.0
 10
51.364925
 20
104.665860
 30
0.0
  0
SPLINE
  5
142
100
AcDbEntity
  8
Layer_1
 62
7
100
AcDbSpline
 70
8
 71
3
 72
8
 73
4
 74
0
 40
0
 40
0
 40
0
 40
0
 40
1
 40
1
 40
1
 40
1
 10
51.364925
 20
104.665860
 30
0.0
 10
51.366025
 20
102.879100
 30
0.0
 10
52.005198
 20
101.254300
 30
0.0
 10
53.005034
 20
100.495780
 30
0.0
  0
SPLINE
  5
143
100
AcDbEntity
  8
Layer_1
 62
7
100
AcDbSpline
 70
8
 71
3
 72
8
 73
4
 74
0
 40
0
 40
0
 40
0
 40
0
 40
1
 40
1
 40
1
 40
1
 10
53.005034
 20
100.495780
 30
0.0
 10
52.005342
 20
99.737370
 30
0.0
 10
51.366333
 20
98.112920
 30
0.0
 10
51.364925
 20
96.326420
 30
0.0
  0
SPLINE
  5
144
100
AcDbEntity
  8
Layer_1
 62
7
100
AcDbSpline
 70
8
 71
3
 72
8
 73
4
 74
0
 40
0
 40
0
 40
0
 40
0
 40
1
 40
1
 40
1
 40
1
 10
51.364925
 20
96.326420
 30
0.0
 10
51.366025
 20
94.539660
 30
0.0
 10
52.005198
 20
92.914860
 30
0.0
 10
53.005034
 20
92.156340
 30
0.0
  0
SPLINE
  5
145
100
AcDbEntity
  8
Layer_1
 62
7
100
AcDbSpline
 70
8
 71
3
 72
8
 73
4
 74
0
 40
0
 40
0
 40
0
 40
0
 40
1
 40
1
 40
1
 40
1
 10
53.005034
 20
92.156340
 30
0.0
 10
52.005198
 20
91.397820
 30
0.0
 10
51.366159
 20
89.773020
 30
0.0
 10
51.364925
 20
87.986260
 30
0.0
  0
SPLINE
  5
146
100
AcDbEntity
  8
Layer_1
 62
7
100
AcDbSpline
 70
8
 71
3
 72
8
 73
4
 74
0
 40
0
 40
0
 40
0
 40
0
 40
1
 40
1
 40
1
 40
1
 10
51.364925
 20
87.986260
 30
0.0
 10
51.366425
 20
86.199760
 30
0.0
 10
52.005342
 20
84.575310
 30
0.0
 10
53.005034
 20
83.816900
 30
0.0
  0
SPLINE
  5
147
100
AcDbEntity
  8
Layer_1
 62
7
100
AcDbSpline
 70
8
 71
3
 72
8
 73
4
 74
0
 40
0
 40
0
 40
0
 40
0
 40
1
 40
1
 40
1
 40
1
 10
53.005034
 20
83.816900
 30
0.0
 10
52.005198
 20
83.058380
 30
0.0
 10
51.366159
 20
81.433580
 30
0.0
 10
51.364925
 20
79.646820
 30
0.0
  0
SPLINE
  5
148
100
AcDbEntity
  8
Layer_1
 62
7
100
AcDbSpline
 70
8
 71
3
 72
8
 73
4
 74
0
 40
0
 40
0
 40
0
 40
0
 40
1
 40
1
 40
1
 40
1
 10
51.364925
 20
79.646820
 30
0.0
 10
51.366025
 20
77.860050
 30
0.0
 10
52.005198
 20
76.235250
 30
0.0
 10
53.005034
 20
75.476740
 30
0.0
  0
SPLINE
  5
149
100
AcDbEntity
  8
Layer_1
 62
7
100
AcDbSpline
 70
8
 71
3
 72
8
 73
4
 74
0
 40
0
 40
0
 40
0
 40
0
 40
1
 40
1
 40
1
 40
1
 10
53.005034
 20
75.476740
 30
0.0
 10
52.005342
 20
74.718330
 30
0.0
 10
51.366333
 20
73.093880
 30
0.0
 10
51.364925
 20
71.307380
 30
0.0
  0
SPLINE
  5
14a
100
AcDbEntity
  8
Layer_1
 62
7
100
AcDbSpline
 70
8
 71
3
 72
8
 73
4
 74
0
 40
0
 40
0
 40
0
 40
0
 40
1
 40
1
 40
1
 40
1
 10
51.364925
 20
71.307380
 30
0.0
 10
51.366025
 20
69.520620
 30
0.0
 10
52.005198
 20
67.895820
 30
0.0
 10
53.005034
 20
67.137300
 30
0.0
  0
SPLINE
  5
14b
100
AcDbEntity
  8
Layer_1
 62
7
100
AcDbSpline
 70
8
 71
3
 72
8
 73
4
 74
0
 40
0
 40
0
 40
0
 40
0
 40
1
 40
1
 40
1
 40
1
 10
53.005034
 20
67.137300
 30
0.0
 10
52.005198
 20
66.378780
 30
0.0
 10
51.366159
 20
64.753980
 30
0.0
 10
51.364925
 20
62.967220
 30
0.0
  0
SPLINE
  5
14c
100
AcDbEntity
  8
Layer_1
 62
7
100
AcDbSpline
 70
8
 71
3
 72
8
 73
4
 74
0
 40
0
 40
0
 40
0
 40
0
 40
1
 40
1
 40
1
 40
1
 10
51.364925
 20
62.967220
 30
0.0
 10
51.366425
 20
61.179920
 30
0.0
 10
52.006079
 20
59.554980
 30
0.0
 10
53.006479
 20
58.797140
 30
0.0
  0
SPLINE
  5
14d
100
AcDbEntity
  8
Layer_1
 62
7
100
AcDbSpline
 70
8
 71
3
 72
8
 73
4
 74
0
 40
0
 40
0
 40
0
 40
0
 40
1
 40
1
 40
1
 40
1
 10
53.006479
 20
58.797140
 30
0.0
 10
52.006224
 20
58.039410
 30
0.0
 10
51.366596
 20
56.414820
 30
0.0
 10
51.364925
 20
54.627780
 30
0.0
  0
SPLINE
  5
14e
100
AcDbEntity
  8
Layer_1
 62
7
100
AcDbSpline
 70
8
 71
3
 72
8
 73
4
 74
0
 40
0
 40
0
 40
0
 40
0
 40
1
 40
1
 40
1
 40
1
 10
51.364925
 20
54.627780
 30
0.0
 10
51.366425
 20
52.841280
 30
0.0
 10
52.005342
 20
51.216830
 30
0.0
 10
53.005034
 20
50.458420
 30
0.0
  0
SPLINE
  5
14f
100
AcDbEntity
  8
Layer_1
 62
7
100
AcDbSpline
 70
8
 71
3
 72
8
 73
4
 74
0
 40
0
 40
0
 40
0
 40
0
 40
1
 40
1
 40
1
 40
1
 10
53.005034
 20
50.458420
 30
0.0
 10
52.005198
 20
49.699900
 30
0.0
 10
51.366159
 20
48.075100
 30
0.0
 10
51.364925
 20
46.288340
 30
0.0
  0
SPLINE
  5
150
100
AcDbEntity
  8
Layer_1
 62
7
100
AcDbSpline
 70
8
 71
3
 72
8
 73
4
 74
0
 40
0
 40
0
 40
0
 40
0
 40
1
 40
1
 40
1
 40
1
 10
51.364925
 20
46.288340
 30
0.0
 10
51.366025
 20
44.501570
 30
0.0
 10
52.005198
 20
42.876770
 30
0.0
 10
53.005034
 20
42.118260
 30
0.0
  0
SPLINE
  5
151
100
AcDbEntity
  8
Layer_1
 62
7
100
AcDbSpline
 70
8
 71
3
 72
8
 73
4
 74
0
 40
0
 40
0
 40
0
 40
0
 40
1
 40
1
 40
1
 40
1
 10
53.005034
 20
42.118260
 30
0.0
 10
52.005198
 20
41.359740
 30
0.0
 10
51.366159
 20
39.734940
 30
0.0
 10
51.364925
 20
37.948180
 30
0.0
  0
SPLINE
  5
152
100
AcDbEntity
  8
Layer_1
 62
7
100
AcDbSpline
 70
8
 71
3
 72
8
 73
4
 74
0
 40
0
 40
0
 40
0
 40
0
 40
1
 40
1
 40
1
 40
1
 10
51.364925
 20
37.948180
 30
0.0
 10
51.366425
 20
36.161680
 30
0.0
 10
52.005342
 20
34.537230
 30
0.0
 10
53.005034
 20
33.778820
 30
0.0
  0
SPLINE
  5
153
100
AcDbEntity
  8
Layer_1
 62
7
100
AcDbSpline
 70
8
 71
3
 72
8
 73
4
 74
0
 40
0
 40
0
 40
0
 40
0
 40
1
 40
1
 40
1
 40
1
 10
53.005034
 20
33.778820
 30
0.0
 10
52.005198
 20
33.020300
 30
0.0
 10
51.366159
 20
31.395500
 30
0.0
 10
51.364925
 20
29.608740
 30
0.0
  0
SPLINE
  5
154
100
AcDbEntity
  8
Layer_1
 62
7
100
AcDbSpline
 70
8
 71
3
 72
8
 73
4
 74
0
 40
0
 40
0
 40
0
 40
0
 40
1
 40
1
 40
1
 40
1
 10
51.364925
 20
29.608740
 30
0.0
 10
51.366425
 20
27.822240
 30
0.0
 10
52.005342
 20
26.197790
 30
0.0
 10
53.005034
 20
25.439380
 30
0.0
  0
SPLINE
  5
155
100
AcDbEntity
  8
Layer_1
 62
7
100
AcDbSpline
 70
8
 71
3
 72
8
 73
4
 74
0
 40
0
 40
0
 40
0
 40
0
 40
1
 40
1
 40
1
 40
1
 10
53.005034
 20
25.439380
 30
0.0
 10
52.005198
 20
24.680860
 30
0.0
 10
51.366159
 20
23.056060
 30
0.0
 10
51.364925
 20
21.269300
 30
0.0
  0
SPLINE
  5
156
100
AcDbEntity
  8
Layer_1
 62
7
100
AcDbSpline
 70
8
 71
3
 72
8
 73
4
 74
0
 40
0
 40
0
 40
0
 40
0
 40
1
 40
1
 40
1
 40
1
 10
51.364925
 20
21.269300
 30
0.0
 10
51.366025
 20
19.482540
 30
0.0
 10
52.005198
 20
17.857740
 30
0.0
 10
53.005034
 20
17.099220
 30
0.0
  0
SPLINE
  5
157
100
AcDbEntity
  8
Layer_1
 62
7
100
AcDbSpline
 70
8
 71
3
 72
8
 73
4
 74
0
 40
0
 40
0
 40
0
 40
0
 40
1
 40
1
 40
1
 40
1
 10
53.005034
 20
17.099220
 30
0.0
 10
52.005342
 20
16.340810
 30
0.0
 10
51.366333
 20
14.716360
 30
0.0
 10
51.364925
 20
12.929860
 30
0.0
  0
SPLINE
  5
158
100
AcDbEntity
  8
Layer_1
 62
7
100
AcDbSpline
 70
8
 71
3
 72
8
 73
4
 74
0
 40
0
 40
0
 40
0
 40
0
 40
1
 40
1
 40
1
 40
1
 10
51.364925
 20
12.929860
 30
0.0
 10
51.366025
 20
11.191440
 30
0.0
 10
51.971405
 20
9.601830
 30
0.0
 10
52.930517
 20
8.818380
 30
0.0
  0
SPLINE
  5
159
100
AcDbEntity
  8
Layer_1
 62
7
100
AcDbSpline
 70
8
 71
3
 72
8
 73
4
 74
0
 40
0
 40
0
 40
0
 40
0
 40
1
 40
1
 40
1
 40
1
 10
52.930517
 20
8.818380
 30
0.0
 10
51.971190
 20
8.216510
 30
0.0
 10
51.365851
 20
6.995210
 30
0.0
 10
51.364925
 20
5.659710
 30
0.0
  0
SPLINE
  5
15a
100
AcDbEntity
  8
Layer_1
 62
7
100
AcDbSpline
 70
8
 71
3
 72
8
 73
4
 74
0
 40
0
 40
0
 40
0
 40
0
 40
1
 40
1
 40
1
 40
1
 10
51.364925
 20
5.659710
 30
0.0
 10
51.364781
 20
3.703630
 30
0.0
 10
52.640659
 20
2.117770
 30
0.0
 10
54.214674
 20
2.117600
 30
0.0
  0
SPLINE
  5
15b
100
AcDbEntity
  8
Layer_1
 62
7
100
AcDbSpline
 70
8
 71
3
 72
8
 73
4
 74
0
 40
0
 40
0
 40
0
 40
0
 40
1
 40
1
 40
1
 40
1
 10
54.214674
 20
2.117600
 30
0.0
 10
54.819927
 20
2.118600
 30
0.0
 10
55.409064
 20
2.360130
 30
0.0
 10
55.896743
 20
2.805620
 30
0.0
  0
SPLINE
  5
15c
100
AcDbEntity
  8
Layer_1
 62
7
100
AcDbSpline
 70
8
 71
3
 72
8
 73
4
 74
0
 40
0
 40
0
 40
0
 40
0
 40
1
 40
1
 40
1
 40
1
 10
55.896743
 20
2.805620
 30
0.0
 10
55.897484
 20
1.255940
 30
0.0
 10
57.930383
 20
-0.000170
 30
0.0
 10
60.437963
 20
-0.000000
 30
0.0
  0
SPLINE
  5
15d
100
AcDbEntity
  8
Layer_1
 62
7
100
AcDbSpline
 70
8
 71
3
 72
8
 73
4
 74
0
 40
0
 40
0
 40
0
 40
0
 40
1
 40
1
 40
1
 40
1
 10
60.437963
 20
-0.000000
 30
0.0
 10
62.232191
 20
0.000740
 30
0.0
 10
63.857316
 20
0.654700
 30
0.0
 10
64.584896
 20
1.668320
 30
0.0
  0
SPLINE
  5
15e
100
AcDbEntity
  8
Layer_1
 62
7
100
AcDbSpline
 70
8
 71
3
 72
8
 73
4
 74
0
 40
0
 40
0
 40
0
 40
0
 40
1
 40
1
 40
1
 40
1
 10
64.584896
 20
1.668320
 30
0.0
 10
65.312053
 20
0.655280
 30
0.0
 10
66.935756
 20
0.001610
 30
0.0
 10
68.728932
 20
-0.000000
 30
0.0
  0
SPLINE
  5
15f
100
AcDbEntity
  8
Layer_1
 62
7
100
AcDbSpline
 70
8
 71
3
 72
8
 73
4
 74
0
 40
0
 40
0
 40
0
 40
0
 40
1
 40
1
 40
1
 40
1
 10
68.728932
 20
-0.000000
 30
0.0
 10
70.523157
 20
0.000740
 30
0.0
 10
72.148282
 20
0.654700
 30
0.0
 10
72.875862
 20
1.668320
 30
0.0
  0
SPLINE
  5
160
100
AcDbEntity
  8
Layer_1
 62
7
100
AcDbSpline
 70
8
 71
3
 72
8
 73
4
 74
0
 40
0
 40
0
 40
0
 40
0
 40
1
 40
1
 40
1
 40
1
 10
72.875862
 20
1.668320
 30
0.0
 10
73.603134
 20
0.655150
 30
0.0
 10
75.227178
 20
0.001450
 30
0.0
 10
77.020620
 20
-0.000000
 30
0.0
  0
SPLINE
  5
161
100
AcDbEntity
  8
Layer_1
 62
7
100
AcDbSpline
 70
8
 71
3
 72
8
 73
4
 74
0
 40
0
 40
0
 40
0
 40
0
 40
1
 40
1
 40
1
 40
1
 10
77.020620
 20
-0.000000
 30
0.0
 10
78.814848
 20
0.000740
 30
0.0
 10
80.439970
 20
0.654700
 30
0.0
 10
81.167550
 20
1.668320
 30
0.0
  0
SPLINE
  5
162
100
AcDbEntity
  8
Layer_1
 62
7
100
AcDbSpline
 70
8
 71
3
 72
8
 73
4
 74
0
 40
0
 40
0
 40
0
 40
0
 40
1
 40
1
 40
1
 40
1
 10
81.167550
 20
1.668320
 30
0.0
 10
81.894711
 20
0.655280
 30
0.0
 10
83.518410
 20
0.001610
 30
0.0
 10
85.311586
 20
-0.000000
 30
0.0
  0
SPLINE
  5
163
100
AcDbEntity
  8
Layer_1
 62
7
100
AcDbSpline
 70
8
 71
3
 72
8
 73
4
 74
0
 40
0
 40
0
 40
0
 40
0
 40
1
 40
1
 40
1
 40
1
 10
85.311586
 20
-0.000000
 30
0.0
 10
87.106096
 20
0.001000
 30
0.0
 10
88.731288
 20
0.655140
 30
0.0
 10
89.458519
 20
1.669050
 30
0.0
  0
SPLINE
  5
164
100
AcDbEntity
  8
Layer_1
 62
7
100
AcDbSpline
 70
8
 71
3
 72
8
 73
4
 74
0
 40
0
 40
0
 40
0
 40
0
 40
1
 40
1
 40
1
 40
1
 10
89.458519
 20
1.669050
 30
0.0
 10
90.185440
 20
0.655580
 30
0.0
 10
91.809557
 20
0.001560
 30
0.0
 10
93.603277
 20
-0.000000
 30
0.0
  0
SPLINE
  5
165
100
AcDbEntity
  8
Layer_1
 62
7
100
AcDbSpline
 70
8
 71
3
 72
8
 73
4
 74
0
 40
0
 40
0
 40
0
 40
0
 40
1
 40
1
 40
1
 40
1
 10
93.603277
 20
-0.000000
 30
0.0
 10
95.397507
 20
0.000740
 30
0.0
 10
97.022627
 20
0.654700
 30
0.0
 10
97.750207
 20
1.668320
 30
0.0
  0
SPLINE
  5
166
100
AcDbEntity
  8
Layer_1
 62
7
100
AcDbSpline
 70
8
 71
3
 72
8
 73
4
 74
0
 40
0
 40
0
 40
0
 40
0
 40
1
 40
1
 40
1
 40
1
 10
97.750207
 20
1.668320
 30
0.0
 10
98.477477
 20
0.655150
 30
0.0
 10
100.101530
 20
0.001450
 30
0.0
 10
101.894970
 20
-0.000000
 30
0.0
  0
SPLINE
  5
167
100
AcDbEntity
  8
Layer_1
 62
7
100
AcDbSpline
 70
8
 71
3
 72
8
 73
4
 74
0
 40
0
 40
0
 40
0
 40
0
 40
1
 40
1
 40
1
 40
1
 10
101.894970
 20
-0.000000
 30
0.0
 10
103.689480
 20
0.001000
 30
0.0
 10
105.314670
 20
0.655140
 30
0.0
 10
106.041900
 20
1.669050
 30
0.0
  0
SPLINE
  5
168
100
AcDbEntity
  8
Layer_1
 62
7
100
AcDbSpline
 70
8
 71
3
 72
8
 73
4
 74
0
 40
0
 40
0
 40
0
 40
0
 40
1
 40
1
 40
1
 40
1
 10
106.041900
 20
1.669050
 30
0.0
 10
106.768710
 20
0.655730
 30
0.0
 10
108.392480
 20
0.001740
 30
0.0
 10
110.185940
 20
-0.000000
 30
0.0
  0
SPLINE
  5
169
100
AcDbEntity
  8
Layer_1
 62
7
100
AcDbSpline
 70
8
 71
3
 72
8
 73
4
 74
0
 40
0
 40
0
 40
0
 40
0
 40
1
 40
1
 40
1
 40
1
 10
110.185940
 20
-0.000000
 30
0.0
 10
111.980160
 20
0.000740
 30
0.0
 10
113.605290
 20
0.654700
 30
0.0
 10
114.332870
 20
1.668320
 30
0.0
  0
SPLINE
  5
16a
100
AcDbEntity
  8
Layer_1
 62
7
100
AcDbSpline
 70
8
 71
3
 72
8
 73
4
 74
0
 40
0
 40
0
 40
0
 40
0
 40
1
 40
1
 40
1
 40
1
 10
114.332870
 20
1.668320
 30
0.0
 10
115.060140
 20
0.655150
 30
0.0
 10
116.684190
 20
0.001430
 30
0.0
 10
118.477630
 20
-0.000000
 30
0.0
  0
SPLINE
  5
16b
100
AcDbEntity
  8
Layer_1
 62
7
100
AcDbSpline
 70
8
 71
3
 72
8
 73
4
 74
0
 40
0
 40
0
 40
0
 40
0
 40
1
 40
1
 40
1
 40
1
 10
118.477630
 20
-0.000000
 30
0.0
 10
120.271850
 20
0.000740
 30
0.0
 10
121.896980
 20
0.654700
 30
0.0
 10
122.624560
 20
1.668320
 30
0.0
  0
SPLINE
  5
16c
100
AcDbEntity
  8
Layer_1
 62
7
100
AcDbSpline
 70
8
 71
3
 72
8
 73
4
 74
0
 40
0
 40
0
 40
0
 40
0
 40
1
 40
1
 40
1
 40
1
 10
122.624560
 20
1.668320
 30
0.0
 10
123.351720
 20
0.655280
 30
0.0
 10
124.975420
 20
0.001610
 30
0.0
 10
126.768600
 20
-0.000000
 30
0.0
  0
SPLINE
  5
16d
100
AcDbEntity
  8
Layer_1
 62
7
100
AcDbSpline
 70
8
 71
3
 72
8
 73
4
 74
0
 40
0
 40
0
 40
0
 40
0
 40
1
 40
1
 40
1
 40
1
 10
126.768600
 20
-0.000000
 30
0.0
 10
128.562820
 20
0.000740
 30
0.0
 10
130.187950
 20
0.654700
 30
0.0
 10
130.915530
 20
1.668320
 30
0.0
  0
SPLINE
  5
16e
100
AcDbEntity
  8
Layer_1
 62
7
100
AcDbSpline
 70
8
 71
3
 72
8
 73
4
 74
0
 40
0
 40
0
 40
0
 40
0
 40
1
 40
1
 40
1
 40
1
 10
130.915530
 20
1.668320
 30
0.0
 10
131.642800
 20
0.655150
 30
0.0
 10
133.266840
 20
0.001450
 30
0.0
 10
135.060280
 20
-0.000000
 30
0.0
  0
SPLINE
  5
16f
100
AcDbEntity
  8
Layer_1
 62
7
100
AcDbSpline
 70
8
 71
3
 72
8
 73
4
 74
0
 40
0
 40
0
 40
0
 40
0
 40
1
 40
1
 40
1
 40
1
 10
135.060280
 20
-0.000000
 30
0.0
 10
136.854510
 20
0.000740
 30
0.0
 10
138.479630
 20
0.654700
 30
0.0
 10
139.207210
 20
1.668320
 30
0.0
  0
SPLINE
  5
170
100
AcDbEntity
  8
Layer_1
 62
7
100
AcDbSpline
 70
8
 71
3
 72
8
 73
4
 74
0
 40
0
 40
0
 40
0
 40
0
 40
1
 40
1
 40
1
 40
1
 10
139.207210
 20
1.668320
 30
0.0
 10
139.934370
 20
0.655280
 30
0.0
 10
141.558070
 20
0.001610
 30
0.0
 10
143.351250
 20
-0.000000
 30
0.0
  0
SPLINE
  5
171
100
AcDbEntity
  8
Layer_1
 62
7
100
AcDbSpline
 70
8
 71
3
 72
8
 73
4
 74
0
 40
0
 40
0
 40
0
 40
0
 40
1
 40
1
 40
1
 40
1
 10
143.351250
 20
-0.000000
 30
0.0
 10
145.145490
 20
0.000740
 30
0.0
 10
146.770600
 20
0.654700
 30
0.0
 10
147.498180
 20
1.668320
 30
0.0
  0
SPLINE
  5
172
100
AcDbEntity
  8
Layer_1
 62
7
100
AcDbSpline
 70
8
 71
3
 72
8
 73
4
 74
0
 40
0
 40
0
 40
0
 40
0
 40
1
 40
1
 40
1
 40
1
 10
147.498180
 20
1.668320
 30
0.0
 10
148.225460
 20
0.655150
 30
0.0
 10
149.849500
 20
0.001450
 30
0.0
 10
151.642940
 20
-0.000000
 30
0.0
  0
SPLINE
  5
173
100
AcDbEntity
  8
Layer_1
 62
7
100
AcDbSpline
 70
8
 71
3
 72
8
 73
4
 74
0
 40
0
 40
0
 40
0
 40
0
 40
1
 40
1
 40
1
 40
1
 10
151.642940
 20
-0.000000
 30
0.0
 10
153.437170
 20
0.000740
 30
0.0
 10
155.062290
 20
0.654700
 30
0.0
 10
155.789870
 20
1.668320
 30
0.0
  0
SPLINE
  5
174
100
AcDbEntity
  8
Layer_1
 62
7
100
AcDbSpline
 70
8
 71
3
 72
8
 73
4
 74
0
 40
0
 40
0
 40
0
 40
0
 40
1
 40
1
 40
1
 40
1
 10
155.789870
 20
1.668320
 30
0.0
 10
156.517140
 20
0.655150
 30
0.0
 10
158.141190
 20
0.001450
 30
0.0
 10
159.934630
 20
-0.000000
 30
0.0
  0
SPLINE
  5
175
100
AcDbEntity
  8
Layer_1
 62
7
100
AcDbSpline
 70
8
 71
3
 72
8
 73
4
 74
0
 40
0
 40
0
 40
0
 40
0
 40
1
 40
1
 40
1
 40
1
 10
159.934630
 20
-0.000000
 30
0.0
 10
161.729150
 20
0.001000
 30
0.0
 10
163.354330
 20
0.655130
 30
0.0
 10
164.081560
 20
1.669050
 30
0.0
  0
SPLINE
  5
176
100
AcDbEntity
  8
Layer_1
 62
7
100
AcDbSpline
 70
8
 71
3
 72
8
 73
4
 74
0
 40
0
 40
0
 40
0
 40
0
 40
1
 40
1
 40
1
 40
1
 10
164.081560
 20
1.669050
 30
0.0
 10
164.808370
 20
0.655730
 30
0.0
 10
166.432160
 20
0.001740
 30
0.0
 10
168.225600
 20
-0.000000
 30
0.0
  0
SPLINE
  5
177
100
AcDbEntity
  8
Layer_1
 62
7
100
AcDbSpline
 70
8
 71
3
 72
8
 73
4
 74
0
 40
0
 40
0
 40
0
 40
0
 40
1
 40
1
 40
1
 40
1
 10
168.225600
 20
-0.000000
 30
0.0
 10
170.019840
 20
0.000740
 30
0.0
 10
171.644950
 20
0.654700
 30
0.0
 10
172.372530
 20
1.668320
 30
0.0
  0
SPLINE
  5
178
100
AcDbEntity
  8
Layer_1
 62
7
100
AcDbSpline
 70
8
 71
3
 72
8
 73
4
 74
0
 40
0
 40
0
 40
0
 40
0
 40
1
 40
1
 40
1
 40
1
 10
172.372530
 20
1.668320
 30
0.0
 10
173.099800
 20
0.655150
 30
0.0
 10
174.723850
 20
0.001450
 30
0.0
 10
176.517290
 20
-0.000000
 30
0.0
  0
SPLINE
  5
179
100
AcDbEntity
  8
Layer_1
 62
7
100
AcDbSpline
 70
8
 71
3
 72
8
 73
4
 74
0
 40
0
 40
0
 40
0
 40
0
 40
1
 40
1
 40
1
 40
1
 10
176.517290
 20
-0.000000
 30
0.0
 10
178.311790
 20
0.001000
 30
0.0
 10
179.936990
 20
0.655140
 30
0.0
 10
180.664220
 20
1.669050
 30
0.0
  0
SPLINE
  5
17a
100
AcDbEntity
  8
Layer_1
 62
7
100
AcDbSpline
 70
8
 71
3
 72
8
 73
4
 74
0
 40
0
 40
0
 40
0
 40
0
 40
1
 40
1
 40
1
 40
1
 10
180.664220
 20
1.669050
 30
0.0
 10
181.391030
 20
0.655730
 30
0.0
 10
183.014800
 20
0.001740
 30
0.0
 10
184.808260
 20
-0.000000
 30
0.0
  0
SPLINE
  5
17b
100
AcDbEntity
  8
Layer_1
 62
7
100
AcDbSpline
 70
8
 71
3
 72
8
 73
4
 74
0
 40
0
 40
0
 40
0
 40
0
 40
1
 40
1
 40
1
 40
1
 10
184.808260
 20
-0.000000
 30
0.0
 10
186.602480
 20
0.000740
 30
0.0
 10
188.227610
 20
0.654700
 30
0.0
 10
188.955190
 20
1.668320
 30
0.0
  0
SPLINE
  5
17c
100
AcDbEntity
  8
Layer_1
 62
7
100
AcDbSpline
 70
8
 71
3
 72
8
 73
4
 74
0
 40
0
 40
0
 40
0
 40
0
 40
1
 40
1
 40
1
 40
1
 10
188.955190
 20
1.668320
 30
0.0
 10
189.682460
 20
0.655150
 30
0.0
 10
191.306500
 20
0.001430
 30
0.0
 10
193.099940
 20
-0.000000
 30
0.0
  0
SPLINE
  5
17d
100
AcDbEntity
  8
Layer_1
 62
7
100
AcDbSpline
 70
8
 71
3
 72
8
 73
4
 74
0
 40
0
 40
0
 40
0
 40
0
 40
1
 40
1
 40
1
 40
1
 10
193.099940
 20
-0.000000
 30
0.0
 10
194.894170
 20
0.000740
 30
0.0
 10
196.519290
 20
0.654700
 30
0.0
 10
197.246870
 20
1.668320
 30
0.0
  0
SPLINE
  5
17e
100
AcDbEntity
  8
Layer_1
 62
7
100
AcDbSpline
 70
8
 71
3
 72
8
 73
4
 74
0
 40
0
 40
0
 40
0
 40
0
 40
1
 40
1
 40
1
 40
1
 10
197.246870
 20
1.668320
 30
0.0
 10
197.974040
 20
0.655280
 30
0.0
 10
199.597730
 20
0.001610
 30
0.0
 10
201.390910
 20
-0.000000
 30
0.0
  0
SPLINE
  5
17f
100
AcDbEntity
  8
Layer_1
 62
7
100
AcDbSpline
 70
8
 71
3
 72
8
 73
4
 74
0
 40
0
 40
0
 40
0
 40
0
 40
1
 40
1
 40
1
 40
1
 10
201.390910
 20
-0.000000
 30
0.0
 10
203.185150
 20
0.000740
 30
0.0
 10
204.810260
 20
0.654700
 30
0.0
 10
205.537840
 20
1.668320
 30
0.0
  0
SPLINE
  5
180
100
AcDbEntity
  8
Layer_1
 62
7
100
AcDbSpline
 70
8
 71
3
 72
8
 73
4
 74
0
 40
0
 40
0
 40
0
 40
0
 40
1
 40
1
 40
1
 40
1
 10
205.537840
 20
1.668320
 30
0.0
 10
206.265120
 20
0.655150
 30
0.0
 10
207.889160
 20
0.001450
 30
0.0
 10
209.682600
 20
-0.000000
 30
0.0
  0
SPLINE
  5
181
100
AcDbEntity
  8
Layer_1
 62
7
100
AcDbSpline
 70
8
 71
3
 72
8
 73
4
 74
0
 40
0
 40
0
 40
0
 40
0
 40
1
 40
1
 40
1
 40
1
 10
209.682600
 20
-0.000000
 30
0.0
 10
211.476830
 20
0.000740
 30
0.0
 10
213.101950
 20
0.654700
 30
0.0
 10
213.829530
 20
1.668320
 30
0.0
  0
SPLINE
  5
182
100
AcDbEntity
  8
Layer_1
 62
7
100
AcDbSpline
 70
8
 71
3
 72
8
 73
4
 74
0
 40
0
 40
0
 40
0
 40
0
 40
1
 40
1
 40
1
 40
1
 10
213.829530
 20
1.668320
 30
0.0
 10
214.556690
 20
0.655280
 30
0.0
 10
216.180390
 20
0.001610
 30
0.0
 10
217.973570
 20
-0.000000
 30
0.0
  0
SPLINE
  5
183
100
AcDbEntity
  8
Layer_1
 62
7
100
AcDbSpline
 70
8
 71
3
 72
8
 73
4
 74
0
 40
0
 40
0
 40
0
 40
0
 40
1
 40
1
 40
1
 40
1
 10
217.973570
 20
-0.000000
 30
0.0
 10
220.343370
 20
-0.000150
 30
0.0
 10
223.590400
 20
4.338440
 30
0.0
 10
223.590590
 20
5.483180
 30
0.0
  0
SPLINE
  5
184
100
AcDbEntity
  8
Layer_1
 62
7
100
AcDbSpline
 70
8
 71
3
 72
8
 73
4
 74
0
 40
0
 40
0
 40
0
 40
0
 40
1
 40
1
 40
1
 40
1
 10
223.590590
 20
5.483180
 30
0.0
 10
223.589590
 20
6.890790
 30
0.0
 10
222.978720
 20
8.176710
 30
0.0
 10
222.013420
 20
8.805360
 30
0.0
  0
SPLINE
  5
185
100
AcDbEntity
  8
Layer_1
 62
7
100
AcDbSpline
 70
8
 71
3
 72
8
 73
4
 74
0
 40
0
 40
0
 40
0
 40
0
 40
1
 40
1
 40
1
 40
1
 10
222.013420
 20
8.805360
 30
0.0
 10
222.979620
 20
9.585700
 30
0.0
 10
223.590250
 20
11.182590
 30
0.0
 10
223.590590
 20
12.929860
 30
0.0
  0
SPLINE
  5
186
100
AcDbEntity
  8
Layer_1
 62
7
100
AcDbSpline
 70
8
 71
3
 72
8
 73
4
 74
0
 40
0
 40
0
 40
0
 40
0
 40
1
 40
1
 40
1
 40
1
 10
223.590590
 20
12.929860
 30
0.0
 10
223.588590
 20
14.716370
 30
0.0
 10
222.949590
 20
16.340540
 30
0.0
 10
221.949760
 20
17.098490
 30
0.0
  0
SPLINE
  5
187
100
AcDbEntity
  8
Layer_1
 62
7
100
AcDbSpline
 70
8
 71
3
 72
8
 73
4
 74
0
 40
0
 40
0
 40
0
 40
0
 40
1
 40
1
 40
1
 40
1
 10
221.949760
 20
17.098490
 30
0.0
 10
222.950020
 20
17.856780
 30
0.0
 10
223.589400
 20
19.482010
 30
0.0
 10
223.590590
 20
21.269300
 30
0.0
  0
SPLINE
  5
188
100
AcDbEntity
  8
Layer_1
 62
7
100
AcDbSpline
 70
8
 71
3
 72
8
 73
4
 74
0
 40
0
 40
0
 40
0
 40
0
 40
1
 40
1
 40
1
 40
1
 10
223.590590
 20
21.269300
 30
0.0
 10
223.589590
 20
23.055800
 30
0.0
 10
222.950170
 20
24.680250
 30
0.0
 10
221.950480
 20
25.438660
 30
0.0
  0
SPLINE
  5
189
100
AcDbEntity
  8
Layer_1
 62
7
100
AcDbSpline
 70
8
 71
3
 72
8
 73
4
 74
0
 40
0
 40
0
 40
0
 40
0
 40
1
 40
1
 40
1
 40
1
 10
221.950480
 20
25.438660
 30
0.0
 10
222.950320
 20
26.197180
 30
0.0
 10
223.589360
 20
27.821980
 30
0.0
 10
223.590590
 20
29.608740
 30
0.0
  0
SPLINE
  5
18a
100
AcDbEntity
  8
Layer_1
 62
7
100
AcDbSpline
 70
8
 71
3
 72
8
 73
4
 74
0
 40
0
 40
0
 40
0
 40
0
 40
1
 40
1
 40
1
 40
1
 10
223.590590
 20
29.608740
 30
0.0
 10
223.589590
 20
31.395510
 30
0.0
 10
222.949730
 20
33.020030
 30
0.0
 10
221.949760
 20
33.778100
 30
0.0
  0
SPLINE
  5
18b
100
AcDbEntity
  8
Layer_1
 62
7
100
AcDbSpline
 70
8
 71
3
 72
8
 73
4
 74
0
 40
0
 40
0
 40
0
 40
0
 40
1
 40
1
 40
1
 40
1
 10
221.949760
 20
33.778100
 30
0.0
 10
222.949880
 20
34.536280
 30
0.0
 10
223.589230
 20
36.161150
 30
0.0
 10
223.590590
 20
37.948180
 30
0.0
  0
SPLINE
  5
18c
100
AcDbEntity
  8
Layer_1
 62
7
100
AcDbSpline
 70
8
 71
3
 72
8
 73
4
 74
0
 40
0
 40
0
 40
0
 40
0
 40
1
 40
1
 40
1
 40
1
 10
223.590590
 20
37.948180
 30
0.0
 10
223.589590
 20
39.734940
 30
0.0
 10
222.949730
 20
41.359470
 30
0.0
 10
221.949760
 20
42.117540
 30
0.0
  0
SPLINE
  5
18d
100
AcDbEntity
  8
Layer_1
 62
7
100
AcDbSpline
 70
8
 71
3
 72
8
 73
4
 74
0
 40
0
 40
0
 40
0
 40
0
 40
1
 40
1
 40
1
 40
1
 10
221.949760
 20
42.117540
 30
0.0
 10
222.950020
 20
42.875830
 30
0.0
 10
223.589400
 20
44.501050
 30
0.0
 10
223.590590
 20
46.288340
 30
0.0
  0
SPLINE
  5
18e
100
AcDbEntity
  8
Layer_1
 62
7
100
AcDbSpline
 70
8
 71
3
 72
8
 73
4
 74
0
 40
0
 40
0
 40
0
 40
0
 40
1
 40
1
 40
1
 40
1
 10
223.590590
 20
46.288340
 30
0.0
 10
223.589590
 20
48.074840
 30
0.0
 10
222.950170
 20
49.699290
 30
0.0
 10
221.950480
 20
50.457700
 30
0.0
  0
SPLINE
  5
18f
100
AcDbEntity
  8
Layer_1
 62
7
100
AcDbSpline
 70
8
 71
3
 72
8
 73
4
 74
0
 40
0
 40
0
 40
0
 40
0
 40
1
 40
1
 40
1
 40
1
 10
221.950480
 20
50.457700
 30
0.0
 10
222.950320
 20
51.216220
 30
0.0
 10
223.589360
 20
52.841020
 30
0.0
 10
223.590590
 20
54.627780
 30
0.0
  0
SPLINE
  5
190
100
AcDbEntity
  8
Layer_1
 62
7
100
AcDbSpline
 70
8
 71
3
 72
8
 73
4
 74
0
 40
0
 40
0
 40
0
 40
0
 40
1
 40
1
 40
1
 40
1
 10
223.590590
 20
54.627780
 30
0.0
 10
223.589590
 20
56.414550
 30
0.0
 10
222.949730
 20
58.039070
 30
0.0
 10
221.949760
 20
58.797140
 30
0.0
  0
SPLINE
  5
191
100
AcDbEntity
  8
Layer_1
 62
7
100
AcDbSpline
 70
8
 71
3
 72
8
 73
4
 74
0
 40
0
 40
0
 40
0
 40
0
 40
1
 40
1
 40
1
 40
1
 10
221.949760
 20
58.797140
 30
0.0
 10
222.949880
 20
59.555320
 30
0.0
 10
223.589230
 20
61.180190
 30
0.0
 10
223.590590
 20
62.967220
 30
0.0
  0
SPLINE
  5
192
100
AcDbEntity
  8
Layer_1
 62
7
100
AcDbSpline
 70
8
 71
3
 72
8
 73
4
 74
0
 40
0
 40
0
 40
0
 40
0
 40
1
 40
1
 40
1
 40
1
 10
223.590590
 20
62.967220
 30
0.0
 10
223.589590
 20
64.753990
 30
0.0
 10
222.949730
 20
66.378510
 30
0.0
 10
221.949760
 20
67.136580
 30
0.0
  0
SPLINE
  5
193
100
AcDbEntity
  8
Layer_1
 62
7
100
AcDbSpline
 70
8
 71
3
 72
8
 73
4
 74
0
 40
0
 40
0
 40
0
 40
0
 40
1
 40
1
 40
1
 40
1
 10
221.949760
 20
67.136580
 30
0.0
 10
222.950020
 20
67.894870
 30
0.0
 10
223.589400
 20
69.520090
 30
0.0
 10
223.590590
 20
71.307380
 30
0.0
  0
SPLINE
  5
194
100
AcDbEntity
  8
Layer_1
 62
7
100
AcDbSpline
 70
8
 71
3
 72
8
 73
4
 74
0
 40
0
 40
0
 40
0
 40
0
 40
1
 40
1
 40
1
 40
1
 10
223.590590
 20
71.307380
 30
0.0
 10
223.588590
 20
73.093890
 30
0.0
 10
222.949590
 20
74.718060
 30
0.0
 10
221.949760
 20
75.476020
 30
0.0
  0
SPLINE
  5
195
100
AcDbEntity
  8
Layer_1
 62
7
100
AcDbSpline
 70
8
 71
3
 72
8
 73
4
 74
0
 40
0
 40
0
 40
0
 40
0
 40
1
 40
1
 40
1
 40
1
 10
221.949760
 20
75.476020
 30
0.0
 10
222.950020
 20
76.234310
 30
0.0
 10
223.589400
 20
77.859530
 30
0.0
 10
223.590590
 20
79.646820
 30
0.0
  0
SPLINE
  5
196
100
AcDbEntity
  8
Layer_1
 62
7
100
AcDbSpline
 70
8
 71
3
 72
8
 73
4
 74
0
 40
0
 40
0
 40
0
 40
0
 40
1
 40
1
 40
1
 40
1
 10
223.590590
 20
79.646820
 30
0.0
 10
223.589590
 20
81.433320
 30
0.0
 10
222.950170
 20
83.057770
 30
0.0
 10
221.950480
 20
83.816180
 30
0.0
  0
SPLINE
  5
197
100
AcDbEntity
  8
Layer_1
 62
7
100
AcDbSpline
 70
8
 71
3
 72
8
 73
4
 74
0
 40
0
 40
0
 40
0
 40
0
 40
1
 40
1
 40
1
 40
1
 10
221.950480
 20
83.816180
 30
0.0
 10
222.950320
 20
84.574700
 30
0.0
 10
223.589360
 20
86.199500
 30
0.0
 10
223.590590
 20
87.986260
 30
0.0
  0
SPLINE
  5
198
100
AcDbEntity
  8
Layer_1
 62
7
100
AcDbSpline
 70
8
 71
3
 72
8
 73
4
 74
0
 40
0
 40
0
 40
0
 40
0
 40
1
 40
1
 40
1
 40
1
 10
223.590590
 20
87.986260
 30
0.0
 10
223.589590
 20
89.773030
 30
0.0
 10
222.949730
 20
91.397550
 30
0.0
 10
221.949760
 20
92.155620
 30
0.0
  0
SPLINE
  5
199
100
AcDbEntity
  8
Layer_1
 62
7
100
AcDbSpline
 70
8
 71
3
 72
8
 73
4
 74
0
 40
0
 40
0
 40
0
 40
0
 40
1
 40
1
 40
1
 40
1
 10
221.949760
 20
92.155620
 30
0.0
 10
222.949880
 20
92.913800
 30
0.0
 10
223.589230
 20
94.538670
 30
0.0
 10
223.590590
 20
96.325700
 30
0.0
  0
SPLINE
  5
19a
100
AcDbEntity
  8
Layer_1
 62
7
100
AcDbSpline
 70
8
 71
3
 72
8
 73
4
 74
0
 40
0
 40
0
 40
0
 40
0
 40
1
 40
1
 40
1
 40
1
 10
223.590590
 20
96.325700
 30
0.0
 10
223.587590
 20
98.113020
 30
0.0
 10
222.947670
 20
99.737120
 30
0.0
 10
221.946860
 20
100.493610
 30
0.0
  0
SPLINE
  5
19b
100
AcDbEntity
  8
Layer_1
 62
7
100
AcDbSpline
 70
8
 71
3
 72
8
 73
4
 74
0
 40
0
 40
0
 40
0
 40
0
 40
1
 40
1
 40
1
 40
1
 10
221.946860
 20
100.493610
 30
0.0
 10
222.948550
 20
101.250760
 30
0.0
 10
223.589220
 20
102.876970
 30
0.0
 10
223.590590
 20
104.665860
 30
0.0
  0
SPLINE
  5
19c
100
AcDbEntity
  8
Layer_1
 62
7
100
AcDbSpline
 70
8
 71
3
 72
8
 73
4
 74
0
 40
0
 40
0
 40
0
 40
0
 40
1
 40
1
 40
1
 40
1
 10
223.590590
 20
104.665860
 30
0.0
 10
223.589590
 20
106.452360
 30
0.0
 10
222.950170
 20
108.076810
 30
0.0
 10
221.950480
 20
108.835220
 30
0.0
  0
SPLINE
  5
19d
100
AcDbEntity
  8
Layer_1
 62
7
100
AcDbSpline
 70
8
 71
3
 72
8
 73
4
 74
0
 40
0
 40
0
 40
0
 40
0
 40
1
 40
1
 40
1
 40
1
 10
221.950480
 20
108.835220
 30
0.0
 10
222.950320
 20
109.593740
 30
0.0
 10
223.589360
 20
111.218540
 30
0.0
 10
223.590590
 20
113.005300
 30
0.0
  0
SPLINE
  5
19e
100
AcDbEntity
  8
Layer_1
 62
7
100
AcDbSpline
 70
8
 71
3
 72
8
 73
4
 74
0
 40
0
 40
0
 40
0
 40
0
 40
1
 40
1
 40
1
 40
1
 10
223.590590
 20
113.005300
 30
0.0
 10
223.589590
 20
114.792070
 30
0.0
 10
222.949730
 20
116.416590
 30
0.0
 10
221.949760
 20
117.174660
 30
0.0
  0
SPLINE
  5
19f
100
AcDbEntity
  8
Layer_1
 62
7
100
AcDbSpline
 70
8
 71
3
 72
8
 73
4
 74
0
 40
0
 40
0
 40
0
 40
0
 40
1
 40
1
 40
1
 40
1
 10
221.949760
 20
117.174660
 30
0.0
 10
222.949880
 20
117.932840
 30
0.0
 10
223.589230
 20
119.557710
 30
0.0
 10
223.590590
 20
121.344740
 30
0.0
  0
SPLINE
  5
1a0
100
AcDbEntity
  8
Layer_1
 62
7
100
AcDbSpline
 70
8
 71
3
 72
8
 73
4
 74
0
 40
0
 40
0
 40
0
 40
0
 40
1
 40
1
 40
1
 40
1
 10
223.590590
 20
121.344740
 30
0.0
 10
223.589590
 20
123.131510
 30
0.0
 10
222.949730
 20
124.756030
 30
0.0
 10
221.949760
 20
125.514100
 30
0.0
  0
SPLINE
  5
1a1
100
AcDbEntity
  8
Layer_1
 62
7
100
AcDbSpline
 70
8
 71
3
 72
8
 73
4
 74
0
 40
0
 40
0
 40
0
 40
0
 40
1
 40
1
 40
1
 40
1
 10
221.949760
 20
125.514100
 30
0.0
 10
222.950020
 20
126.272390
 30
0.0
 10
223.589400
 20
127.897620
 30
0.0
 10
223.590590
 20
129.684910
 30
0.0
  0
SPLINE
  5
1a2
100
AcDbEntity
  8
Layer_1
 62
7
100
AcDbSpline
 70
8
 71
3
 72
8
 73
4
 74
0
 40
0
 40
0
 40
0
 40
0
 40
1
 40
1
 40
1
 40
1
 10
223.590590
 20
129.684910
 30
0.0
 10
223.589590
 20
131.471410
 30
0.0
 10
222.950170
 20
133.095850
 30
0.0
 10
221.950480
 20
133.854260
 30
0.0
  0
SPLINE
  5
1a3
100
AcDbEntity
  8
Layer_1
 62
7
100
AcDbSpline
 70
8
 71
3
 72
8
 73
4
 74
0
 40
0
 40
0
 40
0
 40
0
 40
1
 40
1
 40
1
 40
1
 10
221.950480
 20
133.854260
 30
0.0
 10
222.950320
 20
134.612780
 30
0.0
 10
223.589360
 20
136.237580
 30
0.0
 10
223.590590
 20
138.024340
 30
0.0
  0
SPLINE
  5
1a4
100
AcDbEntity
  8
Layer_1
 62
7
100
AcDbSpline
 70
8
 71
3
 72
8
 73
4
 74
0
 40
0
 40
0
 40
0
 40
0
 40
1
 40
1
 40
1
 40
1
 10
223.590590
 20
138.024340
 30
0.0
 10
223.589590
 20
139.811110
 30
0.0
 10
222.949730
 20
141.435630
 30
0.0
 10
221.949760
 20
142.193700
 30
0.0
  0
SPLINE
  5
1a5
100
AcDbEntity
  8
Layer_1
 62
7
100
AcDbSpline
 70
8
 71
3
 72
8
 73
4
 74
0
 40
0
 40
0
 40
0
 40
0
 40
1
 40
1
 40
1
 40
1
 10
221.949760
 20
142.193700
 30
0.0
 10
222.949880
 20
142.951880
 30
0.0
 10
223.589230
 20
144.576760
 30
0.0
 10
223.590590
 20
146.363790
 30
0.0
  0
SPLINE
  5
1a6
100
AcDbEntity
  8
Layer_1
 62
7
100
AcDbSpline
 70
8
 71
3
 72
8
 73
4
 74
0
 40
0
 40
0
 40
0
 40
0
 40
1
 40
1
 40
1
 40
1
 10
223.590590
 20
146.363790
 30
0.0
 10
223.589590
 20
148.150550
 30
0.0
 10
222.949730
 20
149.775080
 30
0.0
 10
221.949760
 20
150.533140
 30
0.0
  0
SPLINE
  5
1a7
100
AcDbEntity
  8
Layer_1
 62
7
100
AcDbSpline
 70
8
 71
3
 72
8
 73
4
 74
0
 40
0
 40
0
 40
0
 40
0
 40
1
 40
1
 40
1
 40
1
 10
221.949760
 20
150.533140
 30
0.0
 10
222.950020
 20
151.291440
 30
0.0
 10
223.589400
 20
152.916660
 30
0.0
 10
223.590590
 20
154.703950
 30
0.0
  0
SPLINE
  5
1a8
100
AcDbEntity
  8
Layer_1
 62
7
100
AcDbSpline
 70
8
 71
3
 72
8
 73
4
 74
0
 40
0
 40
0
 40
0
 40
0
 40
1
 40
1
 40
1
 40
1
 10
223.590590
 20
154.703950
 30
0.0
 10
223.589590
 20
155.379210
 30
0.0
 10
223.496490
 20
156.045790
 30
0.0
 10
223.318570
 20
156.656590
 30
0.0
  0
SPLINE
  5
1a9
100
AcDbEntity
  8
Layer_1
 62
7
100
AcDbSpline
 70
8
 71
3
 72
8
 73
4
 74
0
 40
0
 40
0
 40
0
 40
0
 40
1
 40
1
 40
1
 40
1
 10
223.318570
 20
156.656590
 30
0.0
 10
225.028960
 20
156.112300
 30
0.0
 10
227.667970
 20
155.787300
 30
0.0
 10
228.929070
 20
155.786260
 30
0.0
  0
SPLINE
  5
1aa
100
AcDbEntity
  8
Layer_1
 62
7
100
AcDbSpline
 70
8
 71
3
 72
8
 73
4
 74
0
 40
0
 40
0
 40
0
 40
0
 40
1
 40
1
 40
1
 40
1
 10
228.929070
 20
155.786260
 30
0.0
 10
230.723300
 20
155.787000
 30
0.0
 10
232.348430
 20
156.440950
 30
0.0
 10
233.076010
 20
157.454580
 30
0.0
  0
SPLINE
  5
1ab
100
AcDbEntity
  8
Layer_1
 62
7
100
AcDbSpline
 70
8
 71
3
 72
8
 73
4
 74
0
 40
0
 40
0
 40
0
 40
0
 40
1
 40
1
 40
1
 40
1
 10
233.076010
 20
157.454580
 30
0.0
 10
233.803280
 20
156.441400
 30
0.0
 10
235.427320
 20
155.787690
 30
0.0
 10
237.220770
 20
155.786260
 30
0.0
  0
SPLINE
  5
1ac
100
AcDbEntity
  8
Layer_1
 62
7
100
AcDbSpline
 70
8
 71
3
 72
8
 73
4
 74
0
 40
0
 40
0
 40
0
 40
0
 40
1
 40
1
 40
1
 40
1
 10
237.220770
 20
155.786260
 30
0.0
 10
239.014990
 20
155.787000
 30
0.0
 10
240.640120
 20
156.440950
 30
0.0
 10
241.367700
 20
157.454580
 30
0.0
  0
SPLINE
  5
1ad
100
AcDbEntity
  8
Layer_1
 62
7
100
AcDbSpline
 70
8
 71
3
 72
8
 73
4
 74
0
 40
0
 40
0
 40
0
 40
0
 40
1
 40
1
 40
1
 40
1
 10
241.367700
 20
157.454580
 30
0.0
 10
242.094860
 20
156.441540
 30
0.0
 10
243.718560
 20
155.787870
 30
0.0
 10
245.511730
 20
155.786260
 30
0.0
  0
SPLINE
  5
1ae
100
AcDbEntity
  8
Layer_1
 62
7
100
AcDbSpline
 70
8
 71
3
 72
8
 73
4
 74
0
 40
0
 40
0
 40
0
 40
0
 40
1
 40
1
 40
1
 40
1
 10
245.511730
 20
155.786260
 30
0.0
 10
247.305960
 20
155.787000
 30
0.0
 10
248.931110
 20
156.440950
 30
0.0
 10
249.658660
 20
157.454580
 30
0.0
  0
SPLINE
  5
1af
100
AcDbEntity
  8
Layer_1
 62
7
100
AcDbSpline
 70
8
 71
3
 72
8
 73
4
 74
0
 40
0
 40
0
 40
0
 40
0
 40
1
 40
1
 40
1
 40
1
 10
249.658660
 20
157.454580
 30
0.0
 10
250.385920
 20
156.441400
 30
0.0
 10
252.009980
 20
155.787700
 30
0.0
 10
253.803420
 20
155.786260
 30
0.0
  0
SPLINE
  5
1b0
100
AcDbEntity
  8
Layer_1
 62
7
100
AcDbSpline
 70
8
 71
3
 72
8
 73
4
 74
0
 40
0
 40
0
 40
0
 40
0
 40
1
 40
1
 40
1
 40
1
 10
253.803420
 20
155.786260
 30
0.0
 10
255.597650
 20
155.787000
 30
0.0
 10
257.222770
 20
156.440950
 30
0.0
 10
257.950350
 20
157.454580
 30
0.0
  0
SPLINE
  5
1b1
100
AcDbEntity
  8
Layer_1
 62
7
100
AcDbSpline
 70
8
 71
3
 72
8
 73
4
 74
0
 40
0
 40
0
 40
0
 40
0
 40
1
 40
1
 40
1
 40
1
 10
257.950350
 20
157.454580
 30
0.0
 10
258.677510
 20
156.441550
 30
0.0
 10
260.301210
 20
155.787870
 30
0.0
 10
262.094390
 20
155.786260
 30
0.0
  0
SPLINE
  5
1b2
100
AcDbEntity
  8
Layer_1
 62
7
100
AcDbSpline
 70
8
 71
3
 72
8
 73
4
 74
0
 40
0
 40
0
 40
0
 40
0
 40
1
 40
1
 40
1
 40
1
 10
262.094390
 20
155.786260
 30
0.0
 10
263.888620
 20
155.787000
 30
0.0
 10
265.513740
 20
156.440950
 30
0.0
 10
266.241320
 20
157.454580
 30
0.0
  0
SPLINE
  5
1b3
100
AcDbEntity
  8
Layer_1
 62
7
100
AcDbSpline
 70
8
 71
3
 72
8
 73
4
 74
0
 40
0
 40
0
 40
0
 40
0
 40
1
 40
1
 40
1
 40
1
 10
266.241320
 20
157.454580
 30
0.0
 10
266.968580
 20
156.441400
 30
0.0
 10
268.592640
 20
155.787700
 30
0.0
 10
270.386080
 20
155.786260
 30
0.0
  0
SPLINE
  5
1b4
100
AcDbEntity
  8
Layer_1
 62
7
100
AcDbSpline
 70
8
 71
3
 72
8
 73
4
 74
0
 40
0
 40
0
 40
0
 40
0
 40
1
 40
1
 40
1
 40
1
 10
270.386080
 20
155.786260
 30
0.0
 10
272.765450
 20
155.787260
 30
0.0
 10
274.739530
 20
156.924030
 30
0.0
 10
274.910660
 20
158.390750
 30
0.0
  0
LWPOLYLINE
  5
1b5
100
AcDbEntity
  8
Layer_1
 62
7
100
AcDbPolyline
 90
4
 70
0
 10
0.600477
 20
210.537750
 30
0.0
 10
0.000000
 20
210.537750
 30
0.0
 10
0.000000
 20
158.390750
 30
0.0
 10
0.533921
 20
158.390750
 30
0.0
  0
SPLINE
  5
1b6
100
AcDbEntity
  8
Layer_1
 62
7
100
AcDbSpline
 70
8
 71
3
 72
8
 73
4
 74
0
 40
0
 40
0
 40
0
 40
0
 40
1
 40
1
 40
1
 40
1
 10
274.848440
 20
210.537710
 30
0.0
 10
274.450200
 20
211.867440
 30
0.0
 10
272.574170
 20
212.832520
 30
0.0
 10
270.386080
 20
212.833280
 30
0.0
  0
SPLINE
  5
1b7
100
AcDbEntity
  8
Layer_1
 62
7
100
AcDbSpline
 70
8
 71
3
 72
8
 73
4
 74
0
 40
0
 40
0
 40
0
 40
0
 40
1
 40
1
 40
1
 40
1
 10
270.386080
 20
212.833280
 30
0.0
 10
268.591850
 20
212.832540
 30
0.0
 10
266.966730
 20
212.178590
 30
0.0
 10
266.239150
 20
211.164950
 30
0.0
  0
SPLINE
  5
1b8
100
AcDbEntity
  8
Layer_1
 62
7
100
AcDbSpline
 70
8
 71
3
 72
8
 73
4
 74
0
 40
0
 40
0
 40
0
 40
0
 40
1
 40
1
 40
1
 40
1
 10
266.239150
 20
211.164950
 30
0.0
 10
265.511890
 20
212.178140
 30
0.0
 10
263.887830
 20
212.831840
 30
0.0
 10
262.094390
 20
212.833280
 30
0.0
  0
SPLINE
  5
1b9
100
AcDbEntity
  8
Layer_1
 62
7
100
AcDbSpline
 70
8
 71
3
 72
8
 73
4
 74
0
 40
0
 40
0
 40
0
 40
0
 40
1
 40
1
 40
1
 40
1
 10
262.094390
 20
212.833280
 30
0.0
 10
260.300430
 20
212.832280
 30
0.0
 10
258.675670
 20
212.178430
 30
0.0
 10
257.948180
 20
211.164950
 30
0.0
  0
SPLINE
  5
1ba
100
AcDbEntity
  8
Layer_1
 62
7
100
AcDbSpline
 70
8
 71
3
 72
8
 73
4
 74
0
 40
0
 40
0
 40
0
 40
0
 40
1
 40
1
 40
1
 40
1
 10
257.948180
 20
211.164950
 30
0.0
 10
257.220910
 20
212.178140
 30
0.0
 10
255.596870
 20
212.831840
 30
0.0
 10
253.803420
 20
212.833280
 30
0.0
  0
SPLINE
  5
1bb
100
AcDbEntity
  8
Layer_1
 62
7
100
AcDbSpline
 70
8
 71
3
 72
8
 73
4
 74
0
 40
0
 40
0
 40
0
 40
0
 40
1
 40
1
 40
1
 40
1
 10
253.803420
 20
212.833280
 30
0.0
 10
252.009200
 20
212.832540
 30
0.0
 10
250.384070
 20
212.178580
 30
0.0
 10
249.656490
 20
211.164950
 30
0.0
  0
SPLINE
  5
1bc
100
AcDbEntity
  8
Layer_1
 62
7
100
AcDbSpline
 70
8
 71
3
 72
8
 73
4
 74
0
 40
0
 40
0
 40
0
 40
0
 40
1
 40
1
 40
1
 40
1
 10
249.656490
 20
211.164950
 30
0.0
 10
248.929230
 20
212.178140
 30
0.0
 10
247.305170
 20
212.831840
 30
0.0
 10
245.511730
 20
212.833280
 30
0.0
  0
SPLINE
  5
1bd
100
AcDbEntity
  8
Layer_1
 62
7
100
AcDbSpline
 70
8
 71
3
 72
8
 73
4
 74
0
 40
0
 40
0
 40
0
 40
0
 40
1
 40
1
 40
1
 40
1
 10
245.511730
 20
212.833280
 30
0.0
 10
243.717770
 20
212.832540
 30
0.0
 10
242.092730
 20
212.179030
 30
0.0
 10
241.364800
 20
211.165680
 30
0.0
  0
SPLINE
  5
1be
100
AcDbEntity
  8
Layer_1
 62
7
100
AcDbSpline
 70
8
 71
3
 72
8
 73
4
 74
0
 40
0
 40
0
 40
0
 40
0
 40
1
 40
1
 40
1
 40
1
 10
241.364800
 20
211.165680
 30
0.0
 10
240.637290
 20
212.178430
 30
0.0
 10
239.013660
 20
212.831790
 30
0.0
 10
237.220770
 20
212.833280
 30
0.0
  0
SPLINE
  5
1bf
100
AcDbEntity
  8
Layer_1
 62
7
100
AcDbSpline
 70
8
 71
3
 72
8
 73
4
 74
0
 40
0
 40
0
 40
0
 40
0
 40
1
 40
1
 40
1
 40
1
 10
237.220770
 20
212.833280
 30
0.0
 10
235.426540
 20
212.832540
 30
0.0
 10
233.801420
 20
212.178590
 30
0.0
 10
233.073840
 20
211.164950
 30
0.0
  0
SPLINE
  5
1c0
100
AcDbEntity
  8
Layer_1
 62
7
100
AcDbSpline
 70
8
 71
3
 72
8
 73
4
 74
0
 40
0
 40
0
 40
0
 40
0
 40
1
 40
1
 40
1
 40
1
 10
233.073840
 20
211.164950
 30
0.0
 10
232.346580
 20
212.178140
 30
0.0
 10
230.722520
 20
212.831840
 30
0.0
 10
228.929070
 20
212.833280
 30
0.0
  0
SPLINE
  5
1c1
100
AcDbEntity
  8
Layer_1
 62
7
100
AcDbSpline
 70
8
 71
3
 72
8
 73
4
 74
0
 40
0
 40
0
 40
0
 40
0
 40
1
 40
1
 40
1
 40
1
 10
228.929070
 20
212.833280
 30
0.0
 10
227.134850
 20
212.832540
 30
0.0
 10
225.509720
 20
212.178580
 30
0.0
 10
224.782140
 20
211.164950
 30
0.0
  0
SPLINE
  5
1c2
100
AcDbEntity
  8
Layer_1
 62
7
100
AcDbSpline
 70
8
 71
3
 72
8
 73
4
 74
0
 40
0
 40
0
 40
0
 40
0
 40
1
 40
1
 40
1
 40
1
 10
224.782140
 20
211.164950
 30
0.0
 10
224.496340
 20
211.562980
 30
0.0
 10
224.064510
 20
211.907200
 30
0.0
 10
223.534880
 20
212.179990
 30
0.0
  0
SPLINE
  5
1c3
100
AcDbEntity
  8
Layer_1
 62
7
100
AcDbSpline
 70
8
 71
3
 72
8
 73
4
 74
0
 40
0
 40
0
 40
0
 40
0
 40
1
 40
1
 40
1
 40
1
 10
223.534880
 20
212.179990
 30
0.0
 10
223.571680
 20
212.476780
 30
0.0
 10
223.590380
 20
212.778720
 30
0.0
 10
223.590580
 20
213.081430
 30
0.0
  0
SPLINE
  5
1c4
100
AcDbEntity
  8
Layer_1
 62
7
100
AcDbSpline
 70
8
 71
3
 72
8
 73
4
 74
0
 40
0
 40
0
 40
0
 40
0
 40
1
 40
1
 40
1
 40
1
 10
223.590580
 20
213.081430
 30
0.0
 10
223.589580
 20
214.813880
 30
0.0
 10
222.987840
 20
216.398913
 30
0.0
 10
222.033670
 20
217.184952
 30
0.0
  0
LWPOLYLINE
  5
1c5
100
AcDbEntity
  8
Layer_1
 62
7
100
AcDbPolyline
 90
4
 70
0
 10
274.910660
 20
158.390750
 30
0.0
 10
275.448200
 20
158.390750
 30
0.0
 10
275.448200
 20
210.537710
 30
0.0
 10
274.848440
 20
210.537710
 30
0.0
  0
SPLINE
  5
1c6
100
AcDbEntity
  8
Layer_1
 62
7
100
AcDbSpline
 70
8
 71
3
 72
8
 73
4
 74
0
 40
0
 40
0
 40
0
 40
0
 40
1
 40
1
 40
1
 40
1
 10
222.033670
 20
217.310834
 30
0.0
 10
222.989130
 20
218.097936
 30
0.0
 10
223.590720
 20
219.686075
 30
0.0
 10
223.590580
 20
221.420866
 30
0.0
  0
SPLINE
  5
1c7
100
AcDbEntity
  8
Layer_1
 62
7
100
AcDbSpline
 70
8
 71
3
 72
8
 73
4
 74
0
 40
0
 40
0
 40
0
 40
0
 40
1
 40
1
 40
1
 40
1
 10
223.590580
 20
221.420866
 30
0.0
 10
223.589580
 20
223.153575
 30
0.0
 10
222.987980
 20
224.738955
 30
0.0
 10
222.033670
 20
225.525113
 30
0.0
  0
LWPOLYLINE
  5
1c8
100
AcDbEntity
  8
Layer_1
 62
7
100
AcDbPolyline
 90
2
 70
0
 10
222.033670
 20
217.184952
 30
0.0
 10
222.033670
 20
217.310834
 30
0.0
  0
SPLINE
  5
1c9
100
AcDbEntity
  8
Layer_1
 62
7
100
AcDbSpline
 70
8
 71
3
 72
8
 73
4
 74
0
 40
0
 40
0
 40
0
 40
0
 40
1
 40
1
 40
1
 40
1
 10
222.033670
 20
225.650995
 30
0.0
 10
222.988980
 20
226.437978
 30
0.0
 10
223.590550
 20
228.025773
 30
0.0
 10
223.590580
 20
229.760305
 30
0.0
  0
SPLINE
  5
1ca
100
AcDbEntity
  8
Layer_1
 62
7
100
AcDbSpline
 70
8
 71
3
 72
8
 73
4
 74
0
 40
0
 40
0
 40
0
 40
0
 40
1
 40
1
 40
1
 40
1
 10
223.590580
 20
229.760305
 30
0.0
 10
223.589580
 20
231.493014
 30
0.0
 10
222.987980
 20
233.078394
 30
0.0
 10
222.033670
 20
233.864551
 30
0.0
  0
LWPOLYLINE
  5
1cb
100
AcDbEntity
  8
Layer_1
 62
7
100
AcDbPolyline
 90
2
 70
0
 10
222.033670
 20
225.525113
 30
0.0
 10
222.033670
 20
225.650995
 30
0.0
  0
SPLINE
  5
1cc
100
AcDbEntity
  8
Layer_1
 62
7
100
AcDbSpline
 70
8
 71
3
 72
8
 73
4
 74
0
 40
0
 40
0
 40
0
 40
0
 40
1
 40
1
 40
1
 40
1
 10
222.033670
 20
233.990437
 30
0.0
 10
222.989130
 20
234.777539
 30
0.0
 10
223.590720
 20
236.365678
 30
0.0
 10
223.590580
 20
238.100469
 30
0.0
  0
SPLINE
  5
1cd
100
AcDbEntity
  8
Layer_1
 62
7
100
AcDbSpline
 70
8
 71
3
 72
8
 73
4
 74
0
 40
0
 40
0
 40
0
 40
0
 40
1
 40
1
 40
1
 40
1
 10
223.590580
 20
238.100469
 30
0.0
 10
223.589580
 20
239.832919
 30
0.0
 10
222.987840
 20
241.417951
 30
0.0
 10
222.033670
 20
242.203990
 30
0.0
  0
LWPOLYLINE
  5
1ce
100
AcDbEntity
  8
Layer_1
 62
7
100
AcDbPolyline
 90
2
 70
0
 10
222.033670
 20
233.864551
 30
0.0
 10
222.033670
 20
233.990437
 30
0.0
  0
SPLINE
  5
1cf
100
AcDbEntity
  8
Layer_1
 62
7
100
AcDbSpline
 70
8
 71
3
 72
8
 73
4
 74
0
 40
0
 40
0
 40
0
 40
0
 40
1
 40
1
 40
1
 40
1
 10
222.033670
 20
242.329876
 30
0.0
 10
222.989130
 20
243.116978
 30
0.0
 10
223.590720
 20
244.705117
 30
0.0
 10
223.590580
 20
246.439908
 30
0.0
  0
SPLINE
  5
1d0
100
AcDbEntity
  8
Layer_1
 62
7
100
AcDbSpline
 70
8
 71
3
 72
8
 73
4
 74
0
 40
0
 40
0
 40
0
 40
0
 40
1
 40
1
 40
1
 40
1
 10
223.590580
 20
246.439908
 30
0.0
 10
223.589580
 20
248.172617
 30
0.0
 10
222.987980
 20
249.757997
 30
0.0
 10
222.033670
 20
250.544154
 30
0.0
  0
LWPOLYLINE
  5
1d1
100
AcDbEntity
  8
Layer_1
 62
7
100
AcDbPolyline
 90
2
 70
0
 10
222.033670
 20
242.203990
 30
0.0
 10
222.033670
 20
242.329876
 30
0.0
  0
SPLINE
  5
1d2
100
AcDbEntity
  8
Layer_1
 62
7
100
AcDbSpline
 70
8
 71
3
 72
8
 73
4
 74
0
 40
0
 40
0
 40
0
 40
0
 40
1
 40
1
 40
1
 40
1
 10
222.033670
 20
250.670037
 30
0.0
 10
222.988980
 20
251.457020
 30
0.0
 10
223.590550
 20
253.044815
 30
0.0
 10
223.590580
 20
254.779346
 30
0.0
  0
SPLINE
  5
1d3
100
AcDbEntity
  8
Layer_1
 62
7
100
AcDbSpline
 70
8
 71
3
 72
8
 73
4
 74
0
 40
0
 40
0
 40
0
 40
0
 40
1
 40
1
 40
1
 40
1
 10
223.590580
 20
254.779346
 30
0.0
 10
223.589580
 20
256.512056
 30
0.0
 10
222.987980
 20
258.097435
 30
0.0
 10
222.033670
 20
258.883593
 30
0.0
  0
LWPOLYLINE
  5
1d4
100
AcDbEntity
  8
Layer_1
 62
7
100
AcDbPolyline
 90
2
 70
0
 10
222.033670
 20
250.544154
 30
0.0
 10
222.033670
 20
250.670037
 30
0.0
  0
SPLINE
  5
1d5
100
AcDbEntity
  8
Layer_1
 62
7
100
AcDbSpline
 70
8
 71
3
 72
8
 73
4
 74
0
 40
0
 40
0
 40
0
 40
0
 40
1
 40
1
 40
1
 40
1
 10
222.033670
 20
259.009479
 30
0.0
 10
222.316470
 20
259.244401
 30
0.0
 10
222.572980
 20
259.554221
 30
0.0
 10
222.792590
 20
259.926112
 30
0.0
  0
SPLINE
  5
1d6
100
AcDbEntity
  8
Layer_1
 62
7
100
AcDbSpline
 70
8
 71
3
 72
8
 73
4
 74
0
 40
0
 40
0
 40
0
 40
0
 40
1
 40
1
 40
1
 40
1
 10
222.792590
 20
259.926112
 30
0.0
 10
223.668590
 20
260.218541
 30
0.0
 10
224.374770
 20
260.680695
 30
0.0
 10
224.785750
 20
261.251511
 30
0.0
  0
SPLINE
  5
1d7
100
AcDbEntity
  8
Layer_1
 62
7
100
AcDbSpline
 70
8
 71
3
 72
8
 73
4
 74
0
 40
0
 40
0
 40
0
 40
0
 40
1
 40
1
 40
1
 40
1
 10
224.785750
 20
261.251511
 30
0.0
 10
225.512450
 20
260.238340
 30
0.0
 10
227.135880
 20
259.584380
 30
0.0
 10
228.929060
 20
259.582465
 30
0.0
  0
SPLINE
  5
1d8
100
AcDbEntity
  8
Layer_1
 62
7
100
AcDbSpline
 70
8
 71
3
 72
8
 73
4
 74
0
 40
0
 40
0
 40
0
 40
0
 40
1
 40
1
 40
1
 40
1
 10
228.929060
 20
259.582465
 30
0.0
 10
230.723290
 20
259.583206
 30
0.0
 10
232.348420
 20
260.237162
 30
0.0
 10
233.076000
 20
261.250789
 30
0.0
  0
SPLINE
  5
1d9
100
AcDbEntity
  8
Layer_1
 62
7
100
AcDbSpline
 70
8
 71
3
 72
8
 73
4
 74
0
 40
0
 40
0
 40
0
 40
0
 40
1
 40
1
 40
1
 40
1
 10
233.076000
 20
261.250789
 30
0.0
 10
233.803270
 20
260.237603
 30
0.0
 10
235.427310
 20
259.583899
 30
0.0
 10
237.220760
 20
259.582465
 30
0.0
  0
SPLINE
  5
1da
100
AcDbEntity
  8
Layer_1
 62
7
100
AcDbSpline
 70
8
 71
3
 72
8
 73
4
 74
0
 40
0
 40
0
 40
0
 40
0
 40
1
 40
1
 40
1
 40
1
 10
237.220760
 20
259.582465
 30
0.0
 10
239.014980
 20
259.583206
 30
0.0
 10
240.640110
 20
260.237162
 30
0.0
 10
241.367690
 20
261.250789
 30
0.0
  0
SPLINE
  5
1db
100
AcDbEntity
  8
Layer_1
 62
7
100
AcDbSpline
 70
8
 71
3
 72
8
 73
4
 74
0
 40
0
 40
0
 40
0
 40
0
 40
1
 40
1
 40
1
 40
1
 10
241.367690
 20
261.250789
 30
0.0
 10
242.094850
 20
260.237751
 30
0.0
 10
243.718550
 20
259.584077
 30
0.0
 10
245.511720
 20
259.582465
 30
0.0
  0
SPLINE
  5
1dc
100
AcDbEntity
  8
Layer_1
 62
7
100
AcDbSpline
 70
8
 71
3
 72
8
 73
4
 74
0
 40
0
 40
0
 40
0
 40
0
 40
1
 40
1
 40
1
 40
1
 10
245.511720
 20
259.582465
 30
0.0
 10
247.305950
 20
259.583206
 30
0.0
 10
248.931100
 20
260.237162
 30
0.0
 10
249.658650
 20
261.250789
 30
0.0
  0
SPLINE
  5
1dd
100
AcDbEntity
  8
Layer_1
 62
7
100
AcDbSpline
 70
8
 71
3
 72
8
 73
4
 74
0
 40
0
 40
0
 40
0
 40
0
 40
1
 40
1
 40
1
 40
1
 10
249.658650
 20
261.250789
 30
0.0
 10
250.385920
 20
260.237606
 30
0.0
 10
252.009970
 20
259.583899
 30
0.0
 10
253.803410
 20
259.582465
 30
0.0
  0
SPLINE
  5
1de
100
AcDbEntity
  8
Layer_1
 62
7
100
AcDbSpline
 70
8
 71
3
 72
8
 73
4
 74
0
 40
0
 40
0
 40
0
 40
0
 40
1
 40
1
 40
1
 40
1
 10
253.803410
 20
259.582465
 30
0.0
 10
255.597640
 20
259.583206
 30
0.0
 10
257.222750
 20
260.237158
 30
0.0
 10
257.950340
 20
261.250789
 30
0.0
  0
SPLINE
  5
1df
100
AcDbEntity
  8
Layer_1
 62
7
100
AcDbSpline
 70
8
 71
3
 72
8
 73
4
 74
0
 40
0
 40
0
 40
0
 40
0
 40
1
 40
1
 40
1
 40
1
 10
257.950340
 20
261.250789
 30
0.0
 10
258.677500
 20
260.237755
 30
0.0
 10
260.301200
 20
259.584077
 30
0.0
 10
262.094380
 20
259.582465
 30
0.0
  0
SPLINE
  5
1e0
100
AcDbEntity
  8
Layer_1
 62
7
100
AcDbSpline
 70
8
 71
3
 72
8
 73
4
 74
0
 40
0
 40
0
 40
0
 40
0
 40
1
 40
1
 40
1
 40
1
 10
262.094380
 20
259.582465
 30
0.0
 10
263.888610
 20
259.583206
 30
0.0
 10
265.513710
 20
260.237158
 30
0.0
 10
266.241310
 20
261.250789
 30
0.0
  0
SPLINE
  5
1e1
100
AcDbEntity
  8
Layer_1
 62
7
100
AcDbSpline
 70
8
 71
3
 72
8
 73
4
 74
0
 40
0
 40
0
 40
0
 40
0
 40
1
 40
1
 40
1
 40
1
 10
266.241310
 20
261.250789
 30
0.0
 10
266.968580
 20
260.237606
 30
0.0
 10
268.592630
 20
259.583899
 30
0.0
 10
270.386070
 20
259.582465
 30
0.0
  0
SPLINE
  5
1e2
100
AcDbEntity
  8
Layer_1
 62
7
100
AcDbSpline
 70
8
 71
3
 72
8
 73
4
 74
0
 40
0
 40
0
 40
0
 40
0
 40
1
 40
1
 40
1
 40
1
 10
270.386070
 20
259.582465
 30
0.0
 10
272.537930
 20
259.582776
 30
0.0
 10
274.393940
 20
260.516523
 30
0.0
 10
274.831070
 20
261.818711
 30
0.0
  0
LWPOLYLINE
  5
1e3
100
AcDbEntity
  8
Layer_1
 62
7
100
AcDbPolyline
 90
2
 70
0
 10
222.033670
 20
258.883593
 30
0.0
 10
222.033670
 20
259.009479
 30
0.0
  0
SPLINE
  5
1e4
100
AcDbEntity
  8
Layer_1
 62
7
100
AcDbSpline
 70
8
 71
3
 72
8
 73
4
 74
0
 40
0
 40
0
 40
0
 40
0
 40
1
 40
1
 40
1
 40
1
 10
274.926570
 20
309.769541
 30
0.0
 10
274.926570
 20
311.319378
 30
0.0
 10
272.893760
 20
312.575799
 30
0.0
 10
270.386070
 20
312.575882
 30
0.0
  0
SPLINE
  5
1e5
100
AcDbEntity
  8
Layer_1
 62
7
100
AcDbSpline
 70
8
 71
3
 72
8
 73
4
 74
0
 40
0
 40
0
 40
0
 40
0
 40
1
 40
1
 40
1
 40
1
 10
270.386070
 20
312.575882
 30
0.0
 10
268.591570
 20
312.574882
 30
0.0
 10
266.966370
 20
311.920749
 30
0.0
 10
266.239140
 20
310.906836
 30
0.0
  0
SPLINE
  5
1e6
100
AcDbEntity
  8
Layer_1
 62
7
100
AcDbSpline
 70
8
 71
3
 72
8
 73
4
 74
0
 40
0
 40
0
 40
0
 40
0
 40
1
 40
1
 40
1
 40
1
 10
266.239140
 20
310.906836
 30
0.0
 10
265.512230
 20
311.920302
 30
0.0
 10
263.888100
 20
312.574319
 30
0.0
 10
262.094380
 20
312.575882
 30
0.0
  0
SPLINE
  5
1e7
100
AcDbEntity
  8
Layer_1
 62
7
100
AcDbSpline
 70
8
 71
3
 72
8
 73
4
 74
0
 40
0
 40
0
 40
0
 40
0
 40
1
 40
1
 40
1
 40
1
 10
262.094380
 20
312.575882
 30
0.0
 10
260.300140
 20
312.574682
 30
0.0
 10
258.675300
 20
311.920597
 30
0.0
 10
257.948170
 20
310.906836
 30
0.0
  0
SPLINE
  5
1e8
100
AcDbEntity
  8
Layer_1
 62
7
100
AcDbSpline
 70
8
 71
3
 72
8
 73
4
 74
0
 40
0
 40
0
 40
0
 40
0
 40
1
 40
1
 40
1
 40
1
 10
257.948170
 20
310.906836
 30
0.0
 10
257.221250
 20
311.920305
 30
0.0
 10
255.597130
 20
312.574322
 30
0.0
 10
253.803410
 20
312.575882
 30
0.0
  0
SPLINE
  5
1e9
100
AcDbEntity
  8
Layer_1
 62
7
100
AcDbSpline
 70
8
 71
3
 72
8
 73
4
 74
0
 40
0
 40
0
 40
0
 40
0
 40
1
 40
1
 40
1
 40
1
 10
253.803410
 20
312.575882
 30
0.0
 10
252.008910
 20
312.574882
 30
0.0
 10
250.383710
 20
311.920746
 30
0.0
 10
249.656480
 20
310.906836
 30
0.0
  0
SPLINE
  5
1ea
100
AcDbEntity
  8
Layer_1
 62
7
100
AcDbSpline
 70
8
 71
3
 72
8
 73
4
 74
0
 40
0
 40
0
 40
0
 40
0
 40
1
 40
1
 40
1
 40
1
 10
249.656480
 20
310.906836
 30
0.0
 10
248.929570
 20
311.920302
 30
0.0
 10
247.305450
 20
312.574319
 30
0.0
 10
245.511720
 20
312.575882
 30
0.0
  0
SPLINE
  5
1eb
100
AcDbEntity
  8
Layer_1
 62
7
100
AcDbSpline
 70
8
 71
3
 72
8
 73
4
 74
0
 40
0
 40
0
 40
0
 40
0
 40
1
 40
1
 40
1
 40
1
 10
245.511720
 20
312.575882
 30
0.0
 10
243.717500
 20
312.574993
 30
0.0
 10
242.092370
 20
311.921189
 30
0.0
 10
241.364790
 20
310.907560
 30
0.0
  0
SPLINE
  5
1ec
100
AcDbEntity
  8
Layer_1
 62
7
100
AcDbSpline
 70
8
 71
3
 72
8
 73
4
 74
0
 40
0
 40
0
 40
0
 40
0
 40
1
 40
1
 40
1
 40
1
 10
241.364790
 20
310.907560
 30
0.0
 10
240.637630
 20
311.920594
 30
0.0
 10
239.013930
 20
312.574269
 30
0.0
 10
237.220760
 20
312.575882
 30
0.0
  0
SPLINE
  5
1ed
100
AcDbEntity
  8
Layer_1
 62
7
100
AcDbSpline
 70
8
 71
3
 72
8
 73
4
 74
0
 40
0
 40
0
 40
0
 40
0
 40
1
 40
1
 40
1
 40
1
 10
237.220760
 20
312.575882
 30
0.0
 10
235.426250
 20
312.574882
 30
0.0
 10
233.801050
 20
311.920749
 30
0.0
 10
233.073830
 20
310.906836
 30
0.0
  0
SPLINE
  5
1ee
100
AcDbEntity
  8
Layer_1
 62
7
100
AcDbSpline
 70
8
 71
3
 72
8
 73
4
 74
0
 40
0
 40
0
 40
0
 40
0
 40
1
 40
1
 40
1
 40
1
 10
233.073830
 20
310.906836
 30
0.0
 10
232.346920
 20
311.920302
 30
0.0
 10
230.722790
 20
312.574319
 30
0.0
 10
228.929060
 20
312.575882
 30
0.0
  0
SPLINE
  5
1ef
100
AcDbEntity
  8
Layer_1
 62
7
100
AcDbSpline
 70
8
 71
3
 72
8
 73
4
 74
0
 40
0
 40
0
 40
0
 40
0
 40
1
 40
1
 40
1
 40
1
 10
228.929060
 20
312.575882
 30
0.0
 10
227.134560
 20
312.574882
 30
0.0
 10
225.509370
 20
311.920746
 30
0.0
 10
224.782130
 20
310.906836
 30
0.0
  0
SPLINE
  5
1f0
100
AcDbEntity
  8
Layer_1
 62
7
100
AcDbSpline
 70
8
 71
3
 72
8
 73
4
 74
0
 40
0
 40
0
 40
0
 40
0
 40
1
 40
1
 40
1
 40
1
 10
224.782130
 20
310.906836
 30
0.0
 10
224.055330
 20
311.920156
 30
0.0
 10
222.431560
 20
312.574144
 30
0.0
 10
220.638100
 20
312.575882
 30
0.0
  0
SPLINE
  5
1f1
100
AcDbEntity
  8
Layer_1
 62
7
100
AcDbSpline
 70
8
 71
3
 72
8
 73
4
 74
0
 40
0
 40
0
 40
0
 40
0
 40
1
 40
1
 40
1
 40
1
 10
220.638100
 20
312.575882
 30
0.0
 10
218.843590
 20
312.574882
 30
0.0
 10
217.218400
 20
311.920746
 30
0.0
 10
216.491170
 20
310.906836
 30
0.0
  0
SPLINE
  5
1f2
100
AcDbEntity
  8
Layer_1
 62
7
100
AcDbSpline
 70
8
 71
3
 72
8
 73
4
 74
0
 40
0
 40
0
 40
0
 40
0
 40
1
 40
1
 40
1
 40
1
 10
216.491170
 20
310.906836
 30
0.0
 10
215.764260
 20
311.920302
 30
0.0
 10
214.140130
 20
312.574319
 30
0.0
 10
212.346410
 20
312.575882
 30
0.0
  0
SPLINE
  5
1f3
100
AcDbEntity
  8
Layer_1
 62
7
100
AcDbSpline
 70
8
 71
3
 72
8
 73
4
 74
0
 40
0
 40
0
 40
0
 40
0
 40
1
 40
1
 40
1
 40
1
 10
212.346410
 20
312.575882
 30
0.0
 10
210.551900
 20
312.574882
 30
0.0
 10
208.926710
 20
311.920749
 30
0.0
 10
208.199480
 20
310.906836
 30
0.0
  0
SPLINE
  5
1f4
100
AcDbEntity
  8
Layer_1
 62
7
100
AcDbSpline
 70
8
 71
3
 72
8
 73
4
 74
0
 40
0
 40
0
 40
0
 40
0
 40
1
 40
1
 40
1
 40
1
 10
208.199480
 20
310.906836
 30
0.0
 10
207.472670
 20
311.920153
 30
0.0
 10
205.848900
 20
312.574142
 30
0.0
 10
204.055440
 20
312.575882
 30
0.0
  0
SPLINE
  5
1f5
100
AcDbEntity
  8
Layer_1
 62
7
100
AcDbSpline
 70
8
 71
3
 72
8
 73
4
 74
0
 40
0
 40
0
 40
0
 40
0
 40
1
 40
1
 40
1
 40
1
 10
204.055440
 20
312.575882
 30
0.0
 10
202.260940
 20
312.574882
 30
0.0
 10
200.635740
 20
311.920746
 30
0.0
 10
199.908510
 20
310.906836
 30
0.0
  0
SPLINE
  5
1f6
100
AcDbEntity
  8
Layer_1
 62
7
100
AcDbSpline
 70
8
 71
3
 72
8
 73
4
 74
0
 40
0
 40
0
 40
0
 40
0
 40
1
 40
1
 40
1
 40
1
 10
199.908510
 20
310.906836
 30
0.0
 10
199.181590
 20
311.920305
 30
0.0
 10
197.557470
 20
312.574322
 30
0.0
 10
195.763750
 20
312.575882
 30
0.0
  0
SPLINE
  5
1f7
100
AcDbEntity
  8
Layer_1
 62
7
100
AcDbSpline
 70
8
 71
3
 72
8
 73
4
 74
0
 40
0
 40
0
 40
0
 40
0
 40
1
 40
1
 40
1
 40
1
 10
195.763750
 20
312.575882
 30
0.0
 10
193.969250
 20
312.574882
 30
0.0
 10
192.344050
 20
311.920746
 30
0.0
 10
191.616820
 20
310.906836
 30
0.0
  0
SPLINE
  5
1f8
100
AcDbEntity
  8
Layer_1
 62
7
100
AcDbSpline
 70
8
 71
3
 72
8
 73
4
 74
0
 40
0
 40
0
 40
0
 40
0
 40
1
 40
1
 40
1
 40
1
 10
191.616820
 20
310.906836
 30
0.0
 10
190.889910
 20
311.920302
 30
0.0
 10
189.265790
 20
312.574319
 30
0.0
 10
187.472060
 20
312.575882
 30
0.0
  0
SPLINE
  5
1f9
100
AcDbEntity
  8
Layer_1
 62
7
100
AcDbSpline
 70
8
 71
3
 72
8
 73
4
 74
0
 40
0
 40
0
 40
0
 40
0
 40
1
 40
1
 40
1
 40
1
 10
187.472060
 20
312.575882
 30
0.0
 10
185.677820
 20
312.574682
 30
0.0
 10
184.052990
 20
311.920600
 30
0.0
 10
183.325850
 20
310.906836
 30
0.0
  0
SPLINE
  5
1fa
100
AcDbEntity
  8
Layer_1
 62
7
100
AcDbSpline
 70
8
 71
3
 72
8
 73
4
 74
0
 40
0
 40
0
 40
0
 40
0
 40
1
 40
1
 40
1
 40
1
 10
183.325850
 20
310.906836
 30
0.0
 10
182.598950
 20
311.920302
 30
0.0
 10
180.974820
 20
312.574319
 30
0.0
 10
179.181100
 20
312.575882
 30
0.0
  0
SPLINE
  5
1fb
100
AcDbEntity
  8
Layer_1
 62
7
100
AcDbSpline
 70
8
 71
3
 72
8
 73
4
 74
0
 40
0
 40
0
 40
0
 40
0
 40
1
 40
1
 40
1
 40
1
 10
179.181100
 20
312.575882
 30
0.0
 10
177.386590
 20
312.574882
 30
0.0
 10
175.761390
 20
311.920749
 30
0.0
 10
175.034170
 20
310.906836
 30
0.0
  0
SPLINE
  5
1fc
100
AcDbEntity
  8
Layer_1
 62
7
100
AcDbSpline
 70
8
 71
3
 72
8
 73
4
 74
0
 40
0
 40
0
 40
0
 40
0
 40
1
 40
1
 40
1
 40
1
 10
175.034170
 20
310.906836
 30
0.0
 10
174.307260
 20
311.920302
 30
0.0
 10
172.683130
 20
312.574319
 30
0.0
 10
170.889400
 20
312.575882
 30
0.0
  0
SPLINE
  5
1fd
100
AcDbEntity
  8
Layer_1
 62
7
100
AcDbSpline
 70
8
 71
3
 72
8
 73
4
 74
0
 40
0
 40
0
 40
0
 40
0
 40
1
 40
1
 40
1
 40
1
 10
170.889400
 20
312.575882
 30
0.0
 10
169.095180
 20
312.574993
 30
0.0
 10
167.470050
 20
311.921187
 30
0.0
 10
166.742470
 20
310.907560
 30
0.0
  0
SPLINE
  5
1fe
100
AcDbEntity
  8
Layer_1
 62
7
100
AcDbSpline
 70
8
 71
3
 72
8
 73
4
 74
0
 40
0
 40
0
 40
0
 40
0
 40
1
 40
1
 40
1
 40
1
 10
166.742470
 20
310.907560
 30
0.0
 10
166.015320
 20
311.920597
 30
0.0
 10
164.391610
 20
312.574272
 30
0.0
 10
162.598440
 20
312.575882
 30
0.0
  0
SPLINE
  5
1ff
100
AcDbEntity
  8
Layer_1
 62
7
100
AcDbSpline
 70
8
 71
3
 72
8
 73
4
 74
0
 40
0
 40
0
 40
0
 40
0
 40
1
 40
1
 40
1
 40
1
 10
162.598440
 20
312.575882
 30
0.0
 10
160.803930
 20
312.574882
 30
0.0
 10
159.178740
 20
311.920746
 30
0.0
 10
158.451510
 20
310.906836
 30
0.0
  0
SPLINE
  5
200
100
AcDbEntity
  8
Layer_1
 62
7
100
AcDbSpline
 70
8
 71
3
 72
8
 73
4
 74
0
 40
0
 40
0
 40
0
 40
0
 40
1
 40
1
 40
1
 40
1
 10
158.451510
 20
310.906836
 30
0.0
 10
157.724600
 20
311.920302
 30
0.0
 10
156.100470
 20
312.574319
 30
0.0
 10
154.306750
 20
312.575882
 30
0.0
  0
SPLINE
  5
201
100
AcDbEntity
  8
Layer_1
 62
7
100
AcDbSpline
 70
8
 71
3
 72
8
 73
4
 74
0
 40
0
 40
0
 40
0
 40
0
 40
1
 40
1
 40
1
 40
1
 10
154.306750
 20
312.575882
 30
0.0
 10
152.512240
 20
312.574882
 30
0.0
 10
150.887050
 20
311.920749
 30
0.0
 10
150.159820
 20
310.906836
 30
0.0
  0
SPLINE
  5
202
100
AcDbEntity
  8
Layer_1
 62
7
100
AcDbSpline
 70
8
 71
3
 72
8
 73
4
 74
0
 40
0
 40
0
 40
0
 40
0
 40
1
 40
1
 40
1
 40
1
 10
150.159820
 20
310.906836
 30
0.0
 10
149.433010
 20
311.920153
 30
0.0
 10
147.809240
 20
312.574142
 30
0.0
 10
146.015780
 20
312.575882
 30
0.0
  0
SPLINE
  5
203
100
AcDbEntity
  8
Layer_1
 62
7
100
AcDbSpline
 70
8
 71
3
 72
8
 73
4
 74
0
 40
0
 40
0
 40
0
 40
0
 40
1
 40
1
 40
1
 40
1
 10
146.015780
 20
312.575882
 30
0.0
 10
144.221270
 20
312.574882
 30
0.0
 10
142.596080
 20
311.920749
 30
0.0
 10
141.868850
 20
310.906836
 30
0.0
  0
SPLINE
  5
204
100
AcDbEntity
  8
Layer_1
 62
7
100
AcDbSpline
 70
8
 71
3
 72
8
 73
4
 74
0
 40
0
 40
0
 40
0
 40
0
 40
1
 40
1
 40
1
 40
1
 10
141.868850
 20
310.906836
 30
0.0
 10
141.141940
 20
311.920302
 30
0.0
 10
139.517810
 20
312.574319
 30
0.0
 10
137.724090
 20
312.575882
 30
0.0
  0
SPLINE
  5
205
100
AcDbEntity
  8
Layer_1
 62
7
100
AcDbSpline
 70
8
 71
3
 72
8
 73
4
 74
0
 40
0
 40
0
 40
0
 40
0
 40
1
 40
1
 40
1
 40
1
 10
137.724090
 20
312.575882
 30
0.0
 10
135.929590
 20
312.574882
 30
0.0
 10
134.304390
 20
311.920749
 30
0.0
 10
133.577160
 20
310.906836
 30
0.0
  0
SPLINE
  5
206
100
AcDbEntity
  8
Layer_1
 62
7
100
AcDbSpline
 70
8
 71
3
 72
8
 73
4
 74
0
 40
0
 40
0
 40
0
 40
0
 40
1
 40
1
 40
1
 40
1
 10
133.577160
 20
310.906836
 30
0.0
 10
132.850350
 20
311.920153
 30
0.0
 10
131.226580
 20
312.574142
 30
0.0
 10
129.433130
 20
312.575882
 30
0.0
  0
SPLINE
  5
207
100
AcDbEntity
  8
Layer_1
 62
7
100
AcDbSpline
 70
8
 71
3
 72
8
 73
4
 74
0
 40
0
 40
0
 40
0
 40
0
 40
1
 40
1
 40
1
 40
1
 10
129.433130
 20
312.575882
 30
0.0
 10
127.638610
 20
312.574882
 30
0.0
 10
126.013420
 20
311.920746
 30
0.0
 10
125.286190
 20
310.906836
 30
0.0
  0
SPLINE
  5
208
100
AcDbEntity
  8
Layer_1
 62
7
100
AcDbSpline
 70
8
 71
3
 72
8
 73
4
 74
0
 40
0
 40
0
 40
0
 40
0
 40
1
 40
1
 40
1
 40
1
 10
125.286190
 20
310.906836
 30
0.0
 10
124.559270
 20
311.920305
 30
0.0
 10
122.935160
 20
312.574322
 30
0.0
 10
121.141430
 20
312.575882
 30
0.0
  0
SPLINE
  5
209
100
AcDbEntity
  8
Layer_1
 62
7
100
AcDbSpline
 70
8
 71
3
 72
8
 73
4
 74
0
 40
0
 40
0
 40
0
 40
0
 40
1
 40
1
 40
1
 40
1
 10
121.141430
 20
312.575882
 30
0.0
 10
119.346930
 20
312.574882
 30
0.0
 10
117.721730
 20
311.920746
 30
0.0
 10
116.994510
 20
310.906836
 30
0.0
  0
SPLINE
  5
20a
100
AcDbEntity
  8
Layer_1
 62
7
100
AcDbSpline
 70
8
 71
3
 72
8
 73
4
 74
0
 40
0
 40
0
 40
0
 40
0
 40
1
 40
1
 40
1
 40
1
 10
116.994510
 20
310.906836
 30
0.0
 10
116.267600
 20
311.920302
 30
0.0
 10
114.643470
 20
312.574319
 30
0.0
 10
112.849740
 20
312.575882
 30
0.0
  0
SPLINE
  5
20b
100
AcDbEntity
  8
Layer_1
 62
7
100
AcDbSpline
 70
8
 71
3
 72
8
 73
4
 74
0
 40
0
 40
0
 40
0
 40
0
 40
1
 40
1
 40
1
 40
1
 10
112.849740
 20
312.575882
 30
0.0
 10
111.055500
 20
312.574682
 30
0.0
 10
109.430650
 20
311.920600
 30
0.0
 10
108.703540
 20
310.906836
 30
0.0
  0
SPLINE
  5
20c
100
AcDbEntity
  8
Layer_1
 62
7
100
AcDbSpline
 70
8
 71
3
 72
8
 73
4
 74
0
 40
0
 40
0
 40
0
 40
0
 40
1
 40
1
 40
1
 40
1
 10
108.703540
 20
310.906836
 30
0.0
 10
107.976630
 20
311.920302
 30
0.0
 10
106.352500
 20
312.574319
 30
0.0
 10
104.558780
 20
312.575882
 30
0.0
  0
SPLINE
  5
20d
100
AcDbEntity
  8
Layer_1
 62
7
100
AcDbSpline
 70
8
 71
3
 72
8
 73
4
 74
0
 40
0
 40
0
 40
0
 40
0
 40
1
 40
1
 40
1
 40
1
 10
104.558780
 20
312.575882
 30
0.0
 10
102.764270
 20
312.574882
 30
0.0
 10
101.139080
 20
311.920746
 30
0.0
 10
100.411850
 20
310.906836
 30
0.0
  0
SPLINE
  5
20e
100
AcDbEntity
  8
Layer_1
 62
7
100
AcDbSpline
 70
8
 71
3
 72
8
 73
4
 74
0
 40
0
 40
0
 40
0
 40
0
 40
1
 40
1
 40
1
 40
1
 10
100.411850
 20
310.906836
 30
0.0
 10
99.684927
 20
311.920305
 30
0.0
 10
98.060807
 20
312.574322
 30
0.0
 10
96.267087
 20
312.575882
 30
0.0
  0
SPLINE
  5
20f
100
AcDbEntity
  8
Layer_1
 62
7
100
AcDbSpline
 70
8
 71
3
 72
8
 73
4
 74
0
 40
0
 40
0
 40
0
 40
0
 40
1
 40
1
 40
1
 40
1
 10
96.267087
 20
312.575882
 30
0.0
 10
94.472857
 20
312.574993
 30
0.0
 10
92.847737
 20
311.921187
 30
0.0
 10
92.120153
 20
310.907560
 30
0.0
  0
SPLINE
  5
210
100
AcDbEntity
  8
Layer_1
 62
7
100
AcDbSpline
 70
8
 71
3
 72
8
 73
4
 74
0
 40
0
 40
0
 40
0
 40
0
 40
1
 40
1
 40
1
 40
1
 10
92.120153
 20
310.907560
 30
0.0
 10
91.392995
 20
311.920597
 30
0.0
 10
89.769293
 20
312.574272
 30
0.0
 10
87.976117
 20
312.575882
 30
0.0
  0
SPLINE
  5
211
100
AcDbEntity
  8
Layer_1
 62
7
100
AcDbSpline
 70
8
 71
3
 72
8
 73
4
 74
0
 40
0
 40
0
 40
0
 40
0
 40
1
 40
1
 40
1
 40
1
 10
87.976117
 20
312.575882
 30
0.0
 10
86.181611
 20
312.574882
 30
0.0
 10
84.556419
 20
311.920746
 30
0.0
 10
83.829187
 20
310.906836
 30
0.0
  0
SPLINE
  5
212
100
AcDbEntity
  8
Layer_1
 62
7
100
AcDbSpline
 70
8
 71
3
 72
8
 73
4
 74
0
 40
0
 40
0
 40
0
 40
0
 40
1
 40
1
 40
1
 40
1
 10
83.829187
 20
310.906836
 30
0.0
 10
83.102278
 20
311.920302
 30
0.0
 10
81.478149
 20
312.574319
 30
0.0
 10
79.684428
 20
312.575882
 30
0.0
  0
SPLINE
  5
213
100
AcDbEntity
  8
Layer_1
 62
7
100
AcDbSpline
 70
8
 71
3
 72
8
 73
4
 74
0
 40
0
 40
0
 40
0
 40
0
 40
1
 40
1
 40
1
 40
1
 10
79.684428
 20
312.575882
 30
0.0
 10
77.889923
 20
312.574882
 30
0.0
 10
76.264727
 20
311.920749
 30
0.0
 10
75.537499
 20
310.906836
 30
0.0
  0
SPLINE
  5
214
100
AcDbEntity
  8
Layer_1
 62
7
100
AcDbSpline
 70
8
 71
3
 72
8
 73
4
 74
0
 40
0
 40
0
 40
0
 40
0
 40
1
 40
1
 40
1
 40
1
 10
75.537499
 20
310.906836
 30
0.0
 10
74.810686
 20
311.920153
 30
0.0
 10
73.186916
 20
312.574142
 30
0.0
 10
71.393463
 20
312.575882
 30
0.0
  0
SPLINE
  5
215
100
AcDbEntity
  8
Layer_1
 62
7
100
AcDbSpline
 70
8
 71
3
 72
8
 73
4
 74
0
 40
0
 40
0
 40
0
 40
0
 40
1
 40
1
 40
1
 40
1
 10
71.393463
 20
312.575882
 30
0.0
 10
69.600313
 20
312.574882
 30
0.0
 10
67.976047
 20
311.921772
 30
0.0
 10
67.247978
 20
310.909007
 30
0.0
  0
SPLINE
  5
216
100
AcDbEntity
  8
Layer_1
 62
7
100
AcDbSpline
 70
8
 71
3
 72
8
 73
4
 74
0
 40
0
 40
0
 40
0
 40
0
 40
1
 40
1
 40
1
 40
1
 10
67.247978
 20
310.909007
 30
0.0
 10
66.519794
 20
311.921922
 30
0.0
 10
64.895184
 20
312.575056
 30
0.0
 10
63.101771
 20
312.575882
 30
0.0
  0
SPLINE
  5
217
100
AcDbEntity
  8
Layer_1
 62
7
100
AcDbSpline
 70
8
 71
3
 72
8
 73
4
 74
0
 40
0
 40
0
 40
0
 40
0
 40
1
 40
1
 40
1
 40
1
 10
63.101771
 20
312.575882
 30
0.0
 10
61.307265
 20
312.574882
 30
0.0
 10
59.682069
 20
311.920746
 30
0.0
 10
58.954842
 20
310.906836
 30
0.0
  0
SPLINE
  5
218
100
AcDbEntity
  8
Layer_1
 62
7
100
AcDbSpline
 70
8
 71
3
 72
8
 73
4
 74
0
 40
0
 40
0
 40
0
 40
0
 40
1
 40
1
 40
1
 40
1
 10
58.954842
 20
310.906836
 30
0.0
 10
58.228032
 20
311.920156
 30
0.0
 10
56.604259
 20
312.574144
 30
0.0
 10
54.810805
 20
312.575882
 30
0.0
  0
SPLINE
  5
219
100
AcDbEntity
  8
Layer_1
 62
7
100
AcDbSpline
 70
8
 71
3
 72
8
 73
4
 74
0
 40
0
 40
0
 40
0
 40
0
 40
1
 40
1
 40
1
 40
1
 10
54.810805
 20
312.575882
 30
0.0
 10
53.016299
 20
312.574882
 30
0.0
 10
51.391078
 20
311.920746
 30
0.0
 10
50.663876
 20
310.906836
 30
0.0
  0
SPLINE
  5
21a
100
AcDbEntity
  8
Layer_1
 62
7
100
AcDbSpline
 70
8
 71
3
 72
8
 73
4
 74
0
 40
0
 40
0
 40
0
 40
0
 40
1
 40
1
 40
1
 40
1
 10
50.663876
 20
310.906836
 30
0.0
 10
49.936966
 20
311.920302
 30
0.0
 10
48.312838
 20
312.574319
 30
0.0
 10
46.519113
 20
312.575882
 30
0.0
  0
SPLINE
  5
21b
100
AcDbEntity
  8
Layer_1
 62
7
100
AcDbSpline
 70
8
 71
3
 72
8
 73
4
 74
0
 40
0
 40
0
 40
0
 40
0
 40
1
 40
1
 40
1
 40
1
 10
46.519113
 20
312.575882
 30
0.0
 10
44.724608
 20
312.574882
 30
0.0
 10
43.099412
 20
311.920746
 30
0.0
 10
42.372184
 20
310.906836
 30
0.0
  0
SPLINE
  5
21c
100
AcDbEntity
  8
Layer_1
 62
7
100
AcDbSpline
 70
8
 71
3
 72
8
 73
4
 74
0
 40
0
 40
0
 40
0
 40
0
 40
1
 40
1
 40
1
 40
1
 10
42.372184
 20
310.906836
 30
0.0
 10
41.645264
 20
311.920305
 30
0.0
 10
40.021146
 20
312.574322
 30
0.0
 10
38.227425
 20
312.575882
 30
0.0
  0
SPLINE
  5
21d
100
AcDbEntity
  8
Layer_1
 62
7
100
AcDbSpline
 70
8
 71
3
 72
8
 73
4
 74
0
 40
0
 40
0
 40
0
 40
0
 40
1
 40
1
 40
1
 40
1
 10
38.227425
 20
312.575882
 30
0.0
 10
36.433183
 20
312.574682
 30
0.0
 10
34.808350
 20
311.920597
 30
0.0
 10
34.081218
 20
310.906836
 30
0.0
  0
SPLINE
  5
21e
100
AcDbEntity
  8
Layer_1
 62
7
100
AcDbSpline
 70
8
 71
3
 72
8
 73
4
 74
0
 40
0
 40
0
 40
0
 40
0
 40
1
 40
1
 40
1
 40
1
 10
34.081218
 20
310.906836
 30
0.0
 10
33.354294
 20
311.920305
 30
0.0
 10
31.730180
 20
312.574322
 30
0.0
 10
29.936456
 20
312.575882
 30
0.0
  0
SPLINE
  5
21f
100
AcDbEntity
  8
Layer_1
 62
7
100
AcDbSpline
 70
8
 71
3
 72
8
 73
4
 74
0
 40
0
 40
0
 40
0
 40
0
 40
1
 40
1
 40
1
 40
1
 10
29.936456
 20
312.575882
 30
0.0
 10
28.141950
 20
312.574882
 30
0.0
 10
26.516758
 20
311.920746
 30
0.0
 10
25.789527
 20
310.906836
 30
0.0
  0
SPLINE
  5
220
100
AcDbEntity
  8
Layer_1
 62
7
100
AcDbSpline
 70
8
 71
3
 72
8
 73
4
 74
0
 40
0
 40
0
 40
0
 40
0
 40
1
 40
1
 40
1
 40
1
 10
25.789527
 20
310.906836
 30
0.0
 10
25.062619
 20
311.920302
 30
0.0
 10
23.438489
 20
312.574319
 30
0.0
 10
21.644767
 20
312.575882
 30
0.0
  0
SPLINE
  5
221
100
AcDbEntity
  8
Layer_1
 62
7
100
AcDbSpline
 70
8
 71
3
 72
8
 73
4
 74
0
 40
0
 40
0
 40
0
 40
0
 40
1
 40
1
 40
1
 40
1
 10
21.644767
 20
312.575882
 30
0.0
 10
19.850541
 20
312.574993
 30
0.0
 10
18.225417
 20
311.921189
 30
0.0
 10
17.497837
 20
310.907560
 30
0.0
  0
SPLINE
  5
222
100
AcDbEntity
  8
Layer_1
 62
7
100
AcDbSpline
 70
8
 71
3
 72
8
 73
4
 74
0
 40
0
 40
0
 40
0
 40
0
 40
1
 40
1
 40
1
 40
1
 10
17.497837
 20
310.907560
 30
0.0
 10
16.770677
 20
311.920594
 30
0.0
 10
15.146976
 20
312.574269
 30
0.0
 10
13.353800
 20
312.575882
 30
0.0
  0
SPLINE
  5
223
100
AcDbEntity
  8
Layer_1
 62
7
100
AcDbSpline
 70
8
 71
3
 72
8
 73
4
 74
0
 40
0
 40
0
 40
0
 40
0
 40
1
 40
1
 40
1
 40
1
 10
13.353800
 20
312.575882
 30
0.0
 10
11.559294
 20
312.574882
 30
0.0
 10
9.934100
 20
311.920749
 30
0.0
 10
9.206870
 20
310.906836
 30
0.0
  0
SPLINE
  5
224
100
AcDbEntity
  8
Layer_1
 62
7
100
AcDbSpline
 70
8
 71
3
 72
8
 73
4
 74
0
 40
0
 40
0
 40
0
 40
0
 40
1
 40
1
 40
1
 40
1
 10
9.206870
 20
310.906836
 30
0.0
 10
8.479962
 20
311.920302
 30
0.0
 10
6.855832
 20
312.574319
 30
0.0
 10
5.062110
 20
312.575881
 30
0.0
  0
LWPOLYLINE
  5
225
100
AcDbEntity
  8
Layer_1
 62
7
100
AcDbPolyline
 90
5
 70
0
 10
274.831070
 20
261.818711
 30
0.0
 10
275.448190
 20
261.818711
 30
0.0
 10
275.448190
 20
309.765241
 30
0.0
 10
274.926570
 20
309.765241
 30
0.0
 10
274.926570
 20
309.769541
 30
0.0
  0
LWPOLYLINE
  5
226
100
AcDbEntity
  8
Layer_1
 62
7
100
AcDbPolyline
 90
1
 70
1
 10
5.062110
 20
312.575881
 30
0.0
  0
ENDSEC
  0
SECTION
  2
OBJECTS
  0
DICTIONARY
  5
C
330
0
100
AcDbDictionary
  3
ACAD_GROUP
350
D
  3
ACAD_MLINESTYLE
350
17
  0
DICTIONARY
  5
D
330
C
100
AcDbDictionary
  0
DICTIONARY
  5
1A
330
C
100
AcDbDictionary
  0
DICTIONARY
  5
17
330
C
100
AcDbDictionary
  3
STANDARD
350
18
  0
DICTIONARY
  5
19
330
C
100
AcDbDictionary
  0
ENDSEC
  0
EOF
