  0
SECTION
  2
HEADER
  9
$ACADVER
  1
AC1014
  9
$HANDSEED
  5
FFFF
  9
$MEASUREMENT
 70
     1
  0
ENDSEC
  0
SECTION
  2
TABLES
  0
TABLE
  2
VPORT
  5
8
330
0
100
AcDbSymbolTable
 70
     4
  0
VPORT
  5
2E
330
8
100
AcDbSymbolTableRecord
100
AcDbViewportTableRecord
  2
*ACTIVE
 70
     0
 10
0.0
 20
0.0
 11
1.0
 21
1.0
 12
210.0
 22
148.5
 13
0.0
 23
0.0
 14
10.0
 24
10.0
 15
10.0
 25
10.0
 16
0.0
 26
0.0
 36
1.0
 17
0.0
 27
0.0
 37
0.0
 40
341.0
 41
1.24
 42
50.0
 43
0.0
 44
0.0
 50
0.0
 51
0.0
 71
     0
 72
   100
 73
     1
 74
     3
 75
     0
 76
     0
 77
     0
 78
     0
  0
ENDTAB
  0
TABLE
  2
LTYPE
  5
5
330
0
100
AcDbSymbolTable
 70
     1
  0
LTYPE
  5
14
330
5
100
AcDbSymbolTableRecord
100
AcDbLinetypeTableRecord
  2
BYBLOCK
 70
     0
  3

 72
    65
 73
     0
 40
0.0
  0
LTYPE
  5
15
330
5
100
AcDbSymbolTableRecord
100
AcDbLinetypeTableRecord
  2
BYLAYER
 70
     0
  3

 72
    65
 73
     0
 40
0.0
  0
LTYPE
  5
16
330
5
100
AcDbSymbolTableRecord
100
AcDbLinetypeTableRecord
  2
CONTINUOUS
 70
     0
  3
Solid line
 72
    65
 73
     0
 40
0.0
  0
ENDTAB
  0
TABLE
  2
LAYER
  5
2
100
AcDbSymbolTable
 70
2
  0
LAYER
  5
50
100
AcDbSymbolTableRecord
100
AcDbLayerTableRecord
  2
0
 70
0
  6
CONTINUOUS
  0
LAYER
  5
51
100
AcDbSymbolTableRecord
100
AcDbLayerTableRecord
  2
Layer_1
 70
0
  6
CONTINUOUS
  0
ENDTAB
  0
TABLE
  2
STYLE
  5
3
330
0
100
AcDbSymbolTable
 70
     1
  0
STYLE
  5
11
330
3
100
AcDbSymbolTableRecord
100
AcDbTextStyleTableRecord
  2
STANDARD
 70
     0
 40
0.0
 41
1.0
 50
0.0
 71
     0
 42
2.5
  3
txt
  4

  0
ENDTAB
  0
TABLE
  2
VIEW
  5
6
330
0
100
AcDbSymbolTable
 70
     0
  0
ENDTAB
  0
TABLE
  2
UCS
  5
7
330
0
100
AcDbSymbolTable
 70
     0
  0
ENDTAB
  0
TABLE
  2
APPID
  5
9
330
0
100
AcDbSymbolTable
 70
     2
  0
APPID
  5
12
330
9
100
AcDbSymbolTableRecord
100
AcDbRegAppTableRecord
  2
ACAD
 70
     0
  0
ENDTAB
  0
TABLE
  2
DIMSTYLE
  5
A
330
0
100
AcDbSymbolTable
 70
     1
  0
DIMSTYLE
105
27
330
A
100
AcDbSymbolTableRecord
100
AcDbDimStyleTableRecord
  2
ISO-25
 70
     0
  3

  4

  5

  6

  7

 40
1.0
 41
2.5
 42
0.625
 43
3.75
 44
1.25
 45
0.0
 46
0.0
 47
0.0
 48
0.0
140
2.5
141
2.5
142
0.0
143
0.03937007874016
144
1.0
145
0.0
146
1.0
147
0.625
 71
     0
 72
     0
 73
     0
 74
     0
 75
     0
 76
     0
 77
     1
 78
     8
170
     0
171
     3
172
     1
173
     0
174
     0
175
     0
176
     0
177
     0
178
     0
270
     2
271
     2
272
     2
273
     2
274
     3
340
11
275
     0
280
     0
281
     0
282
     0
283
     0
284
     8
285
     0
286
     0
287
     3
288
     0
  0
ENDTAB
  0
TABLE
  2
BLOCK_RECORD
  5
1
330
0
100
AcDbSymbolTable
 70
     1
  0
BLOCK_RECORD
  5
1F
330
1
100
AcDbSymbolTableRecord
100
AcDbBlockTableRecord
  2
*MODEL_SPACE
  0
BLOCK_RECORD
  5
1B
330
1
100
AcDbSymbolTableRecord
100
AcDbBlockTableRecord
  2
*PAPER_SPACE
  0
ENDTAB
  0
ENDSEC
  0
SECTION
  2
BLOCKS
  0
BLOCK
  5
20
330
1F
100
AcDbEntity
  8
0
100
AcDbBlockBegin
  2
*MODEL_SPACE
 70
     0
 10
0.0
 20
0.0
 30
0.0
  3
*MODEL_SPACE
  1

  0
ENDBLK
  5
21
330
1F
100
AcDbEntity
  8
0
100
AcDbBlockEnd
  0
BLOCK
  5
1C
330
1B
100
AcDbEntity
 67
     1
  8
0
100
AcDbBlockBegin
  2
*PAPER_SPACE
  1

  0
ENDBLK
  5
1D
330
1B
100
AcDbEntity
 67
     1
  8
0
100
AcDbBlockEnd
  0
ENDSEC
  0
SECTION
  2
ENTITIES
  0
SPLINE
  5
100
100
AcDbEntity
  8
Layer_1
 62
7
100
AcDbSpline
 70
8
 71
3
 72
8
 73
4
 74
0
 40
0
 40
0
 40
0
 40
0
 40
1
 40
1
 40
1
 40
1
 10
5.062120
 20
312.575927
 30
0.0
 10
2.554430
 20
312.575849
 30
0.0
 10
0.521610
 20
311.319429
 30
0.0
 10
0.521620
 20
309.769587
 30
0.0
  0
SPLINE
  5
101
100
AcDbEntity
  8
Layer_1
 62
7
100
AcDbSpline
 70
8
 71
3
 72
8
 73
4
 74
0
 40
0
 40
0
 40
0
 40
0
 40
1
 40
1
 40
1
 40
1
 10
0.621460
 20
261.818757
 30
0.0
 10
1.058260
 20
260.517554
 30
0.0
 10
2.911900
 20
259.584093
 30
0.0
 10
5.062120
 20
259.582511
 30
0.0
  0
SPLINE
  5
102
100
AcDbEntity
  8
Layer_1
 62
7
100
AcDbSpline
 70
8
 71
3
 72
8
 73
4
 74
0
 40
0
 40
0
 40
0
 40
0
 40
1
 40
1
 40
1
 40
1
 10
5.062120
 20
259.582511
 30
0.0
 10
6.856350
 20
259.583252
 30
0.0
 10
8.481470
 20
260.237208
 30
0.0
 10
9.209050
 20
261.250835
 30
0.0
  0
SPLINE
  5
103
100
AcDbEntity
  8
Layer_1
 62
7
100
AcDbSpline
 70
8
 71
3
 72
8
 73
4
 74
0
 40
0
 40
0
 40
0
 40
0
 40
1
 40
1
 40
1
 40
1
 10
9.209050
 20
261.250835
 30
0.0
 10
9.936320
 20
260.237652
 30
0.0
 10
11.560370
 20
259.583945
 30
0.0
 10
13.353810
 20
259.582511
 30
0.0
  0
SPLINE
  5
104
100
AcDbEntity
  8
Layer_1
 62
7
100
AcDbSpline
 70
8
 71
3
 72
8
 73
4
 74
0
 40
0
 40
0
 40
0
 40
0
 40
1
 40
1
 40
1
 40
1
 10
13.353810
 20
259.582511
 30
0.0
 10
15.148040
 20
259.583252
 30
0.0
 10
16.773150
 20
260.237204
 30
0.0
 10
17.500740
 20
261.250835
 30
0.0
  0
SPLINE
  5
105
100
AcDbEntity
  8
Layer_1
 62
7
100
AcDbSpline
 70
8
 71
3
 72
8
 73
4
 74
0
 40
0
 40
0
 40
0
 40
0
 40
1
 40
1
 40
1
 40
1
 10
17.500740
 20
261.250835
 30
0.0
 10
18.227900
 20
260.237801
 30
0.0
 10
19.851600
 20
259.584123
 30
0.0
 10
21.644780
 20
259.582511
 30
0.0
  0
SPLINE
  5
106
100
AcDbEntity
  8
Layer_1
 62
7
100
AcDbSpline
 70
8
 71
3
 72
8
 73
4
 74
0
 40
0
 40
0
 40
0
 40
0
 40
1
 40
1
 40
1
 40
1
 10
21.644780
 20
259.582511
 30
0.0
 10
23.439000
 20
259.583252
 30
0.0
 10
25.064110
 20
260.237204
 30
0.0
 10
25.791710
 20
261.250835
 30
0.0
  0
SPLINE
  5
107
100
AcDbEntity
  8
Layer_1
 62
7
100
AcDbSpline
 70
8
 71
3
 72
8
 73
4
 74
0
 40
0
 40
0
 40
0
 40
0
 40
1
 40
1
 40
1
 40
1
 10
25.791710
 20
261.250835
 30
0.0
 10
26.518980
 20
260.237652
 30
0.0
 10
28.143030
 20
259.583945
 30
0.0
 10
29.936470
 20
259.582511
 30
0.0
  0
SPLINE
  5
108
100
AcDbEntity
  8
Layer_1
 62
7
100
AcDbSpline
 70
8
 71
3
 72
8
 73
4
 74
0
 40
0
 40
0
 40
0
 40
0
 40
1
 40
1
 40
1
 40
1
 10
29.936470
 20
259.582511
 30
0.0
 10
31.730690
 20
259.583252
 30
0.0
 10
33.355820
 20
260.237208
 30
0.0
 10
34.083400
 20
261.250835
 30
0.0
  0
SPLINE
  5
109
100
AcDbEntity
  8
Layer_1
 62
7
100
AcDbSpline
 70
8
 71
3
 72
8
 73
4
 74
0
 40
0
 40
0
 40
0
 40
0
 40
1
 40
1
 40
1
 40
1
 10
34.083400
 20
261.250835
 30
0.0
 10
34.810560
 20
260.237797
 30
0.0
 10
36.434260
 20
259.584123
 30
0.0
 10
38.227440
 20
259.582511
 30
0.0
  0
SPLINE
  5
10a
100
AcDbEntity
  8
Layer_1
 62
7
100
AcDbSpline
 70
8
 71
3
 72
8
 73
4
 74
0
 40
0
 40
0
 40
0
 40
0
 40
1
 40
1
 40
1
 40
1
 10
38.227440
 20
259.582511
 30
0.0
 10
40.021660
 20
259.583252
 30
0.0
 10
41.646790
 20
260.237208
 30
0.0
 10
42.374370
 20
261.250835
 30
0.0
  0
SPLINE
  5
10b
100
AcDbEntity
  8
Layer_1
 62
7
100
AcDbSpline
 70
8
 71
3
 72
8
 73
4
 74
0
 40
0
 40
0
 40
0
 40
0
 40
1
 40
1
 40
1
 40
1
 10
42.374370
 20
261.250835
 30
0.0
 10
43.101640
 20
260.237652
 30
0.0
 10
44.725680
 20
259.583945
 30
0.0
 10
46.519120
 20
259.582511
 30
0.0
  0
SPLINE
  5
10c
100
AcDbEntity
  8
Layer_1
 62
7
100
AcDbSpline
 70
8
 71
3
 72
8
 73
4
 74
0
 40
0
 40
0
 40
0
 40
0
 40
1
 40
1
 40
1
 40
1
 10
46.519120
 20
259.582511
 30
0.0
 10
48.313350
 20
259.583252
 30
0.0
 10
49.938460
 20
260.237204
 30
0.0
 10
50.666050
 20
261.250835
 30
0.0
  0
SPLINE
  5
10d
100
AcDbEntity
  8
Layer_1
 62
7
100
AcDbSpline
 70
8
 71
3
 72
8
 73
4
 74
0
 40
0
 40
0
 40
0
 40
0
 40
1
 40
1
 40
1
 40
1
 10
50.666050
 20
261.250835
 30
0.0
 10
50.970920
 20
260.826196
 30
0.0
 10
52.624680
 20
259.237972
 30
0.0
 10
53.005030
 20
258.949477
 30
0.0
  0
SPLINE
  5
10e
100
AcDbEntity
  8
Layer_1
 62
7
100
AcDbSpline
 70
8
 71
3
 72
8
 73
4
 74
0
 40
0
 40
0
 40
0
 40
0
 40
1
 40
1
 40
1
 40
1
 10
53.005030
 20
258.949477
 30
0.0
 10
52.005200
 20
258.190956
 30
0.0
 10
51.366160
 20
256.566156
 30
0.0
 10
51.364930
 20
254.779392
 30
0.0
  0
SPLINE
  5
10f
100
AcDbEntity
  8
Layer_1
 62
7
100
AcDbSpline
 70
8
 71
3
 72
8
 73
4
 74
0
 40
0
 40
0
 40
0
 40
0
 40
1
 40
1
 40
1
 40
1
 10
51.364930
 20
254.779392
 30
0.0
 10
51.365930
 20
252.992891
 30
0.0
 10
52.005340
 20
251.368440
 30
0.0
 10
53.005030
 20
250.610034
 30
0.0
  0
SPLINE
  5
110
100
AcDbEntity
  8
Layer_1
 62
7
100
AcDbSpline
 70
8
 71
3
 72
8
 73
4
 74
0
 40
0
 40
0
 40
0
 40
0
 40
1
 40
1
 40
1
 40
1
 10
53.005030
 20
250.610034
 30
0.0
 10
52.005200
 20
249.851517
 30
0.0
 10
51.366160
 20
248.226718
 30
0.0
 10
51.364930
 20
246.439954
 30
0.0
  0
SPLINE
  5
111
100
AcDbEntity
  8
Layer_1
 62
7
100
AcDbSpline
 70
8
 71
3
 72
8
 73
4
 74
0
 40
0
 40
0
 40
0
 40
0
 40
1
 40
1
 40
1
 40
1
 10
51.364930
 20
246.439954
 30
0.0
 10
51.365930
 20
244.653190
 30
0.0
 10
52.005200
 20
243.028391
 30
0.0
 10
53.005030
 20
242.269874
 30
0.0
  0
SPLINE
  5
112
100
AcDbEntity
  8
Layer_1
 62
7
100
AcDbSpline
 70
8
 71
3
 72
8
 73
4
 74
0
 40
0
 40
0
 40
0
 40
0
 40
1
 40
1
 40
1
 40
1
 10
53.005030
 20
242.269874
 30
0.0
 10
52.005340
 20
241.511468
 30
0.0
 10
51.366330
 20
239.887017
 30
0.0
 10
51.364930
 20
238.100515
 30
0.0
  0
SPLINE
  5
113
100
AcDbEntity
  8
Layer_1
 62
7
100
AcDbSpline
 70
8
 71
3
 72
8
 73
4
 74
0
 40
0
 40
0
 40
0
 40
0
 40
1
 40
1
 40
1
 40
1
 10
51.364930
 20
238.100515
 30
0.0
 10
51.365930
 20
236.313751
 30
0.0
 10
52.005200
 20
234.688952
 30
0.0
 10
53.005030
 20
233.930435
 30
0.0
  0
SPLINE
  5
114
100
AcDbEntity
  8
Layer_1
 62
7
100
AcDbSpline
 70
8
 71
3
 72
8
 73
4
 74
0
 40
0
 40
0
 40
0
 40
0
 40
1
 40
1
 40
1
 40
1
 10
53.005030
 20
233.930435
 30
0.0
 10
52.005200
 20
233.171914
 30
0.0
 10
51.366160
 20
231.547115
 30
0.0
 10
51.364930
 20
229.760351
 30
0.0
  0
SPLINE
  5
115
100
AcDbEntity
  8
Layer_1
 62
7
100
AcDbSpline
 70
8
 71
3
 72
8
 73
4
 74
0
 40
0
 40
0
 40
0
 40
0
 40
1
 40
1
 40
1
 40
1
 10
51.364930
 20
229.760351
 30
0.0
 10
51.365930
 20
227.973850
 30
0.0
 10
52.005340
 20
226.349399
 30
0.0
 10
53.005030
 20
225.590993
 30
0.0
  0
SPLINE
  5
116
100
AcDbEntity
  8
Layer_1
 62
7
100
AcDbSpline
 70
8
 71
3
 72
8
 73
4
 74
0
 40
0
 40
0
 40
0
 40
0
 40
1
 40
1
 40
1
 40
1
 10
53.005030
 20
225.590993
 30
0.0
 10
52.005200
 20
224.832476
 30
0.0
 10
51.366160
 20
223.207676
 30
0.0
 10
51.364930
 20
221.420912
 30
0.0
  0
SPLINE
  5
117
100
AcDbEntity
  8
Layer_1
 62
7
100
AcDbSpline
 70
8
 71
3
 72
8
 73
4
 74
0
 40
0
 40
0
 40
0
 40
0
 40
1
 40
1
 40
1
 40
1
 10
51.364930
 20
221.420912
 30
0.0
 10
51.365930
 20
219.634148
 30
0.0
 10
52.005200
 20
218.009349
 30
0.0
 10
53.005030
 20
217.250832
 30
0.0
  0
SPLINE
  5
118
100
AcDbEntity
  8
Layer_1
 62
7
100
AcDbSpline
 70
8
 71
3
 72
8
 73
4
 74
0
 40
0
 40
0
 40
0
 40
0
 40
1
 40
1
 40
1
 40
1
 10
53.005030
 20
217.250832
 30
0.0
 10
52.005340
 20
216.492426
 30
0.0
 10
51.366330
 20
214.867975
 30
0.0
 10
51.364930
 20
213.081475
 30
0.0
  0
SPLINE
  5
119
100
AcDbEntity
  8
Layer_1
 62
7
100
AcDbSpline
 70
8
 71
3
 72
8
 73
4
 74
0
 40
0
 40
0
 40
0
 40
0
 40
1
 40
1
 40
1
 40
1
 10
51.364930
 20
213.081475
 30
0.0
 10
51.365300
 20
212.687585
 30
0.0
 10
51.396930
 20
212.295405
 30
0.0
 10
51.459030
 20
211.914515
 30
0.0
  0
SPLINE
  5
11a
100
AcDbEntity
  8
Layer_1
 62
7
100
AcDbSpline
 70
8
 71
3
 72
8
 73
4
 74
0
 40
0
 40
0
 40
0
 40
0
 40
1
 40
1
 40
1
 40
1
 10
51.459030
 20
211.914515
 30
0.0
 10
51.134310
 20
211.694585
 30
0.0
 10
50.863920
 20
211.442705
 30
0.0
 10
50.663930
 20
211.165005
 30
0.0
  0
SPLINE
  5
11b
100
AcDbEntity
  8
Layer_1
 62
7
100
AcDbSpline
 70
8
 71
3
 72
8
 73
4
 74
0
 40
0
 40
0
 40
0
 40
0
 40
1
 40
1
 40
1
 40
1
 10
50.663930
 20
211.165005
 30
0.0
 10
49.936660
 20
212.178185
 30
0.0
 10
48.312610
 20
212.831895
 30
0.0
 10
46.519170
 20
212.833325
 30
0.0
  0
SPLINE
  5
11c
100
AcDbEntity
  8
Layer_1
 62
7
100
AcDbSpline
 70
8
 71
3
 72
8
 73
4
 74
0
 40
0
 40
0
 40
0
 40
0
 40
1
 40
1
 40
1
 40
1
 10
46.519170
 20
212.833325
 30
0.0
 10
44.724950
 20
212.832585
 30
0.0
 10
43.099820
 20
212.178625
 30
0.0
 10
42.372240
 20
211.165005
 30
0.0
  0
SPLINE
  5
11d
100
AcDbEntity
  8
Layer_1
 62
7
100
AcDbSpline
 70
8
 71
3
 72
8
 73
4
 74
0
 40
0
 40
0
 40
0
 40
0
 40
1
 40
1
 40
1
 40
1
 10
42.372240
 20
211.165005
 30
0.0
 10
41.644980
 20
212.178185
 30
0.0
 10
40.020920
 20
212.831885
 30
0.0
 10
38.227480
 20
212.833325
 30
0.0
  0
SPLINE
  5
11e
100
AcDbEntity
  8
Layer_1
 62
7
100
AcDbSpline
 70
8
 71
3
 72
8
 73
4
 74
0
 40
0
 40
0
 40
0
 40
0
 40
1
 40
1
 40
1
 40
1
 10
38.227480
 20
212.833325
 30
0.0
 10
36.433510
 20
212.832325
 30
0.0
 10
34.808760
 20
212.178485
 30
0.0
 10
34.081280
 20
211.165005
 30
0.0
  0
SPLINE
  5
11f
100
AcDbEntity
  8
Layer_1
 62
7
100
AcDbSpline
 70
8
 71
3
 72
8
 73
4
 74
0
 40
0
 40
0
 40
0
 40
0
 40
1
 40
1
 40
1
 40
1
 10
34.081280
 20
211.165005
 30
0.0
 10
33.354020
 20
212.178185
 30
0.0
 10
31.729960
 20
212.831885
 30
0.0
 10
29.936510
 20
212.833325
 30
0.0
  0
SPLINE
  5
120
100
AcDbEntity
  8
Layer_1
 62
7
100
AcDbSpline
 70
8
 71
3
 72
8
 73
4
 74
0
 40
0
 40
0
 40
0
 40
0
 40
1
 40
1
 40
1
 40
1
 10
29.936510
 20
212.833325
 30
0.0
 10
28.142290
 20
212.832585
 30
0.0
 10
26.517160
 20
212.178625
 30
0.0
 10
25.789580
 20
211.165005
 30
0.0
  0
SPLINE
  5
121
100
AcDbEntity
  8
Layer_1
 62
7
100
AcDbSpline
 70
8
 71
3
 72
8
 73
4
 74
0
 40
0
 40
0
 40
0
 40
0
 40
1
 40
1
 40
1
 40
1
 10
25.789580
 20
211.165005
 30
0.0
 10
25.062310
 20
212.178185
 30
0.0
 10
23.438270
 20
212.831895
 30
0.0
 10
21.644820
 20
212.833325
 30
0.0
  0
SPLINE
  5
122
100
AcDbEntity
  8
Layer_1
 62
7
100
AcDbSpline
 70
8
 71
3
 72
8
 73
4
 74
0
 40
0
 40
0
 40
0
 40
0
 40
1
 40
1
 40
1
 40
1
 10
21.644820
 20
212.833325
 30
0.0
 10
19.850880
 20
212.832585
 30
0.0
 10
18.225820
 20
212.179065
 30
0.0
 10
17.497890
 20
211.165725
 30
0.0
  0
SPLINE
  5
123
100
AcDbEntity
  8
Layer_1
 62
7
100
AcDbSpline
 70
8
 71
3
 72
8
 73
4
 74
0
 40
0
 40
0
 40
0
 40
0
 40
1
 40
1
 40
1
 40
1
 10
17.497890
 20
211.165725
 30
0.0
 10
16.770380
 20
212.178475
 30
0.0
 10
15.146770
 20
212.831835
 30
0.0
 10
13.353860
 20
212.833325
 30
0.0
  0
SPLINE
  5
124
100
AcDbEntity
  8
Layer_1
 62
7
100
AcDbSpline
 70
8
 71
3
 72
8
 73
4
 74
0
 40
0
 40
0
 40
0
 40
0
 40
1
 40
1
 40
1
 40
1
 10
13.353860
 20
212.833325
 30
0.0
 10
11.559630
 20
212.832585
 30
0.0
 10
9.934510
 20
212.178625
 30
0.0
 10
9.206930
 20
211.165005
 30
0.0
  0
SPLINE
  5
125
100
AcDbEntity
  8
Layer_1
 62
7
100
AcDbSpline
 70
8
 71
3
 72
8
 73
4
 74
0
 40
0
 40
0
 40
0
 40
0
 40
1
 40
1
 40
1
 40
1
 10
9.206930
 20
211.165005
 30
0.0
 10
8.479670
 20
212.178185
 30
0.0
 10
6.855610
 20
212.831885
 30
0.0
 10
5.062170
 20
212.833325
 30
0.0
  0
SPLINE
  5
126
100
AcDbEntity
  8
Layer_1
 62
7
100
AcDbSpline
 70
8
 71
3
 72
8
 73
4
 74
0
 40
0
 40
0
 40
0
 40
0
 40
1
 40
1
 40
1
 40
1
 10
5.062170
 20
212.833325
 30
0.0
 10
2.874350
 20
212.832325
 30
0.0
 10
0.998720
 20
211.867315
 30
0.0
 10
0.600530
 20
210.537755
 30
0.0
  0
LWPOLYLINE
  5
127
100
AcDbEntity
  8
Layer_1
 62
7
100
AcDbPolyline
 90
5
 70
0
 10
0.521620
 20
309.769587
 30
0.0
 10
0.521620
 20
309.765287
 30
0.0
 10
0.000000
 20
309.765287
 30
0.0
 10
0.000000
 20
261.818757
 30
0.0
 10
0.621460
 20
261.818757
 30
0.0
  0
SPLINE
  5
128
100
AcDbEntity
  8
Layer_1
 62
7
100
AcDbSpline
 70
8
 71
3
 72
8
 73
4
 74
0
 40
0
 40
0
 40
0
 40
0
 40
1
 40
1
 40
1
 40
1
 10
0.533970
 20
158.390750
 30
0.0
 10
0.705210
 20
156.923170
 30
0.0
 10
2.681400
 20
155.786510
 30
0.0
 10
5.062170
 20
155.786260
 30
0.0
  0
SPLINE
  5
129
100
AcDbEntity
  8
Layer_1
 62
7
100
AcDbSpline
 70
8
 71
3
 72
8
 73
4
 74
0
 40
0
 40
0
 40
0
 40
0
 40
1
 40
1
 40
1
 40
1
 10
5.062170
 20
155.786260
 30
0.0
 10
6.856400
 20
155.787000
 30
0.0
 10
8.481520
 20
156.440950
 30
0.0
 10
9.209100
 20
157.454580
 30
0.0
  0
SPLINE
  5
12a
100
AcDbEntity
  8
Layer_1
 62
7
100
AcDbSpline
 70
8
 71
3
 72
8
 73
4
 74
0
 40
0
 40
0
 40
0
 40
0
 40
1
 40
1
 40
1
 40
1
 10
9.209100
 20
157.454580
 30
0.0
 10
9.936360
 20
156.441400
 30
0.0
 10
11.560420
 20
155.787700
 30
0.0
 10
13.353860
 20
155.786260
 30
0.0
  0
SPLINE
  5
12b
100
AcDbEntity
  8
Layer_1
 62
7
100
AcDbSpline
 70
8
 71
3
 72
8
 73
4
 74
0
 40
0
 40
0
 40
0
 40
0
 40
1
 40
1
 40
1
 40
1
 10
13.353860
 20
155.786260
 30
0.0
 10
15.148090
 20
155.787000
 30
0.0
 10
16.773210
 20
156.440950
 30
0.0
 10
17.500790
 20
157.454580
 30
0.0
  0
SPLINE
  5
12c
100
AcDbEntity
  8
Layer_1
 62
7
100
AcDbSpline
 70
8
 71
3
 72
8
 73
4
 74
0
 40
0
 40
0
 40
0
 40
0
 40
1
 40
1
 40
1
 40
1
 10
17.500790
 20
157.454580
 30
0.0
 10
18.227950
 20
156.441550
 30
0.0
 10
19.851650
 20
155.787870
 30
0.0
 10
21.644830
 20
155.786260
 30
0.0
  0
SPLINE
  5
12d
100
AcDbEntity
  8
Layer_1
 62
7
100
AcDbSpline
 70
8
 71
3
 72
8
 73
4
 74
0
 40
0
 40
0
 40
0
 40
0
 40
1
 40
1
 40
1
 40
1
 10
21.644830
 20
155.786260
 30
0.0
 10
23.439050
 20
155.787000
 30
0.0
 10
25.064180
 20
156.440950
 30
0.0
 10
25.791760
 20
157.454580
 30
0.0
  0
SPLINE
  5
12e
100
AcDbEntity
  8
Layer_1
 62
7
100
AcDbSpline
 70
8
 71
3
 72
8
 73
4
 74
0
 40
0
 40
0
 40
0
 40
0
 40
1
 40
1
 40
1
 40
1
 10
25.791760
 20
157.454580
 30
0.0
 10
26.519020
 20
156.441400
 30
0.0
 10
28.143080
 20
155.787700
 30
0.0
 10
29.936520
 20
155.786260
 30
0.0
  0
SPLINE
  5
12f
100
AcDbEntity
  8
Layer_1
 62
7
100
AcDbSpline
 70
8
 71
3
 72
8
 73
4
 74
0
 40
0
 40
0
 40
0
 40
0
 40
1
 40
1
 40
1
 40
1
 10
29.936520
 20
155.786260
 30
0.0
 10
31.730740
 20
155.787000
 30
0.0
 10
33.355870
 20
156.440950
 30
0.0
 10
34.083450
 20
157.454580
 30
0.0
  0
SPLINE
  5
130
100
AcDbEntity
  8
Layer_1
 62
7
100
AcDbSpline
 70
8
 71
3
 72
8
 73
4
 74
0
 40
0
 40
0
 40
0
 40
0
 40
1
 40
1
 40
1
 40
1
 10
34.083450
 20
157.454580
 30
0.0
 10
34.810610
 20
156.441540
 30
0.0
 10
36.434310
 20
155.787870
 30
0.0
 10
38.227490
 20
155.786260
 30
0.0
  0
SPLINE
  5
131
100
AcDbEntity
  8
Layer_1
 62
7
100
AcDbSpline
 70
8
 71
3
 72
8
 73
4
 74
0
 40
0
 40
0
 40
0
 40
0
 40
1
 40
1
 40
1
 40
1
 10
38.227490
 20
155.786260
 30
0.0
 10
40.021710
 20
155.787000
 30
0.0
 10
41.646840
 20
156.440950
 30
0.0
 10
42.374420
 20
157.454580
 30
0.0
  0
SPLINE
  5
132
100
AcDbEntity
  8
Layer_1
 62
7
100
AcDbSpline
 70
8
 71
3
 72
8
 73
4
 74
0
 40
0
 40
0
 40
0
 40
0
 40
1
 40
1
 40
1
 40
1
 10
42.374420
 20
157.454580
 30
0.0
 10
43.101670
 20
156.441400
 30
0.0
 10
44.725730
 20
155.787700
 30
0.0
 10
46.519170
 20
155.786260
 30
0.0
  0
SPLINE
  5
133
100
AcDbEntity
  8
Layer_1
 62
7
100
AcDbSpline
 70
8
 71
3
 72
8
 73
4
 74
0
 40
0
 40
0
 40
0
 40
0
 40
1
 40
1
 40
1
 40
1
 10
46.519170
 20
155.786260
 30
0.0
 10
48.313400
 20
155.787000
 30
0.0
 10
49.938520
 20
156.440950
 30
0.0
 10
50.666100
 20
157.454580
 30
0.0
  0
SPLINE
  5
134
100
AcDbEntity
  8
Layer_1
 62
7
100
AcDbSpline
 70
8
 71
3
 72
8
 73
4
 74
0
 40
0
 40
0
 40
0
 40
0
 40
1
 40
1
 40
1
 40
1
 10
50.666100
 20
157.454580
 30
0.0
 10
50.897110
 20
157.132540
 30
0.0
 10
51.225480
 20
156.846700
 30
0.0
 10
51.621090
 20
156.603780
 30
0.0
  0
SPLINE
  5
135
100
AcDbEntity
  8
Layer_1
 62
7
100
AcDbSpline
 70
8
 71
3
 72
8
 73
4
 74
0
 40
0
 40
0
 40
0
 40
0
 40
1
 40
1
 40
1
 40
1
 10
51.621090
 20
156.603780
 30
0.0
 10
51.453230
 20
156.007150
 30
0.0
 10
51.365920
 20
155.359480
 30
0.0
 10
51.364980
 20
154.703950
 30
0.0
  0
SPLINE
  5
136
100
AcDbEntity
  8
Layer_1
 62
7
100
AcDbSpline
 70
8
 71
3
 72
8
 73
4
 74
0
 40
0
 40
0
 40
0
 40
0
 40
1
 40
1
 40
1
 40
1
 10
51.364980
 20
154.703950
 30
0.0
 10
51.365980
 20
152.917180
 30
0.0
 10
52.005250
 20
151.292380
 30
0.0
 10
53.005080
 20
150.533870
 30
0.0
  0
SPLINE
  5
137
100
AcDbEntity
  8
Layer_1
 62
7
100
AcDbSpline
 70
8
 71
3
 72
8
 73
4
 74
0
 40
0
 40
0
 40
0
 40
0
 40
1
 40
1
 40
1
 40
1
 10
53.005080
 20
150.533870
 30
0.0
 10
52.005250
 20
149.775350
 30
0.0
 10
51.366210
 20
148.150550
 30
0.0
 10
51.364980
 20
146.363790
 30
0.0
  0
SPLINE
  5
138
100
AcDbEntity
  8
Layer_1
 62
7
100
AcDbSpline
 70
8
 71
3
 72
8
 73
4
 74
0
 40
0
 40
0
 40
0
 40
0
 40
1
 40
1
 40
1
 40
1
 10
51.364980
 20
146.363790
 30
0.0
 10
51.365980
 20
144.577290
 30
0.0
 10
52.005390
 20
142.952830
 30
0.0
 10
53.005080
 20
142.194430
 30
0.0
  0
SPLINE
  5
139
100
AcDbEntity
  8
Layer_1
 62
7
100
AcDbSpline
 70
8
 71
3
 72
8
 73
4
 74
0
 40
0
 40
0
 40
0
 40
0
 40
1
 40
1
 40
1
 40
1
 10
53.005080
 20
142.194430
 30
0.0
 10
52.005250
 20
141.435910
 30
0.0
 10
51.366210
 20
139.811110
 30
0.0
 10
51.364980
 20
138.024340
 30
0.0
  0
SPLINE
  5
13a
100
AcDbEntity
  8
Layer_1
 62
7
100
AcDbSpline
 70
8
 71
3
 72
8
 73
4
 74
0
 40
0
 40
0
 40
0
 40
0
 40
1
 40
1
 40
1
 40
1
 10
51.364980
 20
138.024340
 30
0.0
 10
51.365980
 20
136.237840
 30
0.0
 10
52.005400
 20
134.613400
 30
0.0
 10
53.005080
 20
133.854990
 30
0.0
  0
SPLINE
  5
13b
100
AcDbEntity
  8
Layer_1
 62
7
100
AcDbSpline
 70
8
 71
3
 72
8
 73
4
 74
0
 40
0
 40
0
 40
0
 40
0
 40
1
 40
1
 40
1
 40
1
 10
53.005080
 20
133.854990
 30
0.0
 10
52.005250
 20
133.096470
 30
0.0
 10
51.366210
 20
131.471670
 30
0.0
 10
51.364980
 20
129.684910
 30
0.0
  0
SPLINE
  5
13c
100
AcDbEntity
  8
Layer_1
 62
7
100
AcDbSpline
 70
8
 71
3
 72
8
 73
4
 74
0
 40
0
 40
0
 40
0
 40
0
 40
1
 40
1
 40
1
 40
1
 10
51.364980
 20
129.684910
 30
0.0
 10
51.365980
 20
127.898140
 30
0.0
 10
52.005250
 20
126.273340
 30
0.0
 10
53.005080
 20
125.514820
 30
0.0
  0
SPLINE
  5
13d
100
AcDbEntity
  8
Layer_1
 62
7
100
AcDbSpline
 70
8
 71
3
 72
8
 73
4
 74
0
 40
0
 40
0
 40
0
 40
0
 40
1
 40
1
 40
1
 40
1
 10
53.005080
 20
125.514820
 30
0.0
 10
52.005250
 20
124.756300
 30
0.0
 10
51.366210
 20
123.131500
 30
0.0
 10
51.364980
 20
121.344740
 30
0.0
  0
SPLINE
  5
13e
100
AcDbEntity
  8
Layer_1
 62
7
100
AcDbSpline
 70
8
 71
3
 72
8
 73
4
 74
0
 40
0
 40
0
 40
0
 40
0
 40
1
 40
1
 40
1
 40
1
 10
51.364980
 20
121.344740
 30
0.0
 10
51.365980
 20
119.558240
 30
0.0
 10
52.005390
 20
117.933790
 30
0.0
 10
53.005080
 20
117.175380
 30
0.0
  0
SPLINE
  5
13f
100
AcDbEntity
  8
Layer_1
 62
7
100
AcDbSpline
 70
8
 71
3
 72
8
 73
4
 74
0
 40
0
 40
0
 40
0
 40
0
 40
1
 40
1
 40
1
 40
1
 10
53.005080
 20
117.175380
 30
0.0
 10
52.005250
 20
116.416870
 30
0.0
 10
51.366210
 20
114.792070
 30
0.0
 10
51.364980
 20
113.005300
 30
0.0
  0
SPLINE
  5
140
100
AcDbEntity
  8
Layer_1
 62
7
100
AcDbSpline
 70
8
 71
3
 72
8
 73
4
 74
0
 40
0
 40
0
 40
0
 40
0
 40
1
 40
1
 40
1
 40
1
 10
51.364980
 20
113.005300
 30
0.0
 10
51.365980
 20
111.217740
 30
0.0
 10
52.005980
 20
109.592450
 30
0.0
 10
53.006530
 20
108.834500
 30
0.0
  0
SPLINE
  5
141
100
AcDbEntity
  8
Layer_1
 62
7
100
AcDbSpline
 70
8
 71
3
 72
8
 73
4
 74
0
 40
0
 40
0
 40
0
 40
0
 40
1
 40
1
 40
1
 40
1
 10
53.006530
 20
108.834500
 30
0.0
 10
52.006420
 20
108.076880
 30
0.0
 10
51.366820
 20
106.452630
 30
0.0
 10
51.364980
 20
104.665860
 30
0.0
  0
SPLINE
  5
142
100
AcDbEntity
  8
Layer_1
 62
7
100
AcDbSpline
 70
8
 71
3
 72
8
 73
4
 74
0
 40
0
 40
0
 40
0
 40
0
 40
1
 40
1
 40
1
 40
1
 10
51.364980
 20
104.665860
 30
0.0
 10
51.365980
 20
102.879100
 30
0.0
 10
52.005250
 20
101.254300
 30
0.0
 10
53.005080
 20
100.495780
 30
0.0
  0
SPLINE
  5
143
100
AcDbEntity
  8
Layer_1
 62
7
100
AcDbSpline
 70
8
 71
3
 72
8
 73
4
 74
0
 40
0
 40
0
 40
0
 40
0
 40
1
 40
1
 40
1
 40
1
 10
53.005080
 20
100.495780
 30
0.0
 10
52.005390
 20
99.737370
 30
0.0
 10
51.366380
 20
98.112920
 30
0.0
 10
51.364980
 20
96.326420
 30
0.0
  0
SPLINE
  5
144
100
AcDbEntity
  8
Layer_1
 62
7
100
AcDbSpline
 70
8
 71
3
 72
8
 73
4
 74
0
 40
0
 40
0
 40
0
 40
0
 40
1
 40
1
 40
1
 40
1
 10
51.364980
 20
96.326420
 30
0.0
 10
51.365980
 20
94.539660
 30
0.0
 10
52.005250
 20
92.914860
 30
0.0
 10
53.005080
 20
92.156340
 30
0.0
  0
SPLINE
  5
145
100
AcDbEntity
  8
Layer_1
 62
7
100
AcDbSpline
 70
8
 71
3
 72
8
 73
4
 74
0
 40
0
 40
0
 40
0
 40
0
 40
1
 40
1
 40
1
 40
1
 10
53.005080
 20
92.156340
 30
0.0
 10
52.005250
 20
91.397820
 30
0.0
 10
51.366210
 20
89.773020
 30
0.0
 10
51.364980
 20
87.986260
 30
0.0
  0
SPLINE
  5
146
100
AcDbEntity
  8
Layer_1
 62
7
100
AcDbSpline
 70
8
 71
3
 72
8
 73
4
 74
0
 40
0
 40
0
 40
0
 40
0
 40
1
 40
1
 40
1
 40
1
 10
51.364980
 20
87.986260
 30
0.0
 10
51.365980
 20
86.199760
 30
0.0
 10
52.005390
 20
84.575310
 30
0.0
 10
53.005080
 20
83.816900
 30
0.0
  0
SPLINE
  5
147
100
AcDbEntity
  8
Layer_1
 62
7
100
AcDbSpline
 70
8
 71
3
 72
8
 73
4
 74
0
 40
0
 40
0
 40
0
 40
0
 40
1
 40
1
 40
1
 40
1
 10
53.005080
 20
83.816900
 30
0.0
 10
52.005250
 20
83.058380
 30
0.0
 10
51.366210
 20
81.433580
 30
0.0
 10
51.364980
 20
79.646820
 30
0.0
  0
SPLINE
  5
148
100
AcDbEntity
  8
Layer_1
 62
7
100
AcDbSpline
 70
8
 71
3
 72
8
 73
4
 74
0
 40
0
 40
0
 40
0
 40
0
 40
1
 40
1
 40
1
 40
1
 10
51.364980
 20
79.646820
 30
0.0
 10
51.365980
 20
77.860050
 30
0.0
 10
52.005250
 20
76.235250
 30
0.0
 10
53.005080
 20
75.476740
 30
0.0
  0
SPLINE
  5
149
100
AcDbEntity
  8
Layer_1
 62
7
100
AcDbSpline
 70
8
 71
3
 72
8
 73
4
 74
0
 40
0
 40
0
 40
0
 40
0
 40
1
 40
1
 40
1
 40
1
 10
53.005080
 20
75.476740
 30
0.0
 10
52.005390
 20
74.718330
 30
0.0
 10
51.366380
 20
73.093880
 30
0.0
 10
51.364980
 20
71.307380
 30
0.0
  0
SPLINE
  5
14a
100
AcDbEntity
  8
Layer_1
 62
7
100
AcDbSpline
 70
8
 71
3
 72
8
 73
4
 74
0
 40
0
 40
0
 40
0
 40
0
 40
1
 40
1
 40
1
 40
1
 10
51.364980
 20
71.307380
 30
0.0
 10
51.365980
 20
69.520620
 30
0.0
 10
52.005250
 20
67.895820
 30
0.0
 10
53.005080
 20
67.137300
 30
0.0
  0
SPLINE
  5
14b
100
AcDbEntity
  8
Layer_1
 62
7
100
AcDbSpline
 70
8
 71
3
 72
8
 73
4
 74
0
 40
0
 40
0
 40
0
 40
0
 40
1
 40
1
 40
1
 40
1
 10
53.005080
 20
67.137300
 30
0.0
 10
52.005250
 20
66.378780
 30
0.0
 10
51.366210
 20
64.753980
 30
0.0
 10
51.364980
 20
62.967220
 30
0.0
  0
SPLINE
  5
14c
100
AcDbEntity
  8
Layer_1
 62
7
100
AcDbSpline
 70
8
 71
3
 72
8
 73
4
 74
0
 40
0
 40
0
 40
0
 40
0
 40
1
 40
1
 40
1
 40
1
 10
51.364980
 20
62.967220
 30
0.0
 10
51.365980
 20
61.179920
 30
0.0
 10
52.006130
 20
59.554980
 30
0.0
 10
53.006530
 20
58.797140
 30
0.0
  0
SPLINE
  5
14d
100
AcDbEntity
  8
Layer_1
 62
7
100
AcDbSpline
 70
8
 71
3
 72
8
 73
4
 74
0
 40
0
 40
0
 40
0
 40
0
 40
1
 40
1
 40
1
 40
1
 10
53.006530
 20
58.797140
 30
0.0
 10
52.006270
 20
58.039410
 30
0.0
 10
51.366650
 20
56.414820
 30
0.0
 10
51.364980
 20
54.627780
 30
0.0
  0
SPLINE
  5
14e
100
AcDbEntity
  8
Layer_1
 62
7
100
AcDbSpline
 70
8
 71
3
 72
8
 73
4
 74
0
 40
0
 40
0
 40
0
 40
0
 40
1
 40
1
 40
1
 40
1
 10
51.364980
 20
54.627780
 30
0.0
 10
51.365980
 20
52.841280
 30
0.0
 10
52.005390
 20
51.216830
 30
0.0
 10
53.005080
 20
50.458420
 30
0.0
  0
SPLINE
  5
14f
100
AcDbEntity
  8
Layer_1
 62
7
100
AcDbSpline
 70
8
 71
3
 72
8
 73
4
 74
0
 40
0
 40
0
 40
0
 40
0
 40
1
 40
1
 40
1
 40
1
 10
53.005080
 20
50.458420
 30
0.0
 10
52.005250
 20
49.699900
 30
0.0
 10
51.366210
 20
48.075100
 30
0.0
 10
51.364980
 20
46.288340
 30
0.0
  0
SPLINE
  5
150
100
AcDbEntity
  8
Layer_1
 62
7
100
AcDbSpline
 70
8
 71
3
 72
8
 73
4
 74
0
 40
0
 40
0
 40
0
 40
0
 40
1
 40
1
 40
1
 40
1
 10
51.364980
 20
46.288340
 30
0.0
 10
51.365980
 20
44.501570
 30
0.0
 10
52.005250
 20
42.876770
 30
0.0
 10
53.005080
 20
42.118260
 30
0.0
  0
SPLINE
  5
151
100
AcDbEntity
  8
Layer_1
 62
7
100
AcDbSpline
 70
8
 71
3
 72
8
 73
4
 74
0
 40
0
 40
0
 40
0
 40
0
 40
1
 40
1
 40
1
 40
1
 10
53.005080
 20
42.118260
 30
0.0
 10
52.005250
 20
41.359740
 30
0.0
 10
51.366210
 20
39.734940
 30
0.0
 10
51.364980
 20
37.948180
 30
0.0
  0
SPLINE
  5
152
100
AcDbEntity
  8
Layer_1
 62
7
100
AcDbSpline
 70
8
 71
3
 72
8
 73
4
 74
0
 40
0
 40
0
 40
0
 40
0
 40
1
 40
1
 40
1
 40
1
 10
51.364980
 20
37.948180
 30
0.0
 10
51.365980
 20
36.161680
 30
0.0
 10
52.005390
 20
34.537230
 30
0.0
 10
53.005080
 20
33.778820
 30
0.0
  0
SPLINE
  5
153
100
AcDbEntity
  8
Layer_1
 62
7
100
AcDbSpline
 70
8
 71
3
 72
8
 73
4
 74
0
 40
0
 40
0
 40
0
 40
0
 40
1
 40
1
 40
1
 40
1
 10
53.005080
 20
33.778820
 30
0.0
 10
52.005250
 20
33.020300
 30
0.0
 10
51.366210
 20
31.395500
 30
0.0
 10
51.364980
 20
29.608740
 30
0.0
  0
SPLINE
  5
154
100
AcDbEntity
  8
Layer_1
 62
7
100
AcDbSpline
 70
8
 71
3
 72
8
 73
4
 74
0
 40
0
 40
0
 40
0
 40
0
 40
1
 40
1
 40
1
 40
1
 10
51.364980
 20
29.608740
 30
0.0
 10
51.365980
 20
27.822240
 30
0.0
 10
52.005390
 20
26.197790
 30
0.0
 10
53.005080
 20
25.439380
 30
0.0
  0
SPLINE
  5
155
100
AcDbEntity
  8
Layer_1
 62
7
100
AcDbSpline
 70
8
 71
3
 72
8
 73
4
 74
0
 40
0
 40
0
 40
0
 40
0
 40
1
 40
1
 40
1
 40
1
 10
53.005080
 20
25.439380
 30
0.0
 10
52.005250
 20
24.680860
 30
0.0
 10
51.366210
 20
23.056060
 30
0.0
 10
51.364980
 20
21.269300
 30
0.0
  0
SPLINE
  5
156
100
AcDbEntity
  8
Layer_1
 62
7
100
AcDbSpline
 70
8
 71
3
 72
8
 73
4
 74
0
 40
0
 40
0
 40
0
 40
0
 40
1
 40
1
 40
1
 40
1
 10
51.364980
 20
21.269300
 30
0.0
 10
51.365980
 20
19.482540
 30
0.0
 10
52.005250
 20
17.857740
 30
0.0
 10
53.005080
 20
17.099220
 30
0.0
  0
SPLINE
  5
157
100
AcDbEntity
  8
Layer_1
 62
7
100
AcDbSpline
 70
8
 71
3
 72
8
 73
4
 74
0
 40
0
 40
0
 40
0
 40
0
 40
1
 40
1
 40
1
 40
1
 10
53.005080
 20
17.099220
 30
0.0
 10
52.005390
 20
16.340810
 30
0.0
 10
51.366380
 20
14.716360
 30
0.0
 10
51.364980
 20
12.929860
 30
0.0
  0
SPLINE
  5
158
100
AcDbEntity
  8
Layer_1
 62
7
100
AcDbSpline
 70
8
 71
3
 72
8
 73
4
 74
0
 40
0
 40
0
 40
0
 40
0
 40
1
 40
1
 40
1
 40
1
 10
51.364980
 20
12.929860
 30
0.0
 10
51.365980
 20
11.191440
 30
0.0
 10
51.971460
 20
9.601830
 30
0.0
 10
52.930570
 20
8.818380
 30
0.0
  0
SPLINE
  5
159
100
AcDbEntity
  8
Layer_1
 62
7
100
AcDbSpline
 70
8
 71
3
 72
8
 73
4
 74
0
 40
0
 40
0
 40
0
 40
0
 40
1
 40
1
 40
1
 40
1
 10
52.930570
 20
8.818380
 30
0.0
 10
51.971240
 20
8.216510
 30
0.0
 10
51.365900
 20
6.995210
 30
0.0
 10
51.364980
 20
5.659710
 30
0.0
  0
SPLINE
  5
15a
100
AcDbEntity
  8
Layer_1
 62
7
100
AcDbSpline
 70
8
 71
3
 72
8
 73
4
 74
0
 40
0
 40
0
 40
0
 40
0
 40
1
 40
1
 40
1
 40
1
 10
51.364980
 20
5.659710
 30
0.0
 10
51.364830
 20
3.703630
 30
0.0
 10
51.979250
 20
0.369630
 30
0.0
 10
56.057360
 20
0.322210
 30
0.0
  0
SPLINE
  5
15b
100
AcDbEntity
  8
Layer_1
 62
7
100
AcDbSpline
 70
8
 71
3
 72
8
 73
4
 74
0
 40
0
 40
0
 40
0
 40
0
 40
1
 40
1
 40
1
 40
1
 10
56.057360
 20
0.322210
 30
0.0
 10
56.662610
 20
0.323210
 30
0.0
 10
58.469420
 20
1.223600
 30
0.0
 10
58.957100
 20
1.669090
 30
0.0
  0
SPLINE
  5
15c
100
AcDbEntity
  8
Layer_1
 62
7
100
AcDbSpline
 70
8
 71
3
 72
8
 73
4
 74
0
 40
0
 40
0
 40
0
 40
0
 40
1
 40
1
 40
1
 40
1
 10
58.957100
 20
1.669090
 30
0.0
 10
58.957840
 20
0.119410
 30
0.0
 10
61.095980
 20
0.094320
 30
0.0
 10
63.083850
 20
-0.000000
 30
0.0
  0
SPLINE
  5
15d
100
AcDbEntity
  8
Layer_1
 62
7
100
AcDbSpline
 70
8
 71
3
 72
8
 73
4
 74
0
 40
0
 40
0
 40
0
 40
0
 40
1
 40
1
 40
1
 40
1
 10
63.083850
 20
-0.000000
 30
0.0
 10
64.878070
 20
0.000740
 30
0.0
 10
66.503200
 20
0.654700
 30
0.0
 10
67.230780
 20
1.668320
 30
0.0
  0
SPLINE
  5
15e
100
AcDbEntity
  8
Layer_1
 62
7
100
AcDbSpline
 70
8
 71
3
 72
8
 73
4
 74
0
 40
0
 40
0
 40
0
 40
0
 40
1
 40
1
 40
1
 40
1
 10
67.230780
 20
1.668320
 30
0.0
 10
67.957940
 20
0.655280
 30
0.0
 10
69.581640
 20
0.001610
 30
0.0
 10
71.374820
 20
-0.000000
 30
0.0
  0
SPLINE
  5
15f
100
AcDbEntity
  8
Layer_1
 62
7
100
AcDbSpline
 70
8
 71
3
 72
8
 73
4
 74
0
 40
0
 40
0
 40
0
 40
0
 40
1
 40
1
 40
1
 40
1
 10
71.374820
 20
-0.000000
 30
0.0
 10
73.169040
 20
0.000740
 30
0.0
 10
74.794170
 20
0.654700
 30
0.0
 10
75.521750
 20
1.668320
 30
0.0
  0
SPLINE
  5
160
100
AcDbEntity
  8
Layer_1
 62
7
100
AcDbSpline
 70
8
 71
3
 72
8
 73
4
 74
0
 40
0
 40
0
 40
0
 40
0
 40
1
 40
1
 40
1
 40
1
 10
75.521750
 20
1.668320
 30
0.0
 10
76.249020
 20
0.655150
 30
0.0
 10
77.873060
 20
0.001450
 30
0.0
 10
79.666500
 20
-0.000000
 30
0.0
  0
SPLINE
  5
161
100
AcDbEntity
  8
Layer_1
 62
7
100
AcDbSpline
 70
8
 71
3
 72
8
 73
4
 74
0
 40
0
 40
0
 40
0
 40
0
 40
1
 40
1
 40
1
 40
1
 10
79.666500
 20
-0.000000
 30
0.0
 10
81.460730
 20
0.000740
 30
0.0
 10
83.085850
 20
0.654700
 30
0.0
 10
83.813430
 20
1.668320
 30
0.0
  0
SPLINE
  5
162
100
AcDbEntity
  8
Layer_1
 62
7
100
AcDbSpline
 70
8
 71
3
 72
8
 73
4
 74
0
 40
0
 40
0
 40
0
 40
0
 40
1
 40
1
 40
1
 40
1
 10
83.813430
 20
1.668320
 30
0.0
 10
84.540590
 20
0.655280
 30
0.0
 10
86.164290
 20
0.001610
 30
0.0
 10
87.957470
 20
-0.000000
 30
0.0
  0
SPLINE
  5
163
100
AcDbEntity
  8
Layer_1
 62
7
100
AcDbSpline
 70
8
 71
3
 72
8
 73
4
 74
0
 40
0
 40
0
 40
0
 40
0
 40
1
 40
1
 40
1
 40
1
 10
87.957470
 20
-0.000000
 30
0.0
 10
89.751980
 20
0.001000
 30
0.0
 10
91.377169
 20
0.655140
 30
0.0
 10
92.104399
 20
1.669050
 30
0.0
  0
SPLINE
  5
164
100
AcDbEntity
  8
Layer_1
 62
7
100
AcDbSpline
 70
8
 71
3
 72
8
 73
4
 74
0
 40
0
 40
0
 40
0
 40
0
 40
1
 40
1
 40
1
 40
1
 10
92.104399
 20
1.669050
 30
0.0
 10
92.831319
 20
0.655580
 30
0.0
 10
94.455439
 20
0.001560
 30
0.0
 10
96.249159
 20
-0.000000
 30
0.0
  0
SPLINE
  5
165
100
AcDbEntity
  8
Layer_1
 62
7
100
AcDbSpline
 70
8
 71
3
 72
8
 73
4
 74
0
 40
0
 40
0
 40
0
 40
0
 40
1
 40
1
 40
1
 40
1
 10
96.249159
 20
-0.000000
 30
0.0
 10
98.043389
 20
0.000740
 30
0.0
 10
99.668509
 20
0.654700
 30
0.0
 10
100.396090
 20
1.668320
 30
0.0
  0
SPLINE
  5
166
100
AcDbEntity
  8
Layer_1
 62
7
100
AcDbSpline
 70
8
 71
3
 72
8
 73
4
 74
0
 40
0
 40
0
 40
0
 40
0
 40
1
 40
1
 40
1
 40
1
 10
100.396090
 20
1.668320
 30
0.0
 10
101.123360
 20
0.655150
 30
0.0
 10
102.747410
 20
0.001450
 30
0.0
 10
104.540850
 20
-0.000000
 30
0.0
  0
SPLINE
  5
167
100
AcDbEntity
  8
Layer_1
 62
7
100
AcDbSpline
 70
8
 71
3
 72
8
 73
4
 74
0
 40
0
 40
0
 40
0
 40
0
 40
1
 40
1
 40
1
 40
1
 10
104.540850
 20
-0.000000
 30
0.0
 10
106.335360
 20
0.001000
 30
0.0
 10
107.960550
 20
0.655140
 30
0.0
 10
108.687780
 20
1.669050
 30
0.0
  0
SPLINE
  5
168
100
AcDbEntity
  8
Layer_1
 62
7
100
AcDbSpline
 70
8
 71
3
 72
8
 73
4
 74
0
 40
0
 40
0
 40
0
 40
0
 40
1
 40
1
 40
1
 40
1
 10
108.687780
 20
1.669050
 30
0.0
 10
109.414590
 20
0.655730
 30
0.0
 10
111.038360
 20
0.001740
 30
0.0
 10
112.831820
 20
-0.000000
 30
0.0
  0
SPLINE
  5
169
100
AcDbEntity
  8
Layer_1
 62
7
100
AcDbSpline
 70
8
 71
3
 72
8
 73
4
 74
0
 40
0
 40
0
 40
0
 40
0
 40
1
 40
1
 40
1
 40
1
 10
112.831820
 20
-0.000000
 30
0.0
 10
114.626040
 20
0.000740
 30
0.0
 10
116.251170
 20
0.654700
 30
0.0
 10
116.978750
 20
1.668320
 30
0.0
  0
SPLINE
  5
16a
100
AcDbEntity
  8
Layer_1
 62
7
100
AcDbSpline
 70
8
 71
3
 72
8
 73
4
 74
0
 40
0
 40
0
 40
0
 40
0
 40
1
 40
1
 40
1
 40
1
 10
116.978750
 20
1.668320
 30
0.0
 10
117.706020
 20
0.655150
 30
0.0
 10
119.330070
 20
0.001430
 30
0.0
 10
121.123510
 20
-0.000000
 30
0.0
  0
SPLINE
  5
16b
100
AcDbEntity
  8
Layer_1
 62
7
100
AcDbSpline
 70
8
 71
3
 72
8
 73
4
 74
0
 40
0
 40
0
 40
0
 40
0
 40
1
 40
1
 40
1
 40
1
 10
121.123510
 20
-0.000000
 30
0.0
 10
122.917730
 20
0.000740
 30
0.0
 10
124.542860
 20
0.654700
 30
0.0
 10
125.270440
 20
1.668320
 30
0.0
  0
SPLINE
  5
16c
100
AcDbEntity
  8
Layer_1
 62
7
100
AcDbSpline
 70
8
 71
3
 72
8
 73
4
 74
0
 40
0
 40
0
 40
0
 40
0
 40
1
 40
1
 40
1
 40
1
 10
125.270440
 20
1.668320
 30
0.0
 10
125.997600
 20
0.655280
 30
0.0
 10
127.621300
 20
0.001610
 30
0.0
 10
129.414480
 20
-0.000000
 30
0.0
  0
SPLINE
  5
16d
100
AcDbEntity
  8
Layer_1
 62
7
100
AcDbSpline
 70
8
 71
3
 72
8
 73
4
 74
0
 40
0
 40
0
 40
0
 40
0
 40
1
 40
1
 40
1
 40
1
 10
129.414480
 20
-0.000000
 30
0.0
 10
131.208700
 20
0.000740
 30
0.0
 10
132.833830
 20
0.654700
 30
0.0
 10
133.561410
 20
1.668320
 30
0.0
  0
SPLINE
  5
16e
100
AcDbEntity
  8
Layer_1
 62
7
100
AcDbSpline
 70
8
 71
3
 72
8
 73
4
 74
0
 40
0
 40
0
 40
0
 40
0
 40
1
 40
1
 40
1
 40
1
 10
133.561410
 20
1.668320
 30
0.0
 10
134.288680
 20
0.655150
 30
0.0
 10
135.912720
 20
0.001450
 30
0.0
 10
137.706160
 20
-0.000000
 30
0.0
  0
SPLINE
  5
16f
100
AcDbEntity
  8
Layer_1
 62
7
100
AcDbSpline
 70
8
 71
3
 72
8
 73
4
 74
0
 40
0
 40
0
 40
0
 40
0
 40
1
 40
1
 40
1
 40
1
 10
137.706160
 20
-0.000000
 30
0.0
 10
139.500390
 20
0.000740
 30
0.0
 10
141.125510
 20
0.654700
 30
0.0
 10
141.853090
 20
1.668320
 30
0.0
  0
SPLINE
  5
170
100
AcDbEntity
  8
Layer_1
 62
7
100
AcDbSpline
 70
8
 71
3
 72
8
 73
4
 74
0
 40
0
 40
0
 40
0
 40
0
 40
1
 40
1
 40
1
 40
1
 10
141.853090
 20
1.668320
 30
0.0
 10
142.580250
 20
0.655280
 30
0.0
 10
144.203950
 20
0.001610
 30
0.0
 10
145.997130
 20
-0.000000
 30
0.0
  0
SPLINE
  5
171
100
AcDbEntity
  8
Layer_1
 62
7
100
AcDbSpline
 70
8
 71
3
 72
8
 73
4
 74
0
 40
0
 40
0
 40
0
 40
0
 40
1
 40
1
 40
1
 40
1
 10
145.997130
 20
-0.000000
 30
0.0
 10
147.791370
 20
0.000740
 30
0.0
 10
149.416480
 20
0.654700
 30
0.0
 10
150.144060
 20
1.668320
 30
0.0
  0
SPLINE
  5
172
100
AcDbEntity
  8
Layer_1
 62
7
100
AcDbSpline
 70
8
 71
3
 72
8
 73
4
 74
0
 40
0
 40
0
 40
0
 40
0
 40
1
 40
1
 40
1
 40
1
 10
150.144060
 20
1.668320
 30
0.0
 10
150.871340
 20
0.655150
 30
0.0
 10
152.495380
 20
0.001450
 30
0.0
 10
154.288820
 20
-0.000000
 30
0.0
  0
SPLINE
  5
173
100
AcDbEntity
  8
Layer_1
 62
7
100
AcDbSpline
 70
8
 71
3
 72
8
 73
4
 74
0
 40
0
 40
0
 40
0
 40
0
 40
1
 40
1
 40
1
 40
1
 10
154.288820
 20
-0.000000
 30
0.0
 10
156.083050
 20
0.000740
 30
0.0
 10
157.708170
 20
0.654700
 30
0.0
 10
158.435750
 20
1.668320
 30
0.0
  0
SPLINE
  5
174
100
AcDbEntity
  8
Layer_1
 62
7
100
AcDbSpline
 70
8
 71
3
 72
8
 73
4
 74
0
 40
0
 40
0
 40
0
 40
0
 40
1
 40
1
 40
1
 40
1
 10
158.435750
 20
1.668320
 30
0.0
 10
159.163020
 20
0.655150
 30
0.0
 10
160.787070
 20
0.001450
 30
0.0
 10
162.580510
 20
-0.000000
 30
0.0
  0
SPLINE
  5
175
100
AcDbEntity
  8
Layer_1
 62
7
100
AcDbSpline
 70
8
 71
3
 72
8
 73
4
 74
0
 40
0
 40
0
 40
0
 40
0
 40
1
 40
1
 40
1
 40
1
 10
162.580510
 20
-0.000000
 30
0.0
 10
164.375030
 20
0.001000
 30
0.0
 10
166.000210
 20
0.655130
 30
0.0
 10
166.727440
 20
1.669050
 30
0.0
  0
SPLINE
  5
176
100
AcDbEntity
  8
Layer_1
 62
7
100
AcDbSpline
 70
8
 71
3
 72
8
 73
4
 74
0
 40
0
 40
0
 40
0
 40
0
 40
1
 40
1
 40
1
 40
1
 10
166.727440
 20
1.669050
 30
0.0
 10
167.454250
 20
0.655730
 30
0.0
 10
169.078040
 20
0.001740
 30
0.0
 10
170.871480
 20
-0.000000
 30
0.0
  0
SPLINE
  5
177
100
AcDbEntity
  8
Layer_1
 62
7
100
AcDbSpline
 70
8
 71
3
 72
8
 73
4
 74
0
 40
0
 40
0
 40
0
 40
0
 40
1
 40
1
 40
1
 40
1
 10
170.871480
 20
-0.000000
 30
0.0
 10
172.665720
 20
0.000740
 30
0.0
 10
174.290830
 20
0.654700
 30
0.0
 10
175.018410
 20
1.668320
 30
0.0
  0
SPLINE
  5
178
100
AcDbEntity
  8
Layer_1
 62
7
100
AcDbSpline
 70
8
 71
3
 72
8
 73
4
 74
0
 40
0
 40
0
 40
0
 40
0
 40
1
 40
1
 40
1
 40
1
 10
175.018410
 20
1.668320
 30
0.0
 10
175.745680
 20
0.655150
 30
0.0
 10
177.369730
 20
0.001450
 30
0.0
 10
179.163170
 20
-0.000000
 30
0.0
  0
SPLINE
  5
179
100
AcDbEntity
  8
Layer_1
 62
7
100
AcDbSpline
 70
8
 71
3
 72
8
 73
4
 74
0
 40
0
 40
0
 40
0
 40
0
 40
1
 40
1
 40
1
 40
1
 10
179.163170
 20
-0.000000
 30
0.0
 10
180.957670
 20
0.001000
 30
0.0
 10
182.582870
 20
0.655140
 30
0.0
 10
183.310100
 20
1.669050
 30
0.0
  0
SPLINE
  5
17a
100
AcDbEntity
  8
Layer_1
 62
7
100
AcDbSpline
 70
8
 71
3
 72
8
 73
4
 74
0
 40
0
 40
0
 40
0
 40
0
 40
1
 40
1
 40
1
 40
1
 10
183.310100
 20
1.669050
 30
0.0
 10
184.036910
 20
0.655730
 30
0.0
 10
185.660680
 20
0.001740
 30
0.0
 10
187.454140
 20
-0.000000
 30
0.0
  0
SPLINE
  5
17b
100
AcDbEntity
  8
Layer_1
 62
7
100
AcDbSpline
 70
8
 71
3
 72
8
 73
4
 74
0
 40
0
 40
0
 40
0
 40
0
 40
1
 40
1
 40
1
 40
1
 10
187.454140
 20
-0.000000
 30
0.0
 10
189.248360
 20
0.000740
 30
0.0
 10
190.873490
 20
0.654700
 30
0.0
 10
191.601070
 20
1.668320
 30
0.0
  0
SPLINE
  5
17c
100
AcDbEntity
  8
Layer_1
 62
7
100
AcDbSpline
 70
8
 71
3
 72
8
 73
4
 74
0
 40
0
 40
0
 40
0
 40
0
 40
1
 40
1
 40
1
 40
1
 10
191.601070
 20
1.668320
 30
0.0
 10
192.328340
 20
0.655150
 30
0.0
 10
193.952380
 20
0.001430
 30
0.0
 10
195.745820
 20
-0.000000
 30
0.0
  0
SPLINE
  5
17d
100
AcDbEntity
  8
Layer_1
 62
7
100
AcDbSpline
 70
8
 71
3
 72
8
 73
4
 74
0
 40
0
 40
0
 40
0
 40
0
 40
1
 40
1
 40
1
 40
1
 10
195.745820
 20
-0.000000
 30
0.0
 10
197.540050
 20
0.000740
 30
0.0
 10
199.165170
 20
0.654700
 30
0.0
 10
199.892750
 20
1.668320
 30
0.0
  0
SPLINE
  5
17e
100
AcDbEntity
  8
Layer_1
 62
7
100
AcDbSpline
 70
8
 71
3
 72
8
 73
4
 74
0
 40
0
 40
0
 40
0
 40
0
 40
1
 40
1
 40
1
 40
1
 10
199.892750
 20
1.668320
 30
0.0
 10
200.619920
 20
0.655280
 30
0.0
 10
202.243610
 20
0.001610
 30
0.0
 10
204.036790
 20
-0.000000
 30
0.0
  0
SPLINE
  5
17f
100
AcDbEntity
  8
Layer_1
 62
7
100
AcDbSpline
 70
8
 71
3
 72
8
 73
4
 74
0
 40
0
 40
0
 40
0
 40
0
 40
1
 40
1
 40
1
 40
1
 10
204.036790
 20
-0.000000
 30
0.0
 10
205.831030
 20
0.000740
 30
0.0
 10
207.456140
 20
0.654700
 30
0.0
 10
208.183720
 20
1.668320
 30
0.0
  0
SPLINE
  5
180
100
AcDbEntity
  8
Layer_1
 62
7
100
AcDbSpline
 70
8
 71
3
 72
8
 73
4
 74
0
 40
0
 40
0
 40
0
 40
0
 40
1
 40
1
 40
1
 40
1
 10
208.183720
 20
1.668320
 30
0.0
 10
208.911000
 20
0.655150
 30
0.0
 10
210.535040
 20
0.001450
 30
0.0
 10
212.328480
 20
-0.000000
 30
0.0
  0
SPLINE
  5
181
100
AcDbEntity
  8
Layer_1
 62
7
100
AcDbSpline
 70
8
 71
3
 72
8
 73
4
 74
0
 40
0
 40
0
 40
0
 40
0
 40
1
 40
1
 40
1
 40
1
 10
212.328480
 20
-0.000000
 30
0.0
 10
214.122710
 20
0.000740
 30
0.0
 10
215.747830
 20
0.654700
 30
0.0
 10
216.475410
 20
1.668320
 30
0.0
  0
SPLINE
  5
182
100
AcDbEntity
  8
Layer_1
 62
7
100
AcDbSpline
 70
8
 71
3
 72
8
 73
4
 74
0
 40
0
 40
0
 40
0
 40
0
 40
1
 40
1
 40
1
 40
1
 10
216.475410
 20
1.668320
 30
0.0
 10
217.202570
 20
0.655280
 30
0.0
 10
218.826270
 20
0.001610
 30
0.0
 10
220.619450
 20
-0.000000
 30
0.0
  0
SPLINE
  5
183
100
AcDbEntity
  8
Layer_1
 62
7
100
AcDbSpline
 70
8
 71
3
 72
8
 73
4
 74
0
 40
0
 40
0
 40
0
 40
0
 40
1
 40
1
 40
1
 40
1
 10
220.619450
 20
-0.000000
 30
0.0
 10
222.989250
 20
-0.000150
 30
0.0
 10
223.590450
 20
4.338440
 30
0.0
 10
223.590640
 20
5.483180
 30
0.0
  0
SPLINE
  5
184
100
AcDbEntity
  8
Layer_1
 62
7
100
AcDbSpline
 70
8
 71
3
 72
8
 73
4
 74
0
 40
0
 40
0
 40
0
 40
0
 40
1
 40
1
 40
1
 40
1
 10
223.590640
 20
5.483180
 30
0.0
 10
223.589640
 20
6.890790
 30
0.0
 10
222.978770
 20
8.176710
 30
0.0
 10
222.013470
 20
8.805360
 30
0.0
  0
SPLINE
  5
185
100
AcDbEntity
  8
Layer_1
 62
7
100
AcDbSpline
 70
8
 71
3
 72
8
 73
4
 74
0
 40
0
 40
0
 40
0
 40
0
 40
1
 40
1
 40
1
 40
1
 10
222.013470
 20
8.805360
 30
0.0
 10
222.979670
 20
9.585700
 30
0.0
 10
223.590300
 20
11.182590
 30
0.0
 10
223.590640
 20
12.929860
 30
0.0
  0
SPLINE
  5
186
100
AcDbEntity
  8
Layer_1
 62
7
100
AcDbSpline
 70
8
 71
3
 72
8
 73
4
 74
0
 40
0
 40
0
 40
0
 40
0
 40
1
 40
1
 40
1
 40
1
 10
223.590640
 20
12.929860
 30
0.0
 10
223.588640
 20
14.716370
 30
0.0
 10
222.949640
 20
16.340540
 30
0.0
 10
221.949810
 20
17.098490
 30
0.0
  0
SPLINE
  5
187
100
AcDbEntity
  8
Layer_1
 62
7
100
AcDbSpline
 70
8
 71
3
 72
8
 73
4
 74
0
 40
0
 40
0
 40
0
 40
0
 40
1
 40
1
 40
1
 40
1
 10
221.949810
 20
17.098490
 30
0.0
 10
222.950070
 20
17.856780
 30
0.0
 10
223.589450
 20
19.482010
 30
0.0
 10
223.590640
 20
21.269300
 30
0.0
  0
SPLINE
  5
188
100
AcDbEntity
  8
Layer_1
 62
7
100
AcDbSpline
 70
8
 71
3
 72
8
 73
4
 74
0
 40
0
 40
0
 40
0
 40
0
 40
1
 40
1
 40
1
 40
1
 10
223.590640
 20
21.269300
 30
0.0
 10
223.589640
 20
23.055800
 30
0.0
 10
222.950220
 20
24.680250
 30
0.0
 10
221.950530
 20
25.438660
 30
0.0
  0
SPLINE
  5
189
100
AcDbEntity
  8
Layer_1
 62
7
100
AcDbSpline
 70
8
 71
3
 72
8
 73
4
 74
0
 40
0
 40
0
 40
0
 40
0
 40
1
 40
1
 40
1
 40
1
 10
221.950530
 20
25.438660
 30
0.0
 10
222.950370
 20
26.197180
 30
0.0
 10
223.589410
 20
27.821980
 30
0.0
 10
223.590640
 20
29.608740
 30
0.0
  0
SPLINE
  5
18a
100
AcDbEntity
  8
Layer_1
 62
7
100
AcDbSpline
 70
8
 71
3
 72
8
 73
4
 74
0
 40
0
 40
0
 40
0
 40
0
 40
1
 40
1
 40
1
 40
1
 10
223.590640
 20
29.608740
 30
0.0
 10
223.589640
 20
31.395510
 30
0.0
 10
222.949780
 20
33.020030
 30
0.0
 10
221.949810
 20
33.778100
 30
0.0
  0
SPLINE
  5
18b
100
AcDbEntity
  8
Layer_1
 62
7
100
AcDbSpline
 70
8
 71
3
 72
8
 73
4
 74
0
 40
0
 40
0
 40
0
 40
0
 40
1
 40
1
 40
1
 40
1
 10
221.949810
 20
33.778100
 30
0.0
 10
222.949930
 20
34.536280
 30
0.0
 10
223.589280
 20
36.161150
 30
0.0
 10
223.590640
 20
37.948180
 30
0.0
  0
SPLINE
  5
18c
100
AcDbEntity
  8
Layer_1
 62
7
100
AcDbSpline
 70
8
 71
3
 72
8
 73
4
 74
0
 40
0
 40
0
 40
0
 40
0
 40
1
 40
1
 40
1
 40
1
 10
223.590640
 20
37.948180
 30
0.0
 10
223.589640
 20
39.734940
 30
0.0
 10
222.949780
 20
41.359470
 30
0.0
 10
221.949810
 20
42.117540
 30
0.0
  0
SPLINE
  5
18d
100
AcDbEntity
  8
Layer_1
 62
7
100
AcDbSpline
 70
8
 71
3
 72
8
 73
4
 74
0
 40
0
 40
0
 40
0
 40
0
 40
1
 40
1
 40
1
 40
1
 10
221.949810
 20
42.117540
 30
0.0
 10
222.950070
 20
42.875830
 30
0.0
 10
223.589450
 20
44.501050
 30
0.0
 10
223.590640
 20
46.288340
 30
0.0
  0
SPLINE
  5
18e
100
AcDbEntity
  8
Layer_1
 62
7
100
AcDbSpline
 70
8
 71
3
 72
8
 73
4
 74
0
 40
0
 40
0
 40
0
 40
0
 40
1
 40
1
 40
1
 40
1
 10
223.590640
 20
46.288340
 30
0.0
 10
223.589640
 20
48.074840
 30
0.0
 10
222.950220
 20
49.699290
 30
0.0
 10
221.950530
 20
50.457700
 30
0.0
  0
SPLINE
  5
18f
100
AcDbEntity
  8
Layer_1
 62
7
100
AcDbSpline
 70
8
 71
3
 72
8
 73
4
 74
0
 40
0
 40
0
 40
0
 40
0
 40
1
 40
1
 40
1
 40
1
 10
221.950530
 20
50.457700
 30
0.0
 10
222.950370
 20
51.216220
 30
0.0
 10
223.589410
 20
52.841020
 30
0.0
 10
223.590640
 20
54.627780
 30
0.0
  0
SPLINE
  5
190
100
AcDbEntity
  8
Layer_1
 62
7
100
AcDbSpline
 70
8
 71
3
 72
8
 73
4
 74
0
 40
0
 40
0
 40
0
 40
0
 40
1
 40
1
 40
1
 40
1
 10
223.590640
 20
54.627780
 30
0.0
 10
223.589640
 20
56.414550
 30
0.0
 10
222.949780
 20
58.039070
 30
0.0
 10
221.949810
 20
58.797140
 30
0.0
  0
SPLINE
  5
191
100
AcDbEntity
  8
Layer_1
 62
7
100
AcDbSpline
 70
8
 71
3
 72
8
 73
4
 74
0
 40
0
 40
0
 40
0
 40
0
 40
1
 40
1
 40
1
 40
1
 10
221.949810
 20
58.797140
 30
0.0
 10
222.949930
 20
59.555320
 30
0.0
 10
223.589280
 20
61.180190
 30
0.0
 10
223.590640
 20
62.967220
 30
0.0
  0
SPLINE
  5
192
100
AcDbEntity
  8
Layer_1
 62
7
100
AcDbSpline
 70
8
 71
3
 72
8
 73
4
 74
0
 40
0
 40
0
 40
0
 40
0
 40
1
 40
1
 40
1
 40
1
 10
223.590640
 20
62.967220
 30
0.0
 10
223.589640
 20
64.753990
 30
0.0
 10
222.949780
 20
66.378510
 30
0.0
 10
221.949810
 20
67.136580
 30
0.0
  0
SPLINE
  5
193
100
AcDbEntity
  8
Layer_1
 62
7
100
AcDbSpline
 70
8
 71
3
 72
8
 73
4
 74
0
 40
0
 40
0
 40
0
 40
0
 40
1
 40
1
 40
1
 40
1
 10
221.949810
 20
67.136580
 30
0.0
 10
222.950070
 20
67.894870
 30
0.0
 10
223.589450
 20
69.520090
 30
0.0
 10
223.590640
 20
71.307380
 30
0.0
  0
SPLINE
  5
194
100
AcDbEntity
  8
Layer_1
 62
7
100
AcDbSpline
 70
8
 71
3
 72
8
 73
4
 74
0
 40
0
 40
0
 40
0
 40
0
 40
1
 40
1
 40
1
 40
1
 10
223.590640
 20
71.307380
 30
0.0
 10
223.588640
 20
73.093890
 30
0.0
 10
222.949640
 20
74.718060
 30
0.0
 10
221.949810
 20
75.476020
 30
0.0
  0
SPLINE
  5
195
100
AcDbEntity
  8
Layer_1
 62
7
100
AcDbSpline
 70
8
 71
3
 72
8
 73
4
 74
0
 40
0
 40
0
 40
0
 40
0
 40
1
 40
1
 40
1
 40
1
 10
221.949810
 20
75.476020
 30
0.0
 10
222.950070
 20
76.234310
 30
0.0
 10
223.589450
 20
77.859530
 30
0.0
 10
223.590640
 20
79.646820
 30
0.0
  0
SPLINE
  5
196
100
AcDbEntity
  8
Layer_1
 62
7
100
AcDbSpline
 70
8
 71
3
 72
8
 73
4
 74
0
 40
0
 40
0
 40
0
 40
0
 40
1
 40
1
 40
1
 40
1
 10
223.590640
 20
79.646820
 30
0.0
 10
223.589640
 20
81.433320
 30
0.0
 10
222.950220
 20
83.057770
 30
0.0
 10
221.950530
 20
83.816180
 30
0.0
  0
SPLINE
  5
197
100
AcDbEntity
  8
Layer_1
 62
7
100
AcDbSpline
 70
8
 71
3
 72
8
 73
4
 74
0
 40
0
 40
0
 40
0
 40
0
 40
1
 40
1
 40
1
 40
1
 10
221.950530
 20
83.816180
 30
0.0
 10
222.950370
 20
84.574700
 30
0.0
 10
223.589410
 20
86.199500
 30
0.0
 10
223.590640
 20
87.986260
 30
0.0
  0
SPLINE
  5
198
100
AcDbEntity
  8
Layer_1
 62
7
100
AcDbSpline
 70
8
 71
3
 72
8
 73
4
 74
0
 40
0
 40
0
 40
0
 40
0
 40
1
 40
1
 40
1
 40
1
 10
223.590640
 20
87.986260
 30
0.0
 10
223.589640
 20
89.773030
 30
0.0
 10
222.949780
 20
91.397550
 30
0.0
 10
221.949810
 20
92.155620
 30
0.0
  0
SPLINE
  5
199
100
AcDbEntity
  8
Layer_1
 62
7
100
AcDbSpline
 70
8
 71
3
 72
8
 73
4
 74
0
 40
0
 40
0
 40
0
 40
0
 40
1
 40
1
 40
1
 40
1
 10
221.949810
 20
92.155620
 30
0.0
 10
222.949930
 20
92.913800
 30
0.0
 10
223.589280
 20
94.538670
 30
0.0
 10
223.590640
 20
96.325700
 30
0.0
  0
SPLINE
  5
19a
100
AcDbEntity
  8
Layer_1
 62
7
100
AcDbSpline
 70
8
 71
3
 72
8
 73
4
 74
0
 40
0
 40
0
 40
0
 40
0
 40
1
 40
1
 40
1
 40
1
 10
223.590640
 20
96.325700
 30
0.0
 10
223.587640
 20
98.113020
 30
0.0
 10
222.947720
 20
99.737120
 30
0.0
 10
221.946910
 20
100.493610
 30
0.0
  0
SPLINE
  5
19b
100
AcDbEntity
  8
Layer_1
 62
7
100
AcDbSpline
 70
8
 71
3
 72
8
 73
4
 74
0
 40
0
 40
0
 40
0
 40
0
 40
1
 40
1
 40
1
 40
1
 10
221.946910
 20
100.493610
 30
0.0
 10
222.948600
 20
101.250760
 30
0.0
 10
223.589270
 20
102.876970
 30
0.0
 10
223.590640
 20
104.665860
 30
0.0
  0
SPLINE
  5
19c
100
AcDbEntity
  8
Layer_1
 62
7
100
AcDbSpline
 70
8
 71
3
 72
8
 73
4
 74
0
 40
0
 40
0
 40
0
 40
0
 40
1
 40
1
 40
1
 40
1
 10
223.590640
 20
104.665860
 30
0.0
 10
223.589640
 20
106.452360
 30
0.0
 10
222.950220
 20
108.076810
 30
0.0
 10
221.950530
 20
108.835220
 30
0.0
  0
SPLINE
  5
19d
100
AcDbEntity
  8
Layer_1
 62
7
100
AcDbSpline
 70
8
 71
3
 72
8
 73
4
 74
0
 40
0
 40
0
 40
0
 40
0
 40
1
 40
1
 40
1
 40
1
 10
221.950530
 20
108.835220
 30
0.0
 10
222.950370
 20
109.593740
 30
0.0
 10
223.589410
 20
111.218540
 30
0.0
 10
223.590640
 20
113.005300
 30
0.0
  0
SPLINE
  5
19e
100
AcDbEntity
  8
Layer_1
 62
7
100
AcDbSpline
 70
8
 71
3
 72
8
 73
4
 74
0
 40
0
 40
0
 40
0
 40
0
 40
1
 40
1
 40
1
 40
1
 10
223.590640
 20
113.005300
 30
0.0
 10
223.589640
 20
114.792070
 30
0.0
 10
222.949780
 20
116.416590
 30
0.0
 10
221.949810
 20
117.174660
 30
0.0
  0
SPLINE
  5
19f
100
AcDbEntity
  8
Layer_1
 62
7
100
AcDbSpline
 70
8
 71
3
 72
8
 73
4
 74
0
 40
0
 40
0
 40
0
 40
0
 40
1
 40
1
 40
1
 40
1
 10
221.949810
 20
117.174660
 30
0.0
 10
222.949930
 20
117.932840
 30
0.0
 10
223.589280
 20
119.557710
 30
0.0
 10
223.590640
 20
121.344740
 30
0.0
  0
SPLINE
  5
1a0
100
AcDbEntity
  8
Layer_1
 62
7
100
AcDbSpline
 70
8
 71
3
 72
8
 73
4
 74
0
 40
0
 40
0
 40
0
 40
0
 40
1
 40
1
 40
1
 40
1
 10
223.590640
 20
121.344740
 30
0.0
 10
223.589640
 20
123.131510
 30
0.0
 10
222.949780
 20
124.756030
 30
0.0
 10
221.949810
 20
125.514100
 30
0.0
  0
SPLINE
  5
1a1
100
AcDbEntity
  8
Layer_1
 62
7
100
AcDbSpline
 70
8
 71
3
 72
8
 73
4
 74
0
 40
0
 40
0
 40
0
 40
0
 40
1
 40
1
 40
1
 40
1
 10
221.949810
 20
125.514100
 30
0.0
 10
222.950070
 20
126.272390
 30
0.0
 10
223.589450
 20
127.897620
 30
0.0
 10
223.590640
 20
129.684910
 30
0.0
  0
SPLINE
  5
1a2
100
AcDbEntity
  8
Layer_1
 62
7
100
AcDbSpline
 70
8
 71
3
 72
8
 73
4
 74
0
 40
0
 40
0
 40
0
 40
0
 40
1
 40
1
 40
1
 40
1
 10
223.590640
 20
129.684910
 30
0.0
 10
223.589640
 20
131.471410
 30
0.0
 10
222.950220
 20
133.095850
 30
0.0
 10
221.950530
 20
133.854260
 30
0.0
  0
SPLINE
  5
1a3
100
AcDbEntity
  8
Layer_1
 62
7
100
AcDbSpline
 70
8
 71
3
 72
8
 73
4
 74
0
 40
0
 40
0
 40
0
 40
0
 40
1
 40
1
 40
1
 40
1
 10
221.950530
 20
133.854260
 30
0.0
 10
222.950370
 20
134.612780
 30
0.0
 10
223.589410
 20
136.237580
 30
0.0
 10
223.590640
 20
138.024340
 30
0.0
  0
SPLINE
  5
1a4
100
AcDbEntity
  8
Layer_1
 62
7
100
AcDbSpline
 70
8
 71
3
 72
8
 73
4
 74
0
 40
0
 40
0
 40
0
 40
0
 40
1
 40
1
 40
1
 40
1
 10
223.590640
 20
138.024340
 30
0.0
 10
223.589640
 20
139.811110
 30
0.0
 10
222.949780
 20
141.435630
 30
0.0
 10
221.949810
 20
142.193700
 30
0.0
  0
SPLINE
  5
1a5
100
AcDbEntity
  8
Layer_1
 62
7
100
AcDbSpline
 70
8
 71
3
 72
8
 73
4
 74
0
 40
0
 40
0
 40
0
 40
0
 40
1
 40
1
 40
1
 40
1
 10
221.949810
 20
142.193700
 30
0.0
 10
222.949930
 20
142.951880
 30
0.0
 10
223.589280
 20
144.576760
 30
0.0
 10
223.590640
 20
146.363790
 30
0.0
  0
SPLINE
  5
1a6
100
AcDbEntity
  8
Layer_1
 62
7
100
AcDbSpline
 70
8
 71
3
 72
8
 73
4
 74
0
 40
0
 40
0
 40
0
 40
0
 40
1
 40
1
 40
1
 40
1
 10
223.590640
 20
146.363790
 30
0.0
 10
223.589640
 20
148.150550
 30
0.0
 10
222.949780
 20
149.775080
 30
0.0
 10
221.949810
 20
150.533140
 30
0.0
  0
SPLINE
  5
1a7
100
AcDbEntity
  8
Layer_1
 62
7
100
AcDbSpline
 70
8
 71
3
 72
8
 73
4
 74
0
 40
0
 40
0
 40
0
 40
0
 40
1
 40
1
 40
1
 40
1
 10
221.949810
 20
150.533140
 30
0.0
 10
222.950070
 20
151.291440
 30
0.0
 10
223.589450
 20
152.916660
 30
0.0
 10
223.590640
 20
154.703950
 30
0.0
  0
SPLINE
  5
1a8
100
AcDbEntity
  8
Layer_1
 62
7
100
AcDbSpline
 70
8
 71
3
 72
8
 73
4
 74
0
 40
0
 40
0
 40
0
 40
0
 40
1
 40
1
 40
1
 40
1
 10
223.590640
 20
154.703950
 30
0.0
 10
223.589640
 20
155.379210
 30
0.0
 10
223.496540
 20
156.045790
 30
0.0
 10
223.318620
 20
156.656590
 30
0.0
  0
SPLINE
  5
1a9
100
AcDbEntity
  8
Layer_1
 62
7
100
AcDbSpline
 70
8
 71
3
 72
8
 73
4
 74
0
 40
0
 40
0
 40
0
 40
0
 40
1
 40
1
 40
1
 40
1
 10
223.318620
 20
156.656590
 30
0.0
 10
225.029010
 20
156.112300
 30
0.0
 10
227.668020
 20
155.787300
 30
0.0
 10
228.929120
 20
155.786260
 30
0.0
  0
SPLINE
  5
1aa
100
AcDbEntity
  8
Layer_1
 62
7
100
AcDbSpline
 70
8
 71
3
 72
8
 73
4
 74
0
 40
0
 40
0
 40
0
 40
0
 40
1
 40
1
 40
1
 40
1
 10
228.929120
 20
155.786260
 30
0.0
 10
230.723350
 20
155.787000
 30
0.0
 10
232.348480
 20
156.440950
 30
0.0
 10
233.076060
 20
157.454580
 30
0.0
  0
SPLINE
  5
1ab
100
AcDbEntity
  8
Layer_1
 62
7
100
AcDbSpline
 70
8
 71
3
 72
8
 73
4
 74
0
 40
0
 40
0
 40
0
 40
0
 40
1
 40
1
 40
1
 40
1
 10
233.076060
 20
157.454580
 30
0.0
 10
233.803330
 20
156.441400
 30
0.0
 10
235.427370
 20
155.787690
 30
0.0
 10
237.220820
 20
155.786260
 30
0.0
  0
SPLINE
  5
1ac
100
AcDbEntity
  8
Layer_1
 62
7
100
AcDbSpline
 70
8
 71
3
 72
8
 73
4
 74
0
 40
0
 40
0
 40
0
 40
0
 40
1
 40
1
 40
1
 40
1
 10
237.220820
 20
155.786260
 30
0.0
 10
239.015040
 20
155.787000
 30
0.0
 10
240.640170
 20
156.440950
 30
0.0
 10
241.367750
 20
157.454580
 30
0.0
  0
SPLINE
  5
1ad
100
AcDbEntity
  8
Layer_1
 62
7
100
AcDbSpline
 70
8
 71
3
 72
8
 73
4
 74
0
 40
0
 40
0
 40
0
 40
0
 40
1
 40
1
 40
1
 40
1
 10
241.367750
 20
157.454580
 30
0.0
 10
242.094910
 20
156.441540
 30
0.0
 10
243.718610
 20
155.787870
 30
0.0
 10
245.511780
 20
155.786260
 30
0.0
  0
SPLINE
  5
1ae
100
AcDbEntity
  8
Layer_1
 62
7
100
AcDbSpline
 70
8
 71
3
 72
8
 73
4
 74
0
 40
0
 40
0
 40
0
 40
0
 40
1
 40
1
 40
1
 40
1
 10
245.511780
 20
155.786260
 30
0.0
 10
247.306010
 20
155.787000
 30
0.0
 10
248.931160
 20
156.440950
 30
0.0
 10
249.658710
 20
157.454580
 30
0.0
  0
SPLINE
  5
1af
100
AcDbEntity
  8
Layer_1
 62
7
100
AcDbSpline
 70
8
 71
3
 72
8
 73
4
 74
0
 40
0
 40
0
 40
0
 40
0
 40
1
 40
1
 40
1
 40
1
 10
249.658710
 20
157.454580
 30
0.0
 10
250.385970
 20
156.441400
 30
0.0
 10
252.010030
 20
155.787700
 30
0.0
 10
253.803470
 20
155.786260
 30
0.0
  0
SPLINE
  5
1b0
100
AcDbEntity
  8
Layer_1
 62
7
100
AcDbSpline
 70
8
 71
3
 72
8
 73
4
 74
0
 40
0
 40
0
 40
0
 40
0
 40
1
 40
1
 40
1
 40
1
 10
253.803470
 20
155.786260
 30
0.0
 10
255.597700
 20
155.787000
 30
0.0
 10
257.222820
 20
156.440950
 30
0.0
 10
257.950400
 20
157.454580
 30
0.0
  0
SPLINE
  5
1b1
100
AcDbEntity
  8
Layer_1
 62
7
100
AcDbSpline
 70
8
 71
3
 72
8
 73
4
 74
0
 40
0
 40
0
 40
0
 40
0
 40
1
 40
1
 40
1
 40
1
 10
257.950400
 20
157.454580
 30
0.0
 10
258.677560
 20
156.441550
 30
0.0
 10
260.301260
 20
155.787870
 30
0.0
 10
262.094440
 20
155.786260
 30
0.0
  0
SPLINE
  5
1b2
100
AcDbEntity
  8
Layer_1
 62
7
100
AcDbSpline
 70
8
 71
3
 72
8
 73
4
 74
0
 40
0
 40
0
 40
0
 40
0
 40
1
 40
1
 40
1
 40
1
 10
262.094440
 20
155.786260
 30
0.0
 10
263.888670
 20
155.787000
 30
0.0
 10
265.513790
 20
156.440950
 30
0.0
 10
266.241370
 20
157.454580
 30
0.0
  0
SPLINE
  5
1b3
100
AcDbEntity
  8
Layer_1
 62
7
100
AcDbSpline
 70
8
 71
3
 72
8
 73
4
 74
0
 40
0
 40
0
 40
0
 40
0
 40
1
 40
1
 40
1
 40
1
 10
266.241370
 20
157.454580
 30
0.0
 10
266.968630
 20
156.441400
 30
0.0
 10
268.592690
 20
155.787700
 30
0.0
 10
270.386130
 20
155.786260
 30
0.0
  0
SPLINE
  5
1b4
100
AcDbEntity
  8
Layer_1
 62
7
100
AcDbSpline
 70
8
 71
3
 72
8
 73
4
 74
0
 40
0
 40
0
 40
0
 40
0
 40
1
 40
1
 40
1
 40
1
 10
270.386130
 20
155.786260
 30
0.0
 10
272.765500
 20
155.787260
 30
0.0
 10
274.739580
 20
156.924030
 30
0.0
 10
274.910710
 20
158.390750
 30
0.0
  0
LWPOLYLINE
  5
1b5
100
AcDbEntity
  8
Layer_1
 62
7
100
AcDbPolyline
 90
4
 70
0
 10
0.600530
 20
210.537755
 30
0.0
 10
0.000050
 20
210.537755
 30
0.0
 10
0.000050
 20
158.390750
 30
0.0
 10
0.533970
 20
158.390750
 30
0.0
  0
SPLINE
  5
1b6
100
AcDbEntity
  8
Layer_1
 62
7
100
AcDbSpline
 70
8
 71
3
 72
8
 73
4
 74
0
 40
0
 40
0
 40
0
 40
0
 40
1
 40
1
 40
1
 40
1
 10
274.848440
 20
210.537715
 30
0.0
 10
274.450200
 20
211.867445
 30
0.0
 10
272.574170
 20
212.832525
 30
0.0
 10
270.386080
 20
212.833285
 30
0.0
  0
SPLINE
  5
1b7
100
AcDbEntity
  8
Layer_1
 62
7
100
AcDbSpline
 70
8
 71
3
 72
8
 73
4
 74
0
 40
0
 40
0
 40
0
 40
0
 40
1
 40
1
 40
1
 40
1
 10
270.386080
 20
212.833285
 30
0.0
 10
268.591850
 20
212.832545
 30
0.0
 10
266.966730
 20
212.178595
 30
0.0
 10
266.239150
 20
211.164955
 30
0.0
  0
SPLINE
  5
1b8
100
AcDbEntity
  8
Layer_1
 62
7
100
AcDbSpline
 70
8
 71
3
 72
8
 73
4
 74
0
 40
0
 40
0
 40
0
 40
0
 40
1
 40
1
 40
1
 40
1
 10
266.239150
 20
211.164955
 30
0.0
 10
265.511890
 20
212.178145
 30
0.0
 10
263.887830
 20
212.831845
 30
0.0
 10
262.094390
 20
212.833285
 30
0.0
  0
SPLINE
  5
1b9
100
AcDbEntity
  8
Layer_1
 62
7
100
AcDbSpline
 70
8
 71
3
 72
8
 73
4
 74
0
 40
0
 40
0
 40
0
 40
0
 40
1
 40
1
 40
1
 40
1
 10
262.094390
 20
212.833285
 30
0.0
 10
260.300430
 20
212.832285
 30
0.0
 10
258.675670
 20
212.178435
 30
0.0
 10
257.948180
 20
211.164955
 30
0.0
  0
SPLINE
  5
1ba
100
AcDbEntity
  8
Layer_1
 62
7
100
AcDbSpline
 70
8
 71
3
 72
8
 73
4
 74
0
 40
0
 40
0
 40
0
 40
0
 40
1
 40
1
 40
1
 40
1
 10
257.948180
 20
211.164955
 30
0.0
 10
257.220910
 20
212.178145
 30
0.0
 10
255.596870
 20
212.831845
 30
0.0
 10
253.803420
 20
212.833285
 30
0.0
  0
SPLINE
  5
1bb
100
AcDbEntity
  8
Layer_1
 62
7
100
AcDbSpline
 70
8
 71
3
 72
8
 73
4
 74
0
 40
0
 40
0
 40
0
 40
0
 40
1
 40
1
 40
1
 40
1
 10
253.803420
 20
212.833285
 30
0.0
 10
252.009200
 20
212.832545
 30
0.0
 10
250.384070
 20
212.178585
 30
0.0
 10
249.656490
 20
211.164955
 30
0.0
  0
SPLINE
  5
1bc
100
AcDbEntity
  8
Layer_1
 62
7
100
AcDbSpline
 70
8
 71
3
 72
8
 73
4
 74
0
 40
0
 40
0
 40
0
 40
0
 40
1
 40
1
 40
1
 40
1
 10
249.656490
 20
211.164955
 30
0.0
 10
248.929230
 20
212.178145
 30
0.0
 10
247.305170
 20
212.831845
 30
0.0
 10
245.511730
 20
212.833285
 30
0.0
  0
SPLINE
  5
1bd
100
AcDbEntity
  8
Layer_1
 62
7
100
AcDbSpline
 70
8
 71
3
 72
8
 73
4
 74
0
 40
0
 40
0
 40
0
 40
0
 40
1
 40
1
 40
1
 40
1
 10
245.511730
 20
212.833285
 30
0.0
 10
243.717770
 20
212.832545
 30
0.0
 10
242.092730
 20
212.179035
 30
0.0
 10
241.364800
 20
211.165685
 30
0.0
  0
SPLINE
  5
1be
100
AcDbEntity
  8
Layer_1
 62
7
100
AcDbSpline
 70
8
 71
3
 72
8
 73
4
 74
0
 40
0
 40
0
 40
0
 40
0
 40
1
 40
1
 40
1
 40
1
 10
241.364800
 20
211.165685
 30
0.0
 10
240.637290
 20
212.178435
 30
0.0
 10
239.013660
 20
212.831795
 30
0.0
 10
237.220770
 20
212.833285
 30
0.0
  0
SPLINE
  5
1bf
100
AcDbEntity
  8
Layer_1
 62
7
100
AcDbSpline
 70
8
 71
3
 72
8
 73
4
 74
0
 40
0
 40
0
 40
0
 40
0
 40
1
 40
1
 40
1
 40
1
 10
237.220770
 20
212.833285
 30
0.0
 10
235.426540
 20
212.832545
 30
0.0
 10
233.801420
 20
212.178595
 30
0.0
 10
233.073840
 20
211.164955
 30
0.0
  0
SPLINE
  5
1c0
100
AcDbEntity
  8
Layer_1
 62
7
100
AcDbSpline
 70
8
 71
3
 72
8
 73
4
 74
0
 40
0
 40
0
 40
0
 40
0
 40
1
 40
1
 40
1
 40
1
 10
233.073840
 20
211.164955
 30
0.0
 10
232.346580
 20
212.178145
 30
0.0
 10
230.722520
 20
212.831845
 30
0.0
 10
228.929070
 20
212.833285
 30
0.0
  0
SPLINE
  5
1c1
100
AcDbEntity
  8
Layer_1
 62
7
100
AcDbSpline
 70
8
 71
3
 72
8
 73
4
 74
0
 40
0
 40
0
 40
0
 40
0
 40
1
 40
1
 40
1
 40
1
 10
228.929070
 20
212.833285
 30
0.0
 10
227.134850
 20
212.832545
 30
0.0
 10
225.509720
 20
212.178585
 30
0.0
 10
224.782140
 20
211.164955
 30
0.0
  0
SPLINE
  5
1c2
100
AcDbEntity
  8
Layer_1
 62
7
100
AcDbSpline
 70
8
 71
3
 72
8
 73
4
 74
0
 40
0
 40
0
 40
0
 40
0
 40
1
 40
1
 40
1
 40
1
 10
224.782140
 20
211.164955
 30
0.0
 10
224.496340
 20
211.562985
 30
0.0
 10
224.064510
 20
211.907205
 30
0.0
 10
223.534880
 20
212.179995
 30
0.0
  0
SPLINE
  5
1c3
100
AcDbEntity
  8
Layer_1
 62
7
100
AcDbSpline
 70
8
 71
3
 72
8
 73
4
 74
0
 40
0
 40
0
 40
0
 40
0
 40
1
 40
1
 40
1
 40
1
 10
223.534880
 20
212.179995
 30
0.0
 10
223.571680
 20
212.476785
 30
0.0
 10
223.590380
 20
212.778725
 30
0.0
 10
223.590580
 20
213.081435
 30
0.0
  0
SPLINE
  5
1c4
100
AcDbEntity
  8
Layer_1
 62
7
100
AcDbSpline
 70
8
 71
3
 72
8
 73
4
 74
0
 40
0
 40
0
 40
0
 40
0
 40
1
 40
1
 40
1
 40
1
 10
223.590580
 20
213.081435
 30
0.0
 10
223.589580
 20
214.813885
 30
0.0
 10
222.987840
 20
216.398918
 30
0.0
 10
222.033670
 20
217.184957
 30
0.0
  0
LWPOLYLINE
  5
1c5
100
AcDbEntity
  8
Layer_1
 62
7
100
AcDbPolyline
 90
4
 70
0
 10
274.910710
 20
158.390750
 30
0.0
 10
275.448200
 20
158.390750
 30
0.0
 10
275.448200
 20
210.537715
 30
0.0
 10
274.848440
 20
210.537715
 30
0.0
  0
SPLINE
  5
1c6
100
AcDbEntity
  8
Layer_1
 62
7
100
AcDbSpline
 70
8
 71
3
 72
8
 73
4
 74
0
 40
0
 40
0
 40
0
 40
0
 40
1
 40
1
 40
1
 40
1
 10
222.033670
 20
217.310839
 30
0.0
 10
222.989130
 20
218.097941
 30
0.0
 10
223.590720
 20
219.686080
 30
0.0
 10
223.590580
 20
221.420871
 30
0.0
  0
SPLINE
  5
1c7
100
AcDbEntity
  8
Layer_1
 62
7
100
AcDbSpline
 70
8
 71
3
 72
8
 73
4
 74
0
 40
0
 40
0
 40
0
 40
0
 40
1
 40
1
 40
1
 40
1
 10
223.590580
 20
221.420871
 30
0.0
 10
223.589580
 20
223.153580
 30
0.0
 10
222.987980
 20
224.738960
 30
0.0
 10
222.033670
 20
225.525118
 30
0.0
  0
LWPOLYLINE
  5
1c8
100
AcDbEntity
  8
Layer_1
 62
7
100
AcDbPolyline
 90
2
 70
0
 10
222.033670
 20
217.184957
 30
0.0
 10
222.033670
 20
217.310839
 30
0.0
  0
SPLINE
  5
1c9
100
AcDbEntity
  8
Layer_1
 62
7
100
AcDbSpline
 70
8
 71
3
 72
8
 73
4
 74
0
 40
0
 40
0
 40
0
 40
0
 40
1
 40
1
 40
1
 40
1
 10
222.033670
 20
225.651000
 30
0.0
 10
222.988980
 20
226.437983
 30
0.0
 10
223.590550
 20
228.025778
 30
0.0
 10
223.590580
 20
229.760310
 30
0.0
  0
SPLINE
  5
1ca
100
AcDbEntity
  8
Layer_1
 62
7
100
AcDbSpline
 70
8
 71
3
 72
8
 73
4
 74
0
 40
0
 40
0
 40
0
 40
0
 40
1
 40
1
 40
1
 40
1
 10
223.590580
 20
229.760310
 30
0.0
 10
223.589580
 20
231.493019
 30
0.0
 10
222.987980
 20
233.078399
 30
0.0
 10
222.033670
 20
233.864556
 30
0.0
  0
LWPOLYLINE
  5
1cb
100
AcDbEntity
  8
Layer_1
 62
7
100
AcDbPolyline
 90
2
 70
0
 10
222.033670
 20
225.525118
 30
0.0
 10
222.033670
 20
225.651000
 30
0.0
  0
SPLINE
  5
1cc
100
AcDbEntity
  8
Layer_1
 62
7
100
AcDbSpline
 70
8
 71
3
 72
8
 73
4
 74
0
 40
0
 40
0
 40
0
 40
0
 40
1
 40
1
 40
1
 40
1
 10
222.033670
 20
233.990442
 30
0.0
 10
222.989130
 20
234.777544
 30
0.0
 10
223.590720
 20
236.365683
 30
0.0
 10
223.590580
 20
238.100474
 30
0.0
  0
SPLINE
  5
1cd
100
AcDbEntity
  8
Layer_1
 62
7
100
AcDbSpline
 70
8
 71
3
 72
8
 73
4
 74
0
 40
0
 40
0
 40
0
 40
0
 40
1
 40
1
 40
1
 40
1
 10
223.590580
 20
238.100474
 30
0.0
 10
223.589580
 20
239.832924
 30
0.0
 10
222.987840
 20
241.417956
 30
0.0
 10
222.033670
 20
242.203995
 30
0.0
  0
LWPOLYLINE
  5
1ce
100
AcDbEntity
  8
Layer_1
 62
7
100
AcDbPolyline
 90
2
 70
0
 10
222.033670
 20
233.864556
 30
0.0
 10
222.033670
 20
233.990442
 30
0.0
  0
SPLINE
  5
1cf
100
AcDbEntity
  8
Layer_1
 62
7
100
AcDbSpline
 70
8
 71
3
 72
8
 73
4
 74
0
 40
0
 40
0
 40
0
 40
0
 40
1
 40
1
 40
1
 40
1
 10
222.033670
 20
242.329881
 30
0.0
 10
222.989130
 20
243.116983
 30
0.0
 10
223.590720
 20
244.705122
 30
0.0
 10
223.590580
 20
246.439913
 30
0.0
  0
SPLINE
  5
1d0
100
AcDbEntity
  8
Layer_1
 62
7
100
AcDbSpline
 70
8
 71
3
 72
8
 73
4
 74
0
 40
0
 40
0
 40
0
 40
0
 40
1
 40
1
 40
1
 40
1
 10
223.590580
 20
246.439913
 30
0.0
 10
223.589580
 20
248.172622
 30
0.0
 10
222.987980
 20
249.758002
 30
0.0
 10
222.033670
 20
250.544159
 30
0.0
  0
LWPOLYLINE
  5
1d1
100
AcDbEntity
  8
Layer_1
 62
7
100
AcDbPolyline
 90
2
 70
0
 10
222.033670
 20
242.203995
 30
0.0
 10
222.033670
 20
242.329881
 30
0.0
  0
SPLINE
  5
1d2
100
AcDbEntity
  8
Layer_1
 62
7
100
AcDbSpline
 70
8
 71
3
 72
8
 73
4
 74
0
 40
0
 40
0
 40
0
 40
0
 40
1
 40
1
 40
1
 40
1
 10
222.033670
 20
250.670042
 30
0.0
 10
222.988980
 20
251.457025
 30
0.0
 10
223.590550
 20
253.044820
 30
0.0
 10
223.590580
 20
254.779351
 30
0.0
  0
SPLINE
  5
1d3
100
AcDbEntity
  8
Layer_1
 62
7
100
AcDbSpline
 70
8
 71
3
 72
8
 73
4
 74
0
 40
0
 40
0
 40
0
 40
0
 40
1
 40
1
 40
1
 40
1
 10
223.590580
 20
254.779351
 30
0.0
 10
223.589580
 20
256.512061
 30
0.0
 10
222.987980
 20
258.097440
 30
0.0
 10
222.033670
 20
258.883598
 30
0.0
  0
LWPOLYLINE
  5
1d4
100
AcDbEntity
  8
Layer_1
 62
7
100
AcDbPolyline
 90
2
 70
0
 10
222.033670
 20
250.544159
 30
0.0
 10
222.033670
 20
250.670042
 30
0.0
  0
SPLINE
  5
1d5
100
AcDbEntity
  8
Layer_1
 62
7
100
AcDbSpline
 70
8
 71
3
 72
8
 73
4
 74
0
 40
0
 40
0
 40
0
 40
0
 40
1
 40
1
 40
1
 40
1
 10
222.033670
 20
259.009484
 30
0.0
 10
222.316470
 20
259.244406
 30
0.0
 10
222.572980
 20
259.554226
 30
0.0
 10
222.792590
 20
259.926117
 30
0.0
  0
SPLINE
  5
1d6
100
AcDbEntity
  8
Layer_1
 62
7
100
AcDbSpline
 70
8
 71
3
 72
8
 73
4
 74
0
 40
0
 40
0
 40
0
 40
0
 40
1
 40
1
 40
1
 40
1
 10
222.792590
 20
259.926117
 30
0.0
 10
223.668590
 20
260.218546
 30
0.0
 10
224.374770
 20
260.680700
 30
0.0
 10
224.785750
 20
261.251516
 30
0.0
  0
SPLINE
  5
1d7
100
AcDbEntity
  8
Layer_1
 62
7
100
AcDbSpline
 70
8
 71
3
 72
8
 73
4
 74
0
 40
0
 40
0
 40
0
 40
0
 40
1
 40
1
 40
1
 40
1
 10
224.785750
 20
261.251516
 30
0.0
 10
225.512450
 20
260.238345
 30
0.0
 10
227.135880
 20
259.584385
 30
0.0
 10
228.929060
 20
259.582470
 30
0.0
  0
SPLINE
  5
1d8
100
AcDbEntity
  8
Layer_1
 62
7
100
AcDbSpline
 70
8
 71
3
 72
8
 73
4
 74
0
 40
0
 40
0
 40
0
 40
0
 40
1
 40
1
 40
1
 40
1
 10
228.929060
 20
259.582470
 30
0.0
 10
230.723290
 20
259.583211
 30
0.0
 10
232.348420
 20
260.237167
 30
0.0
 10
233.076000
 20
261.250794
 30
0.0
  0
SPLINE
  5
1d9
100
AcDbEntity
  8
Layer_1
 62
7
100
AcDbSpline
 70
8
 71
3
 72
8
 73
4
 74
0
 40
0
 40
0
 40
0
 40
0
 40
1
 40
1
 40
1
 40
1
 10
233.076000
 20
261.250794
 30
0.0
 10
233.803270
 20
260.237608
 30
0.0
 10
235.427310
 20
259.583904
 30
0.0
 10
237.220760
 20
259.582470
 30
0.0
  0
SPLINE
  5
1da
100
AcDbEntity
  8
Layer_1
 62
7
100
AcDbSpline
 70
8
 71
3
 72
8
 73
4
 74
0
 40
0
 40
0
 40
0
 40
0
 40
1
 40
1
 40
1
 40
1
 10
237.220760
 20
259.582470
 30
0.0
 10
239.014980
 20
259.583211
 30
0.0
 10
240.640110
 20
260.237167
 30
0.0
 10
241.367690
 20
261.250794
 30
0.0
  0
SPLINE
  5
1db
100
AcDbEntity
  8
Layer_1
 62
7
100
AcDbSpline
 70
8
 71
3
 72
8
 73
4
 74
0
 40
0
 40
0
 40
0
 40
0
 40
1
 40
1
 40
1
 40
1
 10
241.367690
 20
261.250794
 30
0.0
 10
242.094850
 20
260.237756
 30
0.0
 10
243.718550
 20
259.584082
 30
0.0
 10
245.511720
 20
259.582470
 30
0.0
  0
SPLINE
  5
1dc
100
AcDbEntity
  8
Layer_1
 62
7
100
AcDbSpline
 70
8
 71
3
 72
8
 73
4
 74
0
 40
0
 40
0
 40
0
 40
0
 40
1
 40
1
 40
1
 40
1
 10
245.511720
 20
259.582470
 30
0.0
 10
247.305950
 20
259.583211
 30
0.0
 10
248.931100
 20
260.237167
 30
0.0
 10
249.658650
 20
261.250794
 30
0.0
  0
SPLINE
  5
1dd
100
AcDbEntity
  8
Layer_1
 62
7
100
AcDbSpline
 70
8
 71
3
 72
8
 73
4
 74
0
 40
0
 40
0
 40
0
 40
0
 40
1
 40
1
 40
1
 40
1
 10
249.658650
 20
261.250794
 30
0.0
 10
250.385920
 20
260.237611
 30
0.0
 10
252.009970
 20
259.583904
 30
0.0
 10
253.803410
 20
259.582470
 30
0.0
  0
SPLINE
  5
1de
100
AcDbEntity
  8
Layer_1
 62
7
100
AcDbSpline
 70
8
 71
3
 72
8
 73
4
 74
0
 40
0
 40
0
 40
0
 40
0
 40
1
 40
1
 40
1
 40
1
 10
253.803410
 20
259.582470
 30
0.0
 10
255.597640
 20
259.583211
 30
0.0
 10
257.222750
 20
260.237163
 30
0.0
 10
257.950340
 20
261.250794
 30
0.0
  0
SPLINE
  5
1df
100
AcDbEntity
  8
Layer_1
 62
7
100
AcDbSpline
 70
8
 71
3
 72
8
 73
4
 74
0
 40
0
 40
0
 40
0
 40
0
 40
1
 40
1
 40
1
 40
1
 10
257.950340
 20
261.250794
 30
0.0
 10
258.677500
 20
260.237760
 30
0.0
 10
260.301200
 20
259.584082
 30
0.0
 10
262.094380
 20
259.582470
 30
0.0
  0
SPLINE
  5
1e0
100
AcDbEntity
  8
Layer_1
 62
7
100
AcDbSpline
 70
8
 71
3
 72
8
 73
4
 74
0
 40
0
 40
0
 40
0
 40
0
 40
1
 40
1
 40
1
 40
1
 10
262.094380
 20
259.582470
 30
0.0
 10
263.888610
 20
259.583211
 30
0.0
 10
265.513710
 20
260.237163
 30
0.0
 10
266.241310
 20
261.250794
 30
0.0
  0
SPLINE
  5
1e1
100
AcDbEntity
  8
Layer_1
 62
7
100
AcDbSpline
 70
8
 71
3
 72
8
 73
4
 74
0
 40
0
 40
0
 40
0
 40
0
 40
1
 40
1
 40
1
 40
1
 10
266.241310
 20
261.250794
 30
0.0
 10
266.968580
 20
260.237611
 30
0.0
 10
268.592630
 20
259.583904
 30
0.0
 10
270.386070
 20
259.582470
 30
0.0
  0
SPLINE
  5
1e2
100
AcDbEntity
  8
Layer_1
 62
7
100
AcDbSpline
 70
8
 71
3
 72
8
 73
4
 74
0
 40
0
 40
0
 40
0
 40
0
 40
1
 40
1
 40
1
 40
1
 10
270.386070
 20
259.582470
 30
0.0
 10
272.537930
 20
259.582781
 30
0.0
 10
274.393940
 20
260.516528
 30
0.0
 10
274.831070
 20
261.818716
 30
0.0
  0
LWPOLYLINE
  5
1e3
100
AcDbEntity
  8
Layer_1
 62
7
100
AcDbPolyline
 90
2
 70
0
 10
222.033670
 20
258.883598
 30
0.0
 10
222.033670
 20
259.009484
 30
0.0
  0
SPLINE
  5
1e4
100
AcDbEntity
  8
Layer_1
 62
7
100
AcDbSpline
 70
8
 71
3
 72
8
 73
4
 74
0
 40
0
 40
0
 40
0
 40
0
 40
1
 40
1
 40
1
 40
1
 10
274.926570
 20
309.769546
 30
0.0
 10
274.926570
 20
311.319383
 30
0.0
 10
272.893760
 20
312.575804
 30
0.0
 10
270.386070
 20
312.575887
 30
0.0
  0
SPLINE
  5
1e5
100
AcDbEntity
  8
Layer_1
 62
7
100
AcDbSpline
 70
8
 71
3
 72
8
 73
4
 74
0
 40
0
 40
0
 40
0
 40
0
 40
1
 40
1
 40
1
 40
1
 10
270.386070
 20
312.575887
 30
0.0
 10
268.591570
 20
312.574887
 30
0.0
 10
266.966370
 20
311.920754
 30
0.0
 10
266.239140
 20
310.906841
 30
0.0
  0
SPLINE
  5
1e6
100
AcDbEntity
  8
Layer_1
 62
7
100
AcDbSpline
 70
8
 71
3
 72
8
 73
4
 74
0
 40
0
 40
0
 40
0
 40
0
 40
1
 40
1
 40
1
 40
1
 10
266.239140
 20
310.906841
 30
0.0
 10
265.512230
 20
311.920307
 30
0.0
 10
263.888100
 20
312.574324
 30
0.0
 10
262.094380
 20
312.575887
 30
0.0
  0
SPLINE
  5
1e7
100
AcDbEntity
  8
Layer_1
 62
7
100
AcDbSpline
 70
8
 71
3
 72
8
 73
4
 74
0
 40
0
 40
0
 40
0
 40
0
 40
1
 40
1
 40
1
 40
1
 10
262.094380
 20
312.575887
 30
0.0
 10
260.300140
 20
312.574687
 30
0.0
 10
258.675300
 20
311.920602
 30
0.0
 10
257.948170
 20
310.906841
 30
0.0
  0
SPLINE
  5
1e8
100
AcDbEntity
  8
Layer_1
 62
7
100
AcDbSpline
 70
8
 71
3
 72
8
 73
4
 74
0
 40
0
 40
0
 40
0
 40
0
 40
1
 40
1
 40
1
 40
1
 10
257.948170
 20
310.906841
 30
0.0
 10
257.221250
 20
311.920310
 30
0.0
 10
255.597130
 20
312.574327
 30
0.0
 10
253.803410
 20
312.575887
 30
0.0
  0
SPLINE
  5
1e9
100
AcDbEntity
  8
Layer_1
 62
7
100
AcDbSpline
 70
8
 71
3
 72
8
 73
4
 74
0
 40
0
 40
0
 40
0
 40
0
 40
1
 40
1
 40
1
 40
1
 10
253.803410
 20
312.575887
 30
0.0
 10
252.008910
 20
312.574887
 30
0.0
 10
250.383710
 20
311.920751
 30
0.0
 10
249.656480
 20
310.906841
 30
0.0
  0
SPLINE
  5
1ea
100
AcDbEntity
  8
Layer_1
 62
7
100
AcDbSpline
 70
8
 71
3
 72
8
 73
4
 74
0
 40
0
 40
0
 40
0
 40
0
 40
1
 40
1
 40
1
 40
1
 10
249.656480
 20
310.906841
 30
0.0
 10
248.929570
 20
311.920307
 30
0.0
 10
247.305450
 20
312.574324
 30
0.0
 10
245.511720
 20
312.575887
 30
0.0
  0
SPLINE
  5
1eb
100
AcDbEntity
  8
Layer_1
 62
7
100
AcDbSpline
 70
8
 71
3
 72
8
 73
4
 74
0
 40
0
 40
0
 40
0
 40
0
 40
1
 40
1
 40
1
 40
1
 10
245.511720
 20
312.575887
 30
0.0
 10
243.717500
 20
312.574998
 30
0.0
 10
242.092370
 20
311.921194
 30
0.0
 10
241.364790
 20
310.907565
 30
0.0
  0
SPLINE
  5
1ec
100
AcDbEntity
  8
Layer_1
 62
7
100
AcDbSpline
 70
8
 71
3
 72
8
 73
4
 74
0
 40
0
 40
0
 40
0
 40
0
 40
1
 40
1
 40
1
 40
1
 10
241.364790
 20
310.907565
 30
0.0
 10
240.637630
 20
311.920599
 30
0.0
 10
239.013930
 20
312.574274
 30
0.0
 10
237.220760
 20
312.575887
 30
0.0
  0
SPLINE
  5
1ed
100
AcDbEntity
  8
Layer_1
 62
7
100
AcDbSpline
 70
8
 71
3
 72
8
 73
4
 74
0
 40
0
 40
0
 40
0
 40
0
 40
1
 40
1
 40
1
 40
1
 10
237.220760
 20
312.575887
 30
0.0
 10
235.426250
 20
312.574887
 30
0.0
 10
233.801050
 20
311.920754
 30
0.0
 10
233.073830
 20
310.906841
 30
0.0
  0
SPLINE
  5
1ee
100
AcDbEntity
  8
Layer_1
 62
7
100
AcDbSpline
 70
8
 71
3
 72
8
 73
4
 74
0
 40
0
 40
0
 40
0
 40
0
 40
1
 40
1
 40
1
 40
1
 10
233.073830
 20
310.906841
 30
0.0
 10
232.346920
 20
311.920307
 30
0.0
 10
230.722790
 20
312.574324
 30
0.0
 10
228.929060
 20
312.575887
 30
0.0
  0
SPLINE
  5
1ef
100
AcDbEntity
  8
Layer_1
 62
7
100
AcDbSpline
 70
8
 71
3
 72
8
 73
4
 74
0
 40
0
 40
0
 40
0
 40
0
 40
1
 40
1
 40
1
 40
1
 10
228.929060
 20
312.575887
 30
0.0
 10
227.134560
 20
312.574887
 30
0.0
 10
225.509370
 20
311.920751
 30
0.0
 10
224.782130
 20
310.906841
 30
0.0
  0
SPLINE
  5
1f0
100
AcDbEntity
  8
Layer_1
 62
7
100
AcDbSpline
 70
8
 71
3
 72
8
 73
4
 74
0
 40
0
 40
0
 40
0
 40
0
 40
1
 40
1
 40
1
 40
1
 10
224.782130
 20
310.906841
 30
0.0
 10
224.055330
 20
311.920161
 30
0.0
 10
222.431560
 20
312.574149
 30
0.0
 10
220.638100
 20
312.575887
 30
0.0
  0
SPLINE
  5
1f1
100
AcDbEntity
  8
Layer_1
 62
7
100
AcDbSpline
 70
8
 71
3
 72
8
 73
4
 74
0
 40
0
 40
0
 40
0
 40
0
 40
1
 40
1
 40
1
 40
1
 10
220.638100
 20
312.575887
 30
0.0
 10
218.843590
 20
312.574887
 30
0.0
 10
217.218400
 20
311.920751
 30
0.0
 10
216.491170
 20
310.906841
 30
0.0
  0
SPLINE
  5
1f2
100
AcDbEntity
  8
Layer_1
 62
7
100
AcDbSpline
 70
8
 71
3
 72
8
 73
4
 74
0
 40
0
 40
0
 40
0
 40
0
 40
1
 40
1
 40
1
 40
1
 10
216.491170
 20
310.906841
 30
0.0
 10
215.764260
 20
311.920307
 30
0.0
 10
214.140130
 20
312.574324
 30
0.0
 10
212.346410
 20
312.575887
 30
0.0
  0
SPLINE
  5
1f3
100
AcDbEntity
  8
Layer_1
 62
7
100
AcDbSpline
 70
8
 71
3
 72
8
 73
4
 74
0
 40
0
 40
0
 40
0
 40
0
 40
1
 40
1
 40
1
 40
1
 10
212.346410
 20
312.575887
 30
0.0
 10
210.551900
 20
312.574887
 30
0.0
 10
208.926710
 20
311.920754
 30
0.0
 10
208.199480
 20
310.906841
 30
0.0
  0
SPLINE
  5
1f4
100
AcDbEntity
  8
Layer_1
 62
7
100
AcDbSpline
 70
8
 71
3
 72
8
 73
4
 74
0
 40
0
 40
0
 40
0
 40
0
 40
1
 40
1
 40
1
 40
1
 10
208.199480
 20
310.906841
 30
0.0
 10
207.472670
 20
311.920158
 30
0.0
 10
205.848900
 20
312.574147
 30
0.0
 10
204.055440
 20
312.575887
 30
0.0
  0
SPLINE
  5
1f5
100
AcDbEntity
  8
Layer_1
 62
7
100
AcDbSpline
 70
8
 71
3
 72
8
 73
4
 74
0
 40
0
 40
0
 40
0
 40
0
 40
1
 40
1
 40
1
 40
1
 10
204.055440
 20
312.575887
 30
0.0
 10
202.260940
 20
312.574887
 30
0.0
 10
200.635740
 20
311.920751
 30
0.0
 10
199.908510
 20
310.906841
 30
0.0
  0
SPLINE
  5
1f6
100
AcDbEntity
  8
Layer_1
 62
7
100
AcDbSpline
 70
8
 71
3
 72
8
 73
4
 74
0
 40
0
 40
0
 40
0
 40
0
 40
1
 40
1
 40
1
 40
1
 10
199.908510
 20
310.906841
 30
0.0
 10
199.181590
 20
311.920310
 30
0.0
 10
197.557470
 20
312.574327
 30
0.0
 10
195.763750
 20
312.575887
 30
0.0
  0
SPLINE
  5
1f7
100
AcDbEntity
  8
Layer_1
 62
7
100
AcDbSpline
 70
8
 71
3
 72
8
 73
4
 74
0
 40
0
 40
0
 40
0
 40
0
 40
1
 40
1
 40
1
 40
1
 10
195.763750
 20
312.575887
 30
0.0
 10
193.969250
 20
312.574887
 30
0.0
 10
192.344050
 20
311.920751
 30
0.0
 10
191.616820
 20
310.906841
 30
0.0
  0
SPLINE
  5
1f8
100
AcDbEntity
  8
Layer_1
 62
7
100
AcDbSpline
 70
8
 71
3
 72
8
 73
4
 74
0
 40
0
 40
0
 40
0
 40
0
 40
1
 40
1
 40
1
 40
1
 10
191.616820
 20
310.906841
 30
0.0
 10
190.889910
 20
311.920307
 30
0.0
 10
189.265790
 20
312.574324
 30
0.0
 10
187.472060
 20
312.575887
 30
0.0
  0
SPLINE
  5
1f9
100
AcDbEntity
  8
Layer_1
 62
7
100
AcDbSpline
 70
8
 71
3
 72
8
 73
4
 74
0
 40
0
 40
0
 40
0
 40
0
 40
1
 40
1
 40
1
 40
1
 10
187.472060
 20
312.575887
 30
0.0
 10
185.677820
 20
312.574687
 30
0.0
 10
184.052990
 20
311.920605
 30
0.0
 10
183.325850
 20
310.906841
 30
0.0
  0
SPLINE
  5
1fa
100
AcDbEntity
  8
Layer_1
 62
7
100
AcDbSpline
 70
8
 71
3
 72
8
 73
4
 74
0
 40
0
 40
0
 40
0
 40
0
 40
1
 40
1
 40
1
 40
1
 10
183.325850
 20
310.906841
 30
0.0
 10
182.598950
 20
311.920307
 30
0.0
 10
180.974820
 20
312.574324
 30
0.0
 10
179.181100
 20
312.575887
 30
0.0
  0
SPLINE
  5
1fb
100
AcDbEntity
  8
Layer_1
 62
7
100
AcDbSpline
 70
8
 71
3
 72
8
 73
4
 74
0
 40
0
 40
0
 40
0
 40
0
 40
1
 40
1
 40
1
 40
1
 10
179.181100
 20
312.575887
 30
0.0
 10
177.386590
 20
312.574887
 30
0.0
 10
175.761390
 20
311.920754
 30
0.0
 10
175.034170
 20
310.906841
 30
0.0
  0
SPLINE
  5
1fc
100
AcDbEntity
  8
Layer_1
 62
7
100
AcDbSpline
 70
8
 71
3
 72
8
 73
4
 74
0
 40
0
 40
0
 40
0
 40
0
 40
1
 40
1
 40
1
 40
1
 10
175.034170
 20
310.906841
 30
0.0
 10
174.307260
 20
311.920307
 30
0.0
 10
172.683130
 20
312.574324
 30
0.0
 10
170.889400
 20
312.575887
 30
0.0
  0
SPLINE
  5
1fd
100
AcDbEntity
  8
Layer_1
 62
7
100
AcDbSpline
 70
8
 71
3
 72
8
 73
4
 74
0
 40
0
 40
0
 40
0
 40
0
 40
1
 40
1
 40
1
 40
1
 10
170.889400
 20
312.575887
 30
0.0
 10
169.095180
 20
312.574998
 30
0.0
 10
167.470050
 20
311.921192
 30
0.0
 10
166.742470
 20
310.907565
 30
0.0
  0
SPLINE
  5
1fe
100
AcDbEntity
  8
Layer_1
 62
7
100
AcDbSpline
 70
8
 71
3
 72
8
 73
4
 74
0
 40
0
 40
0
 40
0
 40
0
 40
1
 40
1
 40
1
 40
1
 10
166.742470
 20
310.907565
 30
0.0
 10
166.015320
 20
311.920602
 30
0.0
 10
164.391610
 20
312.574277
 30
0.0
 10
162.598440
 20
312.575887
 30
0.0
  0
SPLINE
  5
1ff
100
AcDbEntity
  8
Layer_1
 62
7
100
AcDbSpline
 70
8
 71
3
 72
8
 73
4
 74
0
 40
0
 40
0
 40
0
 40
0
 40
1
 40
1
 40
1
 40
1
 10
162.598440
 20
312.575887
 30
0.0
 10
160.803930
 20
312.574887
 30
0.0
 10
159.178740
 20
311.920751
 30
0.0
 10
158.451510
 20
310.906841
 30
0.0
  0
SPLINE
  5
200
100
AcDbEntity
  8
Layer_1
 62
7
100
AcDbSpline
 70
8
 71
3
 72
8
 73
4
 74
0
 40
0
 40
0
 40
0
 40
0
 40
1
 40
1
 40
1
 40
1
 10
158.451510
 20
310.906841
 30
0.0
 10
157.724600
 20
311.920307
 30
0.0
 10
156.100470
 20
312.574324
 30
0.0
 10
154.306750
 20
312.575887
 30
0.0
  0
SPLINE
  5
201
100
AcDbEntity
  8
Layer_1
 62
7
100
AcDbSpline
 70
8
 71
3
 72
8
 73
4
 74
0
 40
0
 40
0
 40
0
 40
0
 40
1
 40
1
 40
1
 40
1
 10
154.306750
 20
312.575887
 30
0.0
 10
152.512240
 20
312.574887
 30
0.0
 10
150.887050
 20
311.920754
 30
0.0
 10
150.159820
 20
310.906841
 30
0.0
  0
SPLINE
  5
202
100
AcDbEntity
  8
Layer_1
 62
7
100
AcDbSpline
 70
8
 71
3
 72
8
 73
4
 74
0
 40
0
 40
0
 40
0
 40
0
 40
1
 40
1
 40
1
 40
1
 10
150.159820
 20
310.906841
 30
0.0
 10
149.433010
 20
311.920158
 30
0.0
 10
147.809240
 20
312.574147
 30
0.0
 10
146.015780
 20
312.575887
 30
0.0
  0
SPLINE
  5
203
100
AcDbEntity
  8
Layer_1
 62
7
100
AcDbSpline
 70
8
 71
3
 72
8
 73
4
 74
0
 40
0
 40
0
 40
0
 40
0
 40
1
 40
1
 40
1
 40
1
 10
146.015780
 20
312.575887
 30
0.0
 10
144.221270
 20
312.574887
 30
0.0
 10
142.596080
 20
311.920754
 30
0.0
 10
141.868850
 20
310.906841
 30
0.0
  0
SPLINE
  5
204
100
AcDbEntity
  8
Layer_1
 62
7
100
AcDbSpline
 70
8
 71
3
 72
8
 73
4
 74
0
 40
0
 40
0
 40
0
 40
0
 40
1
 40
1
 40
1
 40
1
 10
141.868850
 20
310.906841
 30
0.0
 10
141.141940
 20
311.920307
 30
0.0
 10
139.517810
 20
312.574324
 30
0.0
 10
137.724090
 20
312.575887
 30
0.0
  0
SPLINE
  5
205
100
AcDbEntity
  8
Layer_1
 62
7
100
AcDbSpline
 70
8
 71
3
 72
8
 73
4
 74
0
 40
0
 40
0
 40
0
 40
0
 40
1
 40
1
 40
1
 40
1
 10
137.724090
 20
312.575887
 30
0.0
 10
135.929590
 20
312.574887
 30
0.0
 10
134.304390
 20
311.920754
 30
0.0
 10
133.577160
 20
310.906841
 30
0.0
  0
SPLINE
  5
206
100
AcDbEntity
  8
Layer_1
 62
7
100
AcDbSpline
 70
8
 71
3
 72
8
 73
4
 74
0
 40
0
 40
0
 40
0
 40
0
 40
1
 40
1
 40
1
 40
1
 10
133.577160
 20
310.906841
 30
0.0
 10
132.850350
 20
311.920158
 30
0.0
 10
131.226580
 20
312.574147
 30
0.0
 10
129.433130
 20
312.575887
 30
0.0
  0
SPLINE
  5
207
100
AcDbEntity
  8
Layer_1
 62
7
100
AcDbSpline
 70
8
 71
3
 72
8
 73
4
 74
0
 40
0
 40
0
 40
0
 40
0
 40
1
 40
1
 40
1
 40
1
 10
129.433130
 20
312.575887
 30
0.0
 10
127.638610
 20
312.574887
 30
0.0
 10
126.013420
 20
311.920751
 30
0.0
 10
125.286190
 20
310.906841
 30
0.0
  0
SPLINE
  5
208
100
AcDbEntity
  8
Layer_1
 62
7
100
AcDbSpline
 70
8
 71
3
 72
8
 73
4
 74
0
 40
0
 40
0
 40
0
 40
0
 40
1
 40
1
 40
1
 40
1
 10
125.286190
 20
310.906841
 30
0.0
 10
124.559270
 20
311.920310
 30
0.0
 10
122.935160
 20
312.574327
 30
0.0
 10
121.141430
 20
312.575887
 30
0.0
  0
SPLINE
  5
209
100
AcDbEntity
  8
Layer_1
 62
7
100
AcDbSpline
 70
8
 71
3
 72
8
 73
4
 74
0
 40
0
 40
0
 40
0
 40
0
 40
1
 40
1
 40
1
 40
1
 10
121.141430
 20
312.575887
 30
0.0
 10
119.346930
 20
312.574887
 30
0.0
 10
117.721730
 20
311.920751
 30
0.0
 10
116.994510
 20
310.906841
 30
0.0
  0
SPLINE
  5
20a
100
AcDbEntity
  8
Layer_1
 62
7
100
AcDbSpline
 70
8
 71
3
 72
8
 73
4
 74
0
 40
0
 40
0
 40
0
 40
0
 40
1
 40
1
 40
1
 40
1
 10
116.994510
 20
310.906841
 30
0.0
 10
116.267600
 20
311.920307
 30
0.0
 10
114.643470
 20
312.574324
 30
0.0
 10
112.849740
 20
312.575887
 30
0.0
  0
SPLINE
  5
20b
100
AcDbEntity
  8
Layer_1
 62
7
100
AcDbSpline
 70
8
 71
3
 72
8
 73
4
 74
0
 40
0
 40
0
 40
0
 40
0
 40
1
 40
1
 40
1
 40
1
 10
112.849740
 20
312.575887
 30
0.0
 10
111.055500
 20
312.574687
 30
0.0
 10
109.430650
 20
311.920605
 30
0.0
 10
108.703540
 20
310.906841
 30
0.0
  0
SPLINE
  5
20c
100
AcDbEntity
  8
Layer_1
 62
7
100
AcDbSpline
 70
8
 71
3
 72
8
 73
4
 74
0
 40
0
 40
0
 40
0
 40
0
 40
1
 40
1
 40
1
 40
1
 10
108.703540
 20
310.906841
 30
0.0
 10
107.976630
 20
311.920307
 30
0.0
 10
106.352500
 20
312.574324
 30
0.0
 10
104.558780
 20
312.575887
 30
0.0
  0
SPLINE
  5
20d
100
AcDbEntity
  8
Layer_1
 62
7
100
AcDbSpline
 70
8
 71
3
 72
8
 73
4
 74
0
 40
0
 40
0
 40
0
 40
0
 40
1
 40
1
 40
1
 40
1
 10
104.558780
 20
312.575887
 30
0.0
 10
102.764270
 20
312.574887
 30
0.0
 10
101.139080
 20
311.920751
 30
0.0
 10
100.411850
 20
310.906841
 30
0.0
  0
SPLINE
  5
20e
100
AcDbEntity
  8
Layer_1
 62
7
100
AcDbSpline
 70
8
 71
3
 72
8
 73
4
 74
0
 40
0
 40
0
 40
0
 40
0
 40
1
 40
1
 40
1
 40
1
 10
100.411850
 20
310.906841
 30
0.0
 10
99.684929
 20
311.920310
 30
0.0
 10
98.060809
 20
312.574327
 30
0.0
 10
96.267089
 20
312.575887
 30
0.0
  0
SPLINE
  5
20f
100
AcDbEntity
  8
Layer_1
 62
7
100
AcDbSpline
 70
8
 71
3
 72
8
 73
4
 74
0
 40
0
 40
0
 40
0
 40
0
 40
1
 40
1
 40
1
 40
1
 10
96.267089
 20
312.575887
 30
0.0
 10
94.472859
 20
312.574998
 30
0.0
 10
92.847739
 20
311.921192
 30
0.0
 10
92.120149
 20
310.907565
 30
0.0
  0
SPLINE
  5
210
100
AcDbEntity
  8
Layer_1
 62
7
100
AcDbSpline
 70
8
 71
3
 72
8
 73
4
 74
0
 40
0
 40
0
 40
0
 40
0
 40
1
 40
1
 40
1
 40
1
 10
92.120149
 20
310.907565
 30
0.0
 10
91.392999
 20
311.920602
 30
0.0
 10
89.769290
 20
312.574277
 30
0.0
 10
87.976120
 20
312.575887
 30
0.0
  0
SPLINE
  5
211
100
AcDbEntity
  8
Layer_1
 62
7
100
AcDbSpline
 70
8
 71
3
 72
8
 73
4
 74
0
 40
0
 40
0
 40
0
 40
0
 40
1
 40
1
 40
1
 40
1
 10
87.976120
 20
312.575887
 30
0.0
 10
86.181610
 20
312.574887
 30
0.0
 10
84.556420
 20
311.920751
 30
0.0
 10
83.829190
 20
310.906841
 30
0.0
  0
SPLINE
  5
212
100
AcDbEntity
  8
Layer_1
 62
7
100
AcDbSpline
 70
8
 71
3
 72
8
 73
4
 74
0
 40
0
 40
0
 40
0
 40
0
 40
1
 40
1
 40
1
 40
1
 10
83.829190
 20
310.906841
 30
0.0
 10
83.102280
 20
311.920307
 30
0.0
 10
81.478150
 20
312.574324
 30
0.0
 10
79.684430
 20
312.575887
 30
0.0
  0
SPLINE
  5
213
100
AcDbEntity
  8
Layer_1
 62
7
100
AcDbSpline
 70
8
 71
3
 72
8
 73
4
 74
0
 40
0
 40
0
 40
0
 40
0
 40
1
 40
1
 40
1
 40
1
 10
79.684430
 20
312.575887
 30
0.0
 10
77.889920
 20
312.574887
 30
0.0
 10
76.264730
 20
311.920754
 30
0.0
 10
75.537500
 20
310.906841
 30
0.0
  0
SPLINE
  5
214
100
AcDbEntity
  8
Layer_1
 62
7
100
AcDbSpline
 70
8
 71
3
 72
8
 73
4
 74
0
 40
0
 40
0
 40
0
 40
0
 40
1
 40
1
 40
1
 40
1
 10
75.537500
 20
310.906841
 30
0.0
 10
74.810690
 20
311.920158
 30
0.0
 10
73.186920
 20
312.574147
 30
0.0
 10
71.393460
 20
312.575887
 30
0.0
  0
SPLINE
  5
215
100
AcDbEntity
  8
Layer_1
 62
7
100
AcDbSpline
 70
8
 71
3
 72
8
 73
4
 74
0
 40
0
 40
0
 40
0
 40
0
 40
1
 40
1
 40
1
 40
1
 10
71.393460
 20
312.575887
 30
0.0
 10
69.600310
 20
312.574887
 30
0.0
 10
67.976050
 20
311.921777
 30
0.0
 10
67.247980
 20
310.909012
 30
0.0
  0
SPLINE
  5
216
100
AcDbEntity
  8
Layer_1
 62
7
100
AcDbSpline
 70
8
 71
3
 72
8
 73
4
 74
0
 40
0
 40
0
 40
0
 40
0
 40
1
 40
1
 40
1
 40
1
 10
67.247980
 20
310.909012
 30
0.0
 10
66.519790
 20
311.921927
 30
0.0
 10
64.895180
 20
312.575061
 30
0.0
 10
63.101770
 20
312.575887
 30
0.0
  0
SPLINE
  5
217
100
AcDbEntity
  8
Layer_1
 62
7
100
AcDbSpline
 70
8
 71
3
 72
8
 73
4
 74
0
 40
0
 40
0
 40
0
 40
0
 40
1
 40
1
 40
1
 40
1
 10
63.101770
 20
312.575887
 30
0.0
 10
61.307270
 20
312.574887
 30
0.0
 10
59.682070
 20
311.920751
 30
0.0
 10
58.954840
 20
310.906841
 30
0.0
  0
SPLINE
  5
218
100
AcDbEntity
  8
Layer_1
 62
7
100
AcDbSpline
 70
8
 71
3
 72
8
 73
4
 74
0
 40
0
 40
0
 40
0
 40
0
 40
1
 40
1
 40
1
 40
1
 10
58.954840
 20
310.906841
 30
0.0
 10
58.228030
 20
311.920161
 30
0.0
 10
56.604260
 20
312.574149
 30
0.0
 10
54.810810
 20
312.575887
 30
0.0
  0
SPLINE
  5
219
100
AcDbEntity
  8
Layer_1
 62
7
100
AcDbSpline
 70
8
 71
3
 72
8
 73
4
 74
0
 40
0
 40
0
 40
0
 40
0
 40
1
 40
1
 40
1
 40
1
 10
54.810810
 20
312.575887
 30
0.0
 10
53.016300
 20
312.574887
 30
0.0
 10
51.391080
 20
311.920751
 30
0.0
 10
50.663880
 20
310.906841
 30
0.0
  0
SPLINE
  5
21a
100
AcDbEntity
  8
Layer_1
 62
7
100
AcDbSpline
 70
8
 71
3
 72
8
 73
4
 74
0
 40
0
 40
0
 40
0
 40
0
 40
1
 40
1
 40
1
 40
1
 10
50.663880
 20
310.906841
 30
0.0
 10
49.936970
 20
311.920307
 30
0.0
 10
48.312840
 20
312.574324
 30
0.0
 10
46.519110
 20
312.575887
 30
0.0
  0
SPLINE
  5
21b
100
AcDbEntity
  8
Layer_1
 62
7
100
AcDbSpline
 70
8
 71
3
 72
8
 73
4
 74
0
 40
0
 40
0
 40
0
 40
0
 40
1
 40
1
 40
1
 40
1
 10
46.519110
 20
312.575887
 30
0.0
 10
44.724610
 20
312.574887
 30
0.0
 10
43.099410
 20
311.920751
 30
0.0
 10
42.372180
 20
310.906841
 30
0.0
  0
SPLINE
  5
21c
100
AcDbEntity
  8
Layer_1
 62
7
100
AcDbSpline
 70
8
 71
3
 72
8
 73
4
 74
0
 40
0
 40
0
 40
0
 40
0
 40
1
 40
1
 40
1
 40
1
 10
42.372180
 20
310.906841
 30
0.0
 10
41.645260
 20
311.920310
 30
0.0
 10
40.021150
 20
312.574327
 30
0.0
 10
38.227430
 20
312.575887
 30
0.0
  0
SPLINE
  5
21d
100
AcDbEntity
  8
Layer_1
 62
7
100
AcDbSpline
 70
8
 71
3
 72
8
 73
4
 74
0
 40
0
 40
0
 40
0
 40
0
 40
1
 40
1
 40
1
 40
1
 10
38.227430
 20
312.575887
 30
0.0
 10
36.433180
 20
312.574687
 30
0.0
 10
34.808350
 20
311.920602
 30
0.0
 10
34.081220
 20
310.906841
 30
0.0
  0
SPLINE
  5
21e
100
AcDbEntity
  8
Layer_1
 62
7
100
AcDbSpline
 70
8
 71
3
 72
8
 73
4
 74
0
 40
0
 40
0
 40
0
 40
0
 40
1
 40
1
 40
1
 40
1
 10
34.081220
 20
310.906841
 30
0.0
 10
33.354290
 20
311.920310
 30
0.0
 10
31.730180
 20
312.574327
 30
0.0
 10
29.936460
 20
312.575887
 30
0.0
  0
SPLINE
  5
21f
100
AcDbEntity
  8
Layer_1
 62
7
100
AcDbSpline
 70
8
 71
3
 72
8
 73
4
 74
0
 40
0
 40
0
 40
0
 40
0
 40
1
 40
1
 40
1
 40
1
 10
29.936460
 20
312.575887
 30
0.0
 10
28.141950
 20
312.574887
 30
0.0
 10
26.516760
 20
311.920751
 30
0.0
 10
25.789530
 20
310.906841
 30
0.0
  0
SPLINE
  5
220
100
AcDbEntity
  8
Layer_1
 62
7
100
AcDbSpline
 70
8
 71
3
 72
8
 73
4
 74
0
 40
0
 40
0
 40
0
 40
0
 40
1
 40
1
 40
1
 40
1
 10
25.789530
 20
310.906841
 30
0.0
 10
25.062620
 20
311.920307
 30
0.0
 10
23.438490
 20
312.574324
 30
0.0
 10
21.644770
 20
312.575887
 30
0.0
  0
SPLINE
  5
221
100
AcDbEntity
  8
Layer_1
 62
7
100
AcDbSpline
 70
8
 71
3
 72
8
 73
4
 74
0
 40
0
 40
0
 40
0
 40
0
 40
1
 40
1
 40
1
 40
1
 10
21.644770
 20
312.575887
 30
0.0
 10
19.850540
 20
312.574998
 30
0.0
 10
18.225420
 20
311.921194
 30
0.0
 10
17.497840
 20
310.907565
 30
0.0
  0
SPLINE
  5
222
100
AcDbEntity
  8
Layer_1
 62
7
100
AcDbSpline
 70
8
 71
3
 72
8
 73
4
 74
0
 40
0
 40
0
 40
0
 40
0
 40
1
 40
1
 40
1
 40
1
 10
17.497840
 20
310.907565
 30
0.0
 10
16.770680
 20
311.920599
 30
0.0
 10
15.146980
 20
312.574274
 30
0.0
 10
13.353800
 20
312.575887
 30
0.0
  0
SPLINE
  5
223
100
AcDbEntity
  8
Layer_1
 62
7
100
AcDbSpline
 70
8
 71
3
 72
8
 73
4
 74
0
 40
0
 40
0
 40
0
 40
0
 40
1
 40
1
 40
1
 40
1
 10
13.353800
 20
312.575887
 30
0.0
 10
11.559290
 20
312.574887
 30
0.0
 10
9.934100
 20
311.920754
 30
0.0
 10
9.206870
 20
310.906841
 30
0.0
  0
SPLINE
  5
224
100
AcDbEntity
  8
Layer_1
 62
7
100
AcDbSpline
 70
8
 71
3
 72
8
 73
4
 74
0
 40
0
 40
0
 40
0
 40
0
 40
1
 40
1
 40
1
 40
1
 10
9.206870
 20
310.906841
 30
0.0
 10
8.479960
 20
311.920307
 30
0.0
 10
6.855830
 20
312.574324
 30
0.0
 10
5.062110
 20
312.575886
 30
0.0
  0
LWPOLYLINE
  5
225
100
AcDbEntity
  8
Layer_1
 62
7
100
AcDbPolyline
 90
5
 70
0
 10
274.831070
 20
261.818716
 30
0.0
 10
275.448190
 20
261.818716
 30
0.0
 10
275.448190
 20
309.765246
 30
0.0
 10
274.926570
 20
309.765246
 30
0.0
 10
274.926570
 20
309.769546
 30
0.0
  0
LWPOLYLINE
  5
226
100
AcDbEntity
  8
Layer_1
 62
7
100
AcDbPolyline
 90
1
 70
1
 10
5.062110
 20
312.575886
 30
0.0
  0
ENDSEC
  0
SECTION
  2
OBJECTS
  0
DICTIONARY
  5
C
330
0
100
AcDbDictionary
  3
ACAD_GROUP
350
D
  3
ACAD_MLINESTYLE
350
17
  0
DICTIONARY
  5
D
330
C
100
AcDbDictionary
  0
DICTIONARY
  5
1A
330
C
100
AcDbDictionary
  0
DICTIONARY
  5
17
330
C
100
AcDbDictionary
  3
STANDARD
350
18
  0
DICTIONARY
  5
19
330
C
100
AcDbDictionary
  0
ENDSEC
  0
EOF
