  0
SECTION
  2
HEADER
  9
$ACADVER
  1
AC1014
  9
$HANDSEED
  5
FFFF
  9
$MEASUREMENT
 70
     1
  0
ENDSEC
  0
SECTION
  2
TABLES
  0
TABLE
  2
VPORT
  5
8
330
0
100
AcDbSymbolTable
 70
     4
  0
VPORT
  5
2E
330
8
100
AcDbSymbolTableRecord
100
AcDbViewportTableRecord
  2
*ACTIVE
 70
     0
 10
0.0
 20
0.0
 11
1.0
 21
1.0
 12
210.0
 22
148.5
 13
0.0
 23
0.0
 14
10.0
 24
10.0
 15
10.0
 25
10.0
 16
0.0
 26
0.0
 36
1.0
 17
0.0
 27
0.0
 37
0.0
 40
341.0
 41
1.24
 42
50.0
 43
0.0
 44
0.0
 50
0.0
 51
0.0
 71
     0
 72
   100
 73
     1
 74
     3
 75
     0
 76
     0
 77
     0
 78
     0
  0
ENDTAB
  0
TABLE
  2
LTYPE
  5
5
330
0
100
AcDbSymbolTable
 70
     1
  0
LTYPE
  5
14
330
5
100
AcDbSymbolTableRecord
100
AcDbLinetypeTableRecord
  2
BYBLOCK
 70
     0
  3

 72
    65
 73
     0
 40
0.0
  0
LTYPE
  5
15
330
5
100
AcDbSymbolTableRecord
100
AcDbLinetypeTableRecord
  2
BYLAYER
 70
     0
  3

 72
    65
 73
     0
 40
0.0
  0
LTYPE
  5
16
330
5
100
AcDbSymbolTableRecord
100
AcDbLinetypeTableRecord
  2
CONTINUOUS
 70
     0
  3
Solid line
 72
    65
 73
     0
 40
0.0
  0
ENDTAB
  0
TABLE
  2
LAYER
  5
2
100
AcDbSymbolTable
 70
2
  0
LAYER
  5
50
100
AcDbSymbolTableRecord
100
AcDbLayerTableRecord
  2
0
 70
0
  6
CONTINUOUS
  0
LAYER
  5
51
100
AcDbSymbolTableRecord
100
AcDbLayerTableRecord
  2
Layer_1
 70
0
  6
CONTINUOUS
  0
ENDTAB
  0
TABLE
  2
STYLE
  5
3
330
0
100
AcDbSymbolTable
 70
     1
  0
STYLE
  5
11
330
3
100
AcDbSymbolTableRecord
100
AcDbTextStyleTableRecord
  2
STANDARD
 70
     0
 40
0.0
 41
1.0
 50
0.0
 71
     0
 42
2.5
  3
txt
  4

  0
ENDTAB
  0
TABLE
  2
VIEW
  5
6
330
0
100
AcDbSymbolTable
 70
     0
  0
ENDTAB
  0
TABLE
  2
UCS
  5
7
330
0
100
AcDbSymbolTable
 70
     0
  0
ENDTAB
  0
TABLE
  2
APPID
  5
9
330
0
100
AcDbSymbolTable
 70
     2
  0
APPID
  5
12
330
9
100
AcDbSymbolTableRecord
100
AcDbRegAppTableRecord
  2
ACAD
 70
     0
  0
ENDTAB
  0
TABLE
  2
DIMSTYLE
  5
A
330
0
100
AcDbSymbolTable
 70
     1
  0
DIMSTYLE
105
27
330
A
100
AcDbSymbolTableRecord
100
AcDbDimStyleTableRecord
  2
ISO-25
 70
     0
  3

  4

  5

  6

  7

 40
1.0
 41
2.5
 42
0.625
 43
3.75
 44
1.25
 45
0.0
 46
0.0
 47
0.0
 48
0.0
140
2.5
141
2.5
142
0.0
143
0.03937007874016
144
1.0
145
0.0
146
1.0
147
0.625
 71
     0
 72
     0
 73
     0
 74
     0
 75
     0
 76
     0
 77
     1
 78
     8
170
     0
171
     3
172
     1
173
     0
174
     0
175
     0
176
     0
177
     0
178
     0
270
     2
271
     2
272
     2
273
     2
274
     3
340
11
275
     0
280
     0
281
     0
282
     0
283
     0
284
     8
285
     0
286
     0
287
     3
288
     0
  0
ENDTAB
  0
TABLE
  2
BLOCK_RECORD
  5
1
330
0
100
AcDbSymbolTable
 70
     1
  0
BLOCK_RECORD
  5
1F
330
1
100
AcDbSymbolTableRecord
100
AcDbBlockTableRecord
  2
*MODEL_SPACE
  0
BLOCK_RECORD
  5
1B
330
1
100
AcDbSymbolTableRecord
100
AcDbBlockTableRecord
  2
*PAPER_SPACE
  0
ENDTAB
  0
ENDSEC
  0
SECTION
  2
BLOCKS
  0
BLOCK
  5
20
330
1F
100
AcDbEntity
  8
0
100
AcDbBlockBegin
  2
*MODEL_SPACE
 70
     0
 10
0.0
 20
0.0
 30
0.0
  3
*MODEL_SPACE
  1

  0
ENDBLK
  5
21
330
1F
100
AcDbEntity
  8
0
100
AcDbBlockEnd
  0
BLOCK
  5
1C
330
1B
100
AcDbEntity
 67
     1
  8
0
100
AcDbBlockBegin
  2
*PAPER_SPACE
  1

  0
ENDBLK
  5
1D
330
1B
100
AcDbEntity
 67
     1
  8
0
100
AcDbBlockEnd
  0
ENDSEC
  0
SECTION
  2
ENTITIES
  0
SPLINE
  5
100
100
AcDbEntity
  8
Layer_1
 62
7
100
AcDbSpline
 70
8
 71
3
 72
8
 73
4
 74
0
 40
0
 40
0
 40
0
 40
0
 40
1
 40
1
 40
1
 40
1
 10
3.543484
 20
218.803135
 30
0.0
 10
1.788098
 20
218.803081
 30
0.0
 10
0.365126
 20
217.923587
 30
0.0
 10
0.365135
 20
216.838697
 30
0.0
  0
SPLINE
  5
101
100
AcDbEntity
  8
Layer_1
 62
7
100
AcDbSpline
 70
8
 71
3
 72
8
 73
4
 74
0
 40
0
 40
0
 40
0
 40
0
 40
1
 40
1
 40
1
 40
1
 10
0.435023
 20
183.273130
 30
0.0
 10
0.740782
 20
182.362280
 30
0.0
 10
2.038332
 20
181.708860
 30
0.0
 10
3.543484
 20
181.707750
 30
0.0
  0
SPLINE
  5
102
100
AcDbEntity
  8
Layer_1
 62
7
100
AcDbSpline
 70
8
 71
3
 72
8
 73
4
 74
0
 40
0
 40
0
 40
0
 40
0
 40
1
 40
1
 40
1
 40
1
 10
3.543484
 20
181.707750
 30
0.0
 10
4.799442
 20
181.708270
 30
0.0
 10
5.937031
 20
182.166040
 30
0.0
 10
6.446335
 20
182.875580
 30
0.0
  0
SPLINE
  5
103
100
AcDbEntity
  8
Layer_1
 62
7
100
AcDbSpline
 70
8
 71
3
 72
8
 73
4
 74
0
 40
0
 40
0
 40
0
 40
0
 40
1
 40
1
 40
1
 40
1
 10
6.446335
 20
182.875580
 30
0.0
 10
6.955425
 20
182.166350
 30
0.0
 10
8.092257
 20
181.708760
 30
0.0
 10
9.347667
 20
181.707750
 30
0.0
  0
SPLINE
  5
104
100
AcDbEntity
  8
Layer_1
 62
7
100
AcDbSpline
 70
8
 71
3
 72
8
 73
4
 74
0
 40
0
 40
0
 40
0
 40
0
 40
1
 40
1
 40
1
 40
1
 10
9.347667
 20
181.707750
 30
0.0
 10
10.603625
 20
181.708270
 30
0.0
 10
11.741203
 20
182.166040
 30
0.0
 10
12.250519
 20
182.875580
 30
0.0
  0
SPLINE
  5
105
100
AcDbEntity
  8
Layer_1
 62
7
100
AcDbSpline
 70
8
 71
3
 72
8
 73
4
 74
0
 40
0
 40
0
 40
0
 40
0
 40
1
 40
1
 40
1
 40
1
 10
12.250519
 20
182.875580
 30
0.0
 10
12.759531
 20
182.166460
 30
0.0
 10
13.896121
 20
181.708880
 30
0.0
 10
15.151344
 20
181.707750
 30
0.0
  0
SPLINE
  5
106
100
AcDbEntity
  8
Layer_1
 62
7
100
AcDbSpline
 70
8
 71
3
 72
8
 73
4
 74
0
 40
0
 40
0
 40
0
 40
0
 40
1
 40
1
 40
1
 40
1
 10
15.151344
 20
181.707750
 30
0.0
 10
16.407302
 20
181.708270
 30
0.0
 10
17.544879
 20
182.166040
 30
0.0
 10
18.054195
 20
182.875580
 30
0.0
  0
SPLINE
  5
107
100
AcDbEntity
  8
Layer_1
 62
7
100
AcDbSpline
 70
8
 71
3
 72
8
 73
4
 74
0
 40
0
 40
0
 40
0
 40
0
 40
1
 40
1
 40
1
 40
1
 10
18.054195
 20
182.875580
 30
0.0
 10
18.563285
 20
182.166350
 30
0.0
 10
19.700119
 20
181.708760
 30
0.0
 10
20.955526
 20
181.707750
 30
0.0
  0
SPLINE
  5
108
100
AcDbEntity
  8
Layer_1
 62
7
100
AcDbSpline
 70
8
 71
3
 72
8
 73
4
 74
0
 40
0
 40
0
 40
0
 40
0
 40
1
 40
1
 40
1
 40
1
 10
20.955526
 20
181.707750
 30
0.0
 10
22.211486
 20
181.708270
 30
0.0
 10
23.349073
 20
182.166040
 30
0.0
 10
23.858379
 20
182.875580
 30
0.0
  0
SPLINE
  5
109
100
AcDbEntity
  8
Layer_1
 62
7
100
AcDbSpline
 70
8
 71
3
 72
8
 73
4
 74
0
 40
0
 40
0
 40
0
 40
0
 40
1
 40
1
 40
1
 40
1
 10
23.858379
 20
182.875580
 30
0.0
 10
24.367389
 20
182.166450
 30
0.0
 10
25.503981
 20
181.708880
 30
0.0
 10
26.759205
 20
181.707750
 30
0.0
  0
SPLINE
  5
10a
100
AcDbEntity
  8
Layer_1
 62
7
100
AcDbSpline
 70
8
 71
3
 72
8
 73
4
 74
0
 40
0
 40
0
 40
0
 40
0
 40
1
 40
1
 40
1
 40
1
 10
26.759205
 20
181.707750
 30
0.0
 10
28.015162
 20
181.708270
 30
0.0
 10
29.152750
 20
182.166040
 30
0.0
 10
29.662055
 20
182.875580
 30
0.0
  0
SPLINE
  5
10b
100
AcDbEntity
  8
Layer_1
 62
7
100
AcDbSpline
 70
8
 71
3
 72
8
 73
4
 74
0
 40
0
 40
0
 40
0
 40
0
 40
1
 40
1
 40
1
 40
1
 10
29.662055
 20
182.875580
 30
0.0
 10
30.171146
 20
182.166350
 30
0.0
 10
31.307977
 20
181.708760
 30
0.0
 10
32.563386
 20
181.707750
 30
0.0
  0
SPLINE
  5
10c
100
AcDbEntity
  8
Layer_1
 62
7
100
AcDbSpline
 70
8
 71
3
 72
8
 73
4
 74
0
 40
0
 40
0
 40
0
 40
0
 40
1
 40
1
 40
1
 40
1
 10
32.563386
 20
181.707750
 30
0.0
 10
33.819346
 20
181.708270
 30
0.0
 10
34.956923
 20
182.166040
 30
0.0
 10
35.466237
 20
182.875580
 30
0.0
  0
SPLINE
  5
10d
100
AcDbEntity
  8
Layer_1
 62
7
100
AcDbSpline
 70
8
 71
3
 72
8
 73
4
 74
0
 40
0
 40
0
 40
0
 40
0
 40
1
 40
1
 40
1
 40
1
 10
35.466237
 20
182.875580
 30
0.0
 10
35.679644
 20
182.578330
 30
0.0
 10
36.837275
 20
181.466580
 30
0.0
 10
37.103524
 20
181.264630
 30
0.0
  0
SPLINE
  5
10e
100
AcDbEntity
  8
Layer_1
 62
7
100
AcDbSpline
 70
8
 71
3
 72
8
 73
4
 74
0
 40
0
 40
0
 40
0
 40
0
 40
1
 40
1
 40
1
 40
1
 10
37.103524
 20
181.264630
 30
0.0
 10
36.403639
 20
180.733670
 30
0.0
 10
35.956311
 20
179.596310
 30
0.0
 10
35.955447
 20
178.345570
 30
0.0
  0
SPLINE
  5
10f
100
AcDbEntity
  8
Layer_1
 62
7
100
AcDbSpline
 70
8
 71
3
 72
8
 73
4
 74
0
 40
0
 40
0
 40
0
 40
0
 40
1
 40
1
 40
1
 40
1
 10
35.955447
 20
178.345570
 30
0.0
 10
35.956447
 20
177.095020
 30
0.0
 10
36.403739
 20
175.957900
 30
0.0
 10
37.103524
 20
175.427020
 30
0.0
  0
SPLINE
  5
110
100
AcDbEntity
  8
Layer_1
 62
7
100
AcDbSpline
 70
8
 71
3
 72
8
 73
4
 74
0
 40
0
 40
0
 40
0
 40
0
 40
1
 40
1
 40
1
 40
1
 10
37.103524
 20
175.427020
 30
0.0
 10
36.403639
 20
174.896060
 30
0.0
 10
35.956311
 20
173.758700
 30
0.0
 10
35.955447
 20
172.507960
 30
0.0
  0
SPLINE
  5
111
100
AcDbEntity
  8
Layer_1
 62
7
100
AcDbSpline
 70
8
 71
3
 72
8
 73
4
 74
0
 40
0
 40
0
 40
0
 40
0
 40
1
 40
1
 40
1
 40
1
 10
35.955447
 20
172.507960
 30
0.0
 10
35.956217
 20
171.257230
 30
0.0
 10
36.403639
 20
170.119870
 30
0.0
 10
37.103524
 20
169.588910
 30
0.0
  0
SPLINE
  5
112
100
AcDbEntity
  8
Layer_1
 62
7
100
AcDbSpline
 70
8
 71
3
 72
8
 73
4
 74
0
 40
0
 40
0
 40
0
 40
0
 40
1
 40
1
 40
1
 40
1
 10
37.103524
 20
169.588910
 30
0.0
 10
36.403739
 20
169.058020
 30
0.0
 10
35.956433
 20
167.920910
 30
0.0
 10
35.955447
 20
166.670360
 30
0.0
  0
SPLINE
  5
113
100
AcDbEntity
  8
Layer_1
 62
7
100
AcDbSpline
 70
8
 71
3
 72
8
 73
4
 74
0
 40
0
 40
0
 40
0
 40
0
 40
1
 40
1
 40
1
 40
1
 10
35.955447
 20
166.670360
 30
0.0
 10
35.956217
 20
165.419620
 30
0.0
 10
36.403639
 20
164.282260
 30
0.0
 10
37.103524
 20
163.751300
 30
0.0
  0
SPLINE
  5
114
100
AcDbEntity
  8
Layer_1
 62
7
100
AcDbSpline
 70
8
 71
3
 72
8
 73
4
 74
0
 40
0
 40
0
 40
0
 40
0
 40
1
 40
1
 40
1
 40
1
 10
37.103524
 20
163.751300
 30
0.0
 10
36.403639
 20
163.220340
 30
0.0
 10
35.956311
 20
162.082980
 30
0.0
 10
35.955447
 20
160.832240
 30
0.0
  0
SPLINE
  5
115
100
AcDbEntity
  8
Layer_1
 62
7
100
AcDbSpline
 70
8
 71
3
 72
8
 73
4
 74
0
 40
0
 40
0
 40
0
 40
0
 40
1
 40
1
 40
1
 40
1
 10
35.955447
 20
160.832240
 30
0.0
 10
35.956447
 20
159.581690
 30
0.0
 10
36.403739
 20
158.444580
 30
0.0
 10
37.103524
 20
157.913690
 30
0.0
  0
SPLINE
  5
116
100
AcDbEntity
  8
Layer_1
 62
7
100
AcDbSpline
 70
8
 71
3
 72
8
 73
4
 74
0
 40
0
 40
0
 40
0
 40
0
 40
1
 40
1
 40
1
 40
1
 10
37.103524
 20
157.913690
 30
0.0
 10
36.403639
 20
157.382730
 30
0.0
 10
35.956311
 20
156.245370
 30
0.0
 10
35.955447
 20
154.994630
 30
0.0
  0
SPLINE
  5
117
100
AcDbEntity
  8
Layer_1
 62
7
100
AcDbSpline
 70
8
 71
3
 72
8
 73
4
 74
0
 40
0
 40
0
 40
0
 40
0
 40
1
 40
1
 40
1
 40
1
 10
35.955447
 20
154.994630
 30
0.0
 10
35.956217
 20
153.743900
 30
0.0
 10
36.403639
 20
152.606540
 30
0.0
 10
37.103524
 20
152.075580
 30
0.0
  0
SPLINE
  5
118
100
AcDbEntity
  8
Layer_1
 62
7
100
AcDbSpline
 70
8
 71
3
 72
8
 73
4
 74
0
 40
0
 40
0
 40
0
 40
0
 40
1
 40
1
 40
1
 40
1
 10
37.103524
 20
152.075580
 30
0.0
 10
36.403739
 20
151.544690
 30
0.0
 10
35.956433
 20
150.407580
 30
0.0
 10
35.955447
 20
149.157030
 30
0.0
  0
SPLINE
  5
119
100
AcDbEntity
  8
Layer_1
 62
7
100
AcDbSpline
 70
8
 71
3
 72
8
 73
4
 74
0
 40
0
 40
0
 40
0
 40
0
 40
1
 40
1
 40
1
 40
1
 10
35.955447
 20
149.157030
 30
0.0
 10
35.955707
 20
148.881310
 30
0.0
 10
35.977877
 20
148.606780
 30
0.0
 10
36.021277
 20
148.340160
 30
0.0
  0
SPLINE
  5
11a
100
AcDbEntity
  8
Layer_1
 62
7
100
AcDbSpline
 70
8
 71
3
 72
8
 73
4
 74
0
 40
0
 40
0
 40
0
 40
0
 40
1
 40
1
 40
1
 40
1
 10
36.021277
 20
148.340160
 30
0.0
 10
35.793974
 20
148.186210
 30
0.0
 10
35.604707
 20
148.009890
 30
0.0
 10
35.464713
 20
147.815500
 30
0.0
  0
SPLINE
  5
11b
100
AcDbEntity
  8
Layer_1
 62
7
100
AcDbSpline
 70
8
 71
3
 72
8
 73
4
 74
0
 40
0
 40
0
 40
0
 40
0
 40
1
 40
1
 40
1
 40
1
 10
35.464713
 20
147.815500
 30
0.0
 10
34.955622
 20
148.524730
 30
0.0
 10
33.818789
 20
148.982320
 30
0.0
 10
32.563379
 20
148.983320
 30
0.0
  0
SPLINE
  5
11c
100
AcDbEntity
  8
Layer_1
 62
7
100
AcDbSpline
 70
8
 71
3
 72
8
 73
4
 74
0
 40
0
 40
0
 40
0
 40
0
 40
1
 40
1
 40
1
 40
1
 10
32.563379
 20
148.983320
 30
0.0
 10
31.307422
 20
148.982810
 30
0.0
 10
30.169835
 20
148.525030
 30
0.0
 10
29.660529
 20
147.815500
 30
0.0
  0
SPLINE
  5
11d
100
AcDbEntity
  8
Layer_1
 62
7
100
AcDbSpline
 70
8
 71
3
 72
8
 73
4
 74
0
 40
0
 40
0
 40
0
 40
0
 40
1
 40
1
 40
1
 40
1
 10
29.660529
 20
147.815500
 30
0.0
 10
29.151448
 20
148.524730
 30
0.0
 10
28.014605
 20
148.982320
 30
0.0
 10
26.759197
 20
148.983320
 30
0.0
  0
SPLINE
  5
11e
100
AcDbEntity
  8
Layer_1
 62
7
100
AcDbSpline
 70
8
 71
3
 72
8
 73
4
 74
0
 40
0
 40
0
 40
0
 40
0
 40
1
 40
1
 40
1
 40
1
 10
26.759197
 20
148.983320
 30
0.0
 10
25.503414
 20
148.982620
 30
0.0
 10
24.366089
 20
148.524940
 30
0.0
 10
23.856853
 20
147.815500
 30
0.0
  0
SPLINE
  5
11f
100
AcDbEntity
  8
Layer_1
 62
7
100
AcDbSpline
 70
8
 71
3
 72
8
 73
4
 74
0
 40
0
 40
0
 40
0
 40
0
 40
1
 40
1
 40
1
 40
1
 10
23.856853
 20
147.815500
 30
0.0
 10
23.347773
 20
148.524730
 30
0.0
 10
22.210929
 20
148.982320
 30
0.0
 10
20.955519
 20
148.983320
 30
0.0
  0
SPLINE
  5
120
100
AcDbEntity
  8
Layer_1
 62
7
100
AcDbSpline
 70
8
 71
3
 72
8
 73
4
 74
0
 40
0
 40
0
 40
0
 40
0
 40
1
 40
1
 40
1
 40
1
 10
20.955519
 20
148.983320
 30
0.0
 10
19.699562
 20
148.982810
 30
0.0
 10
18.561974
 20
148.525030
 30
0.0
 10
18.052669
 20
147.815500
 30
0.0
  0
SPLINE
  5
121
100
AcDbEntity
  8
Layer_1
 62
7
100
AcDbSpline
 70
8
 71
3
 72
8
 73
4
 74
0
 40
0
 40
0
 40
0
 40
0
 40
1
 40
1
 40
1
 40
1
 10
18.052669
 20
147.815500
 30
0.0
 10
17.543578
 20
148.524730
 30
0.0
 10
16.406746
 20
148.982320
 30
0.0
 10
15.151337
 20
148.983320
 30
0.0
  0
SPLINE
  5
122
100
AcDbEntity
  8
Layer_1
 62
7
100
AcDbSpline
 70
8
 71
3
 72
8
 73
4
 74
0
 40
0
 40
0
 40
0
 40
0
 40
1
 40
1
 40
1
 40
1
 10
15.151337
 20
148.983320
 30
0.0
 10
13.895575
 20
148.982810
 30
0.0
 10
12.758037
 20
148.525340
 30
0.0
 10
12.248486
 20
147.816000
 30
0.0
  0
SPLINE
  5
123
100
AcDbEntity
  8
Layer_1
 62
7
100
AcDbSpline
 70
8
 71
3
 72
8
 73
4
 74
0
 40
0
 40
0
 40
0
 40
0
 40
1
 40
1
 40
1
 40
1
 10
12.248486
 20
147.816000
 30
0.0
 10
11.739229
 20
148.524930
 30
0.0
 10
10.602697
 20
148.982280
 30
0.0
 10
9.347659
 20
148.983320
 30
0.0
  0
SPLINE
  5
124
100
AcDbEntity
  8
Layer_1
 62
7
100
AcDbSpline
 70
8
 71
3
 72
8
 73
4
 74
0
 40
0
 40
0
 40
0
 40
0
 40
1
 40
1
 40
1
 40
1
 10
9.347659
 20
148.983320
 30
0.0
 10
8.091701
 20
148.982810
 30
0.0
 10
6.954114
 20
148.525030
 30
0.0
 10
6.444808
 20
147.815500
 30
0.0
  0
SPLINE
  5
125
100
AcDbEntity
  8
Layer_1
 62
7
100
AcDbSpline
 70
8
 71
3
 72
8
 73
4
 74
0
 40
0
 40
0
 40
0
 40
0
 40
1
 40
1
 40
1
 40
1
 10
6.444808
 20
147.815500
 30
0.0
 10
5.935728
 20
148.524730
 30
0.0
 10
4.798886
 20
148.982320
 30
0.0
 10
3.543476
 20
148.983320
 30
0.0
  0
SPLINE
  5
126
100
AcDbEntity
  8
Layer_1
 62
7
100
AcDbSpline
 70
8
 71
3
 72
8
 73
4
 74
0
 40
0
 40
0
 40
0
 40
0
 40
1
 40
1
 40
1
 40
1
 10
3.543476
 20
148.983320
 30
0.0
 10
2.012002
 20
148.982620
 30
0.0
 10
0.699061
 20
148.307120
 30
0.0
 10
0.420329
 20
147.376420
 30
0.0
  0
LWPOLYLINE
  5
127
100
AcDbEntity
  8
Layer_1
 62
7
100
AcDbPolyline
 90
5
 70
0
 10
0.365135
 20
216.838697
 30
0.0
 10
0.365135
 20
216.835697
 30
0.0
 10
0.000000
 20
216.835697
 30
0.0
 10
0.000000
 20
183.273130
 30
0.0
 10
0.435023
 20
183.273130
 30
0.0
  0
SPLINE
  5
128
100
AcDbEntity
  8
Layer_1
 62
7
100
AcDbSpline
 70
8
 71
3
 72
8
 73
4
 74
0
 40
0
 40
0
 40
0
 40
0
 40
1
 40
1
 40
1
 40
1
 10
0.373745
 20
110.873520
 30
0.0
 10
0.493609
 20
109.846220
 30
0.0
 10
1.876945
 20
109.050560
 30
0.0
 10
3.543484
 20
109.050380
 30
0.0
  0
SPLINE
  5
129
100
AcDbEntity
  8
Layer_1
 62
7
100
AcDbSpline
 70
8
 71
3
 72
8
 73
4
 74
0
 40
0
 40
0
 40
0
 40
0
 40
1
 40
1
 40
1
 40
1
 10
3.543484
 20
109.050380
 30
0.0
 10
4.799442
 20
109.050900
 30
0.0
 10
5.937031
 20
109.508660
 30
0.0
 10
6.446335
 20
110.218210
 30
0.0
  0
SPLINE
  5
12a
100
AcDbEntity
  8
Layer_1
 62
7
100
AcDbSpline
 70
8
 71
3
 72
8
 73
4
 74
0
 40
0
 40
0
 40
0
 40
0
 40
1
 40
1
 40
1
 40
1
 10
6.446335
 20
110.218210
 30
0.0
 10
6.955416
 20
109.508980
 30
0.0
 10
8.092257
 20
109.051390
 30
0.0
 10
9.347667
 20
109.050380
 30
0.0
  0
SPLINE
  5
12b
100
AcDbEntity
  8
Layer_1
 62
7
100
AcDbSpline
 70
8
 71
3
 72
8
 73
4
 74
0
 40
0
 40
0
 40
0
 40
0
 40
1
 40
1
 40
1
 40
1
 10
9.347667
 20
109.050380
 30
0.0
 10
10.603625
 20
109.050900
 30
0.0
 10
11.741213
 20
109.508660
 30
0.0
 10
12.250519
 20
110.218210
 30
0.0
  0
SPLINE
  5
12c
100
AcDbEntity
  8
Layer_1
 62
7
100
AcDbSpline
 70
8
 71
3
 72
8
 73
4
 74
0
 40
0
 40
0
 40
0
 40
0
 40
1
 40
1
 40
1
 40
1
 10
12.250519
 20
110.218210
 30
0.0
 10
12.759531
 20
109.509080
 30
0.0
 10
13.896121
 20
109.051510
 30
0.0
 10
15.151344
 20
109.050380
 30
0.0
  0
SPLINE
  5
12d
100
AcDbEntity
  8
Layer_1
 62
7
100
AcDbSpline
 70
8
 71
3
 72
8
 73
4
 74
0
 40
0
 40
0
 40
0
 40
0
 40
1
 40
1
 40
1
 40
1
 10
15.151344
 20
109.050380
 30
0.0
 10
16.407302
 20
109.050900
 30
0.0
 10
17.544889
 20
109.508660
 30
0.0
 10
18.054195
 20
110.218210
 30
0.0
  0
SPLINE
  5
12e
100
AcDbEntity
  8
Layer_1
 62
7
100
AcDbSpline
 70
8
 71
3
 72
8
 73
4
 74
0
 40
0
 40
0
 40
0
 40
0
 40
1
 40
1
 40
1
 40
1
 10
18.054195
 20
110.218210
 30
0.0
 10
18.563276
 20
109.508980
 30
0.0
 10
19.700119
 20
109.051390
 30
0.0
 10
20.955526
 20
109.050380
 30
0.0
  0
SPLINE
  5
12f
100
AcDbEntity
  8
Layer_1
 62
7
100
AcDbSpline
 70
8
 71
3
 72
8
 73
4
 74
0
 40
0
 40
0
 40
0
 40
0
 40
1
 40
1
 40
1
 40
1
 10
20.955526
 20
109.050380
 30
0.0
 10
22.211486
 20
109.050900
 30
0.0
 10
23.349073
 20
109.508660
 30
0.0
 10
23.858379
 20
110.218210
 30
0.0
  0
SPLINE
  5
130
100
AcDbEntity
  8
Layer_1
 62
7
100
AcDbSpline
 70
8
 71
3
 72
8
 73
4
 74
0
 40
0
 40
0
 40
0
 40
0
 40
1
 40
1
 40
1
 40
1
 10
23.858379
 20
110.218210
 30
0.0
 10
24.367389
 20
109.509080
 30
0.0
 10
25.503981
 20
109.051510
 30
0.0
 10
26.759205
 20
109.050380
 30
0.0
  0
SPLINE
  5
131
100
AcDbEntity
  8
Layer_1
 62
7
100
AcDbSpline
 70
8
 71
3
 72
8
 73
4
 74
0
 40
0
 40
0
 40
0
 40
0
 40
1
 40
1
 40
1
 40
1
 10
26.759205
 20
109.050380
 30
0.0
 10
28.015162
 20
109.050900
 30
0.0
 10
29.152750
 20
109.508660
 30
0.0
 10
29.662055
 20
110.218210
 30
0.0
  0
SPLINE
  5
132
100
AcDbEntity
  8
Layer_1
 62
7
100
AcDbSpline
 70
8
 71
3
 72
8
 73
4
 74
0
 40
0
 40
0
 40
0
 40
0
 40
1
 40
1
 40
1
 40
1
 10
29.662055
 20
110.218210
 30
0.0
 10
30.171135
 20
109.508980
 30
0.0
 10
31.307977
 20
109.051390
 30
0.0
 10
32.563386
 20
109.050380
 30
0.0
  0
SPLINE
  5
133
100
AcDbEntity
  8
Layer_1
 62
7
100
AcDbSpline
 70
8
 71
3
 72
8
 73
4
 74
0
 40
0
 40
0
 40
0
 40
0
 40
1
 40
1
 40
1
 40
1
 10
32.563386
 20
109.050380
 30
0.0
 10
33.819346
 20
109.050900
 30
0.0
 10
34.956931
 20
109.508660
 30
0.0
 10
35.466237
 20
110.218210
 30
0.0
  0
SPLINE
  5
134
100
AcDbEntity
  8
Layer_1
 62
7
100
AcDbSpline
 70
8
 71
3
 72
8
 73
4
 74
0
 40
0
 40
0
 40
0
 40
0
 40
1
 40
1
 40
1
 40
1
 10
35.466237
 20
110.218210
 30
0.0
 10
35.627939
 20
109.992780
 30
0.0
 10
35.857801
 20
109.792690
 30
0.0
 10
36.134725
 20
109.622650
 30
0.0
  0
SPLINE
  5
135
100
AcDbEntity
  8
Layer_1
 62
7
100
AcDbSpline
 70
8
 71
3
 72
8
 73
4
 74
0
 40
0
 40
0
 40
0
 40
0
 40
1
 40
1
 40
1
 40
1
 10
36.134725
 20
109.622650
 30
0.0
 10
36.017224
 20
109.205000
 30
0.0
 10
35.956106
 20
108.751640
 30
0.0
 10
35.955448
 20
108.292760
 30
0.0
  0
SPLINE
  5
136
100
AcDbEntity
  8
Layer_1
 62
7
100
AcDbSpline
 70
8
 71
3
 72
8
 73
4
 74
0
 40
0
 40
0
 40
0
 40
0
 40
1
 40
1
 40
1
 40
1
 10
35.955448
 20
108.292760
 30
0.0
 10
35.956217
 20
107.042030
 30
0.0
 10
36.403639
 20
105.904670
 30
0.0
 10
37.103524
 20
105.373710
 30
0.0
  0
SPLINE
  5
137
100
AcDbEntity
  8
Layer_1
 62
7
100
AcDbSpline
 70
8
 71
3
 72
8
 73
4
 74
0
 40
0
 40
0
 40
0
 40
0
 40
1
 40
1
 40
1
 40
1
 10
37.103524
 20
105.373710
 30
0.0
 10
36.403639
 20
104.842740
 30
0.0
 10
35.956311
 20
103.705380
 30
0.0
 10
35.955448
 20
102.454650
 30
0.0
  0
SPLINE
  5
138
100
AcDbEntity
  8
Layer_1
 62
7
100
AcDbSpline
 70
8
 71
3
 72
8
 73
4
 74
0
 40
0
 40
0
 40
0
 40
0
 40
1
 40
1
 40
1
 40
1
 10
35.955448
 20
102.454650
 30
0.0
 10
35.956548
 20
101.204100
 30
0.0
 10
36.403739
 20
100.066980
 30
0.0
 10
37.103524
 20
99.536100
 30
0.0
  0
SPLINE
  5
139
100
AcDbEntity
  8
Layer_1
 62
7
100
AcDbSpline
 70
8
 71
3
 72
8
 73
4
 74
0
 40
0
 40
0
 40
0
 40
0
 40
1
 40
1
 40
1
 40
1
 10
37.103524
 20
99.536100
 30
0.0
 10
36.403639
 20
99.005140
 30
0.0
 10
35.956311
 20
97.867780
 30
0.0
 10
35.955448
 20
96.617040
 30
0.0
  0
SPLINE
  5
13a
100
AcDbEntity
  8
Layer_1
 62
7
100
AcDbSpline
 70
8
 71
3
 72
8
 73
4
 74
0
 40
0
 40
0
 40
0
 40
0
 40
1
 40
1
 40
1
 40
1
 10
35.955448
 20
96.617040
 30
0.0
 10
35.956548
 20
95.366490
 30
0.0
 10
36.403742
 20
94.229380
 30
0.0
 10
37.103524
 20
93.698490
 30
0.0
  0
SPLINE
  5
13b
100
AcDbEntity
  8
Layer_1
 62
7
100
AcDbSpline
 70
8
 71
3
 72
8
 73
4
 74
0
 40
0
 40
0
 40
0
 40
0
 40
1
 40
1
 40
1
 40
1
 10
37.103524
 20
93.698490
 30
0.0
 10
36.403639
 20
93.167530
 30
0.0
 10
35.956311
 20
92.030170
 30
0.0
 10
35.955448
 20
90.779440
 30
0.0
  0
SPLINE
  5
13c
100
AcDbEntity
  8
Layer_1
 62
7
100
AcDbSpline
 70
8
 71
3
 72
8
 73
4
 74
0
 40
0
 40
0
 40
0
 40
0
 40
1
 40
1
 40
1
 40
1
 10
35.955448
 20
90.779440
 30
0.0
 10
35.956217
 20
89.528700
 30
0.0
 10
36.403639
 20
88.391340
 30
0.0
 10
37.103524
 20
87.860370
 30
0.0
  0
SPLINE
  5
13d
100
AcDbEntity
  8
Layer_1
 62
7
100
AcDbSpline
 70
8
 71
3
 72
8
 73
4
 74
0
 40
0
 40
0
 40
0
 40
0
 40
1
 40
1
 40
1
 40
1
 10
37.103524
 20
87.860370
 30
0.0
 10
36.403639
 20
87.329410
 30
0.0
 10
35.956311
 20
86.192050
 30
0.0
 10
35.955448
 20
84.941320
 30
0.0
  0
SPLINE
  5
13e
100
AcDbEntity
  8
Layer_1
 62
7
100
AcDbSpline
 70
8
 71
3
 72
8
 73
4
 74
0
 40
0
 40
0
 40
0
 40
0
 40
1
 40
1
 40
1
 40
1
 10
35.955448
 20
84.941320
 30
0.0
 10
35.956548
 20
83.690770
 30
0.0
 10
36.403739
 20
82.553650
 30
0.0
 10
37.103524
 20
82.022770
 30
0.0
  0
SPLINE
  5
13f
100
AcDbEntity
  8
Layer_1
 62
7
100
AcDbSpline
 70
8
 71
3
 72
8
 73
4
 74
0
 40
0
 40
0
 40
0
 40
0
 40
1
 40
1
 40
1
 40
1
 10
37.103524
 20
82.022770
 30
0.0
 10
36.403639
 20
81.491810
 30
0.0
 10
35.956311
 20
80.354450
 30
0.0
 10
35.955448
 20
79.103710
 30
0.0
  0
SPLINE
  5
140
100
AcDbEntity
  8
Layer_1
 62
7
100
AcDbSpline
 70
8
 71
3
 72
8
 73
4
 74
0
 40
0
 40
0
 40
0
 40
0
 40
1
 40
1
 40
1
 40
1
 10
35.955448
 20
79.103710
 30
0.0
 10
35.956548
 20
77.852420
 30
0.0
 10
36.404152
 20
76.714710
 30
0.0
 10
37.104535
 20
76.184150
 30
0.0
  0
SPLINE
  5
141
100
AcDbEntity
  8
Layer_1
 62
7
100
AcDbSpline
 70
8
 71
3
 72
8
 73
4
 74
0
 40
0
 40
0
 40
0
 40
0
 40
1
 40
1
 40
1
 40
1
 10
37.104535
 20
76.184150
 30
0.0
 10
36.404460
 20
75.653820
 30
0.0
 10
35.956736
 20
74.516840
 30
0.0
 10
35.955448
 20
73.266100
 30
0.0
  0
SPLINE
  5
142
100
AcDbEntity
  8
Layer_1
 62
7
100
AcDbSpline
 70
8
 71
3
 72
8
 73
4
 74
0
 40
0
 40
0
 40
0
 40
0
 40
1
 40
1
 40
1
 40
1
 10
35.955448
 20
73.266100
 30
0.0
 10
35.956217
 20
72.015370
 30
0.0
 10
36.403639
 20
70.878010
 30
0.0
 10
37.103524
 20
70.347050
 30
0.0
  0
SPLINE
  5
143
100
AcDbEntity
  8
Layer_1
 62
7
100
AcDbSpline
 70
8
 71
3
 72
8
 73
4
 74
0
 40
0
 40
0
 40
0
 40
0
 40
1
 40
1
 40
1
 40
1
 10
37.103524
 20
70.347050
 30
0.0
 10
36.403739
 20
69.816160
 30
0.0
 10
35.956433
 20
68.679040
 30
0.0
 10
35.955448
 20
67.428490
 30
0.0
  0
SPLINE
  5
144
100
AcDbEntity
  8
Layer_1
 62
7
100
AcDbSpline
 70
8
 71
3
 72
8
 73
4
 74
0
 40
0
 40
0
 40
0
 40
0
 40
1
 40
1
 40
1
 40
1
 10
35.955448
 20
67.428490
 30
0.0
 10
35.956217
 20
66.177760
 30
0.0
 10
36.403639
 20
65.040400
 30
0.0
 10
37.103524
 20
64.509440
 30
0.0
  0
SPLINE
  5
145
100
AcDbEntity
  8
Layer_1
 62
7
100
AcDbSpline
 70
8
 71
3
 72
8
 73
4
 74
0
 40
0
 40
0
 40
0
 40
0
 40
1
 40
1
 40
1
 40
1
 10
37.103524
 20
64.509440
 30
0.0
 10
36.403639
 20
63.978470
 30
0.0
 10
35.956311
 20
62.841110
 30
0.0
 10
35.955448
 20
61.590380
 30
0.0
  0
SPLINE
  5
146
100
AcDbEntity
  8
Layer_1
 62
7
100
AcDbSpline
 70
8
 71
3
 72
8
 73
4
 74
0
 40
0
 40
0
 40
0
 40
0
 40
1
 40
1
 40
1
 40
1
 10
35.955448
 20
61.590380
 30
0.0
 10
35.956548
 20
60.339830
 30
0.0
 10
36.403739
 20
59.202720
 30
0.0
 10
37.103524
 20
58.671830
 30
0.0
  0
SPLINE
  5
147
100
AcDbEntity
  8
Layer_1
 62
7
100
AcDbSpline
 70
8
 71
3
 72
8
 73
4
 74
0
 40
0
 40
0
 40
0
 40
0
 40
1
 40
1
 40
1
 40
1
 10
37.103524
 20
58.671830
 30
0.0
 10
36.403639
 20
58.140870
 30
0.0
 10
35.956311
 20
57.003510
 30
0.0
 10
35.955448
 20
55.752770
 30
0.0
  0
SPLINE
  5
148
100
AcDbEntity
  8
Layer_1
 62
7
100
AcDbSpline
 70
8
 71
3
 72
8
 73
4
 74
0
 40
0
 40
0
 40
0
 40
0
 40
1
 40
1
 40
1
 40
1
 10
35.955448
 20
55.752770
 30
0.0
 10
35.956217
 20
54.502030
 30
0.0
 10
36.403639
 20
53.364670
 30
0.0
 10
37.103524
 20
52.833720
 30
0.0
  0
SPLINE
  5
149
100
AcDbEntity
  8
Layer_1
 62
7
100
AcDbSpline
 70
8
 71
3
 72
8
 73
4
 74
0
 40
0
 40
0
 40
0
 40
0
 40
1
 40
1
 40
1
 40
1
 10
37.103524
 20
52.833720
 30
0.0
 10
36.403739
 20
52.302830
 30
0.0
 10
35.956433
 20
51.165720
 30
0.0
 10
35.955448
 20
49.915170
 30
0.0
  0
SPLINE
  5
14a
100
AcDbEntity
  8
Layer_1
 62
7
100
AcDbSpline
 70
8
 71
3
 72
8
 73
4
 74
0
 40
0
 40
0
 40
0
 40
0
 40
1
 40
1
 40
1
 40
1
 10
35.955448
 20
49.915170
 30
0.0
 10
35.956217
 20
48.664430
 30
0.0
 10
36.403639
 20
47.527070
 30
0.0
 10
37.103524
 20
46.996110
 30
0.0
  0
SPLINE
  5
14b
100
AcDbEntity
  8
Layer_1
 62
7
100
AcDbSpline
 70
8
 71
3
 72
8
 73
4
 74
0
 40
0
 40
0
 40
0
 40
0
 40
1
 40
1
 40
1
 40
1
 10
37.103524
 20
46.996110
 30
0.0
 10
36.403639
 20
46.465150
 30
0.0
 10
35.956311
 20
45.327790
 30
0.0
 10
35.955448
 20
44.077050
 30
0.0
  0
SPLINE
  5
14c
100
AcDbEntity
  8
Layer_1
 62
7
100
AcDbSpline
 70
8
 71
3
 72
8
 73
4
 74
0
 40
0
 40
0
 40
0
 40
0
 40
1
 40
1
 40
1
 40
1
 10
35.955448
 20
44.077050
 30
0.0
 10
35.956548
 20
42.825940
 30
0.0
 10
36.404255
 20
41.688490
 30
0.0
 10
37.104535
 20
41.158000
 30
0.0
  0
SPLINE
  5
14d
100
AcDbEntity
  8
Layer_1
 62
7
100
AcDbSpline
 70
8
 71
3
 72
8
 73
4
 74
0
 40
0
 40
0
 40
0
 40
0
 40
1
 40
1
 40
1
 40
1
 10
37.104535
 20
41.158000
 30
0.0
 10
36.404357
 20
40.627590
 30
0.0
 10
35.956617
 20
39.490370
 30
0.0
 10
35.955448
 20
38.239450
 30
0.0
  0
SPLINE
  5
14e
100
AcDbEntity
  8
Layer_1
 62
7
100
AcDbSpline
 70
8
 71
3
 72
8
 73
4
 74
0
 40
0
 40
0
 40
0
 40
0
 40
1
 40
1
 40
1
 40
1
 10
35.955448
 20
38.239450
 30
0.0
 10
35.956548
 20
36.988900
 30
0.0
 10
36.403739
 20
35.851780
 30
0.0
 10
37.103524
 20
35.320890
 30
0.0
  0
SPLINE
  5
14f
100
AcDbEntity
  8
Layer_1
 62
7
100
AcDbSpline
 70
8
 71
3
 72
8
 73
4
 74
0
 40
0
 40
0
 40
0
 40
0
 40
1
 40
1
 40
1
 40
1
 10
37.103524
 20
35.320890
 30
0.0
 10
36.403639
 20
34.789930
 30
0.0
 10
35.956311
 20
33.652570
 30
0.0
 10
35.955448
 20
32.401840
 30
0.0
  0
SPLINE
  5
150
100
AcDbEntity
  8
Layer_1
 62
7
100
AcDbSpline
 70
8
 71
3
 72
8
 73
4
 74
0
 40
0
 40
0
 40
0
 40
0
 40
1
 40
1
 40
1
 40
1
 10
35.955448
 20
32.401840
 30
0.0
 10
35.956217
 20
31.151100
 30
0.0
 10
36.403639
 20
30.013740
 30
0.0
 10
37.103524
 20
29.482780
 30
0.0
  0
SPLINE
  5
151
100
AcDbEntity
  8
Layer_1
 62
7
100
AcDbSpline
 70
8
 71
3
 72
8
 73
4
 74
0
 40
0
 40
0
 40
0
 40
0
 40
1
 40
1
 40
1
 40
1
 10
37.103524
 20
29.482780
 30
0.0
 10
36.403639
 20
28.951820
 30
0.0
 10
35.956311
 20
27.814460
 30
0.0
 10
35.955448
 20
26.563730
 30
0.0
  0
SPLINE
  5
152
100
AcDbEntity
  8
Layer_1
 62
7
100
AcDbSpline
 70
8
 71
3
 72
8
 73
4
 74
0
 40
0
 40
0
 40
0
 40
0
 40
1
 40
1
 40
1
 40
1
 10
35.955448
 20
26.563730
 30
0.0
 10
35.956548
 20
25.313180
 30
0.0
 10
36.403739
 20
24.176060
 30
0.0
 10
37.103524
 20
23.645170
 30
0.0
  0
SPLINE
  5
153
100
AcDbEntity
  8
Layer_1
 62
7
100
AcDbSpline
 70
8
 71
3
 72
8
 73
4
 74
0
 40
0
 40
0
 40
0
 40
0
 40
1
 40
1
 40
1
 40
1
 10
37.103524
 20
23.645170
 30
0.0
 10
36.403639
 20
23.114210
 30
0.0
 10
35.956311
 20
21.976850
 30
0.0
 10
35.955448
 20
20.726120
 30
0.0
  0
SPLINE
  5
154
100
AcDbEntity
  8
Layer_1
 62
7
100
AcDbSpline
 70
8
 71
3
 72
8
 73
4
 74
0
 40
0
 40
0
 40
0
 40
0
 40
1
 40
1
 40
1
 40
1
 10
35.955448
 20
20.726120
 30
0.0
 10
35.956548
 20
19.475570
 30
0.0
 10
36.403739
 20
18.338450
 30
0.0
 10
37.103524
 20
17.807570
 30
0.0
  0
SPLINE
  5
155
100
AcDbEntity
  8
Layer_1
 62
7
100
AcDbSpline
 70
8
 71
3
 72
8
 73
4
 74
0
 40
0
 40
0
 40
0
 40
0
 40
1
 40
1
 40
1
 40
1
 10
37.103524
 20
17.807570
 30
0.0
 10
36.403639
 20
17.276600
 30
0.0
 10
35.956311
 20
16.139240
 30
0.0
 10
35.955448
 20
14.888510
 30
0.0
  0
SPLINE
  5
156
100
AcDbEntity
  8
Layer_1
 62
7
100
AcDbSpline
 70
8
 71
3
 72
8
 73
4
 74
0
 40
0
 40
0
 40
0
 40
0
 40
1
 40
1
 40
1
 40
1
 10
35.955448
 20
14.888510
 30
0.0
 10
35.956217
 20
13.637780
 30
0.0
 10
36.403639
 20
12.500420
 30
0.0
 10
37.103524
 20
11.969450
 30
0.0
  0
SPLINE
  5
157
100
AcDbEntity
  8
Layer_1
 62
7
100
AcDbSpline
 70
8
 71
3
 72
8
 73
4
 74
0
 40
0
 40
0
 40
0
 40
0
 40
1
 40
1
 40
1
 40
1
 10
37.103524
 20
11.969450
 30
0.0
 10
36.403739
 20
11.438570
 30
0.0
 10
35.956433
 20
10.301450
 30
0.0
 10
35.955448
 20
9.050900
 30
0.0
  0
SPLINE
  5
158
100
AcDbEntity
  8
Layer_1
 62
7
100
AcDbSpline
 70
8
 71
3
 72
8
 73
4
 74
0
 40
0
 40
0
 40
0
 40
0
 40
1
 40
1
 40
1
 40
1
 10
35.955448
 20
9.050900
 30
0.0
 10
35.956217
 20
7.834010
 30
0.0
 10
36.379984
 20
6.721280
 30
0.0
 10
37.051362
 20
6.172870
 30
0.0
  0
SPLINE
  5
159
100
AcDbEntity
  8
Layer_1
 62
7
100
AcDbSpline
 70
8
 71
3
 72
8
 73
4
 74
0
 40
0
 40
0
 40
0
 40
0
 40
1
 40
1
 40
1
 40
1
 10
37.051362
 20
6.172870
 30
0.0
 10
36.379833
 20
5.751560
 30
0.0
 10
35.956096
 20
4.896650
 30
0.0
 10
35.955448
 20
3.961800
 30
0.0
  0
SPLINE
  5
15a
100
AcDbEntity
  8
Layer_1
 62
7
100
AcDbSpline
 70
8
 71
3
 72
8
 73
4
 74
0
 40
0
 40
0
 40
0
 40
0
 40
1
 40
1
 40
1
 40
1
 10
35.955448
 20
3.961800
 30
0.0
 10
35.955347
 20
2.592540
 30
0.0
 10
36.848461
 20
1.482440
 30
0.0
 10
37.950272
 20
1.482320
 30
0.0
  0
SPLINE
  5
15b
100
AcDbEntity
  8
Layer_1
 62
7
100
AcDbSpline
 70
8
 71
3
 72
8
 73
4
 74
0
 40
0
 40
0
 40
0
 40
0
 40
1
 40
1
 40
1
 40
1
 10
37.950272
 20
1.482320
 30
0.0
 10
38.373949
 20
1.483020
 30
0.0
 10
38.786345
 20
1.652090
 30
0.0
 10
39.127720
 20
1.963930
 30
0.0
  0
SPLINE
  5
15c
100
AcDbEntity
  8
Layer_1
 62
7
100
AcDbSpline
 70
8
 71
3
 72
8
 73
4
 74
0
 40
0
 40
0
 40
0
 40
0
 40
1
 40
1
 40
1
 40
1
 10
39.127720
 20
1.963930
 30
0.0
 10
39.128239
 20
0.879160
 30
0.0
 10
40.551268
 20
-0.000120
 30
0.0
 10
42.306574
 20
-0.000000
 30
0.0
  0
SPLINE
  5
15d
100
AcDbEntity
  8
Layer_1
 62
7
100
AcDbSpline
 70
8
 71
3
 72
8
 73
4
 74
0
 40
0
 40
0
 40
0
 40
0
 40
1
 40
1
 40
1
 40
1
 10
42.306574
 20
-0.000000
 30
0.0
 10
43.562534
 20
0.000520
 30
0.0
 10
44.700121
 20
0.458290
 30
0.0
 10
45.209427
 20
1.167820
 30
0.0
  0
SPLINE
  5
15e
100
AcDbEntity
  8
Layer_1
 62
7
100
AcDbSpline
 70
8
 71
3
 72
8
 73
4
 74
0
 40
0
 40
0
 40
0
 40
0
 40
1
 40
1
 40
1
 40
1
 10
45.209427
 20
1.167820
 30
0.0
 10
45.718437
 20
0.458700
 30
0.0
 10
46.855029
 20
0.001130
 30
0.0
 10
48.110252
 20
-0.000000
 30
0.0
  0
SPLINE
  5
15f
100
AcDbEntity
  8
Layer_1
 62
7
100
AcDbSpline
 70
8
 71
3
 72
8
 73
4
 74
0
 40
0
 40
0
 40
0
 40
0
 40
1
 40
1
 40
1
 40
1
 10
48.110252
 20
-0.000000
 30
0.0
 10
49.366210
 20
0.000520
 30
0.0
 10
50.503797
 20
0.458290
 30
0.0
 10
51.013103
 20
1.167820
 30
0.0
  0
SPLINE
  5
160
100
AcDbEntity
  8
Layer_1
 62
7
100
AcDbSpline
 70
8
 71
3
 72
8
 73
4
 74
0
 40
0
 40
0
 40
0
 40
0
 40
1
 40
1
 40
1
 40
1
 10
51.013103
 20
1.167820
 30
0.0
 10
51.522194
 20
0.458600
 30
0.0
 10
52.659025
 20
0.001010
 30
0.0
 10
53.914434
 20
-0.000000
 30
0.0
  0
SPLINE
  5
161
100
AcDbEntity
  8
Layer_1
 62
7
100
AcDbSpline
 70
8
 71
3
 72
8
 73
4
 74
0
 40
0
 40
0
 40
0
 40
0
 40
1
 40
1
 40
1
 40
1
 10
53.914434
 20
-0.000000
 30
0.0
 10
55.170394
 20
0.000520
 30
0.0
 10
56.307979
 20
0.458290
 30
0.0
 10
56.817285
 20
1.167820
 30
0.0
  0
SPLINE
  5
162
100
AcDbEntity
  8
Layer_1
 62
7
100
AcDbSpline
 70
8
 71
3
 72
8
 73
4
 74
0
 40
0
 40
0
 40
0
 40
0
 40
1
 40
1
 40
1
 40
1
 10
56.817285
 20
1.167820
 30
0.0
 10
57.326298
 20
0.458700
 30
0.0
 10
58.462887
 20
0.001130
 30
0.0
 10
59.718110
 20
-0.000000
 30
0.0
  0
SPLINE
  5
163
100
AcDbEntity
  8
Layer_1
 62
7
100
AcDbSpline
 70
8
 71
3
 72
8
 73
4
 74
0
 40
0
 40
0
 40
0
 40
0
 40
1
 40
1
 40
1
 40
1
 10
59.718110
 20
-0.000000
 30
0.0
 10
60.974267
 20
0.000700
 30
0.0
 10
62.111902
 20
0.458600
 30
0.0
 10
62.620963
 20
1.168330
 30
0.0
  0
SPLINE
  5
164
100
AcDbEntity
  8
Layer_1
 62
7
100
AcDbSpline
 70
8
 71
3
 72
8
 73
4
 74
0
 40
0
 40
0
 40
0
 40
0
 40
1
 40
1
 40
1
 40
1
 10
62.620963
 20
1.168330
 30
0.0
 10
63.129808
 20
0.458910
 30
0.0
 10
64.266690
 20
0.001090
 30
0.0
 10
65.522294
 20
-0.000000
 30
0.0
  0
SPLINE
  5
165
100
AcDbEntity
  8
Layer_1
 62
7
100
AcDbSpline
 70
8
 71
3
 72
8
 73
4
 74
0
 40
0
 40
0
 40
0
 40
0
 40
1
 40
1
 40
1
 40
1
 10
65.522294
 20
-0.000000
 30
0.0
 10
66.778255
 20
0.000520
 30
0.0
 10
67.915839
 20
0.458290
 30
0.0
 10
68.425145
 20
1.167820
 30
0.0
  0
SPLINE
  5
166
100
AcDbEntity
  8
Layer_1
 62
7
100
AcDbSpline
 70
8
 71
3
 72
8
 73
4
 74
0
 40
0
 40
0
 40
0
 40
0
 40
1
 40
1
 40
1
 40
1
 10
68.425145
 20
1.167820
 30
0.0
 10
68.934234
 20
0.458600
 30
0.0
 10
70.071071
 20
0.001010
 30
0.0
 10
71.326479
 20
-0.000000
 30
0.0
  0
SPLINE
  5
167
100
AcDbEntity
  8
Layer_1
 62
7
100
AcDbSpline
 70
8
 71
3
 72
8
 73
4
 74
0
 40
0
 40
0
 40
0
 40
0
 40
1
 40
1
 40
1
 40
1
 10
71.326479
 20
-0.000000
 30
0.0
 10
72.582636
 20
0.000700
 30
0.0
 10
73.720269
 20
0.458600
 30
0.0
 10
74.229330
 20
1.168330
 30
0.0
  0
SPLINE
  5
168
100
AcDbEntity
  8
Layer_1
 62
7
100
AcDbSpline
 70
8
 71
3
 72
8
 73
4
 74
0
 40
0
 40
0
 40
0
 40
0
 40
1
 40
1
 40
1
 40
1
 10
74.229330
 20
1.168330
 30
0.0
 10
74.738097
 20
0.459010
 30
0.0
 10
75.874736
 20
0.001220
 30
0.0
 10
77.130158
 20
-0.000000
 30
0.0
  0
SPLINE
  5
169
100
AcDbEntity
  8
Layer_1
 62
7
100
AcDbSpline
 70
8
 71
3
 72
8
 73
4
 74
0
 40
0
 40
0
 40
0
 40
0
 40
1
 40
1
 40
1
 40
1
 10
77.130158
 20
-0.000000
 30
0.0
 10
78.386112
 20
0.000520
 30
0.0
 10
79.523703
 20
0.458290
 30
0.0
 10
80.033009
 20
1.167820
 30
0.0
  0
SPLINE
  5
16a
100
AcDbEntity
  8
Layer_1
 62
7
100
AcDbSpline
 70
8
 71
3
 72
8
 73
4
 74
0
 40
0
 40
0
 40
0
 40
0
 40
1
 40
1
 40
1
 40
1
 10
80.033009
 20
1.167820
 30
0.0
 10
80.542098
 20
0.458600
 30
0.0
 10
81.678933
 20
0.001000
 30
0.0
 10
82.934341
 20
-0.000000
 30
0.0
  0
SPLINE
  5
16b
100
AcDbEntity
  8
Layer_1
 62
7
100
AcDbSpline
 70
8
 71
3
 72
8
 73
4
 74
0
 40
0
 40
0
 40
0
 40
0
 40
1
 40
1
 40
1
 40
1
 10
82.934341
 20
-0.000000
 30
0.0
 10
84.190295
 20
0.000520
 30
0.0
 10
85.327886
 20
0.458290
 30
0.0
 10
85.837192
 20
1.167820
 30
0.0
  0
SPLINE
  5
16c
100
AcDbEntity
  8
Layer_1
 62
7
100
AcDbSpline
 70
8
 71
3
 72
8
 73
4
 74
0
 40
0
 40
0
 40
0
 40
0
 40
1
 40
1
 40
1
 40
1
 10
85.837192
 20
1.167820
 30
0.0
 10
86.346204
 20
0.458700
 30
0.0
 10
87.482794
 20
0.001130
 30
0.0
 10
88.738020
 20
-0.000000
 30
0.0
  0
SPLINE
  5
16d
100
AcDbEntity
  8
Layer_1
 62
7
100
AcDbSpline
 70
8
 71
3
 72
8
 73
4
 74
0
 40
0
 40
0
 40
0
 40
0
 40
1
 40
1
 40
1
 40
1
 10
88.738020
 20
-0.000000
 30
0.0
 10
89.993974
 20
0.000520
 30
0.0
 10
91.131561
 20
0.458290
 30
0.0
 10
91.640871
 20
1.167820
 30
0.0
  0
SPLINE
  5
16e
100
AcDbEntity
  8
Layer_1
 62
7
100
AcDbSpline
 70
8
 71
3
 72
8
 73
4
 74
0
 40
0
 40
0
 40
0
 40
0
 40
1
 40
1
 40
1
 40
1
 10
91.640871
 20
1.167820
 30
0.0
 10
92.149961
 20
0.458600
 30
0.0
 10
93.286791
 20
0.001010
 30
0.0
 10
94.542191
 20
-0.000000
 30
0.0
  0
SPLINE
  5
16f
100
AcDbEntity
  8
Layer_1
 62
7
100
AcDbSpline
 70
8
 71
3
 72
8
 73
4
 74
0
 40
0
 40
0
 40
0
 40
0
 40
1
 40
1
 40
1
 40
1
 10
94.542191
 20
-0.000000
 30
0.0
 10
95.798161
 20
0.000520
 30
0.0
 10
96.935741
 20
0.458290
 30
0.0
 10
97.445051
 20
1.167820
 30
0.0
  0
SPLINE
  5
170
100
AcDbEntity
  8
Layer_1
 62
7
100
AcDbSpline
 70
8
 71
3
 72
8
 73
4
 74
0
 40
0
 40
0
 40
0
 40
0
 40
1
 40
1
 40
1
 40
1
 10
97.445051
 20
1.167820
 30
0.0
 10
97.954061
 20
0.458700
 30
0.0
 10
99.090651
 20
0.001130
 30
0.0
 10
100.345870
 20
-0.000000
 30
0.0
  0
SPLINE
  5
171
100
AcDbEntity
  8
Layer_1
 62
7
100
AcDbSpline
 70
8
 71
3
 72
8
 73
4
 74
0
 40
0
 40
0
 40
0
 40
0
 40
1
 40
1
 40
1
 40
1
 10
100.345870
 20
-0.000000
 30
0.0
 10
101.601840
 20
0.000520
 30
0.0
 10
102.739420
 20
0.458290
 30
0.0
 10
103.248730
 20
1.167820
 30
0.0
  0
SPLINE
  5
172
100
AcDbEntity
  8
Layer_1
 62
7
100
AcDbSpline
 70
8
 71
3
 72
8
 73
4
 74
0
 40
0
 40
0
 40
0
 40
0
 40
1
 40
1
 40
1
 40
1
 10
103.248730
 20
1.167820
 30
0.0
 10
103.757820
 20
0.458600
 30
0.0
 10
104.894650
 20
0.001010
 30
0.0
 10
106.150060
 20
-0.000000
 30
0.0
  0
SPLINE
  5
173
100
AcDbEntity
  8
Layer_1
 62
7
100
AcDbSpline
 70
8
 71
3
 72
8
 73
4
 74
0
 40
0
 40
0
 40
0
 40
0
 40
1
 40
1
 40
1
 40
1
 10
106.150060
 20
-0.000000
 30
0.0
 10
107.406020
 20
0.000520
 30
0.0
 10
108.543600
 20
0.458290
 30
0.0
 10
109.052910
 20
1.167820
 30
0.0
  0
SPLINE
  5
174
100
AcDbEntity
  8
Layer_1
 62
7
100
AcDbSpline
 70
8
 71
3
 72
8
 73
4
 74
0
 40
0
 40
0
 40
0
 40
0
 40
1
 40
1
 40
1
 40
1
 10
109.052910
 20
1.167820
 30
0.0
 10
109.562000
 20
0.458600
 30
0.0
 10
110.698830
 20
0.001010
 30
0.0
 10
111.954240
 20
-0.000000
 30
0.0
  0
SPLINE
  5
175
100
AcDbEntity
  8
Layer_1
 62
7
100
AcDbSpline
 70
8
 71
3
 72
8
 73
4
 74
0
 40
0
 40
0
 40
0
 40
0
 40
1
 40
1
 40
1
 40
1
 10
111.954240
 20
-0.000000
 30
0.0
 10
113.210400
 20
0.000700
 30
0.0
 10
114.348030
 20
0.458590
 30
0.0
 10
114.857090
 20
1.168330
 30
0.0
  0
SPLINE
  5
176
100
AcDbEntity
  8
Layer_1
 62
7
100
AcDbSpline
 70
8
 71
3
 72
8
 73
4
 74
0
 40
0
 40
0
 40
0
 40
0
 40
1
 40
1
 40
1
 40
1
 10
114.857090
 20
1.168330
 30
0.0
 10
115.365860
 20
0.459010
 30
0.0
 10
116.502510
 20
0.001220
 30
0.0
 10
117.757920
 20
-0.000000
 30
0.0
  0
SPLINE
  5
177
100
AcDbEntity
  8
Layer_1
 62
7
100
AcDbSpline
 70
8
 71
3
 72
8
 73
4
 74
0
 40
0
 40
0
 40
0
 40
0
 40
1
 40
1
 40
1
 40
1
 10
117.757920
 20
-0.000000
 30
0.0
 10
119.013890
 20
0.000520
 30
0.0
 10
120.151460
 20
0.458290
 30
0.0
 10
120.660770
 20
1.167820
 30
0.0
  0
SPLINE
  5
178
100
AcDbEntity
  8
Layer_1
 62
7
100
AcDbSpline
 70
8
 71
3
 72
8
 73
4
 74
0
 40
0
 40
0
 40
0
 40
0
 40
1
 40
1
 40
1
 40
1
 10
120.660770
 20
1.167820
 30
0.0
 10
121.169860
 20
0.458600
 30
0.0
 10
122.306690
 20
0.001010
 30
0.0
 10
123.562100
 20
-0.000000
 30
0.0
  0
SPLINE
  5
179
100
AcDbEntity
  8
Layer_1
 62
7
100
AcDbSpline
 70
8
 71
3
 72
8
 73
4
 74
0
 40
0
 40
0
 40
0
 40
0
 40
1
 40
1
 40
1
 40
1
 10
123.562100
 20
-0.000000
 30
0.0
 10
124.818250
 20
0.000700
 30
0.0
 10
125.955890
 20
0.458600
 30
0.0
 10
126.464950
 20
1.168330
 30
0.0
  0
SPLINE
  5
17a
100
AcDbEntity
  8
Layer_1
 62
7
100
AcDbSpline
 70
8
 71
3
 72
8
 73
4
 74
0
 40
0
 40
0
 40
0
 40
0
 40
1
 40
1
 40
1
 40
1
 10
126.464950
 20
1.168330
 30
0.0
 10
126.973720
 20
0.459010
 30
0.0
 10
128.110360
 20
0.001220
 30
0.0
 10
129.365780
 20
-0.000000
 30
0.0
  0
SPLINE
  5
17b
100
AcDbEntity
  8
Layer_1
 62
7
100
AcDbSpline
 70
8
 71
3
 72
8
 73
4
 74
0
 40
0
 40
0
 40
0
 40
0
 40
1
 40
1
 40
1
 40
1
 10
129.365780
 20
-0.000000
 30
0.0
 10
130.621740
 20
0.000520
 30
0.0
 10
131.759330
 20
0.458290
 30
0.0
 10
132.268630
 20
1.167820
 30
0.0
  0
SPLINE
  5
17c
100
AcDbEntity
  8
Layer_1
 62
7
100
AcDbSpline
 70
8
 71
3
 72
8
 73
4
 74
0
 40
0
 40
0
 40
0
 40
0
 40
1
 40
1
 40
1
 40
1
 10
132.268630
 20
1.167820
 30
0.0
 10
132.777720
 20
0.458600
 30
0.0
 10
133.914550
 20
0.001000
 30
0.0
 10
135.169960
 20
-0.000000
 30
0.0
  0
SPLINE
  5
17d
100
AcDbEntity
  8
Layer_1
 62
7
100
AcDbSpline
 70
8
 71
3
 72
8
 73
4
 74
0
 40
0
 40
0
 40
0
 40
0
 40
1
 40
1
 40
1
 40
1
 10
135.169960
 20
-0.000000
 30
0.0
 10
136.425920
 20
0.000520
 30
0.0
 10
137.563500
 20
0.458290
 30
0.0
 10
138.072810
 20
1.167820
 30
0.0
  0
SPLINE
  5
17e
100
AcDbEntity
  8
Layer_1
 62
7
100
AcDbSpline
 70
8
 71
3
 72
8
 73
4
 74
0
 40
0
 40
0
 40
0
 40
0
 40
1
 40
1
 40
1
 40
1
 10
138.072810
 20
1.167820
 30
0.0
 10
138.581830
 20
0.458700
 30
0.0
 10
139.718410
 20
0.001130
 30
0.0
 10
140.973640
 20
-0.000000
 30
0.0
  0
SPLINE
  5
17f
100
AcDbEntity
  8
Layer_1
 62
7
100
AcDbSpline
 70
8
 71
3
 72
8
 73
4
 74
0
 40
0
 40
0
 40
0
 40
0
 40
1
 40
1
 40
1
 40
1
 10
140.973640
 20
-0.000000
 30
0.0
 10
142.229600
 20
0.000520
 30
0.0
 10
143.367180
 20
0.458290
 30
0.0
 10
143.876490
 20
1.167820
 30
0.0
  0
SPLINE
  5
180
100
AcDbEntity
  8
Layer_1
 62
7
100
AcDbSpline
 70
8
 71
3
 72
8
 73
4
 74
0
 40
0
 40
0
 40
0
 40
0
 40
1
 40
1
 40
1
 40
1
 10
143.876490
 20
1.167820
 30
0.0
 10
144.385580
 20
0.458600
 30
0.0
 10
145.522410
 20
0.001010
 30
0.0
 10
146.777820
 20
-0.000000
 30
0.0
  0
SPLINE
  5
181
100
AcDbEntity
  8
Layer_1
 62
7
100
AcDbSpline
 70
8
 71
3
 72
8
 73
4
 74
0
 40
0
 40
0
 40
0
 40
0
 40
1
 40
1
 40
1
 40
1
 10
146.777820
 20
-0.000000
 30
0.0
 10
148.033780
 20
0.000520
 30
0.0
 10
149.171360
 20
0.458290
 30
0.0
 10
149.680670
 20
1.167820
 30
0.0
  0
SPLINE
  5
182
100
AcDbEntity
  8
Layer_1
 62
7
100
AcDbSpline
 70
8
 71
3
 72
8
 73
4
 74
0
 40
0
 40
0
 40
0
 40
0
 40
1
 40
1
 40
1
 40
1
 10
149.680670
 20
1.167820
 30
0.0
 10
150.189680
 20
0.458700
 30
0.0
 10
151.326270
 20
0.001130
 30
0.0
 10
152.581500
 20
-0.000000
 30
0.0
  0
SPLINE
  5
183
100
AcDbEntity
  8
Layer_1
 62
7
100
AcDbSpline
 70
8
 71
3
 72
8
 73
4
 74
0
 40
0
 40
0
 40
0
 40
0
 40
1
 40
1
 40
1
 40
1
 10
152.581500
 20
-0.000000
 30
0.0
 10
154.240360
 20
-0.000110
 30
0.0
 10
156.513280
 20
3.036910
 30
0.0
 10
156.513410
 20
3.838230
 30
0.0
  0
SPLINE
  5
184
100
AcDbEntity
  8
Layer_1
 62
7
100
AcDbSpline
 70
8
 71
3
 72
8
 73
4
 74
0
 40
0
 40
0
 40
0
 40
0
 40
1
 40
1
 40
1
 40
1
 10
156.513410
 20
3.838230
 30
0.0
 10
156.512710
 20
4.823550
 30
0.0
 10
156.085100
 20
5.723700
 30
0.0
 10
155.409390
 20
6.163750
 30
0.0
  0
SPLINE
  5
185
100
AcDbEntity
  8
Layer_1
 62
7
100
AcDbSpline
 70
8
 71
3
 72
8
 73
4
 74
0
 40
0
 40
0
 40
0
 40
0
 40
1
 40
1
 40
1
 40
1
 10
155.409390
 20
6.163750
 30
0.0
 10
156.085730
 20
6.709990
 30
0.0
 10
156.513170
 20
7.827810
 30
0.0
 10
156.513410
 20
9.050900
 30
0.0
  0
SPLINE
  5
186
100
AcDbEntity
  8
Layer_1
 62
7
100
AcDbSpline
 70
8
 71
3
 72
8
 73
4
 74
0
 40
0
 40
0
 40
0
 40
0
 40
1
 40
1
 40
1
 40
1
 10
156.513410
 20
9.050900
 30
0.0
 10
156.512410
 20
10.301460
 30
0.0
 10
156.064710
 20
11.438380
 30
0.0
 10
155.364830
 20
11.968940
 30
0.0
  0
SPLINE
  5
187
100
AcDbEntity
  8
Layer_1
 62
7
100
AcDbSpline
 70
8
 71
3
 72
8
 73
4
 74
0
 40
0
 40
0
 40
0
 40
0
 40
1
 40
1
 40
1
 40
1
 10
155.364830
 20
11.968940
 30
0.0
 10
156.065010
 20
12.499750
 30
0.0
 10
156.512580
 20
13.637410
 30
0.0
 10
156.513410
 20
14.888510
 30
0.0
  0
SPLINE
  5
188
100
AcDbEntity
  8
Layer_1
 62
7
100
AcDbSpline
 70
8
 71
3
 72
8
 73
4
 74
0
 40
0
 40
0
 40
0
 40
0
 40
1
 40
1
 40
1
 40
1
 10
156.513410
 20
14.888510
 30
0.0
 10
156.512710
 20
16.139060
 30
0.0
 10
156.065120
 20
17.276170
 30
0.0
 10
155.365340
 20
17.807060
 30
0.0
  0
SPLINE
  5
189
100
AcDbEntity
  8
Layer_1
 62
7
100
AcDbSpline
 70
8
 71
3
 72
8
 73
4
 74
0
 40
0
 40
0
 40
0
 40
0
 40
1
 40
1
 40
1
 40
1
 10
155.365340
 20
17.807060
 30
0.0
 10
156.065220
 20
18.338030
 30
0.0
 10
156.512550
 20
19.475390
 30
0.0
 10
156.513410
 20
20.726120
 30
0.0
  0
SPLINE
  5
18a
100
AcDbEntity
  8
Layer_1
 62
7
100
AcDbSpline
 70
8
 71
3
 72
8
 73
4
 74
0
 40
0
 40
0
 40
0
 40
0
 40
1
 40
1
 40
1
 40
1
 10
156.513410
 20
20.726120
 30
0.0
 10
156.512710
 20
21.976860
 30
0.0
 10
156.064810
 20
23.114020
 30
0.0
 10
155.364830
 20
23.644670
 30
0.0
  0
SPLINE
  5
18b
100
AcDbEntity
  8
Layer_1
 62
7
100
AcDbSpline
 70
8
 71
3
 72
8
 73
4
 74
0
 40
0
 40
0
 40
0
 40
0
 40
1
 40
1
 40
1
 40
1
 10
155.364830
 20
23.644670
 30
0.0
 10
156.064920
 20
24.175400
 30
0.0
 10
156.512460
 20
25.312800
 30
0.0
 10
156.513410
 20
26.563730
 30
0.0
  0
SPLINE
  5
18c
100
AcDbEntity
  8
Layer_1
 62
7
100
AcDbSpline
 70
8
 71
3
 72
8
 73
4
 74
0
 40
0
 40
0
 40
0
 40
0
 40
1
 40
1
 40
1
 40
1
 10
156.513410
 20
26.563730
 30
0.0
 10
156.512710
 20
27.814460
 30
0.0
 10
156.064810
 20
28.951630
 30
0.0
 10
155.364830
 20
29.482280
 30
0.0
  0
SPLINE
  5
18d
100
AcDbEntity
  8
Layer_1
 62
7
100
AcDbSpline
 70
8
 71
3
 72
8
 73
4
 74
0
 40
0
 40
0
 40
0
 40
0
 40
1
 40
1
 40
1
 40
1
 10
155.364830
 20
29.482280
 30
0.0
 10
156.065010
 20
30.013080
 30
0.0
 10
156.512580
 20
31.150730
 30
0.0
 10
156.513410
 20
32.401840
 30
0.0
  0
SPLINE
  5
18e
100
AcDbEntity
  8
Layer_1
 62
7
100
AcDbSpline
 70
8
 71
3
 72
8
 73
4
 74
0
 40
0
 40
0
 40
0
 40
0
 40
1
 40
1
 40
1
 40
1
 10
156.513410
 20
32.401840
 30
0.0
 10
156.512710
 20
33.652390
 30
0.0
 10
156.065120
 20
34.789500
 30
0.0
 10
155.365340
 20
35.320390
 30
0.0
  0
SPLINE
  5
18f
100
AcDbEntity
  8
Layer_1
 62
7
100
AcDbSpline
 70
8
 71
3
 72
8
 73
4
 74
0
 40
0
 40
0
 40
0
 40
0
 40
1
 40
1
 40
1
 40
1
 10
155.365340
 20
35.320390
 30
0.0
 10
156.065220
 20
35.851350
 30
0.0
 10
156.512550
 20
36.988710
 30
0.0
 10
156.513410
 20
38.239450
 30
0.0
  0
SPLINE
  5
190
100
AcDbEntity
  8
Layer_1
 62
7
100
AcDbSpline
 70
8
 71
3
 72
8
 73
4
 74
0
 40
0
 40
0
 40
0
 40
0
 40
1
 40
1
 40
1
 40
1
 10
156.513410
 20
38.239450
 30
0.0
 10
156.512710
 20
39.490180
 30
0.0
 10
156.064810
 20
40.627350
 30
0.0
 10
155.364830
 20
41.158000
 30
0.0
  0
SPLINE
  5
191
100
AcDbEntity
  8
Layer_1
 62
7
100
AcDbSpline
 70
8
 71
3
 72
8
 73
4
 74
0
 40
0
 40
0
 40
0
 40
0
 40
1
 40
1
 40
1
 40
1
 10
155.364830
 20
41.158000
 30
0.0
 10
156.064920
 20
41.688720
 30
0.0
 10
156.512460
 20
42.826130
 30
0.0
 10
156.513410
 20
44.077050
 30
0.0
  0
SPLINE
  5
192
100
AcDbEntity
  8
Layer_1
 62
7
100
AcDbSpline
 70
8
 71
3
 72
8
 73
4
 74
0
 40
0
 40
0
 40
0
 40
0
 40
1
 40
1
 40
1
 40
1
 10
156.513410
 20
44.077050
 30
0.0
 10
156.512710
 20
45.327790
 30
0.0
 10
156.064810
 20
46.464960
 30
0.0
 10
155.364830
 20
46.995610
 30
0.0
  0
SPLINE
  5
193
100
AcDbEntity
  8
Layer_1
 62
7
100
AcDbSpline
 70
8
 71
3
 72
8
 73
4
 74
0
 40
0
 40
0
 40
0
 40
0
 40
1
 40
1
 40
1
 40
1
 10
155.364830
 20
46.995610
 30
0.0
 10
156.065010
 20
47.526410
 30
0.0
 10
156.512580
 20
48.664060
 30
0.0
 10
156.513410
 20
49.915170
 30
0.0
  0
SPLINE
  5
194
100
AcDbEntity
  8
Layer_1
 62
7
100
AcDbSpline
 70
8
 71
3
 72
8
 73
4
 74
0
 40
0
 40
0
 40
0
 40
0
 40
1
 40
1
 40
1
 40
1
 10
156.513410
 20
49.915170
 30
0.0
 10
156.512410
 20
51.165720
 30
0.0
 10
156.064710
 20
52.302640
 30
0.0
 10
155.364830
 20
52.833210
 30
0.0
  0
SPLINE
  5
195
100
AcDbEntity
  8
Layer_1
 62
7
100
AcDbSpline
 70
8
 71
3
 72
8
 73
4
 74
0
 40
0
 40
0
 40
0
 40
0
 40
1
 40
1
 40
1
 40
1
 10
155.364830
 20
52.833210
 30
0.0
 10
156.065010
 20
53.364020
 30
0.0
 10
156.512580
 20
54.501670
 30
0.0
 10
156.513410
 20
55.752770
 30
0.0
  0
SPLINE
  5
196
100
AcDbEntity
  8
Layer_1
 62
7
100
AcDbSpline
 70
8
 71
3
 72
8
 73
4
 74
0
 40
0
 40
0
 40
0
 40
0
 40
1
 40
1
 40
1
 40
1
 10
156.513410
 20
55.752770
 30
0.0
 10
156.512710
 20
57.003320
 30
0.0
 10
156.065120
 20
58.140440
 30
0.0
 10
155.365340
 20
58.671330
 30
0.0
  0
SPLINE
  5
197
100
AcDbEntity
  8
Layer_1
 62
7
100
AcDbSpline
 70
8
 71
3
 72
8
 73
4
 74
0
 40
0
 40
0
 40
0
 40
0
 40
1
 40
1
 40
1
 40
1
 10
155.365340
 20
58.671330
 30
0.0
 10
156.065220
 20
59.202290
 30
0.0
 10
156.512550
 20
60.339650
 30
0.0
 10
156.513410
 20
61.590380
 30
0.0
  0
SPLINE
  5
198
100
AcDbEntity
  8
Layer_1
 62
7
100
AcDbSpline
 70
8
 71
3
 72
8
 73
4
 74
0
 40
0
 40
0
 40
0
 40
0
 40
1
 40
1
 40
1
 40
1
 10
156.513410
 20
61.590380
 30
0.0
 10
156.512710
 20
62.841120
 30
0.0
 10
156.064810
 20
63.978280
 30
0.0
 10
155.364830
 20
64.508930
 30
0.0
  0
SPLINE
  5
199
100
AcDbEntity
  8
Layer_1
 62
7
100
AcDbSpline
 70
8
 71
3
 72
8
 73
4
 74
0
 40
0
 40
0
 40
0
 40
0
 40
1
 40
1
 40
1
 40
1
 10
155.364830
 20
64.508930
 30
0.0
 10
156.064920
 20
65.039660
 30
0.0
 10
156.512460
 20
66.177070
 30
0.0
 10
156.513410
 20
67.427990
 30
0.0
  0
SPLINE
  5
19a
100
AcDbEntity
  8
Layer_1
 62
7
100
AcDbSpline
 70
8
 71
3
 72
8
 73
4
 74
0
 40
0
 40
0
 40
0
 40
0
 40
1
 40
1
 40
1
 40
1
 10
156.513410
 20
67.427990
 30
0.0
 10
156.511410
 20
68.679110
 30
0.0
 10
156.063370
 20
69.815980
 30
0.0
 10
155.362800
 20
70.345530
 30
0.0
  0
SPLINE
  5
19b
100
AcDbEntity
  8
Layer_1
 62
7
100
AcDbSpline
 70
8
 71
3
 72
8
 73
4
 74
0
 40
0
 40
0
 40
0
 40
0
 40
1
 40
1
 40
1
 40
1
 10
155.362800
 20
70.345530
 30
0.0
 10
156.063980
 20
70.875530
 30
0.0
 10
156.512450
 20
72.013880
 30
0.0
 10
156.513410
 20
73.266100
 30
0.0
  0
SPLINE
  5
19c
100
AcDbEntity
  8
Layer_1
 62
7
100
AcDbSpline
 70
8
 71
3
 72
8
 73
4
 74
0
 40
0
 40
0
 40
0
 40
0
 40
1
 40
1
 40
1
 40
1
 10
156.513410
 20
73.266100
 30
0.0
 10
156.512710
 20
74.516650
 30
0.0
 10
156.065120
 20
75.653770
 30
0.0
 10
155.365340
 20
76.184650
 30
0.0
  0
SPLINE
  5
19d
100
AcDbEntity
  8
Layer_1
 62
7
100
AcDbSpline
 70
8
 71
3
 72
8
 73
4
 74
0
 40
0
 40
0
 40
0
 40
0
 40
1
 40
1
 40
1
 40
1
 10
155.365340
 20
76.184650
 30
0.0
 10
156.065220
 20
76.715620
 30
0.0
 10
156.512550
 20
77.852980
 30
0.0
 10
156.513410
 20
79.103710
 30
0.0
  0
SPLINE
  5
19e
100
AcDbEntity
  8
Layer_1
 62
7
100
AcDbSpline
 70
8
 71
3
 72
8
 73
4
 74
0
 40
0
 40
0
 40
0
 40
0
 40
1
 40
1
 40
1
 40
1
 10
156.513410
 20
79.103710
 30
0.0
 10
156.512710
 20
80.354450
 30
0.0
 10
156.064810
 20
81.491610
 30
0.0
 10
155.364830
 20
82.022260
 30
0.0
  0
SPLINE
  5
19f
100
AcDbEntity
  8
Layer_1
 62
7
100
AcDbSpline
 70
8
 71
3
 72
8
 73
4
 74
0
 40
0
 40
0
 40
0
 40
0
 40
1
 40
1
 40
1
 40
1
 10
155.364830
 20
82.022260
 30
0.0
 10
156.064920
 20
82.552990
 30
0.0
 10
156.512460
 20
83.690400
 30
0.0
 10
156.513410
 20
84.941320
 30
0.0
  0
SPLINE
  5
1a0
100
AcDbEntity
  8
Layer_1
 62
7
100
AcDbSpline
 70
8
 71
3
 72
8
 73
4
 74
0
 40
0
 40
0
 40
0
 40
0
 40
1
 40
1
 40
1
 40
1
 10
156.513410
 20
84.941320
 30
0.0
 10
156.512710
 20
86.192060
 30
0.0
 10
156.064810
 20
87.329220
 30
0.0
 10
155.364830
 20
87.859870
 30
0.0
  0
SPLINE
  5
1a1
100
AcDbEntity
  8
Layer_1
 62
7
100
AcDbSpline
 70
8
 71
3
 72
8
 73
4
 74
0
 40
0
 40
0
 40
0
 40
0
 40
1
 40
1
 40
1
 40
1
 10
155.364830
 20
87.859870
 30
0.0
 10
156.065010
 20
88.390670
 30
0.0
 10
156.512580
 20
89.528330
 30
0.0
 10
156.513410
 20
90.779440
 30
0.0
  0
SPLINE
  5
1a2
100
AcDbEntity
  8
Layer_1
 62
7
100
AcDbSpline
 70
8
 71
3
 72
8
 73
4
 74
0
 40
0
 40
0
 40
0
 40
0
 40
1
 40
1
 40
1
 40
1
 10
156.513410
 20
90.779440
 30
0.0
 10
156.512710
 20
92.029990
 30
0.0
 10
156.065120
 20
93.167090
 30
0.0
 10
155.365340
 20
93.697980
 30
0.0
  0
SPLINE
  5
1a3
100
AcDbEntity
  8
Layer_1
 62
7
100
AcDbSpline
 70
8
 71
3
 72
8
 73
4
 74
0
 40
0
 40
0
 40
0
 40
0
 40
1
 40
1
 40
1
 40
1
 10
155.365340
 20
93.697980
 30
0.0
 10
156.065220
 20
94.228950
 30
0.0
 10
156.512550
 20
95.366310
 30
0.0
 10
156.513410
 20
96.617040
 30
0.0
  0
SPLINE
  5
1a4
100
AcDbEntity
  8
Layer_1
 62
7
100
AcDbSpline
 70
8
 71
3
 72
8
 73
4
 74
0
 40
0
 40
0
 40
0
 40
0
 40
1
 40
1
 40
1
 40
1
 10
156.513410
 20
96.617040
 30
0.0
 10
156.512710
 20
97.867780
 30
0.0
 10
156.064810
 20
99.004940
 30
0.0
 10
155.364830
 20
99.535590
 30
0.0
  0
SPLINE
  5
1a5
100
AcDbEntity
  8
Layer_1
 62
7
100
AcDbSpline
 70
8
 71
3
 72
8
 73
4
 74
0
 40
0
 40
0
 40
0
 40
0
 40
1
 40
1
 40
1
 40
1
 10
155.364830
 20
99.535590
 30
0.0
 10
156.064920
 20
100.066320
 30
0.0
 10
156.512460
 20
101.203730
 30
0.0
 10
156.513410
 20
102.454650
 30
0.0
  0
SPLINE
  5
1a6
100
AcDbEntity
  8
Layer_1
 62
7
100
AcDbSpline
 70
8
 71
3
 72
8
 73
4
 74
0
 40
0
 40
0
 40
0
 40
0
 40
1
 40
1
 40
1
 40
1
 10
156.513410
 20
102.454650
 30
0.0
 10
156.512710
 20
103.705380
 30
0.0
 10
156.064810
 20
104.842560
 30
0.0
 10
155.364830
 20
105.373200
 30
0.0
  0
SPLINE
  5
1a7
100
AcDbEntity
  8
Layer_1
 62
7
100
AcDbSpline
 70
8
 71
3
 72
8
 73
4
 74
0
 40
0
 40
0
 40
0
 40
0
 40
1
 40
1
 40
1
 40
1
 10
155.364830
 20
105.373200
 30
0.0
 10
156.065010
 20
105.904010
 30
0.0
 10
156.512580
 20
107.041660
 30
0.0
 10
156.513410
 20
108.292760
 30
0.0
  0
SPLINE
  5
1a8
100
AcDbEntity
  8
Layer_1
 62
7
100
AcDbSpline
 70
8
 71
3
 72
8
 73
4
 74
0
 40
0
 40
0
 40
0
 40
0
 40
1
 40
1
 40
1
 40
1
 10
156.513410
 20
108.292760
 30
0.0
 10
156.512710
 20
108.765450
 30
0.0
 10
156.447510
 20
109.232050
 30
0.0
 10
156.323000
 20
109.659610
 30
0.0
  0
SPLINE
  5
1a9
100
AcDbEntity
  8
Layer_1
 62
7
100
AcDbSpline
 70
8
 71
3
 72
8
 73
4
 74
0
 40
0
 40
0
 40
0
 40
0
 40
1
 40
1
 40
1
 40
1
 10
156.323000
 20
109.659610
 30
0.0
 10
157.520270
 20
109.278610
 30
0.0
 10
159.367580
 20
109.051110
 30
0.0
 10
160.250350
 20
109.050380
 30
0.0
  0
SPLINE
  5
1aa
100
AcDbEntity
  8
Layer_1
 62
7
100
AcDbSpline
 70
8
 71
3
 72
8
 73
4
 74
0
 40
0
 40
0
 40
0
 40
0
 40
1
 40
1
 40
1
 40
1
 10
160.250350
 20
109.050380
 30
0.0
 10
161.506310
 20
109.050900
 30
0.0
 10
162.643900
 20
109.508660
 30
0.0
 10
163.153210
 20
110.218210
 30
0.0
  0
SPLINE
  5
1ab
100
AcDbEntity
  8
Layer_1
 62
7
100
AcDbSpline
 70
8
 71
3
 72
8
 73
4
 74
0
 40
0
 40
0
 40
0
 40
0
 40
1
 40
1
 40
1
 40
1
 10
163.153210
 20
110.218210
 30
0.0
 10
163.662300
 20
109.508980
 30
0.0
 10
164.799120
 20
109.051380
 30
0.0
 10
166.054540
 20
109.050380
 30
0.0
  0
SPLINE
  5
1ac
100
AcDbEntity
  8
Layer_1
 62
7
100
AcDbSpline
 70
8
 71
3
 72
8
 73
4
 74
0
 40
0
 40
0
 40
0
 40
0
 40
1
 40
1
 40
1
 40
1
 10
166.054540
 20
109.050380
 30
0.0
 10
167.310490
 20
109.050900
 30
0.0
 10
168.448080
 20
109.508660
 30
0.0
 10
168.957390
 20
110.218210
 30
0.0
  0
SPLINE
  5
1ad
100
AcDbEntity
  8
Layer_1
 62
7
100
AcDbSpline
 70
8
 71
3
 72
8
 73
4
 74
0
 40
0
 40
0
 40
0
 40
0
 40
1
 40
1
 40
1
 40
1
 10
168.957390
 20
110.218210
 30
0.0
 10
169.466400
 20
109.509080
 30
0.0
 10
170.602990
 20
109.051510
 30
0.0
 10
171.858210
 20
109.050380
 30
0.0
  0
SPLINE
  5
1ae
100
AcDbEntity
  8
Layer_1
 62
7
100
AcDbSpline
 70
8
 71
3
 72
8
 73
4
 74
0
 40
0
 40
0
 40
0
 40
0
 40
1
 40
1
 40
1
 40
1
 10
171.858210
 20
109.050380
 30
0.0
 10
173.114170
 20
109.050900
 30
0.0
 10
174.251780
 20
109.508660
 30
0.0
 10
174.761060
 20
110.218210
 30
0.0
  0
SPLINE
  5
1af
100
AcDbEntity
  8
Layer_1
 62
7
100
AcDbSpline
 70
8
 71
3
 72
8
 73
4
 74
0
 40
0
 40
0
 40
0
 40
0
 40
1
 40
1
 40
1
 40
1
 10
174.761060
 20
110.218210
 30
0.0
 10
175.270140
 20
109.508980
 30
0.0
 10
176.406990
 20
109.051390
 30
0.0
 10
177.662390
 20
109.050380
 30
0.0
  0
SPLINE
  5
1b0
100
AcDbEntity
  8
Layer_1
 62
7
100
AcDbSpline
 70
8
 71
3
 72
8
 73
4
 74
0
 40
0
 40
0
 40
0
 40
0
 40
1
 40
1
 40
1
 40
1
 10
177.662390
 20
109.050380
 30
0.0
 10
178.918350
 20
109.050900
 30
0.0
 10
180.055940
 20
109.508660
 30
0.0
 10
180.565240
 20
110.218210
 30
0.0
  0
SPLINE
  5
1b1
100
AcDbEntity
  8
Layer_1
 62
7
100
AcDbSpline
 70
8
 71
3
 72
8
 73
4
 74
0
 40
0
 40
0
 40
0
 40
0
 40
1
 40
1
 40
1
 40
1
 10
180.565240
 20
110.218210
 30
0.0
 10
181.074260
 20
109.509080
 30
0.0
 10
182.210850
 20
109.051510
 30
0.0
 10
183.466070
 20
109.050380
 30
0.0
  0
SPLINE
  5
1b2
100
AcDbEntity
  8
Layer_1
 62
7
100
AcDbSpline
 70
8
 71
3
 72
8
 73
4
 74
0
 40
0
 40
0
 40
0
 40
0
 40
1
 40
1
 40
1
 40
1
 10
183.466070
 20
109.050380
 30
0.0
 10
184.722030
 20
109.050900
 30
0.0
 10
185.859620
 20
109.508660
 30
0.0
 10
186.368920
 20
110.218210
 30
0.0
  0
SPLINE
  5
1b3
100
AcDbEntity
  8
Layer_1
 62
7
100
AcDbSpline
 70
8
 71
3
 72
8
 73
4
 74
0
 40
0
 40
0
 40
0
 40
0
 40
1
 40
1
 40
1
 40
1
 10
186.368920
 20
110.218210
 30
0.0
 10
186.878010
 20
109.508980
 30
0.0
 10
188.014850
 20
109.051390
 30
0.0
 10
189.270260
 20
109.050380
 30
0.0
  0
SPLINE
  5
1b4
100
AcDbEntity
  8
Layer_1
 62
7
100
AcDbSpline
 70
8
 71
3
 72
8
 73
4
 74
0
 40
0
 40
0
 40
0
 40
0
 40
1
 40
1
 40
1
 40
1
 10
189.270260
 20
109.050380
 30
0.0
 10
190.935810
 20
109.051080
 30
0.0
 10
192.317670
 20
109.846820
 30
0.0
 10
192.437460
 20
110.873520
 30
0.0
  0
LWPOLYLINE
  5
1b5
100
AcDbEntity
  8
Layer_1
 62
7
100
AcDbPolyline
 90
4
 70
0
 10
0.420329
 20
147.376420
 30
0.0
 10
0.000000
 20
147.376420
 30
0.0
 10
0.000000
 20
110.873520
 30
0.0
 10
0.373745
 20
110.873520
 30
0.0
  0
SPLINE
  5
1b6
100
AcDbEntity
  8
Layer_1
 62
7
100
AcDbSpline
 70
8
 71
3
 72
8
 73
4
 74
0
 40
0
 40
0
 40
0
 40
0
 40
1
 40
1
 40
1
 40
1
 10
192.393910
 20
147.376390
 30
0.0
 10
192.115140
 20
148.307200
 30
0.0
 10
190.801920
 20
148.982750
 30
0.0
 10
189.270260
 20
148.983290
 30
0.0
  0
SPLINE
  5
1b7
100
AcDbEntity
  8
Layer_1
 62
7
100
AcDbSpline
 70
8
 71
3
 72
8
 73
4
 74
0
 40
0
 40
0
 40
0
 40
0
 40
1
 40
1
 40
1
 40
1
 10
189.270260
 20
148.983290
 30
0.0
 10
188.014290
 20
148.982770
 30
0.0
 10
186.876710
 20
148.525000
 30
0.0
 10
186.367400
 20
147.815450
 30
0.0
  0
SPLINE
  5
1b8
100
AcDbEntity
  8
Layer_1
 62
7
100
AcDbSpline
 70
8
 71
3
 72
8
 73
4
 74
0
 40
0
 40
0
 40
0
 40
0
 40
1
 40
1
 40
1
 40
1
 10
186.367400
 20
147.815450
 30
0.0
 10
185.858320
 20
148.524690
 30
0.0
 10
184.721480
 20
148.982280
 30
0.0
 10
183.466070
 20
148.983290
 30
0.0
  0
SPLINE
  5
1b9
100
AcDbEntity
  8
Layer_1
 62
7
100
AcDbSpline
 70
8
 71
3
 72
8
 73
4
 74
0
 40
0
 40
0
 40
0
 40
0
 40
1
 40
1
 40
1
 40
1
 10
183.466070
 20
148.983290
 30
0.0
 10
182.210300
 20
148.982590
 30
0.0
 10
181.072970
 20
148.524890
 30
0.0
 10
180.563730
 20
147.815450
 30
0.0
  0
SPLINE
  5
1ba
100
AcDbEntity
  8
Layer_1
 62
7
100
AcDbSpline
 70
8
 71
3
 72
8
 73
4
 74
0
 40
0
 40
0
 40
0
 40
0
 40
1
 40
1
 40
1
 40
1
 10
180.563730
 20
147.815450
 30
0.0
 10
180.054640
 20
148.524690
 30
0.0
 10
178.917810
 20
148.982280
 30
0.0
 10
177.662390
 20
148.983290
 30
0.0
  0
SPLINE
  5
1bb
100
AcDbEntity
  8
Layer_1
 62
7
100
AcDbSpline
 70
8
 71
3
 72
8
 73
4
 74
0
 40
0
 40
0
 40
0
 40
0
 40
1
 40
1
 40
1
 40
1
 10
177.662390
 20
148.983290
 30
0.0
 10
176.406440
 20
148.982770
 30
0.0
 10
175.268850
 20
148.525000
 30
0.0
 10
174.759540
 20
147.815450
 30
0.0
  0
SPLINE
  5
1bc
100
AcDbEntity
  8
Layer_1
 62
7
100
AcDbSpline
 70
8
 71
3
 72
8
 73
4
 74
0
 40
0
 40
0
 40
0
 40
0
 40
1
 40
1
 40
1
 40
1
 10
174.759540
 20
147.815450
 30
0.0
 10
174.250460
 20
148.524690
 30
0.0
 10
173.113620
 20
148.982280
 30
0.0
 10
171.858210
 20
148.983290
 30
0.0
  0
SPLINE
  5
1bd
100
AcDbEntity
  8
Layer_1
 62
7
100
AcDbSpline
 70
8
 71
3
 72
8
 73
4
 74
0
 40
0
 40
0
 40
0
 40
0
 40
1
 40
1
 40
1
 40
1
 10
171.858210
 20
148.983290
 30
0.0
 10
170.602440
 20
148.982770
 30
0.0
 10
169.464910
 20
148.525310
 30
0.0
 10
168.955360
 20
147.815970
 30
0.0
  0
SPLINE
  5
1be
100
AcDbEntity
  8
Layer_1
 62
7
100
AcDbSpline
 70
8
 71
3
 72
8
 73
4
 74
0
 40
0
 40
0
 40
0
 40
0
 40
1
 40
1
 40
1
 40
1
 10
168.955360
 20
147.815970
 30
0.0
 10
168.446100
 20
148.524890
 30
0.0
 10
167.309560
 20
148.982240
 30
0.0
 10
166.054540
 20
148.983290
 30
0.0
  0
SPLINE
  5
1bf
100
AcDbEntity
  8
Layer_1
 62
7
100
AcDbSpline
 70
8
 71
3
 72
8
 73
4
 74
0
 40
0
 40
0
 40
0
 40
0
 40
1
 40
1
 40
1
 40
1
 10
166.054540
 20
148.983290
 30
0.0
 10
164.798580
 20
148.982770
 30
0.0
 10
163.660990
 20
148.525000
 30
0.0
 10
163.151690
 20
147.815450
 30
0.0
  0
SPLINE
  5
1c0
100
AcDbEntity
  8
Layer_1
 62
7
100
AcDbSpline
 70
8
 71
3
 72
8
 73
4
 74
0
 40
0
 40
0
 40
0
 40
0
 40
1
 40
1
 40
1
 40
1
 10
163.151690
 20
147.815450
 30
0.0
 10
162.642610
 20
148.524690
 30
0.0
 10
161.505760
 20
148.982280
 30
0.0
 10
160.250350
 20
148.983290
 30
0.0
  0
SPLINE
  5
1c1
100
AcDbEntity
  8
Layer_1
 62
7
100
AcDbSpline
 70
8
 71
3
 72
8
 73
4
 74
0
 40
0
 40
0
 40
0
 40
0
 40
1
 40
1
 40
1
 40
1
 10
160.250350
 20
148.983290
 30
0.0
 10
158.994390
 20
148.982770
 30
0.0
 10
157.856800
 20
148.525000
 30
0.0
 10
157.347500
 20
147.815450
 30
0.0
  0
SPLINE
  5
1c2
100
AcDbEntity
  8
Layer_1
 62
7
100
AcDbSpline
 70
8
 71
3
 72
8
 73
4
 74
0
 40
0
 40
0
 40
0
 40
0
 40
1
 40
1
 40
1
 40
1
 10
157.347500
 20
147.815450
 30
0.0
 10
157.147440
 20
148.094080
 30
0.0
 10
156.845160
 20
148.335030
 30
0.0
 10
156.474420
 20
148.525980
 30
0.0
  0
SPLINE
  5
1c3
100
AcDbEntity
  8
Layer_1
 62
7
100
AcDbSpline
 70
8
 71
3
 72
8
 73
4
 74
0
 40
0
 40
0
 40
0
 40
0
 40
1
 40
1
 40
1
 40
1
 10
156.474420
 20
148.525980
 30
0.0
 10
156.500220
 20
148.733740
 30
0.0
 10
156.513220
 20
148.945090
 30
0.0
 10
156.513420
 20
149.156990
 30
0.0
  0
SPLINE
  5
1c4
100
AcDbEntity
  8
Layer_1
 62
7
100
AcDbSpline
 70
8
 71
3
 72
8
 73
4
 74
0
 40
0
 40
0
 40
0
 40
0
 40
1
 40
1
 40
1
 40
1
 10
156.513420
 20
149.156990
 30
0.0
 10
156.512720
 20
150.369710
 30
0.0
 10
156.091500
 20
151.479230
 30
0.0
 10
155.423580
 20
152.029460
 30
0.0
  0
LWPOLYLINE
  5
1c5
100
AcDbEntity
  8
Layer_1
 62
7
100
AcDbPolyline
 90
4
 70
0
 10
192.437460
 20
110.873520
 30
0.0
 10
192.813740
 20
110.873520
 30
0.0
 10
192.813740
 20
147.376390
 30
0.0
 10
192.393910
 20
147.376390
 30
0.0
  0
SPLINE
  5
1c6
100
AcDbEntity
  8
Layer_1
 62
7
100
AcDbSpline
 70
8
 71
3
 72
8
 73
4
 74
0
 40
0
 40
0
 40
0
 40
0
 40
1
 40
1
 40
1
 40
1
 10
155.423580
 20
152.117560
 30
0.0
 10
156.092400
 20
152.668540
 30
0.0
 10
156.513510
 20
153.780230
 30
0.0
 10
156.513420
 20
154.994590
 30
0.0
  0
SPLINE
  5
1c7
100
AcDbEntity
  8
Layer_1
 62
7
100
AcDbSpline
 70
8
 71
3
 72
8
 73
4
 74
0
 40
0
 40
0
 40
0
 40
0
 40
1
 40
1
 40
1
 40
1
 10
156.513420
 20
154.994590
 30
0.0
 10
156.512720
 20
156.207480
 30
0.0
 10
156.091600
 20
157.317250
 30
0.0
 10
155.423580
 20
157.867560
 30
0.0
  0
LWPOLYLINE
  5
1c8
100
AcDbEntity
  8
Layer_1
 62
7
100
AcDbPolyline
 90
2
 70
0
 10
155.423580
 20
152.029460
 30
0.0
 10
155.423580
 20
152.117560
 30
0.0
  0
SPLINE
  5
1c9
100
AcDbEntity
  8
Layer_1
 62
7
100
AcDbSpline
 70
8
 71
3
 72
8
 73
4
 74
0
 40
0
 40
0
 40
0
 40
0
 40
1
 40
1
 40
1
 40
1
 10
155.423580
 20
157.955660
 30
0.0
 10
156.092300
 20
158.506540
 30
0.0
 10
156.513390
 20
159.618000
 30
0.0
 10
156.513420
 20
160.832170
 30
0.0
  0
SPLINE
  5
1ca
100
AcDbEntity
  8
Layer_1
 62
7
100
AcDbSpline
 70
8
 71
3
 72
8
 73
4
 74
0
 40
0
 40
0
 40
0
 40
0
 40
1
 40
1
 40
1
 40
1
 10
156.513420
 20
160.832170
 30
0.0
 10
156.512720
 20
162.045070
 30
0.0
 10
156.091600
 20
163.154840
 30
0.0
 10
155.423580
 20
163.705150
 30
0.0
  0
LWPOLYLINE
  5
1cb
100
AcDbEntity
  8
Layer_1
 62
7
100
AcDbPolyline
 90
2
 70
0
 10
155.423580
 20
157.867560
 30
0.0
 10
155.423580
 20
157.955660
 30
0.0
  0
SPLINE
  5
1cc
100
AcDbEntity
  8
Layer_1
 62
7
100
AcDbSpline
 70
8
 71
3
 72
8
 73
4
 74
0
 40
0
 40
0
 40
0
 40
0
 40
1
 40
1
 40
1
 40
1
 10
155.423580
 20
163.793250
 30
0.0
 10
156.092400
 20
164.344220
 30
0.0
 10
156.513510
 20
165.455910
 30
0.0
 10
156.513420
 20
166.670270
 30
0.0
  0
SPLINE
  5
1cd
100
AcDbEntity
  8
Layer_1
 62
7
100
AcDbSpline
 70
8
 71
3
 72
8
 73
4
 74
0
 40
0
 40
0
 40
0
 40
0
 40
1
 40
1
 40
1
 40
1
 10
156.513420
 20
166.670270
 30
0.0
 10
156.512720
 20
167.882980
 30
0.0
 10
156.091500
 20
168.992510
 30
0.0
 10
155.423580
 20
169.542730
 30
0.0
  0
LWPOLYLINE
  5
1ce
100
AcDbEntity
  8
Layer_1
 62
7
100
AcDbPolyline
 90
2
 70
0
 10
155.423580
 20
163.705150
 30
0.0
 10
155.423580
 20
163.793250
 30
0.0
  0
SPLINE
  5
1cf
100
AcDbEntity
  8
Layer_1
 62
7
100
AcDbSpline
 70
8
 71
3
 72
8
 73
4
 74
0
 40
0
 40
0
 40
0
 40
0
 40
1
 40
1
 40
1
 40
1
 10
155.423580
 20
169.630830
 30
0.0
 10
156.092400
 20
170.181800
 30
0.0
 10
156.513510
 20
171.293500
 30
0.0
 10
156.513420
 20
172.507860
 30
0.0
  0
SPLINE
  5
1d0
100
AcDbEntity
  8
Layer_1
 62
7
100
AcDbSpline
 70
8
 71
3
 72
8
 73
4
 74
0
 40
0
 40
0
 40
0
 40
0
 40
1
 40
1
 40
1
 40
1
 10
156.513420
 20
172.507860
 30
0.0
 10
156.512720
 20
173.720750
 30
0.0
 10
156.091600
 20
174.830520
 30
0.0
 10
155.423580
 20
175.380830
 30
0.0
  0
LWPOLYLINE
  5
1d1
100
AcDbEntity
  8
Layer_1
 62
7
100
AcDbPolyline
 90
2
 70
0
 10
155.423580
 20
169.542730
 30
0.0
 10
155.423580
 20
169.630830
 30
0.0
  0
SPLINE
  5
1d2
100
AcDbEntity
  8
Layer_1
 62
7
100
AcDbSpline
 70
8
 71
3
 72
8
 73
4
 74
0
 40
0
 40
0
 40
0
 40
0
 40
1
 40
1
 40
1
 40
1
 10
155.423580
 20
175.468930
 30
0.0
 10
156.092300
 20
176.019810
 30
0.0
 10
156.513390
 20
177.131270
 30
0.0
 10
156.513420
 20
178.345440
 30
0.0
  0
SPLINE
  5
1d3
100
AcDbEntity
  8
Layer_1
 62
7
100
AcDbSpline
 70
8
 71
3
 72
8
 73
4
 74
0
 40
0
 40
0
 40
0
 40
0
 40
1
 40
1
 40
1
 40
1
 10
156.513420
 20
178.345440
 30
0.0
 10
156.512720
 20
179.558340
 30
0.0
 10
156.091600
 20
180.668100
 30
0.0
 10
155.423580
 20
181.218420
 30
0.0
  0
LWPOLYLINE
  5
1d4
100
AcDbEntity
  8
Layer_1
 62
7
100
AcDbPolyline
 90
2
 70
0
 10
155.423580
 20
175.380830
 30
0.0
 10
155.423580
 20
175.468930
 30
0.0
  0
SPLINE
  5
1d5
100
AcDbEntity
  8
Layer_1
 62
7
100
AcDbSpline
 70
8
 71
3
 72
8
 73
4
 74
0
 40
0
 40
0
 40
0
 40
0
 40
1
 40
1
 40
1
 40
1
 10
155.423580
 20
181.306520
 30
0.0
 10
155.621540
 20
181.470960
 30
0.0
 10
155.801100
 20
181.687830
 30
0.0
 10
155.954820
 20
181.948160
 30
0.0
  0
SPLINE
  5
1d6
100
AcDbEntity
  8
Layer_1
 62
7
100
AcDbSpline
 70
8
 71
3
 72
8
 73
4
 74
0
 40
0
 40
0
 40
0
 40
0
 40
1
 40
1
 40
1
 40
1
 10
155.954820
 20
181.948160
 30
0.0
 10
156.568020
 20
182.152860
 30
0.0
 10
157.062350
 20
182.476370
 30
0.0
 10
157.350030
 20
182.875940
 30
0.0
  0
SPLINE
  5
1d7
100
AcDbEntity
  8
Layer_1
 62
7
100
AcDbSpline
 70
8
 71
3
 72
8
 73
4
 74
0
 40
0
 40
0
 40
0
 40
0
 40
1
 40
1
 40
1
 40
1
 10
157.350030
 20
182.875940
 30
0.0
 10
157.858720
 20
182.166720
 30
0.0
 10
158.995130
 20
181.708950
 30
0.0
 10
160.250350
 20
181.707610
 30
0.0
  0
SPLINE
  5
1d8
100
AcDbEntity
  8
Layer_1
 62
7
100
AcDbSpline
 70
8
 71
3
 72
8
 73
4
 74
0
 40
0
 40
0
 40
0
 40
0
 40
1
 40
1
 40
1
 40
1
 10
160.250350
 20
181.707610
 30
0.0
 10
161.506310
 20
181.708120
 30
0.0
 10
162.643900
 20
182.165890
 30
0.0
 10
163.153210
 20
182.875430
 30
0.0
  0
SPLINE
  5
1d9
100
AcDbEntity
  8
Layer_1
 62
7
100
AcDbSpline
 70
8
 71
3
 72
8
 73
4
 74
0
 40
0
 40
0
 40
0
 40
0
 40
1
 40
1
 40
1
 40
1
 10
163.153210
 20
182.875430
 30
0.0
 10
163.662300
 20
182.166200
 30
0.0
 10
164.799130
 20
181.708610
 30
0.0
 10
166.054540
 20
181.707610
 30
0.0
  0
SPLINE
  5
1da
100
AcDbEntity
  8
Layer_1
 62
7
100
AcDbSpline
 70
8
 71
3
 72
8
 73
4
 74
0
 40
0
 40
0
 40
0
 40
0
 40
1
 40
1
 40
1
 40
1
 10
166.054540
 20
181.707610
 30
0.0
 10
167.310500
 20
181.708120
 30
0.0
 10
168.448090
 20
182.165890
 30
0.0
 10
168.957390
 20
182.875430
 30
0.0
  0
SPLINE
  5
1db
100
AcDbEntity
  8
Layer_1
 62
7
100
AcDbSpline
 70
8
 71
3
 72
8
 73
4
 74
0
 40
0
 40
0
 40
0
 40
0
 40
1
 40
1
 40
1
 40
1
 10
168.957390
 20
182.875430
 30
0.0
 10
169.466400
 20
182.166310
 30
0.0
 10
170.602990
 20
181.708730
 30
0.0
 10
171.858210
 20
181.707610
 30
0.0
  0
SPLINE
  5
1dc
100
AcDbEntity
  8
Layer_1
 62
7
100
AcDbSpline
 70
8
 71
3
 72
8
 73
4
 74
0
 40
0
 40
0
 40
0
 40
0
 40
1
 40
1
 40
1
 40
1
 10
171.858210
 20
181.707610
 30
0.0
 10
173.114170
 20
181.708120
 30
0.0
 10
174.251780
 20
182.165890
 30
0.0
 10
174.761060
 20
182.875430
 30
0.0
  0
SPLINE
  5
1dd
100
AcDbEntity
  8
Layer_1
 62
7
100
AcDbSpline
 70
8
 71
3
 72
8
 73
4
 74
0
 40
0
 40
0
 40
0
 40
0
 40
1
 40
1
 40
1
 40
1
 10
174.761060
 20
182.875430
 30
0.0
 10
175.270150
 20
182.166200
 30
0.0
 10
176.406990
 20
181.708610
 30
0.0
 10
177.662400
 20
181.707610
 30
0.0
  0
SPLINE
  5
1de
100
AcDbEntity
  8
Layer_1
 62
7
100
AcDbSpline
 70
8
 71
3
 72
8
 73
4
 74
0
 40
0
 40
0
 40
0
 40
0
 40
1
 40
1
 40
1
 40
1
 10
177.662400
 20
181.707610
 30
0.0
 10
178.918360
 20
181.708120
 30
0.0
 10
180.055930
 20
182.165890
 30
0.0
 10
180.565250
 20
182.875430
 30
0.0
  0
SPLINE
  5
1df
100
AcDbEntity
  8
Layer_1
 62
7
100
AcDbSpline
 70
8
 71
3
 72
8
 73
4
 74
0
 40
0
 40
0
 40
0
 40
0
 40
1
 40
1
 40
1
 40
1
 10
180.565250
 20
182.875430
 30
0.0
 10
181.074260
 20
182.166310
 30
0.0
 10
182.210850
 20
181.708730
 30
0.0
 10
183.466080
 20
181.707610
 30
0.0
  0
SPLINE
  5
1e0
100
AcDbEntity
  8
Layer_1
 62
7
100
AcDbSpline
 70
8
 71
3
 72
8
 73
4
 74
0
 40
0
 40
0
 40
0
 40
0
 40
1
 40
1
 40
1
 40
1
 10
183.466080
 20
181.707610
 30
0.0
 10
184.722040
 20
181.708120
 30
0.0
 10
185.859610
 20
182.165890
 30
0.0
 10
186.368930
 20
182.875430
 30
0.0
  0
SPLINE
  5
1e1
100
AcDbEntity
  8
Layer_1
 62
7
100
AcDbSpline
 70
8
 71
3
 72
8
 73
4
 74
0
 40
0
 40
0
 40
0
 40
0
 40
1
 40
1
 40
1
 40
1
 10
186.368930
 20
182.875430
 30
0.0
 10
186.878020
 20
182.166200
 30
0.0
 10
188.014850
 20
181.708610
 30
0.0
 10
189.270260
 20
181.707610
 30
0.0
  0
SPLINE
  5
1e2
100
AcDbEntity
  8
Layer_1
 62
7
100
AcDbSpline
 70
8
 71
3
 72
8
 73
4
 74
0
 40
0
 40
0
 40
0
 40
0
 40
1
 40
1
 40
1
 40
1
 10
189.270260
 20
181.707610
 30
0.0
 10
190.776560
 20
181.707820
 30
0.0
 10
192.075770
 20
182.361450
 30
0.0
 10
192.381760
 20
183.272980
 30
0.0
  0
LWPOLYLINE
  5
1e3
100
AcDbEntity
  8
Layer_1
 62
7
100
AcDbPolyline
 90
2
 70
0
 10
155.423580
 20
181.218420
 30
0.0
 10
155.423580
 20
181.306520
 30
0.0
  0
SPLINE
  5
1e4
100
AcDbEntity
  8
Layer_1
 62
7
100
AcDbSpline
 70
8
 71
3
 72
8
 73
4
 74
0
 40
0
 40
0
 40
0
 40
0
 40
1
 40
1
 40
1
 40
1
 10
192.448610
 20
216.838659
 30
0.0
 10
192.448610
 20
217.923545
 30
0.0
 10
191.025640
 20
218.803039
 30
0.0
 10
189.270260
 20
218.803097
 30
0.0
  0
SPLINE
  5
1e5
100
AcDbEntity
  8
Layer_1
 62
7
100
AcDbSpline
 70
8
 71
3
 72
8
 73
4
 74
0
 40
0
 40
0
 40
0
 40
0
 40
1
 40
1
 40
1
 40
1
 10
189.270260
 20
218.803097
 30
0.0
 10
188.014110
 20
218.802397
 30
0.0
 10
186.876470
 20
218.344504
 30
0.0
 10
186.367410
 20
217.634765
 30
0.0
  0
SPLINE
  5
1e6
100
AcDbEntity
  8
Layer_1
 62
7
100
AcDbSpline
 70
8
 71
3
 72
8
 73
4
 74
0
 40
0
 40
0
 40
0
 40
0
 40
1
 40
1
 40
1
 40
1
 10
186.367410
 20
217.634765
 30
0.0
 10
185.858570
 20
218.344191
 30
0.0
 10
184.721680
 20
218.802003
 30
0.0
 10
183.466080
 20
218.803097
 30
0.0
  0
SPLINE
  5
1e7
100
AcDbEntity
  8
Layer_1
 62
7
100
AcDbSpline
 70
8
 71
3
 72
8
 73
4
 74
0
 40
0
 40
0
 40
0
 40
0
 40
1
 40
1
 40
1
 40
1
 10
183.466080
 20
218.803097
 30
0.0
 10
182.210110
 20
218.802257
 30
0.0
 10
181.072720
 20
218.344398
 30
0.0
 10
180.563730
 20
217.634765
 30
0.0
  0
SPLINE
  5
1e8
100
AcDbEntity
  8
Layer_1
 62
7
100
AcDbSpline
 70
8
 71
3
 72
8
 73
4
 74
0
 40
0
 40
0
 40
0
 40
0
 40
1
 40
1
 40
1
 40
1
 10
180.563730
 20
217.634765
 30
0.0
 10
180.054880
 20
218.344193
 30
0.0
 10
178.918000
 20
218.802005
 30
0.0
 10
177.662400
 20
218.803097
 30
0.0
  0
SPLINE
  5
1e9
100
AcDbEntity
  8
Layer_1
 62
7
100
AcDbSpline
 70
8
 71
3
 72
8
 73
4
 74
0
 40
0
 40
0
 40
0
 40
0
 40
1
 40
1
 40
1
 40
1
 10
177.662400
 20
218.803097
 30
0.0
 10
176.406250
 20
218.802397
 30
0.0
 10
175.268610
 20
218.344502
 30
0.0
 10
174.759550
 20
217.634765
 30
0.0
  0
SPLINE
  5
1ea
100
AcDbEntity
  8
Layer_1
 62
7
100
AcDbSpline
 70
8
 71
3
 72
8
 73
4
 74
0
 40
0
 40
0
 40
0
 40
0
 40
1
 40
1
 40
1
 40
1
 10
174.759550
 20
217.634765
 30
0.0
 10
174.250710
 20
218.344191
 30
0.0
 10
173.113820
 20
218.802003
 30
0.0
 10
171.858210
 20
218.803097
 30
0.0
  0
SPLINE
  5
1eb
100
AcDbEntity
  8
Layer_1
 62
7
100
AcDbSpline
 70
8
 71
3
 72
8
 73
4
 74
0
 40
0
 40
0
 40
0
 40
0
 40
1
 40
1
 40
1
 40
1
 10
171.858210
 20
218.803097
 30
0.0
 10
170.602260
 20
218.802475
 30
0.0
 10
169.464670
 20
218.344812
 30
0.0
 10
168.955360
 20
217.635272
 30
0.0
  0
SPLINE
  5
1ec
100
AcDbEntity
  8
Layer_1
 62
7
100
AcDbSpline
 70
8
 71
3
 72
8
 73
4
 74
0
 40
0
 40
0
 40
0
 40
0
 40
1
 40
1
 40
1
 40
1
 10
168.955360
 20
217.635272
 30
0.0
 10
168.446350
 20
218.344396
 30
0.0
 10
167.309760
 20
218.801968
 30
0.0
 10
166.054540
 20
218.803097
 30
0.0
  0
SPLINE
  5
1ed
100
AcDbEntity
  8
Layer_1
 62
7
100
AcDbSpline
 70
8
 71
3
 72
8
 73
4
 74
0
 40
0
 40
0
 40
0
 40
0
 40
1
 40
1
 40
1
 40
1
 10
166.054540
 20
218.803097
 30
0.0
 10
164.798380
 20
218.802397
 30
0.0
 10
163.660740
 20
218.344504
 30
0.0
 10
163.151690
 20
217.634765
 30
0.0
  0
SPLINE
  5
1ee
100
AcDbEntity
  8
Layer_1
 62
7
100
AcDbSpline
 70
8
 71
3
 72
8
 73
4
 74
0
 40
0
 40
0
 40
0
 40
0
 40
1
 40
1
 40
1
 40
1
 10
163.151690
 20
217.634765
 30
0.0
 10
162.642850
 20
218.344191
 30
0.0
 10
161.505960
 20
218.802003
 30
0.0
 10
160.250350
 20
218.803097
 30
0.0
  0
SPLINE
  5
1ef
100
AcDbEntity
  8
Layer_1
 62
7
100
AcDbSpline
 70
8
 71
3
 72
8
 73
4
 74
0
 40
0
 40
0
 40
0
 40
0
 40
1
 40
1
 40
1
 40
1
 10
160.250350
 20
218.803097
 30
0.0
 10
158.994200
 20
218.802397
 30
0.0
 10
157.856570
 20
218.344502
 30
0.0
 10
157.347500
 20
217.634765
 30
0.0
  0
SPLINE
  5
1f0
100
AcDbEntity
  8
Layer_1
 62
7
100
AcDbSpline
 70
8
 71
3
 72
8
 73
4
 74
0
 40
0
 40
0
 40
0
 40
0
 40
1
 40
1
 40
1
 40
1
 10
157.347500
 20
217.634765
 30
0.0
 10
156.838740
 20
218.344089
 30
0.0
 10
155.702100
 20
218.801881
 30
0.0
 10
154.446680
 20
218.803097
 30
0.0
  0
SPLINE
  5
1f1
100
AcDbEntity
  8
Layer_1
 62
7
100
AcDbSpline
 70
8
 71
3
 72
8
 73
4
 74
0
 40
0
 40
0
 40
0
 40
0
 40
1
 40
1
 40
1
 40
1
 10
154.446680
 20
218.803097
 30
0.0
 10
153.190520
 20
218.802397
 30
0.0
 10
152.052890
 20
218.344502
 30
0.0
 10
151.543830
 20
217.634765
 30
0.0
  0
SPLINE
  5
1f2
100
AcDbEntity
  8
Layer_1
 62
7
100
AcDbSpline
 70
8
 71
3
 72
8
 73
4
 74
0
 40
0
 40
0
 40
0
 40
0
 40
1
 40
1
 40
1
 40
1
 10
151.543830
 20
217.634765
 30
0.0
 10
151.034990
 20
218.344191
 30
0.0
 10
149.898100
 20
218.802003
 30
0.0
 10
148.642500
 20
218.803097
 30
0.0
  0
SPLINE
  5
1f3
100
AcDbEntity
  8
Layer_1
 62
7
100
AcDbSpline
 70
8
 71
3
 72
8
 73
4
 74
0
 40
0
 40
0
 40
0
 40
0
 40
1
 40
1
 40
1
 40
1
 10
148.642500
 20
218.803097
 30
0.0
 10
147.386340
 20
218.802397
 30
0.0
 10
146.248710
 20
218.344504
 30
0.0
 10
145.739650
 20
217.634765
 30
0.0
  0
SPLINE
  5
1f4
100
AcDbEntity
  8
Layer_1
 62
7
100
AcDbSpline
 70
8
 71
3
 72
8
 73
4
 74
0
 40
0
 40
0
 40
0
 40
0
 40
1
 40
1
 40
1
 40
1
 10
145.739650
 20
217.634765
 30
0.0
 10
145.230880
 20
218.344087
 30
0.0
 10
144.094240
 20
218.801879
 30
0.0
 10
142.838820
 20
218.803097
 30
0.0
  0
SPLINE
  5
1f5
100
AcDbEntity
  8
Layer_1
 62
7
100
AcDbSpline
 70
8
 71
3
 72
8
 73
4
 74
0
 40
0
 40
0
 40
0
 40
0
 40
1
 40
1
 40
1
 40
1
 10
142.838820
 20
218.803097
 30
0.0
 10
141.582670
 20
218.802397
 30
0.0
 10
140.445030
 20
218.344502
 30
0.0
 10
139.935970
 20
217.634765
 30
0.0
  0
SPLINE
  5
1f6
100
AcDbEntity
  8
Layer_1
 62
7
100
AcDbSpline
 70
8
 71
3
 72
8
 73
4
 74
0
 40
0
 40
0
 40
0
 40
0
 40
1
 40
1
 40
1
 40
1
 10
139.935970
 20
217.634765
 30
0.0
 10
139.427120
 20
218.344193
 30
0.0
 10
138.290240
 20
218.802005
 30
0.0
 10
137.034630
 20
218.803097
 30
0.0
  0
SPLINE
  5
1f7
100
AcDbEntity
  8
Layer_1
 62
7
100
AcDbSpline
 70
8
 71
3
 72
8
 73
4
 74
0
 40
0
 40
0
 40
0
 40
0
 40
1
 40
1
 40
1
 40
1
 10
137.034630
 20
218.803097
 30
0.0
 10
135.778490
 20
218.802397
 30
0.0
 10
134.640840
 20
218.344502
 30
0.0
 10
134.131780
 20
217.634765
 30
0.0
  0
SPLINE
  5
1f8
100
AcDbEntity
  8
Layer_1
 62
7
100
AcDbSpline
 70
8
 71
3
 72
8
 73
4
 74
0
 40
0
 40
0
 40
0
 40
0
 40
1
 40
1
 40
1
 40
1
 10
134.131780
 20
217.634765
 30
0.0
 10
133.622950
 20
218.344191
 30
0.0
 10
132.486060
 20
218.802003
 30
0.0
 10
131.230450
 20
218.803097
 30
0.0
  0
SPLINE
  5
1f9
100
AcDbEntity
  8
Layer_1
 62
7
100
AcDbSpline
 70
8
 71
3
 72
8
 73
4
 74
0
 40
0
 40
0
 40
0
 40
0
 40
1
 40
1
 40
1
 40
1
 10
131.230450
 20
218.803097
 30
0.0
 10
129.974480
 20
218.802257
 30
0.0
 10
128.837100
 20
218.344400
 30
0.0
 10
128.328110
 20
217.634765
 30
0.0
  0
SPLINE
  5
1fa
100
AcDbEntity
  8
Layer_1
 62
7
100
AcDbSpline
 70
8
 71
3
 72
8
 73
4
 74
0
 40
0
 40
0
 40
0
 40
0
 40
1
 40
1
 40
1
 40
1
 10
128.328110
 20
217.634765
 30
0.0
 10
127.819280
 20
218.344191
 30
0.0
 10
126.682380
 20
218.802003
 30
0.0
 10
125.426780
 20
218.803097
 30
0.0
  0
SPLINE
  5
1fb
100
AcDbEntity
  8
Layer_1
 62
7
100
AcDbSpline
 70
8
 71
3
 72
8
 73
4
 74
0
 40
0
 40
0
 40
0
 40
0
 40
1
 40
1
 40
1
 40
1
 10
125.426780
 20
218.803097
 30
0.0
 10
124.170620
 20
218.802397
 30
0.0
 10
123.032980
 20
218.344504
 30
0.0
 10
122.523930
 20
217.634765
 30
0.0
  0
SPLINE
  5
1fc
100
AcDbEntity
  8
Layer_1
 62
7
100
AcDbSpline
 70
8
 71
3
 72
8
 73
4
 74
0
 40
0
 40
0
 40
0
 40
0
 40
1
 40
1
 40
1
 40
1
 10
122.523930
 20
217.634765
 30
0.0
 10
122.015090
 20
218.344191
 30
0.0
 10
120.878200
 20
218.802003
 30
0.0
 10
119.622590
 20
218.803097
 30
0.0
  0
SPLINE
  5
1fd
100
AcDbEntity
  8
Layer_1
 62
7
100
AcDbSpline
 70
8
 71
3
 72
8
 73
4
 74
0
 40
0
 40
0
 40
0
 40
0
 40
1
 40
1
 40
1
 40
1
 10
119.622590
 20
218.803097
 30
0.0
 10
118.366640
 20
218.802475
 30
0.0
 10
117.229050
 20
218.344811
 30
0.0
 10
116.719740
 20
217.635272
 30
0.0
  0
SPLINE
  5
1fe
100
AcDbEntity
  8
Layer_1
 62
7
100
AcDbSpline
 70
8
 71
3
 72
8
 73
4
 74
0
 40
0
 40
0
 40
0
 40
0
 40
1
 40
1
 40
1
 40
1
 10
116.719740
 20
217.635272
 30
0.0
 10
116.210730
 20
218.344398
 30
0.0
 10
115.074140
 20
218.801970
 30
0.0
 10
113.818920
 20
218.803097
 30
0.0
  0
SPLINE
  5
1ff
100
AcDbEntity
  8
Layer_1
 62
7
100
AcDbSpline
 70
8
 71
3
 72
8
 73
4
 74
0
 40
0
 40
0
 40
0
 40
0
 40
1
 40
1
 40
1
 40
1
 10
113.818920
 20
218.803097
 30
0.0
 10
112.562760
 20
218.802397
 30
0.0
 10
111.425130
 20
218.344502
 30
0.0
 10
110.916070
 20
217.634765
 30
0.0
  0
SPLINE
  5
200
100
AcDbEntity
  8
Layer_1
 62
7
100
AcDbSpline
 70
8
 71
3
 72
8
 73
4
 74
0
 40
0
 40
0
 40
0
 40
0
 40
1
 40
1
 40
1
 40
1
 10
110.916070
 20
217.634765
 30
0.0
 10
110.407230
 20
218.344191
 30
0.0
 10
109.270340
 20
218.802003
 30
0.0
 10
108.014740
 20
218.803097
 30
0.0
  0
SPLINE
  5
201
100
AcDbEntity
  8
Layer_1
 62
7
100
AcDbSpline
 70
8
 71
3
 72
8
 73
4
 74
0
 40
0
 40
0
 40
0
 40
0
 40
1
 40
1
 40
1
 40
1
 10
108.014740
 20
218.803097
 30
0.0
 10
106.758580
 20
218.802397
 30
0.0
 10
105.620950
 20
218.344504
 30
0.0
 10
105.111880
 20
217.634765
 30
0.0
  0
SPLINE
  5
202
100
AcDbEntity
  8
Layer_1
 62
7
100
AcDbSpline
 70
8
 71
3
 72
8
 73
4
 74
0
 40
0
 40
0
 40
0
 40
0
 40
1
 40
1
 40
1
 40
1
 10
105.111880
 20
217.634765
 30
0.0
 10
104.603120
 20
218.344087
 30
0.0
 10
103.466480
 20
218.801879
 30
0.0
 10
102.211060
 20
218.803097
 30
0.0
  0
SPLINE
  5
203
100
AcDbEntity
  8
Layer_1
 62
7
100
AcDbSpline
 70
8
 71
3
 72
8
 73
4
 74
0
 40
0
 40
0
 40
0
 40
0
 40
1
 40
1
 40
1
 40
1
 10
102.211060
 20
218.803097
 30
0.0
 10
100.954900
 20
218.802397
 30
0.0
 10
99.817261
 20
218.344504
 30
0.0
 10
99.308201
 20
217.634765
 30
0.0
  0
SPLINE
  5
204
100
AcDbEntity
  8
Layer_1
 62
7
100
AcDbSpline
 70
8
 71
3
 72
8
 73
4
 74
0
 40
0
 40
0
 40
0
 40
0
 40
1
 40
1
 40
1
 40
1
 10
99.308201
 20
217.634765
 30
0.0
 10
98.799371
 20
218.344191
 30
0.0
 10
97.662481
 20
218.802003
 30
0.0
 10
96.406871
 20
218.803097
 30
0.0
  0
SPLINE
  5
205
100
AcDbEntity
  8
Layer_1
 62
7
100
AcDbSpline
 70
8
 71
3
 72
8
 73
4
 74
0
 40
0
 40
0
 40
0
 40
0
 40
1
 40
1
 40
1
 40
1
 10
96.406871
 20
218.803097
 30
0.0
 10
95.150721
 20
218.802397
 30
0.0
 10
94.013081
 20
218.344504
 30
0.0
 10
93.504021
 20
217.634765
 30
0.0
  0
SPLINE
  5
206
100
AcDbEntity
  8
Layer_1
 62
7
100
AcDbSpline
 70
8
 71
3
 72
8
 73
4
 74
0
 40
0
 40
0
 40
0
 40
0
 40
1
 40
1
 40
1
 40
1
 10
93.504021
 20
217.634765
 30
0.0
 10
92.995251
 20
218.344087
 30
0.0
 10
91.858611
 20
218.801879
 30
0.0
 10
90.603201
 20
218.803097
 30
0.0
  0
SPLINE
  5
207
100
AcDbEntity
  8
Layer_1
 62
7
100
AcDbSpline
 70
8
 71
3
 72
8
 73
4
 74
0
 40
0
 40
0
 40
0
 40
0
 40
1
 40
1
 40
1
 40
1
 10
90.603201
 20
218.803097
 30
0.0
 10
89.347037
 20
218.802397
 30
0.0
 10
88.209404
 20
218.344502
 30
0.0
 10
87.700343
 20
217.634765
 30
0.0
  0
SPLINE
  5
208
100
AcDbEntity
  8
Layer_1
 62
7
100
AcDbSpline
 70
8
 71
3
 72
8
 73
4
 74
0
 40
0
 40
0
 40
0
 40
0
 40
1
 40
1
 40
1
 40
1
 10
87.700343
 20
217.634765
 30
0.0
 10
87.191499
 20
218.344193
 30
0.0
 10
86.054622
 20
218.802005
 30
0.0
 10
84.799011
 20
218.803097
 30
0.0
  0
SPLINE
  5
209
100
AcDbEntity
  8
Layer_1
 62
7
100
AcDbSpline
 70
8
 71
3
 72
8
 73
4
 74
0
 40
0
 40
0
 40
0
 40
0
 40
1
 40
1
 40
1
 40
1
 10
84.799011
 20
218.803097
 30
0.0
 10
83.542861
 20
218.802397
 30
0.0
 10
82.405221
 20
218.344502
 30
0.0
 10
81.896167
 20
217.634765
 30
0.0
  0
SPLINE
  5
20a
100
AcDbEntity
  8
Layer_1
 62
7
100
AcDbSpline
 70
8
 71
3
 72
8
 73
4
 74
0
 40
0
 40
0
 40
0
 40
0
 40
1
 40
1
 40
1
 40
1
 10
81.896167
 20
217.634765
 30
0.0
 10
81.387330
 20
218.344191
 30
0.0
 10
80.250439
 20
218.802003
 30
0.0
 10
78.994828
 20
218.803097
 30
0.0
  0
SPLINE
  5
20b
100
AcDbEntity
  8
Layer_1
 62
7
100
AcDbSpline
 70
8
 71
3
 72
8
 73
4
 74
0
 40
0
 40
0
 40
0
 40
0
 40
1
 40
1
 40
1
 40
1
 10
78.994828
 20
218.803097
 30
0.0
 10
77.738860
 20
218.802257
 30
0.0
 10
76.601465
 20
218.344400
 30
0.0
 10
76.092488
 20
217.634765
 30
0.0
  0
SPLINE
  5
20c
100
AcDbEntity
  8
Layer_1
 62
7
100
AcDbSpline
 70
8
 71
3
 72
8
 73
4
 74
0
 40
0
 40
0
 40
0
 40
0
 40
1
 40
1
 40
1
 40
1
 10
76.092488
 20
217.634765
 30
0.0
 10
75.583651
 20
218.344191
 30
0.0
 10
74.446760
 20
218.802003
 30
0.0
 10
73.191156
 20
218.803097
 30
0.0
  0
SPLINE
  5
20d
100
AcDbEntity
  8
Layer_1
 62
7
100
AcDbSpline
 70
8
 71
3
 72
8
 73
4
 74
0
 40
0
 40
0
 40
0
 40
0
 40
1
 40
1
 40
1
 40
1
 10
73.191156
 20
218.803097
 30
0.0
 10
71.934999
 20
218.802397
 30
0.0
 10
70.797366
 20
218.344502
 30
0.0
 10
70.288305
 20
217.634765
 30
0.0
  0
SPLINE
  5
20e
100
AcDbEntity
  8
Layer_1
 62
7
100
AcDbSpline
 70
8
 71
3
 72
8
 73
4
 74
0
 40
0
 40
0
 40
0
 40
0
 40
1
 40
1
 40
1
 40
1
 10
70.288305
 20
217.634765
 30
0.0
 10
69.779459
 20
218.344193
 30
0.0
 10
68.642575
 20
218.802005
 30
0.0
 10
67.386971
 20
218.803097
 30
0.0
  0
SPLINE
  5
20f
100
AcDbEntity
  8
Layer_1
 62
7
100
AcDbSpline
 70
8
 71
3
 72
8
 73
4
 74
0
 40
0
 40
0
 40
0
 40
0
 40
1
 40
1
 40
1
 40
1
 10
67.386971
 20
218.803097
 30
0.0
 10
66.131010
 20
218.802475
 30
0.0
 10
64.993426
 20
218.344811
 30
0.0
 10
64.484117
 20
217.635272
 30
0.0
  0
SPLINE
  5
210
100
AcDbEntity
  8
Layer_1
 62
7
100
AcDbSpline
 70
8
 71
3
 72
8
 73
4
 74
0
 40
0
 40
0
 40
0
 40
0
 40
1
 40
1
 40
1
 40
1
 10
64.484117
 20
217.635272
 30
0.0
 10
63.975107
 20
218.344398
 30
0.0
 10
62.838515
 20
218.801970
 30
0.0
 10
61.583292
 20
218.803097
 30
0.0
  0
SPLINE
  5
211
100
AcDbEntity
  8
Layer_1
 62
7
100
AcDbSpline
 70
8
 71
3
 72
8
 73
4
 74
0
 40
0
 40
0
 40
0
 40
0
 40
1
 40
1
 40
1
 40
1
 10
61.583292
 20
218.803097
 30
0.0
 10
60.327138
 20
218.802397
 30
0.0
 10
59.189503
 20
218.344502
 30
0.0
 10
58.680441
 20
217.634765
 30
0.0
  0
SPLINE
  5
212
100
AcDbEntity
  8
Layer_1
 62
7
100
AcDbSpline
 70
8
 71
3
 72
8
 73
4
 74
0
 40
0
 40
0
 40
0
 40
0
 40
1
 40
1
 40
1
 40
1
 10
58.680441
 20
217.634765
 30
0.0
 10
58.171605
 20
218.344191
 30
0.0
 10
57.034714
 20
218.802003
 30
0.0
 10
55.779110
 20
218.803097
 30
0.0
  0
SPLINE
  5
213
100
AcDbEntity
  8
Layer_1
 62
7
100
AcDbSpline
 70
8
 71
3
 72
8
 73
4
 74
0
 40
0
 40
0
 40
0
 40
0
 40
1
 40
1
 40
1
 40
1
 10
55.779110
 20
218.803097
 30
0.0
 10
54.522956
 20
218.802397
 30
0.0
 10
53.385319
 20
218.344504
 30
0.0
 10
52.876259
 20
217.634765
 30
0.0
  0
SPLINE
  5
214
100
AcDbEntity
  8
Layer_1
 62
7
100
AcDbSpline
 70
8
 71
3
 72
8
 73
4
 74
0
 40
0
 40
0
 40
0
 40
0
 40
1
 40
1
 40
1
 40
1
 10
52.876259
 20
217.634765
 30
0.0
 10
52.367490
 20
218.344087
 30
0.0
 10
51.230851
 20
218.801879
 30
0.0
 10
49.975434
 20
218.803097
 30
0.0
  0
SPLINE
  5
215
100
AcDbEntity
  8
Layer_1
 62
7
100
AcDbSpline
 70
8
 71
3
 72
8
 73
4
 74
0
 40
0
 40
0
 40
0
 40
0
 40
1
 40
1
 40
1
 40
1
 10
49.975434
 20
218.803097
 30
0.0
 10
48.720229
 20
218.802397
 30
0.0
 10
47.583243
 20
218.345220
 30
0.0
 10
47.073595
 20
217.636285
 30
0.0
  0
SPLINE
  5
216
100
AcDbEntity
  8
Layer_1
 62
7
100
AcDbSpline
 70
8
 71
3
 72
8
 73
4
 74
0
 40
0
 40
0
 40
0
 40
0
 40
1
 40
1
 40
1
 40
1
 10
47.073595
 20
217.636285
 30
0.0
 10
46.563866
 20
218.345325
 30
0.0
 10
45.426639
 20
218.802519
 30
0.0
 10
44.171250
 20
218.803097
 30
0.0
  0
SPLINE
  5
217
100
AcDbEntity
  8
Layer_1
 62
7
100
AcDbSpline
 70
8
 71
3
 72
8
 73
4
 74
0
 40
0
 40
0
 40
0
 40
0
 40
1
 40
1
 40
1
 40
1
 10
44.171250
 20
218.803097
 30
0.0
 10
42.915096
 20
218.802397
 30
0.0
 10
41.777458
 20
218.344502
 30
0.0
 10
41.268399
 20
217.634765
 30
0.0
  0
SPLINE
  5
218
100
AcDbEntity
  8
Layer_1
 62
7
100
AcDbSpline
 70
8
 71
3
 72
8
 73
4
 74
0
 40
0
 40
0
 40
0
 40
0
 40
1
 40
1
 40
1
 40
1
 10
41.268399
 20
217.634765
 30
0.0
 10
40.759632
 20
218.344089
 30
0.0
 10
39.622991
 20
218.801881
 30
0.0
 10
38.367574
 20
218.803097
 30
0.0
  0
SPLINE
  5
219
100
AcDbEntity
  8
Layer_1
 62
7
100
AcDbSpline
 70
8
 71
3
 72
8
 73
4
 74
0
 40
0
 40
0
 40
0
 40
0
 40
1
 40
1
 40
1
 40
1
 10
38.367574
 20
218.803097
 30
0.0
 10
37.111419
 20
218.802397
 30
0.0
 10
35.973765
 20
218.344502
 30
0.0
 10
35.464723
 20
217.634765
 30
0.0
  0
SPLINE
  5
21a
100
AcDbEntity
  8
Layer_1
 62
7
100
AcDbSpline
 70
8
 71
3
 72
8
 73
4
 74
0
 40
0
 40
0
 40
0
 40
0
 40
1
 40
1
 40
1
 40
1
 10
35.464723
 20
217.634765
 30
0.0
 10
34.955886
 20
218.344191
 30
0.0
 10
33.818997
 20
218.802003
 30
0.0
 10
32.563389
 20
218.803097
 30
0.0
  0
SPLINE
  5
21b
100
AcDbEntity
  8
Layer_1
 62
7
100
AcDbSpline
 70
8
 71
3
 72
8
 73
4
 74
0
 40
0
 40
0
 40
0
 40
0
 40
1
 40
1
 40
1
 40
1
 10
32.563389
 20
218.803097
 30
0.0
 10
31.307236
 20
218.802397
 30
0.0
 10
30.169598
 20
218.344502
 30
0.0
 10
29.660539
 20
217.634765
 30
0.0
  0
SPLINE
  5
21c
100
AcDbEntity
  8
Layer_1
 62
7
100
AcDbSpline
 70
8
 71
3
 72
8
 73
4
 74
0
 40
0
 40
0
 40
0
 40
0
 40
1
 40
1
 40
1
 40
1
 10
29.660539
 20
217.634765
 30
0.0
 10
29.151695
 20
218.344193
 30
0.0
 10
28.014812
 20
218.802005
 30
0.0
 10
26.759208
 20
218.803097
 30
0.0
  0
SPLINE
  5
21d
100
AcDbEntity
  8
Layer_1
 62
7
100
AcDbSpline
 70
8
 71
3
 72
8
 73
4
 74
0
 40
0
 40
0
 40
0
 40
0
 40
1
 40
1
 40
1
 40
1
 10
26.759208
 20
218.803097
 30
0.0
 10
25.503238
 20
218.802257
 30
0.0
 10
24.365855
 20
218.344398
 30
0.0
 10
23.856863
 20
217.634765
 30
0.0
  0
SPLINE
  5
21e
100
AcDbEntity
  8
Layer_1
 62
7
100
AcDbSpline
 70
8
 71
3
 72
8
 73
4
 74
0
 40
0
 40
0
 40
0
 40
0
 40
1
 40
1
 40
1
 40
1
 10
23.856863
 20
217.634765
 30
0.0
 10
23.348016
 20
218.344193
 30
0.0
 10
22.211136
 20
218.802005
 30
0.0
 10
20.955529
 20
218.803097
 30
0.0
  0
SPLINE
  5
21f
100
AcDbEntity
  8
Layer_1
 62
7
100
AcDbSpline
 70
8
 71
3
 72
8
 73
4
 74
0
 40
0
 40
0
 40
0
 40
0
 40
1
 40
1
 40
1
 40
1
 10
20.955529
 20
218.803097
 30
0.0
 10
19.699375
 20
218.802397
 30
0.0
 10
18.561741
 20
218.344502
 30
0.0
 10
18.052679
 20
217.634765
 30
0.0
  0
SPLINE
  5
220
100
AcDbEntity
  8
Layer_1
 62
7
100
AcDbSpline
 70
8
 71
3
 72
8
 73
4
 74
0
 40
0
 40
0
 40
0
 40
0
 40
1
 40
1
 40
1
 40
1
 10
18.052679
 20
217.634765
 30
0.0
 10
17.543843
 20
218.344191
 30
0.0
 10
16.406952
 20
218.802003
 30
0.0
 10
15.151347
 20
218.803097
 30
0.0
  0
SPLINE
  5
221
100
AcDbEntity
  8
Layer_1
 62
7
100
AcDbSpline
 70
8
 71
3
 72
8
 73
4
 74
0
 40
0
 40
0
 40
0
 40
0
 40
1
 40
1
 40
1
 40
1
 10
15.151347
 20
218.803097
 30
0.0
 10
13.895389
 20
218.802475
 30
0.0
 10
12.757802
 20
218.344812
 30
0.0
 10
12.248496
 20
217.635272
 30
0.0
  0
SPLINE
  5
222
100
AcDbEntity
  8
Layer_1
 62
7
100
AcDbSpline
 70
8
 71
3
 72
8
 73
4
 74
0
 40
0
 40
0
 40
0
 40
0
 40
1
 40
1
 40
1
 40
1
 10
12.248496
 20
217.635272
 30
0.0
 10
11.739484
 20
218.344396
 30
0.0
 10
10.602893
 20
218.801968
 30
0.0
 10
9.347670
 20
218.803097
 30
0.0
  0
SPLINE
  5
223
100
AcDbEntity
  8
Layer_1
 62
7
100
AcDbSpline
 70
8
 71
3
 72
8
 73
4
 74
0
 40
0
 40
0
 40
0
 40
0
 40
1
 40
1
 40
1
 40
1
 10
9.347670
 20
218.803097
 30
0.0
 10
8.091515
 20
218.802397
 30
0.0
 10
6.953880
 20
218.344504
 30
0.0
 10
6.444819
 20
217.634765
 30
0.0
  0
SPLINE
  5
224
100
AcDbEntity
  8
Layer_1
 62
7
100
AcDbSpline
 70
8
 71
3
 72
8
 73
4
 74
0
 40
0
 40
0
 40
0
 40
0
 40
1
 40
1
 40
1
 40
1
 10
6.444819
 20
217.634765
 30
0.0
 10
5.935973
 20
218.344201
 30
0.0
 10
4.799082
 20
218.802013
 30
0.0
 10
3.543477
 20
218.803107
 30
0.0
  0
LWPOLYLINE
  5
225
100
AcDbEntity
  8
Layer_1
 62
7
100
AcDbPolyline
 90
5
 70
0
 10
192.381760
 20
183.272980
 30
0.0
 10
192.813740
 20
183.272980
 30
0.0
 10
192.813740
 20
216.835659
 30
0.0
 10
192.448610
 20
216.835659
 30
0.0
 10
192.448610
 20
216.838659
 30
0.0
  0
LWPOLYLINE
  5
226
100
AcDbEntity
  8
Layer_1
 62
7
100
AcDbPolyline
 90
1
 70
1
 10
3.543477
 20
218.803107
 30
0.0
  0
ENDSEC
  0
SECTION
  2
OBJECTS
  0
DICTIONARY
  5
C
330
0
100
AcDbDictionary
  3
ACAD_GROUP
350
D
  3
ACAD_MLINESTYLE
350
17
  0
DICTIONARY
  5
D
330
C
100
AcDbDictionary
  0
DICTIONARY
  5
1A
330
C
100
AcDbDictionary
  0
DICTIONARY
  5
17
330
C
100
AcDbDictionary
  3
STANDARD
350
18
  0
DICTIONARY
  5
19
330
C
100
AcDbDictionary
  0
ENDSEC
  0
EOF
