<?xml version="1.0" encoding="UTF-8" standalone="no"?>
<!-- Created with Inkscape (http://www.inkscape.org/) -->

<svg
   xmlns:dc="http://purl.org/dc/elements/1.1/"
   xmlns:cc="http://creativecommons.org/ns#"
   xmlns:rdf="http://www.w3.org/1999/02/22-rdf-syntax-ns#"
   xmlns:svg="http://www.w3.org/2000/svg"
   xmlns="http://www.w3.org/2000/svg"
   xmlns:sodipodi="http://sodipodi.sourceforge.net/DTD/sodipodi-0.dtd"
   xmlns:inkscape="http://www.inkscape.org/namespaces/inkscape"
   width="210mm"
   height="297mm"
   viewBox="0 0 210 297"
   version="1.1"
   id="svg8"
   inkscape:version="0.92.2 (5c3e80d, 2017-08-06)"
   sodipodi:docname="v6.0.MVMask-Child.svg">
  <defs
     id="defs2" />
  <sodipodi:namedview
     id="base"
     pagecolor="#ffffff"
     bordercolor="#666666"
     borderopacity="1.0"
     inkscape:pageopacity="0.0"
     inkscape:pageshadow="2"
     inkscape:zoom="0.24748737"
     inkscape:cx="550.64337"
     inkscape:cy="493.03052"
     inkscape:document-units="mm"
     inkscape:current-layer="layer1"
     showgrid="false"
     inkscape:window-width="1600"
     inkscape:window-height="837"
     inkscape:window-x="-8"
     inkscape:window-y="-8"
     inkscape:window-maximized="1" />
  <metadata
     id="metadata5">
    <rdf:RDF>
      <cc:Work
         rdf:about="">
        <dc:format>image/svg+xml</dc:format>
        <dc:type
           rdf:resource="http://purl.org/dc/dcmitype/StillImage" />
        <dc:title></dc:title>
      </cc:Work>
    </rdf:RDF>
  </metadata>
  <g
     inkscape:label="Layer 1"
     inkscape:groupmode="layer"
     id="layer1">
    <path
       style="opacity:1;fill:#999999;fill-opacity:0.98994978;stroke:none;stroke-width:0.54791081;stroke-miterlimit:4;stroke-dasharray:none;stroke-opacity:1"
       d="m 4.04974,46.939263 c -2.00616,6.4e-5 -3.63241,1.0052 -3.6324,2.245072 v 0.0032 H 4e-5 v 38.357224 h 0.49717 c 0.34944,1.040963 1.83235,1.787734 3.55253,1.788998 1.43538,-5.29e-4 2.73548,-0.523758 3.31754,-1.334658 0.58182,0.810543 1.88106,1.33351 3.31581,1.334658 1.43538,-5.29e-4 2.73547,-0.523756 3.31754,-1.334658 0.58173,0.810426 1.88069,1.33337 3.31523,1.334658 1.43538,-5.29e-4 2.73547,-0.523756 3.31755,-1.334658 0.58181,0.810543 1.88105,1.33351 3.31581,1.334658 1.43537,-5.29e-4 2.73548,-0.523758 3.31754,-1.334658 0.58173,0.810429 1.88069,1.33337 3.31523,1.334658 1.43538,-5.29e-4 2.73547,-0.523758 3.31754,-1.334658 0.58182,0.810543 1.88105,1.33351 3.31581,1.334658 1.43538,-5.29e-4 2.73547,-0.523756 3.31754,-1.334658 0.2439,0.339711 1.5669,1.610288 1.87118,1.841084 -0.79986,0.606819 -1.31109,1.906659 -1.31208,3.336071 0.002,1.429199 0.51233,2.728761 1.31208,3.335483 -0.79986,0.606816 -1.31109,1.906653 -1.31208,3.336067 8e-4,1.429406 0.51222,2.729246 1.31208,3.336066 -0.79975,0.60672 -1.31096,1.90628 -1.31208,3.33548 8e-4,1.42942 0.51222,2.72925 1.31208,3.33607 -0.79986,0.60681 -1.31109,1.90665 -1.31208,3.33606 0.002,1.42921 0.51233,2.72877 1.31208,3.33549 -0.79986,0.60681 -1.31109,1.90666 -1.31208,3.33607 8e-4,1.42941 0.51222,2.72925 1.31208,3.33606 -0.79975,0.60673 -1.31096,1.90629 -1.31208,3.33549 2.1e-4,0.31511 0.0256,0.62885 0.0752,0.93356 -0.25977,0.17595 -0.47608,0.37745 -0.63608,0.59961 -0.58181,-0.81054 -1.88105,-1.33351 -3.3158,-1.33465 -1.43538,5.3e-4 -2.73548,0.52376 -3.31755,1.33465 -0.58181,-0.81054 -1.88105,-1.3335 -3.31581,-1.33465 -1.43517,7.9e-4 -2.73497,0.52387 -3.31696,1.33465 -0.5818,-0.81054 -1.88106,-1.3335 -3.31581,-1.33465 -1.43538,5.3e-4 -2.73548,0.52376 -3.31755,1.33465 -0.58181,-0.81054 -1.88104,-1.33351 -3.3158,-1.33465 -1.43516,5.3e-4 -2.7352,0.5234 -3.31755,1.33408 -0.58201,-0.8102 -1.88089,-1.33289 -3.31522,-1.33408 -1.43539,5.3e-4 -2.73548,0.52376 -3.31755,1.33465 -0.5818,-0.81054 -1.88105,-1.3335 -3.3158,-1.33465 -1.75026,7.9e-4 -3.25076,0.77281 -3.56932,1.83645 H 0 v 41.71784 h 0.42714 c 0.13699,1.17406 1.71794,2.08339 3.62256,2.08359 1.43538,-5.3e-4 2.73548,-0.52375 3.31754,-1.33465 0.58181,0.81054 1.88106,1.3335 3.31581,1.33465 1.43538,-5.3e-4 2.73548,-0.52375 3.31754,-1.33465 0.58173,0.81042 1.88069,1.33336 3.31523,1.33465 1.43538,-5.3e-4 2.73548,-0.52375 3.31755,-1.33465 0.58181,0.81054 1.88105,1.3335 3.31581,1.33465 1.43537,-5.3e-4 2.73548,-0.52375 3.31754,-1.33465 0.58173,0.81043 1.88069,1.33336 3.31523,1.33465 1.43538,-5.3e-4 2.73547,-0.52375 3.31754,-1.33465 0.58181,0.81054 1.88105,1.3335 3.31581,1.33465 1.43538,-5.3e-4 2.73548,-0.52375 3.31754,-1.33465 0.18481,0.25763 0.4475,0.4863 0.76399,0.68064 -0.13429,0.4773 -0.20413,0.99544 -0.20489,1.51986 8e-4,1.42942 0.51222,2.72926 1.31208,3.33606 -0.79986,0.60683 -1.31109,1.90666 -1.31208,3.33607 0.002,1.4292 0.51233,2.72877 1.31208,3.33549 -0.79986,0.60681 -1.31109,1.90666 -1.31208,3.33607 0.002,1.4292 0.51234,2.72875 1.31208,3.33549 -0.79986,0.6068 -1.31109,1.90664 -1.31208,3.33605 8e-4,1.42942 0.51222,2.72926 1.31208,3.33607 -0.79986,0.60683 -1.31109,1.90666 -1.31208,3.33607 0.002,1.42921 0.51233,2.72876 1.31208,3.33549 -0.79986,0.6068 -1.31109,1.90664 -1.31208,3.33606 0.002,1.43006 0.5128,2.73028 1.31324,3.33664 -0.80008,0.6061 -1.31176,1.9055 -1.31324,3.33491 8e-4,1.42942 0.51222,2.72925 1.31208,3.33607 -0.79975,0.60672 -1.31096,1.90629 -1.31208,3.33548 8e-4,1.42941 0.51222,2.72926 1.31208,3.33607 -0.79986,0.60681 -1.31109,1.90666 -1.31208,3.33607 0.002,1.42919 0.51233,2.72876 1.31208,3.33549 -0.79986,0.60681 -1.31109,1.90665 -1.31208,3.33605 8e-4,1.42943 0.51222,2.72926 1.31208,3.33607 -0.79975,0.60673 -1.31096,1.90629 -1.31208,3.33549 8e-4,1.4294 0.51222,2.72924 1.31208,3.33607 -0.79986,0.60681 -1.31109,1.90665 -1.31208,3.33606 0.002,1.42984 0.51292,2.72979 1.31324,3.33606 -0.8002,0.60618 -1.3119,1.90586 -1.31324,3.33549 0.002,1.4292 0.51233,2.72876 1.31208,3.33548 -0.79986,0.60682 -1.31109,1.90667 -1.31208,3.33608 8e-4,1.4294 0.51222,2.72925 1.31208,3.33606 -0.79986,0.6068 -1.31109,1.90665 -1.31208,3.33606 0.002,1.42921 0.51233,2.72876 1.31208,3.33548 -0.79986,0.60683 -1.31109,1.90667 -1.31208,3.33608 0.002,1.42919 0.51233,2.72876 1.31208,3.33548 -0.79986,0.60681 -1.31109,1.90665 -1.31208,3.33606 8e-4,1.42941 0.51222,2.72925 1.31208,3.33608 -0.79975,0.60672 -1.31096,1.90627 -1.31208,3.33549 8e-4,1.39073 0.48519,2.6624 1.25248,3.28917 -0.76747,0.4815 -1.25174,1.45853 -1.25248,2.52694 -1.2e-4,1.56487 0.49142,4.23206 3.75391,4.26999 0.4842,0 1.92965,-0.7211 2.31979,-1.07749 5.3e-4,1.23973 1.7111,1.2598 3.3014,1.33526 1.43538,0 2.73548,-0.52375 3.31754,-1.33464 0.58173,0.81042 1.88069,1.33334 3.31523,1.33464 1.43538,0 2.73549,-0.52375 3.31755,-1.33464 0.58182,0.81053 1.88105,1.33347 3.3158,1.33464 1.43538,0 2.73549,-0.52375 3.31754,-1.33464 0.58174,0.81042 1.88069,1.33334 3.31524,1.33464 1.4356,0 2.73576,-0.52411 3.31754,-1.33524 0.58154,0.81077 1.88083,1.33399 3.31581,1.33524 1.43538,0 2.73548,-0.52375 3.31754,-1.33464 0.58182,0.81053 1.88106,1.33347 3.31581,1.33464 1.43561,0 2.73576,-0.52411 3.31754,-1.33524 0.58145,0.81066 1.88047,1.33384 3.31524,1.33524 1.43537,0 2.73548,-0.52375 3.31754,-1.33464 0.58182,0.81053 1.88106,1.3335 3.31581,1.33464 1.43537,0 2.73548,-0.52375 3.31754,-1.33464 0.58173,0.81042 1.88069,1.33334 3.31523,1.33464 1.43538,0 2.73548,-0.52375 3.31755,-1.33464 0.58181,0.81053 1.88105,1.33347 3.3158,1.33464 1.43538,0 2.73548,-0.52375 3.31754,-1.33464 0.58173,0.81042 1.88069,1.33334 3.31523,1.33464 1.4354,0 2.73548,-0.52375 3.31755,-1.33464 0.58182,0.81053 1.88105,1.33347 3.31581,1.33464 1.43538,0 2.73548,-0.52375 3.31754,-1.33464 0.58182,0.81053 1.88106,1.33347 3.31581,1.33464 1.43561,0 2.73576,-0.52411 3.31754,-1.33524 0.58145,0.81066 1.88048,1.33384 3.31523,1.33524 1.4354,0 2.73548,-0.52375 3.31755,-1.33464 0.58181,0.81053 1.88105,1.33347 3.31581,1.33464 1.4356,0 2.73576,-0.52411 3.31754,-1.33524 0.58145,0.81066 1.88046,1.33384 3.31523,1.33524 1.43538,0 2.73548,-0.52375 3.31755,-1.33464 0.58181,0.81053 1.88104,1.3335 3.3158,1.33464 1.43538,0 2.73548,-0.52375 3.31754,-1.33464 0.58174,0.81042 1.88069,1.33334 3.31523,1.33464 1.43539,0 2.73548,-0.52375 3.31755,-1.33464 0.58182,0.81053 1.88105,1.33347 3.3158,1.33464 1.43539,0 2.73548,-0.52375 3.31755,-1.33464 0.58173,0.81042 1.88069,1.33334 3.31523,1.33464 1.89584,1.3e-4 2.3768,-3.47074 2.37695,-4.38654 -7.9e-4,-1.12608 -0.48949,-2.15483 -1.26173,-2.65775 0.77296,-0.62427 1.26146,-1.90178 1.26173,-3.29958 -0.002,-1.42922 -0.5128,-2.72856 -1.31266,-3.33492 0.80021,-0.60663 1.31171,-1.90682 1.31266,-3.33665 -7.9e-4,-1.42919 -0.51233,-2.72877 -1.31209,-3.33549 0.79988,-0.6068 1.31111,-1.90665 1.31209,-3.33605 -7.9e-4,-1.42943 -0.51269,-2.72904 -1.31266,-3.33549 0.80009,-0.60655 1.31157,-1.90643 1.31266,-3.33607 -7.9e-4,-1.42941 -0.51269,-2.72903 -1.31266,-3.33549 0.80021,-0.60664 1.31171,-1.9068 1.31266,-3.33663 -7.9e-4,-1.42921 -0.51233,-2.72876 -1.31209,-3.3355 0.79988,-0.60681 1.31111,-1.90666 1.31209,-3.33606 -7.9e-4,-1.42941 -0.51269,-2.72903 -1.31266,-3.33549 0.80009,-0.60654 1.31157,-1.90643 1.31266,-3.33606 -7.9e-4,-1.42942 -0.51269,-2.72904 -1.31266,-3.33549 0.80021,-0.60664 1.31171,-1.9068 1.31266,-3.33664 -0.002,-1.42921 -0.5128,-2.72855 -1.31266,-3.33492 0.80021,-0.60662 1.31171,-1.9068 1.31266,-3.33664 -7.9e-4,-1.4292 -0.51233,-2.72876 -1.31209,-3.33548 0.79988,-0.60682 1.31111,-1.90666 1.31209,-3.33606 -7.9e-4,-1.42942 -0.51269,-2.72904 -1.31266,-3.33549 0.80009,-0.60655 1.31157,-1.90645 1.31266,-3.33607 -0.002,-1.42985 -0.51433,-2.72913 -1.31498,-3.33433 0.80135,-0.60572 1.31389,-1.90668 1.31498,-3.3378 -7.9e-4,-1.4292 -0.51233,-2.72876 -1.31209,-3.33548 0.79988,-0.60682 1.31111,-1.90666 1.31209,-3.33607 -7.9e-4,-1.42942 -0.51269,-2.72903 -1.31266,-3.33549 0.80009,-0.60654 1.31157,-1.90644 1.31266,-3.33606 -7.9e-4,-1.42942 -0.51269,-2.72903 -1.31266,-3.33549 0.80021,-0.60663 1.31171,-1.90682 1.31266,-3.33665 -7.9e-4,-1.4292 -0.51233,-2.72874 -1.31209,-3.33548 0.79988,-0.60681 1.31111,-1.90665 1.31209,-3.33606 -7.9e-4,-1.42941 -0.51269,-2.72903 -1.31266,-3.33549 0.80009,-0.60654 1.31157,-1.90645 1.31266,-3.33607 -7.9e-4,-1.42941 -0.51269,-2.72903 -1.31266,-3.33548 0.80021,-0.60664 1.31171,-1.90682 1.31266,-3.33665 -7.9e-4,-0.54021 -0.0753,-1.07347 -0.21761,-1.56211 1.36831,0.43543 3.47952,0.69543 4.4884,0.69626 1.43538,-5.3e-4 2.73548,-0.52375 3.31755,-1.33465 0.58181,0.81054 1.88105,1.33351 3.31581,1.33465 1.43537,-5.3e-4 2.73548,-0.52375 3.31754,-1.33465 0.58173,0.81043 1.88069,1.33336 3.31522,1.33465 1.43539,-5.3e-4 2.73551,-0.52375 3.31755,-1.33465 0.58181,0.81054 1.88105,1.3335 3.31581,1.33465 1.43538,-5.3e-4 2.73548,-0.52375 3.31754,-1.33465 0.58173,0.81042 1.88069,1.33336 3.31523,1.33465 1.43539,-5.3e-4 2.73548,-0.52375 3.31755,-1.33465 0.5818,0.81054 1.88105,1.3335 3.31582,1.33465 1.90347,-7.9e-4 3.48274,-0.91021 3.61965,-2.08359 h 0.43004 v -41.71757 h -0.47981 c -0.3186,-1.06378 -1.81942,-1.83584 -3.56988,-1.83645 -1.4354,5.3e-4 -2.7355,0.52375 -3.31756,1.33466 -0.58181,-0.81055 -1.88106,-1.33351 -3.31581,-1.33466 -1.43517,7.9e-4 -2.73497,0.52388 -3.31697,1.33466 -0.58181,-0.81055 -1.88104,-1.33351 -3.3158,-1.33466 -1.43538,5.3e-4 -2.73548,0.52376 -3.31755,1.33466 -0.58181,-0.81055 -1.88105,-1.33351 -3.31581,-1.33466 -1.43516,5.3e-4 -2.7352,0.5234 -3.31754,1.33408 -0.58201,-0.8102 -1.88091,-1.33289 -3.31522,-1.33408 -1.43539,5.3e-4 -2.73548,0.52375 -3.31755,1.33466 -0.58181,-0.81055 -1.88105,-1.33351 -3.31581,-1.33466 -1.43538,5.3e-4 -2.73548,0.52376 -3.31755,1.33466 -0.22864,-0.31842 -0.5741,-0.5938 -0.99781,-0.81203 0.0294,-0.23743 0.0444,-0.47898 0.0446,-0.72115 -7.9e-4,-1.38596 -0.48219,-2.65399 -1.24552,-3.28282 v -0.1007 c 0.76436,-0.62969 1.24564,-1.9002 1.24552,-3.28803 -7.9e-4,-1.38617 -0.48208,-2.65447 -1.24552,-3.2834 v -0.1007 c 0.76424,-0.62959 1.2455,-1.89983 1.24552,-3.28745 -7.9e-4,-1.38617 -0.48208,-2.65447 -1.24552,-3.2834 v -0.10071 c 0.76436,-0.62968 1.24564,-1.90019 1.24552,-3.28802 -7.9e-4,-1.38596 -0.48219,-2.65399 -1.24552,-3.28282 v -0.10071 c 0.76436,-0.62968 1.24564,-1.90019 1.24552,-3.288023 -7.9e-4,-1.386168 -0.48208,-2.654472 -1.24552,-3.283397 v -0.100709 c 0.76424,-0.629586 1.2455,-1.899822 1.24552,-3.287448 -7.9e-4,-1.386165 -0.48208,-2.654469 -1.24552,-3.283397 v -0.100708 c 0.22624,-0.187936 0.43144,-0.435793 0.60713,-0.733306 0.7008,-0.233942 1.26575,-0.603665 1.59453,-1.060318 0.58136,0.810535 1.8801,1.333704 3.31465,1.335236 1.43538,-5.29e-4 2.73549,-0.523759 3.31755,-1.334659 0.58182,0.810548 1.88105,1.333511 3.31581,1.334659 1.43537,-5.29e-4 2.73548,-0.523759 3.31754,-1.334659 0.58173,0.810429 1.88069,1.333368 3.31523,1.334659 1.43538,-5.29e-4 2.7355,-0.523759 3.31754,-1.334659 0.58182,0.810546 1.88106,1.333511 3.31581,1.334659 1.43538,-5.29e-4 2.73547,-0.523756 3.31754,-1.334659 0.58173,0.810427 1.88069,1.333368 3.31523,1.334659 1.43539,-5.29e-4 2.73547,-0.523756 3.31756,-1.334659 0.5818,0.810546 1.88105,1.333511 3.3158,1.334659 1.72148,-2.12e-4 3.2063,-0.747244 3.556,-1.788996 h 0.49368 V 49.187807 h -0.41728 v -0.0032 c 0,-1.239872 -1.62625,-2.245008 -3.6324,-2.245072 -1.43559,8e-4 -2.73576,0.524104 -3.31754,1.33524 -0.58154,-0.810776 -1.88084,-1.333992 -3.31582,-1.33524 -1.43539,8e-4 -2.73526,0.524232 -3.31696,1.33524 -0.58154,-0.810776 -1.88084,-1.333992 -3.31581,-1.33524 -1.4356,8e-4 -2.73576,0.524112 -3.31755,1.33524 -0.58152,-0.810776 -1.88082,-1.333992 -3.3158,-1.33524 -1.43538,7.12e-4 -2.73548,0.523752 -3.31755,1.334656 -0.58173,-0.810424 -1.88069,-1.333368 -3.31522,-1.334656 -1.43561,8e-4 -2.73577,0.524104 -3.31755,1.33524 -0.58152,-0.810776 -1.88083,-1.333992 -3.31581,-1.33524 -1.4356,8e-4 -2.73575,0.524112 -3.31755,1.33524 -0.58144,-0.810656 -1.88045,-1.333848 -3.31522,-1.33524 -1.43561,8e-4 -2.73576,0.524112 -3.31754,1.33524 -0.58153,-0.810776 -1.88084,-1.333992 -3.31581,-1.33524 -1.43561,8e-4 -2.73576,0.524104 -3.31755,1.33524 -0.58144,-0.810656 -1.88046,-1.333848 -3.31523,-1.33524 -1.4356,8e-4 -2.73576,0.524112 -3.31754,1.33524 -0.58154,-0.810776 -1.88083,-1.333992 -3.31581,-1.33524 -1.4356,8e-4 -2.73576,0.524112 -3.31754,1.33524 -0.58153,-0.810776 -1.88083,-1.333992 -3.31581,-1.33524 -1.43539,8e-4 -2.73526,0.524224 -3.31697,1.33524 -0.58152,-0.810776 -1.88082,-1.333992 -3.3158,-1.33524 -1.43561,8e-4 -2.73577,0.524104 -3.31754,1.33524 -0.58153,-0.810776 -1.88084,-1.333992 -3.31582,-1.33524 -1.43538,7.12e-4 -2.73548,0.52376 -3.31754,1.334656 -0.58172,-0.810424 -1.88069,-1.333368 -3.31523,-1.334656 -1.43561,8e-4 -2.73576,0.524112 -3.31754,1.33524 -0.58153,-0.810776 -1.88083,-1.333992 -3.31581,-1.33524 -1.43561,8e-4 -2.73576,0.524104 -3.31754,1.33524 -0.58145,-0.810656 -1.88047,-1.333848 -3.31524,-1.33524 -1.4356,8e-4 -2.73576,0.524104 -3.31754,1.33524 -0.58153,-0.810776 -1.88083,-1.333992 -3.31581,-1.33524 -1.4356,8e-4 -2.73576,0.524104 -3.31754,1.33524 -0.58145,-0.810656 -1.88047,-1.333848 -3.31523,-1.33524 -1.43561,8e-4 -2.73576,0.524112 -3.31755,1.33524 -0.58153,-0.810776 -1.88082,-1.333992 -3.31581,-1.33524 -1.4356,8e-4 -2.73576,0.524112 -3.31753,1.33524 -0.58153,-0.810776 -1.88083,-1.333992 -3.31582,-1.33524 -1.43539,8e-4 -2.73527,0.524224 -3.31696,1.33524 -0.58153,-0.810776 -1.88083,-1.333992 -3.31581,-1.33524 -1.4356,8e-4 -2.73576,0.524112 -3.31754,1.33524 -0.58154,-0.810776 -1.88083,-1.333992 -3.31581,-1.33524 -1.43538,7.12e-4 -2.73548,0.52376 -3.31755,1.334656 -0.58172,-0.810424 -1.88069,-1.333368 -3.31522,-1.334656 -1.43561,8e-4 -2.73576,0.524112 -3.31755,1.33524 -0.58153,-0.810776 -1.88083,-1.333992 -3.31581,-1.33524 -1.4356,8e-4 -2.73576,0.524104 -3.31754,1.33524 -0.58145,-0.810656 -1.88046,-1.333848 -3.31523,-1.33524 -1.43452,8e-4 -2.73393,0.523288 -3.31639,1.333504 -0.58254,-0.810336 -1.88224,-1.33284 -3.31696,-1.333504 -1.4356,8e-4 -2.73576,0.524112 -3.31755,1.33524 -0.58145,-0.810656 -1.88046,-1.333848 -3.31522,-1.33524 -1.43561,8e-4 -2.73579,0.524112 -3.31755,1.33524 -0.58152,-0.810776 -1.88083,-1.333992 -3.31581,-1.33524 -1.4356,8e-4 -2.73576,0.524112 -3.31755,1.33524 -0.58153,-0.810776 -1.88082,-1.333992 -3.3158,-1.33524 -1.4354,8e-4 -2.73526,0.524232 -3.31696,1.33524 -0.58155,-0.810776 -1.88084,-1.333992 -3.31581,-1.33524 -1.43561,8e-4 -2.73576,0.524112 -3.31755,1.33524 -0.58152,-0.810776 -1.88083,-1.333992 -3.3158,-1.33524 -1.43539,7.12e-4 -2.73548,0.523752 -3.31755,1.334656 -0.58173,-0.810424 -1.88069,-1.333368 -3.31523,-1.334656 -1.43561,8e-4 -2.73576,0.524104 -3.31754,1.33524 C 6.78401,47.463999 5.4847,46.940783 4.04973,46.939535 Z"
       id="path21044-0-1-0"
       inkscape:connector-curvature="0"
       sodipodi:nodetypes="cccccccccccccccccccccccccccccccccccccccccccccccccccccccccccccccccccccccccccccccccccccccccccccccccccccccccccccccccccccccccccccccccccccccccccccccccccccccccccccccccccccccccccccccccccccccccccccccccccccccccccccccccccccccccccccccccccccccccccccccscccccccccccccccccccccccccccccccccccccccccccccccccccccccccccccccccc" />
  </g>
</svg>
