<?xml version="1.0" encoding="UTF-8" standalone="no"?>
<!-- Created with Inkscape (http://www.inkscape.org/) -->

<svg
   xmlns:dc="http://purl.org/dc/elements/1.1/"
   xmlns:cc="http://creativecommons.org/ns#"
   xmlns:rdf="http://www.w3.org/1999/02/22-rdf-syntax-ns#"
   xmlns:svg="http://www.w3.org/2000/svg"
   xmlns="http://www.w3.org/2000/svg"
   xmlns:sodipodi="http://sodipodi.sourceforge.net/DTD/sodipodi-0.dtd"
   xmlns:inkscape="http://www.inkscape.org/namespaces/inkscape"
   width="210mm"
   height="297mm"
   viewBox="0 0 210 297"
   version="1.1"
   id="svg5250"
   inkscape:version="0.92.2 (5c3e80d, 2017-08-06)"
   sodipodi:docname="v6.0.MVMask-Adult.svg">
  <defs
     id="defs5244" />
  <sodipodi:namedview
     id="base"
     pagecolor="#ffffff"
     bordercolor="#666666"
     borderopacity="1.0"
     inkscape:pageopacity="0.0"
     inkscape:pageshadow="2"
     inkscape:zoom="0.35"
     inkscape:cx="800.24992"
     inkscape:cy="659.58142"
     inkscape:document-units="mm"
     inkscape:current-layer="layer1"
     showgrid="false"
     inkscape:window-width="1600"
     inkscape:window-height="837"
     inkscape:window-x="-8"
     inkscape:window-y="-8"
     inkscape:window-maximized="1" />
  <metadata
     id="metadata5247">
    <rdf:RDF>
      <cc:Work
         rdf:about="">
        <dc:format>image/svg+xml</dc:format>
        <dc:type
           rdf:resource="http://purl.org/dc/dcmitype/StillImage" />
        <dc:title></dc:title>
      </cc:Work>
    </rdf:RDF>
  </metadata>
  <g
     inkscape:label="Layer 1"
     inkscape:groupmode="layer"
     id="layer1">
    <path
       style="opacity:1;fill:#999999;fill-opacity:0.98994978;stroke:none;stroke-width:0.68488848;stroke-miterlimit:4;stroke-dasharray:none;stroke-opacity:1"
       d="m 5.06212,-15.575922 c -2.507694,7.8e-5 -4.540512,1.256498 -4.540498,2.80634 v 0.0043 H 0 v 47.94653 h 0.621461 c 0.436799,1.301203 2.290442,2.234664 4.440659,2.236246 1.794226,-7.41e-4 3.419353,-0.654697 4.14693,-1.668324 0.727272,1.013183 2.351318,1.66689 4.14476,1.668324 1.794226,-7.41e-4 3.419337,-0.654693 4.146931,-1.668324 0.72716,1.013034 2.35086,1.666712 4.144036,1.668324 1.794226,-7.41e-4 3.419336,-0.654693 4.14693,-1.668324 0.727272,1.013183 2.35132,1.66689 4.144759,1.668324 1.794228,-7.41e-4 3.419353,-0.654697 4.146933,-1.668324 0.727157,1.013038 2.35086,1.666712 4.144036,1.668324 1.794225,-7.41e-4 3.41935,-0.654697 4.14693,-1.668324 0.727272,1.013183 2.351316,1.66689 4.144758,1.668324 1.794228,-7.41e-4 3.419339,-0.654693 4.14693,-1.668324 0.304867,0.424639 1.958626,2.012863 2.338981,2.301358 -0.999836,0.758521 -1.638875,2.383321 -1.640109,4.170085 0.0015,1.786501 0.640417,3.410952 1.640109,4.169358 -0.999836,0.758517 -1.638875,2.383316 -1.640109,4.17008 0.0011,1.786764 0.640273,3.411563 1.640109,4.17008 -0.999692,0.758406 -1.638701,2.382857 -1.640109,4.169359 0.0011,1.786764 0.640273,3.411563 1.640109,4.17008 -0.999836,0.758521 -1.638875,2.38332 -1.640109,4.170084 0.0015,1.786501 0.640417,3.410952 1.640109,4.169358 -0.999836,0.758517 -1.638875,2.383317 -1.640109,4.170081 0.0011,1.786764 0.640273,3.411563 1.640109,4.17008 -0.999692,0.758406 -1.638701,2.382857 -1.640109,4.169357 3.71e-4,0.39389 0.03204,0.78607 0.09405,1.16696 -0.324719,0.21993 -0.595101,0.47181 -0.795092,0.74951 -0.727273,-1.01318 -2.35132,-1.66689 -4.144763,-1.66832 -1.794224,7.4e-4 -3.419349,0.6547 -4.146929,1.66832 -0.727258,-1.01318 -2.35132,-1.66688 -4.144759,-1.66832 -1.793976,0.001 -3.418727,0.65484 -4.146207,1.66832 -0.727257,-1.01318 -2.35132,-1.66688 -4.144762,-1.66832 -1.794224,7.4e-4 -3.41935,0.6547 -4.146929,1.66832 -0.727272,-1.01318 -2.351318,-1.66689 -4.14476,-1.66832 -1.793946,7.4e-4 -3.419,0.65426 -4.14693,1.6676 -0.72751,-1.01275 -2.351127,-1.66611 -4.144037,-1.6676 -1.794226,7.4e-4 -3.41935,0.6547 -4.14693,1.66832 -0.727258,-1.01318 -2.351318,-1.66688 -4.14476,-1.66832 -2.187821,0.001 -4.063452,0.96601 -4.46164,2.29557 H 0 v 52.147 h 0.533921 c 0.171234,1.46758 2.147429,2.60424 4.528199,2.60449 1.794226,-7.4e-4 3.419353,-0.65469 4.14693,-1.66832 0.727259,1.01318 2.351318,1.66688 4.14476,1.66832 1.794226,-7.4e-4 3.419351,-0.65469 4.146931,-1.66832 0.72716,1.01303 2.35086,1.66671 4.144036,1.66832 1.794226,-7.4e-4 3.41935,-0.65469 4.14693,-1.66832 0.727258,1.01318 2.35132,1.66688 4.144759,1.66832 1.794228,-7.4e-4 3.419353,-0.65469 4.146933,-1.66832 0.727157,1.01304 2.35086,1.66671 4.144036,1.66832 1.794225,-7.4e-4 3.41935,-0.65469 4.14693,-1.66832 0.727257,1.01318 2.351316,1.66688 4.144758,1.66832 1.794228,-7.4e-4 3.41935,-0.65469 4.14693,-1.66832 0.231003,0.32204 0.559377,0.60788 0.954982,0.8508 -0.167858,0.59663 -0.255169,1.2443 -0.25611,1.89983 0.0011,1.78677 0.640273,3.41157 1.640109,4.17008 -0.999836,0.75852 -1.638875,2.38332 -1.640109,4.17008 0.0015,1.7865 0.640417,3.41096 1.640109,4.16936 -0.999836,0.75852 -1.638875,2.38332 -1.640109,4.17009 0.0015,1.7865 0.640421,3.41094 1.640109,4.16935 -0.999836,0.75852 -1.638875,2.38332 -1.640109,4.17008 0.0011,1.78677 0.640273,3.41157 1.640109,4.17009 -0.999836,0.75852 -1.638875,2.38332 -1.640109,4.17008 0.0015,1.7865 0.640417,3.41095 1.640109,4.16936 -0.999836,0.75851 -1.638875,2.38331 -1.640109,4.17008 0.0015,1.78756 0.641006,3.41285 1.641554,4.1708 -1.000107,0.75762 -1.639713,2.38187 -1.641554,4.16864 0.0011,1.78676 0.640273,3.41156 1.640109,4.17008 -0.999692,0.75841 -1.638701,2.38286 -1.640109,4.16936 0.0011,1.78676 0.640273,3.41156 1.640109,4.17008 -0.999836,0.75852 -1.638875,2.38332 -1.640109,4.17008 0.0015,1.7865 0.640417,3.41095 1.640109,4.16936 -0.999836,0.75852 -1.638875,2.38332 -1.640109,4.17008 0.0011,1.78677 0.640273,3.41157 1.640109,4.17008 -0.999692,0.75841 -1.638701,2.38286 -1.640109,4.16936 0.0011,1.78676 0.640273,3.41156 1.640109,4.17008 -0.999836,0.75852 -1.638875,2.38332 -1.640109,4.17008 0.0015,1.7873 0.641154,3.41224 1.641554,4.17008 -1.000255,0.75773 -1.639883,2.38232 -1.641554,4.16936 0.0015,1.7865 0.640417,3.41095 1.640109,4.16936 -0.999836,0.75852 -1.638875,2.38332 -1.640109,4.17008 0.0011,1.78677 0.640273,3.41157 1.640109,4.17008 -0.999836,0.75852 -1.638875,2.38332 -1.640109,4.17008 0.0015,1.7865 0.640417,3.41095 1.640109,4.16936 -0.999836,0.75852 -1.638875,2.38332 -1.640109,4.17008 0.0015,1.7865 0.640417,3.41095 1.640109,4.16936 -0.999836,0.75852 -1.638875,2.38332 -1.640109,4.17008 0.0011,1.78676 0.640273,3.41156 1.640109,4.17008 -0.999692,0.75841 -1.638701,2.38286 -1.640109,4.16936 0.0011,1.73842 0.60648,3.32803 1.565592,4.11148 -0.959327,0.60187 -1.564666,1.82317 -1.565592,3.15867 -1.44e-4,1.95608 1.275734,3.54194 2.849749,3.54211 0.605253,-0.001 1.19439,-0.24253 1.682069,-0.68802 7.41e-4,1.54968 2.03364,2.80579 4.54122,2.80562 1.794228,-7.4e-4 3.419353,-0.6547 4.146933,-1.66832 0.727157,1.01304 2.35086,1.66671 4.144036,1.66832 1.794225,-7.4e-4 3.41935,-0.6547 4.14693,-1.66832 0.727272,1.01317 2.351316,1.66687 4.144758,1.66832 1.794228,-7.4e-4 3.41935,-0.6547 4.14693,-1.66832 0.727161,1.01304 2.35086,1.66671 4.144036,1.66832 1.79451,-10e-4 3.419702,-0.65514 4.146933,-1.66905 0.726921,1.01347 2.351038,1.66749 4.144758,1.66905 1.79423,-7.4e-4 3.41935,-0.6547 4.14693,-1.66832 0.72727,1.01317 2.351323,1.66687 4.144763,1.66832 1.79451,-10e-4 3.4197,-0.65514 4.14693,-1.66905 0.72681,1.01332 2.35058,1.66731 4.14404,1.66905 1.79422,-7.4e-4 3.41935,-0.6547 4.14693,-1.66832 0.72727,1.01317 2.35132,1.66689 4.14476,1.66832 1.79422,-7.4e-4 3.41935,-0.6547 4.14693,-1.66832 0.72716,1.01304 2.35086,1.66671 4.14404,1.66832 1.79422,-7.4e-4 3.41935,-0.6547 4.14693,-1.66832 0.72727,1.01317 2.35131,1.66687 4.14475,1.66832 1.79423,-7.4e-4 3.41935,-0.6547 4.14693,-1.66832 0.72716,1.01304 2.35086,1.66671 4.14404,1.66832 1.79424,-7.4e-4 3.41935,-0.6547 4.14693,-1.66832 0.72728,1.01317 2.35132,1.66687 4.14476,1.66832 1.79423,-7.4e-4 3.41935,-0.6547 4.14693,-1.66832 0.72727,1.01317 2.35132,1.66687 4.14476,1.66832 1.79452,-10e-4 3.4197,-0.65513 4.14693,-1.66905 0.72681,1.01332 2.3506,1.66731 4.14404,1.66905 1.79424,-7.4e-4 3.41935,-0.6547 4.14693,-1.66832 0.72727,1.01317 2.35132,1.66687 4.14476,1.66832 1.7945,-10e-4 3.4197,-0.65514 4.14693,-1.66905 0.72681,1.01332 2.35058,1.66731 4.14404,1.66905 1.79422,-7.4e-4 3.41935,-0.6547 4.14693,-1.66832 0.72727,1.01317 2.35131,1.66689 4.14475,1.66832 1.79423,-7.4e-4 3.41935,-0.6547 4.14693,-1.66832 0.72717,1.01304 2.35086,1.66671 4.14404,1.66832 1.79424,-7.4e-4 3.41935,-0.6547 4.14693,-1.66832 0.72728,1.01317 2.35132,1.66687 4.14476,1.66832 1.79423,-7.4e-4 3.41935,-0.6547 4.14693,-1.66832 0.72716,1.01304 2.35086,1.66671 4.14404,1.66832 2.3698,1.5e-4 5.61683,-4.33844 5.61702,-5.48318 -0.001,-1.40761 -0.61187,-2.69353 -1.57717,-3.32218 0.9662,-0.78034 1.57683,-2.37723 1.57717,-4.1245 -0.002,-1.78651 -0.641,-3.41068 -1.64083,-4.16863 1.00026,-0.75829 1.63964,-2.38352 1.64083,-4.17081 -0.001,-1.7865 -0.64042,-3.41095 -1.64011,-4.16936 0.99984,-0.75852 1.63888,-2.38332 1.64011,-4.17008 -0.001,-1.78677 -0.64086,-3.41129 -1.64083,-4.16936 1.00012,-0.75818 1.63947,-2.38305 1.64083,-4.17008 -0.001,-1.78676 -0.64086,-3.41129 -1.64083,-4.16936 1.00026,-0.75829 1.63964,-2.38351 1.64083,-4.1708 -0.001,-1.7865 -0.64042,-3.41095 -1.64011,-4.16936 0.99984,-0.75852 1.63888,-2.38332 1.64011,-4.17008 -0.001,-1.78677 -0.64086,-3.41129 -1.64083,-4.16936 1.00012,-0.75818 1.63947,-2.38305 1.64083,-4.17008 -0.001,-1.78677 -0.64086,-3.41129 -1.64083,-4.16936 1.00026,-0.75829 1.63964,-2.38351 1.64083,-4.1708 -0.002,-1.78651 -0.641,-3.41068 -1.64083,-4.16864 1.00026,-0.75829 1.63964,-2.38351 1.64083,-4.1708 -0.001,-1.7865 -0.64042,-3.41095 -1.64011,-4.16936 0.99984,-0.75852 1.63888,-2.38332 1.64011,-4.17008 -0.001,-1.78677 -0.64086,-3.41129 -1.64083,-4.16936 1.00012,-0.75818 1.63947,-2.38305 1.64083,-4.17008 -0.003,-1.78732 -0.64292,-3.41142 -1.64373,-4.16791 1.00169,-0.75715 1.64236,-2.38336 1.64373,-4.17225 -0.001,-1.7865 -0.64042,-3.41095 -1.64011,-4.16936 0.99984,-0.75852 1.63888,-2.38332 1.64011,-4.17008 -0.001,-1.78677 -0.64086,-3.41129 -1.64083,-4.16936 1.00012,-0.75818 1.63947,-2.38305 1.64083,-4.17008 -0.001,-1.78677 -0.64086,-3.41129 -1.64083,-4.16936 1.00026,-0.75829 1.63964,-2.38352 1.64083,-4.17081 -0.001,-1.7865 -0.64042,-3.41094 -1.64011,-4.16935 0.99984,-0.75852 1.63888,-2.38332 1.64011,-4.17008 -0.001,-1.78677 -0.64086,-3.41129 -1.64083,-4.16936 1.00012,-0.75818 1.63947,-2.38306 1.64083,-4.17009 -0.001,-1.78676 -0.64086,-3.41129 -1.64083,-4.16935 1.00026,-0.7583 1.63964,-2.38352 1.64083,-4.17081 -0.001,-0.67526 -0.0941,-1.34184 -0.27202,-1.95264 1.71039,0.54429 4.3494,0.86929 5.6105,0.87033 1.79423,-7.4e-4 3.41936,-0.65469 4.14694,-1.66832 0.72727,1.01318 2.35131,1.66689 4.14476,1.66832 1.79422,-7.4e-4 3.41935,-0.65469 4.14693,-1.66832 0.72716,1.01304 2.35086,1.66671 4.14403,1.66832 1.79423,-7.4e-4 3.41938,-0.65469 4.14693,-1.66832 0.72726,1.01318 2.35132,1.66688 4.14476,1.66832 1.79423,-7.4e-4 3.41935,-0.65469 4.14693,-1.66832 0.72716,1.01303 2.35086,1.66671 4.14404,1.66832 1.79423,-7.4e-4 3.41935,-0.65469 4.14693,-1.66832 0.72726,1.01318 2.35132,1.66688 4.14476,1.66832 2.37937,-0.001 4.35345,-1.13777 4.52458,-2.60449 h 0.53754 V 86.46229 h -0.59976 c -0.39824,-1.32973 -2.27427,-2.29481 -4.46236,-2.29557 -1.79423,7.4e-4 -3.41935,0.65469 -4.14693,1.66833 -0.72726,-1.01319 -2.35132,-1.66689 -4.14476,-1.66833 -1.79396,0.001 -3.41872,0.65485 -4.14621,1.66833 -0.72727,-1.01319 -2.35131,-1.66689 -4.14476,-1.66833 -1.79422,7.4e-4 -3.41935,0.6547 -4.14693,1.66833 -0.72726,-1.01319 -2.35132,-1.66689 -4.14476,-1.66833 -1.79396,7.4e-4 -3.419,0.65425 -4.14693,1.6676 -0.72751,-1.01275 -2.35114,-1.66611 -4.14403,-1.6676 -1.79423,7.4e-4 -3.41935,0.65469 -4.14693,1.66833 -0.72726,-1.01319 -2.35132,-1.66689 -4.14477,-1.66833 -1.79422,7.4e-4 -3.41935,0.6547 -4.14693,1.66833 -0.2858,-0.39803 -0.71763,-0.74225 -1.24726,-1.01504 0.0368,-0.29679 0.0555,-0.59873 0.0557,-0.90144 -10e-4,-1.73245 -0.60274,-3.317483 -1.55691,-4.103522 v -0.125882 c 0.95546,-0.787102 1.55705,-2.375241 1.55691,-4.110032 -10e-4,-1.732709 -0.6026,-3.318089 -1.55691,-4.104247 v -0.125882 c 0.95531,-0.786983 1.55688,-2.374778 1.55691,-4.10931 -10e-4,-1.732709 -0.6026,-3.318089 -1.55691,-4.104246 v -0.125886 c 0.95546,-0.787102 1.55705,-2.375241 1.55691,-4.110032 -10e-4,-1.73245 -0.60274,-3.317482 -1.55691,-4.103521 v -0.125886 c 0.95546,-0.787102 1.55705,-2.375241 1.55691,-4.110032 -10e-4,-1.732709 -0.6026,-3.318089 -1.55691,-4.104246 v -0.125883 c 0.95531,-0.786983 1.55688,-2.374778 1.55691,-4.109309 -10e-4,-1.73271 -0.6026,-3.318089 -1.55691,-4.104247 v -0.125886 c 0.2828,-0.234922 0.53931,-0.544742 0.75892,-0.916633 0.876,-0.292429 1.58218,-0.754583 1.99316,-1.325399 0.7267,1.013171 2.35013,1.667131 4.14331,1.669046 1.79423,-7.41e-4 3.41936,-0.654697 4.14694,-1.668324 0.72727,1.013186 2.35131,1.66689 4.14476,1.668324 1.79422,-7.41e-4 3.41935,-0.654697 4.14693,-1.668324 0.72716,1.013038 2.35086,1.666712 4.14403,1.668324 1.79423,-7.41e-4 3.41938,-0.654697 4.14693,-1.668324 0.72727,1.013183 2.35132,1.66689 4.14476,1.668324 1.79423,-7.41e-4 3.41934,-0.654693 4.14693,-1.668324 0.72716,1.013034 2.35086,1.666712 4.14404,1.668324 1.79423,-7.41e-4 3.41933,-0.654693 4.14693,-1.668324 0.72727,1.013183 2.35132,1.66689 4.14476,1.668324 2.15186,-3.11e-4 4.00787,-0.934058 4.445,-2.236246 h 0.61712 v -47.94653 h -0.52162 v -0.0043 c 0,-1.549837 -2.03281,-2.806258 -4.5405,-2.806341 -1.7945,10e-4 -3.4197,0.655133 -4.14693,1.669046 -0.72691,-1.013466 -2.35104,-1.667483 -4.14476,-1.669046 -1.79424,0.0012 -3.41908,0.655285 -4.14621,1.669046 -0.72692,-1.013469 -2.35104,-1.667486 -4.14476,-1.669046 -1.7945,10e-4 -3.4197,0.655136 -4.14693,1.669046 -0.72691,-1.013466 -2.35103,-1.667483 -4.14476,-1.669046 -1.79422,8.89e-4 -3.41935,0.654693 -4.14693,1.668322 -0.72716,-1.013034 -2.35086,-1.666709 -4.14403,-1.668322 -1.79451,10e-4 -3.41971,0.655133 -4.14693,1.669046 -0.72691,-1.013466 -2.35104,-1.667483 -4.14477,-1.669046 -1.7945,10e-4 -3.41969,0.655136 -4.14693,1.669046 -0.7268,-1.01332 -2.35057,-1.667308 -4.14403,-1.669046 -1.79451,10e-4 -3.4197,0.655136 -4.14693,1.669046 -0.72691,-1.013466 -2.35104,-1.667483 -4.14476,-1.669046 -1.79451,10e-4 -3.4197,0.655133 -4.14693,1.669046 -0.72681,-1.013317 -2.35058,-1.667306 -4.14404,-1.669046 -1.7945,10e-4 -3.4197,0.655136 -4.14693,1.669046 -0.72692,-1.013469 -2.35104,-1.667486 -4.14476,-1.669046 -1.7945,10e-4 -3.4197,0.655136 -4.14693,1.669046 -0.72691,-1.013466 -2.35103,-1.667483 -4.14476,-1.669046 -1.79424,0.0012 -3.41907,0.655282 -4.14621,1.669046 -0.7269,-1.013466 -2.35103,-1.667483 -4.14475,-1.669046 -1.79451,10e-4 -3.41971,0.655133 -4.14693,1.669046 -0.72691,-1.013466 -2.35104,-1.667483 -4.14477,-1.669046 -1.79422,8.89e-4 -3.41935,0.654695 -4.14693,1.668322 -0.72715,-1.013037 -2.35086,-1.666712 -4.14403,-1.668322 -1.79451,10e-4 -3.4197,0.655136 -4.14693,1.669046 -0.72691,-1.013466 -2.35104,-1.667483 -4.14476,-1.669046 -1.79451,10e-4 -3.4197,0.655133 -4.14693,1.669046 -0.72681,-1.013317 -2.35058,-1.667306 -4.14404,-1.669046 -1.79451,10e-4 -3.4197,0.655133 -4.14693,1.669046 -0.72691,-1.013466 -2.35104,-1.667483 -4.14476,-1.669046 -1.7945,10e-4 -3.4197,0.655133 -4.14693,1.669046 -0.72681,-1.013317 -2.35058,-1.667306 -4.14403,-1.669046 -1.79452,10e-4 -3.41971,0.655136 -4.14694,1.669046 -0.72692,-1.013469 -2.35103,-1.667486 -4.14476,-1.669046 -1.7945,10e-4 -3.4197,0.655136 -4.14692,1.669046 -0.72691,-1.013466 -2.35104,-1.667483 -4.14477,-1.669046 -1.79424,0.0012 -3.41909,0.655282 -4.1462,1.669046 -0.72691,-1.013466 -2.35104,-1.667483 -4.14476,-1.669046 -1.79451,10e-4 -3.4197,0.655136 -4.14693,1.669046 -0.726923,-1.013469 -2.351043,-1.667486 -4.144763,-1.669046 -1.79423,8.89e-4 -3.41935,0.654695 -4.146934,1.668322 -0.727158,-1.013037 -2.35086,-1.666712 -4.144036,-1.668322 -1.794506,10e-4 -3.419698,0.655136 -4.14693,1.669046 -0.726909,-1.013466 -2.351038,-1.667483 -4.144759,-1.669046 -1.794505,10e-4 -3.419701,0.655133 -4.146929,1.669046 -0.726813,-1.013317 -2.350583,-1.667306 -4.144036,-1.669046 -1.79315,10e-4 -3.417416,0.65411 -4.145485,1.666875 -0.728184,-1.012915 -2.352794,-1.666049 -4.146207,-1.666875 -1.794506,10e-4 -3.419702,0.655136 -4.146929,1.669046 -0.72681,-1.01332 -2.350583,-1.667308 -4.144037,-1.669046 -1.794506,10e-4 -3.419727,0.655136 -4.146929,1.669046 -0.72691,-1.013466 -2.351038,-1.667483 -4.144763,-1.669046 -1.794505,10e-4 -3.419701,0.655136 -4.146929,1.669046 -0.72692,-1.013469 -2.351038,-1.667486 -4.144759,-1.669046 -1.794242,0.0012 -3.419075,0.655285 -4.146207,1.669046 -0.726924,-1.013469 -2.351038,-1.667486 -4.144762,-1.669046 -1.794506,10e-4 -3.419698,0.655136 -4.146929,1.669046 -0.726908,-1.013466 -2.351038,-1.667483 -4.14476,-1.669046 -1.794226,8.89e-4 -3.41935,0.654693 -4.14693,1.668322 -0.72716,-1.013034 -2.350861,-1.666709 -4.144037,-1.668322 -1.794506,10e-4 -3.4197,0.655133 -4.14693,1.669046 -0.726908,-1.013466 -2.351038,-1.667483 -4.14476,-1.669045 z"
       id="path21044-0"
       inkscape:connector-curvature="0"
       sodipodi:nodetypes="cccccccccccccccccccccccccccccccccccccccccccccccccccccccccccccccccccccccccccccccccccccccccccccccccccccccccccccccccccccccccccccccccccccccccccccccccccccccccccccccccccccccccccccccccccccccccccccccccccccccccccccccccccccccccccccccccccccccccccccccsccccccccccccccccccccccccccccccccccccccccccccccccccccccccccccccccc" />
  </g>
</svg>
