<?xml version="1.0" encoding="UTF-8" standalone="no"?>
<!-- Created with Inkscape (http://www.inkscape.org/) -->

<svg
   xmlns:dc="http://purl.org/dc/elements/1.1/"
   xmlns:cc="http://creativecommons.org/ns#"
   xmlns:rdf="http://www.w3.org/1999/02/22-rdf-syntax-ns#"
   xmlns:svg="http://www.w3.org/2000/svg"
   xmlns="http://www.w3.org/2000/svg"
   xmlns:sodipodi="http://sodipodi.sourceforge.net/DTD/sodipodi-0.dtd"
   xmlns:inkscape="http://www.inkscape.org/namespaces/inkscape"
   width="303.60199mm"
   height="334.82385mm"
   viewBox="0 0 303.60199 334.82385"
   version="1.1"
   id="svg8"
   sodipodi:docname="Laser.Cut.Face.Shield.v1.7.svg"
   inkscape:version="0.92.2 (5c3e80d, 2017-08-06)">
  <defs
     id="defs2">
    <marker
       style="overflow:visible"
       refY="0"
       refX="0"
       orient="auto"
       id="DistanceX">
      <path
         id="path817"
         style="stroke:#000000;stroke-width:0.5"
         d="M 3,-3 -3,3 M 0,-5 V 5"
         inkscape:connector-curvature="0" />
    </marker>
    <pattern
       y="0"
       x="0"
       width="8"
       patternUnits="userSpaceOnUse"
       id="Hatch"
       height="8">
      <path
         id="path820"
         stroke-width="0.25"
         stroke="#000000"
         linecap="square"
         d="M8 4 l-4,4" />
      <path
         id="path822"
         stroke-width="0.25"
         stroke="#000000"
         linecap="square"
         d="M6 2 l-4,4" />
      <path
         id="path824"
         stroke-width="0.25"
         stroke="#000000"
         linecap="square"
         d="M4 0 l-4,4" />
    </pattern>
    <symbol
       id="*MODEL_SPACE" />
    <symbol
       id="*PAPER_SPACE" />
    <marker
       style="overflow:visible"
       refY="0"
       refX="0"
       orient="auto"
       id="DistanceX-9">
      <path
         id="path1267"
         style="stroke:#000000;stroke-width:0.5"
         d="M 3,-3 -3,3 M 0,-5 V 5"
         inkscape:connector-curvature="0" />
    </marker>
    <pattern
       y="0"
       x="0"
       width="8"
       patternUnits="userSpaceOnUse"
       id="Hatch-0"
       height="8">
      <path
         id="path1270"
         stroke-width="0.25"
         stroke="#000000"
         linecap="square"
         d="M8 4 l-4,4" />
      <path
         id="path1272"
         stroke-width="0.25"
         stroke="#000000"
         linecap="square"
         d="M6 2 l-4,4" />
      <path
         id="path1274"
         stroke-width="0.25"
         stroke="#000000"
         linecap="square"
         d="M4 0 l-4,4" />
    </pattern>
    <symbol
       id="*MODEL_SPACE-6" />
    <symbol
       id="*PAPER_SPACE-3" />
  </defs>
  <sodipodi:namedview
     id="base"
     pagecolor="#ffffff"
     bordercolor="#666666"
     borderopacity="1.0"
     inkscape:pageopacity="0.0"
     inkscape:pageshadow="2"
     inkscape:zoom="0.90509668"
     inkscape:cx="378.17835"
     inkscape:cy="963.71009"
     inkscape:document-units="mm"
     inkscape:current-layer="layer1"
     showgrid="false"
     fit-margin-top="0"
     fit-margin-left="0"
     fit-margin-right="0"
     fit-margin-bottom="0"
     inkscape:window-width="1600"
     inkscape:window-height="837"
     inkscape:window-x="-8"
     inkscape:window-y="-8"
     inkscape:window-maximized="1" />
  <metadata
     id="metadata5">
    <rdf:RDF>
      <cc:Work
         rdf:about="">
        <dc:format>image/svg+xml</dc:format>
        <dc:type
           rdf:resource="http://purl.org/dc/dcmitype/StillImage" />
        <dc:title></dc:title>
      </cc:Work>
    </rdf:RDF>
  </metadata>
  <g
     inkscape:label="Layer 1"
     inkscape:groupmode="layer"
     id="layer1"
     transform="translate(69.365047,54.4065)">
    <path
       id="path1329"
       style="fill:none;stroke:#000000;stroke-width:0.5;stroke-miterlimit:4;stroke-dasharray:none"
       d="m 8.9392138,-43.978701 2.6077832,17.064037"
       inkscape:connector-curvature="0" />
    <path
       id="path1349"
       style="fill:none;stroke:#000000;stroke-width:0.5;stroke-miterlimit:4;stroke-dasharray:none"
       d="m 139.19621,30.6801 -1e-5,0.0079"
       inkscape:connector-curvature="0" />
    <path
       id="path1351"
       style="fill:none;stroke:#000000;stroke-width:0.5;stroke-miterlimit:4;stroke-dasharray:none"
       d="m 155.65446,29.132816 -0.1325,-1.401762 c -0.0625,-0.661194 -0.4492,-1.248304 -1.03203,-1.566863 L 147.619,22.409489 c -0.64471,-0.352287 -1.39629,-0.455756 -2.11221,-0.290777 l -4.10428,0.945621 c -0.99326,0.377031 -1.75827,0.897202 -1.80917,1.888331 l -0.39713,5.727436 c -25.43441,2.191808 -44.0465,2.599531 -44.083419,2.599398 l 4.99e-4,2.199879"
       inkscape:connector-curvature="0"
       sodipodi:nodetypes="cccccccccc" />
    <path
       id="path1353"
       style="fill:none;stroke:#000000;stroke-width:0.5;stroke-miterlimit:4;stroke-dasharray:none"
       d="m 95.111388,33.279631 h 7.93e-4"
       inkscape:connector-curvature="0" />
    <path
       id="path1355"
       style="fill:none;stroke:#000000;stroke-width:0.5;stroke-miterlimit:4;stroke-dasharray:none"
       d="m 95.111904,33.279631 h -5.3e-4"
       inkscape:connector-curvature="0" />
    <path
       id="path1357"
       style="fill:none;stroke:#000000;stroke-width:0.5;stroke-miterlimit:4;stroke-dasharray:none"
       d="m 95.111774,33.279631 h 1.3e-4"
       inkscape:connector-curvature="0" />
    <path
       id="path1359"
       style="fill:none;stroke:#000000;stroke-width:0.5;stroke-miterlimit:4;stroke-dasharray:none"
       d="m 95.111774,33.279631 c 0.03462,-0.0026 65.481146,-4.7244 65.474646,-85.381305 0.0171,-1.905 -4.14923,-2.766484 -5.33504,-1.275027 -10.02634,12.611364 -38.80357,37.492514 -72.540701,37.582474 h -0.549471 v 0 c -33.737131,-0.08996 -62.514357,-24.97111 -72.5407053,-37.582474 -0.6347913,-0.57686 -1.4861438,-0.854412 -2.3389537,-0.762529 -0.6387396,0.06878 -1.2634825,0.233346 -1.853221,0.488156 -0.631264,0.272768 -1.0658704,0.865347 -1.1428558,1.5494 -0.0065,80.656905 65.4400178,85.378659 65.4746418,85.381305"
       inkscape:connector-curvature="0"
       sodipodi:nodetypes="ccccccccccc" />
    <path
       id="path1361"
       style="fill:none;stroke:#000000;stroke-width:0.5;stroke-miterlimit:4;stroke-dasharray:none"
       d="m 160.57991,-52.101674 h 0.013"
       inkscape:connector-curvature="0" />
    <path
       id="path1373"
       style="fill:none;stroke:#000000;stroke-width:0.5;stroke-miterlimit:4;stroke-dasharray:none"
       d="M 4.2919743,-52.101674 H 4.2789833"
       inkscape:connector-curvature="0" />
    <path
       id="path1377"
       style="fill:none;stroke:#000000;stroke-width:0.5;stroke-miterlimit:4;stroke-dasharray:none"
       d="m 69.760114,33.279631 h -1.3e-4"
       inkscape:connector-curvature="0" />
    <path
       id="path1379"
       style="fill:none;stroke:#000000;stroke-width:0.5;stroke-miterlimit:4;stroke-dasharray:none"
       d="m 69.759984,33.279631 h 5.29e-4"
       inkscape:connector-curvature="0" />
    <path
       id="path1381"
       style="fill:none;stroke:#000000;stroke-width:0.5;stroke-miterlimit:4;stroke-dasharray:none"
       d="m 69.7605,33.279631 h -7.94e-4"
       inkscape:connector-curvature="0" />
    <path
       id="path1385"
       style="fill:none;stroke:#000000;stroke-width:0.5;stroke-miterlimit:4;stroke-dasharray:none"
       d="m 25.675681,30.6801 1.1e-5,0.0079"
       inkscape:connector-curvature="0" />
    <path
       id="path1417"
       style="fill:none;stroke:#000000;stroke-width:0.5;stroke-miterlimit:4;stroke-dasharray:none"
       d="m -27.879335,24.008102 a 0.55667274,0.55667274 0 0 0 0.01561,0.0026"
       inkscape:connector-curvature="0" />
    <path
       id="path1431"
       style="fill:none;stroke:#000000;stroke-width:0.5;stroke-miterlimit:4;stroke-dasharray:none"
       d="m -69.115043,20.865381 c -0.004,-3.318139 3.16304,-5.715264 6.356985,-4.816475 8.936487,2.5146 17.00231,4.664604 26.755804,6.504252"
       inkscape:connector-curvature="0" />
    <path
       id="path1447"
       style="fill:none;stroke:#000000;stroke-width:0.5;stroke-miterlimit:4;stroke-dasharray:none"
       d="m -62.727843,16.057373 c -3.199072,-0.924901 -6.3911,1.47792 -6.3872,4.808008 l 0.15314,131.616979 v 0 c 0,70.13998 47.955941,127.685 114.754357,127.685 v 0 h 36.64349 v 0 h 36.643486 -1e-5 c 66.79843,0 114.75437,-57.54502 114.75437,-127.685 l 0.15314,-131.616979 c 0.004,-3.330073 -3.18813,-5.73288 -6.38719,-4.808008 -8.81128,2.547433 -17.72805,4.714697 -26.7256,6.495785"
       inkscape:connector-curvature="0"
       sodipodi:nodetypes="cccccccccccccc" />
    <path
       id="path1449"
       style="fill:none;stroke:#000000;stroke-width:0.5;stroke-miterlimit:4;stroke-dasharray:none"
       d="M -42.682216,65.954349 -43.54243,80.44743"
       inkscape:connector-curvature="0" />
    <path
       id="path1451"
       style="fill:none;stroke:#000000;stroke-width:0.5;stroke-miterlimit:4;stroke-dasharray:none"
       d="M -26.889475,61.184176 -28.5695,87.903389"
       inkscape:connector-curvature="0" />
    <path
       id="path1453"
       style="fill:none;stroke:#000000;stroke-width:0.5;stroke-miterlimit:4;stroke-dasharray:none"
       d="m 207.5541,65.954349 0.86023,14.493081"
       inkscape:connector-curvature="0" />
    <path
       id="path1455"
       style="fill:none;stroke:#000000;stroke-width:0.5;stroke-miterlimit:4;stroke-dasharray:none"
       d="m 191.76136,61.184176 1.68002,26.719213"
       inkscape:connector-curvature="0" />
    <path
       id="path1483"
       style="fill:none;stroke:#000000;stroke-width:0.5;stroke-miterlimit:4;stroke-dasharray:none"
       d="m 192.7357,24.011012 a 0.55667274,0.55667274 0 0 0 0.0155,-0.0026"
       inkscape:connector-curvature="0" />
    <path
       id="path1485"
       style="fill:none;stroke:#000000;stroke-width:0.5;stroke-miterlimit:4;stroke-dasharray:none"
       d="m 147.60939,29.891377 c 15.10452,-1.44709 30.15535,-3.408349 45.13406,-5.88182 l -0.13477,-5.674386 c 0.0509,-0.991129 0.63015,-1.67349 1.62341,-2.05052 l 3.99707,-1.327678 c 0.69723,-0.231611 1.45521,-0.19932 2.13021,0.09075 v 0 l 7.1938,3.091656 c 0.61019,0.262221 1.05041,0.810243 1.1749,1.462617 l 0.23666,1.240631"
       inkscape:connector-curvature="0"
       sodipodi:nodetypes="cccccccccc" />
    <path
       id="path1535"
       style="fill:none;stroke:#000000;stroke-width:0.5;stroke-miterlimit:4;stroke-dasharray:none"
       d="M 26.311091,6.2246625 39.223387,17.681385"
       inkscape:connector-curvature="0" />
    <path
       id="path1537"
       style="fill:none;stroke:#000000;stroke-width:0.5;stroke-miterlimit:4;stroke-dasharray:none"
       d="M 138.5608,6.2246625 125.6485,17.681385"
       inkscape:connector-curvature="0" />
    <path
       id="path1539"
       style="fill:none;stroke:#000000;stroke-width:0.5;stroke-miterlimit:4;stroke-dasharray:none"
       d="m 155.93267,-43.978701 -2.60778,17.064037"
       inkscape:connector-curvature="0" />
    <path
       id="path1541"
       style="fill:none;stroke:#000000;stroke-width:0.5;stroke-miterlimit:4;stroke-dasharray:none"
       d="m 69.760114,33.279631 h -5.29e-4"
       inkscape:connector-curvature="0" />
    <path
       id="path1543"
       style="fill:none;stroke:#000000;stroke-width:0.5;stroke-miterlimit:4;stroke-dasharray:none"
       d="m 95.11229,33.279631 h -5.29e-4"
       inkscape:connector-curvature="0" />
    <path
       id="path1485-1"
       style="fill:none;stroke:#000000;stroke-width:0.5;stroke-miterlimit:4;stroke-dasharray:none"
       d="m 17.2625,29.891373 c -15.1045196,-1.44709 -30.155351,-3.408349 -45.134062,-5.88182 l 0.134771,-5.674386 c -0.0509,-0.991129 -0.630151,-1.67349 -1.62341,-2.05052 l -3.997071,-1.327678 c -0.69723,-0.231611 -1.455211,-0.19932 -2.13021,0.09075 v 0 l -7.193799,3.091656 c -0.61019,0.262221 -1.050412,0.810243 -1.174901,1.462617 l -0.236659,1.240631"
       inkscape:connector-curvature="0"
       sodipodi:nodetypes="cccccccccc" />
    <path
       id="path1351-4"
       style="fill:none;stroke:#000000;stroke-width:0.5;stroke-miterlimit:4;stroke-dasharray:none"
       d="m 9.2174316,29.132826 0.132498,-1.401762 c 0.062503,-0.661194 0.449202,-1.248304 1.0320314,-1.566863 l 6.87093,-3.754702 c 0.644711,-0.352287 1.396291,-0.455756 2.112211,-0.290777 l 4.104281,0.945621 c 0.993259,0.377031 1.758268,0.897202 1.809168,1.888331 l 0.397131,5.727436 c 25.434409,2.191808 44.0465,2.599531 44.083416,2.599394 l -5e-4,2.199873"
       inkscape:connector-curvature="0"
       sodipodi:nodetypes="cccccccccc" />
  </g>
</svg>
