  0
SECTION
  2
HEADER
  9
$ACADVER
  1
AC1014
  9
$HANDSEED
  5
FFFF
  9
$MEASUREMENT
 70
     1
  0
ENDSEC
  0
SECTION
  2
TABLES
  0
TABLE
  2
VPORT
  5
8
330
0
100
AcDbSymbolTable
 70
     4
  0
VPORT
  5
2E
330
8
100
AcDbSymbolTableRecord
100
AcDbViewportTableRecord
  2
*ACTIVE
 70
     0
 10
0.0
 20
0.0
 11
1.0
 21
1.0
 12
210.0
 22
148.5
 13
0.0
 23
0.0
 14
10.0
 24
10.0
 15
10.0
 25
10.0
 16
0.0
 26
0.0
 36
1.0
 17
0.0
 27
0.0
 37
0.0
 40
341.0
 41
1.24
 42
50.0
 43
0.0
 44
0.0
 50
0.0
 51
0.0
 71
     0
 72
   100
 73
     1
 74
     3
 75
     0
 76
     0
 77
     0
 78
     0
  0
ENDTAB
  0
TABLE
  2
LTYPE
  5
5
330
0
100
AcDbSymbolTable
 70
     1
  0
LTYPE
  5
14
330
5
100
AcDbSymbolTableRecord
100
AcDbLinetypeTableRecord
  2
BYBLOCK
 70
     0
  3

 72
    65
 73
     0
 40
0.0
  0
LTYPE
  5
15
330
5
100
AcDbSymbolTableRecord
100
AcDbLinetypeTableRecord
  2
BYLAYER
 70
     0
  3

 72
    65
 73
     0
 40
0.0
  0
LTYPE
  5
16
330
5
100
AcDbSymbolTableRecord
100
AcDbLinetypeTableRecord
  2
CONTINUOUS
 70
     0
  3
Solid line
 72
    65
 73
     0
 40
0.0
  0
ENDTAB
  0
TABLE
  2
LAYER
  5
2
100
AcDbSymbolTable
 70
2
  0
LAYER
  5
50
100
AcDbSymbolTableRecord
100
AcDbLayerTableRecord
  2
0
 70
0
  6
CONTINUOUS
  0
LAYER
  5
51
100
AcDbSymbolTableRecord
100
AcDbLayerTableRecord
  2
Layer_1
 70
0
  6
CONTINUOUS
  0
ENDTAB
  0
TABLE
  2
STYLE
  5
3
330
0
100
AcDbSymbolTable
 70
     1
  0
STYLE
  5
11
330
3
100
AcDbSymbolTableRecord
100
AcDbTextStyleTableRecord
  2
STANDARD
 70
     0
 40
0.0
 41
1.0
 50
0.0
 71
     0
 42
2.5
  3
txt
  4

  0
ENDTAB
  0
TABLE
  2
VIEW
  5
6
330
0
100
AcDbSymbolTable
 70
     0
  0
ENDTAB
  0
TABLE
  2
UCS
  5
7
330
0
100
AcDbSymbolTable
 70
     0
  0
ENDTAB
  0
TABLE
  2
APPID
  5
9
330
0
100
AcDbSymbolTable
 70
     2
  0
APPID
  5
12
330
9
100
AcDbSymbolTableRecord
100
AcDbRegAppTableRecord
  2
ACAD
 70
     0
  0
ENDTAB
  0
TABLE
  2
DIMSTYLE
  5
A
330
0
100
AcDbSymbolTable
 70
     1
  0
DIMSTYLE
105
27
330
A
100
AcDbSymbolTableRecord
100
AcDbDimStyleTableRecord
  2
ISO-25
 70
     0
  3

  4

  5

  6

  7

 40
1.0
 41
2.5
 42
0.625
 43
3.75
 44
1.25
 45
0.0
 46
0.0
 47
0.0
 48
0.0
140
2.5
141
2.5
142
0.0
143
0.03937007874016
144
1.0
145
0.0
146
1.0
147
0.625
 71
     0
 72
     0
 73
     0
 74
     0
 75
     0
 76
     0
 77
     1
 78
     8
170
     0
171
     3
172
     1
173
     0
174
     0
175
     0
176
     0
177
     0
178
     0
270
     2
271
     2
272
     2
273
     2
274
     3
340
11
275
     0
280
     0
281
     0
282
     0
283
     0
284
     8
285
     0
286
     0
287
     3
288
     0
  0
ENDTAB
  0
TABLE
  2
BLOCK_RECORD
  5
1
330
0
100
AcDbSymbolTable
 70
     1
  0
BLOCK_RECORD
  5
1F
330
1
100
AcDbSymbolTableRecord
100
AcDbBlockTableRecord
  2
*MODEL_SPACE
  0
BLOCK_RECORD
  5
1B
330
1
100
AcDbSymbolTableRecord
100
AcDbBlockTableRecord
  2
*PAPER_SPACE
  0
ENDTAB
  0
ENDSEC
  0
SECTION
  2
BLOCKS
  0
BLOCK
  5
20
330
1F
100
AcDbEntity
  8
0
100
AcDbBlockBegin
  2
*MODEL_SPACE
 70
     0
 10
0.0
 20
0.0
 30
0.0
  3
*MODEL_SPACE
  1

  0
ENDBLK
  5
21
330
1F
100
AcDbEntity
  8
0
100
AcDbBlockEnd
  0
BLOCK
  5
1C
330
1B
100
AcDbEntity
 67
     1
  8
0
100
AcDbBlockBegin
  2
*PAPER_SPACE
  1

  0
ENDBLK
  5
1D
330
1B
100
AcDbEntity
 67
     1
  8
0
100
AcDbBlockEnd
  0
ENDSEC
  0
SECTION
  2
ENTITIES
  0
SPLINE
  5
100
100
AcDbEntity
  8
Layer_1
 62
1
100
AcDbSpline
 70
8
 71
3
 72
8
 73
4
 74
0
 40
0
 40
0
 40
0
 40
0
 40
1
 40
1
 40
1
 40
1
 10
478.827720
 20
344.138681
 30
0.0
 10
482.167856
 20
344.138681
 30
0.0
 10
484.875072
 20
341.295645
 30
0.0
 10
484.875072
 20
337.788681
 30
0.0
  0
SPLINE
  5
101
100
AcDbEntity
  8
Layer_1
 62
1
100
AcDbSpline
 70
8
 71
3
 72
8
 73
4
 74
0
 40
0
 40
0
 40
0
 40
0
 40
1
 40
1
 40
1
 40
1
 10
484.875072
 20
183.380003
 30
0.0
 10
484.875072
 20
113.239669
 30
0.0
 10
448.258504
 20
61.379926
 30
0.0
 10
381.460033
 20
61.379926
 30
0.0
  0
LWPOLYLINE
  5
102
100
AcDbEntity
  8
Layer_1
 62
1
100
AcDbPolyline
 90
2
 70
0
 10
484.875072
 20
337.788681
 30
0.0
 10
484.875072
 20
183.380003
 30
0.0
  0
SPLINE
  5
103
100
AcDbEntity
  8
Layer_1
 62
1
100
AcDbSpline
 70
8
 71
3
 72
8
 73
4
 74
0
 40
0
 40
0
 40
0
 40
0
 40
1
 40
1
 40
1
 40
1
 10
308.890471
 20
61.379926
 30
0.0
 10
242.092000
 20
61.379926
 30
0.0
 10
205.475078
 20
113.239669
 30
0.0
 10
205.475078
 20
183.380003
 30
0.0
  0
LWPOLYLINE
  5
104
100
AcDbEntity
  8
Layer_1
 62
1
100
AcDbPolyline
 90
2
 70
0
 10
381.460033
 20
61.379926
 30
0.0
 10
308.890471
 20
61.379926
 30
0.0
  0
SPLINE
  5
105
100
AcDbEntity
  8
Layer_1
 62
1
100
AcDbSpline
 70
8
 71
3
 72
8
 73
4
 74
0
 40
0
 40
0
 40
0
 40
0
 40
1
 40
1
 40
1
 40
1
 10
205.475078
 20
337.788681
 30
0.0
 10
205.475078
 20
341.295645
 30
0.0
 10
208.183001
 20
344.138681
 30
0.0
 10
211.522748
 20
344.138681
 30
0.0
  0
LWPOLYLINE
  5
106
100
AcDbEntity
  8
Layer_1
 62
1
100
AcDbPolyline
 90
2
 70
0
 10
205.475078
 20
183.380003
 30
0.0
 10
205.475078
 20
337.788681
 30
0.0
  0
LWPOLYLINE
  5
107
100
AcDbEntity
  8
Layer_1
 62
1
100
AcDbPolyline
 90
2
 70
0
 10
211.522748
 20
344.138681
 30
0.0
 10
478.827720
 20
344.138681
 30
0.0
  0
LWPOLYLINE
  5
108
100
AcDbEntity
  8
Layer_1
 62
1
100
AcDbPolyline
 90
2
 70
0
 10
217.082455
 20
280.749667
 30
0.0
 10
217.082455
 20
265.549531
 30
0.0
  0
LWPOLYLINE
  5
109
100
AcDbEntity
  8
Layer_1
 62
1
100
AcDbPolyline
 90
2
 70
0
 10
222.788000
 20
280.149662
 30
0.0
 10
222.788000
 20
266.149676
 30
0.0
  0
LWPOLYLINE
  5
10a
100
AcDbEntity
  8
Layer_1
 62
1
100
AcDbPolyline
 90
2
 70
0
 10
473.267978
 20
280.749667
 30
0.0
 10
473.267978
 20
265.549531
 30
0.0
  0
SPLINE
  5
10b
100
AcDbEntity
  8
Layer_1
 62
1
100
AcDbSpline
 70
8
 71
3
 72
8
 73
4
 74
0
 40
0
 40
0
 40
0
 40
0
 40
1
 40
1
 40
1
 40
1
 10
684.226774
 20
26.724964
 30
0.0
 10
687.511840
 20
26.724964
 30
0.0
 10
690.174960
 20
23.881928
 30
0.0
 10
690.174960
 20
20.374964
 30
0.0
  0
LWPOLYLINE
  5
10c
100
AcDbEntity
  8
Layer_1
 62
1
100
AcDbPolyline
 90
2
 70
0
 10
467.562433
 20
280.149662
 30
0.0
 10
467.562433
 20
266.149676
 30
0.0
  0
SPLINE
  5
10d
100
AcDbEntity
  8
Layer_1
 62
1
100
AcDbSpline
 70
8
 71
3
 72
8
 73
4
 74
0
 40
0
 40
0
 40
0
 40
0
 40
1
 40
1
 40
1
 40
1
 10
690.174960
 20
6.725639
 30
0.0
 10
690.174960
 20
3.218323
 30
0.0
 10
687.511840
 20
0.375639
 30
0.0
 10
684.226774
 20
0.375639
 30
0.0
  0
LWPOLYLINE
  5
10e
100
AcDbEntity
  8
Layer_1
 62
1
100
AcDbPolyline
 90
2
 70
0
 10
690.174960
 20
20.374964
 30
0.0
 10
690.174960
 20
6.725639
 30
0.0
  0
SPLINE
  5
10f
100
AcDbEntity
  8
Layer_1
 62
1
100
AcDbSpline
 70
8
 71
3
 72
8
 73
4
 74
0
 40
0
 40
0
 40
0
 40
0
 40
1
 40
1
 40
1
 40
1
 10
6.123342
 20
0.375639
 30
0.0
 10
2.838275
 20
0.375639
 30
0.0
 10
0.175156
 20
3.218323
 30
0.0
 10
0.175156
 20
6.725639
 30
0.0
  0
LWPOLYLINE
  5
110
100
AcDbEntity
  8
Layer_1
 62
1
100
AcDbPolyline
 90
2
 70
0
 10
684.226774
 20
0.375639
 30
0.0
 10
6.123342
 20
0.375639
 30
0.0
  0
SPLINE
  5
111
100
AcDbEntity
  8
Layer_1
 62
1
100
AcDbSpline
 70
8
 71
3
 72
8
 73
4
 74
0
 40
0
 40
0
 40
0
 40
0
 40
1
 40
1
 40
1
 40
1
 10
0.175156
 20
20.374964
 30
0.0
 10
0.175156
 20
23.881928
 30
0.0
 10
2.838275
 20
26.724964
 30
0.0
 10
6.123342
 20
26.724964
 30
0.0
  0
LWPOLYLINE
  5
112
100
AcDbEntity
  8
Layer_1
 62
1
100
AcDbPolyline
 90
2
 70
0
 10
0.175156
 20
6.725639
 30
0.0
 10
0.175156
 20
20.374964
 30
0.0
  0
LWPOLYLINE
  5
113
100
AcDbEntity
  8
Layer_1
 62
1
100
AcDbPolyline
 90
2
 70
0
 10
6.123342
 20
26.724964
 30
0.0
 10
684.226774
 20
26.724964
 30
0.0
  0
SPLINE
  5
114
100
AcDbEntity
  8
Layer_1
 62
1
100
AcDbSpline
 70
8
 71
3
 72
8
 73
4
 74
0
 40
0
 40
0
 40
0
 40
0
 40
1
 40
1
 40
1
 40
1
 10
679.281429
 20
14.170591
 30
0.0
 10
679.407371
 20
13.898599
 30
0.0
 10
679.165718
 20
13.606499
 30
0.0
 10
678.814704
 20
13.606499
 30
0.0
  0
LWPOLYLINE
  5
115
100
AcDbEntity
  8
Layer_1
 62
1
100
AcDbPolyline
 90
2
 70
0
 10
673.306079
 20
27.074143
 30
0.0
 10
679.281429
 20
14.170591
 30
0.0
  0
LWPOLYLINE
  5
116
100
AcDbEntity
  8
Layer_1
 62
1
100
AcDbPolyline
 90
2
 70
0
 10
678.814704
 20
13.606499
 30
0.0
 10
674.307615
 20
13.606499
 30
0.0
  0
SPLINE
  5
117
100
AcDbEntity
  8
Layer_1
 62
1
100
AcDbSpline
 70
8
 71
3
 72
8
 73
4
 74
0
 40
0
 40
0
 40
0
 40
0
 40
1
 40
1
 40
1
 40
1
 10
666.281463
 20
14.170591
 30
0.0
 10
666.407404
 20
13.898599
 30
0.0
 10
666.165751
 20
13.606499
 30
0.0
 10
665.814738
 20
13.606499
 30
0.0
  0
LWPOLYLINE
  5
118
100
AcDbEntity
  8
Layer_1
 62
1
100
AcDbPolyline
 90
2
 70
0
 10
660.306113
 20
27.074143
 30
0.0
 10
666.281463
 20
14.170591
 30
0.0
  0
LWPOLYLINE
  5
119
100
AcDbEntity
  8
Layer_1
 62
1
100
AcDbPolyline
 90
2
 70
0
 10
665.814738
 20
13.606499
 30
0.0
 10
661.307649
 20
13.606499
 30
0.0
  0
SPLINE
  5
11a
100
AcDbEntity
  8
Layer_1
 62
1
100
AcDbSpline
 70
8
 71
3
 72
8
 73
4
 74
0
 40
0
 40
0
 40
0
 40
0
 40
1
 40
1
 40
1
 40
1
 10
653.281461
 20
14.170591
 30
0.0
 10
653.407402
 20
13.898599
 30
0.0
 10
653.165750
 20
13.606499
 30
0.0
 10
652.814736
 20
13.606499
 30
0.0
  0
LWPOLYLINE
  5
11b
100
AcDbEntity
  8
Layer_1
 62
1
100
AcDbPolyline
 90
2
 70
0
 10
647.306111
 20
27.074143
 30
0.0
 10
653.281461
 20
14.170591
 30
0.0
  0
LWPOLYLINE
  5
11c
100
AcDbEntity
  8
Layer_1
 62
1
100
AcDbPolyline
 90
2
 70
0
 10
652.814736
 20
13.606499
 30
0.0
 10
648.307647
 20
13.606499
 30
0.0
  0
SPLINE
  5
11d
100
AcDbEntity
  8
Layer_1
 62
1
100
AcDbSpline
 70
8
 71
3
 72
8
 73
4
 74
0
 40
0
 40
0
 40
0
 40
0
 40
1
 40
1
 40
1
 40
1
 10
640.281388
 20
14.170591
 30
0.0
 10
640.407330
 20
13.898599
 30
0.0
 10
640.165677
 20
13.606499
 30
0.0
 10
639.814663
 20
13.606499
 30
0.0
  0
LWPOLYLINE
  5
11e
100
AcDbEntity
  8
Layer_1
 62
1
100
AcDbPolyline
 90
2
 70
0
 10
634.306038
 20
27.074143
 30
0.0
 10
640.281388
 20
14.170591
 30
0.0
  0
LWPOLYLINE
  5
11f
100
AcDbEntity
  8
Layer_1
 62
1
100
AcDbPolyline
 90
2
 70
0
 10
639.814663
 20
13.606499
 30
0.0
 10
635.307574
 20
13.606499
 30
0.0
  0
SPLINE
  5
120
100
AcDbEntity
  8
Layer_1
 62
1
100
AcDbSpline
 70
8
 71
3
 72
8
 73
4
 74
0
 40
0
 40
0
 40
0
 40
0
 40
1
 40
1
 40
1
 40
1
 10
627.281421
 20
14.170591
 30
0.0
 10
627.407363
 20
13.898599
 30
0.0
 10
627.165710
 20
13.606499
 30
0.0
 10
626.814696
 20
13.606499
 30
0.0
  0
LWPOLYLINE
  5
121
100
AcDbEntity
  8
Layer_1
 62
1
100
AcDbPolyline
 90
2
 70
0
 10
621.306072
 20
27.074143
 30
0.0
 10
627.281421
 20
14.170591
 30
0.0
  0
LWPOLYLINE
  5
122
100
AcDbEntity
  8
Layer_1
 62
1
100
AcDbPolyline
 90
2
 70
0
 10
626.814696
 20
13.606499
 30
0.0
 10
622.307608
 20
13.606499
 30
0.0
  0
SPLINE
  5
123
100
AcDbEntity
  8
Layer_1
 62
1
100
AcDbSpline
 70
8
 71
3
 72
8
 73
4
 74
0
 40
0
 40
0
 40
0
 40
0
 40
1
 40
1
 40
1
 40
1
 10
614.281455
 20
14.170591
 30
0.0
 10
614.407396
 20
13.898599
 30
0.0
 10
614.165744
 20
13.606499
 30
0.0
 10
613.814730
 20
13.606499
 30
0.0
  0
LWPOLYLINE
  5
124
100
AcDbEntity
  8
Layer_1
 62
1
100
AcDbPolyline
 90
2
 70
0
 10
608.306105
 20
27.074143
 30
0.0
 10
614.281455
 20
14.170591
 30
0.0
  0
LWPOLYLINE
  5
125
100
AcDbEntity
  8
Layer_1
 62
1
100
AcDbPolyline
 90
2
 70
0
 10
613.814730
 20
13.606499
 30
0.0
 10
609.307641
 20
13.606499
 30
0.0
  0
SPLINE
  5
126
100
AcDbEntity
  8
Layer_1
 62
1
100
AcDbSpline
 70
8
 71
3
 72
8
 73
4
 74
0
 40
0
 40
0
 40
0
 40
0
 40
1
 40
1
 40
1
 40
1
 10
601.281453
 20
14.170591
 30
0.0
 10
601.407395
 20
13.898599
 30
0.0
 10
601.165742
 20
13.606499
 30
0.0
 10
600.814728
 20
13.606499
 30
0.0
  0
LWPOLYLINE
  5
127
100
AcDbEntity
  8
Layer_1
 62
1
100
AcDbPolyline
 90
2
 70
0
 10
595.306103
 20
27.074143
 30
0.0
 10
601.281453
 20
14.170591
 30
0.0
  0
LWPOLYLINE
  5
128
100
AcDbEntity
  8
Layer_1
 62
1
100
AcDbPolyline
 90
2
 70
0
 10
600.814728
 20
13.606499
 30
0.0
 10
596.307639
 20
13.606499
 30
0.0
  0
SPLINE
  5
129
100
AcDbEntity
  8
Layer_1
 62
1
100
AcDbSpline
 70
8
 71
3
 72
8
 73
4
 74
0
 40
0
 40
0
 40
0
 40
0
 40
1
 40
1
 40
1
 40
1
 10
588.281486
 20
14.170591
 30
0.0
 10
588.407428
 20
13.898599
 30
0.0
 10
588.165775
 20
13.606499
 30
0.0
 10
587.814761
 20
13.606499
 30
0.0
  0
LWPOLYLINE
  5
12a
100
AcDbEntity
  8
Layer_1
 62
1
100
AcDbPolyline
 90
2
 70
0
 10
582.306136
 20
27.074143
 30
0.0
 10
588.281486
 20
14.170591
 30
0.0
  0
LWPOLYLINE
  5
12b
100
AcDbEntity
  8
Layer_1
 62
1
100
AcDbPolyline
 90
2
 70
0
 10
587.814761
 20
13.606499
 30
0.0
 10
583.307672
 20
13.606499
 30
0.0
  0
SPLINE
  5
12c
100
AcDbEntity
  8
Layer_1
 62
1
100
AcDbSpline
 70
8
 71
3
 72
8
 73
4
 74
0
 40
0
 40
0
 40
0
 40
0
 40
1
 40
1
 40
1
 40
1
 10
575.281414
 20
14.170591
 30
0.0
 10
575.407355
 20
13.898599
 30
0.0
 10
575.165703
 20
13.606499
 30
0.0
 10
574.814689
 20
13.606499
 30
0.0
  0
LWPOLYLINE
  5
12d
100
AcDbEntity
  8
Layer_1
 62
1
100
AcDbPolyline
 90
2
 70
0
 10
569.306064
 20
27.074143
 30
0.0
 10
575.281414
 20
14.170591
 30
0.0
  0
LWPOLYLINE
  5
12e
100
AcDbEntity
  8
Layer_1
 62
1
100
AcDbPolyline
 90
2
 70
0
 10
574.814689
 20
13.606499
 30
0.0
 10
570.307600
 20
13.606499
 30
0.0
  0
SPLINE
  5
12f
100
AcDbEntity
  8
Layer_1
 62
1
100
AcDbSpline
 70
8
 71
3
 72
8
 73
4
 74
0
 40
0
 40
0
 40
0
 40
0
 40
1
 40
1
 40
1
 40
1
 10
562.281412
 20
14.170591
 30
0.0
 10
562.407353
 20
13.898599
 30
0.0
 10
562.165701
 20
13.606499
 30
0.0
 10
561.814687
 20
13.606499
 30
0.0
  0
LWPOLYLINE
  5
130
100
AcDbEntity
  8
Layer_1
 62
1
100
AcDbPolyline
 90
2
 70
0
 10
556.306062
 20
27.074143
 30
0.0
 10
562.281412
 20
14.170591
 30
0.0
  0
LWPOLYLINE
  5
131
100
AcDbEntity
  8
Layer_1
 62
1
100
AcDbPolyline
 90
2
 70
0
 10
561.814687
 20
13.606499
 30
0.0
 10
557.307598
 20
13.606499
 30
0.0
  0
SPLINE
  5
132
100
AcDbEntity
  8
Layer_1
 62
1
100
AcDbSpline
 70
8
 71
3
 72
8
 73
4
 74
0
 40
0
 40
0
 40
0
 40
0
 40
1
 40
1
 40
1
 40
1
 10
549.281445
 20
14.170591
 30
0.0
 10
549.407387
 20
13.898599
 30
0.0
 10
549.165734
 20
13.606499
 30
0.0
 10
548.814720
 20
13.606499
 30
0.0
  0
LWPOLYLINE
  5
133
100
AcDbEntity
  8
Layer_1
 62
1
100
AcDbPolyline
 90
2
 70
0
 10
543.306095
 20
27.074143
 30
0.0
 10
549.281445
 20
14.170591
 30
0.0
  0
LWPOLYLINE
  5
134
100
AcDbEntity
  8
Layer_1
 62
1
100
AcDbPolyline
 90
2
 70
0
 10
548.814720
 20
13.606499
 30
0.0
 10
544.307631
 20
13.606499
 30
0.0
  0
SPLINE
  5
135
100
AcDbEntity
  8
Layer_1
 62
1
100
AcDbSpline
 70
8
 71
3
 72
8
 73
4
 74
0
 40
0
 40
0
 40
0
 40
0
 40
1
 40
1
 40
1
 40
1
 10
536.281478
 20
14.170591
 30
0.0
 10
536.407420
 20
13.898599
 30
0.0
 10
536.165767
 20
13.606499
 30
0.0
 10
535.814753
 20
13.606499
 30
0.0
  0
LWPOLYLINE
  5
136
100
AcDbEntity
  8
Layer_1
 62
1
100
AcDbPolyline
 90
2
 70
0
 10
530.306129
 20
27.074143
 30
0.0
 10
536.281478
 20
14.170591
 30
0.0
  0
LWPOLYLINE
  5
137
100
AcDbEntity
  8
Layer_1
 62
1
100
AcDbPolyline
 90
2
 70
0
 10
535.814753
 20
13.606499
 30
0.0
 10
531.307665
 20
13.606499
 30
0.0
  0
SPLINE
  5
138
100
AcDbEntity
  8
Layer_1
 62
1
100
AcDbSpline
 70
8
 71
3
 72
8
 73
4
 74
0
 40
0
 40
0
 40
0
 40
0
 40
1
 40
1
 40
1
 40
1
 10
523.281406
 20
14.170591
 30
0.0
 10
523.407348
 20
13.898599
 30
0.0
 10
523.165695
 20
13.606499
 30
0.0
 10
522.814681
 20
13.606499
 30
0.0
  0
LWPOLYLINE
  5
139
100
AcDbEntity
  8
Layer_1
 62
1
100
AcDbPolyline
 90
2
 70
0
 10
517.306056
 20
27.074143
 30
0.0
 10
523.281406
 20
14.170591
 30
0.0
  0
LWPOLYLINE
  5
13a
100
AcDbEntity
  8
Layer_1
 62
1
100
AcDbPolyline
 90
2
 70
0
 10
522.814681
 20
13.606499
 30
0.0
 10
518.307592
 20
13.606499
 30
0.0
  0
SPLINE
  5
13b
100
AcDbEntity
  8
Layer_1
 62
1
100
AcDbSpline
 70
8
 71
3
 72
8
 73
4
 74
0
 40
0
 40
0
 40
0
 40
0
 40
1
 40
1
 40
1
 40
1
 10
171.853046
 20
12.977673
 30
0.0
 10
171.978988
 20
13.249664
 30
0.0
 10
171.737335
 20
13.541764
 30
0.0
 10
171.386321
 20
13.541764
 30
0.0
  0
LWPOLYLINE
  5
13c
100
AcDbEntity
  8
Layer_1
 62
1
100
AcDbPolyline
 90
2
 70
0
 10
165.877696
 20
0.074120
 30
0.0
 10
171.853046
 20
12.977673
 30
0.0
  0
LWPOLYLINE
  5
13d
100
AcDbEntity
  8
Layer_1
 62
1
100
AcDbPolyline
 90
2
 70
0
 10
171.386321
 20
13.541764
 30
0.0
 10
166.879232
 20
13.541764
 30
0.0
  0
SPLINE
  5
13e
100
AcDbEntity
  8
Layer_1
 62
1
100
AcDbSpline
 70
8
 71
3
 72
8
 73
4
 74
0
 40
0
 40
0
 40
0
 40
0
 40
1
 40
1
 40
1
 40
1
 10
158.853044
 20
12.977673
 30
0.0
 10
158.978986
 20
13.249664
 30
0.0
 10
158.737333
 20
13.541764
 30
0.0
 10
158.386319
 20
13.541764
 30
0.0
  0
LWPOLYLINE
  5
13f
100
AcDbEntity
  8
Layer_1
 62
1
100
AcDbPolyline
 90
2
 70
0
 10
152.877694
 20
0.074120
 30
0.0
 10
158.853044
 20
12.977673
 30
0.0
  0
LWPOLYLINE
  5
140
100
AcDbEntity
  8
Layer_1
 62
1
100
AcDbPolyline
 90
2
 70
0
 10
158.386319
 20
13.541764
 30
0.0
 10
153.879231
 20
13.541764
 30
0.0
  0
SPLINE
  5
141
100
AcDbEntity
  8
Layer_1
 62
1
100
AcDbSpline
 70
8
 71
3
 72
8
 73
4
 74
0
 40
0
 40
0
 40
0
 40
0
 40
1
 40
1
 40
1
 40
1
 10
145.853007
 20
12.977673
 30
0.0
 10
145.978949
 20
13.249664
 30
0.0
 10
145.737296
 20
13.541764
 30
0.0
 10
145.386635
 20
13.541764
 30
0.0
  0
LWPOLYLINE
  5
142
100
AcDbEntity
  8
Layer_1
 62
1
100
AcDbPolyline
 90
2
 70
0
 10
139.877657
 20
0.074120
 30
0.0
 10
145.853007
 20
12.977673
 30
0.0
  0
LWPOLYLINE
  5
143
100
AcDbEntity
  8
Layer_1
 62
1
100
AcDbPolyline
 90
2
 70
0
 10
145.386635
 20
13.541764
 30
0.0
 10
140.879193
 20
13.541764
 30
0.0
  0
SPLINE
  5
144
100
AcDbEntity
  8
Layer_1
 62
1
100
AcDbSpline
 70
8
 71
3
 72
8
 73
4
 74
0
 40
0
 40
0
 40
0
 40
0
 40
1
 40
1
 40
1
 40
1
 10
132.853040
 20
12.977673
 30
0.0
 10
132.978982
 20
13.249664
 30
0.0
 10
132.737329
 20
13.541764
 30
0.0
 10
132.386315
 20
13.541764
 30
0.0
  0
LWPOLYLINE
  5
145
100
AcDbEntity
  8
Layer_1
 62
1
100
AcDbPolyline
 90
2
 70
0
 10
126.877691
 20
0.074120
 30
0.0
 10
132.853040
 20
12.977673
 30
0.0
  0
LWPOLYLINE
  5
146
100
AcDbEntity
  8
Layer_1
 62
1
100
AcDbPolyline
 90
2
 70
0
 10
132.386315
 20
13.541764
 30
0.0
 10
127.879227
 20
13.541764
 30
0.0
  0
SPLINE
  5
147
100
AcDbEntity
  8
Layer_1
 62
1
100
AcDbSpline
 70
8
 71
3
 72
8
 73
4
 74
0
 40
0
 40
0
 40
0
 40
0
 40
1
 40
1
 40
1
 40
1
 10
119.853038
 20
12.977673
 30
0.0
 10
119.978980
 20
13.249664
 30
0.0
 10
119.737327
 20
13.541764
 30
0.0
 10
119.386314
 20
13.541764
 30
0.0
  0
LWPOLYLINE
  5
148
100
AcDbEntity
  8
Layer_1
 62
1
100
AcDbPolyline
 90
2
 70
0
 10
113.877689
 20
0.074120
 30
0.0
 10
119.853038
 20
12.977673
 30
0.0
  0
LWPOLYLINE
  5
149
100
AcDbEntity
  8
Layer_1
 62
1
100
AcDbPolyline
 90
2
 70
0
 10
119.386314
 20
13.541764
 30
0.0
 10
114.879225
 20
13.541764
 30
0.0
  0
SPLINE
  5
14a
100
AcDbEntity
  8
Layer_1
 62
1
100
AcDbSpline
 70
8
 71
3
 72
8
 73
4
 74
0
 40
0
 40
0
 40
0
 40
0
 40
1
 40
1
 40
1
 40
1
 10
106.853037
 20
12.977673
 30
0.0
 10
106.978978
 20
13.249664
 30
0.0
 10
106.737325
 20
13.541764
 30
0.0
 10
106.386312
 20
13.541764
 30
0.0
  0
LWPOLYLINE
  5
14b
100
AcDbEntity
  8
Layer_1
 62
1
100
AcDbPolyline
 90
2
 70
0
 10
100.877687
 20
0.074120
 30
0.0
 10
106.853037
 20
12.977673
 30
0.0
  0
LWPOLYLINE
  5
14c
100
AcDbEntity
  8
Layer_1
 62
1
100
AcDbPolyline
 90
2
 70
0
 10
106.386312
 20
13.541764
 30
0.0
 10
101.879223
 20
13.541764
 30
0.0
  0
SPLINE
  5
14d
100
AcDbEntity
  8
Layer_1
 62
1
100
AcDbSpline
 70
8
 71
3
 72
8
 73
4
 74
0
 40
0
 40
0
 40
0
 40
0
 40
1
 40
1
 40
1
 40
1
 10
93.853035
 20
12.977673
 30
0.0
 10
93.978976
 20
13.249664
 30
0.0
 10
93.737324
 20
13.541764
 30
0.0
 10
93.386310
 20
13.541764
 30
0.0
  0
LWPOLYLINE
  5
14e
100
AcDbEntity
  8
Layer_1
 62
1
100
AcDbPolyline
 90
2
 70
0
 10
87.877685
 20
0.074120
 30
0.0
 10
93.853035
 20
12.977673
 30
0.0
  0
LWPOLYLINE
  5
14f
100
AcDbEntity
  8
Layer_1
 62
1
100
AcDbPolyline
 90
2
 70
0
 10
93.386310
 20
13.541764
 30
0.0
 10
88.879221
 20
13.541764
 30
0.0
  0
SPLINE
  5
150
100
AcDbEntity
  8
Layer_1
 62
1
100
AcDbSpline
 70
8
 71
3
 72
8
 73
4
 74
0
 40
0
 40
0
 40
0
 40
0
 40
1
 40
1
 40
1
 40
1
 10
80.853033
 20
12.977673
 30
0.0
 10
80.978974
 20
13.249664
 30
0.0
 10
80.737322
 20
13.541764
 30
0.0
 10
80.386308
 20
13.541764
 30
0.0
  0
LWPOLYLINE
  5
151
100
AcDbEntity
  8
Layer_1
 62
1
100
AcDbPolyline
 90
2
 70
0
 10
74.877683
 20
0.074120
 30
0.0
 10
80.853033
 20
12.977673
 30
0.0
  0
LWPOLYLINE
  5
152
100
AcDbEntity
  8
Layer_1
 62
1
100
AcDbPolyline
 90
2
 70
0
 10
80.386308
 20
13.541764
 30
0.0
 10
75.879219
 20
13.541764
 30
0.0
  0
SPLINE
  5
153
100
AcDbEntity
  8
Layer_1
 62
1
100
AcDbSpline
 70
8
 71
3
 72
8
 73
4
 74
0
 40
0
 40
0
 40
0
 40
0
 40
1
 40
1
 40
1
 40
1
 10
67.853031
 20
12.977673
 30
0.0
 10
67.978972
 20
13.249664
 30
0.0
 10
67.737320
 20
13.541764
 30
0.0
 10
67.386306
 20
13.541764
 30
0.0
  0
LWPOLYLINE
  5
154
100
AcDbEntity
  8
Layer_1
 62
1
100
AcDbPolyline
 90
2
 70
0
 10
61.877681
 20
0.074120
 30
0.0
 10
67.853031
 20
12.977673
 30
0.0
  0
LWPOLYLINE
  5
155
100
AcDbEntity
  8
Layer_1
 62
1
100
AcDbPolyline
 90
2
 70
0
 10
67.386306
 20
13.541764
 30
0.0
 10
62.879217
 20
13.541764
 30
0.0
  0
SPLINE
  5
156
100
AcDbEntity
  8
Layer_1
 62
1
100
AcDbSpline
 70
8
 71
3
 72
8
 73
4
 74
0
 40
0
 40
0
 40
0
 40
0
 40
1
 40
1
 40
1
 40
1
 10
54.853029
 20
12.977673
 30
0.0
 10
54.978970
 20
13.249664
 30
0.0
 10
54.737318
 20
13.541764
 30
0.0
 10
54.386657
 20
13.541764
 30
0.0
  0
LWPOLYLINE
  5
157
100
AcDbEntity
  8
Layer_1
 62
1
100
AcDbPolyline
 90
2
 70
0
 10
48.877679
 20
0.074120
 30
0.0
 10
54.853029
 20
12.977673
 30
0.0
  0
LWPOLYLINE
  5
158
100
AcDbEntity
  8
Layer_1
 62
1
100
AcDbPolyline
 90
2
 70
0
 10
54.386657
 20
13.541764
 30
0.0
 10
49.879215
 20
13.541764
 30
0.0
  0
SPLINE
  5
159
100
AcDbEntity
  8
Layer_1
 62
1
100
AcDbSpline
 70
8
 71
3
 72
8
 73
4
 74
0
 40
0
 40
0
 40
0
 40
0
 40
1
 40
1
 40
1
 40
1
 10
41.853027
 20
12.977673
 30
0.0
 10
41.978969
 20
13.249664
 30
0.0
 10
41.737316
 20
13.541764
 30
0.0
 10
41.386302
 20
13.541764
 30
0.0
  0
LWPOLYLINE
  5
15a
100
AcDbEntity
  8
Layer_1
 62
1
100
AcDbPolyline
 90
2
 70
0
 10
35.877677
 20
0.074120
 30
0.0
 10
41.853027
 20
12.977673
 30
0.0
  0
LWPOLYLINE
  5
15b
100
AcDbEntity
  8
Layer_1
 62
1
100
AcDbPolyline
 90
2
 70
0
 10
41.386302
 20
13.541764
 30
0.0
 10
36.879213
 20
13.541764
 30
0.0
  0
SPLINE
  5
15c
100
AcDbEntity
  8
Layer_1
 62
1
100
AcDbSpline
 70
8
 71
3
 72
8
 73
4
 74
0
 40
0
 40
0
 40
0
 40
0
 40
1
 40
1
 40
1
 40
1
 10
28.853025
 20
12.977673
 30
0.0
 10
28.978967
 20
13.249664
 30
0.0
 10
28.737314
 20
13.541764
 30
0.0
 10
28.386300
 20
13.541764
 30
0.0
  0
LWPOLYLINE
  5
15d
100
AcDbEntity
  8
Layer_1
 62
1
100
AcDbPolyline
 90
2
 70
0
 10
22.877675
 20
0.074120
 30
0.0
 10
28.853025
 20
12.977673
 30
0.0
  0
LWPOLYLINE
  5
15e
100
AcDbEntity
  8
Layer_1
 62
1
100
AcDbPolyline
 90
2
 70
0
 10
28.386300
 20
13.541764
 30
0.0
 10
23.879211
 20
13.541764
 30
0.0
  0
SPLINE
  5
15f
100
AcDbEntity
  8
Layer_1
 62
1
100
AcDbSpline
 70
8
 71
3
 72
8
 73
4
 74
0
 40
0
 40
0
 40
0
 40
0
 40
1
 40
1
 40
1
 40
1
 10
15.853023
 20
12.977673
 30
0.0
 10
15.978965
 20
13.249664
 30
0.0
 10
15.737312
 20
13.541764
 30
0.0
 10
15.386298
 20
13.541764
 30
0.0
  0
LWPOLYLINE
  5
160
100
AcDbEntity
  8
Layer_1
 62
1
100
AcDbPolyline
 90
2
 70
0
 10
9.877673
 20
0.074120
 30
0.0
 10
15.853023
 20
12.977673
 30
0.0
  0
LWPOLYLINE
  5
161
100
AcDbEntity
  8
Layer_1
 62
1
100
AcDbPolyline
 90
2
 70
0
 10
15.386298
 20
13.541764
 30
0.0
 10
10.879209
 20
13.541764
 30
0.0
  0
SPLINE
  5
162
100
AcDbEntity
  8
Layer_1
 62
1
100
AcDbSpline
 70
8
 71
3
 72
8
 73
4
 74
0
 40
0
 40
0
 40
0
 40
0
 40
1
 40
1
 40
1
 40
1
 10
239.072169
 20
22.562786
 30
0.0
 10
239.072169
 20
22.776569
 30
0.0
 10
238.857328
 20
22.922266
 30
0.0
 10
238.659772
 20
22.840775
 30
0.0
  0
SPLINE
  5
163
100
AcDbEntity
  8
Layer_1
 62
1
100
AcDbSpline
 70
8
 71
3
 72
8
 73
4
 74
0
 40
0
 40
0
 40
0
 40
0
 40
1
 40
1
 40
1
 40
1
 10
238.659772
 20
22.840775
 30
0.0
 10
237.289583
 20
22.275977
 30
0.0
 10
230.252725
 20
17.716325
 30
0.0
 10
230.252725
 20
17.716325
 30
0.0
  0
LWPOLYLINE
  5
164
100
AcDbEntity
  8
Layer_1
 62
1
100
AcDbPolyline
 90
3
 70
0
 10
249.036377
 20
20.904377
 30
0.0
 10
239.072169
 20
20.799955
 30
0.0
 10
239.072169
 20
22.562786
 30
0.0
  0
SPLINE
  5
165
100
AcDbEntity
  8
Layer_1
 62
1
100
AcDbSpline
 70
8
 71
3
 72
8
 73
4
 74
0
 40
0
 40
0
 40
0
 40
0
 40
1
 40
1
 40
1
 40
1
 10
230.252725
 20
10.216269
 30
0.0
 10
230.252725
 20
10.216269
 30
0.0
 10
237.289583
 20
5.656264
 30
0.0
 10
238.659772
 20
5.091114
 30
0.0
  0
SPLINE
  5
166
100
AcDbEntity
  8
Layer_1
 62
1
100
AcDbSpline
 70
8
 71
3
 72
8
 73
4
 74
0
 40
0
 40
0
 40
0
 40
0
 40
1
 40
1
 40
1
 40
1
 10
238.659772
 20
5.091114
 30
0.0
 10
238.857328
 20
5.009622
 30
0.0
 10
239.072169
 20
5.155672
 30
0.0
 10
239.072169
 20
5.369456
 30
0.0
  0
LWPOLYLINE
  5
167
100
AcDbEntity
  8
Layer_1
 62
1
100
AcDbPolyline
 90
2
 70
0
 10
230.252725
 20
17.716325
 30
0.0
 10
230.252725
 20
10.216269
 30
0.0
  0
LWPOLYLINE
  5
168
100
AcDbEntity
  8
Layer_1
 62
1
100
AcDbPolyline
 90
3
 70
0
 10
239.072169
 20
5.369456
 30
0.0
 10
239.072169
 20
7.132639
 30
0.0
 10
249.036377
 20
7.027864
 30
0.0
  0
SPLINE
  5
169
100
AcDbEntity
  8
Layer_1
 62
1
100
AcDbSpline
 70
8
 71
3
 72
8
 73
4
 74
0
 40
0
 40
0
 40
0
 40
0
 40
1
 40
1
 40
1
 40
1
 10
451.562603
 20
22.562786
 30
0.0
 10
451.562603
 20
22.776569
 30
0.0
 10
451.777444
 20
22.922266
 30
0.0
 10
451.975000
 20
22.840775
 30
0.0
  0
SPLINE
  5
16a
100
AcDbEntity
  8
Layer_1
 62
1
100
AcDbSpline
 70
8
 71
3
 72
8
 73
4
 74
0
 40
0
 40
0
 40
0
 40
0
 40
1
 40
1
 40
1
 40
1
 10
451.975000
 20
22.840775
 30
0.0
 10
453.345189
 20
22.275977
 30
0.0
 10
460.382047
 20
17.716325
 30
0.0
 10
460.382047
 20
17.716325
 30
0.0
  0
LWPOLYLINE
  5
16b
100
AcDbEntity
  8
Layer_1
 62
1
100
AcDbPolyline
 90
3
 70
0
 10
441.598394
 20
20.904377
 30
0.0
 10
451.562603
 20
20.799955
 30
0.0
 10
451.562603
 20
22.562786
 30
0.0
  0
SPLINE
  5
16c
100
AcDbEntity
  8
Layer_1
 62
1
100
AcDbSpline
 70
8
 71
3
 72
8
 73
4
 74
0
 40
0
 40
0
 40
0
 40
0
 40
1
 40
1
 40
1
 40
1
 10
460.382047
 20
10.216269
 30
0.0
 10
460.382047
 20
10.216269
 30
0.0
 10
453.345189
 20
5.656264
 30
0.0
 10
451.975000
 20
5.091114
 30
0.0
  0
SPLINE
  5
16d
100
AcDbEntity
  8
Layer_1
 62
1
100
AcDbSpline
 70
8
 71
3
 72
8
 73
4
 74
0
 40
0
 40
0
 40
0
 40
0
 40
1
 40
1
 40
1
 40
1
 10
451.975000
 20
5.091114
 30
0.0
 10
451.777444
 20
5.009622
 30
0.0
 10
451.562603
 20
5.155672
 30
0.0
 10
451.562603
 20
5.369456
 30
0.0
  0
LWPOLYLINE
  5
16e
100
AcDbEntity
  8
Layer_1
 62
1
100
AcDbPolyline
 90
2
 70
0
 10
460.382047
 20
17.716325
 30
0.0
 10
460.382047
 20
10.216269
 30
0.0
  0
LWPOLYLINE
  5
16f
100
AcDbEntity
  8
Layer_1
 62
1
100
AcDbPolyline
 90
3
 70
0
 10
451.562603
 20
5.369456
 30
0.0
 10
451.562603
 20
7.132639
 30
0.0
 10
441.598394
 20
7.027864
 30
0.0
  0
ENDSEC
  0
SECTION
  2
OBJECTS
  0
DICTIONARY
  5
C
330
0
100
AcDbDictionary
  3
ACAD_GROUP
350
D
  3
ACAD_MLINESTYLE
350
17
  0
DICTIONARY
  5
D
330
C
100
AcDbDictionary
  0
DICTIONARY
  5
1A
330
C
100
AcDbDictionary
  0
DICTIONARY
  5
17
330
C
100
AcDbDictionary
  3
STANDARD
350
18
  0
DICTIONARY
  5
19
330
C
100
AcDbDictionary
  0
ENDSEC
  0
EOF
