  0
SECTION
  2
HEADER
  9
$ACADVER
  1
AC1014
  9
$HANDSEED
  5
FFFF
  9
$MEASUREMENT
 70
     1
  0
ENDSEC
  0
SECTION
  2
TABLES
  0
TABLE
  2
VPORT
  5
8
330
0
100
AcDbSymbolTable
 70
     4
  0
VPORT
  5
2E
330
8
100
AcDbSymbolTableRecord
100
AcDbViewportTableRecord
  2
*ACTIVE
 70
     0
 10
0.0
 20
0.0
 11
1.0
 21
1.0
 12
210.0
 22
148.5
 13
0.0
 23
0.0
 14
10.0
 24
10.0
 15
10.0
 25
10.0
 16
0.0
 26
0.0
 36
1.0
 17
0.0
 27
0.0
 37
0.0
 40
341.0
 41
1.24
 42
50.0
 43
0.0
 44
0.0
 50
0.0
 51
0.0
 71
     0
 72
   100
 73
     1
 74
     3
 75
     0
 76
     0
 77
     0
 78
     0
  0
ENDTAB
  0
TABLE
  2
LTYPE
  5
5
330
0
100
AcDbSymbolTable
 70
     1
  0
LTYPE
  5
14
330
5
100
AcDbSymbolTableRecord
100
AcDbLinetypeTableRecord
  2
BYBLOCK
 70
     0
  3

 72
    65
 73
     0
 40
0.0
  0
LTYPE
  5
15
330
5
100
AcDbSymbolTableRecord
100
AcDbLinetypeTableRecord
  2
BYLAYER
 70
     0
  3

 72
    65
 73
     0
 40
0.0
  0
LTYPE
  5
16
330
5
100
AcDbSymbolTableRecord
100
AcDbLinetypeTableRecord
  2
CONTINUOUS
 70
     0
  3
Solid line
 72
    65
 73
     0
 40
0.0
  0
ENDTAB
  0
TABLE
  2
LAYER
  5
2
100
AcDbSymbolTable
 70
2
  0
LAYER
  5
50
100
AcDbSymbolTableRecord
100
AcDbLayerTableRecord
  2
0
 70
0
  6
CONTINUOUS
  0
LAYER
  5
51
100
AcDbSymbolTableRecord
100
AcDbLayerTableRecord
  2
Layer_1
 70
0
  6
CONTINUOUS
  0
ENDTAB
  0
TABLE
  2
STYLE
  5
3
330
0
100
AcDbSymbolTable
 70
     1
  0
STYLE
  5
11
330
3
100
AcDbSymbolTableRecord
100
AcDbTextStyleTableRecord
  2
STANDARD
 70
     0
 40
0.0
 41
1.0
 50
0.0
 71
     0
 42
2.5
  3
txt
  4

  0
ENDTAB
  0
TABLE
  2
VIEW
  5
6
330
0
100
AcDbSymbolTable
 70
     0
  0
ENDTAB
  0
TABLE
  2
UCS
  5
7
330
0
100
AcDbSymbolTable
 70
     0
  0
ENDTAB
  0
TABLE
  2
APPID
  5
9
330
0
100
AcDbSymbolTable
 70
     2
  0
APPID
  5
12
330
9
100
AcDbSymbolTableRecord
100
AcDbRegAppTableRecord
  2
ACAD
 70
     0
  0
ENDTAB
  0
TABLE
  2
DIMSTYLE
  5
A
330
0
100
AcDbSymbolTable
 70
     1
  0
DIMSTYLE
105
27
330
A
100
AcDbSymbolTableRecord
100
AcDbDimStyleTableRecord
  2
ISO-25
 70
     0
  3

  4

  5

  6

  7

 40
1.0
 41
2.5
 42
0.625
 43
3.75
 44
1.25
 45
0.0
 46
0.0
 47
0.0
 48
0.0
140
2.5
141
2.5
142
0.0
143
0.03937007874016
144
1.0
145
0.0
146
1.0
147
0.625
 71
     0
 72
     0
 73
     0
 74
     0
 75
     0
 76
     0
 77
     1
 78
     8
170
     0
171
     3
172
     1
173
     0
174
     0
175
     0
176
     0
177
     0
178
     0
270
     2
271
     2
272
     2
273
     2
274
     3
340
11
275
     0
280
     0
281
     0
282
     0
283
     0
284
     8
285
     0
286
     0
287
     3
288
     0
  0
ENDTAB
  0
TABLE
  2
BLOCK_RECORD
  5
1
330
0
100
AcDbSymbolTable
 70
     1
  0
BLOCK_RECORD
  5
1F
330
1
100
AcDbSymbolTableRecord
100
AcDbBlockTableRecord
  2
*MODEL_SPACE
  0
BLOCK_RECORD
  5
1B
330
1
100
AcDbSymbolTableRecord
100
AcDbBlockTableRecord
  2
*PAPER_SPACE
  0
ENDTAB
  0
ENDSEC
  0
SECTION
  2
BLOCKS
  0
BLOCK
  5
20
330
1F
100
AcDbEntity
  8
0
100
AcDbBlockBegin
  2
*MODEL_SPACE
 70
     0
 10
0.0
 20
0.0
 30
0.0
  3
*MODEL_SPACE
  1

  0
ENDBLK
  5
21
330
1F
100
AcDbEntity
  8
0
100
AcDbBlockEnd
  0
BLOCK
  5
1C
330
1B
100
AcDbEntity
 67
     1
  8
0
100
AcDbBlockBegin
  2
*PAPER_SPACE
  1

  0
ENDBLK
  5
1D
330
1B
100
AcDbEntity
 67
     1
  8
0
100
AcDbBlockEnd
  0
ENDSEC
  0
SECTION
  2
ENTITIES
  0
SPLINE
  5
100
100
AcDbEntity
  8
Layer_1
 62
1
100
AcDbSpline
 70
8
 71
3
 72
8
 73
4
 74
0
 40
0
 40
0
 40
0
 40
0
 40
1
 40
1
 40
1
 40
1
 10
478.827720
 20
344.138681
 30
0.0
 10
482.167856
 20
344.138681
 30
0.0
 10
484.875072
 20
341.295645
 30
0.0
 10
484.875072
 20
337.788681
 30
0.0
  0
SPLINE
  5
101
100
AcDbEntity
  8
Layer_1
 62
1
100
AcDbSpline
 70
8
 71
3
 72
8
 73
4
 74
0
 40
0
 40
0
 40
0
 40
0
 40
1
 40
1
 40
1
 40
1
 10
484.875072
 20
183.380003
 30
0.0
 10
484.875072
 20
113.239669
 30
0.0
 10
448.258504
 20
61.379926
 30
0.0
 10
381.460033
 20
61.379926
 30
0.0
  0
LWPOLYLINE
  5
102
100
AcDbEntity
  8
Layer_1
 62
1
100
AcDbPolyline
 90
2
 70
0
 10
484.875072
 20
337.788681
 30
0.0
 10
484.875072
 20
183.380003
 30
0.0
  0
SPLINE
  5
103
100
AcDbEntity
  8
Layer_1
 62
1
100
AcDbSpline
 70
8
 71
3
 72
8
 73
4
 74
0
 40
0
 40
0
 40
0
 40
0
 40
1
 40
1
 40
1
 40
1
 10
308.890471
 20
61.379926
 30
0.0
 10
242.092000
 20
61.379926
 30
0.0
 10
205.475078
 20
113.239669
 30
0.0
 10
205.475078
 20
183.380003
 30
0.0
  0
LWPOLYLINE
  5
104
100
AcDbEntity
  8
Layer_1
 62
1
100
AcDbPolyline
 90
2
 70
0
 10
381.460033
 20
61.379926
 30
0.0
 10
308.890471
 20
61.379926
 30
0.0
  0
SPLINE
  5
105
100
AcDbEntity
  8
Layer_1
 62
1
100
AcDbSpline
 70
8
 71
3
 72
8
 73
4
 74
0
 40
0
 40
0
 40
0
 40
0
 40
1
 40
1
 40
1
 40
1
 10
205.475078
 20
337.788681
 30
0.0
 10
205.475078
 20
341.295645
 30
0.0
 10
208.183001
 20
344.138681
 30
0.0
 10
211.522748
 20
344.138681
 30
0.0
  0
LWPOLYLINE
  5
106
100
AcDbEntity
  8
Layer_1
 62
1
100
AcDbPolyline
 90
2
 70
0
 10
205.475078
 20
183.380003
 30
0.0
 10
205.475078
 20
337.788681
 30
0.0
  0
LWPOLYLINE
  5
107
100
AcDbEntity
  8
Layer_1
 62
1
100
AcDbPolyline
 90
2
 70
0
 10
211.522748
 20
344.138681
 30
0.0
 10
478.827720
 20
344.138681
 30
0.0
  0
LWPOLYLINE
  5
108
100
AcDbEntity
  8
Layer_1
 62
1
100
AcDbPolyline
 90
2
 70
0
 10
217.082455
 20
280.749667
 30
0.0
 10
217.082455
 20
265.549531
 30
0.0
  0
LWPOLYLINE
  5
109
100
AcDbEntity
  8
Layer_1
 62
1
100
AcDbPolyline
 90
2
 70
0
 10
222.788000
 20
280.149662
 30
0.0
 10
222.788000
 20
266.149676
 30
0.0
  0
LWPOLYLINE
  5
10a
100
AcDbEntity
  8
Layer_1
 62
1
100
AcDbPolyline
 90
2
 70
0
 10
473.267978
 20
280.749667
 30
0.0
 10
473.267978
 20
265.549531
 30
0.0
  0
SPLINE
  5
10b
100
AcDbEntity
  8
Layer_1
 62
1
100
AcDbSpline
 70
8
 71
3
 72
8
 73
4
 74
0
 40
0
 40
0
 40
0
 40
0
 40
1
 40
1
 40
1
 40
1
 10
511.036578
 20
344.394551
 30
0.0
 10
507.529614
 20
344.394551
 30
0.0
 10
504.686578
 20
341.731149
 30
0.0
 10
504.686578
 20
338.446083
 30
0.0
  0
SPLINE
  5
10c
100
AcDbEntity
  8
Layer_1
 62
1
100
AcDbSpline
 70
8
 71
3
 72
8
 73
4
 74
0
 40
0
 40
0
 40
0
 40
0
 40
1
 40
1
 40
1
 40
1
 10
504.686578
 20
338.446083
 30
0.0
 10
504.686578
 20
334.942047
 30
0.0
 10
504.686578
 20
334.212750
 30
0.0
 10
505.215745
 20
323.700713
 30
0.0
  0
SPLINE
  5
10d
100
AcDbEntity
  8
Layer_1
 62
1
100
AcDbSpline
 70
8
 71
3
 72
8
 73
4
 74
0
 40
0
 40
0
 40
0
 40
0
 40
1
 40
1
 40
1
 40
1
 10
505.215745
 20
323.700713
 30
0.0
 10
505.362324
 20
320.788744
 30
0.0
 10
506.907455
 20
332.219732
 30
0.0
 10
509.030613
 20
334.362574
 30
0.0
  0
SPLINE
  5
10e
100
AcDbEntity
  8
Layer_1
 62
1
100
AcDbSpline
 70
8
 71
3
 72
8
 73
4
 74
0
 40
0
 40
0
 40
0
 40
0
 40
1
 40
1
 40
1
 40
1
 10
509.030613
 20
334.362574
 30
0.0
 10
509.421808
 20
334.712847
 30
0.0
 10
509.928221
 20
334.906910
 30
0.0
 10
510.453260
 20
334.907757
 30
0.0
  0
SPLINE
  5
10f
100
AcDbEntity
  8
Layer_1
 62
1
100
AcDbSpline
 70
8
 71
3
 72
8
 73
4
 74
0
 40
0
 40
0
 40
0
 40
0
 40
1
 40
1
 40
1
 40
1
 10
510.453260
 20
334.907757
 30
0.0
 10
511.634113
 20
334.907616
 30
0.0
 10
512.591234
 20
333.950248
 30
0.0
 10
512.591128
 20
332.769395
 30
0.0
  0
SPLINE
  5
110
100
AcDbEntity
  8
Layer_1
 62
1
100
AcDbSpline
 70
8
 71
3
 72
8
 73
4
 74
0
 40
0
 40
0
 40
0
 40
0
 40
1
 40
1
 40
1
 40
1
 10
512.591128
 20
332.769395
 30
0.0
 10
512.591128
 20
332.244391
 30
0.0
 10
512.396536
 20
331.738014
 30
0.0
 10
512.046475
 20
331.346748
 30
0.0
  0
LWPOLYLINE
  5
111
100
AcDbEntity
  8
Layer_1
 62
1
100
AcDbPolyline
 90
2
 70
0
 10
467.562433
 20
280.149662
 30
0.0
 10
467.562433
 20
266.149676
 30
0.0
  0
SPLINE
  5
112
100
AcDbEntity
  8
Layer_1
 62
1
100
AcDbSpline
 70
8
 71
3
 72
8
 73
4
 74
0
 40
0
 40
0
 40
0
 40
0
 40
1
 40
1
 40
1
 40
1
 10
512.117701
 20
37.776553
 30
0.0
 10
512.423771
 20
37.396823
 30
0.0
 10
512.590776
 20
36.923818
 30
0.0
 10
512.591093
 20
36.436068
 30
0.0
  0
SPLINE
  5
113
100
AcDbEntity
  8
Layer_1
 62
1
100
AcDbSpline
 70
8
 71
3
 72
8
 73
4
 74
0
 40
0
 40
0
 40
0
 40
0
 40
1
 40
1
 40
1
 40
1
 10
512.591093
 20
36.436068
 30
0.0
 10
512.590917
 20
35.255462
 30
0.0
 10
511.633866
 20
34.298411
 30
0.0
 10
510.453224
 20
34.298235
 30
0.0
  0
SPLINE
  5
114
100
AcDbEntity
  8
Layer_1
 62
1
100
AcDbSpline
 70
8
 71
3
 72
8
 73
4
 74
0
 40
0
 40
0
 40
0
 40
0
 40
1
 40
1
 40
1
 40
1
 10
510.453224
 20
34.298235
 30
0.0
 10
509.965791
 20
34.298235
 30
0.0
 10
509.493175
 20
34.466086
 30
0.0
 10
509.113763
 20
34.772086
 30
0.0
  0
SPLINE
  5
115
100
AcDbEntity
  8
Layer_1
 62
1
100
AcDbSpline
 70
8
 71
3
 72
8
 73
4
 74
0
 40
0
 40
0
 40
0
 40
0
 40
1
 40
1
 40
1
 40
1
 10
509.113763
 20
34.772086
 30
0.0
 10
506.932502
 20
36.936130
 30
0.0
 10
505.955343
 20
47.793678
 30
0.0
 10
505.744911
 20
44.968386
 30
0.0
  0
LWPOLYLINE
  5
116
100
AcDbEntity
  8
Layer_1
 62
1
100
AcDbPolyline
 90
4
 70
0
 10
512.046475
 20
331.346748
 30
0.0
 10
504.686613
 20
321.854803
 30
0.0
 10
504.686613
 20
47.343956
 30
0.0
 10
512.117701
 20
37.776553
 30
0.0
  0
SPLINE
  5
117
100
AcDbEntity
  8
Layer_1
 62
1
100
AcDbSpline
 70
8
 71
3
 72
8
 73
4
 74
0
 40
0
 40
0
 40
0
 40
0
 40
1
 40
1
 40
1
 40
1
 10
504.686578
 20
30.759450
 30
0.0
 10
504.442562
 20
27.483450
 30
0.0
 10
507.529614
 20
24.811511
 30
0.0
 10
511.036578
 20
24.811511
 30
0.0
  0
LWPOLYLINE
  5
118
100
AcDbEntity
  8
Layer_1
 62
1
100
AcDbPolyline
 90
2
 70
0
 10
505.744911
 20
44.968386
 30
0.0
 10
504.686578
 20
30.759450
 30
0.0
  0
SPLINE
  5
119
100
AcDbEntity
  8
Layer_1
 62
1
100
AcDbSpline
 70
8
 71
3
 72
8
 73
4
 74
0
 40
0
 40
0
 40
0
 40
0
 40
1
 40
1
 40
1
 40
1
 10
524.685867
 20
24.811511
 30
0.0
 10
528.193184
 20
24.811511
 30
0.0
 10
531.280095
 20
27.483485
 30
0.0
 10
531.035867
 20
30.759450
 30
0.0
  0
LWPOLYLINE
  5
11a
100
AcDbEntity
  8
Layer_1
 62
1
100
AcDbPolyline
 90
2
 70
0
 10
511.036578
 20
24.811511
 30
0.0
 10
524.685867
 20
24.811511
 30
0.0
  0
SPLINE
  5
11b
100
AcDbEntity
  8
Layer_1
 62
1
100
AcDbSpline
 70
8
 71
3
 72
8
 73
4
 74
0
 40
0
 40
0
 40
0
 40
0
 40
1
 40
1
 40
1
 40
1
 10
529.977534
 20
44.956004
 30
0.0
 10
529.767666
 20
47.771170
 30
0.0
 10
528.801373
 20
36.940646
 30
0.0
 10
526.625792
 20
34.785033
 30
0.0
  0
SPLINE
  5
11c
100
AcDbEntity
  8
Layer_1
 62
1
100
AcDbSpline
 70
8
 71
3
 72
8
 73
4
 74
0
 40
0
 40
0
 40
0
 40
0
 40
1
 40
1
 40
1
 40
1
 10
526.625792
 20
34.785033
 30
0.0
 10
526.243699
 20
34.470778
 30
0.0
 10
525.764485
 20
34.298764
 30
0.0
 10
525.269820
 20
34.298235
 30
0.0
  0
SPLINE
  5
11d
100
AcDbEntity
  8
Layer_1
 62
1
100
AcDbSpline
 70
8
 71
3
 72
8
 73
4
 74
0
 40
0
 40
0
 40
0
 40
0
 40
1
 40
1
 40
1
 40
1
 10
525.269820
 20
34.298235
 30
0.0
 10
524.088967
 20
34.298129
 30
0.0
 10
523.131599
 20
35.255250
 30
0.0
 10
523.131458
 20
36.436103
 30
0.0
  0
SPLINE
  5
11e
100
AcDbEntity
  8
Layer_1
 62
1
100
AcDbSpline
 70
8
 71
3
 72
8
 73
4
 74
0
 40
0
 40
0
 40
0
 40
0
 40
1
 40
1
 40
1
 40
1
 10
523.131458
 20
36.436103
 30
0.0
 10
523.131458
 20
36.930980
 30
0.0
 10
523.303860
 20
37.410405
 30
0.0
 10
523.618221
 20
37.792604
 30
0.0
  0
SPLINE
  5
11f
100
AcDbEntity
  8
Layer_1
 62
1
100
AcDbSpline
 70
8
 71
3
 72
8
 73
4
 74
0
 40
0
 40
0
 40
0
 40
0
 40
1
 40
1
 40
1
 40
1
 10
523.618221
 20
37.792604
 30
0.0
 10
523.618221
 20
37.792604
 30
0.0
 10
523.786848
 20
37.979012
 30
0.0
 10
523.874584
 20
38.053624
 30
0.0
  0
LWPOLYLINE
  5
120
100
AcDbEntity
  8
Layer_1
 62
1
100
AcDbPolyline
 90
2
 70
0
 10
531.035867
 20
30.759450
 30
0.0
 10
529.977534
 20
44.956004
 30
0.0
  0
SPLINE
  5
121
100
AcDbEntity
  8
Layer_1
 62
1
100
AcDbSpline
 70
8
 71
3
 72
8
 73
4
 74
0
 40
0
 40
0
 40
0
 40
0
 40
1
 40
1
 40
1
 40
1
 10
523.651946
 20
331.373136
 30
0.0
 10
523.316102
 20
331.760909
 30
0.0
 10
523.130858
 20
332.256491
 30
0.0
 10
523.130011
 20
332.769465
 30
0.0
  0
SPLINE
  5
122
100
AcDbEntity
  8
Layer_1
 62
1
100
AcDbSpline
 70
8
 71
3
 72
8
 73
4
 74
0
 40
0
 40
0
 40
0
 40
0
 40
1
 40
1
 40
1
 40
1
 10
523.130011
 20
332.769465
 30
0.0
 10
523.129906
 20
333.950495
 30
0.0
 10
524.087344
 20
334.907933
 30
0.0
 10
525.268374
 20
334.907828
 30
0.0
  0
SPLINE
  5
123
100
AcDbEntity
  8
Layer_1
 62
1
100
AcDbSpline
 70
8
 71
3
 72
8
 73
4
 74
0
 40
0
 40
0
 40
0
 40
0
 40
1
 40
1
 40
1
 40
1
 10
525.268374
 20
334.907828
 30
0.0
 10
525.781454
 20
334.907828
 30
0.0
 10
526.277248
 20
334.722161
 30
0.0
 10
526.665197
 20
334.386387
 30
0.0
  0
SPLINE
  5
124
100
AcDbEntity
  8
Layer_1
 62
1
100
AcDbSpline
 70
8
 71
3
 72
8
 73
4
 74
0
 40
0
 40
0
 40
0
 40
0
 40
1
 40
1
 40
1
 40
1
 10
526.665197
 20
334.386387
 30
0.0
 10
528.827161
 20
332.241322
 30
0.0
 10
530.358075
 20
320.798516
 30
0.0
 10
530.505289
 20
323.717823
 30
0.0
  0
SPLINE
  5
125
100
AcDbEntity
  8
Layer_1
 62
1
100
AcDbSpline
 70
8
 71
3
 72
8
 73
4
 74
0
 40
0
 40
0
 40
0
 40
0
 40
1
 40
1
 40
1
 40
1
 10
530.505289
 20
323.717823
 30
0.0
 10
531.034456
 20
334.212785
 30
0.0
 10
531.034456
 20
334.947797
 30
0.0
 10
531.034456
 20
338.446118
 30
0.0
  0
SPLINE
  5
126
100
AcDbEntity
  8
Layer_1
 62
1
100
AcDbSpline
 70
8
 71
3
 72
8
 73
4
 74
0
 40
0
 40
0
 40
0
 40
0
 40
1
 40
1
 40
1
 40
1
 10
531.034456
 20
338.446118
 30
0.0
 10
531.034456
 20
341.731185
 30
0.0
 10
528.191773
 20
344.394586
 30
0.0
 10
524.684456
 20
344.394586
 30
0.0
  0
LWPOLYLINE
  5
127
100
AcDbEntity
  8
Layer_1
 62
1
100
AcDbPolyline
 90
4
 70
0
 10
523.874584
 20
38.053624
 30
0.0
 10
531.035408
 20
47.331080
 30
0.0
 10
531.035408
 20
321.871878
 30
0.0
 10
523.651946
 20
331.373136
 30
0.0
  0
LWPOLYLINE
  5
128
100
AcDbEntity
  8
Layer_1
 62
1
100
AcDbPolyline
 90
2
 70
0
 10
524.684456
 20
344.394586
 30
0.0
 10
511.036578
 20
344.394551
 30
0.0
  0
SPLINE
  5
129
100
AcDbEntity
  8
Layer_1
 62
1
100
AcDbSpline
 70
8
 71
3
 72
8
 73
4
 74
0
 40
0
 40
0
 40
0
 40
0
 40
1
 40
1
 40
1
 40
1
 10
508.319660
 20
78.499913
 30
0.0
 10
508.105876
 20
78.499913
 30
0.0
 10
507.960179
 20
78.285072
 30
0.0
 10
508.041671
 20
78.087516
 30
0.0
  0
SPLINE
  5
12a
100
AcDbEntity
  8
Layer_1
 62
1
100
AcDbSpline
 70
8
 71
3
 72
8
 73
4
 74
0
 40
0
 40
0
 40
0
 40
0
 40
1
 40
1
 40
1
 40
1
 10
508.041671
 20
78.087516
 30
0.0
 10
508.606468
 20
76.717327
 30
0.0
 10
513.695287
 20
69.680469
 30
0.0
 10
513.695287
 20
69.680469
 30
0.0
  0
LWPOLYLINE
  5
12b
100
AcDbEntity
  8
Layer_1
 62
1
100
AcDbPolyline
 90
3
 70
0
 10
510.507235
 20
88.464121
 30
0.0
 10
510.611657
 20
78.499913
 30
0.0
 10
508.319660
 20
78.499913
 30
0.0
  0
SPLINE
  5
12c
100
AcDbEntity
  8
Layer_1
 62
1
100
AcDbSpline
 70
8
 71
3
 72
8
 73
4
 74
0
 40
0
 40
0
 40
0
 40
0
 40
1
 40
1
 40
1
 40
1
 10
521.195343
 20
69.680469
 30
0.0
 10
521.195343
 20
69.680469
 30
0.0
 10
526.284515
 20
76.717327
 30
0.0
 10
526.849665
 20
78.087516
 30
0.0
  0
SPLINE
  5
12d
100
AcDbEntity
  8
Layer_1
 62
1
100
AcDbSpline
 70
8
 71
3
 72
8
 73
4
 74
0
 40
0
 40
0
 40
0
 40
0
 40
1
 40
1
 40
1
 40
1
 10
526.849665
 20
78.087516
 30
0.0
 10
526.931157
 20
78.285072
 30
0.0
 10
526.785107
 20
78.499913
 30
0.0
 10
526.571323
 20
78.499913
 30
0.0
  0
LWPOLYLINE
  5
12e
100
AcDbEntity
  8
Layer_1
 62
1
100
AcDbPolyline
 90
2
 70
0
 10
513.695287
 20
69.680469
 30
0.0
 10
521.195343
 20
69.680469
 30
0.0
  0
LWPOLYLINE
  5
12f
100
AcDbEntity
  8
Layer_1
 62
1
100
AcDbPolyline
 90
3
 70
0
 10
526.571323
 20
78.499913
 30
0.0
 10
524.278973
 20
78.499913
 30
0.0
 10
524.383748
 20
88.464121
 30
0.0
  0
SPLINE
  5
130
100
AcDbEntity
  8
Layer_1
 62
1
100
AcDbSpline
 70
8
 71
3
 72
8
 73
4
 74
0
 40
0
 40
0
 40
0
 40
0
 40
1
 40
1
 40
1
 40
1
 10
508.319660
 20
290.990347
 30
0.0
 10
508.105876
 20
290.990347
 30
0.0
 10
507.960179
 20
291.205188
 30
0.0
 10
508.041671
 20
291.402744
 30
0.0
  0
SPLINE
  5
131
100
AcDbEntity
  8
Layer_1
 62
1
100
AcDbSpline
 70
8
 71
3
 72
8
 73
4
 74
0
 40
0
 40
0
 40
0
 40
0
 40
1
 40
1
 40
1
 40
1
 10
508.041671
 20
291.402744
 30
0.0
 10
508.606468
 20
292.772933
 30
0.0
 10
513.695287
 20
299.809791
 30
0.0
 10
513.695287
 20
299.809791
 30
0.0
  0
LWPOLYLINE
  5
132
100
AcDbEntity
  8
Layer_1
 62
1
100
AcDbPolyline
 90
3
 70
0
 10
510.507235
 20
281.026139
 30
0.0
 10
510.611657
 20
290.990347
 30
0.0
 10
508.319660
 20
290.990347
 30
0.0
  0
SPLINE
  5
133
100
AcDbEntity
  8
Layer_1
 62
1
100
AcDbSpline
 70
8
 71
3
 72
8
 73
4
 74
0
 40
0
 40
0
 40
0
 40
0
 40
1
 40
1
 40
1
 40
1
 10
521.195343
 20
299.809791
 30
0.0
 10
521.195343
 20
299.809791
 30
0.0
 10
526.284515
 20
292.772933
 30
0.0
 10
526.849665
 20
291.402744
 30
0.0
  0
SPLINE
  5
134
100
AcDbEntity
  8
Layer_1
 62
1
100
AcDbSpline
 70
8
 71
3
 72
8
 73
4
 74
0
 40
0
 40
0
 40
0
 40
0
 40
1
 40
1
 40
1
 40
1
 10
526.849665
 20
291.402744
 30
0.0
 10
526.931157
 20
291.205188
 30
0.0
 10
526.785107
 20
290.990347
 30
0.0
 10
526.571323
 20
290.990347
 30
0.0
  0
LWPOLYLINE
  5
135
100
AcDbEntity
  8
Layer_1
 62
1
100
AcDbPolyline
 90
2
 70
0
 10
513.695287
 20
299.809791
 30
0.0
 10
521.195343
 20
299.809791
 30
0.0
  0
LWPOLYLINE
  5
136
100
AcDbEntity
  8
Layer_1
 62
1
100
AcDbPolyline
 90
3
 70
0
 10
526.571323
 20
290.990347
 30
0.0
 10
524.278973
 20
290.990347
 30
0.0
 10
524.383748
 20
281.026139
 30
0.0
  0
SPLINE
  5
137
100
AcDbEntity
  8
Layer_1
 62
7
100
AcDbSpline
 70
8
 71
3
 72
8
 73
4
 74
0
 40
0
 40
0
 40
0
 40
0
 40
1
 40
1
 40
1
 40
1
 10
518.008313
 20
221.631768
 30
0.0
 10
518.556083
 20
221.631768
 30
0.0
 10
518.966058
 20
221.738565
 30
0.0
 10
519.238238
 20
221.952160
 30
0.0
  0
SPLINE
  5
138
100
AcDbEntity
  8
Layer_1
 62
7
100
AcDbSpline
 70
8
 71
3
 72
8
 73
4
 74
0
 40
0
 40
0
 40
0
 40
0
 40
1
 40
1
 40
1
 40
1
 10
519.238238
 20
221.952160
 30
0.0
 10
519.510394
 20
222.165756
 30
0.0
 10
519.646472
 20
222.486148
 30
0.0
 10
519.646472
 20
222.913339
 30
0.0
  0
SPLINE
  5
139
100
AcDbEntity
  8
Layer_1
 62
7
100
AcDbSpline
 70
8
 71
3
 72
8
 73
4
 74
0
 40
0
 40
0
 40
0
 40
0
 40
1
 40
1
 40
1
 40
1
 10
519.646472
 20
222.913339
 30
0.0
 10
519.646472
 20
223.426654
 30
0.0
 10
519.482830
 20
223.831455
 30
0.0
 10
519.155547
 20
224.127741
 30
0.0
  0
SPLINE
  5
13a
100
AcDbEntity
  8
Layer_1
 62
7
100
AcDbSpline
 70
8
 71
3
 72
8
 73
4
 74
0
 40
0
 40
0
 40
0
 40
0
 40
1
 40
1
 40
1
 40
1
 10
519.155547
 20
224.127741
 30
0.0
 10
518.828263
 20
224.424004
 30
0.0
 10
518.382117
 20
224.572135
 30
0.0
 10
517.817108
 20
224.572135
 30
0.0
  0
LWPOLYLINE
  5
13b
100
AcDbEntity
  8
Layer_1
 62
7
100
AcDbPolyline
 90
4
 70
0
 10
518.039322
 20
220.680926
 30
0.0
 10
514.546011
 20
220.680926
 30
0.0
 10
514.546011
 20
221.631768
 30
0.0
 10
518.008313
 20
221.631768
 30
0.0
  0
SPLINE
  5
13c
100
AcDbEntity
  8
Layer_1
 62
7
100
AcDbSpline
 70
8
 71
3
 72
8
 73
4
 74
0
 40
0
 40
0
 40
0
 40
0
 40
1
 40
1
 40
1
 40
1
 10
519.434594
 20
224.572135
 30
0.0
 10
519.782550
 20
224.344758
 30
0.0
 10
520.042653
 20
224.077764
 30
0.0
 10
520.214903
 20
223.771153
 30
0.0
  0
SPLINE
  5
13d
100
AcDbEntity
  8
Layer_1
 62
7
100
AcDbSpline
 70
8
 71
3
 72
8
 73
4
 74
0
 40
0
 40
0
 40
0
 40
0
 40
1
 40
1
 40
1
 40
1
 10
520.214903
 20
223.771153
 30
0.0
 10
520.387152
 20
223.461109
 30
0.0
 10
520.473277
 20
223.104544
 30
0.0
 10
520.473277
 20
222.701460
 30
0.0
  0
SPLINE
  5
13e
100
AcDbEntity
  8
Layer_1
 62
7
100
AcDbSpline
 70
8
 71
3
 72
8
 73
4
 74
0
 40
0
 40
0
 40
0
 40
0
 40
1
 40
1
 40
1
 40
1
 10
520.473277
 20
222.701460
 30
0.0
 10
520.473277
 20
222.036545
 30
0.0
 10
520.266573
 20
221.533566
 30
0.0
 10
519.853165
 20
221.192524
 30
0.0
  0
SPLINE
  5
13f
100
AcDbEntity
  8
Layer_1
 62
7
100
AcDbSpline
 70
8
 71
3
 72
8
 73
4
 74
0
 40
0
 40
0
 40
0
 40
0
 40
1
 40
1
 40
1
 40
1
 10
519.853165
 20
221.192524
 30
0.0
 10
519.443213
 20
220.851458
 30
0.0
 10
518.838599
 20
220.680926
 30
0.0
 10
518.039322
 20
220.680926
 30
0.0
  0
LWPOLYLINE
  5
140
100
AcDbEntity
  8
Layer_1
 62
7
100
AcDbPolyline
 90
6
 70
0
 10
517.817108
 20
224.572135
 30
0.0
 10
514.546011
 20
224.572135
 30
0.0
 10
514.546011
 20
225.528163
 30
0.0
 10
522.586875
 20
225.528163
 30
0.0
 10
522.586875
 20
224.572135
 30
0.0
 10
519.434594
 20
224.572135
 30
0.0
  0
LWPOLYLINE
  5
141
100
AcDbEntity
  8
Layer_1
 62
7
100
AcDbPolyline
 90
1
 70
1
 10
518.039322
 20
220.680926
 30
0.0
  0
SPLINE
  5
142
100
AcDbEntity
  8
Layer_1
 62
7
100
AcDbSpline
 70
8
 71
3
 72
8
 73
4
 74
0
 40
0
 40
0
 40
0
 40
0
 40
1
 40
1
 40
1
 40
1
 10
516.452881
 20
217.833551
 30
0.0
 10
515.980888
 20
217.833551
 30
0.0
 10
515.677710
 20
217.769815
 30
0.0
 10
515.543349
 20
217.642345
 30
0.0
  0
SPLINE
  5
143
100
AcDbEntity
  8
Layer_1
 62
7
100
AcDbSpline
 70
8
 71
3
 72
8
 73
4
 74
0
 40
0
 40
0
 40
0
 40
0
 40
1
 40
1
 40
1
 40
1
 10
515.543349
 20
217.642345
 30
0.0
 10
515.408988
 20
217.511417
 30
0.0
 10
515.341807
 20
217.247869
 30
0.0
 10
515.341807
 20
216.851699
 30
0.0
  0
LWPOLYLINE
  5
144
100
AcDbEntity
  8
Layer_1
 62
7
100
AcDbPolyline
 90
6
 70
0
 10
521.977063
 20
217.833551
 30
0.0
 10
520.333754
 20
217.833551
 30
0.0
 10
520.333754
 20
215.874999
 30
0.0
 10
519.594790
 20
215.874999
 30
0.0
 10
519.594790
 20
217.833551
 30
0.0
 10
516.452881
 20
217.833551
 30
0.0
  0
SPLINE
  5
145
100
AcDbEntity
  8
Layer_1
 62
7
100
AcDbSpline
 70
8
 71
3
 72
8
 73
4
 74
0
 40
0
 40
0
 40
0
 40
0
 40
1
 40
1
 40
1
 40
1
 10
514.546011
 20
216.851699
 30
0.0
 10
514.546011
 20
217.585501
 30
0.0
 10
514.682089
 20
218.091925
 30
0.0
 10
514.954245
 20
218.370972
 30
0.0
  0
SPLINE
  5
146
100
AcDbEntity
  8
Layer_1
 62
7
100
AcDbSpline
 70
8
 71
3
 72
8
 73
4
 74
0
 40
0
 40
0
 40
0
 40
0
 40
1
 40
1
 40
1
 40
1
 10
514.954245
 20
218.370972
 30
0.0
 10
515.229859
 20
218.650019
 30
0.0
 10
515.729404
 20
218.789543
 30
0.0
 10
516.452881
 20
218.789543
 30
0.0
  0
LWPOLYLINE
  5
147
100
AcDbEntity
  8
Layer_1
 62
7
100
AcDbPolyline
 90
4
 70
0
 10
515.341807
 20
216.851699
 30
0.0
 10
515.341807
 20
215.874999
 30
0.0
 10
514.546011
 20
215.874999
 30
0.0
 10
514.546011
 20
216.851699
 30
0.0
  0
LWPOLYLINE
  5
148
100
AcDbEntity
  8
Layer_1
 62
7
100
AcDbPolyline
 90
7
 70
0
 10
516.452881
 20
218.789543
 30
0.0
 10
519.594790
 20
218.789543
 30
0.0
 10
519.594790
 20
219.487196
 30
0.0
 10
520.333754
 20
219.487196
 30
0.0
 10
520.333754
 20
218.789543
 30
0.0
 10
521.977063
 20
218.789543
 30
0.0
 10
521.977063
 20
217.833551
 30
0.0
  0
SPLINE
  5
149
100
AcDbEntity
  8
Layer_1
 62
7
100
AcDbSpline
 70
8
 71
3
 72
8
 73
4
 74
0
 40
0
 40
0
 40
0
 40
0
 40
1
 40
1
 40
1
 40
1
 10
516.452881
 20
213.678746
 30
0.0
 10
515.980888
 20
213.678746
 30
0.0
 10
515.677710
 20
213.615010
 30
0.0
 10
515.543349
 20
213.487540
 30
0.0
  0
SPLINE
  5
14a
100
AcDbEntity
  8
Layer_1
 62
7
100
AcDbSpline
 70
8
 71
3
 72
8
 73
4
 74
0
 40
0
 40
0
 40
0
 40
0
 40
1
 40
1
 40
1
 40
1
 10
515.543349
 20
213.487540
 30
0.0
 10
515.408988
 20
213.356636
 30
0.0
 10
515.341807
 20
213.093087
 30
0.0
 10
515.341807
 20
212.696895
 30
0.0
  0
LWPOLYLINE
  5
14b
100
AcDbEntity
  8
Layer_1
 62
7
100
AcDbPolyline
 90
6
 70
0
 10
521.977063
 20
213.678746
 30
0.0
 10
520.333754
 20
213.678746
 30
0.0
 10
520.333754
 20
211.720229
 30
0.0
 10
519.594790
 20
211.720229
 30
0.0
 10
519.594790
 20
213.678746
 30
0.0
 10
516.452881
 20
213.678746
 30
0.0
  0
SPLINE
  5
14c
100
AcDbEntity
  8
Layer_1
 62
7
100
AcDbSpline
 70
8
 71
3
 72
8
 73
4
 74
0
 40
0
 40
0
 40
0
 40
0
 40
1
 40
1
 40
1
 40
1
 10
514.546011
 20
212.696895
 30
0.0
 10
514.546011
 20
213.430696
 30
0.0
 10
514.682089
 20
213.937132
 30
0.0
 10
514.954245
 20
214.216203
 30
0.0
  0
SPLINE
  5
14d
100
AcDbEntity
  8
Layer_1
 62
7
100
AcDbSpline
 70
8
 71
3
 72
8
 73
4
 74
0
 40
0
 40
0
 40
0
 40
0
 40
1
 40
1
 40
1
 40
1
 10
514.954245
 20
214.216203
 30
0.0
 10
515.229859
 20
214.495250
 30
0.0
 10
515.729404
 20
214.634773
 30
0.0
 10
516.452881
 20
214.634773
 30
0.0
  0
LWPOLYLINE
  5
14e
100
AcDbEntity
  8
Layer_1
 62
7
100
AcDbPolyline
 90
4
 70
0
 10
515.341807
 20
212.696895
 30
0.0
 10
515.341807
 20
211.720229
 30
0.0
 10
514.546011
 20
211.720229
 30
0.0
 10
514.546011
 20
212.696895
 30
0.0
  0
LWPOLYLINE
  5
14f
100
AcDbEntity
  8
Layer_1
 62
7
100
AcDbPolyline
 90
7
 70
0
 10
516.452881
 20
214.634773
 30
0.0
 10
519.594790
 20
214.634773
 30
0.0
 10
519.594790
 20
215.332391
 30
0.0
 10
520.333754
 20
215.332391
 30
0.0
 10
520.333754
 20
214.634773
 30
0.0
 10
521.977063
 20
214.634773
 30
0.0
 10
521.977063
 20
213.678746
 30
0.0
  0
SPLINE
  5
150
100
AcDbEntity
  8
Layer_1
 62
7
100
AcDbSpline
 70
8
 71
3
 72
8
 73
4
 74
0
 40
0
 40
0
 40
0
 40
0
 40
1
 40
1
 40
1
 40
1
 10
519.455266
 20
209.544649
 30
0.0
 10
519.799766
 20
209.344835
 30
0.0
 10
520.054706
 20
209.093340
 30
0.0
 10
520.220089
 20
208.790163
 30
0.0
  0
SPLINE
  5
151
100
AcDbEntity
  8
Layer_1
 62
7
100
AcDbSpline
 70
8
 71
3
 72
8
 73
4
 74
0
 40
0
 40
0
 40
0
 40
0
 40
1
 40
1
 40
1
 40
1
 10
520.220089
 20
208.790163
 30
0.0
 10
520.388881
 20
208.483552
 30
0.0
 10
520.473277
 20
208.118368
 30
0.0
 10
520.473277
 20
207.694612
 30
0.0
  0
SPLINE
  5
152
100
AcDbEntity
  8
Layer_1
 62
7
100
AcDbSpline
 70
8
 71
3
 72
8
 73
4
 74
0
 40
0
 40
0
 40
0
 40
0
 40
1
 40
1
 40
1
 40
1
 10
520.473277
 20
207.694612
 30
0.0
 10
520.473277
 20
206.991831
 30
0.0
 10
520.194230
 20
206.421672
 30
0.0
 10
519.636136
 20
205.984133
 30
0.0
  0
SPLINE
  5
153
100
AcDbEntity
  8
Layer_1
 62
7
100
AcDbSpline
 70
8
 71
3
 72
8
 73
4
 74
0
 40
0
 40
0
 40
0
 40
0
 40
1
 40
1
 40
1
 40
1
 10
519.636136
 20
205.984133
 30
0.0
 10
519.078018
 20
205.543161
 30
0.0
 10
518.344216
 20
205.322675
 30
0.0
 10
517.434732
 20
205.322675
 30
0.0
  0
SPLINE
  5
154
100
AcDbEntity
  8
Layer_1
 62
7
100
AcDbSpline
 70
8
 71
3
 72
8
 73
4
 74
0
 40
0
 40
0
 40
0
 40
0
 40
1
 40
1
 40
1
 40
1
 10
517.434732
 20
205.322675
 30
0.0
 10
516.525224
 20
205.322675
 30
0.0
 10
515.791411
 20
205.543161
 30
0.0
 10
515.233293
 20
205.984133
 30
0.0
  0
SPLINE
  5
155
100
AcDbEntity
  8
Layer_1
 62
7
100
AcDbSpline
 70
8
 71
3
 72
8
 73
4
 74
0
 40
0
 40
0
 40
0
 40
0
 40
1
 40
1
 40
1
 40
1
 10
515.233293
 20
205.984133
 30
0.0
 10
514.675198
 20
206.421672
 30
0.0
 10
514.396151
 20
206.991831
 30
0.0
 10
514.396151
 20
207.694612
 30
0.0
  0
SPLINE
  5
156
100
AcDbEntity
  8
Layer_1
 62
7
100
AcDbSpline
 70
8
 71
3
 72
8
 73
4
 74
0
 40
0
 40
0
 40
0
 40
0
 40
1
 40
1
 40
1
 40
1
 10
514.396151
 20
207.694612
 30
0.0
 10
514.396151
 20
208.118368
 30
0.0
 10
514.478830
 20
208.483552
 30
0.0
 10
514.644189
 20
208.790163
 30
0.0
  0
SPLINE
  5
157
100
AcDbEntity
  8
Layer_1
 62
7
100
AcDbSpline
 70
8
 71
3
 72
8
 73
4
 74
0
 40
0
 40
0
 40
0
 40
0
 40
1
 40
1
 40
1
 40
1
 10
514.644189
 20
208.790163
 30
0.0
 10
514.813005
 20
209.093340
 30
0.0
 10
515.069663
 20
209.344835
 30
0.0
 10
515.414162
 20
209.544649
 30
0.0
  0
LWPOLYLINE
  5
158
100
AcDbEntity
  8
Layer_1
 62
7
100
AcDbPolyline
 90
6
 70
0
 10
515.414162
 20
209.544649
 30
0.0
 10
512.344572
 20
209.544649
 30
0.0
 10
512.344572
 20
210.500641
 30
0.0
 10
520.333754
 20
210.500641
 30
0.0
 10
520.333754
 20
209.544649
 30
0.0
 10
519.455266
 20
209.544649
 30
0.0
  0
SPLINE
  5
159
100
AcDbEntity
  8
Layer_1
 62
7
100
AcDbSpline
 70
8
 71
3
 72
8
 73
4
 74
0
 40
0
 40
0
 40
0
 40
0
 40
1
 40
1
 40
1
 40
1
 10
517.434732
 20
206.309712
 30
0.0
 10
518.134078
 20
206.309712
 30
0.0
 10
518.681848
 20
206.454398
 30
0.0
 10
519.078041
 20
206.743770
 30
0.0
  0
SPLINE
  5
15a
100
AcDbEntity
  8
Layer_1
 62
7
100
AcDbSpline
 70
8
 71
3
 72
8
 73
4
 74
0
 40
0
 40
0
 40
0
 40
0
 40
1
 40
1
 40
1
 40
1
 10
519.078041
 20
206.743770
 30
0.0
 10
519.477668
 20
207.029708
 30
0.0
 10
519.677481
 20
207.424172
 30
0.0
 10
519.677481
 20
207.927163
 30
0.0
  0
SPLINE
  5
15b
100
AcDbEntity
  8
Layer_1
 62
7
100
AcDbSpline
 70
8
 71
3
 72
8
 73
4
 74
0
 40
0
 40
0
 40
0
 40
0
 40
1
 40
1
 40
1
 40
1
 10
519.677481
 20
207.927163
 30
0.0
 10
519.677481
 20
208.430153
 30
0.0
 10
519.477668
 20
208.826346
 30
0.0
 10
519.078041
 20
209.115742
 30
0.0
  0
SPLINE
  5
15c
100
AcDbEntity
  8
Layer_1
 62
7
100
AcDbSpline
 70
8
 71
3
 72
8
 73
4
 74
0
 40
0
 40
0
 40
0
 40
0
 40
1
 40
1
 40
1
 40
1
 10
519.078041
 20
209.115742
 30
0.0
 10
518.681848
 20
209.401680
 30
0.0
 10
518.134078
 20
209.544649
 30
0.0
 10
517.434732
 20
209.544649
 30
0.0
  0
SPLINE
  5
15d
100
AcDbEntity
  8
Layer_1
 62
7
100
AcDbSpline
 70
8
 71
3
 72
8
 73
4
 74
0
 40
0
 40
0
 40
0
 40
0
 40
1
 40
1
 40
1
 40
1
 10
517.434732
 20
209.544649
 30
0.0
 10
516.735362
 20
209.544649
 30
0.0
 10
516.185863
 20
209.401680
 30
0.0
 10
515.786237
 20
209.115742
 30
0.0
  0
SPLINE
  5
15e
100
AcDbEntity
  8
Layer_1
 62
7
100
AcDbSpline
 70
8
 71
3
 72
8
 73
4
 74
0
 40
0
 40
0
 40
0
 40
0
 40
1
 40
1
 40
1
 40
1
 10
515.786237
 20
209.115742
 30
0.0
 10
515.390044
 20
208.826346
 30
0.0
 10
515.191947
 20
208.430153
 30
0.0
 10
515.191947
 20
207.927163
 30
0.0
  0
SPLINE
  5
15f
100
AcDbEntity
  8
Layer_1
 62
7
100
AcDbSpline
 70
8
 71
3
 72
8
 73
4
 74
0
 40
0
 40
0
 40
0
 40
0
 40
1
 40
1
 40
1
 40
1
 10
515.191947
 20
207.927163
 30
0.0
 10
515.191947
 20
207.424172
 30
0.0
 10
515.390044
 20
207.029708
 30
0.0
 10
515.786237
 20
206.743770
 30
0.0
  0
SPLINE
  5
160
100
AcDbEntity
  8
Layer_1
 62
7
100
AcDbSpline
 70
8
 71
3
 72
8
 73
4
 74
0
 40
0
 40
0
 40
0
 40
0
 40
1
 40
1
 40
1
 40
1
 10
515.786237
 20
206.743770
 30
0.0
 10
516.185863
 20
206.454398
 30
0.0
 10
516.735362
 20
206.309712
 30
0.0
 10
517.434732
 20
206.309712
 30
0.0
  0
LWPOLYLINE
  5
161
100
AcDbEntity
  8
Layer_1
 62
7
100
AcDbPolyline
 90
1
 70
1
 10
515.414162
 20
209.544649
 30
0.0
  0
LWPOLYLINE
  5
162
100
AcDbEntity
  8
Layer_1
 62
7
100
AcDbPolyline
 90
1
 70
1
 10
517.434732
 20
206.309712
 30
0.0
  0
SPLINE
  5
163
100
AcDbEntity
  8
Layer_1
 62
7
100
AcDbSpline
 70
8
 71
3
 72
8
 73
4
 74
0
 40
0
 40
0
 40
0
 40
0
 40
1
 40
1
 40
1
 40
1
 10
519.264061
 20
200.056832
 30
0.0
 10
519.401856
 20
200.325554
 30
0.0
 10
519.505208
 20
200.604613
 30
0.0
 10
519.574117
 20
200.894009
 30
0.0
  0
SPLINE
  5
164
100
AcDbEntity
  8
Layer_1
 62
7
100
AcDbSpline
 70
8
 71
3
 72
8
 73
4
 74
0
 40
0
 40
0
 40
0
 40
0
 40
1
 40
1
 40
1
 40
1
 10
519.574117
 20
200.894009
 30
0.0
 10
519.643027
 20
201.183404
 30
0.0
 10
519.677481
 20
201.483124
 30
0.0
 10
519.677481
 20
201.793169
 30
0.0
  0
SPLINE
  5
165
100
AcDbEntity
  8
Layer_1
 62
7
100
AcDbSpline
 70
8
 71
3
 72
8
 73
4
 74
0
 40
0
 40
0
 40
0
 40
0
 40
1
 40
1
 40
1
 40
1
 10
519.677481
 20
201.793169
 30
0.0
 10
519.677481
 20
202.265162
 30
0.0
 10
519.605126
 20
202.620009
 30
0.0
 10
519.460417
 20
202.857711
 30
0.0
  0
SPLINE
  5
166
100
AcDbEntity
  8
Layer_1
 62
7
100
AcDbSpline
 70
8
 71
3
 72
8
 73
4
 74
0
 40
0
 40
0
 40
0
 40
0
 40
1
 40
1
 40
1
 40
1
 10
519.460417
 20
202.857711
 30
0.0
 10
519.315731
 20
203.091979
 30
0.0
 10
519.098690
 20
203.209113
 30
0.0
 10
518.809295
 20
203.209113
 30
0.0
  0
SPLINE
  5
167
100
AcDbEntity
  8
Layer_1
 62
7
100
AcDbSpline
 70
8
 71
3
 72
8
 73
4
 74
0
 40
0
 40
0
 40
0
 40
0
 40
1
 40
1
 40
1
 40
1
 10
518.809295
 20
203.209113
 30
0.0
 10
518.588809
 20
203.209113
 30
0.0
 10
518.414843
 20
203.124705
 30
0.0
 10
518.287396
 20
202.955889
 30
0.0
  0
SPLINE
  5
168
100
AcDbEntity
  8
Layer_1
 62
7
100
AcDbSpline
 70
8
 71
3
 72
8
 73
4
 74
0
 40
0
 40
0
 40
0
 40
0
 40
1
 40
1
 40
1
 40
1
 10
518.287396
 20
202.955889
 30
0.0
 10
518.163359
 20
202.787073
 30
0.0
 10
518.044496
 20
202.447736
 30
0.0
 10
517.930808
 20
201.937878
 30
0.0
  0
LWPOLYLINE
  5
169
100
AcDbEntity
  8
Layer_1
 62
7
100
AcDbPolyline
 90
2
 70
0
 10
520.163221
 20
200.056832
 30
0.0
 10
519.264061
 20
200.056832
 30
0.0
  0
SPLINE
  5
16a
100
AcDbEntity
  8
Layer_1
 62
7
100
AcDbSpline
 70
8
 71
3
 72
8
 73
4
 74
0
 40
0
 40
0
 40
0
 40
0
 40
1
 40
1
 40
1
 40
1
 10
517.858453
 20
201.612299
 30
0.0
 10
517.713767
 20
200.937059
 30
0.0
 10
517.508792
 20
200.458199
 30
0.0
 10
517.243526
 20
200.175718
 30
0.0
  0
SPLINE
  5
16b
100
AcDbEntity
  8
Layer_1
 62
7
100
AcDbSpline
 70
8
 71
3
 72
8
 73
4
 74
0
 40
0
 40
0
 40
0
 40
0
 40
1
 40
1
 40
1
 40
1
 10
517.243526
 20
200.175718
 30
0.0
 10
516.981695
 20
199.889756
 30
0.0
 10
516.614794
 20
199.746775
 30
0.0
 10
516.142824
 20
199.746775
 30
0.0
  0
SPLINE
  5
16c
100
AcDbEntity
  8
Layer_1
 62
7
100
AcDbSpline
 70
8
 71
3
 72
8
 73
4
 74
0
 40
0
 40
0
 40
0
 40
0
 40
1
 40
1
 40
1
 40
1
 10
516.142824
 20
199.746775
 30
0.0
 10
515.605379
 20
199.746775
 30
0.0
 10
515.179906
 20
199.960371
 30
0.0
 10
514.866404
 20
200.387561
 30
0.0
  0
SPLINE
  5
16d
100
AcDbEntity
  8
Layer_1
 62
7
100
AcDbSpline
 70
8
 71
3
 72
8
 73
4
 74
0
 40
0
 40
0
 40
0
 40
0
 40
1
 40
1
 40
1
 40
1
 10
514.866404
 20
200.387561
 30
0.0
 10
514.552902
 20
200.811318
 30
0.0
 10
514.396151
 20
201.395271
 30
0.0
 10
514.396151
 20
202.139420
 30
0.0
  0
SPLINE
  5
16e
100
AcDbEntity
  8
Layer_1
 62
7
100
AcDbSpline
 70
8
 71
3
 72
8
 73
4
 74
0
 40
0
 40
0
 40
0
 40
0
 40
1
 40
1
 40
1
 40
1
 10
514.396151
 20
202.139420
 30
0.0
 10
514.396151
 20
202.449465
 30
0.0
 10
514.427160
 20
202.773303
 30
0.0
 10
514.489179
 20
203.110935
 30
0.0
  0
SPLINE
  5
16f
100
AcDbEntity
  8
Layer_1
 62
7
100
AcDbSpline
 70
8
 71
3
 72
8
 73
4
 74
0
 40
0
 40
0
 40
0
 40
0
 40
1
 40
1
 40
1
 40
1
 10
514.489179
 20
203.110935
 30
0.0
 10
514.547740
 20
203.445109
 30
0.0
 10
514.637310
 20
203.798228
 30
0.0
 10
514.757889
 20
204.170291
 30
0.0
  0
LWPOLYLINE
  5
170
100
AcDbEntity
  8
Layer_1
 62
7
100
AcDbPolyline
 90
2
 70
0
 10
517.930808
 20
201.937878
 30
0.0
 10
517.858453
 20
201.612299
 30
0.0
  0
SPLINE
  5
171
100
AcDbEntity
  8
Layer_1
 62
7
100
AcDbSpline
 70
8
 71
3
 72
8
 73
4
 74
0
 40
0
 40
0
 40
0
 40
0
 40
1
 40
1
 40
1
 40
1
 10
515.739740
 20
204.170291
 30
0.0
 10
515.557143
 20
203.818901
 30
0.0
 10
515.419336
 20
203.472673
 30
0.0
 10
515.326320
 20
203.131607
 30
0.0
  0
SPLINE
  5
172
100
AcDbEntity
  8
Layer_1
 62
7
100
AcDbSpline
 70
8
 71
3
 72
8
 73
4
 74
0
 40
0
 40
0
 40
0
 40
0
 40
1
 40
1
 40
1
 40
1
 10
515.326320
 20
203.131607
 30
0.0
 10
515.236738
 20
202.790542
 30
0.0
 10
515.191947
 20
202.452922
 30
0.0
 10
515.191947
 20
202.118747
 30
0.0
  0
SPLINE
  5
173
100
AcDbEntity
  8
Layer_1
 62
7
100
AcDbSpline
 70
8
 71
3
 72
8
 73
4
 74
0
 40
0
 40
0
 40
0
 40
0
 40
1
 40
1
 40
1
 40
1
 10
515.191947
 20
202.118747
 30
0.0
 10
515.191947
 20
201.670884
 30
0.0
 10
515.267747
 20
201.326373
 30
0.0
 10
515.419348
 20
201.085214
 30
0.0
  0
SPLINE
  5
174
100
AcDbEntity
  8
Layer_1
 62
7
100
AcDbSpline
 70
8
 71
3
 72
8
 73
4
 74
0
 40
0
 40
0
 40
0
 40
0
 40
1
 40
1
 40
1
 40
1
 10
515.419348
 20
201.085214
 30
0.0
 10
515.574358
 20
200.844055
 30
0.0
 10
515.791399
 20
200.723476
 30
0.0
 10
516.070470
 20
200.723476
 30
0.0
  0
SPLINE
  5
175
100
AcDbEntity
  8
Layer_1
 62
7
100
AcDbSpline
 70
8
 71
3
 72
8
 73
4
 74
0
 40
0
 40
0
 40
0
 40
0
 40
1
 40
1
 40
1
 40
1
 10
516.070470
 20
200.723476
 30
0.0
 10
516.328844
 20
200.723476
 30
0.0
 10
516.526929
 20
200.811329
 30
0.0
 10
516.664724
 20
200.987036
 30
0.0
  0
SPLINE
  5
176
100
AcDbEntity
  8
Layer_1
 62
7
100
AcDbSpline
 70
8
 71
3
 72
8
 73
4
 74
0
 40
0
 40
0
 40
0
 40
0
 40
1
 40
1
 40
1
 40
1
 10
516.664724
 20
200.987036
 30
0.0
 10
516.802542
 20
201.159286
 30
0.0
 10
516.935187
 20
201.539968
 30
0.0
 10
517.062657
 20
202.129084
 30
0.0
  0
LWPOLYLINE
  5
177
100
AcDbEntity
  8
Layer_1
 62
7
100
AcDbPolyline
 90
2
 70
0
 10
514.757889
 20
204.170291
 30
0.0
 10
515.739740
 20
204.170291
 30
0.0
  0
SPLINE
  5
178
100
AcDbEntity
  8
Layer_1
 62
7
100
AcDbSpline
 70
8
 71
3
 72
8
 73
4
 74
0
 40
0
 40
0
 40
0
 40
0
 40
1
 40
1
 40
1
 40
1
 10
517.140162
 20
202.459813
 30
0.0
 10
517.264176
 20
203.048905
 30
0.0
 10
517.453652
 20
203.474366
 30
0.0
 10
517.708593
 20
203.736198
 30
0.0
  0
SPLINE
  5
179
100
AcDbEntity
  8
Layer_1
 62
7
100
AcDbSpline
 70
8
 71
3
 72
8
 73
4
 74
0
 40
0
 40
0
 40
0
 40
0
 40
1
 40
1
 40
1
 40
1
 10
517.708593
 20
203.736198
 30
0.0
 10
517.966991
 20
203.998030
 30
0.0
 10
518.320122
 20
204.128946
 30
0.0
 10
518.767985
 20
204.128946
 30
0.0
  0
SPLINE
  5
17a
100
AcDbEntity
  8
Layer_1
 62
7
100
AcDbSpline
 70
8
 71
3
 72
8
 73
4
 74
0
 40
0
 40
0
 40
0
 40
0
 40
1
 40
1
 40
1
 40
1
 10
518.767985
 20
204.128946
 30
0.0
 10
519.312297
 20
204.128946
 30
0.0
 10
519.732597
 20
203.936023
 30
0.0
 10
520.028883
 20
203.550178
 30
0.0
  0
SPLINE
  5
17b
100
AcDbEntity
  8
Layer_1
 62
7
100
AcDbSpline
 70
8
 71
3
 72
8
 73
4
 74
0
 40
0
 40
0
 40
0
 40
0
 40
1
 40
1
 40
1
 40
1
 10
520.028883
 20
203.550178
 30
0.0
 10
520.325146
 20
203.164334
 30
0.0
 10
520.473277
 20
202.616564
 30
0.0
 10
520.473277
 20
201.906869
 30
0.0
  0
SPLINE
  5
17c
100
AcDbEntity
  8
Layer_1
 62
7
100
AcDbSpline
 70
8
 71
3
 72
8
 73
4
 74
0
 40
0
 40
0
 40
0
 40
0
 40
1
 40
1
 40
1
 40
1
 10
520.473277
 20
201.906869
 30
0.0
 10
520.473277
 20
201.555455
 30
0.0
 10
520.447442
 20
201.224726
 30
0.0
 10
520.395772
 20
200.914681
 30
0.0
  0
SPLINE
  5
17d
100
AcDbEntity
  8
Layer_1
 62
7
100
AcDbSpline
 70
8
 71
3
 72
8
 73
4
 74
0
 40
0
 40
0
 40
0
 40
0
 40
1
 40
1
 40
1
 40
1
 10
520.395772
 20
200.914681
 30
0.0
 10
520.344102
 20
200.604613
 30
0.0
 10
520.266585
 20
200.318663
 30
0.0
 10
520.163221
 20
200.056832
 30
0.0
  0
LWPOLYLINE
  5
17e
100
AcDbEntity
  8
Layer_1
 62
7
100
AcDbPolyline
 90
2
 70
0
 10
517.062657
 20
202.129084
 30
0.0
 10
517.140162
 20
202.459813
 30
0.0
  0
LWPOLYLINE
  5
17f
100
AcDbEntity
  8
Layer_1
 62
7
100
AcDbPolyline
 90
1
 70
1
 10
520.163221
 20
200.056832
 30
0.0
  0
LWPOLYLINE
  5
180
100
AcDbEntity
  8
Layer_1
 62
7
100
AcDbPolyline
 90
4
 70
1
 10
515.858591
 20
197.984615
 30
0.0
 10
515.858591
 20
196.894250
 30
0.0
 10
514.546011
 20
196.894250
 30
0.0
 10
514.546011
 20
197.984615
 30
0.0
  0
LWPOLYLINE
  5
181
100
AcDbEntity
  8
Layer_1
 62
7
100
AcDbPolyline
 90
4
 70
1
 10
520.018547
 20
197.984615
 30
0.0
 10
520.018547
 20
196.894250
 30
0.0
 10
518.705967
 20
196.894250
 30
0.0
 10
518.705967
 20
197.984615
 30
0.0
  0
LWPOLYLINE
  5
182
100
AcDbEntity
  8
Layer_1
 62
7
100
AcDbPolyline
 90
4
 70
1
 10
522.261296
 20
192.961659
 30
0.0
 10
522.261296
 20
192.083172
 30
0.0
 10
513.564160
 20
194.770351
 30
0.0
 10
513.564160
 20
195.648838
 30
0.0
  0
LWPOLYLINE
  5
183
100
AcDbEntity
  8
Layer_1
 62
7
100
AcDbPolyline
 90
4
 70
1
 10
522.261296
 20
189.385657
 30
0.0
 10
522.261296
 20
188.507170
 30
0.0
 10
513.564160
 20
191.194349
 30
0.0
 10
513.564160
 20
192.072836
 30
0.0
  0
LWPOLYLINE
  5
184
100
AcDbEntity
  8
Layer_1
 62
7
100
AcDbPolyline
 90
11
 70
1
 10
522.586875
 20
187.535655
 30
0.0
 10
522.586875
 20
186.579627
 30
0.0
 10
517.837780
 20
186.579627
 30
0.0
 10
520.333754
 20
183.742588
 30
0.0
 10
520.333754
 20
182.528186
 30
0.0
 10
517.625937
 20
185.597776
 30
0.0
 10
514.546011
 20
182.398999
 30
0.0
 10
514.546011
 20
183.639260
 30
0.0
 10
517.372713
 20
186.579627
 30
0.0
 10
514.546011
 20
186.579627
 30
0.0
 10
514.546011
 20
187.535655
 30
0.0
  0
LWPOLYLINE
  5
185
100
AcDbEntity
  8
Layer_1
 62
7
100
AcDbPolyline
 90
4
 70
1
 10
520.333754
 20
181.360315
 30
0.0
 10
520.333754
 20
180.409474
 30
0.0
 10
514.546011
 20
180.409474
 30
0.0
 10
514.546011
 20
181.360315
 30
0.0
  0
LWPOLYLINE
  5
186
100
AcDbEntity
  8
Layer_1
 62
7
100
AcDbPolyline
 90
4
 70
1
 10
522.586875
 20
181.360315
 30
0.0
 10
522.586875
 20
180.409474
 30
0.0
 10
521.382809
 20
180.409474
 30
0.0
 10
521.382809
 20
181.360315
 30
0.0
  0
LWPOLYLINE
  5
187
100
AcDbEntity
  8
Layer_1
 62
7
100
AcDbPolyline
 90
11
 70
1
 10
522.586875
 20
178.461258
 30
0.0
 10
522.586875
 20
177.505266
 30
0.0
 10
517.837780
 20
177.505266
 30
0.0
 10
520.333754
 20
174.668227
 30
0.0
 10
520.333754
 20
173.453825
 30
0.0
 10
517.625937
 20
176.523415
 30
0.0
 10
514.546011
 20
173.324638
 30
0.0
 10
514.546011
 20
174.564863
 30
0.0
 10
517.372713
 20
177.505266
 30
0.0
 10
514.546011
 20
177.505266
 30
0.0
 10
514.546011
 20
178.461258
 30
0.0
  0
LWPOLYLINE
  5
188
100
AcDbEntity
  8
Layer_1
 62
7
100
AcDbPolyline
 90
4
 70
1
 10
515.858591
 20
172.151581
 30
0.0
 10
515.858591
 20
171.061215
 30
0.0
 10
514.546011
 20
171.061215
 30
0.0
 10
514.546011
 20
172.151581
 30
0.0
  0
SPLINE
  5
189
100
AcDbEntity
  8
Layer_1
 62
7
100
AcDbSpline
 70
8
 71
3
 72
8
 73
4
 74
0
 40
0
 40
0
 40
0
 40
0
 40
1
 40
1
 40
1
 40
1
 10
516.452881
 20
167.976103
 30
0.0
 10
515.980888
 20
167.976103
 30
0.0
 10
515.677710
 20
167.912368
 30
0.0
 10
515.543349
 20
167.784898
 30
0.0
  0
SPLINE
  5
18a
100
AcDbEntity
  8
Layer_1
 62
7
100
AcDbSpline
 70
8
 71
3
 72
8
 73
4
 74
0
 40
0
 40
0
 40
0
 40
0
 40
1
 40
1
 40
1
 40
1
 10
515.543349
 20
167.784898
 30
0.0
 10
515.408988
 20
167.653994
 30
0.0
 10
515.341807
 20
167.390445
 30
0.0
 10
515.341807
 20
166.994252
 30
0.0
  0
LWPOLYLINE
  5
18b
100
AcDbEntity
  8
Layer_1
 62
7
100
AcDbPolyline
 90
6
 70
0
 10
521.977063
 20
167.976103
 30
0.0
 10
520.333754
 20
167.976103
 30
0.0
 10
520.333754
 20
166.017587
 30
0.0
 10
519.594790
 20
166.017587
 30
0.0
 10
519.594790
 20
167.976103
 30
0.0
 10
516.452881
 20
167.976103
 30
0.0
  0
SPLINE
  5
18c
100
AcDbEntity
  8
Layer_1
 62
7
100
AcDbSpline
 70
8
 71
3
 72
8
 73
4
 74
0
 40
0
 40
0
 40
0
 40
0
 40
1
 40
1
 40
1
 40
1
 10
514.546011
 20
166.994252
 30
0.0
 10
514.546011
 20
167.728077
 30
0.0
 10
514.682089
 20
168.234513
 30
0.0
 10
514.954245
 20
168.513560
 30
0.0
  0
SPLINE
  5
18d
100
AcDbEntity
  8
Layer_1
 62
7
100
AcDbSpline
 70
8
 71
3
 72
8
 73
4
 74
0
 40
0
 40
0
 40
0
 40
0
 40
1
 40
1
 40
1
 40
1
 10
514.954245
 20
168.513560
 30
0.0
 10
515.229859
 20
168.792607
 30
0.0
 10
515.729404
 20
168.932131
 30
0.0
 10
516.452881
 20
168.932131
 30
0.0
  0
LWPOLYLINE
  5
18e
100
AcDbEntity
  8
Layer_1
 62
7
100
AcDbPolyline
 90
4
 70
0
 10
515.341807
 20
166.994252
 30
0.0
 10
515.341807
 20
166.017587
 30
0.0
 10
514.546011
 20
166.017587
 30
0.0
 10
514.546011
 20
166.994252
 30
0.0
  0
SPLINE
  5
18f
100
AcDbEntity
  8
Layer_1
 62
7
100
AcDbSpline
 70
8
 71
3
 72
8
 73
4
 74
0
 40
0
 40
0
 40
0
 40
0
 40
1
 40
1
 40
1
 40
1
 10
519.667145
 20
162.519090
 30
0.0
 10
519.667145
 20
163.028971
 30
0.0
 10
519.467331
 20
163.432043
 30
0.0
 10
519.067705
 20
163.728306
 30
0.0
  0
SPLINE
  5
190
100
AcDbEntity
  8
Layer_1
 62
7
100
AcDbSpline
 70
8
 71
3
 72
8
 73
4
 74
0
 40
0
 40
0
 40
0
 40
0
 40
1
 40
1
 40
1
 40
1
 10
519.067705
 20
163.728306
 30
0.0
 10
518.671512
 20
164.024592
 30
0.0
 10
518.127188
 20
164.172736
 30
0.0
 10
517.434732
 20
164.172736
 30
0.0
  0
SPLINE
  5
191
100
AcDbEntity
  8
Layer_1
 62
7
100
AcDbSpline
 70
8
 71
3
 72
8
 73
4
 74
0
 40
0
 40
0
 40
0
 40
0
 40
1
 40
1
 40
1
 40
1
 10
517.434732
 20
164.172736
 30
0.0
 10
516.742253
 20
164.172736
 30
0.0
 10
516.196200
 20
164.026321
 30
0.0
 10
515.796573
 20
163.733492
 30
0.0
  0
SPLINE
  5
192
100
AcDbEntity
  8
Layer_1
 62
7
100
AcDbSpline
 70
8
 71
3
 72
8
 73
4
 74
0
 40
0
 40
0
 40
0
 40
0
 40
1
 40
1
 40
1
 40
1
 10
515.796573
 20
163.733492
 30
0.0
 10
515.400380
 20
163.437206
 30
0.0
 10
515.202284
 20
163.032405
 30
0.0
 10
515.202284
 20
162.519090
 30
0.0
  0
SPLINE
  5
193
100
AcDbEntity
  8
Layer_1
 62
7
100
AcDbSpline
 70
8
 71
3
 72
8
 73
4
 74
0
 40
0
 40
0
 40
0
 40
0
 40
1
 40
1
 40
1
 40
1
 10
515.202284
 20
162.519090
 30
0.0
 10
515.202284
 20
162.012666
 30
0.0
 10
515.402109
 20
161.611310
 30
0.0
 10
515.801759
 20
161.315024
 30
0.0
  0
SPLINE
  5
194
100
AcDbEntity
  8
Layer_1
 62
7
100
AcDbSpline
 70
8
 71
3
 72
8
 73
4
 74
0
 40
0
 40
0
 40
0
 40
0
 40
1
 40
1
 40
1
 40
1
 10
515.801759
 20
161.315024
 30
0.0
 10
516.201385
 20
161.018738
 30
0.0
 10
516.745710
 20
160.870595
 30
0.0
 10
517.434732
 20
160.870595
 30
0.0
  0
SPLINE
  5
195
100
AcDbEntity
  8
Layer_1
 62
7
100
AcDbSpline
 70
8
 71
3
 72
8
 73
4
 74
0
 40
0
 40
0
 40
0
 40
0
 40
1
 40
1
 40
1
 40
1
 10
517.434732
 20
160.870595
 30
0.0
 10
518.120297
 20
160.870595
 30
0.0
 10
518.662892
 20
161.018738
 30
0.0
 10
519.062519
 20
161.315024
 30
0.0
  0
SPLINE
  5
196
100
AcDbEntity
  8
Layer_1
 62
7
100
AcDbSpline
 70
8
 71
3
 72
8
 73
4
 74
0
 40
0
 40
0
 40
0
 40
0
 40
1
 40
1
 40
1
 40
1
 10
519.062519
 20
161.315024
 30
0.0
 10
519.465603
 20
161.611310
 30
0.0
 10
519.667145
 20
162.012666
 30
0.0
 10
519.667145
 20
162.519090
 30
0.0
  0
LWPOLYLINE
  5
197
100
AcDbEntity
  8
Layer_1
 62
7
100
AcDbPolyline
 90
7
 70
0
 10
516.452881
 20
168.932131
 30
0.0
 10
519.594790
 20
168.932131
 30
0.0
 10
519.594790
 20
169.629749
 30
0.0
 10
520.333754
 20
169.629749
 30
0.0
 10
520.333754
 20
168.932131
 30
0.0
 10
521.977063
 20
168.932131
 30
0.0
 10
521.977063
 20
167.976103
 30
0.0
  0
SPLINE
  5
198
100
AcDbEntity
  8
Layer_1
 62
7
100
AcDbSpline
 70
8
 71
3
 72
8
 73
4
 74
0
 40
0
 40
0
 40
0
 40
0
 40
1
 40
1
 40
1
 40
1
 10
520.473277
 20
162.519090
 30
0.0
 10
520.473277
 20
161.692273
 30
0.0
 10
520.204566
 20
161.042868
 30
0.0
 10
519.667145
 20
160.570875
 30
0.0
  0
SPLINE
  5
199
100
AcDbEntity
  8
Layer_1
 62
7
100
AcDbSpline
 70
8
 71
3
 72
8
 73
4
 74
0
 40
0
 40
0
 40
0
 40
0
 40
1
 40
1
 40
1
 40
1
 10
519.667145
 20
160.570875
 30
0.0
 10
519.129700
 20
160.098905
 30
0.0
 10
518.385562
 20
159.862920
 30
0.0
 10
517.434732
 20
159.862920
 30
0.0
  0
SPLINE
  5
19a
100
AcDbEntity
  8
Layer_1
 62
7
100
AcDbSpline
 70
8
 71
3
 72
8
 73
4
 74
0
 40
0
 40
0
 40
0
 40
0
 40
1
 40
1
 40
1
 40
1
 10
517.434732
 20
159.862920
 30
0.0
 10
516.487312
 20
159.862920
 30
0.0
 10
515.743162
 20
160.098905
 30
0.0
 10
515.202284
 20
160.570875
 30
0.0
  0
SPLINE
  5
19b
100
AcDbEntity
  8
Layer_1
 62
7
100
AcDbSpline
 70
8
 71
3
 72
8
 73
4
 74
0
 40
0
 40
0
 40
0
 40
0
 40
1
 40
1
 40
1
 40
1
 10
515.202284
 20
160.570875
 30
0.0
 10
514.664862
 20
161.042868
 30
0.0
 10
514.396151
 20
161.692273
 30
0.0
 10
514.396151
 20
162.519090
 30
0.0
  0
SPLINE
  5
19c
100
AcDbEntity
  8
Layer_1
 62
7
100
AcDbSpline
 70
8
 71
3
 72
8
 73
4
 74
0
 40
0
 40
0
 40
0
 40
0
 40
1
 40
1
 40
1
 40
1
 10
514.396151
 20
162.519090
 30
0.0
 10
514.396151
 20
163.349364
 30
0.0
 10
514.664862
 20
164.000486
 30
0.0
 10
515.202284
 20
164.472456
 30
0.0
  0
SPLINE
  5
19d
100
AcDbEntity
  8
Layer_1
 62
7
100
AcDbSpline
 70
8
 71
3
 72
8
 73
4
 74
0
 40
0
 40
0
 40
0
 40
0
 40
1
 40
1
 40
1
 40
1
 10
515.202284
 20
164.472456
 30
0.0
 10
515.743162
 20
164.940991
 30
0.0
 10
516.487312
 20
165.175259
 30
0.0
 10
517.434732
 20
165.175259
 30
0.0
  0
SPLINE
  5
19e
100
AcDbEntity
  8
Layer_1
 62
7
100
AcDbSpline
 70
8
 71
3
 72
8
 73
4
 74
0
 40
0
 40
0
 40
0
 40
0
 40
1
 40
1
 40
1
 40
1
 10
517.434732
 20
165.175259
 30
0.0
 10
518.385562
 20
165.175259
 30
0.0
 10
519.129700
 20
164.940991
 30
0.0
 10
519.667145
 20
164.472456
 30
0.0
  0
SPLINE
  5
19f
100
AcDbEntity
  8
Layer_1
 62
7
100
AcDbSpline
 70
8
 71
3
 72
8
 73
4
 74
0
 40
0
 40
0
 40
0
 40
0
 40
1
 40
1
 40
1
 40
1
 10
519.667145
 20
164.472456
 30
0.0
 10
520.204566
 20
164.000486
 30
0.0
 10
520.473277
 20
163.349364
 30
0.0
 10
520.473277
 20
162.519090
 30
0.0
  0
LWPOLYLINE
  5
1a0
100
AcDbEntity
  8
Layer_1
 62
7
100
AcDbPolyline
 90
1
 70
1
 10
519.667145
 20
162.519090
 30
0.0
  0
LWPOLYLINE
  5
1a1
100
AcDbEntity
  8
Layer_1
 62
7
100
AcDbPolyline
 90
1
 70
1
 10
520.473277
 20
162.519090
 30
0.0
  0
LWPOLYLINE
  5
1a2
100
AcDbEntity
  8
Layer_1
 62
7
100
AcDbPolyline
 90
4
 70
1
 10
522.261296
 20
156.602125
 30
0.0
 10
522.261296
 20
155.723637
 30
0.0
 10
513.564160
 20
158.410816
 30
0.0
 10
513.564160
 20
159.289303
 30
0.0
  0
SPLINE
  5
1a3
100
AcDbEntity
  8
Layer_1
 62
7
100
AcDbSpline
 70
8
 71
3
 72
8
 73
4
 74
0
 40
0
 40
0
 40
0
 40
0
 40
1
 40
1
 40
1
 40
1
 10
517.212517
 20
154.137161
 30
0.0
 10
516.557950
 20
154.095815
 30
0.0
 10
516.058405
 20
153.899447
 30
0.0
 10
515.713882
 20
153.548057
 30
0.0
  0
SPLINE
  5
1a4
100
AcDbEntity
  8
Layer_1
 62
7
100
AcDbSpline
 70
8
 71
3
 72
8
 73
4
 74
0
 40
0
 40
0
 40
0
 40
0
 40
1
 40
1
 40
1
 40
1
 10
515.713882
 20
153.548057
 30
0.0
 10
515.372816
 20
153.193210
 30
0.0
 10
515.202284
 20
152.700567
 30
0.0
 10
515.202284
 20
152.070130
 30
0.0
  0
SPLINE
  5
1a5
100
AcDbEntity
  8
Layer_1
 62
7
100
AcDbSpline
 70
8
 71
3
 72
8
 73
4
 74
0
 40
0
 40
0
 40
0
 40
0
 40
1
 40
1
 40
1
 40
1
 10
515.202284
 20
152.070130
 30
0.0
 10
515.202284
 20
151.704934
 30
0.0
 10
515.247075
 20
151.351804
 30
0.0
 10
515.336657
 20
151.010738
 30
0.0
  0
SPLINE
  5
1a6
100
AcDbEntity
  8
Layer_1
 62
7
100
AcDbSpline
 70
8
 71
3
 72
8
 73
4
 74
0
 40
0
 40
0
 40
0
 40
0
 40
1
 40
1
 40
1
 40
1
 10
515.336657
 20
151.010738
 30
0.0
 10
515.426239
 20
150.666239
 30
0.0
 10
515.560600
 20
150.325173
 30
0.0
 10
515.739740
 20
149.987541
 30
0.0
  0
LWPOLYLINE
  5
1a7
100
AcDbEntity
  8
Layer_1
 62
7
100
AcDbPolyline
 90
3
 70
0
 10
517.677584
 20
149.765327
 30
0.0
 10
517.212517
 20
149.765327
 30
0.0
 10
517.212517
 20
154.137161
 30
0.0
  0
SPLINE
  5
1a8
100
AcDbEntity
  8
Layer_1
 62
7
100
AcDbSpline
 70
8
 71
3
 72
8
 73
4
 74
0
 40
0
 40
0
 40
0
 40
0
 40
1
 40
1
 40
1
 40
1
 10
514.840545
 20
149.987541
 30
0.0
 10
514.695859
 20
150.328607
 30
0.0
 10
514.585616
 20
150.678292
 30
0.0
 10
514.509816
 20
151.036597
 30
0.0
  0
SPLINE
  5
1a9
100
AcDbEntity
  8
Layer_1
 62
7
100
AcDbSpline
 70
8
 71
3
 72
8
 73
4
 74
0
 40
0
 40
0
 40
0
 40
0
 40
1
 40
1
 40
1
 40
1
 10
514.509816
 20
151.036597
 30
0.0
 10
514.434039
 20
151.394878
 30
0.0
 10
514.396151
 20
151.758333
 30
0.0
 10
514.396151
 20
152.126962
 30
0.0
  0
SPLINE
  5
1aa
100
AcDbEntity
  8
Layer_1
 62
7
100
AcDbSpline
 70
8
 71
3
 72
8
 73
4
 74
0
 40
0
 40
0
 40
0
 40
0
 40
1
 40
1
 40
1
 40
1
 10
514.396151
 20
152.126962
 30
0.0
 10
514.396151
 20
153.050252
 30
0.0
 10
514.664862
 20
153.782337
 30
0.0
 10
515.202284
 20
154.323216
 30
0.0
  0
SPLINE
  5
1ab
100
AcDbEntity
  8
Layer_1
 62
7
100
AcDbSpline
 70
8
 71
3
 72
8
 73
4
 74
0
 40
0
 40
0
 40
0
 40
0
 40
1
 40
1
 40
1
 40
1
 10
515.202284
 20
154.323216
 30
0.0
 10
515.739729
 20
154.860637
 30
0.0
 10
516.466651
 20
155.129348
 30
0.0
 10
517.383050
 20
155.129348
 30
0.0
  0
SPLINE
  5
1ac
100
AcDbEntity
  8
Layer_1
 62
7
100
AcDbSpline
 70
8
 71
3
 72
8
 73
4
 74
0
 40
0
 40
0
 40
0
 40
0
 40
1
 40
1
 40
1
 40
1
 10
517.383050
 20
155.129348
 30
0.0
 10
518.330446
 20
155.129348
 30
0.0
 10
519.081475
 20
154.874419
 30
0.0
 10
519.636136
 20
154.364561
 30
0.0
  0
SPLINE
  5
1ad
100
AcDbEntity
  8
Layer_1
 62
7
100
AcDbSpline
 70
8
 71
3
 72
8
 73
4
 74
0
 40
0
 40
0
 40
0
 40
0
 40
1
 40
1
 40
1
 40
1
 10
519.636136
 20
154.364561
 30
0.0
 10
520.194230
 20
153.851222
 30
0.0
 10
520.473277
 20
153.160472
 30
0.0
 10
520.473277
 20
152.292309
 30
0.0
  0
SPLINE
  5
1ae
100
AcDbEntity
  8
Layer_1
 62
7
100
AcDbSpline
 70
8
 71
3
 72
8
 73
4
 74
0
 40
0
 40
0
 40
0
 40
0
 40
1
 40
1
 40
1
 40
1
 10
520.473277
 20
152.292309
 30
0.0
 10
520.473277
 20
151.513729
 30
0.0
 10
520.221794
 20
150.898778
 30
0.0
 10
519.718827
 20
150.447458
 30
0.0
  0
SPLINE
  5
1af
100
AcDbEntity
  8
Layer_1
 62
7
100
AcDbSpline
 70
8
 71
3
 72
8
 73
4
 74
0
 40
0
 40
0
 40
0
 40
0
 40
1
 40
1
 40
1
 40
1
 10
519.718827
 20
150.447458
 30
0.0
 10
519.219270
 20
149.992704
 30
0.0
 10
518.538856
 20
149.765327
 30
0.0
 10
517.677584
 20
149.765327
 30
0.0
  0
LWPOLYLINE
  5
1b0
100
AcDbEntity
  8
Layer_1
 62
7
100
AcDbPolyline
 90
2
 70
0
 10
515.739740
 20
149.987541
 30
0.0
 10
514.840545
 20
149.987541
 30
0.0
  0
SPLINE
  5
1b1
100
AcDbEntity
  8
Layer_1
 62
7
100
AcDbSpline
 70
8
 71
3
 72
8
 73
4
 74
0
 40
0
 40
0
 40
0
 40
0
 40
1
 40
1
 40
1
 40
1
 10
517.956667
 20
150.716204
 30
0.0
 10
518.476873
 20
150.723024
 30
0.0
 10
518.891998
 20
150.869439
 30
0.0
 10
519.202043
 20
151.155448
 30
0.0
  0
SPLINE
  5
1b2
100
AcDbEntity
  8
Layer_1
 62
7
100
AcDbSpline
 70
8
 71
3
 72
8
 73
4
 74
0
 40
0
 40
0
 40
0
 40
0
 40
1
 40
1
 40
1
 40
1
 10
519.202043
 20
151.155448
 30
0.0
 10
519.512111
 20
151.437928
 30
0.0
 10
519.667145
 20
151.813437
 30
0.0
 10
519.667145
 20
152.281973
 30
0.0
  0
SPLINE
  5
1b3
100
AcDbEntity
  8
Layer_1
 62
7
100
AcDbSpline
 70
8
 71
3
 72
8
 73
4
 74
0
 40
0
 40
0
 40
0
 40
0
 40
1
 40
1
 40
1
 40
1
 10
519.667145
 20
152.281973
 30
0.0
 10
519.667145
 20
152.812527
 30
0.0
 10
519.517285
 20
153.238001
 30
0.0
 10
519.217565
 20
153.558393
 30
0.0
  0
SPLINE
  5
1b4
100
AcDbEntity
  8
Layer_1
 62
7
100
AcDbSpline
 70
8
 71
3
 72
8
 73
4
 74
0
 40
0
 40
0
 40
0
 40
0
 40
1
 40
1
 40
1
 40
1
 10
519.217565
 20
153.558393
 30
0.0
 10
518.917845
 20
153.875352
 30
0.0
 10
518.495817
 20
154.057938
 30
0.0
 10
517.951481
 20
154.106151
 30
0.0
  0
LWPOLYLINE
  5
1b5
100
AcDbEntity
  8
Layer_1
 62
7
100
AcDbPolyline
 90
1
 70
1
 10
517.677584
 20
149.765327
 30
0.0
  0
SPLINE
  5
1b6
100
AcDbEntity
  8
Layer_1
 62
7
100
AcDbSpline
 70
8
 71
3
 72
8
 73
4
 74
0
 40
0
 40
0
 40
0
 40
0
 40
1
 40
1
 40
1
 40
1
 10
517.455405
 20
145.574397
 30
0.0
 10
517.455405
 20
146.342653
 30
0.0
 10
517.367551
 20
146.874913
 30
0.0
 10
517.191844
 20
147.171175
 30
0.0
  0
SPLINE
  5
1b7
100
AcDbEntity
  8
Layer_1
 62
7
100
AcDbSpline
 70
8
 71
3
 72
8
 73
4
 74
0
 40
0
 40
0
 40
0
 40
0
 40
1
 40
1
 40
1
 40
1
 10
517.191844
 20
147.171175
 30
0.0
 10
517.016137
 20
147.467462
 30
0.0
 10
516.716417
 20
147.615605
 30
0.0
 10
516.292684
 20
147.615605
 30
0.0
  0
SPLINE
  5
1b8
100
AcDbEntity
  8
Layer_1
 62
7
100
AcDbSpline
 70
8
 71
3
 72
8
 73
4
 74
0
 40
0
 40
0
 40
0
 40
0
 40
1
 40
1
 40
1
 40
1
 10
516.292684
 20
147.615605
 30
0.0
 10
515.955052
 20
147.615605
 30
0.0
 10
515.686330
 20
147.505362
 30
0.0
 10
515.486517
 20
147.284876
 30
0.0
  0
SPLINE
  5
1b9
100
AcDbEntity
  8
Layer_1
 62
7
100
AcDbSpline
 70
8
 71
3
 72
8
 73
4
 74
0
 40
0
 40
0
 40
0
 40
0
 40
1
 40
1
 40
1
 40
1
 10
515.486517
 20
147.284876
 30
0.0
 10
515.290137
 20
147.060932
 30
0.0
 10
515.191947
 20
146.757767
 30
0.0
 10
515.191947
 20
146.375379
 30
0.0
  0
SPLINE
  5
1ba
100
AcDbEntity
  8
Layer_1
 62
7
100
AcDbSpline
 70
8
 71
3
 72
8
 73
4
 74
0
 40
0
 40
0
 40
0
 40
0
 40
1
 40
1
 40
1
 40
1
 10
515.191947
 20
146.375379
 30
0.0
 10
515.191947
 20
145.848282
 30
0.0
 10
515.377990
 20
145.426254
 30
0.0
 10
515.750077
 20
145.109295
 30
0.0
  0
SPLINE
  5
1bb
100
AcDbEntity
  8
Layer_1
 62
7
100
AcDbSpline
 70
8
 71
3
 72
8
 73
4
 74
0
 40
0
 40
0
 40
0
 40
0
 40
1
 40
1
 40
1
 40
1
 10
515.750077
 20
145.109295
 30
0.0
 10
516.125574
 20
144.788902
 30
0.0
 10
516.623390
 20
144.628706
 30
0.0
 10
517.243526
 20
144.628706
 30
0.0
  0
LWPOLYLINE
  5
1bc
100
AcDbEntity
  8
Layer_1
 62
7
100
AcDbPolyline
 90
2
 70
0
 10
517.951481
 20
154.106151
 30
0.0
 10
517.956667
 20
150.716204
 30
0.0
  0
LWPOLYLINE
  5
1bd
100
AcDbEntity
  8
Layer_1
 62
7
100
AcDbPolyline
 90
3
 70
0
 10
517.243526
 20
144.628706
 30
0.0
 10
517.455405
 20
144.628706
 30
0.0
 10
517.455405
 20
145.574397
 30
0.0
  0
SPLINE
  5
1be
100
AcDbEntity
  8
Layer_1
 62
7
100
AcDbSpline
 70
8
 71
3
 72
8
 73
4
 74
0
 40
0
 40
0
 40
0
 40
0
 40
1
 40
1
 40
1
 40
1
 10
515.424498
 20
144.628706
 30
0.0
 10
515.073108
 20
144.845758
 30
0.0
 10
514.813005
 20
145.116198
 30
0.0
 10
514.644189
 20
145.440024
 30
0.0
  0
SPLINE
  5
1bf
100
AcDbEntity
  8
Layer_1
 62
7
100
AcDbSpline
 70
8
 71
3
 72
8
 73
4
 74
0
 40
0
 40
0
 40
0
 40
0
 40
1
 40
1
 40
1
 40
1
 10
514.644189
 20
145.440024
 30
0.0
 10
514.478830
 20
145.763874
 30
0.0
 10
514.396151
 20
146.160056
 30
0.0
 10
514.396151
 20
146.628568
 30
0.0
  0
SPLINE
  5
1c0
100
AcDbEntity
  8
Layer_1
 62
7
100
AcDbSpline
 70
8
 71
3
 72
8
 73
4
 74
0
 40
0
 40
0
 40
0
 40
0
 40
1
 40
1
 40
1
 40
1
 10
514.396151
 20
146.628568
 30
0.0
 10
514.396151
 20
147.221140
 30
0.0
 10
514.561510
 20
147.693122
 30
0.0
 10
514.892227
 20
148.044512
 30
0.0
  0
SPLINE
  5
1c1
100
AcDbEntity
  8
Layer_1
 62
7
100
AcDbSpline
 70
8
 71
3
 72
8
 73
4
 74
0
 40
0
 40
0
 40
0
 40
0
 40
1
 40
1
 40
1
 40
1
 10
514.892227
 20
148.044512
 30
0.0
 10
515.226402
 20
148.392469
 30
0.0
 10
515.672548
 20
148.566447
 30
0.0
 10
516.230666
 20
148.566447
 30
0.0
  0
SPLINE
  5
1c2
100
AcDbEntity
  8
Layer_1
 62
7
100
AcDbSpline
 70
8
 71
3
 72
8
 73
4
 74
0
 40
0
 40
0
 40
0
 40
0
 40
1
 40
1
 40
1
 40
1
 10
516.230666
 20
148.566447
 30
0.0
 10
516.881776
 20
148.566447
 30
0.0
 10
517.372702
 20
148.349406
 30
0.0
 10
517.703443
 20
147.915325
 30
0.0
  0
SPLINE
  5
1c3
100
AcDbEntity
  8
Layer_1
 62
7
100
AcDbSpline
 70
8
 71
3
 72
8
 73
4
 74
0
 40
0
 40
0
 40
0
 40
0
 40
1
 40
1
 40
1
 40
1
 10
517.703443
 20
147.915325
 30
0.0
 10
518.034160
 20
147.477810
 30
0.0
 10
518.199519
 20
146.826688
 30
0.0
 10
518.199519
 20
145.961959
 30
0.0
  0
LWPOLYLINE
  5
1c4
100
AcDbEntity
  8
Layer_1
 62
7
100
AcDbPolyline
 90
4
 70
0
 10
517.848117
 20
143.677864
 30
0.0
 10
514.546011
 20
143.677864
 30
0.0
 10
514.546011
 20
144.628706
 30
0.0
 10
515.424498
 20
144.628706
 30
0.0
  0
SPLINE
  5
1c5
100
AcDbEntity
  8
Layer_1
 62
7
100
AcDbSpline
 70
8
 71
3
 72
8
 73
4
 74
0
 40
0
 40
0
 40
0
 40
0
 40
1
 40
1
 40
1
 40
1
 10
518.292546
 20
144.628706
 30
0.0
 10
518.730085
 20
144.628706
 30
0.0
 10
519.067705
 20
144.773404
 30
0.0
 10
519.305406
 20
145.062799
 30
0.0
  0
SPLINE
  5
1c6
100
AcDbEntity
  8
Layer_1
 62
7
100
AcDbSpline
 70
8
 71
3
 72
8
 73
4
 74
0
 40
0
 40
0
 40
0
 40
0
 40
1
 40
1
 40
1
 40
1
 10
519.305406
 20
145.062799
 30
0.0
 10
519.546565
 20
145.348737
 30
0.0
 10
519.667145
 20
145.751809
 30
0.0
 10
519.667145
 20
146.272015
 30
0.0
  0
SPLINE
  5
1c7
100
AcDbEntity
  8
Layer_1
 62
7
100
AcDbSpline
 70
8
 71
3
 72
8
 73
4
 74
0
 40
0
 40
0
 40
0
 40
0
 40
1
 40
1
 40
1
 40
1
 10
519.667145
 20
146.272015
 30
0.0
 10
519.667145
 20
146.602756
 30
0.0
 10
519.627528
 20
146.924878
 30
0.0
 10
519.548294
 20
147.238380
 30
0.0
  0
SPLINE
  5
1c8
100
AcDbEntity
  8
Layer_1
 62
7
100
AcDbSpline
 70
8
 71
3
 72
8
 73
4
 74
0
 40
0
 40
0
 40
0
 40
0
 40
1
 40
1
 40
1
 40
1
 10
519.548294
 20
147.238380
 30
0.0
 10
519.469060
 20
147.551881
 30
0.0
 10
519.350198
 20
147.853318
 30
0.0
 10
519.191706
 20
148.142690
 30
0.0
  0
LWPOLYLINE
  5
1c9
100
AcDbEntity
  8
Layer_1
 62
7
100
AcDbPolyline
 90
3
 70
0
 10
518.199519
 20
145.961959
 30
0.0
 10
518.199519
 20
144.628706
 30
0.0
 10
518.292546
 20
144.628706
 30
0.0
  0
SPLINE
  5
1ca
100
AcDbEntity
  8
Layer_1
 62
7
100
AcDbSpline
 70
8
 71
3
 72
8
 73
4
 74
0
 40
0
 40
0
 40
0
 40
0
 40
1
 40
1
 40
1
 40
1
 10
520.070229
 20
148.142690
 30
0.0
 10
520.204590
 20
147.794734
 30
0.0
 10
520.304497
 20
147.457114
 30
0.0
 10
520.369949
 20
147.129830
 30
0.0
  0
SPLINE
  5
1cb
100
AcDbEntity
  8
Layer_1
 62
7
100
AcDbSpline
 70
8
 71
3
 72
8
 73
4
 74
0
 40
0
 40
0
 40
0
 40
0
 40
1
 40
1
 40
1
 40
1
 10
520.369949
 20
147.129830
 30
0.0
 10
520.438834
 20
146.802546
 30
0.0
 10
520.473277
 20
146.483882
 30
0.0
 10
520.473277
 20
146.173837
 30
0.0
  0
SPLINE
  5
1cc
100
AcDbEntity
  8
Layer_1
 62
7
100
AcDbSpline
 70
8
 71
3
 72
8
 73
4
 74
0
 40
0
 40
0
 40
0
 40
0
 40
1
 40
1
 40
1
 40
1
 10
520.473277
 20
146.173837
 30
0.0
 10
520.473277
 20
145.336672
 30
0.0
 10
520.256237
 20
144.711385
 30
0.0
 10
519.822155
 20
144.297977
 30
0.0
  0
SPLINE
  5
1cd
100
AcDbEntity
  8
Layer_1
 62
7
100
AcDbSpline
 70
8
 71
3
 72
8
 73
4
 74
0
 40
0
 40
0
 40
0
 40
0
 40
1
 40
1
 40
1
 40
1
 10
519.822155
 20
144.297977
 30
0.0
 10
519.388074
 20
143.884568
 30
0.0
 10
518.730061
 20
143.677864
 30
0.0
 10
517.848117
 20
143.677864
 30
0.0
  0
LWPOLYLINE
  5
1ce
100
AcDbEntity
  8
Layer_1
 62
7
100
AcDbPolyline
 90
2
 70
0
 10
519.191706
 20
148.142690
 30
0.0
 10
520.070229
 20
148.142690
 30
0.0
  0
SPLINE
  5
1cf
100
AcDbEntity
  8
Layer_1
 62
7
100
AcDbSpline
 70
8
 71
3
 72
8
 73
4
 74
0
 40
0
 40
0
 40
0
 40
0
 40
1
 40
1
 40
1
 40
1
 10
520.268490
 20
315.684791
 30
0.0
 10
520.268505
 20
315.046343
 30
0.0
 10
520.014891
 20
314.434039
 30
0.0
 10
519.563442
 20
313.982584
 30
0.0
  0
SPLINE
  5
1d0
100
AcDbEntity
  8
Layer_1
 62
7
100
AcDbSpline
 70
8
 71
3
 72
8
 73
4
 74
0
 40
0
 40
0
 40
0
 40
0
 40
1
 40
1
 40
1
 40
1
 10
519.563442
 20
313.982584
 30
0.0
 10
519.111994
 20
313.531129
 30
0.0
 10
518.499692
 20
313.277504
 30
0.0
 10
517.861240
 20
313.277506
 30
0.0
  0
SPLINE
  5
1d1
100
AcDbEntity
  8
Layer_1
 62
7
100
AcDbSpline
 70
8
 71
3
 72
8
 73
4
 74
0
 40
0
 40
0
 40
0
 40
0
 40
1
 40
1
 40
1
 40
1
 10
517.861240
 20
313.277506
 30
0.0
 10
517.222783
 20
313.277494
 30
0.0
 10
516.610471
 20
313.531115
 30
0.0
 10
516.159015
 20
313.982571
 30
0.0
  0
SPLINE
  5
1d2
100
AcDbEntity
  8
Layer_1
 62
7
100
AcDbSpline
 70
8
 71
3
 72
8
 73
4
 74
0
 40
0
 40
0
 40
0
 40
0
 40
1
 40
1
 40
1
 40
1
 10
516.159015
 20
313.982571
 30
0.0
 10
515.707559
 20
314.434028
 30
0.0
 10
515.453940
 20
315.046337
 30
0.0
 10
515.453955
 20
315.684791
 30
0.0
  0
SPLINE
  5
1d3
100
AcDbEntity
  8
Layer_1
 62
7
100
AcDbSpline
 70
8
 71
3
 72
8
 73
4
 74
0
 40
0
 40
0
 40
0
 40
0
 40
1
 40
1
 40
1
 40
1
 10
515.453955
 20
315.684791
 30
0.0
 10
515.453949
 20
316.323238
 30
0.0
 10
515.707572
 20
316.935538
 30
0.0
 10
516.159028
 20
317.386987
 30
0.0
  0
SPLINE
  5
1d4
100
AcDbEntity
  8
Layer_1
 62
7
100
AcDbSpline
 70
8
 71
3
 72
8
 73
4
 74
0
 40
0
 40
0
 40
0
 40
0
 40
1
 40
1
 40
1
 40
1
 10
516.159028
 20
317.386987
 30
0.0
 10
516.610483
 20
317.838436
 30
0.0
 10
517.222789
 20
318.092052
 30
0.0
 10
517.861240
 20
318.092040
 30
0.0
  0
SPLINE
  5
1d5
100
AcDbEntity
  8
Layer_1
 62
7
100
AcDbSpline
 70
8
 71
3
 72
8
 73
4
 74
0
 40
0
 40
0
 40
0
 40
0
 40
1
 40
1
 40
1
 40
1
 10
517.861240
 20
318.092040
 30
0.0
 10
518.499686
 20
318.092042
 30
0.0
 10
519.111982
 20
317.838422
 30
0.0
 10
519.563430
 20
317.386974
 30
0.0
  0
SPLINE
  5
1d6
100
AcDbEntity
  8
Layer_1
 62
7
100
AcDbSpline
 70
8
 71
3
 72
8
 73
4
 74
0
 40
0
 40
0
 40
0
 40
0
 40
1
 40
1
 40
1
 40
1
 10
519.563430
 20
317.386974
 30
0.0
 10
520.014878
 20
316.935527
 30
0.0
 10
520.268496
 20
316.323232
 30
0.0
 10
520.268490
 20
315.684791
 30
0.0
  0
LWPOLYLINE
  5
1d7
100
AcDbEntity
  8
Layer_1
 62
7
100
AcDbPolyline
 90
1
 70
1
 10
517.848117
 20
143.677864
 30
0.0
  0
SPLINE
  5
1d8
100
AcDbEntity
  8
Layer_1
 62
7
100
AcDbSpline
 70
8
 71
3
 72
8
 73
4
 74
0
 40
0
 40
0
 40
0
 40
0
 40
1
 40
1
 40
1
 40
1
 10
520.268490
 20
53.805469
 30
0.0
 10
520.268505
 20
53.167022
 30
0.0
 10
520.014891
 20
52.554718
 30
0.0
 10
519.563442
 20
52.103263
 30
0.0
  0
SPLINE
  5
1d9
100
AcDbEntity
  8
Layer_1
 62
7
100
AcDbSpline
 70
8
 71
3
 72
8
 73
4
 74
0
 40
0
 40
0
 40
0
 40
0
 40
1
 40
1
 40
1
 40
1
 10
519.563442
 20
52.103263
 30
0.0
 10
519.111994
 20
51.651807
 30
0.0
 10
518.499692
 20
51.398183
 30
0.0
 10
517.861240
 20
51.398184
 30
0.0
  0
SPLINE
  5
1da
100
AcDbEntity
  8
Layer_1
 62
7
100
AcDbSpline
 70
8
 71
3
 72
8
 73
4
 74
0
 40
0
 40
0
 40
0
 40
0
 40
1
 40
1
 40
1
 40
1
 10
517.861240
 20
51.398184
 30
0.0
 10
517.222783
 20
51.398173
 30
0.0
 10
516.610471
 20
51.651794
 30
0.0
 10
516.159015
 20
52.103250
 30
0.0
  0
SPLINE
  5
1db
100
AcDbEntity
  8
Layer_1
 62
7
100
AcDbSpline
 70
8
 71
3
 72
8
 73
4
 74
0
 40
0
 40
0
 40
0
 40
0
 40
1
 40
1
 40
1
 40
1
 10
516.159015
 20
52.103250
 30
0.0
 10
515.707559
 20
52.554707
 30
0.0
 10
515.453940
 20
53.167016
 30
0.0
 10
515.453955
 20
53.805469
 30
0.0
  0
SPLINE
  5
1dc
100
AcDbEntity
  8
Layer_1
 62
7
100
AcDbSpline
 70
8
 71
3
 72
8
 73
4
 74
0
 40
0
 40
0
 40
0
 40
0
 40
1
 40
1
 40
1
 40
1
 10
515.453955
 20
53.805469
 30
0.0
 10
515.453949
 20
54.443917
 30
0.0
 10
515.707572
 20
55.056217
 30
0.0
 10
516.159028
 20
55.507666
 30
0.0
  0
SPLINE
  5
1dd
100
AcDbEntity
  8
Layer_1
 62
7
100
AcDbSpline
 70
8
 71
3
 72
8
 73
4
 74
0
 40
0
 40
0
 40
0
 40
0
 40
1
 40
1
 40
1
 40
1
 10
516.159028
 20
55.507666
 30
0.0
 10
516.610483
 20
55.959114
 30
0.0
 10
517.222789
 20
56.212730
 30
0.0
 10
517.861240
 20
56.212719
 30
0.0
  0
SPLINE
  5
1de
100
AcDbEntity
  8
Layer_1
 62
7
100
AcDbSpline
 70
8
 71
3
 72
8
 73
4
 74
0
 40
0
 40
0
 40
0
 40
0
 40
1
 40
1
 40
1
 40
1
 10
517.861240
 20
56.212719
 30
0.0
 10
518.499686
 20
56.212721
 30
0.0
 10
519.111982
 20
55.959101
 30
0.0
 10
519.563430
 20
55.507653
 30
0.0
  0
SPLINE
  5
1df
100
AcDbEntity
  8
Layer_1
 62
7
100
AcDbSpline
 70
8
 71
3
 72
8
 73
4
 74
0
 40
0
 40
0
 40
0
 40
0
 40
1
 40
1
 40
1
 40
1
 10
519.563430
 20
55.507653
 30
0.0
 10
520.014878
 20
55.056205
 30
0.0
 10
520.268496
 20
54.443911
 30
0.0
 10
520.268490
 20
53.805469
 30
0.0
  0
LWPOLYLINE
  5
1e0
100
AcDbEntity
  8
Layer_1
 62
7
100
AcDbPolyline
 90
1
 70
1
 10
520.268490
 20
315.684791
 30
0.0
  0
LWPOLYLINE
  5
1e1
100
AcDbEntity
  8
Layer_1
 62
7
100
AcDbPolyline
 90
1
 70
1
 10
520.268490
 20
53.805469
 30
0.0
  0
ENDSEC
  0
SECTION
  2
OBJECTS
  0
DICTIONARY
  5
C
330
0
100
AcDbDictionary
  3
ACAD_GROUP
350
D
  3
ACAD_MLINESTYLE
350
17
  0
DICTIONARY
  5
D
330
C
100
AcDbDictionary
  0
DICTIONARY
  5
1A
330
C
100
AcDbDictionary
  0
DICTIONARY
  5
17
330
C
100
AcDbDictionary
  3
STANDARD
350
18
  0
DICTIONARY
  5
19
330
C
100
AcDbDictionary
  0
ENDSEC
  0
EOF
