<?xml version="1.0" encoding="UTF-8" standalone="no"?>
<!-- Created with Inkscape (http://www.inkscape.org/) -->

<svg
   xmlns:dc="http://purl.org/dc/elements/1.1/"
   xmlns:cc="http://creativecommons.org/ns#"
   xmlns:rdf="http://www.w3.org/1999/02/22-rdf-syntax-ns#"
   xmlns:svg="http://www.w3.org/2000/svg"
   xmlns="http://www.w3.org/2000/svg"
   xmlns:sodipodi="http://sodipodi.sourceforge.net/DTD/sodipodi-0.dtd"
   xmlns:inkscape="http://www.inkscape.org/namespaces/inkscape"
   width="210mm"
   height="297mm"
   viewBox="0 0 210 297"
   version="1.1"
   id="svg8"
   inkscape:version="0.92.2 (5c3e80d, 2017-08-06)"
   sodipodi:docname="Laser.Cut.Face.Shield.v1.7.elastic.head.band.svg">
  <defs
     id="defs2">
    <marker
       id="DistanceX"
       orient="auto"
       refX="0"
       refY="0"
       style="overflow:visible">
      <path
         inkscape:connector-curvature="0"
         d="M 3,-3 -3,3 M 0,-5 V 5"
         style="stroke:#000000;stroke-width:0.5"
         id="path2668" />
    </marker>
    <pattern
       height="8"
       id="Hatch"
       patternUnits="userSpaceOnUse"
       width="8"
       x="0"
       y="0">
      <path
         d="M8 4 l-4,4"
         linecap="square"
         stroke="#000000"
         stroke-width="0.25"
         id="path2671" />
      <path
         d="M6 2 l-4,4"
         linecap="square"
         stroke="#000000"
         stroke-width="0.25"
         id="path2673" />
      <path
         d="M4 0 l-4,4"
         linecap="square"
         stroke="#000000"
         stroke-width="0.25"
         id="path2675" />
    </pattern>
    <symbol
       id="*MODEL_SPACE" />
    <symbol
       id="*PAPER_SPACE" />
    <marker
       id="DistanceX-6"
       orient="auto"
       refX="0"
       refY="0"
       style="overflow:visible">
      <path
         inkscape:connector-curvature="0"
         d="M 3,-3 -3,3 M 0,-5 V 5"
         style="stroke:#000000;stroke-width:0.5"
         id="path817" />
    </marker>
    <pattern
       height="8"
       id="Hatch-2"
       patternUnits="userSpaceOnUse"
       width="8"
       x="0"
       y="0">
      <path
         d="M8 4 l-4,4"
         linecap="square"
         stroke="#000000"
         stroke-width="0.25"
         id="path820" />
      <path
         d="M6 2 l-4,4"
         linecap="square"
         stroke="#000000"
         stroke-width="0.25"
         id="path822" />
      <path
         d="M4 0 l-4,4"
         linecap="square"
         stroke="#000000"
         stroke-width="0.25"
         id="path824" />
    </pattern>
    <symbol
       id="*MODEL_SPACE-3" />
    <symbol
       id="*PAPER_SPACE-8" />
    <marker
       id="DistanceX-9"
       orient="auto"
       refX="0"
       refY="0"
       style="overflow:visible">
      <path
         inkscape:connector-curvature="0"
         d="M 3,-3 -3,3 M 0,-5 V 5"
         style="stroke:#000000;stroke-width:0.5"
         id="path1267" />
    </marker>
    <pattern
       height="8"
       id="Hatch-0"
       patternUnits="userSpaceOnUse"
       width="8"
       x="0"
       y="0">
      <path
         d="M8 4 l-4,4"
         linecap="square"
         stroke="#000000"
         stroke-width="0.25"
         id="path1270" />
      <path
         d="M6 2 l-4,4"
         linecap="square"
         stroke="#000000"
         stroke-width="0.25"
         id="path1272" />
      <path
         d="M4 0 l-4,4"
         linecap="square"
         stroke="#000000"
         stroke-width="0.25"
         id="path1274" />
    </pattern>
    <symbol
       id="*MODEL_SPACE-6" />
    <symbol
       id="*PAPER_SPACE-3" />
    <inkscape:path-effect
       only_selected="false"
       apply_with_weight="true"
       apply_no_weight="true"
       helper_size="0"
       steps="2"
       weight="33.333333"
       is_visible="true"
       id="path-effect898"
       effect="bspline" />
    <inkscape:path-effect
       only_selected="false"
       apply_with_weight="true"
       apply_no_weight="true"
       helper_size="0"
       steps="2"
       weight="33.333333"
       is_visible="true"
       id="path-effect894"
       effect="bspline" />
    <clipPath
       clipPathUnits="userSpaceOnUse"
       id="clipPath1466">
      <path
         d="M 0,1680 H 3576 V 0 H 0 Z"
         id="path1464"
         inkscape:connector-curvature="0" />
    </clipPath>
    <filter
       id="filter3194-3"
       style="color-interpolation-filters:sRGB"
       inkscape:collect="always">
      <feBlend
         id="feBlend3196-8"
         in2="BackgroundImage"
         mode="multiply"
         inkscape:collect="always" />
    </filter>
  </defs>
  <sodipodi:namedview
     id="base"
     pagecolor="#ffffff"
     bordercolor="#666666"
     borderopacity="1.0"
     inkscape:pageopacity="0.0"
     inkscape:pageshadow="2"
     inkscape:zoom="0.49497475"
     inkscape:cx="424.50358"
     inkscape:cy="1040.9268"
     inkscape:document-units="mm"
     inkscape:current-layer="layer1"
     showgrid="false"
     inkscape:window-width="1600"
     inkscape:window-height="837"
     inkscape:window-x="-8"
     inkscape:window-y="-8"
     inkscape:window-maximized="1" />
  <metadata
     id="metadata5">
    <rdf:RDF>
      <cc:Work
         rdf:about="">
        <dc:format>image/svg+xml</dc:format>
        <dc:type
           rdf:resource="http://purl.org/dc/dcmitype/StillImage" />
        <dc:title></dc:title>
      </cc:Work>
    </rdf:RDF>
  </metadata>
  <g
     inkscape:label="Layer 1"
     inkscape:groupmode="layer"
     id="layer1">
    <g
       id="g2206">
      <path
         sodipodi:nodetypes="sssccccccccccsssssscccccccccccssss"
         inkscape:connector-curvature="0"
         id="path1654"
         d="m -42.449106,48.792776 c 1e-5,3.50697 2.6634,6.35 5.94847,6.35 3.50403,0 4.23333,0 14.74537,-0.52916 2.91197,-0.14658 -8.51902,-1.69172 -10.66186,-3.81487 -0.35028,-0.3912 -0.54434,-0.89761 -0.54519,-1.42265 1.4e-4,-1.18085 0.95751,-2.13797 2.13837,-2.13787 0.525,0 1.03138,0.19459 1.42264,0.54466 l 9.49195,7.35986 310.494176,0 9.56741,-7.43109 c 0.37973,-0.30607 0.85273,-0.47308 1.34048,-0.47339 1.18061,1.7e-4 2.13766,0.95722 2.13784,2.13787 0,0.48743 -0.16786,0.96004 -0.47386,1.33946 -2.16404,2.18126 -13.02159,3.15841 -10.1963,3.36885 l 14.20894,1.05833 c 3.276,0.24401 5.94794,-2.84303 5.94794,-6.35 v -13.64929 c 0,-3.50731 -2.67198,-6.59422 -5.94794,-6.35 l -14.19655,1.05834 c -2.81517,0.20987 8.01535,1.17616 10.17097,3.35174 0.31425,0.38209 0.48627,0.8613 0.4868,1.35597 10e-5,1.18085 -0.95702,2.13822 -2.13787,2.13836 -0.49488,0 -0.9743,-0.1724 -1.3565,-0.48676 0,0 -0.18641,-0.16863 -0.26102,-0.25636 l -9.27746,-7.16083 -310.524136,0 -9.50126,7.38346 c -0.38777,0.33585 -0.88335,0.52109 -1.39633,0.52194 -1.18102,1e-4 -2.13846,-0.95733 -2.13836,-2.13836 0,-0.51308 0.18567,-1.00888 0.52144,-1.39683 2.14507,-2.16196 13.58787,-3.69288 10.66857,-3.84009 -10.49496,-0.52917 -11.22998,-0.52917 -14.7283,-0.52917 -3.28506,0 -5.94848,2.84269 -5.94847,6.35 z"
         style="fill:none;stroke:#231f20;stroke-width:0.3503083;stroke-linecap:butt;stroke-linejoin:miter;stroke-miterlimit:10;stroke-dasharray:none;stroke-opacity:1" />
      <path
         style="opacity:1;fill:none;fill-opacity:1;stroke:#000000;stroke-width:0.1854676;stroke-miterlimit:4;stroke-dasharray:none;stroke-opacity:1"
         d="m -13.739346,39.560866 c 1.3295,-3e-5 2.40729,1.07774 2.40728,2.40725 2e-5,1.32952 -1.07777,2.40731 -2.40728,2.40728 -1.3295,10e-6 -2.40727,-1.07777 -2.40725,-2.40728 0,-1.32949 1.07777,-2.40726 2.40725,-2.40725 z"
         id="path1853"
         inkscape:connector-curvature="0"
         sodipodi:nodetypes="ccccc" />
      <path
         style="opacity:1;fill:none;fill-opacity:1;stroke:#000000;stroke-width:0.1854676;stroke-miterlimit:4;stroke-dasharray:none;stroke-opacity:1"
         d="m 284.12331,39.560866 c 1.3295,-3e-5 2.40729,1.07774 2.40729,2.40725 2e-5,1.32952 -1.07778,2.40731 -2.40729,2.40728 -1.3295,10e-6 -2.40727,-1.07777 -2.40725,-2.40728 -1e-5,-1.32949 1.07776,-2.40726 2.40725,-2.40725 z"
         id="path1853-5"
         inkscape:connector-curvature="0"
         sodipodi:nodetypes="ccccc" />
      <path
         transform="rotate(180,61.598897,-60.019644)"
         inkscape:connector-curvature="0"
         d="m -115.52039,-169.00737 -4.88724,6e-5 -3e-5,-1.95615 c 0,-0.0834 -0.0669,-0.15133 -0.1503,-0.15258 -0.86357,-0.013 -1.67059,0.42823 -2.12574,1.16223 l -4.03953,5.19332 c -0.61224,0.78711 -0.94464,1.75583 -0.94465,2.753 -1e-5,0.99718 0.33237,1.96591 0.94459,2.75302 l 4.03944,5.1934 c 0.45513,0.73401 1.26214,1.17526 2.12571,1.16229 0.0834,-0.001 0.15031,-0.0692 0.15031,-0.15259 l 6e-5,-1.95617 4.88724,1.6e-4"
         style="fill:none;stroke:#000000;stroke-width:0.26458332;filter:url(#filter3194-3)"
         id="path2694-2"
         sodipodi:nodetypes="ccccccccccccc" />
      <path
         transform="rotate(180,61.598897,-60.019644)"
         inkscape:connector-curvature="0"
         d="m 91.247989,-155.00738 4.88723,-1.6e-4 7e-5,1.95617 c 0,0.0834 0.0669,0.15133 0.1503,0.15259 0.86357,0.013 1.67058,-0.42828 2.12572,-1.16229 l 4.039431,-5.1934 c 0.61222,-0.78711 0.94461,-1.75584 0.9446,-2.75302 -1e-5,-0.99717 -0.33242,-1.96589 -0.94465,-2.753 l -4.039531,-5.19332 c -0.45515,-0.73399 -1.26217,-1.17523 -2.12574,-1.16223 -0.0834,0.001 -0.1503,0.0692 -0.1503,0.15258 l -3e-5,1.95617 -4.88724,-7e-5"
         style="fill:none;stroke:#000000;stroke-width:0.26458332;filter:url(#filter3194-3)"
         id="path2726-7"
         sodipodi:nodetypes="ccccccccccccc" />
    </g>
    <path
       id="path1361-1"
       style="fill:none;stroke:#000000;stroke-width:0.5;stroke-miterlimit:4;stroke-dasharray:none"
       d="m 212.8478,-2.810941 h 0.013"
       inkscape:connector-curvature="0" />
    <path
       id="path1373-6"
       style="fill:none;stroke:#000000;stroke-width:0.5;stroke-miterlimit:4;stroke-dasharray:none"
       d="M 56.55986,-2.810941 H 56.54687"
       inkscape:connector-curvature="0" />
  </g>
</svg>
