  0
SECTION
  2
HEADER
  9
$ACADVER
  1
AC1014
  9
$HANDSEED
  5
FFFF
  9
$MEASUREMENT
 70
     1
  0
ENDSEC
  0
SECTION
  2
TABLES
  0
TABLE
  2
VPORT
  5
8
330
0
100
AcDbSymbolTable
 70
     4
  0
VPORT
  5
2E
330
8
100
AcDbSymbolTableRecord
100
AcDbViewportTableRecord
  2
*ACTIVE
 70
     0
 10
0.0
 20
0.0
 11
1.0
 21
1.0
 12
210.0
 22
148.5
 13
0.0
 23
0.0
 14
10.0
 24
10.0
 15
10.0
 25
10.0
 16
0.0
 26
0.0
 36
1.0
 17
0.0
 27
0.0
 37
0.0
 40
341.0
 41
1.24
 42
50.0
 43
0.0
 44
0.0
 50
0.0
 51
0.0
 71
     0
 72
   100
 73
     1
 74
     3
 75
     0
 76
     0
 77
     0
 78
     0
  0
ENDTAB
  0
TABLE
  2
LTYPE
  5
5
330
0
100
AcDbSymbolTable
 70
     1
  0
LTYPE
  5
14
330
5
100
AcDbSymbolTableRecord
100
AcDbLinetypeTableRecord
  2
BYBLOCK
 70
     0
  3

 72
    65
 73
     0
 40
0.0
  0
LTYPE
  5
15
330
5
100
AcDbSymbolTableRecord
100
AcDbLinetypeTableRecord
  2
BYLAYER
 70
     0
  3

 72
    65
 73
     0
 40
0.0
  0
LTYPE
  5
16
330
5
100
AcDbSymbolTableRecord
100
AcDbLinetypeTableRecord
  2
CONTINUOUS
 70
     0
  3
Solid line
 72
    65
 73
     0
 40
0.0
  0
ENDTAB
  0
TABLE
  2
LAYER
  5
2
100
AcDbSymbolTable
 70
2
  0
LAYER
  5
50
100
AcDbSymbolTableRecord
100
AcDbLayerTableRecord
  2
0
 70
0
  6
CONTINUOUS
  0
LAYER
  5
51
100
AcDbSymbolTableRecord
100
AcDbLayerTableRecord
  2
Layer_1
 70
0
  6
CONTINUOUS
  0
ENDTAB
  0
TABLE
  2
STYLE
  5
3
330
0
100
AcDbSymbolTable
 70
     1
  0
STYLE
  5
11
330
3
100
AcDbSymbolTableRecord
100
AcDbTextStyleTableRecord
  2
STANDARD
 70
     0
 40
0.0
 41
1.0
 50
0.0
 71
     0
 42
2.5
  3
txt
  4

  0
ENDTAB
  0
TABLE
  2
VIEW
  5
6
330
0
100
AcDbSymbolTable
 70
     0
  0
ENDTAB
  0
TABLE
  2
UCS
  5
7
330
0
100
AcDbSymbolTable
 70
     0
  0
ENDTAB
  0
TABLE
  2
APPID
  5
9
330
0
100
AcDbSymbolTable
 70
     2
  0
APPID
  5
12
330
9
100
AcDbSymbolTableRecord
100
AcDbRegAppTableRecord
  2
ACAD
 70
     0
  0
ENDTAB
  0
TABLE
  2
DIMSTYLE
  5
A
330
0
100
AcDbSymbolTable
 70
     1
  0
DIMSTYLE
105
27
330
A
100
AcDbSymbolTableRecord
100
AcDbDimStyleTableRecord
  2
ISO-25
 70
     0
  3

  4

  5

  6

  7

 40
1.0
 41
2.5
 42
0.625
 43
3.75
 44
1.25
 45
0.0
 46
0.0
 47
0.0
 48
0.0
140
2.5
141
2.5
142
0.0
143
0.03937007874016
144
1.0
145
0.0
146
1.0
147
0.625
 71
     0
 72
     0
 73
     0
 74
     0
 75
     0
 76
     0
 77
     1
 78
     8
170
     0
171
     3
172
     1
173
     0
174
     0
175
     0
176
     0
177
     0
178
     0
270
     2
271
     2
272
     2
273
     2
274
     3
340
11
275
     0
280
     0
281
     0
282
     0
283
     0
284
     8
285
     0
286
     0
287
     3
288
     0
  0
ENDTAB
  0
TABLE
  2
BLOCK_RECORD
  5
1
330
0
100
AcDbSymbolTable
 70
     1
  0
BLOCK_RECORD
  5
1F
330
1
100
AcDbSymbolTableRecord
100
AcDbBlockTableRecord
  2
*MODEL_SPACE
  0
BLOCK_RECORD
  5
1B
330
1
100
AcDbSymbolTableRecord
100
AcDbBlockTableRecord
  2
*PAPER_SPACE
  0
ENDTAB
  0
ENDSEC
  0
SECTION
  2
BLOCKS
  0
BLOCK
  5
20
330
1F
100
AcDbEntity
  8
0
100
AcDbBlockBegin
  2
*MODEL_SPACE
 70
     0
 10
0.0
 20
0.0
 30
0.0
  3
*MODEL_SPACE
  1

  0
ENDBLK
  5
21
330
1F
100
AcDbEntity
  8
0
100
AcDbBlockEnd
  0
BLOCK
  5
1C
330
1B
100
AcDbEntity
 67
     1
  8
0
100
AcDbBlockBegin
  2
*PAPER_SPACE
  1

  0
ENDBLK
  5
1D
330
1B
100
AcDbEntity
 67
     1
  8
0
100
AcDbBlockEnd
  0
ENDSEC
  0
SECTION
  2
ENTITIES
  0
SPLINE
  5
100
100
AcDbEntity
  8
Layer_1
 62
7
100
AcDbSpline
 70
8
 71
3
 72
8
 73
4
 74
0
 40
0
 40
0
 40
0
 40
0
 40
1
 40
1
 40
1
 40
1
 10
472.331500
 20
39.837229
 30
0.0
 10
472.476730
 20
39.837229
 30
0.0
 10
472.594500
 20
39.719479
 30
0.0
 10
472.594500
 20
39.574229
 30
0.0
  0
LWPOLYLINE
  5
101
100
AcDbEntity
  8
Layer_1
 62
7
100
AcDbPolyline
 90
2
 70
0
 10
446.094490
 20
39.837229
 30
0.0
 10
472.331500
 20
39.837229
 30
0.0
  0
SPLINE
  5
102
100
AcDbEntity
  8
Layer_1
 62
7
100
AcDbSpline
 70
8
 71
3
 72
8
 73
4
 74
0
 40
0
 40
0
 40
0
 40
0
 40
1
 40
1
 40
1
 40
1
 10
472.594500
 20
39.201229
 30
0.0
 10
472.594530
 20
39.126629
 30
0.0
 10
472.625300
 20
39.055409
 30
0.0
 10
472.679500
 20
39.004229
 30
0.0
  0
SPLINE
  5
103
100
AcDbEntity
  8
Layer_1
 62
7
100
AcDbSpline
 70
8
 71
3
 72
8
 73
4
 74
0
 40
0
 40
0
 40
0
 40
0
 40
1
 40
1
 40
1
 40
1
 10
472.679500
 20
39.004229
 30
0.0
 10
472.734100
 20
38.953529
 30
0.0
 10
472.807140
 20
38.927429
 30
0.0
 10
472.881510
 20
38.932229
 30
0.0
  0
LWPOLYLINE
  5
104
100
AcDbEntity
  8
Layer_1
 62
7
100
AcDbPolyline
 90
2
 70
0
 10
472.594500
 20
39.574229
 30
0.0
 10
472.594500
 20
39.201229
 30
0.0
  0
SPLINE
  5
105
100
AcDbEntity
  8
Layer_1
 62
7
100
AcDbSpline
 70
8
 71
3
 72
8
 73
4
 74
0
 40
0
 40
0
 40
0
 40
0
 40
1
 40
1
 40
1
 40
1
 10
488.804510
 20
42.355229
 30
0.0
 10
489.487900
 20
42.513109
 30
0.0
 10
489.971820
 20
43.121849
 30
0.0
 10
489.971510
 20
43.823229
 30
0.0
  0
LWPOLYLINE
  5
106
100
AcDbEntity
  8
Layer_1
 62
7
100
AcDbPolyline
 90
3
 70
0
 10
472.881510
 20
38.932229
 30
0.0
 10
474.376520
 20
39.025229
 30
0.0
 10
488.804510
 20
42.355229
 30
0.0
  0
SPLINE
  5
107
100
AcDbEntity
  8
Layer_1
 62
7
100
AcDbSpline
 70
8
 71
3
 72
8
 73
4
 74
0
 40
0
 40
0
 40
0
 40
0
 40
1
 40
1
 40
1
 40
1
 10
489.971510
 20
45.819229
 30
0.0
 10
489.971510
 20
46.520609
 30
0.0
 10
489.487900
 20
47.129349
 30
0.0
 10
488.804510
 20
47.287229
 30
0.0
  0
LWPOLYLINE
  5
108
100
AcDbEntity
  8
Layer_1
 62
7
100
AcDbPolyline
 90
2
 70
0
 10
489.971510
 20
43.823229
 30
0.0
 10
489.971510
 20
45.819229
 30
0.0
  0
SPLINE
  5
109
100
AcDbEntity
  8
Layer_1
 62
7
100
AcDbSpline
 70
8
 71
3
 72
8
 73
4
 74
0
 40
0
 40
0
 40
0
 40
0
 40
1
 40
1
 40
1
 40
1
 10
472.881510
 20
50.710229
 30
0.0
 10
472.807110
 20
50.715229
 30
0.0
 10
472.734090
 20
50.689029
 30
0.0
 10
472.679500
 20
50.638229
 30
0.0
  0
SPLINE
  5
10a
100
AcDbEntity
  8
Layer_1
 62
7
100
AcDbSpline
 70
8
 71
3
 72
8
 73
4
 74
0
 40
0
 40
0
 40
0
 40
0
 40
1
 40
1
 40
1
 40
1
 10
472.679500
 20
50.638229
 30
0.0
 10
472.625300
 20
50.587029
 30
0.0
 10
472.594600
 20
50.515789
 30
0.0
 10
472.594500
 20
50.441229
 30
0.0
  0
LWPOLYLINE
  5
10b
100
AcDbEntity
  8
Layer_1
 62
7
100
AcDbPolyline
 90
3
 70
0
 10
488.804510
 20
47.287229
 30
0.0
 10
474.376520
 20
50.617229
 30
0.0
 10
472.881510
 20
50.710229
 30
0.0
  0
SPLINE
  5
10c
100
AcDbEntity
  8
Layer_1
 62
7
100
AcDbSpline
 70
8
 71
3
 72
8
 73
4
 74
0
 40
0
 40
0
 40
0
 40
0
 40
1
 40
1
 40
1
 40
1
 10
472.594500
 20
50.068229
 30
0.0
 10
472.594500
 20
49.922979
 30
0.0
 10
472.476730
 20
49.805229
 30
0.0
 10
472.331500
 20
49.805229
 30
0.0
  0
LWPOLYLINE
  5
10d
100
AcDbEntity
  8
Layer_1
 62
7
100
AcDbPolyline
 90
2
 70
0
 10
472.594500
 20
50.441229
 30
0.0
 10
472.594500
 20
50.068229
 30
0.0
  0
LWPOLYLINE
  5
10e
100
AcDbEntity
  8
Layer_1
 62
7
100
AcDbPolyline
 90
2
 70
0
 10
472.331500
 20
49.805229
 30
0.0
 10
446.094490
 20
49.805229
 30
0.0
  0
SPLINE
  5
10f
100
AcDbEntity
  8
Layer_1
 62
7
100
AcDbSpline
 70
8
 71
3
 72
8
 73
4
 74
0
 40
0
 40
0
 40
0
 40
0
 40
1
 40
1
 40
1
 40
1
 10
238.515490
 20
49.805229
 30
0.0
 10
238.370240
 20
49.805229
 30
0.0
 10
238.252490
 20
49.922979
 30
0.0
 10
238.252490
 20
50.068229
 30
0.0
  0
LWPOLYLINE
  5
110
100
AcDbEntity
  8
Layer_1
 62
7
100
AcDbPolyline
 90
3
 70
0
 10
264.752490
 20
49.778229
 30
0.0
 10
264.752490
 20
49.805229
 30
0.0
 10
238.515490
 20
49.805229
 30
0.0
  0
SPLINE
  5
111
100
AcDbEntity
  8
Layer_1
 62
7
100
AcDbSpline
 70
8
 71
3
 72
8
 73
4
 74
0
 40
0
 40
0
 40
0
 40
0
 40
1
 40
1
 40
1
 40
1
 10
238.252490
 20
50.441229
 30
0.0
 10
238.252460
 20
50.515829
 30
0.0
 10
238.221690
 20
50.587049
 30
0.0
 10
238.167490
 20
50.638229
 30
0.0
  0
SPLINE
  5
112
100
AcDbEntity
  8
Layer_1
 62
7
100
AcDbSpline
 70
8
 71
3
 72
8
 73
4
 74
0
 40
0
 40
0
 40
0
 40
0
 40
1
 40
1
 40
1
 40
1
 10
238.167490
 20
50.638229
 30
0.0
 10
238.112890
 20
50.689029
 30
0.0
 10
238.039860
 20
50.715029
 30
0.0
 10
237.965490
 20
50.710229
 30
0.0
  0
LWPOLYLINE
  5
113
100
AcDbEntity
  8
Layer_1
 62
7
100
AcDbPolyline
 90
2
 70
0
 10
238.252490
 20
50.068229
 30
0.0
 10
238.252490
 20
50.441229
 30
0.0
  0
SPLINE
  5
114
100
AcDbEntity
  8
Layer_1
 62
7
100
AcDbSpline
 70
8
 71
3
 72
8
 73
4
 74
0
 40
0
 40
0
 40
0
 40
0
 40
1
 40
1
 40
1
 40
1
 10
222.042490
 20
47.287229
 30
0.0
 10
221.359110
 20
47.129349
 30
0.0
 10
220.875190
 20
46.520609
 30
0.0
 10
220.875490
 20
45.819229
 30
0.0
  0
LWPOLYLINE
  5
115
100
AcDbEntity
  8
Layer_1
 62
7
100
AcDbPolyline
 90
3
 70
0
 10
237.965490
 20
50.710229
 30
0.0
 10
236.470490
 20
50.617229
 30
0.0
 10
222.042490
 20
47.287229
 30
0.0
  0
SPLINE
  5
116
100
AcDbEntity
  8
Layer_1
 62
7
100
AcDbSpline
 70
8
 71
3
 72
8
 73
4
 74
0
 40
0
 40
0
 40
0
 40
0
 40
1
 40
1
 40
1
 40
1
 10
220.875490
 20
43.823229
 30
0.0
 10
220.875230
 20
43.121849
 30
0.0
 10
221.359110
 20
42.513109
 30
0.0
 10
222.042490
 20
42.355229
 30
0.0
  0
LWPOLYLINE
  5
117
100
AcDbEntity
  8
Layer_1
 62
7
100
AcDbPolyline
 90
2
 70
0
 10
220.875490
 20
45.819229
 30
0.0
 10
220.875490
 20
43.823229
 30
0.0
  0
SPLINE
  5
118
100
AcDbEntity
  8
Layer_1
 62
7
100
AcDbSpline
 70
8
 71
3
 72
8
 73
4
 74
0
 40
0
 40
0
 40
0
 40
0
 40
1
 40
1
 40
1
 40
1
 10
237.965490
 20
38.932229
 30
0.0
 10
238.039890
 20
38.927229
 30
0.0
 10
238.112920
 20
38.953529
 30
0.0
 10
238.167490
 20
39.004229
 30
0.0
  0
SPLINE
  5
119
100
AcDbEntity
  8
Layer_1
 62
7
100
AcDbSpline
 70
8
 71
3
 72
8
 73
4
 74
0
 40
0
 40
0
 40
0
 40
0
 40
1
 40
1
 40
1
 40
1
 10
238.167490
 20
39.004229
 30
0.0
 10
238.221690
 20
39.055429
 30
0.0
 10
238.252490
 20
39.126669
 30
0.0
 10
238.252490
 20
39.201229
 30
0.0
  0
LWPOLYLINE
  5
11a
100
AcDbEntity
  8
Layer_1
 62
7
100
AcDbPolyline
 90
3
 70
0
 10
222.042490
 20
42.355229
 30
0.0
 10
236.470490
 20
39.025229
 30
0.0
 10
237.965490
 20
38.932229
 30
0.0
  0
SPLINE
  5
11b
100
AcDbEntity
  8
Layer_1
 62
7
100
AcDbSpline
 70
8
 71
3
 72
8
 73
4
 74
0
 40
0
 40
0
 40
0
 40
0
 40
1
 40
1
 40
1
 40
1
 10
238.252490
 20
39.574229
 30
0.0
 10
238.252490
 20
39.719479
 30
0.0
 10
238.370240
 20
39.837229
 30
0.0
 10
238.515490
 20
39.837229
 30
0.0
  0
LWPOLYLINE
  5
11c
100
AcDbEntity
  8
Layer_1
 62
7
100
AcDbPolyline
 90
2
 70
0
 10
238.252490
 20
39.201229
 30
0.0
 10
238.252490
 20
39.574229
 30
0.0
  0
SPLINE
  5
11d
100
AcDbEntity
  8
Layer_1
 62
7
100
AcDbSpline
 70
8
 71
3
 72
8
 73
4
 74
0
 40
0
 40
0
 40
0
 40
0
 40
1
 40
1
 40
1
 40
1
 10
177.640330
 20
37.996553
 30
0.0
 10
177.640340
 20
34.489583
 30
0.0
 10
180.303730
 20
31.646553
 30
0.0
 10
183.588800
 20
31.646553
 30
0.0
  0
SPLINE
  5
11e
100
AcDbEntity
  8
Layer_1
 62
7
100
AcDbSpline
 70
8
 71
3
 72
8
 73
4
 74
0
 40
0
 40
0
 40
0
 40
0
 40
1
 40
1
 40
1
 40
1
 10
183.588800
 20
31.646553
 30
0.0
 10
187.092830
 20
31.646553
 30
0.0
 10
187.822130
 20
31.646553
 30
0.0
 10
198.334170
 20
32.175713
 30
0.0
  0
SPLINE
  5
11f
100
AcDbEntity
  8
Layer_1
 62
7
100
AcDbSpline
 70
8
 71
3
 72
8
 73
4
 74
0
 40
0
 40
0
 40
0
 40
0
 40
1
 40
1
 40
1
 40
1
 10
198.334170
 20
32.175713
 30
0.0
 10
201.246140
 20
32.322293
 30
0.0
 10
189.815150
 20
33.867433
 30
0.0
 10
187.672310
 20
35.990583
 30
0.0
  0
SPLINE
  5
120
100
AcDbEntity
  8
Layer_1
 62
7
100
AcDbSpline
 70
8
 71
3
 72
8
 73
4
 74
0
 40
0
 40
0
 40
0
 40
0
 40
1
 40
1
 40
1
 40
1
 10
187.672310
 20
35.990583
 30
0.0
 10
187.322030
 20
36.381783
 30
0.0
 10
187.127970
 20
36.888193
 30
0.0
 10
187.127120
 20
37.413233
 30
0.0
  0
SPLINE
  5
121
100
AcDbEntity
  8
Layer_1
 62
7
100
AcDbSpline
 70
8
 71
3
 72
8
 73
4
 74
0
 40
0
 40
0
 40
0
 40
0
 40
1
 40
1
 40
1
 40
1
 10
187.127120
 20
37.413233
 30
0.0
 10
187.127260
 20
38.594083
 30
0.0
 10
188.084630
 20
39.551203
 30
0.0
 10
189.265490
 20
39.551103
 30
0.0
  0
SPLINE
  5
122
100
AcDbEntity
  8
Layer_1
 62
7
100
AcDbSpline
 70
8
 71
3
 72
8
 73
4
 74
0
 40
0
 40
0
 40
0
 40
0
 40
1
 40
1
 40
1
 40
1
 10
189.265490
 20
39.551103
 30
0.0
 10
189.790490
 20
39.551103
 30
0.0
 10
190.296870
 20
39.356513
 30
0.0
 10
190.688130
 20
39.006443
 30
0.0
  0
LWPOLYLINE
  5
123
100
AcDbEntity
  8
Layer_1
 62
7
100
AcDbPolyline
 90
2
 70
0
 10
238.515490
 20
39.837229
 30
0.0
 10
264.752490
 20
39.837229
 30
0.0
  0
SPLINE
  5
124
100
AcDbEntity
  8
Layer_1
 62
7
100
AcDbSpline
 70
8
 71
3
 72
8
 73
4
 74
0
 40
0
 40
0
 40
0
 40
0
 40
1
 40
1
 40
1
 40
1
 10
520.241670
 20
39.077673
 30
0.0
 10
520.621400
 20
39.383743
 30
0.0
 10
521.094400
 20
39.550753
 30
0.0
 10
521.582150
 20
39.551063
 30
0.0
  0
SPLINE
  5
125
100
AcDbEntity
  8
Layer_1
 62
7
100
AcDbSpline
 70
8
 71
3
 72
8
 73
4
 74
0
 40
0
 40
0
 40
0
 40
0
 40
1
 40
1
 40
1
 40
1
 10
521.582150
 20
39.551063
 30
0.0
 10
522.762760
 20
39.550893
 30
0.0
 10
523.719810
 20
38.593843
 30
0.0
 10
523.719990
 20
37.413193
 30
0.0
  0
SPLINE
  5
126
100
AcDbEntity
  8
Layer_1
 62
7
100
AcDbSpline
 70
8
 71
3
 72
8
 73
4
 74
0
 40
0
 40
0
 40
0
 40
0
 40
1
 40
1
 40
1
 40
1
 10
523.719990
 20
37.413193
 30
0.0
 10
523.719990
 20
36.925763
 30
0.0
 10
523.552130
 20
36.453153
 30
0.0
 10
523.246130
 20
36.073733
 30
0.0
  0
SPLINE
  5
127
100
AcDbEntity
  8
Layer_1
 62
7
100
AcDbSpline
 70
8
 71
3
 72
8
 73
4
 74
0
 40
0
 40
0
 40
0
 40
0
 40
1
 40
1
 40
1
 40
1
 10
523.246130
 20
36.073733
 30
0.0
 10
521.082090
 20
33.892473
 30
0.0
 10
510.224540
 20
32.915323
 30
0.0
 10
513.049830
 20
32.704883
 30
0.0
  0
LWPOLYLINE
  5
128
100
AcDbEntity
  8
Layer_1
 62
7
100
AcDbPolyline
 90
4
 70
0
 10
190.688130
 20
39.006443
 30
0.0
 10
200.180080
 20
31.646583
 30
0.0
 10
510.674260
 20
31.646583
 30
0.0
 10
520.241670
 20
39.077673
 30
0.0
  0
SPLINE
  5
129
100
AcDbEntity
  8
Layer_1
 62
7
100
AcDbSpline
 70
8
 71
3
 72
8
 73
4
 74
0
 40
0
 40
0
 40
0
 40
0
 40
1
 40
1
 40
1
 40
1
 10
527.258770
 20
31.646553
 30
0.0
 10
530.534770
 20
31.402543
 30
0.0
 10
533.206710
 20
34.489583
 30
0.0
 10
533.206710
 20
37.996553
 30
0.0
  0
LWPOLYLINE
  5
12a
100
AcDbEntity
  8
Layer_1
 62
7
100
AcDbPolyline
 90
2
 70
0
 10
513.049830
 20
32.704883
 30
0.0
 10
527.258770
 20
31.646553
 30
0.0
  0
SPLINE
  5
12b
100
AcDbEntity
  8
Layer_1
 62
7
100
AcDbSpline
 70
8
 71
3
 72
8
 73
4
 74
0
 40
0
 40
0
 40
0
 40
0
 40
1
 40
1
 40
1
 40
1
 10
533.206710
 20
51.645843
 30
0.0
 10
533.206710
 20
55.153153
 30
0.0
 10
530.534730
 20
58.240063
 30
0.0
 10
527.258770
 20
57.995843
 30
0.0
  0
LWPOLYLINE
  5
12c
100
AcDbEntity
  8
Layer_1
 62
7
100
AcDbPolyline
 90
2
 70
0
 10
533.206710
 20
37.996553
 30
0.0
 10
533.206710
 20
51.645843
 30
0.0
  0
SPLINE
  5
12d
100
AcDbEntity
  8
Layer_1
 62
7
100
AcDbSpline
 70
8
 71
3
 72
8
 73
4
 74
0
 40
0
 40
0
 40
0
 40
0
 40
1
 40
1
 40
1
 40
1
 10
513.062220
 20
56.937503
 30
0.0
 10
510.247050
 20
56.727633
 30
0.0
 10
521.077570
 20
55.761343
 30
0.0
 10
523.233190
 20
53.585763
 30
0.0
  0
SPLINE
  5
12e
100
AcDbEntity
  8
Layer_1
 62
7
100
AcDbSpline
 70
8
 71
3
 72
8
 73
4
 74
0
 40
0
 40
0
 40
0
 40
0
 40
1
 40
1
 40
1
 40
1
 10
523.233190
 20
53.585763
 30
0.0
 10
523.547440
 20
53.203673
 30
0.0
 10
523.719460
 20
52.724463
 30
0.0
 10
523.719990
 20
52.229793
 30
0.0
  0
SPLINE
  5
12f
100
AcDbEntity
  8
Layer_1
 62
7
100
AcDbSpline
 70
8
 71
3
 72
8
 73
4
 74
0
 40
0
 40
0
 40
0
 40
0
 40
1
 40
1
 40
1
 40
1
 10
523.719990
 20
52.229793
 30
0.0
 10
523.720090
 20
51.048943
 30
0.0
 10
522.762970
 20
50.091573
 30
0.0
 10
521.582120
 20
50.091433
 30
0.0
  0
SPLINE
  5
130
100
AcDbEntity
  8
Layer_1
 62
7
100
AcDbSpline
 70
8
 71
3
 72
8
 73
4
 74
0
 40
0
 40
0
 40
0
 40
0
 40
1
 40
1
 40
1
 40
1
 10
521.582120
 20
50.091433
 30
0.0
 10
521.087240
 20
50.091433
 30
0.0
 10
520.607820
 20
50.263833
 30
0.0
 10
520.225620
 20
50.578193
 30
0.0
  0
SPLINE
  5
131
100
AcDbEntity
  8
Layer_1
 62
7
100
AcDbSpline
 70
8
 71
3
 72
8
 73
4
 74
0
 40
0
 40
0
 40
0
 40
0
 40
1
 40
1
 40
1
 40
1
 10
520.225620
 20
50.578193
 30
0.0
 10
520.225620
 20
50.578193
 30
0.0
 10
520.039210
 20
50.746823
 30
0.0
 10
519.964600
 20
50.834553
 30
0.0
  0
LWPOLYLINE
  5
132
100
AcDbEntity
  8
Layer_1
 62
7
100
AcDbPolyline
 90
2
 70
0
 10
527.258770
 20
57.995843
 30
0.0
 10
513.062220
 20
56.937503
 30
0.0
  0
SPLINE
  5
133
100
AcDbEntity
  8
Layer_1
 62
7
100
AcDbSpline
 70
8
 71
3
 72
8
 73
4
 74
0
 40
0
 40
0
 40
0
 40
0
 40
1
 40
1
 40
1
 40
1
 10
190.661740
 20
50.611923
 30
0.0
 10
190.273970
 20
50.276073
 30
0.0
 10
189.778390
 20
50.090833
 30
0.0
 10
189.265410
 20
50.089983
 30
0.0
  0
SPLINE
  5
134
100
AcDbEntity
  8
Layer_1
 62
7
100
AcDbSpline
 70
8
 71
3
 72
8
 73
4
 74
0
 40
0
 40
0
 40
0
 40
0
 40
1
 40
1
 40
1
 40
1
 10
189.265410
 20
50.089983
 30
0.0
 10
188.084390
 20
50.089883
 30
0.0
 10
187.126950
 20
51.047313
 30
0.0
 10
187.127050
 20
52.228343
 30
0.0
  0
SPLINE
  5
135
100
AcDbEntity
  8
Layer_1
 62
7
100
AcDbSpline
 70
8
 71
3
 72
8
 73
4
 74
0
 40
0
 40
0
 40
0
 40
0
 40
1
 40
1
 40
1
 40
1
 10
187.127050
 20
52.228343
 30
0.0
 10
187.127050
 20
52.741423
 30
0.0
 10
187.312720
 20
53.237223
 30
0.0
 10
187.648490
 20
53.625173
 30
0.0
  0
SPLINE
  5
136
100
AcDbEntity
  8
Layer_1
 62
7
100
AcDbSpline
 70
8
 71
3
 72
8
 73
4
 74
0
 40
0
 40
0
 40
0
 40
0
 40
1
 40
1
 40
1
 40
1
 10
187.648490
 20
53.625173
 30
0.0
 10
189.793560
 20
55.787133
 30
0.0
 10
201.236360
 20
57.318053
 30
0.0
 10
198.317060
 20
57.465263
 30
0.0
  0
SPLINE
  5
137
100
AcDbEntity
  8
Layer_1
 62
7
100
AcDbSpline
 70
8
 71
3
 72
8
 73
4
 74
0
 40
0
 40
0
 40
0
 40
0
 40
1
 40
1
 40
1
 40
1
 10
198.317060
 20
57.465263
 30
0.0
 10
187.822100
 20
57.994433
 30
0.0
 10
187.087080
 20
57.994433
 30
0.0
 10
183.588760
 20
57.994433
 30
0.0
  0
SPLINE
  5
138
100
AcDbEntity
  8
Layer_1
 62
7
100
AcDbSpline
 70
8
 71
3
 72
8
 73
4
 74
0
 40
0
 40
0
 40
0
 40
0
 40
1
 40
1
 40
1
 40
1
 10
183.588760
 20
57.994433
 30
0.0
 10
180.303700
 20
57.994433
 30
0.0
 10
177.640280
 20
55.151743
 30
0.0
 10
177.640290
 20
51.644433
 30
0.0
  0
LWPOLYLINE
  5
139
100
AcDbEntity
  8
Layer_1
 62
7
100
AcDbPolyline
 90
4
 70
0
 10
519.964600
 20
50.834553
 30
0.0
 10
510.687140
 20
57.995383
 30
0.0
 10
200.163000
 20
57.995383
 30
0.0
 10
190.661740
 20
50.611923
 30
0.0
  0
SPLINE
  5
13a
100
AcDbEntity
  8
Layer_1
 62
7
100
AcDbSpline
 70
8
 71
3
 72
8
 73
4
 74
0
 40
0
 40
0
 40
0
 40
0
 40
1
 40
1
 40
1
 40
1
 10
206.350090
 20
47.228463
 30
0.0
 10
207.679590
 20
47.228493
 30
0.0
 10
208.757380
 20
46.150723
 30
0.0
 10
208.757370
 20
44.821213
 30
0.0
  0
SPLINE
  5
13b
100
AcDbEntity
  8
Layer_1
 62
7
100
AcDbSpline
 70
8
 71
3
 72
8
 73
4
 74
0
 40
0
 40
0
 40
0
 40
0
 40
1
 40
1
 40
1
 40
1
 10
208.757370
 20
44.821213
 30
0.0
 10
208.757390
 20
43.491693
 30
0.0
 10
207.679600
 20
42.413903
 30
0.0
 10
206.350090
 20
42.413933
 30
0.0
  0
SPLINE
  5
13c
100
AcDbEntity
  8
Layer_1
 62
7
100
AcDbSpline
 70
8
 71
3
 72
8
 73
4
 74
0
 40
0
 40
0
 40
0
 40
0
 40
1
 40
1
 40
1
 40
1
 10
206.350090
 20
42.413933
 30
0.0
 10
205.020590
 20
42.413923
 30
0.0
 10
203.942820
 20
43.491703
 30
0.0
 10
203.942840
 20
44.821213
 30
0.0
  0
SPLINE
  5
13d
100
AcDbEntity
  8
Layer_1
 62
7
100
AcDbSpline
 70
8
 71
3
 72
8
 73
4
 74
0
 40
0
 40
0
 40
0
 40
0
 40
1
 40
1
 40
1
 40
1
 10
203.942840
 20
44.821213
 30
0.0
 10
203.942840
 20
46.150703
 30
0.0
 10
205.020610
 20
47.228473
 30
0.0
 10
206.350090
 20
47.228463
 30
0.0
  0
LWPOLYLINE
  5
13e
100
AcDbEntity
  8
Layer_1
 62
7
100
AcDbPolyline
 90
2
 70
0
 10
177.640290
 20
51.644433
 30
0.0
 10
177.640330
 20
37.996553
 30
0.0
  0
SPLINE
  5
13f
100
AcDbEntity
  8
Layer_1
 62
7
100
AcDbSpline
 70
8
 71
3
 72
8
 73
4
 74
0
 40
0
 40
0
 40
0
 40
0
 40
1
 40
1
 40
1
 40
1
 10
504.212750
 20
47.228463
 30
0.0
 10
505.542250
 20
47.228493
 30
0.0
 10
506.620040
 20
46.150723
 30
0.0
 10
506.620040
 20
44.821213
 30
0.0
  0
SPLINE
  5
140
100
AcDbEntity
  8
Layer_1
 62
7
100
AcDbSpline
 70
8
 71
3
 72
8
 73
4
 74
0
 40
0
 40
0
 40
0
 40
0
 40
1
 40
1
 40
1
 40
1
 10
506.620040
 20
44.821213
 30
0.0
 10
506.620060
 20
43.491693
 30
0.0
 10
505.542260
 20
42.413903
 30
0.0
 10
504.212750
 20
42.413933
 30
0.0
  0
SPLINE
  5
141
100
AcDbEntity
  8
Layer_1
 62
7
100
AcDbSpline
 70
8
 71
3
 72
8
 73
4
 74
0
 40
0
 40
0
 40
0
 40
0
 40
1
 40
1
 40
1
 40
1
 10
504.212750
 20
42.413933
 30
0.0
 10
502.883250
 20
42.413923
 30
0.0
 10
501.805480
 20
43.491703
 30
0.0
 10
501.805500
 20
44.821213
 30
0.0
  0
SPLINE
  5
142
100
AcDbEntity
  8
Layer_1
 62
7
100
AcDbSpline
 70
8
 71
3
 72
8
 73
4
 74
0
 40
0
 40
0
 40
0
 40
0
 40
1
 40
1
 40
1
 40
1
 10
501.805500
 20
44.821213
 30
0.0
 10
501.805490
 20
46.150703
 30
0.0
 10
502.883260
 20
47.228473
 30
0.0
 10
504.212750
 20
47.228463
 30
0.0
  0
LWPOLYLINE
  5
143
100
AcDbEntity
  8
Layer_1
 62
7
100
AcDbPolyline
 90
1
 70
1
 10
206.350090
 20
47.228463
 30
0.0
  0
LWPOLYLINE
  5
144
100
AcDbEntity
  8
Layer_1
 62
7
100
AcDbPolyline
 90
1
 70
1
 10
504.212750
 20
47.228463
 30
0.0
  0
ENDSEC
  0
SECTION
  2
OBJECTS
  0
DICTIONARY
  5
C
330
0
100
AcDbDictionary
  3
ACAD_GROUP
350
D
  3
ACAD_MLINESTYLE
350
17
  0
DICTIONARY
  5
D
330
C
100
AcDbDictionary
  0
DICTIONARY
  5
1A
330
C
100
AcDbDictionary
  0
DICTIONARY
  5
17
330
C
100
AcDbDictionary
  3
STANDARD
350
18
  0
DICTIONARY
  5
19
330
C
100
AcDbDictionary
  0
ENDSEC
  0
EOF
