<?xml version="1.0" encoding="UTF-8" standalone="no"?>
<!-- Created with Inkscape (http://www.inkscape.org/) -->

<svg
   xmlns:dc="http://purl.org/dc/elements/1.1/"
   xmlns:cc="http://creativecommons.org/ns#"
   xmlns:rdf="http://www.w3.org/1999/02/22-rdf-syntax-ns#"
   xmlns:svg="http://www.w3.org/2000/svg"
   xmlns="http://www.w3.org/2000/svg"
   xmlns:sodipodi="http://sodipodi.sourceforge.net/DTD/sodipodi-0.dtd"
   xmlns:inkscape="http://www.inkscape.org/namespaces/inkscape"
   width="694.97198mm"
   height="25.973mm"
   viewBox="0 0 694.97199 25.972999"
   version="1.1"
   id="svg845"
   inkscape:version="0.92.2 (5c3e80d, 2017-08-06)"
   sodipodi:docname="ELASTICMOD_Origami_V20_Headband_kerv_version.svg">
  <defs
     id="defs839" />
  <sodipodi:namedview
     id="base"
     pagecolor="#ffffff"
     bordercolor="#666666"
     borderopacity="1.0"
     inkscape:pageopacity="0.0"
     inkscape:pageshadow="2"
     inkscape:zoom="0.5"
     inkscape:cx="1382.5965"
     inkscape:cy="145.65462"
     inkscape:document-units="mm"
     inkscape:current-layer="layer1"
     showgrid="false"
     fit-margin-top="0"
     fit-margin-left="0"
     fit-margin-right="0"
     fit-margin-bottom="0"
     inkscape:window-width="1600"
     inkscape:window-height="837"
     inkscape:window-x="-8"
     inkscape:window-y="-8"
     inkscape:window-maximized="1" />
  <metadata
     id="metadata842">
    <rdf:RDF>
      <cc:Work
         rdf:about="">
        <dc:format>image/svg+xml</dc:format>
        <dc:type
           rdf:resource="http://purl.org/dc/dcmitype/StillImage" />
        <dc:title></dc:title>
      </cc:Work>
    </rdf:RDF>
  </metadata>
  <g
     inkscape:label="Layer 1"
     inkscape:groupmode="layer"
     id="layer1"
     transform="translate(865.76405,-106.10289)"
     style="display:inline">
    <g
       id="g891"
       transform="translate(7.9375,2.6458333)">
      <g
         id="g883">
        <g
           id="g876">
          <path
             sodipodi:nodetypes="cssccccccccccccsscccssccccccccccccssc"
             style="fill:none;stroke:#000000;stroke-width:0.1;stroke-miterlimit:4;stroke-dasharray:none"
             inkscape:connector-curvature="0"
             d="m -427.60706,89.592828 h 26.23701 c 0.14523,0 0.263,0.11775 0.263,0.263 v 0.373 c 3e-5,0.0746 0.0308,0.14582 0.085,0.197 0.0546,0.0507 0.12764,0.0768 0.20201,0.072 l 1.49501,-0.093 14.42799,-3.33 c 0.68339,-0.15788 1.16731,-0.76662 1.167,-1.468 v -1.996 c 0,-0.70138 -0.48361,-1.31012 -1.167,-1.468 l -14.42799,-3.33 -1.49501,-0.093 c -0.0744,-0.005 -0.14742,0.0212 -0.20201,0.072 -0.0542,0.0512 -0.0849,0.12244 -0.085,0.197 v 0.373 c 0,0.14525 -0.11777,0.263 -0.263,0.263 h -26.23701 m -181.342,0.027 v -0.027 h -26.237 c -0.14525,0 -0.263,-0.11775 -0.263,-0.263 v -0.373 c -3e-5,-0.0746 -0.0308,-0.14582 -0.085,-0.197 -0.0546,-0.0508 -0.12763,-0.0768 -0.202,-0.072 l -1.495,0.093 -14.428,3.33 c -0.68338,0.15788 -1.1673,0.76662 -1.167,1.468 v 1.996 c -2.6e-4,0.70138 0.48362,1.31012 1.167,1.468 l 14.428,3.33 1.495,0.093 c 0.0744,0.005 0.14743,-0.0213 0.202,-0.072 0.0542,-0.0512 0.085,-0.12244 0.085,-0.197 v -0.373 c 0,-0.14525 0.11775,-0.263 0.263,-0.263 h 26.237"
             id="path1973" />
          <path
             sodipodi:nodetypes="sssccccccccccsssssscccccccccccssss"
             inkscape:connector-curvature="0"
             id="path1654"
             d="m -696.06122,91.433504 c 1e-5,3.50697 2.6634,6.35 5.94847,6.35 3.50403,0 4.23333,0 14.74537,-0.52916 2.91197,-0.14658 -8.51902,-1.69172 -10.66186,-3.81487 -0.35028,-0.3912 -0.54434,-0.89761 -0.54519,-1.42265 1.4e-4,-1.18085 0.95751,-2.13797 2.13837,-2.13787 0.525,0 1.03138,0.19459 1.42264,0.54466 l 9.49195,7.35986 h 310.49418 l 9.56741,-7.43109 c 0.37973,-0.30607 0.85273,-0.47308 1.34048,-0.47339 1.18061,1.7e-4 2.13766,0.95722 2.13784,2.13787 0,0.48743 -0.16786,0.96004 -0.47386,1.33946 -2.16404,2.18126 -13.02159,3.15841 -10.1963,3.36885 l 14.20894,1.05833 c 3.276,0.24401 5.94794,-2.84303 5.94794,-6.35 v -13.64929 c 0,-3.50731 -2.67198,-6.59422 -5.94794,-6.35 l -14.19655,1.05834 c -2.81517,0.20987 8.01535,1.17616 10.17097,3.35174 0.31425,0.38209 0.48627,0.8613 0.4868,1.35597 10e-5,1.18085 -0.95702,2.13822 -2.13787,2.13836 -0.49488,0 -0.9743,-0.1724 -1.3565,-0.48676 0,0 -0.18641,-0.16863 -0.26102,-0.25636 l -9.27746,-7.16083 h -310.52414 l -9.50126,7.38346 c -0.38777,0.33585 -0.88335,0.52109 -1.39633,0.52194 -1.18102,1e-4 -2.13846,-0.95733 -2.13836,-2.13836 0,-0.51308 0.18567,-1.00888 0.52144,-1.39683 2.14507,-2.16196 13.58787,-3.69288 10.66857,-3.84009 -10.49496,-0.52917 -11.22998,-0.52917 -14.7283,-0.52917 -3.28506,0 -5.94848,2.84269 -5.94847,6.35 z"
             style="fill:none;stroke:#000000;stroke-width:0.3503083;stroke-linecap:butt;stroke-linejoin:miter;stroke-miterlimit:10;stroke-dasharray:none;stroke-opacity:1" />
          <path
             style="opacity:1;fill:none;fill-opacity:1;stroke:#000000;stroke-width:0.1854676;stroke-miterlimit:4;stroke-dasharray:none;stroke-opacity:1"
             d="m -667.35146,82.201594 c 1.3295,-3e-5 2.40729,1.07774 2.40728,2.40725 2e-5,1.32952 -1.07777,2.40731 -2.40728,2.40728 -1.3295,10e-6 -2.40727,-1.07777 -2.40725,-2.40728 0,-1.32949 1.07777,-2.40726 2.40725,-2.40725 z"
             id="path1853"
             inkscape:connector-curvature="0"
             sodipodi:nodetypes="ccccc" />
          <path
             style="opacity:1;fill:none;fill-opacity:1;stroke:#000000;stroke-width:0.1854676;stroke-miterlimit:4;stroke-dasharray:none;stroke-opacity:1"
             d="m -369.4888,82.201594 c 1.3295,-3e-5 2.40729,1.07774 2.40729,2.40725 2e-5,1.32952 -1.07778,2.40731 -2.40729,2.40728 -1.3295,10e-6 -2.40727,-1.07777 -2.40725,-2.40728 -10e-6,-1.32949 1.07776,-2.40726 2.40725,-2.40725 z"
             id="path1853-5"
             inkscape:connector-curvature="0"
             sodipodi:nodetypes="ccccc" />
        </g>
      </g>
    </g>
  </g>
</svg>
