  0
SECTION
  2
HEADER
  9
$ACADVER
  1
AC1014
  9
$HANDSEED
  5
FFFF
  9
$MEASUREMENT
 70
     1
  0
ENDSEC
  0
SECTION
  2
TABLES
  0
TABLE
  2
VPORT
  5
8
330
0
100
AcDbSymbolTable
 70
     4
  0
VPORT
  5
2E
330
8
100
AcDbSymbolTableRecord
100
AcDbViewportTableRecord
  2
*ACTIVE
 70
     0
 10
0.0
 20
0.0
 11
1.0
 21
1.0
 12
210.0
 22
148.5
 13
0.0
 23
0.0
 14
10.0
 24
10.0
 15
10.0
 25
10.0
 16
0.0
 26
0.0
 36
1.0
 17
0.0
 27
0.0
 37
0.0
 40
341.0
 41
1.24
 42
50.0
 43
0.0
 44
0.0
 50
0.0
 51
0.0
 71
     0
 72
   100
 73
     1
 74
     3
 75
     0
 76
     0
 77
     0
 78
     0
  0
ENDTAB
  0
TABLE
  2
LTYPE
  5
5
330
0
100
AcDbSymbolTable
 70
     1
  0
LTYPE
  5
14
330
5
100
AcDbSymbolTableRecord
100
AcDbLinetypeTableRecord
  2
BYBLOCK
 70
     0
  3

 72
    65
 73
     0
 40
0.0
  0
LTYPE
  5
15
330
5
100
AcDbSymbolTableRecord
100
AcDbLinetypeTableRecord
  2
BYLAYER
 70
     0
  3

 72
    65
 73
     0
 40
0.0
  0
LTYPE
  5
16
330
5
100
AcDbSymbolTableRecord
100
AcDbLinetypeTableRecord
  2
CONTINUOUS
 70
     0
  3
Solid line
 72
    65
 73
     0
 40
0.0
  0
ENDTAB
  0
TABLE
  2
LAYER
  5
2
100
AcDbSymbolTable
 70
2
  0
LAYER
  5
50
100
AcDbSymbolTableRecord
100
AcDbLayerTableRecord
  2
0
 70
0
  6
CONTINUOUS
  0
LAYER
  5
51
100
AcDbSymbolTableRecord
100
AcDbLayerTableRecord
  2
Layer_1
 70
0
  6
CONTINUOUS
  0
ENDTAB
  0
TABLE
  2
STYLE
  5
3
330
0
100
AcDbSymbolTable
 70
     1
  0
STYLE
  5
11
330
3
100
AcDbSymbolTableRecord
100
AcDbTextStyleTableRecord
  2
STANDARD
 70
     0
 40
0.0
 41
1.0
 50
0.0
 71
     0
 42
2.5
  3
txt
  4

  0
ENDTAB
  0
TABLE
  2
VIEW
  5
6
330
0
100
AcDbSymbolTable
 70
     0
  0
ENDTAB
  0
TABLE
  2
UCS
  5
7
330
0
100
AcDbSymbolTable
 70
     0
  0
ENDTAB
  0
TABLE
  2
APPID
  5
9
330
0
100
AcDbSymbolTable
 70
     2
  0
APPID
  5
12
330
9
100
AcDbSymbolTableRecord
100
AcDbRegAppTableRecord
  2
ACAD
 70
     0
  0
ENDTAB
  0
TABLE
  2
DIMSTYLE
  5
A
330
0
100
AcDbSymbolTable
 70
     1
  0
DIMSTYLE
105
27
330
A
100
AcDbSymbolTableRecord
100
AcDbDimStyleTableRecord
  2
ISO-25
 70
     0
  3

  4

  5

  6

  7

 40
1.0
 41
2.5
 42
0.625
 43
3.75
 44
1.25
 45
0.0
 46
0.0
 47
0.0
 48
0.0
140
2.5
141
2.5
142
0.0
143
0.03937007874016
144
1.0
145
0.0
146
1.0
147
0.625
 71
     0
 72
     0
 73
     0
 74
     0
 75
     0
 76
     0
 77
     1
 78
     8
170
     0
171
     3
172
     1
173
     0
174
     0
175
     0
176
     0
177
     0
178
     0
270
     2
271
     2
272
     2
273
     2
274
     3
340
11
275
     0
280
     0
281
     0
282
     0
283
     0
284
     8
285
     0
286
     0
287
     3
288
     0
  0
ENDTAB
  0
TABLE
  2
BLOCK_RECORD
  5
1
330
0
100
AcDbSymbolTable
 70
     1
  0
BLOCK_RECORD
  5
1F
330
1
100
AcDbSymbolTableRecord
100
AcDbBlockTableRecord
  2
*MODEL_SPACE
  0
BLOCK_RECORD
  5
1B
330
1
100
AcDbSymbolTableRecord
100
AcDbBlockTableRecord
  2
*PAPER_SPACE
  0
ENDTAB
  0
ENDSEC
  0
SECTION
  2
BLOCKS
  0
BLOCK
  5
20
330
1F
100
AcDbEntity
  8
0
100
AcDbBlockBegin
  2
*MODEL_SPACE
 70
     0
 10
0.0
 20
0.0
 30
0.0
  3
*MODEL_SPACE
  1

  0
ENDBLK
  5
21
330
1F
100
AcDbEntity
  8
0
100
AcDbBlockEnd
  0
BLOCK
  5
1C
330
1B
100
AcDbEntity
 67
     1
  8
0
100
AcDbBlockBegin
  2
*PAPER_SPACE
  1

  0
ENDBLK
  5
1D
330
1B
100
AcDbEntity
 67
     1
  8
0
100
AcDbBlockEnd
  0
ENDSEC
  0
SECTION
  2
ENTITIES
  0
SPLINE
  5
100
100
AcDbEntity
  8
Layer_1
 62
7
100
AcDbSpline
 70
8
 71
3
 72
8
 73
4
 74
0
 40
0
 40
0
 40
0
 40
0
 40
1
 40
1
 40
1
 40
1
 10
128.561760
 20
272.860468
 30
0.0
 10
130.739750
 20
272.337698
 30
0.0
 10
132.654560
 20
274.392298
 30
0.0
 10
131.979880
 20
276.528128
 30
0.0
  0
LWPOLYLINE
  5
101
100
AcDbEntity
  8
Layer_1
 62
7
100
AcDbPolyline
 90
2
 70
0
 10
116.719920
 20
275.702888
 30
0.0
 10
128.561760
 20
272.860468
 30
0.0
  0
SPLINE
  5
102
100
AcDbEntity
  8
Layer_1
 62
7
100
AcDbSpline
 70
8
 71
3
 72
8
 73
4
 74
0
 40
0
 40
0
 40
0
 40
0
 40
1
 40
1
 40
1
 40
1
 10
126.502370
 20
293.867068
 30
0.0
 10
126.180710
 20
294.885328
 30
0.0
 10
125.332850
 20
295.649568
 30
0.0
 10
124.286770
 20
295.864138
 30
0.0
  0
LWPOLYLINE
  5
103
100
AcDbEntity
  8
Layer_1
 62
7
100
AcDbPolyline
 90
2
 70
0
 10
131.979880
 20
276.528128
 30
0.0
 10
126.502370
 20
293.867068
 30
0.0
  0
SPLINE
  5
104
100
AcDbEntity
  8
Layer_1
 62
7
100
AcDbSpline
 70
8
 71
3
 72
8
 73
4
 74
0
 40
0
 40
0
 40
0
 40
0
 40
1
 40
1
 40
1
 40
1
 10
109.303080
 20
299.460620
 30
0.0
 10
108.273620
 20
299.744280
 30
0.0
 10
107.171260
 20
299.448220
 30
0.0
 10
106.422420
 20
298.686980
 30
0.0
  0
LWPOLYLINE
  5
105
100
AcDbEntity
  8
Layer_1
 62
7
100
AcDbPolyline
 90
2
 70
0
 10
124.286770
 20
295.864138
 30
0.0
 10
109.303080
 20
299.460620
 30
0.0
  0
SPLINE
  5
106
100
AcDbEntity
  8
Layer_1
 62
7
100
AcDbSpline
 70
8
 71
3
 72
8
 73
4
 74
0
 40
0
 40
0
 40
0
 40
0
 40
1
 40
1
 40
1
 40
1
 10
93.671430
 20
285.723188
 30
0.0
 10
92.100680
 20
284.126308
 30
0.0
 10
92.874290
 20
281.426298
 30
0.0
 10
95.052360
 20
280.903538
 30
0.0
  0
LWPOLYLINE
  5
107
100
AcDbEntity
  8
Layer_1
 62
7
100
AcDbPolyline
 90
2
 70
0
 10
106.422420
 20
298.686980
 30
0.0
 10
93.671430
 20
285.723188
 30
0.0
  0
LWPOLYLINE
  5
108
100
AcDbEntity
  8
Layer_1
 62
7
100
AcDbPolyline
 90
2
 70
0
 10
95.052360
 20
280.903538
 30
0.0
 10
106.894200
 20
278.061388
 30
0.0
  0
LWPOLYLINE
  5
109
100
AcDbEntity
  8
Layer_1
 62
7
100
AcDbPolyline
 90
2
 70
0
 10
229.604105
 20
332.316310
 30
0.0
 10
229.617105
 20
332.316310
 30
0.0
  0
LWPOLYLINE
  5
10a
100
AcDbEntity
  8
Layer_1
 62
7
100
AcDbPolyline
 90
2
 70
0
 10
73.316170
 20
332.316310
 30
0.0
 10
73.303170
 20
332.316310
 30
0.0
  0
SPLINE
  5
10b
100
AcDbEntity
  8
Layer_1
 62
7
100
AcDbSpline
 70
8
 71
3
 72
8
 73
4
 74
0
 40
0
 40
0
 40
0
 40
0
 40
1
 40
1
 40
1
 40
1
 10
207.867915
 20
280.903538
 30
0.0
 10
210.045985
 20
281.426298
 30
0.0
 10
210.819605
 20
284.126308
 30
0.0
 10
209.248855
 20
285.723188
 30
0.0
  0
LWPOLYLINE
  5
10c
100
AcDbEntity
  8
Layer_1
 62
7
100
AcDbPolyline
 90
2
 70
0
 10
196.026075
 20
278.061388
 30
0.0
 10
207.867915
 20
280.903538
 30
0.0
  0
SPLINE
  5
10d
100
AcDbEntity
  8
Layer_1
 62
7
100
AcDbSpline
 70
8
 71
3
 72
8
 73
4
 74
0
 40
0
 40
0
 40
0
 40
0
 40
1
 40
1
 40
1
 40
1
 10
196.497855
 20
298.686980
 30
0.0
 10
195.749015
 20
299.448230
 30
0.0
 10
194.646665
 20
299.744280
 30
0.0
 10
193.617195
 20
299.460620
 30
0.0
  0
LWPOLYLINE
  5
10e
100
AcDbEntity
  8
Layer_1
 62
7
100
AcDbPolyline
 90
2
 70
0
 10
209.248855
 20
285.723188
 30
0.0
 10
196.497855
 20
298.686980
 30
0.0
  0
SPLINE
  5
10f
100
AcDbEntity
  8
Layer_1
 62
7
100
AcDbSpline
 70
8
 71
3
 72
8
 73
4
 74
0
 40
0
 40
0
 40
0
 40
0
 40
1
 40
1
 40
1
 40
1
 10
178.633505
 20
295.864138
 30
0.0
 10
177.587425
 20
295.649558
 30
0.0
 10
176.739575
 20
294.885328
 30
0.0
 10
176.417915
 20
293.867068
 30
0.0
  0
LWPOLYLINE
  5
110
100
AcDbEntity
  8
Layer_1
 62
7
100
AcDbPolyline
 90
2
 70
0
 10
193.617195
 20
299.460620
 30
0.0
 10
178.633505
 20
295.864138
 30
0.0
  0
SPLINE
  5
111
100
AcDbEntity
  8
Layer_1
 62
7
100
AcDbSpline
 70
8
 71
3
 72
8
 73
4
 74
0
 40
0
 40
0
 40
0
 40
0
 40
1
 40
1
 40
1
 40
1
 10
170.940405
 20
276.528128
 30
0.0
 10
170.265715
 20
274.392298
 30
0.0
 10
172.180535
 20
272.337698
 30
0.0
 10
174.358525
 20
272.860468
 30
0.0
  0
LWPOLYLINE
  5
112
100
AcDbEntity
  8
Layer_1
 62
7
100
AcDbPolyline
 90
2
 70
0
 10
176.417915
 20
293.867068
 30
0.0
 10
170.940405
 20
276.528128
 30
0.0
  0
LWPOLYLINE
  5
113
100
AcDbEntity
  8
Layer_1
 62
7
100
AcDbPolyline
 90
2
 70
0
 10
174.358525
 20
272.860468
 30
0.0
 10
186.200355
 20
275.702888
 30
0.0
  0
SPLINE
  5
114
100
AcDbEntity
  8
Layer_1
 62
7
100
AcDbSpline
 70
8
 71
3
 72
8
 73
4
 74
0
 40
0
 40
0
 40
0
 40
0
 40
1
 40
1
 40
1
 40
1
 10
134.119070
 20
256.474848
 30
0.0
 10
131.829820
 20
256.486548
 30
0.0
 10
130.396690
 20
258.954738
 30
0.0
 10
131.521400
 20
260.948688
 30
0.0
  0
LWPOLYLINE
  5
115
100
AcDbEntity
  8
Layer_1
 62
7
100
AcDbPolyline
 90
2
 70
0
 10
146.297066
 20
256.412648
 30
0.0
 10
134.119070
 20
256.474848
 30
0.0
  0
SPLINE
  5
116
100
AcDbEntity
  8
Layer_1
 62
7
100
AcDbSpline
 70
8
 71
3
 72
8
 73
4
 74
0
 40
0
 40
0
 40
0
 40
0
 40
1
 40
1
 40
1
 40
1
 10
141.134770
 20
277.992618
 30
0.0
 10
141.669310
 20
278.940318
 30
0.0
 10
142.675080
 20
279.524308
 30
0.0
 10
143.763120
 20
279.518728
 30
0.0
  0
LWPOLYLINE
  5
117
100
AcDbEntity
  8
Layer_1
 62
7
100
AcDbPolyline
 90
2
 70
0
 10
131.521400
 20
260.948688
 30
0.0
 10
141.134770
 20
277.992618
 30
0.0
  0
SPLINE
  5
118
100
AcDbEntity
  8
Layer_1
 62
7
100
AcDbSpline
 70
8
 71
3
 72
8
 73
4
 74
0
 40
0
 40
0
 40
0
 40
0
 40
1
 40
1
 40
1
 40
1
 10
159.157155
 20
279.518728
 30
0.0
 10
160.245205
 20
279.524728
 30
0.0
 10
161.250975
 20
278.940318
 30
0.0
 10
161.785515
 20
277.992618
 30
0.0
  0
LWPOLYLINE
  5
119
100
AcDbEntity
  8
Layer_1
 62
7
100
AcDbPolyline
 90
2
 70
0
 10
143.763120
 20
279.518728
 30
0.0
 10
159.157155
 20
279.518728
 30
0.0
  0
SPLINE
  5
11a
100
AcDbEntity
  8
Layer_1
 62
7
100
AcDbSpline
 70
8
 71
3
 72
8
 73
4
 74
0
 40
0
 40
0
 40
0
 40
0
 40
1
 40
1
 40
1
 40
1
 10
171.398885
 20
260.948688
 30
0.0
 10
172.523595
 20
258.954738
 30
0.0
 10
171.090455
 20
256.486518
 30
0.0
 10
168.801205
 20
256.474848
 30
0.0
  0
LWPOLYLINE
  5
11b
100
AcDbEntity
  8
Layer_1
 62
7
100
AcDbPolyline
 90
2
 70
0
 10
161.785515
 20
277.992618
 30
0.0
 10
171.398885
 20
260.948688
 30
0.0
  0
LWPOLYLINE
  5
11c
100
AcDbEntity
  8
Layer_1
 62
7
100
AcDbPolyline
 90
2
 70
0
 10
168.801205
 20
256.474848
 30
0.0
 10
156.623215
 20
256.412648
 30
0.0
  0
LWPOLYLINE
  5
11d
100
AcDbEntity
  8
Layer_1
 62
7
100
AcDbPolyline
 90
2
 70
0
 10
260.299346
 20
219.001897
 30
0.0
 10
261.978346
 20
192.307897
 30
0.0
  0
LWPOLYLINE
  5
11e
100
AcDbEntity
  8
Layer_1
 62
7
100
AcDbPolyline
 90
2
 70
0
 10
285.175326
 20
212.461896
 30
0.0
 10
285.807336
 20
202.374897
 30
0.0
  0
LWPOLYLINE
  5
11f
100
AcDbEntity
  8
Layer_1
 62
7
100
AcDbPolyline
 90
2
 70
0
 10
207.424356
 20
274.176888
 30
0.0
 10
194.531356
 20
262.736891
 30
0.0
  0
LWPOLYLINE
  5
120
100
AcDbEntity
  8
Layer_1
 62
7
100
AcDbPolyline
 90
2
 70
0
 10
108.406781
 20
262.736901
 30
0.0
 10
95.513781
 20
274.176908
 30
0.0
  0
LWPOLYLINE
  5
121
100
AcDbEntity
  8
Layer_1
 62
7
100
AcDbPolyline
 90
2
 70
0
 10
80.816781
 20
307.192910
 30
0.0
 10
78.212781
 20
324.232910
 30
0.0
  0
LWPOLYLINE
  5
122
100
AcDbEntity
  8
Layer_1
 62
7
100
AcDbPolyline
 90
2
 70
0
 10
40.958781
 20
192.307899
 30
0.0
 10
42.637781
 20
219.001900
 30
0.0
  0
LWPOLYLINE
  5
123
100
AcDbEntity
  8
Layer_1
 62
7
100
AcDbPolyline
 90
2
 70
0
 10
17.129781
 20
202.374898
 30
0.0
 10
17.763771
 20
212.487897
 30
0.0
  0
LWPOLYLINE
  5
124
100
AcDbEntity
  8
Layer_1
 62
7
100
AcDbPolyline
 90
2
 70
0
 10
224.724776
 20
324.232990
 30
0.0
 10
222.120776
 20
307.192990
 30
0.0
  0
SPLINE
  5
125
100
AcDbEntity
  8
Layer_1
 62
7
100
AcDbSpline
 70
8
 71
3
 72
8
 73
4
 74
0
 40
0
 40
0
 40
0
 40
0
 40
1
 40
1
 40
1
 40
1
 10
0.059001
 20
260.465898
 30
0.0
 10
0.059131
 20
260.559588
 30
0.0
 10
0.072201
 20
260.652813
 30
0.0
 10
0.098001
 20
260.742899
 30
0.0
  0
SPLINE
  5
126
100
AcDbEntity
  8
Layer_1
 62
7
100
AcDbSpline
 70
8
 71
3
 72
8
 73
4
 74
0
 40
0
 40
0
 40
0
 40
0
 40
1
 40
1
 40
1
 40
1
 10
0.098001
 20
260.742899
 30
0.0
 10
0.463031
 20
262.024511
 30
0.0
 10
1.323411
 20
263.107998
 30
0.0
 10
2.489001
 20
263.753897
 30
0.0
  0
SPLINE
  5
127
100
AcDbEntity
  8
Layer_1
 62
7
100
AcDbSpline
 70
8
 71
3
 72
8
 73
4
 74
0
 40
0
 40
0
 40
0
 40
0
 40
1
 40
1
 40
1
 40
1
 10
2.489001
 20
263.753897
 30
0.0
 10
3.654851
 20
264.399528
 30
0.0
 10
5.029821
 20
264.554261
 30
0.0
 10
6.310001
 20
264.183897
 30
0.0
  0
SPLINE
  5
128
100
AcDbEntity
  8
Layer_1
 62
7
100
AcDbSpline
 70
8
 71
3
 72
8
 73
4
 74
0
 40
0
 40
0
 40
0
 40
0
 40
1
 40
1
 40
1
 40
1
 10
6.310001
 20
264.183897
 30
0.0
 10
12.471051
 20
262.402685
 30
0.0
 10
18.683681
 20
260.807349
 30
0.0
 10
24.939431
 20
259.399943
 30
0.0
  0
SPLINE
  5
129
100
AcDbEntity
  8
Layer_1
 62
7
100
AcDbSpline
 70
8
 71
3
 72
8
 73
4
 74
0
 40
0
 40
0
 40
0
 40
0
 40
1
 40
1
 40
1
 40
1
 10
24.939431
 20
259.399943
 30
0.0
 10
27.625891
 20
258.795550
 30
0.0
 10
30.320301
 20
258.225814
 30
0.0
 10
33.022001
 20
257.690898
 30
0.0
  0
LWPOLYLINE
  5
12a
100
AcDbEntity
  8
Layer_1
 62
7
100
AcDbPolyline
 90
173
 70
0
 10
240.386776
 20
13.272980
 30
0.0
 10
240.161776
 20
13.148990
 30
0.0
 10
240.160776
 20
13.148990
 30
0.0
 10
238.557776
 20
12.297990
 30
0.0
 10
238.556776
 20
12.297990
 30
0.0
 10
236.938776
 20
11.476980
 30
0.0
 10
235.304786
 20
10.683980
 30
0.0
 10
235.304786
 20
10.683980
 30
0.0
 10
233.656776
 20
9.918990
 30
0.0
 10
231.994776
 20
9.182990
 30
0.0
 10
231.993776
 20
9.182990
 30
0.0
 10
230.317776
 20
8.476980
 30
0.0
 10
228.626776
 20
7.797980
 30
0.0
 10
226.922776
 20
7.148980
 30
0.0
 10
226.921776
 20
7.148980
 30
0.0
 10
225.203776
 20
6.527980
 30
0.0
 10
223.471776
 20
5.935970
 30
0.0
 10
221.726776
 20
5.372990
 30
0.0
 10
219.967776
 20
4.837980
 30
0.0
 10
218.195776
 20
4.331990
 30
0.0
 10
216.410776
 20
3.853990
 30
0.0
 10
214.612776
 20
3.403990
 30
0.0
 10
212.801776
 20
2.982990
 30
0.0
 10
210.977776
 20
2.589970
 30
0.0
 10
209.140776
 20
2.224980
 30
0.0
 10
207.291776
 20
1.887980
 30
0.0
 10
205.429776
 20
1.578980
 30
0.0
 10
203.555776
 20
1.297990
 30
0.0
 10
203.554776
 20
1.297990
 30
0.0
 10
201.668776
 20
1.044990
 30
0.0
 10
201.667776
 20
1.044990
 30
0.0
 10
199.768776
 20
0.819990
 30
0.0
 10
197.856776
 20
0.622980
 30
0.0
 10
195.932776
 20
0.452990
 30
0.0
 10
193.996776
 20
0.310990
 30
0.0
 10
193.995776
 20
0.310990
 30
0.0
 10
192.047776
 20
0.196000
 30
0.0
 10
192.046776
 20
0.196000
 30
0.0
 10
190.085776
 20
0.109000
 30
0.0
 10
188.112776
 20
0.050000
 30
0.0
 10
114.825311
 20
0.050000
 30
0.0
 10
112.852311
 20
0.109000
 30
0.0
 10
110.891311
 20
0.196000
 30
0.0
 10
110.890311
 20
0.196000
 30
0.0
 10
108.942311
 20
0.310990
 30
0.0
 10
108.941311
 20
0.310990
 30
0.0
 10
107.005301
 20
0.452990
 30
0.0
 10
105.081301
 20
0.622980
 30
0.0
 10
103.169311
 20
0.819990
 30
0.0
 10
101.270301
 20
1.044990
 30
0.0
 10
101.269301
 20
1.044990
 30
0.0
 10
99.383301
 20
1.297990
 30
0.0
 10
99.382301
 20
1.297990
 30
0.0
 10
97.508301
 20
1.578980
 30
0.0
 10
95.646301
 20
1.887980
 30
0.0
 10
93.797301
 20
2.224980
 30
0.0
 10
91.960301
 20
2.589970
 30
0.0
 10
90.136301
 20
2.982990
 30
0.0
 10
88.325301
 20
3.403990
 30
0.0
 10
86.527301
 20
3.853990
 30
0.0
 10
84.742301
 20
4.331990
 30
0.0
 10
82.970301
 20
4.837980
 30
0.0
 10
81.211301
 20
5.372990
 30
0.0
 10
79.466301
 20
5.935970
 30
0.0
 10
77.734301
 20
6.527980
 30
0.0
 10
76.016301
 20
7.148980
 30
0.0
 10
76.015301
 20
7.148980
 30
0.0
 10
74.311301
 20
7.797980
 30
0.0
 10
72.620301
 20
8.476980
 30
0.0
 10
70.944301
 20
9.182990
 30
0.0
 10
70.943301
 20
9.182990
 30
0.0
 10
69.281301
 20
9.918990
 30
0.0
 10
67.633301
 20
10.683980
 30
0.0
 10
67.633301
 20
10.683980
 30
0.0
 10
65.999301
 20
11.476980
 30
0.0
 10
64.381301
 20
12.297990
 30
0.0
 10
64.380301
 20
12.297990
 30
0.0
 10
62.777301
 20
13.148990
 30
0.0
 10
62.776301
 20
13.148990
 30
0.0
 10
61.188301
 20
14.026990
 30
0.0
 10
61.187301
 20
14.026990
 30
0.0
 10
59.614291
 20
14.933980
 30
0.0
 10
58.056301
 20
15.868990
 30
0.0
 10
56.513301
 20
16.831990
 30
0.0
 10
54.987301
 20
17.822990
 30
0.0
 10
53.477291
 20
18.840970
 30
0.0
 10
53.477291
 20
18.840970
 30
0.0
 10
51.983301
 20
19.886980
 30
0.0
 10
50.506291
 20
20.958960
 30
0.0
 10
50.505291
 20
20.958960
 30
0.0
 10
49.045291
 20
22.057960
 30
0.0
 10
47.601291
 20
23.182970
 30
0.0
 10
46.176291
 20
24.333990
 30
0.0
 10
44.767291
 20
25.509980
 30
0.0
 10
43.377291
 20
26.710980
 30
0.0
 10
43.377291
 20
26.710980
 30
0.0
 10
42.005291
 20
27.936980
 30
0.0
 10
42.004291
 20
27.936980
 30
0.0
 10
40.650291
 20
29.185970
 30
0.0
 10
39.315291
 20
30.457980
 30
0.0
 10
37.998291
 20
31.752960
 30
0.0
 10
36.701291
 20
33.070980
 30
0.0
 10
35.423291
 20
34.408980
 30
0.0
 10
34.165291
 20
35.768960
 30
0.0
 10
34.165291
 20
35.768960
 30
0.0
 10
32.927291
 20
37.149960
 30
0.0
 10
32.926291
 20
37.149960
 30
0.0
 10
31.708291
 20
38.549970
 30
0.0
 10
30.511291
 20
39.968960
 30
0.0
 10
29.334291
 20
41.406970
 30
0.0
 10
28.179291
 20
42.862970
 30
0.0
 10
27.044291
 20
44.335960
 30
0.0
 10
25.931291
 20
45.824950
 30
0.0
 10
25.931291
 20
45.824950
 30
0.0
 10
24.840291
 20
47.330960
 30
0.0
 10
23.771291
 20
48.851970
 30
0.0
 10
22.724291
 20
50.387960
 30
0.0
 10
22.723291
 20
50.387960
 30
0.0
 10
21.699291
 20
51.937970
 30
0.0
 10
20.697291
 20
53.501970
 30
0.0
 10
19.718291
 20
55.078970
 30
0.0
 10
18.763291
 20
56.667950
 30
0.0
 10
17.830291
 20
58.268970
 30
0.0
 10
16.921291
 20
59.880970
 30
0.0
 10
16.035291
 20
61.503950
 30
0.0
 10
15.174291
 20
63.136960
 30
0.0
 10
14.336291
 20
64.779970
 30
0.0
 10
13.522291
 20
66.431950
 30
0.0
 10
12.732291
 20
68.091970
 30
0.0
 10
12.731291
 20
68.091970
 30
0.0
 10
11.965291
 20
69.759980
 30
0.0
 10
11.223291
 20
71.436990
 30
0.0
 10
10.506291
 20
73.120990
 30
0.0
 10
10.506291
 20
73.121990
 30
0.0
 10
9.813291
 20
74.812990
 30
0.0
 10
9.144291
 20
76.510990
 30
0.0
 10
8.500291
 20
78.214990
 30
0.0
 10
8.500291
 20
78.215990
 30
0.0
 10
7.879291
 20
79.925990
 30
0.0
 10
7.283291
 20
81.641990
 30
0.0
 10
7.283291
 20
81.642990
 30
0.0
 10
6.711291
 20
83.364000
 30
0.0
 10
6.711291
 20
83.365000
 30
0.0
 10
6.164291
 20
85.092000
 30
0.0
 10
5.640291
 20
86.824000
 30
0.0
 10
5.140291
 20
88.561000
 30
0.0
 10
4.664291
 20
90.303000
 30
0.0
 10
4.213291
 20
92.049000
 30
0.0
 10
3.784291
 20
93.800000
 30
0.0
 10
3.380291
 20
95.554000
 30
0.0
 10
3.380291
 20
95.555000
 30
0.0
 10
2.999291
 20
97.313000
 30
0.0
 10
2.642291
 20
99.075993
 30
0.0
 10
2.308291
 20
100.841994
 30
0.0
 10
2.307291
 20
100.841994
 30
0.0
 10
1.998001
 20
102.616642
 30
0.0
 10
1.711001
 20
104.390644
 30
0.0
 10
1.447001
 20
106.167644
 30
0.0
 10
1.206001
 20
107.947644
 30
0.0
 10
0.988001
 20
109.731642
 30
0.0
 10
0.793001
 20
111.518643
 30
0.0
 10
0.620001
 20
113.308642
 30
0.0
 10
0.620001
 20
113.309742
 30
0.0
 10
0.471001
 20
115.102744
 30
0.0
 10
0.344001
 20
116.899744
 30
0.0
 10
0.240001
 20
118.699744
 30
0.0
 10
0.159001
 20
120.502742
 30
0.0
 10
0.100001
 20
122.308743
 30
0.0
 10
0.100001
 20
122.309843
 30
0.0
 10
0.064001
 20
124.118728
 30
0.0
 10
0.050001
 20
125.931727
 30
0.0
 10
0.059001
 20
127.746726
 30
0.0
 10
0.059001
 20
260.465898
 30
0.0
  0
SPLINE
  5
12b
100
AcDbEntity
  8
Layer_1
 62
7
100
AcDbSpline
 70
8
 71
3
 72
8
 73
4
 74
0
 40
0
 40
0
 40
0
 40
0
 40
1
 40
1
 40
1
 40
1
 10
25.166001
 20
260.628898
 30
0.0
 10
25.290761
 20
261.285803
 30
0.0
 10
25.733721
 20
261.837808
 30
0.0
 10
26.348001
 20
262.101897
 30
0.0
  0
LWPOLYLINE
  5
12c
100
AcDbEntity
  8
Layer_1
 62
7
100
AcDbPolyline
 90
2
 70
0
 10
24.939431
 20
259.399943
 30
0.0
 10
25.166001
 20
260.628898
 30
0.0
  0
SPLINE
  5
12d
100
AcDbEntity
  8
Layer_1
 62
7
100
AcDbSpline
 70
8
 71
3
 72
8
 73
4
 74
0
 40
0
 40
0
 40
0
 40
0
 40
1
 40
1
 40
1
 40
1
 10
33.542001
 20
265.193897
 30
0.0
 10
34.219941
 20
265.484740
 30
0.0
 10
34.981021
 20
265.516763
 30
0.0
 10
35.681001
 20
265.283897
 30
0.0
  0
LWPOLYLINE
  5
12e
100
AcDbEntity
  8
Layer_1
 62
7
100
AcDbPolyline
 90
2
 70
0
 10
26.348001
 20
262.101897
 30
0.0
 10
33.542001
 20
265.193897
 30
0.0
  0
SPLINE
  5
12f
100
AcDbEntity
  8
Layer_1
 62
7
100
AcDbSpline
 70
8
 71
3
 72
8
 73
4
 74
0
 40
0
 40
0
 40
0
 40
0
 40
1
 40
1
 40
1
 40
1
 10
41.172001
 20
256.229590
 30
0.0
 10
56.138561
 20
253.758320
 30
0.0
 10
71.184951
 20
251.797517
 30
0.0
 10
86.285001
 20
250.350588
 30
0.0
  0
LWPOLYLINE
  5
130
100
AcDbEntity
  8
Layer_1
 62
7
100
AcDbPolyline
 90
72
 70
0
 10
35.681001
 20
265.283897
 30
0.0
 10
39.678001
 20
263.956898
 30
0.0
 10
39.735001
 20
263.936898
 30
0.0
 10
39.736001
 20
263.936898
 30
0.0
 10
39.793001
 20
263.914888
 30
0.0
 10
39.848001
 20
263.891898
 30
0.0
 10
39.902001
 20
263.866898
 30
0.0
 10
39.903001
 20
263.865798
 30
0.0
 10
39.956001
 20
263.839788
 30
0.0
 10
40.008001
 20
263.812788
 30
0.0
 10
40.059001
 20
263.783788
 30
0.0
 10
40.060001
 20
263.783788
 30
0.0
 10
40.110001
 20
263.753788
 30
0.0
 10
40.160001
 20
263.721788
 30
0.0
 10
40.208001
 20
263.689788
 30
0.0
 10
40.208001
 20
263.688688
 30
0.0
 10
40.256001
 20
263.655688
 30
0.0
 10
40.303001
 20
263.621688
 30
0.0
 10
40.304001
 20
263.621688
 30
0.0
 10
40.350001
 20
263.587688
 30
0.0
 10
40.396001
 20
263.551688
 30
0.0
 10
40.441001
 20
263.516688
 30
0.0
 10
40.485001
 20
263.479688
 30
0.0
 10
40.528001
 20
263.443688
 30
0.0
 10
40.571001
 20
263.406688
 30
0.0
 10
40.614001
 20
263.368688
 30
0.0
 10
40.615001
 20
263.367588
 30
0.0
 10
40.656001
 20
263.330588
 30
0.0
 10
40.697001
 20
263.292588
 30
0.0
 10
40.736001
 20
263.254588
 30
0.0
 10
40.775001
 20
263.215588
 30
0.0
 10
40.813001
 20
263.177588
 30
0.0
 10
40.850001
 20
263.137588
 30
0.0
 10
40.850001
 20
263.136488
 30
0.0
 10
40.885001
 20
263.097488
 30
0.0
 10
40.886001
 20
263.097488
 30
0.0
 10
40.920001
 20
263.057488
 30
0.0
 10
40.954001
 20
263.016488
 30
0.0
 10
41.016001
 20
262.934488
 30
0.0
 10
41.017001
 20
262.933388
 30
0.0
 10
41.045001
 20
262.890388
 30
0.0
 10
41.073001
 20
262.848388
 30
0.0
 10
41.073001
 20
262.847288
 30
0.0
 10
41.099001
 20
262.803288
 30
0.0
 10
41.123001
 20
262.759288
 30
0.0
 10
41.146001
 20
262.714288
 30
0.0
 10
41.147001
 20
262.713188
 30
0.0
 10
41.168001
 20
262.668188
 30
0.0
 10
41.187001
 20
262.622188
 30
0.0
 10
41.205001
 20
262.576188
 30
0.0
 10
41.205001
 20
262.575088
 30
0.0
 10
41.222001
 20
262.528088
 30
0.0
 10
41.237001
 20
262.481088
 30
0.0
 10
41.251001
 20
262.433088
 30
0.0
 10
41.251001
 20
262.431988
 30
0.0
 10
41.263001
 20
262.384988
 30
0.0
 10
41.274001
 20
262.336988
 30
0.0
 10
41.274001
 20
262.335888
 30
0.0
 10
41.283001
 20
262.287888
 30
0.0
 10
41.284001
 20
262.287888
 30
0.0
 10
41.292001
 20
262.238888
 30
0.0
 10
41.299001
 20
262.190888
 30
0.0
 10
41.299001
 20
262.189788
 30
0.0
 10
41.304001
 20
262.140788
 30
0.0
 10
41.308001
 20
262.091788
 30
0.0
 10
41.312001
 20
261.993788
 30
0.0
 10
41.312001
 20
261.992688
 30
0.0
 10
41.312001
 20
261.942688
 30
0.0
 10
41.312001
 20
261.941588
 30
0.0
 10
41.310001
 20
261.892588
 30
0.0
 10
41.168001
 20
256.229590
 30
0.0
 10
41.172001
 20
256.229590
 30
0.0
  0
SPLINE
  5
131
100
AcDbEntity
  8
Layer_1
 62
7
100
AcDbSpline
 70
8
 71
3
 72
8
 73
4
 74
0
 40
0
 40
0
 40
0
 40
0
 40
1
 40
1
 40
1
 40
1
 10
78.371001
 20
252.497590
 30
0.0
 10
78.434001
 20
253.163179
 30
0.0
 10
78.823281
 20
253.754075
 30
0.0
 10
79.410001
 20
254.074589
 30
0.0
  0
LWPOLYLINE
  5
132
100
AcDbEntity
  8
Layer_1
 62
7
100
AcDbPolyline
 90
2
 70
0
 10
78.257391
 20
251.168771
 30
0.0
 10
78.371001
 20
252.497590
 30
0.0
  0
SPLINE
  5
133
100
AcDbEntity
  8
Layer_1
 62
7
100
AcDbSpline
 70
8
 71
3
 72
8
 73
4
 74
0
 40
0
 40
0
 40
0
 40
0
 40
1
 40
1
 40
1
 40
1
 10
86.281001
 20
257.829590
 30
0.0
 10
86.928411
 20
258.183306
 30
0.0
 10
87.683091
 20
258.287203
 30
0.0
 10
88.402001
 20
258.121589
 30
0.0
  0
LWPOLYLINE
  5
134
100
AcDbEntity
  8
Layer_1
 62
7
100
AcDbPolyline
 90
2
 70
0
 10
79.410001
 20
254.074589
 30
0.0
 10
86.281001
 20
257.829590
 30
0.0
  0
SPLINE
  5
135
100
AcDbEntity
  8
Layer_1
 62
7
100
AcDbSpline
 70
8
 71
3
 72
8
 73
4
 74
0
 40
0
 40
0
 40
0
 40
0
 40
1
 40
1
 40
1
 40
1
 10
94.721991
 20
249.558500
 30
0.0
 10
109.185481
 20
248.294083
 30
0.0
 10
123.681471
 20
247.433748
 30
0.0
 10
138.192991
 20
246.978500
 30
0.0
  0
LWPOLYLINE
  5
136
100
AcDbEntity
  8
Layer_1
 62
7
100
AcDbPolyline
 90
75
 70
0
 10
88.402001
 20
258.121589
 30
0.0
 10
92.506001
 20
257.175590
 30
0.0
 10
92.508001
 20
257.175590
 30
0.0
 10
92.552001
 20
257.158580
 30
0.0
 10
92.597001
 20
257.141590
 30
0.0
 10
92.598001
 20
257.141590
 30
0.0
 10
92.643001
 20
257.123600
 30
0.0
 10
92.689001
 20
257.104600
 30
0.0
 10
92.736001
 20
257.085600
 30
0.0
 10
92.783001
 20
257.065600
 30
0.0
 10
92.830001
 20
257.045600
 30
0.0
 10
92.831001
 20
257.045600
 30
0.0
 10
92.879001
 20
257.024590
 30
0.0
 10
92.927001
 20
257.002600
 30
0.0
 10
92.927001
 20
257.001500
 30
0.0
 10
92.976001
 20
256.978510
 30
0.0
 10
93.026001
 20
256.954510
 30
0.0
 10
93.075001
 20
256.930510
 30
0.0
 10
93.076001
 20
256.930510
 30
0.0
 10
93.126001
 20
256.904500
 30
0.0
 10
93.176001
 20
256.877500
 30
0.0
 10
93.177001
 20
256.877500
 30
0.0
 10
93.227001
 20
256.848500
 30
0.0
 10
93.278001
 20
256.819500
 30
0.0
 10
93.329001
 20
256.788500
 30
0.0
 10
93.379001
 20
256.756500
 30
0.0
 10
93.380001
 20
256.756500
 30
0.0
 10
93.430001
 20
256.722500
 30
0.0
 10
93.480001
 20
256.688500
 30
0.0
 10
93.481001
 20
256.687400
 30
0.0
 10
93.530001
 20
256.651400
 30
0.0
 10
93.531001
 20
256.651400
 30
0.0
 10
93.580001
 20
256.613400
 30
0.0
 10
93.628001
 20
256.575400
 30
0.0
 10
93.628991
 20
256.575400
 30
0.0
 10
93.675991
 20
256.535400
 30
0.0
 10
93.722991
 20
256.495400
 30
0.0
 10
93.722991
 20
256.494300
 30
0.0
 10
93.768991
 20
256.452300
 30
0.0
 10
93.812991
 20
256.410300
 30
0.0
 10
93.855991
 20
256.366300
 30
0.0
 10
93.896991
 20
256.322300
 30
0.0
 10
93.896991
 20
256.321200
 30
0.0
 10
93.935991
 20
256.277200
 30
0.0
 10
93.973991
 20
256.231200
 30
0.0
 10
94.008991
 20
256.186200
 30
0.0
 10
94.008991
 20
256.185100
 30
0.0
 10
94.042991
 20
256.139100
 30
0.0
 10
94.073991
 20
256.092100
 30
0.0
 10
94.102991
 20
256.046100
 30
0.0
 10
94.102991
 20
256.045000
 30
0.0
 10
94.129991
 20
255.998000
 30
0.0
 10
94.154991
 20
255.951000
 30
0.0
 10
94.177991
 20
255.905000
 30
0.0
 10
94.177991
 20
255.903900
 30
0.0
 10
94.197991
 20
255.856900
 30
0.0
 10
94.198981
 20
255.856900
 30
0.0
 10
94.216981
 20
255.810900
 30
0.0
 10
94.216981
 20
255.809800
 30
0.0
 10
94.233981
 20
255.762800
 30
0.0
 10
94.248981
 20
255.716800
 30
0.0
 10
94.261981
 20
255.671800
 30
0.0
 10
94.261981
 20
255.670700
 30
0.0
 10
94.273981
 20
255.624700
 30
0.0
 10
94.283981
 20
255.579700
 30
0.0
 10
94.292981
 20
255.535700
 30
0.0
 10
94.292981
 20
255.534600
 30
0.0
 10
94.300981
 20
255.490600
 30
0.0
 10
94.306981
 20
255.446600
 30
0.0
 10
94.312981
 20
255.403600
 30
0.0
 10
94.312981
 20
255.402500
 30
0.0
 10
94.317981
 20
255.359500
 30
0.0
 10
94.321981
 20
255.317500
 30
0.0
 10
94.324981
 20
255.275500
 30
0.0
 10
94.721991
 20
249.558500
 30
0.0
  0
SPLINE
  5
137
100
AcDbEntity
  8
Layer_1
 62
7
100
AcDbSpline
 70
8
 71
3
 72
8
 73
4
 74
0
 40
0
 40
0
 40
0
 40
0
 40
1
 40
1
 40
1
 40
1
 10
73.313001
 20
332.329900
 30
0.0
 10
73.383601
 20
333.018970
 30
0.0
 10
73.821181
 20
333.616050
 30
0.0
 10
74.457001
 20
333.890900
 30
0.0
  0
SPLINE
  5
138
100
AcDbEntity
  8
Layer_1
 62
7
100
AcDbSpline
 70
8
 71
3
 72
8
 73
4
 74
0
 40
0
 40
0
 40
0
 40
0
 40
1
 40
1
 40
1
 40
1
 10
74.457001
 20
333.890900
 30
0.0
 10
75.047951
 20
334.146170
 30
0.0
 10
75.673971
 20
334.311020
 30
0.0
 10
76.314001
 20
334.379900
 30
0.0
  0
SPLINE
  5
139
100
AcDbEntity
  8
Layer_1
 62
7
100
AcDbSpline
 70
8
 71
3
 72
8
 73
4
 74
0
 40
0
 40
0
 40
0
 40
0
 40
1
 40
1
 40
1
 40
1
 10
76.314001
 20
334.379900
 30
0.0
 10
77.170651
 20
334.471800
 30
0.0
 10
78.025681
 20
334.192650
 30
0.0
 10
78.663001
 20
333.612900
 30
0.0
  0
LWPOLYLINE
  5
13a
100
AcDbEntity
  8
Layer_1
 62
7
100
AcDbPolyline
 90
137
 70
0
 10
138.192991
 20
246.978500
 30
0.0
 10
138.201991
 20
246.974500
 30
0.0
 10
138.701991
 20
246.459499
 30
0.0
 10
138.704991
 20
246.450499
 30
0.0
 10
138.704991
 20
244.760497
 30
0.0
 10
138.779991
 20
244.760497
 30
0.0
 10
138.779991
 20
246.936499
 30
0.0
 10
138.020991
 20
247.022499
 30
0.0
 10
137.246991
 20
247.120499
 30
0.0
 10
136.467991
 20
247.230500
 30
0.0
 10
135.684991
 20
247.351499
 30
0.0
 10
134.896991
 20
247.483500
 30
0.0
 10
134.104991
 20
247.627499
 30
0.0
 10
133.308991
 20
247.782500
 30
0.0
 10
132.507991
 20
247.948500
 30
0.0
 10
131.701991
 20
248.126498
 30
0.0
 10
130.892991
 20
248.315498
 30
0.0
 10
130.891991
 20
248.315498
 30
0.0
 10
130.078991
 20
248.515499
 30
0.0
 10
130.077991
 20
248.515499
 30
0.0
 10
129.259991
 20
248.727499
 30
0.0
 10
128.436991
 20
248.951498
 30
0.0
 10
127.610991
 20
249.187498
 30
0.0
 10
127.609991
 20
249.187498
 30
0.0
 10
126.778981
 20
249.434500
 30
0.0
 10
125.943991
 20
249.694498
 30
0.0
 10
125.104981
 20
249.965500
 30
0.0
 10
124.261981
 20
250.249499
 30
0.0
 10
123.414981
 20
250.545499
 30
0.0
 10
122.563981
 20
250.853500
 30
0.0
 10
121.709991
 20
251.175498
 30
0.0
 10
120.851981
 20
251.509500
 30
0.0
 10
119.990991
 20
251.856499
 30
0.0
 10
119.127001
 20
252.217499
 30
0.0
 10
118.261001
 20
252.591498
 30
0.0
 10
118.260001
 20
252.591498
 30
0.0
 10
117.391001
 20
252.980499
 30
0.0
 10
116.519001
 20
253.382499
 30
0.0
 10
116.519001
 20
253.383599
 30
0.0
 10
115.646001
 20
253.800598
 30
0.0
 10
115.645001
 20
253.800598
 30
0.0
 10
114.770001
 20
254.231599
 30
0.0
 10
113.893001
 20
254.678600
 30
0.0
 10
113.015001
 20
255.140599
 30
0.0
 10
113.014001
 20
255.140599
 30
0.0
 10
112.136001
 20
255.618598
 30
0.0
 10
112.135001
 20
255.618598
 30
0.0
 10
111.256001
 20
256.111599
 30
0.0
 10
110.377001
 20
256.621599
 30
0.0
 10
109.499001
 20
257.147599
 30
0.0
 10
108.621001
 20
257.689600
 30
0.0
 10
107.745001
 20
258.249599
 30
0.0
 10
106.872001
 20
258.824599
 30
0.0
 10
106.872001
 20
258.825699
 30
0.0
 10
106.001001
 20
259.418699
 30
0.0
 10
105.134001
 20
260.027698
 30
0.0
 10
105.133001
 20
260.027698
 30
0.0
 10
104.270001
 20
260.653700
 30
0.0
 10
103.411001
 20
261.295698
 30
0.0
 10
102.557011
 20
261.954698
 30
0.0
 10
101.709001
 20
262.630698
 30
0.0
 10
100.867001
 20
263.321700
 30
0.0
 10
100.032001
 20
264.029698
 30
0.0
 10
99.205001
 20
264.754699
 30
0.0
 10
99.205001
 20
264.755799
 30
0.0
 10
98.386001
 20
265.494799
 30
0.0
 10
97.576001
 20
266.250798
 30
0.0
 10
97.575001
 20
266.250798
 30
0.0
 10
96.775001
 20
267.021800
 30
0.0
 10
95.984001
 20
267.806800
 30
0.0
 10
95.204001
 20
268.607799
 30
0.0
 10
94.434991
 20
269.422798
 30
0.0
 10
93.677001
 20
270.251798
 30
0.0
 10
93.677001
 20
270.252898
 30
0.0
 10
92.931991
 20
271.094897
 30
0.0
 10
92.200001
 20
271.950898
 30
0.0
 10
91.480001
 20
272.819900
 30
0.0
 10
90.775001
 20
273.700900
 30
0.0
 10
90.083001
 20
274.594900
 30
0.0
 10
89.405001
 20
275.498900
 30
0.0
 10
89.405001
 20
275.499900
 30
0.0
 10
88.743001
 20
276.415900
 30
0.0
 10
88.095001
 20
277.341900
 30
0.0
 10
87.463001
 20
278.277900
 30
0.0
 10
86.846001
 20
279.222900
 30
0.0
 10
86.243991
 20
280.176900
 30
0.0
 10
85.659001
 20
281.138900
 30
0.0
 10
85.659001
 20
281.139900
 30
0.0
 10
85.089001
 20
282.108900
 30
0.0
 10
84.535001
 20
283.085900
 30
0.0
 10
83.996991
 20
284.067900
 30
0.0
 10
83.475001
 20
285.056900
 30
0.0
 10
82.969001
 20
286.049900
 30
0.0
 10
82.479001
 20
287.047900
 30
0.0
 10
82.479001
 20
287.048900
 30
0.0
 10
82.003991
 20
288.050900
 30
0.0
 10
81.546001
 20
289.055900
 30
0.0
 10
81.545001
 20
289.055900
 30
0.0
 10
81.103001
 20
290.063900
 30
0.0
 10
80.675001
 20
291.072900
 30
0.0
 10
80.263001
 20
292.084900
 30
0.0
 10
79.866001
 20
293.096899
 30
0.0
 10
79.866001
 20
293.097899
 30
0.0
 10
79.484001
 20
294.109899
 30
0.0
 10
79.117001
 20
295.121899
 30
0.0
 10
78.764001
 20
296.132899
 30
0.0
 10
78.426001
 20
297.141899
 30
0.0
 10
78.102001
 20
298.148900
 30
0.0
 10
77.792001
 20
299.153900
 30
0.0
 10
77.495001
 20
300.154900
 30
0.0
 10
77.495001
 20
300.155900
 30
0.0
 10
77.212001
 20
301.153900
 30
0.0
 10
76.942001
 20
302.146900
 30
0.0
 10
76.685001
 20
303.135900
 30
0.0
 10
76.440001
 20
304.118900
 30
0.0
 10
76.207001
 20
305.096900
 30
0.0
 10
75.777001
 20
307.031900
 30
0.0
 10
75.392001
 20
308.938900
 30
0.0
 10
75.392001
 20
308.939900
 30
0.0
 10
75.050001
 20
310.813900
 30
0.0
 10
74.747001
 20
312.651900
 30
0.0
 10
74.481001
 20
314.451900
 30
0.0
 10
74.250001
 20
316.209900
 30
0.0
 10
74.250001
 20
316.210900
 30
0.0
 10
74.050001
 20
317.925900
 30
0.0
 10
73.879001
 20
319.594900
 30
0.0
 10
73.736001
 20
321.215900
 30
0.0
 10
73.616001
 20
322.787900
 30
0.0
 10
73.519001
 20
324.308900
 30
0.0
 10
73.443001
 20
325.778900
 30
0.0
 10
73.385001
 20
327.195900
 30
0.0
 10
73.385001
 20
327.196900
 30
0.0
 10
73.344001
 20
328.560900
 30
0.0
 10
73.319001
 20
329.870900
 30
0.0
 10
73.309001
 20
331.126900
 30
0.0
 10
73.313001
 20
332.328900
 30
0.0
 10
73.313001
 20
332.329900
 30
0.0
  0
SPLINE
  5
13b
100
AcDbEntity
  8
Layer_1
 62
7
100
AcDbSpline
 70
8
 71
3
 72
8
 73
4
 74
0
 40
0
 40
0
 40
0
 40
0
 40
1
 40
1
 40
1
 40
1
 10
78.664001
 20
333.611900
 30
0.0
 10
91.152931
 20
318.635470
 30
0.0
 10
107.399911
 20
307.248160
 30
0.0
 10
125.739531
 20
300.617750
 30
0.0
  0
SPLINE
  5
13c
100
AcDbEntity
  8
Layer_1
 62
7
100
AcDbSpline
 70
8
 71
3
 72
8
 73
4
 74
0
 40
0
 40
0
 40
0
 40
0
 40
1
 40
1
 40
1
 40
1
 10
125.739531
 20
300.617750
 30
0.0
 10
133.884101
 20
297.587230
 30
0.0
 10
142.504421
 20
296.035539
 30
0.0
 10
151.194536
 20
296.035749
 30
0.0
  0
LWPOLYLINE
  5
13d
100
AcDbEntity
  8
Layer_1
 62
7
100
AcDbPolyline
 90
2
 70
0
 10
78.663001
 20
333.612900
 30
0.0
 10
78.664001
 20
333.611900
 30
0.0
  0
SPLINE
  5
13e
100
AcDbEntity
  8
Layer_1
 62
7
100
AcDbSpline
 70
8
 71
3
 72
8
 73
4
 74
0
 40
0
 40
0
 40
0
 40
0
 40
1
 40
1
 40
1
 40
1
 10
151.744536
 20
296.035749
 30
0.0
 10
160.434646
 20
296.035539
 30
0.0
 10
169.054966
 20
297.587230
 30
0.0
 10
177.199536
 20
300.617750
 30
0.0
  0
SPLINE
  5
13f
100
AcDbEntity
  8
Layer_1
 62
7
100
AcDbSpline
 70
8
 71
3
 72
8
 73
4
 74
0
 40
0
 40
0
 40
0
 40
0
 40
1
 40
1
 40
1
 40
1
 10
177.199536
 20
300.617750
 30
0.0
 10
195.539156
 20
307.248160
 30
0.0
 10
211.786136
 20
318.635470
 30
0.0
 10
224.275536
 20
333.612750
 30
0.0
  0
LWPOLYLINE
  5
140
100
AcDbEntity
  8
Layer_1
 62
7
100
AcDbPolyline
 90
2
 70
0
 10
151.194536
 20
296.035749
 30
0.0
 10
151.744536
 20
296.035749
 30
0.0
  0
SPLINE
  5
141
100
AcDbEntity
  8
Layer_1
 62
7
100
AcDbSpline
 70
8
 71
3
 72
8
 73
4
 74
0
 40
0
 40
0
 40
0
 40
0
 40
1
 40
1
 40
1
 40
1
 10
224.276536
 20
333.613750
 30
0.0
 10
224.913856
 20
334.193510
 30
0.0
 10
225.768886
 20
334.472690
 30
0.0
 10
226.625536
 20
334.380750
 30
0.0
  0
SPLINE
  5
142
100
AcDbEntity
  8
Layer_1
 62
7
100
AcDbSpline
 70
8
 71
3
 72
8
 73
4
 74
0
 40
0
 40
0
 40
0
 40
0
 40
1
 40
1
 40
1
 40
1
 10
226.625536
 20
334.380750
 30
0.0
 10
227.265566
 20
334.311850
 30
0.0
 10
227.891586
 20
334.147030
 30
0.0
 10
228.482536
 20
333.891750
 30
0.0
  0
SPLINE
  5
143
100
AcDbEntity
  8
Layer_1
 62
7
100
AcDbSpline
 70
8
 71
3
 72
8
 73
4
 74
0
 40
0
 40
0
 40
0
 40
0
 40
1
 40
1
 40
1
 40
1
 10
228.482536
 20
333.891750
 30
0.0
 10
229.118356
 20
333.616910
 30
0.0
 10
229.555936
 20
333.019830
 30
0.0
 10
229.626536
 20
332.330750
 30
0.0
  0
LWPOLYLINE
  5
144
100
AcDbEntity
  8
Layer_1
 62
7
100
AcDbPolyline
 90
2
 70
0
 10
224.275536
 20
333.612750
 30
0.0
 10
224.276536
 20
333.613750
 30
0.0
  0
SPLINE
  5
145
100
AcDbEntity
  8
Layer_1
 62
7
100
AcDbSpline
 70
8
 71
3
 72
8
 73
4
 74
0
 40
0
 40
0
 40
0
 40
0
 40
1
 40
1
 40
1
 40
1
 10
164.746536
 20
246.979348
 30
0.0
 10
179.258056
 20
247.434596
 30
0.0
 10
193.754036
 20
248.294931
 30
0.0
 10
208.217536
 20
249.559348
 30
0.0
  0
LWPOLYLINE
  5
146
100
AcDbEntity
  8
Layer_1
 62
7
100
AcDbPolyline
 90
137
 70
0
 10
229.626536
 20
332.330750
 30
0.0
 10
229.626536
 20
332.329750
 30
0.0
 10
229.630536
 20
331.127750
 30
0.0
 10
229.620536
 20
329.871750
 30
0.0
 10
229.595536
 20
328.561750
 30
0.0
 10
229.554536
 20
327.197750
 30
0.0
 10
229.554536
 20
327.196750
 30
0.0
 10
229.496536
 20
325.779750
 30
0.0
 10
229.420536
 20
324.309750
 30
0.0
 10
229.323536
 20
322.788750
 30
0.0
 10
229.203536
 20
321.216750
 30
0.0
 10
229.060536
 20
319.595750
 30
0.0
 10
228.889536
 20
317.926750
 30
0.0
 10
228.689536
 20
316.211750
 30
0.0
 10
228.689536
 20
316.210750
 30
0.0
 10
228.458536
 20
314.452750
 30
0.0
 10
228.192536
 20
312.652750
 30
0.0
 10
227.889536
 20
310.814750
 30
0.0
 10
227.547536
 20
308.940750
 30
0.0
 10
227.547536
 20
308.939750
 30
0.0
 10
227.162536
 20
307.032750
 30
0.0
 10
226.732536
 20
305.097750
 30
0.0
 10
226.499536
 20
304.119740
 30
0.0
 10
226.254536
 20
303.136750
 30
0.0
 10
225.997536
 20
302.147740
 30
0.0
 10
225.727536
 20
301.154740
 30
0.0
 10
225.444536
 20
300.156750
 30
0.0
 10
225.444536
 20
300.155750
 30
0.0
 10
225.147536
 20
299.154750
 30
0.0
 10
224.837536
 20
298.149750
 30
0.0
 10
224.513536
 20
297.142749
 30
0.0
 10
224.175536
 20
296.133749
 30
0.0
 10
223.822536
 20
295.122739
 30
0.0
 10
223.455536
 20
294.110739
 30
0.0
 10
223.073536
 20
293.098749
 30
0.0
 10
223.073536
 20
293.097749
 30
0.0
 10
222.676536
 20
292.085750
 30
0.0
 10
222.264536
 20
291.073750
 30
0.0
 10
221.836536
 20
290.064750
 30
0.0
 10
221.394536
 20
289.056750
 30
0.0
 10
221.393536
 20
289.056750
 30
0.0
 10
220.935536
 20
288.051740
 30
0.0
 10
220.460536
 20
287.049750
 30
0.0
 10
220.460536
 20
287.048750
 30
0.0
 10
219.970536
 20
286.050750
 30
0.0
 10
219.464536
 20
285.057750
 30
0.0
 10
218.942536
 20
284.068750
 30
0.0
 10
218.404536
 20
283.086750
 30
0.0
 10
217.850536
 20
282.109750
 30
0.0
 10
217.280536
 20
281.140750
 30
0.0
 10
217.280536
 20
281.139750
 30
0.0
 10
216.695536
 20
280.177740
 30
0.0
 10
216.093536
 20
279.223740
 30
0.0
 10
215.476536
 20
278.278750
 30
0.0
 10
214.844536
 20
277.342740
 30
0.0
 10
214.196536
 20
276.416750
 30
0.0
 10
213.534536
 20
275.500740
 30
0.0
 10
213.534536
 20
275.499740
 30
0.0
 10
212.856536
 20
274.595740
 30
0.0
 10
212.164536
 20
273.701740
 30
0.0
 10
211.459536
 20
272.820750
 30
0.0
 10
210.739536
 20
271.951745
 30
0.0
 10
210.007536
 20
271.095743
 30
0.0
 10
209.262536
 20
270.253744
 30
0.0
 10
209.262536
 20
270.252644
 30
0.0
 10
208.504536
 20
269.423643
 30
0.0
 10
207.735536
 20
268.608645
 30
0.0
 10
206.955536
 20
267.807645
 30
0.0
 10
206.164536
 20
267.022645
 30
0.0
 10
205.364536
 20
266.251644
 30
0.0
 10
205.363536
 20
266.251644
 30
0.0
 10
204.553536
 20
265.495644
 30
0.0
 10
203.734536
 20
264.756645
 30
0.0
 10
203.734536
 20
264.755545
 30
0.0
 10
202.907536
 20
264.030545
 30
0.0
 10
202.072536
 20
263.322546
 30
0.0
 10
201.230536
 20
262.631544
 30
0.0
 10
200.382536
 20
261.955545
 30
0.0
 10
199.528536
 20
261.296544
 30
0.0
 10
198.669536
 20
260.654546
 30
0.0
 10
197.806536
 20
260.028544
 30
0.0
 10
197.805536
 20
260.028544
 30
0.0
 10
196.938536
 20
259.419545
 30
0.0
 10
196.067536
 20
258.826545
 30
0.0
 10
196.067536
 20
258.825445
 30
0.0
 10
195.194536
 20
258.250444
 30
0.0
 10
194.318536
 20
257.690446
 30
0.0
 10
193.440536
 20
257.148444
 30
0.0
 10
192.562536
 20
256.622444
 30
0.0
 10
191.683536
 20
256.112444
 30
0.0
 10
190.804536
 20
255.619443
 30
0.0
 10
190.803536
 20
255.619443
 30
0.0
 10
189.925536
 20
255.141445
 30
0.0
 10
189.924536
 20
255.141445
 30
0.0
 10
189.046536
 20
254.679445
 30
0.0
 10
188.169536
 20
254.232445
 30
0.0
 10
187.294536
 20
253.801444
 30
0.0
 10
187.293536
 20
253.801444
 30
0.0
 10
186.420536
 20
253.384445
 30
0.0
 10
186.420536
 20
253.383345
 30
0.0
 10
185.548536
 20
252.981345
 30
0.0
 10
184.679536
 20
252.592344
 30
0.0
 10
184.678536
 20
252.592344
 30
0.0
 10
183.812536
 20
252.218345
 30
0.0
 10
182.948536
 20
251.857345
 30
0.0
 10
182.087536
 20
251.510347
 30
0.0
 10
181.229536
 20
251.176344
 30
0.0
 10
180.375536
 20
250.854347
 30
0.0
 10
179.524536
 20
250.546345
 30
0.0
 10
178.677536
 20
250.250345
 30
0.0
 10
177.834536
 20
249.966347
 30
0.0
 10
176.995536
 20
249.695345
 30
0.0
 10
176.160536
 20
249.435346
 30
0.0
 10
175.329536
 20
249.188345
 30
0.0
 10
175.328536
 20
249.188345
 30
0.0
 10
174.502536
 20
248.952344
 30
0.0
 10
173.679536
 20
248.728345
 30
0.0
 10
172.861536
 20
248.516345
 30
0.0
 10
172.860536
 20
248.516345
 30
0.0
 10
172.047536
 20
248.316344
 30
0.0
 10
172.046536
 20
248.316344
 30
0.0
 10
171.237536
 20
248.127344
 30
0.0
 10
170.431536
 20
247.949346
 30
0.0
 10
169.630536
 20
247.783346
 30
0.0
 10
168.834536
 20
247.628345
 30
0.0
 10
168.042536
 20
247.484346
 30
0.0
 10
167.254536
 20
247.352345
 30
0.0
 10
166.471536
 20
247.231346
 30
0.0
 10
165.692536
 20
247.121346
 30
0.0
 10
164.918536
 20
247.023346
 30
0.0
 10
164.159536
 20
246.937346
 30
0.0
 10
164.159536
 20
244.761344
 30
0.0
 10
164.234536
 20
244.761344
 30
0.0
 10
164.234536
 20
246.451347
 30
0.0
 10
164.237536
 20
246.460347
 30
0.0
 10
164.737536
 20
246.975348
 30
0.0
 10
164.746536
 20
246.979348
 30
0.0
  0
SPLINE
  5
147
100
AcDbEntity
  8
Layer_1
 62
7
100
AcDbSpline
 70
8
 71
3
 72
8
 73
4
 74
0
 40
0
 40
0
 40
0
 40
0
 40
1
 40
1
 40
1
 40
1
 10
214.537536
 20
258.122438
 30
0.0
 10
215.256446
 20
258.288051
 30
0.0
 10
216.011126
 20
258.184158
 30
0.0
 10
216.658536
 20
257.830438
 30
0.0
  0
LWPOLYLINE
  5
148
100
AcDbEntity
  8
Layer_1
 62
7
100
AcDbPolyline
 90
75
 70
0
 10
208.217536
 20
249.559348
 30
0.0
 10
208.614536
 20
255.276348
 30
0.0
 10
208.617536
 20
255.318348
 30
0.0
 10
208.621536
 20
255.360348
 30
0.0
 10
208.626536
 20
255.403348
 30
0.0
 10
208.626536
 20
255.404448
 30
0.0
 10
208.632536
 20
255.447448
 30
0.0
 10
208.638536
 20
255.491448
 30
0.0
 10
208.646536
 20
255.535448
 30
0.0
 10
208.646536
 20
255.536548
 30
0.0
 10
208.655536
 20
255.580548
 30
0.0
 10
208.665536
 20
255.625548
 30
0.0
 10
208.677536
 20
255.671548
 30
0.0
 10
208.677536
 20
255.672648
 30
0.0
 10
208.690536
 20
255.717648
 30
0.0
 10
208.705536
 20
255.763648
 30
0.0
 10
208.722536
 20
255.810648
 30
0.0
 10
208.722536
 20
255.811748
 30
0.0
 10
208.740536
 20
255.857748
 30
0.0
 10
208.741536
 20
255.857748
 30
0.0
 10
208.761536
 20
255.904748
 30
0.0
 10
208.761536
 20
255.905848
 30
0.0
 10
208.784536
 20
255.951848
 30
0.0
 10
208.809536
 20
255.998848
 30
0.0
 10
208.836536
 20
256.045848
 30
0.0
 10
208.836536
 20
256.046948
 30
0.0
 10
208.865536
 20
256.092948
 30
0.0
 10
208.896536
 20
256.139948
 30
0.0
 10
208.930536
 20
256.185948
 30
0.0
 10
208.930536
 20
256.187048
 30
0.0
 10
208.965536
 20
256.232048
 30
0.0
 10
209.003536
 20
256.278048
 30
0.0
 10
209.042536
 20
256.322048
 30
0.0
 10
209.042536
 20
256.323148
 30
0.0
 10
209.083536
 20
256.367148
 30
0.0
 10
209.126536
 20
256.411148
 30
0.0
 10
209.170536
 20
256.453148
 30
0.0
 10
209.216536
 20
256.495148
 30
0.0
 10
209.216536
 20
256.496248
 30
0.0
 10
209.263536
 20
256.536248
 30
0.0
 10
209.310536
 20
256.576248
 30
0.0
 10
209.311536
 20
256.576248
 30
0.0
 10
209.359536
 20
256.614248
 30
0.0
 10
209.408536
 20
256.652248
 30
0.0
 10
209.409536
 20
256.652248
 30
0.0
 10
209.458536
 20
256.688248
 30
0.0
 10
209.459536
 20
256.689348
 30
0.0
 10
209.509536
 20
256.723348
 30
0.0
 10
209.559536
 20
256.757348
 30
0.0
 10
209.560536
 20
256.757348
 30
0.0
 10
209.610536
 20
256.789348
 30
0.0
 10
209.661536
 20
256.820348
 30
0.0
 10
209.712536
 20
256.849348
 30
0.0
 10
209.762536
 20
256.878348
 30
0.0
 10
209.763536
 20
256.878348
 30
0.0
 10
209.813536
 20
256.905348
 30
0.0
 10
209.863536
 20
256.931358
 30
0.0
 10
209.864536
 20
256.931358
 30
0.0
 10
209.913536
 20
256.955358
 30
0.0
 10
209.963536
 20
256.979358
 30
0.0
 10
210.012536
 20
257.002348
 30
0.0
 10
210.012536
 20
257.003448
 30
0.0
 10
210.060536
 20
257.025438
 30
0.0
 10
210.108536
 20
257.046448
 30
0.0
 10
210.109536
 20
257.046448
 30
0.0
 10
210.156536
 20
257.066448
 30
0.0
 10
210.203536
 20
257.086448
 30
0.0
 10
210.250536
 20
257.105448
 30
0.0
 10
210.296536
 20
257.124448
 30
0.0
 10
210.341536
 20
257.142438
 30
0.0
 10
210.342536
 20
257.142438
 30
0.0
 10
210.387536
 20
257.159428
 30
0.0
 10
210.431536
 20
257.176438
 30
0.0
 10
210.433536
 20
257.176438
 30
0.0
 10
214.537536
 20
258.122438
 30
0.0
  0
SPLINE
  5
149
100
AcDbEntity
  8
Layer_1
 62
7
100
AcDbSpline
 70
8
 71
3
 72
8
 73
4
 74
0
 40
0
 40
0
 40
0
 40
0
 40
1
 40
1
 40
1
 40
1
 10
223.529536
 20
254.075437
 30
0.0
 10
224.116256
 20
253.754923
 30
0.0
 10
224.505566
 20
253.164027
 30
0.0
 10
224.568536
 20
252.498438
 30
0.0
  0
LWPOLYLINE
  5
14a
100
AcDbEntity
  8
Layer_1
 62
7
100
AcDbPolyline
 90
2
 70
0
 10
216.658536
 20
257.830438
 30
0.0
 10
223.529536
 20
254.075437
 30
0.0
  0
SPLINE
  5
14b
100
AcDbEntity
  8
Layer_1
 62
7
100
AcDbSpline
 70
8
 71
3
 72
8
 73
4
 74
0
 40
0
 40
0
 40
0
 40
0
 40
1
 40
1
 40
1
 40
1
 10
216.654536
 20
250.351436
 30
0.0
 10
231.754586
 20
251.798365
 30
0.0
 10
246.800976
 20
253.759169
 30
0.0
 10
261.767536
 20
256.230438
 30
0.0
  0
LWPOLYLINE
  5
14c
100
AcDbEntity
  8
Layer_1
 62
7
100
AcDbPolyline
 90
2
 70
0
 10
224.568536
 20
252.498438
 30
0.0
 10
224.690551
 20
251.170527
 30
0.0
  0
SPLINE
  5
14d
100
AcDbEntity
  8
Layer_1
 62
7
100
AcDbSpline
 70
8
 71
3
 72
8
 73
4
 74
0
 40
0
 40
0
 40
0
 40
0
 40
1
 40
1
 40
1
 40
1
 10
267.258546
 20
265.284746
 30
0.0
 10
267.958526
 20
265.517611
 30
0.0
 10
268.719606
 20
265.485589
 30
0.0
 10
269.397546
 20
265.194746
 30
0.0
  0
LWPOLYLINE
  5
14e
100
AcDbEntity
  8
Layer_1
 62
7
100
AcDbPolyline
 90
71
 70
0
 10
261.767536
 20
256.230438
 30
0.0
 10
261.771536
 20
256.230438
 30
0.0
 10
261.629536
 20
261.893437
 30
0.0
 10
261.627536
 20
261.942437
 30
0.0
 10
261.627536
 20
261.943537
 30
0.0
 10
261.627536
 20
261.993537
 30
0.0
 10
261.627536
 20
261.994637
 30
0.0
 10
261.631536
 20
262.092637
 30
0.0
 10
261.635536
 20
262.141637
 30
0.0
 10
261.640536
 20
262.190637
 30
0.0
 10
261.640536
 20
262.191737
 30
0.0
 10
261.647536
 20
262.239737
 30
0.0
 10
261.655536
 20
262.288737
 30
0.0
 10
261.656536
 20
262.288737
 30
0.0
 10
261.665536
 20
262.336737
 30
0.0
 10
261.665536
 20
262.337837
 30
0.0
 10
261.676536
 20
262.385837
 30
0.0
 10
261.688536
 20
262.432837
 30
0.0
 10
261.688536
 20
262.433937
 30
0.0
 10
261.702536
 20
262.481937
 30
0.0
 10
261.717536
 20
262.528937
 30
0.0
 10
261.734536
 20
262.575937
 30
0.0
 10
261.734536
 20
262.577037
 30
0.0
 10
261.752536
 20
262.623037
 30
0.0
 10
261.771536
 20
262.669037
 30
0.0
 10
261.792536
 20
262.714037
 30
0.0
 10
261.793536
 20
262.715137
 30
0.0
 10
261.816536
 20
262.760137
 30
0.0
 10
261.840536
 20
262.804137
 30
0.0
 10
261.866536
 20
262.848137
 30
0.0
 10
261.866536
 20
262.849237
 30
0.0
 10
261.894536
 20
262.891237
 30
0.0
 10
261.922536
 20
262.934237
 30
0.0
 10
261.923536
 20
262.935337
 30
0.0
 10
261.985536
 20
263.017337
 30
0.0
 10
262.019536
 20
263.058337
 30
0.0
 10
262.053536
 20
263.098337
 30
0.0
 10
262.054536
 20
263.098337
 30
0.0
 10
262.089536
 20
263.137337
 30
0.0
 10
262.089536
 20
263.138437
 30
0.0
 10
262.126536
 20
263.178437
 30
0.0
 10
262.203536
 20
263.255437
 30
0.0
 10
262.242536
 20
263.293437
 30
0.0
 10
262.283536
 20
263.331437
 30
0.0
 10
262.324536
 20
263.368437
 30
0.0
 10
262.325536
 20
263.369537
 30
0.0
 10
262.368536
 20
263.407537
 30
0.0
 10
262.411536
 20
263.444537
 30
0.0
 10
262.454536
 20
263.480537
 30
0.0
 10
262.498536
 20
263.517537
 30
0.0
 10
262.543536
 20
263.552537
 30
0.0
 10
262.589536
 20
263.588537
 30
0.0
 10
262.635536
 20
263.622537
 30
0.0
 10
262.636536
 20
263.622537
 30
0.0
 10
262.683536
 20
263.656537
 30
0.0
 10
262.731536
 20
263.689537
 30
0.0
 10
262.731536
 20
263.690637
 30
0.0
 10
262.779536
 20
263.722637
 30
0.0
 10
262.829536
 20
263.754637
 30
0.0
 10
262.879536
 20
263.784637
 30
0.0
 10
262.880536
 20
263.784637
 30
0.0
 10
262.931536
 20
263.813637
 30
0.0
 10
262.983536
 20
263.840637
 30
0.0
 10
263.036536
 20
263.866647
 30
0.0
 10
263.037536
 20
263.867747
 30
0.0
 10
263.091536
 20
263.892747
 30
0.0
 10
263.146536
 20
263.915737
 30
0.0
 10
263.203536
 20
263.937747
 30
0.0
 10
263.204536
 20
263.937747
 30
0.0
 10
263.261536
 20
263.957747
 30
0.0
 10
267.258546
 20
265.284746
 30
0.0
  0
SPLINE
  5
14f
100
AcDbEntity
  8
Layer_1
 62
7
100
AcDbSpline
 70
8
 71
3
 72
8
 73
4
 74
0
 40
0
 40
0
 40
0
 40
0
 40
1
 40
1
 40
1
 40
1
 10
276.591536
 20
262.102746
 30
0.0
 10
277.205826
 20
261.838658
 30
0.0
 10
277.648786
 20
261.286652
 30
0.0
 10
277.773536
 20
260.629747
 30
0.0
  0
LWPOLYLINE
  5
150
100
AcDbEntity
  8
Layer_1
 62
7
100
AcDbPolyline
 90
2
 70
0
 10
269.397546
 20
265.194746
 30
0.0
 10
276.591536
 20
262.102746
 30
0.0
  0
SPLINE
  5
151
100
AcDbEntity
  8
Layer_1
 62
7
100
AcDbSpline
 70
8
 71
3
 72
8
 73
4
 74
0
 40
0
 40
0
 40
0
 40
0
 40
1
 40
1
 40
1
 40
1
 10
269.917526
 20
257.691746
 30
0.0
 10
278.910476
 20
259.472278
 30
0.0
 10
287.822696
 20
261.638613
 30
0.0
 10
296.629546
 20
264.184746
 30
0.0
  0
SPLINE
  5
152
100
AcDbEntity
  8
Layer_1
 62
7
100
AcDbSpline
 70
8
 71
3
 72
8
 73
4
 74
0
 40
0
 40
0
 40
0
 40
0
 40
1
 40
1
 40
1
 40
1
 10
296.629546
 20
264.184746
 30
0.0
 10
297.909726
 20
264.555109
 30
0.0
 10
299.284686
 20
264.400376
 30
0.0
 10
300.450546
 20
263.754745
 30
0.0
  0
SPLINE
  5
153
100
AcDbEntity
  8
Layer_1
 62
7
100
AcDbSpline
 70
8
 71
3
 72
8
 73
4
 74
0
 40
0
 40
0
 40
0
 40
0
 40
1
 40
1
 40
1
 40
1
 10
300.450546
 20
263.754745
 30
0.0
 10
301.616116
 20
263.108847
 30
0.0
 10
302.476516
 20
262.025359
 30
0.0
 10
302.841536
 20
260.743747
 30
0.0
  0
SPLINE
  5
154
100
AcDbEntity
  8
Layer_1
 62
7
100
AcDbSpline
 70
8
 71
3
 72
8
 73
4
 74
0
 40
0
 40
0
 40
0
 40
0
 40
1
 40
1
 40
1
 40
1
 10
302.841536
 20
260.743747
 30
0.0
 10
302.867236
 20
260.653657
 30
0.0
 10
302.880436
 20
260.560438
 30
0.0
 10
302.880536
 20
260.466747
 30
0.0
  0
LWPOLYLINE
  5
155
100
AcDbEntity
  8
Layer_1
 62
7
100
AcDbPolyline
 90
2
 70
0
 10
277.773536
 20
260.629747
 30
0.0
 10
277.976063
 20
259.395383
 30
0.0
  0
LWPOLYLINE
  5
156
100
AcDbEntity
  8
Layer_1
 62
7
100
AcDbPolyline
 90
95
 70
0
 10
302.880536
 20
260.466747
 30
0.0
 10
302.880536
 20
127.747752
 30
0.0
 10
302.889536
 20
125.932753
 30
0.0
 10
302.875536
 20
124.119754
 30
0.0
 10
302.839536
 20
122.310753
 30
0.0
 10
302.839536
 20
122.309653
 30
0.0
 10
302.780536
 20
120.503653
 30
0.0
 10
302.699536
 20
118.700655
 30
0.0
 10
302.595526
 20
116.900655
 30
0.0
 10
302.468526
 20
115.103655
 30
0.0
 10
302.319536
 20
113.310653
 30
0.0
 10
302.319536
 20
113.309553
 30
0.0
 10
302.146526
 20
111.519554
 30
0.0
 10
301.951536
 20
109.732553
 30
0.0
 10
301.733546
 20
107.948555
 30
0.0
 10
301.492536
 20
106.168554
 30
0.0
 10
301.228536
 20
104.391555
 30
0.0
 10
300.941536
 20
102.617552
 30
0.0
 10
300.631526
 20
100.847553
 30
0.0
 10
300.631526
 20
100.847553
 30
0.0
 10
300.297516
 20
99.081552
 30
0.0
 10
299.940516
 20
97.318560
 30
0.0
 10
299.559516
 20
95.560560
 30
0.0
 10
299.559516
 20
95.559560
 30
0.0
 10
299.155516
 20
93.805560
 30
0.0
 10
298.726526
 20
92.054560
 30
0.0
 10
298.275516
 20
90.308560
 30
0.0
 10
297.799506
 20
88.566560
 30
0.0
 10
297.299526
 20
86.829560
 30
0.0
 10
296.775516
 20
85.097560
 30
0.0
 10
296.228516
 20
83.370560
 30
0.0
 10
296.228516
 20
83.369560
 30
0.0
 10
295.656516
 20
81.648560
 30
0.0
 10
295.656516
 20
81.647560
 30
0.0
 10
295.060516
 20
79.931560
 30
0.0
 10
294.439506
 20
78.221560
 30
0.0
 10
294.439506
 20
78.220560
 30
0.0
 10
293.795516
 20
76.516560
 30
0.0
 10
293.126516
 20
74.818560
 30
0.0
 10
292.433516
 20
73.127560
 30
0.0
 10
292.433516
 20
73.126560
 30
0.0
 10
291.716526
 20
71.442560
 30
0.0
 10
290.974526
 20
69.765560
 30
0.0
 10
290.208506
 20
68.097550
 30
0.0
 10
290.208506
 20
68.097550
 30
0.0
 10
289.418486
 20
66.437530
 30
0.0
 10
288.604496
 20
64.785550
 30
0.0
 10
287.766506
 20
63.142540
 30
0.0
 10
286.905496
 20
61.509530
 30
0.0
 10
286.019486
 20
59.886550
 30
0.0
 10
285.110486
 20
58.274550
 30
0.0
 10
284.177486
 20
56.673530
 30
0.0
 10
283.222496
 20
55.084550
 30
0.0
 10
282.243486
 20
53.507550
 30
0.0
 10
281.241486
 20
51.943550
 30
0.0
 10
280.217496
 20
50.393540
 30
0.0
 10
280.217496
 20
50.393540
 30
0.0
 10
279.170506
 20
48.857550
 30
0.0
 10
278.101486
 20
47.336540
 30
0.0
 10
277.010506
 20
45.830530
 30
0.0
 10
277.010506
 20
45.830530
 30
0.0
 10
275.897506
 20
44.341540
 30
0.0
 10
274.762496
 20
42.868550
 30
0.0
 10
273.607516
 20
41.412550
 30
0.0
 10
272.430486
 20
39.974540
 30
0.0
 10
271.233516
 20
38.555550
 30
0.0
 10
270.015506
 20
37.155530
 30
0.0
 10
270.015506
 20
37.155530
 30
0.0
 10
268.777516
 20
35.774540
 30
0.0
 10
268.777516
 20
35.774540
 30
0.0
 10
267.519506
 20
34.414560
 30
0.0
 10
266.241516
 20
33.076560
 30
0.0
 10
264.944496
 20
31.758540
 30
0.0
 10
263.627496
 20
30.463560
 30
0.0
 10
262.292496
 20
29.191550
 30
0.0
 10
260.938496
 20
27.942560
 30
0.0
 10
260.937496
 20
27.942560
 30
0.0
 10
259.565496
 20
26.716560
 30
0.0
 10
259.565496
 20
26.716560
 30
0.0
 10
258.175496
 20
25.515560
 30
0.0
 10
256.766496
 20
24.339570
 30
0.0
 10
255.341496
 20
23.188550
 30
0.0
 10
253.897496
 20
22.063540
 30
0.0
 10
252.437496
 20
20.964540
 30
0.0
 10
252.436496
 20
20.964540
 30
0.0
 10
250.959496
 20
19.892550
 30
0.0
 10
249.465496
 20
18.846550
 30
0.0
 10
249.465496
 20
18.846550
 30
0.0
 10
247.955496
 20
17.828570
 30
0.0
 10
246.429496
 20
16.837570
 30
0.0
 10
244.886496
 20
15.874570
 30
0.0
 10
243.328496
 20
14.939550
 30
0.0
 10
241.755496
 20
14.032560
 30
0.0
 10
241.754496
 20
14.032560
 30
0.0
 10
240.391496
 20
13.278550
 30
0.0
  0
ENDSEC
  0
SECTION
  2
OBJECTS
  0
DICTIONARY
  5
C
330
0
100
AcDbDictionary
  3
ACAD_GROUP
350
D
  3
ACAD_MLINESTYLE
350
17
  0
DICTIONARY
  5
D
330
C
100
AcDbDictionary
  0
DICTIONARY
  5
1A
330
C
100
AcDbDictionary
  0
DICTIONARY
  5
17
330
C
100
AcDbDictionary
  3
STANDARD
350
18
  0
DICTIONARY
  5
19
330
C
100
AcDbDictionary
  0
ENDSEC
  0
EOF
