<?xml version="1.0" encoding="UTF-8" standalone="no"?>
<!-- Created with Inkscape (http://www.inkscape.org/) -->

<svg
   xmlns:dc="http://purl.org/dc/elements/1.1/"
   xmlns:cc="http://creativecommons.org/ns#"
   xmlns:rdf="http://www.w3.org/1999/02/22-rdf-syntax-ns#"
   xmlns:svg="http://www.w3.org/2000/svg"
   xmlns="http://www.w3.org/2000/svg"
   xmlns:sodipodi="http://sodipodi.sourceforge.net/DTD/sodipodi-0.dtd"
   xmlns:inkscape="http://www.inkscape.org/namespaces/inkscape"
   width="302.93954mm"
   height="334.44797mm"
   viewBox="0 0 302.93955 334.44797"
   version="1.1"
   id="svg8"
   inkscape:version="0.92.2 (5c3e80d, 2017-08-06)"
   sodipodi:docname="Origami_V20_Shield_kerf_version.svg">
  <defs
     id="defs2" />
  <sodipodi:namedview
     id="base"
     pagecolor="#ffffff"
     bordercolor="#666666"
     borderopacity="1.0"
     inkscape:pageopacity="0.0"
     inkscape:pageshadow="2"
     inkscape:zoom="0.5"
     inkscape:cx="82.10213"
     inkscape:cy="500.16698"
     inkscape:document-units="mm"
     inkscape:current-layer="layer1"
     showgrid="false"
     fit-margin-top="0"
     fit-margin-left="0"
     fit-margin-right="0"
     fit-margin-bottom="0"
     inkscape:window-width="1600"
     inkscape:window-height="837"
     inkscape:window-x="-8"
     inkscape:window-y="-8"
     inkscape:window-maximized="1"
     inkscape:object-paths="true" />
  <metadata
     id="metadata5">
    <rdf:RDF>
      <cc:Work
         rdf:about="">
        <dc:format>image/svg+xml</dc:format>
        <dc:type
           rdf:resource="http://purl.org/dc/dcmitype/StillImage" />
        <dc:title></dc:title>
      </cc:Work>
    </rdf:RDF>
  </metadata>
  <g
     inkscape:label="Layer 1"
     inkscape:groupmode="layer"
     id="layer1"
     transform="translate(245.13896,137.0174)"
     style="display:inline">
    <path
       id="path1319"
       style="fill:none;stroke:#000000;stroke-width:0.1;stroke-miterlimit:4;stroke-dasharray:none"
       d="m -128.41904,-78.272318 11.84184,2.84242 c 2.17799,0.52277 4.0928,-1.53183 3.41812,-3.66766 l -5.47751,-17.33894 c -0.32166,-1.01826 -1.16952,-1.7825 -2.2156,-1.99707 l -14.98369,-3.596482 c -1.02946,-0.28366 -2.13182,0.0124 -2.88066,0.77364 l -12.75099,12.963792 c -1.57075,1.59688 -0.79714,4.29689 1.38093,4.81965 l 11.84184,2.84215"
       inkscape:connector-curvature="0"
       sodipodi:nodetypes="cccccccccc" />
    <path
       id="path1361"
       style="fill:none;stroke:#000000;stroke-width:0.5;stroke-miterlimit:4;stroke-dasharray:none"
       d="m -15.534855,-134.88574 h 0.013"
       inkscape:connector-curvature="0" />
    <path
       id="path1373"
       style="fill:none;stroke:#000000;stroke-width:0.5;stroke-miterlimit:4;stroke-dasharray:none"
       d="m -171.82279,-134.88574 h -0.013"
       inkscape:connector-curvature="0" />
    <path
       id="path1523"
       style="fill:none;stroke:#000000;stroke-width:0.1;stroke-miterlimit:4;stroke-dasharray:none"
       d="m -49.112885,-80.630818 11.84184,-2.84215 c 2.17807,-0.52276 2.95169,-3.22277 1.38094,-4.81965 l -12.751,-12.963792 c -0.74884,-0.76125 -1.85119,-1.0573 -2.88066,-0.77364 l -14.98369,3.596482 c -1.04608,0.21458 -1.89393,0.97881 -2.21559,1.99707 l -5.47751,17.33894 c -0.67469,2.13583 1.24013,4.19043 3.41812,3.66766 l 11.84183,-2.84242"
       inkscape:connector-curvature="0"
       sodipodi:nodetypes="cccccccccc" />
    <path
       id="path1529"
       style="fill:none;stroke:#000000;stroke-width:0.1;stroke-miterlimit:4;stroke-dasharray:none"
       d="m -98.841894,-58.982078 -12.177996,-0.0622 c -2.28925,-0.0117 -3.72238,-2.47989 -2.59767,-4.47384 l 9.61337,-17.04393 c 0.53454,-0.9477 1.54031,-1.53169 2.62835,-1.52611 h 15.394035 c 1.08805,-0.006 2.09382,0.57841 2.62836,1.52611 l 9.61337,17.04393 c 1.12471,1.99395 -0.30843,4.46217 -2.59768,4.47384 l -12.17799,0.0622"
       inkscape:connector-curvature="0"
       sodipodi:nodetypes="cccccccccc" />
    <path
       transform="translate(1.2916666e-6)"
       d="m 15.160385,-21.571327 1.679,26.694 m 23.19698,-20.153999 0.63201,10.086999 m -78.38298,-71.801991 -12.893,11.439997 m -86.124575,-1e-5 -12.893,-11.440007 m -14.697,-33.016002 -2.604,-17.04 m -37.254,131.925011 1.679,-26.694001 m -25.508,16.627002 0.63399,-10.112999 m 206.961005,-111.745093 -2.604,17.04 m 18.266,293.92001 -0.225,0.12399 h -10e-4 l -1.603,0.851 h -0.001 l -1.618,0.82101 -1.63399,0.793 v 0 l -1.64801,0.76499 -1.662,0.736 h -10e-4 l -1.676,0.70601 -1.691,0.679 -1.704,0.649 h -0.001 l -1.718,0.621 -1.732,0.59201 -1.745,0.56298 -1.759,0.53501 -1.772,0.50599 -1.785,0.478 -1.798,0.45 -1.811,0.421 -1.824,0.39302 -1.837,0.36499 -1.849,0.337 -1.862,0.309 -1.874,0.28099 h -10e-4 l -1.886,0.253 h -10e-4 l -1.899,0.225 -1.912,0.19701 -1.924,0.16999 -1.936,0.142 h -0.001 l -1.948,0.11499 h -10e-4 l -1.961,0.087 -1.973,0.059 h -73.287465 l -1.973,-0.059 -1.961,-0.087 h -0.001 l -1.948,-0.11499 h -0.001 l -1.93601,-0.142 -1.924,-0.16999 -1.91199,-0.19701 -1.89901,-0.225 h -0.001 l -1.886,-0.253 h -0.001 l -1.874,-0.28099 -1.862,-0.309 -1.849,-0.337 -1.837,-0.36499 -1.824,-0.39302 -1.811,-0.421 -1.798,-0.45 -1.785,-0.478 -1.772,-0.50599 -1.759,-0.53501 -1.745,-0.56298 -1.732,-0.59201 -1.718,-0.621 h -0.001 l -1.704,-0.649 -1.691,-0.679 -1.676,-0.70601 h -0.001 l -1.662,-0.736 -1.648,-0.76499 v 0 l -1.634,-0.793 -1.618,-0.82101 h -0.001 l -1.603,-0.851 h -0.001 l -1.588,-0.878 h -0.001 l -1.57301,-0.90699 -1.55799,-0.93501 -1.543,-0.963 -1.526,-0.991 -1.51001,-1.01798 v 0 l -1.49399,-1.04601 -1.47701,-1.07198 h -0.001 l -1.46,-1.099 -1.444,-1.12501 -1.425,-1.15102 -1.409,-1.17599 -1.39,-1.201 v 0 l -1.372,-1.226 h -0.001 l -1.354,-1.24899 -1.335,-1.27201 -1.317,-1.29498 -1.297,-1.31802 -1.278,-1.338 -1.258,-1.35998 v 0 l -1.238,-1.381 h -0.001 l -1.218,-1.40001 -1.197,-1.41899 -1.177,-1.43801 -1.155,-1.456 -1.135,-1.47299 -1.113,-1.48899 v 0 l -1.091,-1.50601 -1.069,-1.52101 -1.047,-1.53599 h -0.001 l -1.024,-1.55001 -1.002,-1.564 -0.979,-1.577 -0.955,-1.58898 -0.933,-1.60102 -0.909,-1.612 -0.886,-1.62298 -0.861,-1.63301 -0.838,-1.64301 -0.814,-1.65198 -0.79,-1.66002 h -0.001 l -0.766,-1.66801 -0.742,-1.67701 -0.717,-1.684 v -10e-4 l -0.693,-1.691 -0.669,-1.698 -0.644,-1.704 v -0.001 l -0.621,-1.71 -0.596,-1.716 v -10e-4 l -0.572,-1.72101 v -0.001 l -0.547,-1.727 -0.524,-1.732 -0.5,-1.737 -0.476,-1.742 -0.451,-1.746 -0.429,-1.751 -0.404,-1.754 v -0.001 l -0.381,-1.758 -0.357,-1.762993 -0.334,-1.766001 h -0.001 l -0.30929,-1.774648 -0.287,-1.774002 -0.264,-1.777 -0.241,-1.78 -0.218,-1.783998 -0.195,-1.787001 -0.173,-1.789999 v -0.0011 l -0.149,-1.793002 -0.127,-1.797 -0.104,-1.8 -0.081,-1.802998 -0.059,-1.806001 v -0.0011 l -0.036,-1.808885 -0.014,-1.812999 0.009,-1.814999 V -63.035328 c 1.3e-4,-0.09369 0.0132,-0.186915 0.039,-0.277001 0.36503,-1.281612 1.22541,-2.365099 2.391,-3.010998 1.16585,-0.645631 2.54082,-0.800364 3.821,-0.43 6.16105,1.781212 12.37368,3.376548 18.62943,4.783954 m 0,0 c 2.68646,0.604393 5.38087,1.174129 8.08257,1.709045 m -8.08257,-1.709045 0.22657,-1.228955 c 0.12476,-0.656905 0.56772,-1.20891 1.182,-1.472999 l 7.194,-3.092 c 0.67794,-0.290843 1.43902,-0.322866 2.139,-0.09 l 3.997,1.326999 0.057,0.02 h 0.001 l 0.057,0.02201 0.055,0.02299 0.054,0.025 0.001,0.0011 0.053,0.02601 0.052,0.027 0.051,0.029 h 0.001 l 0.05,0.03 0.05,0.032 0.048,0.032 v 0.0011 l 0.048,0.033 0.047,0.034 h 0.001 l 0.046,0.034 0.046,0.036 0.045,0.035 0.044,0.037 0.043,0.036 0.043,0.037 0.043,0.038 0.001,0.0011 0.041,0.037 0.041,0.038 0.039,0.038 0.039,0.039 0.038,0.038 0.037,0.04 v 0.0011 l 0.035,0.039 h 0.001 l 0.034,0.04 0.034,0.041 0.062,0.082 0.001,0.0011 0.028,0.043 0.028,0.042 v 0.0011 l 0.026,0.044 0.024,0.044 0.023,0.045 0.001,0.0011 0.021,0.045 0.019,0.046 0.018,0.046 v 0.0011 l 0.017,0.047 0.015,0.047 0.014,0.048 v 0.0011 l 0.012,0.047 0.011,0.048 v 0.0011 l 0.009,0.048 h 0.001 l 0.008,0.049 0.007,0.048 v 0.0011 l 0.005,0.049 0.004,0.049 0.004,0.098 v 0.0011 0.05 0.0011 l -0.002,0.049 -0.142,5.662998 h 0.004 c 14.96656,2.47127 30.01295,4.432073 45.113,5.879002 m -8.02761,-0.818183 0.11361,-1.328819 c 0.063,-0.665589 0.45228,-1.256485 1.039,-1.576999 l 6.871,-3.755001 c 0.64741,-0.353716 1.40209,-0.457613 2.121,-0.291999 l 4.104,0.945999 h 0.002 l 0.044,0.01701 0.045,0.01699 h 10e-4 l 0.045,0.01799 0.046,0.019 0.047,0.019 0.047,0.02 0.047,0.02 h 0.001 l 0.048,0.02101 0.048,0.02199 v 0.0011 l 0.049,0.02299 0.05,0.024 0.049,0.024 h 0.001 l 0.05,0.02601 0.05,0.027 h 0.001 l 0.05,0.029 0.051,0.029 0.051,0.031 0.05,0.032 h 0.001 l 0.05,0.034 0.05,0.034 0.001,0.0011 0.049,0.036 h 0.001 l 0.049,0.038 0.048,0.038 h 9.9e-4 l 0.047,0.04 0.047,0.04 v 0.0011 l 0.046,0.042 0.044,0.042 0.043,0.044 0.041,0.044 v 0.0011 l 0.039,0.044 0.038,0.046 0.035,0.045 v 0.0011 l 0.034,0.046 0.031,0.047 0.029,0.046 v 0.0011 l 0.027,0.047 0.025,0.047 0.023,0.046 v 0.0011 l 0.02,0.047 h 9.9e-4 l 0.018,0.046 v 0.0011 l 0.017,0.047 0.015,0.046 0.013,0.045 v 0.0011 l 0.012,0.046 0.01,0.045 0.009,0.044 v 0.0011 l 0.008,0.044 0.006,0.044 0.006,0.043 v 0.0011 l 0.005,0.043 0.004,0.042 0.003,0.042 0.39701,5.717 c 14.46349,1.264417 28.95948,2.124752 43.471,2.58 l 0.009,0.004 0.5,0.515001 0.003,0.009 v 1.690002 h 0.075 v -2.176002 l -0.759,-0.086 -0.774,-0.098 -0.779,-0.110001 -0.783,-0.120999 -0.788,-0.132001 -0.792,-0.143999 -0.796,-0.155001 -0.801,-0.166 -0.806,-0.177998 -0.809,-0.189 h -0.001 l -0.813,-0.200001 h -10e-4 l -0.818,-0.212 -0.823,-0.223999 -0.826,-0.236 h -0.001 l -0.83101,-0.247002 -0.83499,-0.259998 -0.83901,-0.271002 -0.843,-0.283999 -0.847,-0.296 -0.851,-0.308001 -0.85399,-0.321998 -0.85801,-0.334002 -0.86099,-0.346999 -0.86399,-0.361 -0.866,-0.373999 h -0.001 l -0.869,-0.389001 -0.872,-0.402 v -0.0011 l -0.873,-0.416999 h -10e-4 l -0.875,-0.431001 -0.877,-0.447001 -0.878,-0.461999 h -10e-4 l -0.878,-0.477999 h -0.001 l -0.879,-0.493001 -0.879,-0.51 -0.878,-0.526 -0.878,-0.542001 -0.876,-0.559999 -0.873,-0.575 v -0.0011 l -0.871,-0.593 -0.867,-0.608999 h -10e-4 l -0.863,-0.626002 -0.859,-0.641998 -0.85399,-0.659 -0.84801,-0.676 -0.842,-0.691002 -0.835,-0.707998 -0.827,-0.725001 v -0.0011 l -0.819,-0.739 -0.81,-0.755999 h -0.001 l -0.8,-0.771002 -0.791,-0.785 -0.78,-0.800999 -0.76901,-0.814999 -0.75799,-0.829 v -0.0011 l -0.74501,-0.841999 -0.73199,-0.856001 -0.72,-0.869002 -0.705,-0.881 -0.692,-0.894 -0.678,-0.904 v -10e-4 l -0.662,-0.916 -0.648,-0.926 -0.632,-0.936 -0.617,-0.945 -0.60201,-0.954 -0.58499,-0.962 v -10e-4 l -0.57,-0.969 -0.554,-0.977 -0.53801,-0.982 -0.52199,-0.989 -0.506,-0.993 -0.49,-0.998 v -0.001 l -0.47501,-1.002 -0.45799,-1.005 h -0.001 l -0.442,-1.008 -0.428,-1.009 -0.412,-1.012 -0.397,-1.011999 v -10e-4 l -0.382,-1.012 -0.367,-1.012 -0.353,-1.011 -0.338,-1.009 -0.324,-1.007001 -0.31,-1.005 -0.297,-1.001 v -0.001 l -0.283,-0.998 -0.27,-0.993 -0.257,-0.989 -0.245,-0.983 -0.233,-0.978 -0.43,-1.935 -0.385,-1.907 v -0.001 l -0.342,-1.874 -0.303,-1.838 -0.266,-1.8 -0.231,-1.758 v -0.001 l -0.2,-1.715 -0.171,-1.669 -0.143,-1.621 -0.12,-1.572 -0.097,-1.521 -0.076,-1.47 -0.058,-1.417 v -0.001 l -0.041,-1.364 -0.025,-1.31 -0.01,-1.256 0.004,-1.202 v -0.001 c 0.0706,-0.68907 0.50818,-1.28615 1.144,-1.561 0.59095,-0.25527 1.21697,-0.42012 1.857,-0.489 0.85665,-0.0919 1.71168,0.18725 2.349,0.767 l 10e-4,0.001 c 12.48893,14.97643 28.73591,26.36374 47.07553,32.99415 8.14457,3.03052 16.76489,4.582211 25.455005,4.582001 h 0.55 c 8.69011,2.1e-4 17.31043,-1.551481 25.455,-4.582001 18.33962,-6.63041 34.5866,-18.01772 47.076,-32.995 l 10e-4,-0.001 c 0.63732,-0.57976 1.49235,-0.85894 2.349,-0.767 0.64003,0.0689 1.26605,0.23372 1.857,0.489 0.63582,0.27484 1.0734,0.87192 1.144,1.561 v 0.001 l 0.004,1.202 -0.01,1.256 -0.025,1.31 -0.041,1.364 v 0.001 l -0.058,1.417 -0.076,1.47 -0.097,1.521 -0.12,1.572 -0.143,1.621 -0.171,1.669 -0.2,1.715 v 0.001 l -0.231,1.758 -0.266,1.8 -0.303,1.838 -0.342,1.874 v 0.001 l -0.385,1.907 -0.43,1.935 -0.233,0.97801 -0.245,0.98299 -0.257,0.98901 -0.27,0.993 -0.283,0.99799 v 0.001 l -0.297,1.001 -0.31,1.005 -0.324,1.007001 -0.338,1.009 -0.353,1.01101 -0.367,1.012 -0.382,1.01199 v 10e-4 l -0.397,1.011999 -0.412,1.012 -0.428,1.009 -0.442,1.008 h -0.001 l -0.458,1.00501 -0.475,1.00199 v 0.001 l -0.49,0.998 -0.506,0.993 -0.522,0.989 -0.538,0.982 -0.554,0.977 -0.57,0.969 v 10e-4 l -0.585,0.96201 -0.602,0.954 -0.617,0.94499 -0.632,0.93601 -0.648,0.92599 -0.662,0.91601 v 0.001 l -0.678,0.904 -0.692,0.894 -0.705,0.88099 -0.72,0.869005 -0.732,0.856002 -0.745,0.841999 v 0.0011 l -0.758,0.829001 -0.769,0.814998 -0.78,0.801 -0.791,0.785 -0.8,0.771001 h -10e-4 l -0.81,0.756 -0.819,0.738999 v 0.0011 l -0.827,0.725 -0.835,0.707999 -0.842,0.691002 -0.848,0.675999 -0.854,0.659001 -0.859,0.641998 -0.863,0.626002 h -10e-4 l -0.867,0.608999 -0.871,0.593 v 0.0011 l -0.873,0.575001 -0.876,0.559998 -0.878,0.542002 -0.878,0.526 -0.879,0.51 -0.879,0.493001 h -10e-4 l -0.878,0.477998 h -10e-4 l -0.878,0.462 -0.877,0.447 -0.875,0.431001 h -10e-4 l -0.873,0.416999 v 0.0011 l -0.872,0.402 -0.869,0.389001 h -10e-4 l -0.866,0.373999 -0.864,0.361 -0.861,0.346998 -0.858,0.334003 -0.854,0.321997 -0.851,0.308002 -0.847,0.296 -0.843,0.283998 -0.839,0.271002 -0.835,0.259999 -0.831,0.247001 h -10e-4 l -0.826,0.236001 -0.823,0.223999 -0.818,0.212 h -0.001 l -0.813,0.200001 h -0.001 l -0.809,0.189 -0.806,0.177998 -0.801,0.166 -0.796,0.155001 -0.792,0.143999 -0.788,0.132001 -0.783,0.120999 -0.779,0.11 -0.774,0.098 -0.759,0.086 v 2.176002 h 0.075 v -1.690003 l 0.003,-0.009 0.5,-0.515001 0.009,-0.004 c 14.51152,-0.455248 29.0075,-1.315583 43.471,-2.58 l 0.397,-5.717 0.003,-0.042 0.004,-0.042 0.005,-0.043 v -0.0011 l 0.006,-0.043 0.006,-0.044 0.008,-0.044 v -0.0011 l 0.009,-0.044 0.01,-0.045 0.012,-0.046 v -0.0011 l 0.013,-0.045 0.015,-0.046 0.017,-0.047 v -0.0011 l 0.018,-0.046 h 0.001 l 0.02,-0.047 v -0.0011 l 0.023,-0.046 0.025,-0.047 0.027,-0.047 v -0.0011 l 0.029,-0.046 0.031,-0.047 0.034,-0.046 v -0.0011 l 0.035,-0.045 0.038,-0.046 0.039,-0.044 v -0.0011 l 0.041,-0.044 0.043,-0.044 0.044,-0.042 0.046,-0.042 v -0.0011 l 0.047,-0.04 0.047,-0.04 h 0.001 l 0.048,-0.038 0.049,-0.038 h 10e-4 l 0.049,-0.036 10e-4,-0.0011 0.05,-0.034 0.05,-0.034 h 10e-4 l 0.05,-0.032 0.051,-0.031 0.051,-0.029 0.05,-0.029 h 10e-4 l 0.05,-0.027 0.05,-0.02601 h 10e-4 l 0.049,-0.024 0.05,-0.024 0.049,-0.02299 v -0.0011 l 0.048,-0.02199 0.048,-0.02101 h 10e-4 l 0.047,-0.02 0.047,-0.02 0.047,-0.019 0.046,-0.019 0.045,-0.01799 h 10e-4 l 0.045,-0.01699 0.044,-0.01701 h 0.002 l 4.104,-0.946 c 0.71891,-0.165613 1.47359,-0.06172 2.121,0.292 l 6.871,3.755001 c 0.58672,0.320514 0.97603,0.91141 1.039,1.576999 l 0.122015,1.327911 m -8.036015,0.819091 c 15.10005,-1.446929 30.14644,-3.407733 45.113,-5.879002 h 0.004 l -0.142,-5.662999 -0.002,-0.049 v -0.0011 -0.05 -0.0011 l 0.004,-0.098 0.004,-0.049 0.005,-0.049 v -0.0011 l 0.007,-0.048 0.008,-0.049 h 0.001 l 0.009,-0.048 v -0.0011 l 0.011,-0.048 0.012,-0.047 v -0.0011 l 0.014,-0.048 0.015,-0.047 0.017,-0.047 v -0.0011 l 0.018,-0.046 0.019,-0.046 0.021,-0.045 0.001,-0.0011 0.023,-0.045 0.024,-0.044 0.026,-0.044 v -0.0011 l 0.028,-0.042 0.028,-0.043 0.001,-0.0011 0.062,-0.082 0.034,-0.041 0.034,-0.04 h 0.001 l 0.035,-0.039 v -0.0011 l 0.037,-0.04 0.077,-0.077 0.039,-0.038 0.041,-0.038 0.041,-0.037 0.001,-0.0011 0.043,-0.038 0.043,-0.037 0.043,-0.036 0.044,-0.037 0.045,-0.035 0.046,-0.036 0.046,-0.034 h 0.001 l 0.047,-0.034 0.048,-0.033 v -0.0011 l 0.048,-0.032 0.05,-0.032 0.05,-0.03 h 0.001 l 0.051,-0.029 0.052,-0.027 0.053,-0.02601 0.001,-0.0011 0.054,-0.025 0.055,-0.02299 0.057,-0.02201 h 10e-4 l 0.057,-0.02 3.99701,-1.326999 c 0.69998,-0.232865 1.46106,-0.200843 2.139,0.09 l 7.19399,3.092 c 0.61429,0.264088 1.05725,0.816094 1.182,1.472999 l 0.202527,1.234364 m -8.058537,1.703637 c 8.99295,-1.780532 17.90517,-3.946867 26.71202,-6.493 1.28018,-0.370363 2.65514,-0.21563 3.821,0.430001 1.16557,0.645898 2.02597,1.729386 2.39099,3.010998 0.0257,0.09009 0.0389,0.183309 0.039,0.277 V 69.682818 l 0.009,1.814999 -0.014,1.812999 -0.036,1.809001 v 0.0011 l -0.059,1.806 -0.081,1.802998 -0.10401,1.8 -0.127,1.797 -0.14899,1.793002 v 0.0011 l -0.17301,1.789999 -0.19499,1.787001 -0.21799,1.783998 -0.24101,1.780001 -0.264,1.776999 -0.287,1.774003 -0.31001,1.769999 v 0 l -0.33401,1.766001 -0.357,1.762992 -0.381,1.758 v 0.001 l -0.404,1.754 -0.42899,1.751 -0.45101,1.746 -0.47601,1.742 -0.49998,1.737 -0.52401,1.732 -0.547,1.727 v 10e-4 l -0.572,1.721 v 0.001 l -0.596,1.716 -0.62101,1.71 v 10e-4 l -0.64399,1.704 -0.669,1.698 -0.693,1.691 v 0.001 l -0.71699,1.684 -0.742,1.677 -0.76602,1.66801 v 0 l -0.79002,1.66002 -0.81399,1.65198 -0.83799,1.64301 -0.86101,1.63301 -0.88601,1.62298 -0.909,1.612 -0.933,1.60102 -0.95499,1.58898 -0.97901,1.577 -1.002,1.564 -1.02399,1.55001 v 0 l -1.04699,1.53599 -1.06902,1.52101 -1.09098,1.50601 v 0 l -1.113,1.48899 -1.13501,1.47299 -1.15498,1.456 -1.17703,1.43801 -1.19697,1.41899 -1.21801,1.40002 v 0 l -1.23799,1.38099 v 0 l -1.25801,1.35998 -1.27799,1.338 -1.29702,1.31802 -1.317,1.29498 -1.335,1.27201 -1.354,1.24899 h -0.001 l -1.372,1.226 v 0 l -1.39,1.201 -1.409,1.17599 -1.425,1.15102 -1.444,1.12501 -1.46,1.099 h -0.001 l -1.477,1.07199 -1.494,1.046 v 0 l -1.51,1.01798 -1.526,0.991 -1.543,0.963 -1.558,0.93502 -1.573,0.90699 h -10e-4 l -1.363,0.75401"
       id="path819-3"
       inkscape:connector-curvature="0"
       style="display:inline;fill:none;stroke:#000000;stroke-width:0.1;stroke-miterlimit:4;stroke-dasharray:none"
       sodipodi:nodetypes="ccccccccccccccccccccccccccccccccccccccccccccccccccccccccccccccccccccccccccccccccccccccccccccccccccccccccccccccccccccccccccccccccccccccccccccccccccccccccccccccccccccccccccccccccccccccccccccccccccccccccccccccccccccccccccccccccccccccccccccccccccccccccccccccccccccccccccccccccccccccccccccccccccccccccccccccccccccccccccccccccccccccccccccccccccccccccccccccccccccccccccccccccccccccccccccccccccccccccccccccccccccccccccccccccccccccccccccccccccccccccccccccccccccccccccccccccccccccccccccccccccccccccccccccccccccccccccccccccccccccccccccccccccccccccccccccccccccccccccccccccccccccccccccccccccccccccccccccccccccccccccccccccccccccccccccccccccccccccccccccccccccccccccccccccccccccccccccccccccccccccccccccccccccccccccccccccccccccccccccccccccccccccccccccccccccccccccccccccccccccccccccccccccccccccccccccccccccccccccccccccccccccccccccccccccccccccccccccccccccccccccccccccccccccccccccccccccccccccccccccccccccccccccc" />
  </g>
</svg>
