  0
SECTION
  2
HEADER
  9
$ACADVER
  1
AC1014
  9
$HANDSEED
  5
FFFF
  9
$MEASUREMENT
 70
     1
  0
ENDSEC
  0
SECTION
  2
TABLES
  0
TABLE
  2
VPORT
  5
8
330
0
100
AcDbSymbolTable
 70
     4
  0
VPORT
  5
2E
330
8
100
AcDbSymbolTableRecord
100
AcDbViewportTableRecord
  2
*ACTIVE
 70
     0
 10
0.0
 20
0.0
 11
1.0
 21
1.0
 12
210.0
 22
148.5
 13
0.0
 23
0.0
 14
10.0
 24
10.0
 15
10.0
 25
10.0
 16
0.0
 26
0.0
 36
1.0
 17
0.0
 27
0.0
 37
0.0
 40
341.0
 41
1.24
 42
50.0
 43
0.0
 44
0.0
 50
0.0
 51
0.0
 71
     0
 72
   100
 73
     1
 74
     3
 75
     0
 76
     0
 77
     0
 78
     0
  0
ENDTAB
  0
TABLE
  2
LTYPE
  5
5
330
0
100
AcDbSymbolTable
 70
     1
  0
LTYPE
  5
14
330
5
100
AcDbSymbolTableRecord
100
AcDbLinetypeTableRecord
  2
BYBLOCK
 70
     0
  3

 72
    65
 73
     0
 40
0.0
  0
LTYPE
  5
15
330
5
100
AcDbSymbolTableRecord
100
AcDbLinetypeTableRecord
  2
BYLAYER
 70
     0
  3

 72
    65
 73
     0
 40
0.0
  0
LTYPE
  5
16
330
5
100
AcDbSymbolTableRecord
100
AcDbLinetypeTableRecord
  2
CONTINUOUS
 70
     0
  3
Solid line
 72
    65
 73
     0
 40
0.0
  0
ENDTAB
  0
TABLE
  2
LAYER
  5
2
100
AcDbSymbolTable
 70
2
  0
LAYER
  5
50
100
AcDbSymbolTableRecord
100
AcDbLayerTableRecord
  2
0
 70
0
  6
CONTINUOUS
  0
LAYER
  5
51
100
AcDbSymbolTableRecord
100
AcDbLayerTableRecord
  2
Layer_1
 70
0
  6
CONTINUOUS
  0
ENDTAB
  0
TABLE
  2
STYLE
  5
3
330
0
100
AcDbSymbolTable
 70
     1
  0
STYLE
  5
11
330
3
100
AcDbSymbolTableRecord
100
AcDbTextStyleTableRecord
  2
STANDARD
 70
     0
 40
0.0
 41
1.0
 50
0.0
 71
     0
 42
2.5
  3
txt
  4

  0
ENDTAB
  0
TABLE
  2
VIEW
  5
6
330
0
100
AcDbSymbolTable
 70
     0
  0
ENDTAB
  0
TABLE
  2
UCS
  5
7
330
0
100
AcDbSymbolTable
 70
     0
  0
ENDTAB
  0
TABLE
  2
APPID
  5
9
330
0
100
AcDbSymbolTable
 70
     2
  0
APPID
  5
12
330
9
100
AcDbSymbolTableRecord
100
AcDbRegAppTableRecord
  2
ACAD
 70
     0
  0
ENDTAB
  0
TABLE
  2
DIMSTYLE
  5
A
330
0
100
AcDbSymbolTable
 70
     1
  0
DIMSTYLE
105
27
330
A
100
AcDbSymbolTableRecord
100
AcDbDimStyleTableRecord
  2
ISO-25
 70
     0
  3

  4

  5

  6

  7

 40
1.0
 41
2.5
 42
0.625
 43
3.75
 44
1.25
 45
0.0
 46
0.0
 47
0.0
 48
0.0
140
2.5
141
2.5
142
0.0
143
0.03937007874016
144
1.0
145
0.0
146
1.0
147
0.625
 71
     0
 72
     0
 73
     0
 74
     0
 75
     0
 76
     0
 77
     1
 78
     8
170
     0
171
     3
172
     1
173
     0
174
     0
175
     0
176
     0
177
     0
178
     0
270
     2
271
     2
272
     2
273
     2
274
     3
340
11
275
     0
280
     0
281
     0
282
     0
283
     0
284
     8
285
     0
286
     0
287
     3
288
     0
  0
ENDTAB
  0
TABLE
  2
BLOCK_RECORD
  5
1
330
0
100
AcDbSymbolTable
 70
     1
  0
BLOCK_RECORD
  5
1F
330
1
100
AcDbSymbolTableRecord
100
AcDbBlockTableRecord
  2
*MODEL_SPACE
  0
BLOCK_RECORD
  5
1B
330
1
100
AcDbSymbolTableRecord
100
AcDbBlockTableRecord
  2
*PAPER_SPACE
  0
ENDTAB
  0
ENDSEC
  0
SECTION
  2
BLOCKS
  0
BLOCK
  5
20
330
1F
100
AcDbEntity
  8
0
100
AcDbBlockBegin
  2
*MODEL_SPACE
 70
     0
 10
0.0
 20
0.0
 30
0.0
  3
*MODEL_SPACE
  1

  0
ENDBLK
  5
21
330
1F
100
AcDbEntity
  8
0
100
AcDbBlockEnd
  0
BLOCK
  5
1C
330
1B
100
AcDbEntity
 67
     1
  8
0
100
AcDbBlockBegin
  2
*PAPER_SPACE
  1

  0
ENDBLK
  5
1D
330
1B
100
AcDbEntity
 67
     1
  8
0
100
AcDbBlockEnd
  0
ENDSEC
  0
SECTION
  2
ENTITIES
  0
LWPOLYLINE
  5
100
100
AcDbEntity
  8
Layer_1
 62
1
100
AcDbPolyline
 90
2
 70
0
 10
-120.171395
 20
225.146225
 30
0.0
 10
-118.318959
 20
210.646353
 30
0.0
  0
LWPOLYLINE
  5
101
100
AcDbEntity
  8
Layer_1
 62
1
100
AcDbPolyline
 90
2
 70
0
 10
-114.435158
 20
225.539466
 30
0.0
 10
-112.729125
 20
211.643902
 30
0.0
  0
LWPOLYLINE
  5
102
100
AcDbEntity
  8
Layer_1
 62
1
100
AcDbPolyline
 90
2
 70
0
 10
158.437248
 20
225.146225
 30
0.0
 10
156.584811
 20
210.646353
 30
0.0
  0
LWPOLYLINE
  5
103
100
AcDbEntity
  8
Layer_1
 62
1
100
AcDbPolyline
 90
2
 70
0
 10
152.701152
 20
225.539466
 30
0.0
 10
150.995118
 20
211.643902
 30
0.0
  0
SPLINE
  5
104
100
AcDbEntity
  8
Layer_1
 62
1
100
AcDbSpline
 70
8
 71
3
 72
8
 73
4
 74
0
 40
0
 40
0
 40
0
 40
0
 40
1
 40
1
 40
1
 40
1
 10
55.417566
 20
22.348255
 30
0.0
 10
122.216037
 20
22.348255
 30
0.0
 10
171.832819
 20
74.207998
 30
0.0
 10
171.832819
 20
144.348333
 30
0.0
  0
LWPOLYLINE
  5
105
100
AcDbEntity
  8
Layer_1
 62
1
100
AcDbPolyline
 90
2
 70
0
 10
19.373909
 20
22.348255
 30
0.0
 10
55.417566
 20
22.348255
 30
0.0
  0
SPLINE
  5
106
100
AcDbEntity
  8
Layer_1
 62
1
100
AcDbSpline
 70
8
 71
3
 72
8
 73
4
 74
0
 40
0
 40
0
 40
0
 40
0
 40
1
 40
1
 40
1
 40
1
 10
171.832819
 20
288.852457
 30
0.0
 10
171.832819
 20
292.359421
 30
0.0
 10
169.125603
 20
295.202457
 30
0.0
 10
165.785503
 20
295.202457
 30
0.0
  0
LWPOLYLINE
  5
107
100
AcDbEntity
  8
Layer_1
 62
1
100
AcDbPolyline
 90
2
 70
0
 10
171.832819
 20
144.348333
 30
0.0
 10
171.832819
 20
288.852457
 30
0.0
  0
LWPOLYLINE
  5
108
100
AcDbEntity
  8
Layer_1
 62
1
100
AcDbPolyline
 90
2
 70
0
 10
165.785503
 20
295.202457
 30
0.0
 10
19.462809
 20
295.202457
 30
0.0
  0
SPLINE
  5
109
100
AcDbEntity
  8
Layer_1
 62
1
100
AcDbSpline
 70
8
 71
3
 72
8
 73
4
 74
0
 40
0
 40
0
 40
0
 40
0
 40
1
 40
1
 40
1
 40
1
 10
-127.519580
 20
295.202528
 30
0.0
 10
-130.859327
 20
295.202528
 30
0.0
 10
-133.566896
 20
292.359491
 30
0.0
 10
-133.566896
 20
288.852528
 30
0.0
  0
LWPOLYLINE
  5
10a
100
AcDbEntity
  8
Layer_1
 62
1
100
AcDbPolyline
 90
2
 70
0
 10
18.804525
 20
295.202528
 30
0.0
 10
-127.519580
 20
295.202528
 30
0.0
  0
SPLINE
  5
10b
100
AcDbEntity
  8
Layer_1
 62
1
100
AcDbSpline
 70
8
 71
3
 72
8
 73
4
 74
0
 40
0
 40
0
 40
0
 40
0
 40
1
 40
1
 40
1
 40
1
 10
-133.566896
 20
144.348403
 30
0.0
 10
-133.566896
 20
74.208068
 30
0.0
 10
-83.950114
 20
22.348325
 30
0.0
 10
-17.151643
 20
22.348325
 30
0.0
  0
LWPOLYLINE
  5
10c
100
AcDbEntity
  8
Layer_1
 62
1
100
AcDbPolyline
 90
2
 70
0
 10
-133.566896
 20
288.852528
 30
0.0
 10
-133.566896
 20
144.348403
 30
0.0
  0
LWPOLYLINE
  5
10d
100
AcDbEntity
  8
Layer_1
 62
1
100
AcDbPolyline
 90
2
 70
0
 10
-17.151643
 20
22.348325
 30
0.0
 10
18.972095
 20
22.348325
 30
0.0
  0
SPLINE
  5
10e
100
AcDbEntity
  8
Layer_1
 62
1
100
AcDbSpline
 70
8
 71
3
 72
8
 73
4
 74
0
 40
0
 40
0
 40
0
 40
0
 40
1
 40
1
 40
1
 40
1
 10
54.456776
 20
-59.989795
 30
0.0
 10
54.456776
 20
-59.776011
 30
0.0
 10
53.536379
 20
-59.983092
 30
0.0
 10
53.338823
 20
-60.064584
 30
0.0
  0
SPLINE
  5
10f
100
AcDbEntity
  8
Layer_1
 62
1
100
AcDbSpline
 70
8
 71
3
 72
8
 73
4
 74
0
 40
0
 40
0
 40
0
 40
0
 40
1
 40
1
 40
1
 40
1
 10
53.338823
 20
-60.064584
 30
0.0
 10
52.235334
 20
-60.519314
 30
0.0
 10
49.325623
 20
-64.127525
 30
0.0
 10
47.685207
 20
-65.652583
 30
0.0
  0
SPLINE
  5
110
100
AcDbEntity
  8
Layer_1
 62
1
100
AcDbSpline
 70
8
 71
3
 72
8
 73
4
 74
0
 40
0
 40
0
 40
0
 40
0
 40
1
 40
1
 40
1
 40
1
 10
47.685207
 20
-65.652583
 30
0.0
 10
47.278101
 20
-66.030761
 30
0.0
 10
47.048443
 20
-66.560281
 30
0.0
 10
47.048443
 20
-67.115906
 30
0.0
  0
LWPOLYLINE
  5
111
100
AcDbEntity
  8
Layer_1
 62
1
100
AcDbPolyline
 90
3
 70
0
 10
64.420984
 20
-61.648203
 30
0.0
 10
54.456776
 20
-61.752625
 30
0.0
 10
54.456776
 20
-59.989795
 30
0.0
  0
SPLINE
  5
112
100
AcDbEntity
  8
Layer_1
 62
1
100
AcDbSpline
 70
8
 71
3
 72
8
 73
4
 74
0
 40
0
 40
0
 40
0
 40
0
 40
1
 40
1
 40
1
 40
1
 10
47.048443
 20
-70.057014
 30
0.0
 10
47.048443
 20
-70.612639
 30
0.0
 10
47.278101
 20
-71.142158
 30
0.0
 10
47.685207
 20
-71.520336
 30
0.0
  0
SPLINE
  5
113
100
AcDbEntity
  8
Layer_1
 62
1
100
AcDbSpline
 70
8
 71
3
 72
8
 73
4
 74
0
 40
0
 40
0
 40
0
 40
0
 40
1
 40
1
 40
1
 40
1
 10
47.685207
 20
-71.520336
 30
0.0
 10
49.325623
 20
-73.045394
 30
0.0
 10
52.235334
 20
-76.653605
 30
0.0
 10
53.338823
 20
-77.108689
 30
0.0
  0
SPLINE
  5
114
100
AcDbEntity
  8
Layer_1
 62
1
100
AcDbSpline
 70
8
 71
3
 72
8
 73
4
 74
0
 40
0
 40
0
 40
0
 40
0
 40
1
 40
1
 40
1
 40
1
 10
53.338823
 20
-77.108689
 30
0.0
 10
53.536379
 20
-77.190180
 30
0.0
 10
54.456776
 20
-77.396908
 30
0.0
 10
54.456776
 20
-77.183125
 30
0.0
  0
LWPOLYLINE
  5
115
100
AcDbEntity
  8
Layer_1
 62
1
100
AcDbPolyline
 90
2
 70
0
 10
47.048443
 20
-67.115906
 30
0.0
 10
47.048443
 20
-70.057014
 30
0.0
  0
LWPOLYLINE
  5
116
100
AcDbEntity
  8
Layer_1
 62
1
100
AcDbPolyline
 90
3
 70
0
 10
54.456776
 20
-77.183125
 30
0.0
 10
54.456776
 20
-75.420294
 30
0.0
 10
64.420984
 20
-75.524717
 30
0.0
  0
SPLINE
  5
117
100
AcDbEntity
  8
Layer_1
 62
1
100
AcDbSpline
 70
8
 71
3
 72
8
 73
4
 74
0
 40
0
 40
0
 40
0
 40
0
 40
1
 40
1
 40
1
 40
1
 10
266.947280
 20
-59.989795
 30
0.0
 10
266.947280
 20
-59.776011
 30
0.0
 10
267.867677
 20
-59.983092
 30
0.0
 10
268.065585
 20
-60.064584
 30
0.0
  0
SPLINE
  5
118
100
AcDbEntity
  8
Layer_1
 62
1
100
AcDbSpline
 70
8
 71
3
 72
8
 73
4
 74
0
 40
0
 40
0
 40
0
 40
0
 40
1
 40
1
 40
1
 40
1
 10
268.065585
 20
-60.064584
 30
0.0
 10
269.168721
 20
-60.519314
 30
0.0
 10
272.078433
 20
-64.127525
 30
0.0
 10
273.718849
 20
-65.652583
 30
0.0
  0
SPLINE
  5
119
100
AcDbEntity
  8
Layer_1
 62
1
100
AcDbSpline
 70
8
 71
3
 72
8
 73
4
 74
0
 40
0
 40
0
 40
0
 40
0
 40
1
 40
1
 40
1
 40
1
 10
273.718849
 20
-65.652583
 30
0.0
 10
274.125955
 20
-66.030761
 30
0.0
 10
274.355613
 20
-66.560281
 30
0.0
 10
274.355613
 20
-67.115906
 30
0.0
  0
LWPOLYLINE
  5
11a
100
AcDbEntity
  8
Layer_1
 62
1
100
AcDbPolyline
 90
3
 70
0
 10
256.983072
 20
-61.648203
 30
0.0
 10
266.947280
 20
-61.752625
 30
0.0
 10
266.947280
 20
-59.989795
 30
0.0
  0
SPLINE
  5
11b
100
AcDbEntity
  8
Layer_1
 62
1
100
AcDbSpline
 70
8
 71
3
 72
8
 73
4
 74
0
 40
0
 40
0
 40
0
 40
0
 40
1
 40
1
 40
1
 40
1
 10
274.355613
 20
-70.057014
 30
0.0
 10
274.355613
 20
-70.612639
 30
0.0
 10
274.125955
 20
-71.142158
 30
0.0
 10
273.718849
 20
-71.520336
 30
0.0
  0
SPLINE
  5
11c
100
AcDbEntity
  8
Layer_1
 62
1
100
AcDbSpline
 70
8
 71
3
 72
8
 73
4
 74
0
 40
0
 40
0
 40
0
 40
0
 40
1
 40
1
 40
1
 40
1
 10
273.718849
 20
-71.520336
 30
0.0
 10
272.078433
 20
-73.045394
 30
0.0
 10
269.168721
 20
-76.653605
 30
0.0
 10
268.065585
 20
-77.108689
 30
0.0
  0
SPLINE
  5
11d
100
AcDbEntity
  8
Layer_1
 62
1
100
AcDbSpline
 70
8
 71
3
 72
8
 73
4
 74
0
 40
0
 40
0
 40
0
 40
0
 40
1
 40
1
 40
1
 40
1
 10
268.065585
 20
-77.108689
 30
0.0
 10
267.867677
 20
-77.190180
 30
0.0
 10
266.947280
 20
-77.396908
 30
0.0
 10
266.947280
 20
-77.183125
 30
0.0
  0
LWPOLYLINE
  5
11e
100
AcDbEntity
  8
Layer_1
 62
1
100
AcDbPolyline
 90
2
 70
0
 10
274.355613
 20
-67.115906
 30
0.0
 10
274.355613
 20
-70.057014
 30
0.0
  0
SPLINE
  5
11f
100
AcDbEntity
  8
Layer_1
 62
1
100
AcDbSpline
 70
8
 71
3
 72
8
 73
4
 74
0
 40
0
 40
0
 40
0
 40
0
 40
1
 40
1
 40
1
 40
1
 10
-166.064855
 20
-71.176660
 30
0.0
 10
-166.064855
 20
-70.238977
 30
0.0
 10
-165.304619
 20
-69.478741
 30
0.0
 10
-164.366936
 20
-69.478741
 30
0.0
  0
LWPOLYLINE
  5
120
100
AcDbEntity
  8
Layer_1
 62
1
100
AcDbPolyline
 90
3
 70
0
 10
266.947280
 20
-77.183125
 30
0.0
 10
266.947280
 20
-75.420294
 30
0.0
 10
256.983072
 20
-75.524717
 30
0.0
  0
SPLINE
  5
121
100
AcDbEntity
  8
Layer_1
 62
1
100
AcDbSpline
 70
8
 71
3
 72
8
 73
4
 74
0
 40
0
 40
0
 40
0
 40
0
 40
1
 40
1
 40
1
 40
1
 10
-162.884211
 20
-69.478741
 30
0.0
 10
-161.246263
 20
-69.478741
 30
0.0
 10
-159.918761
 20
-70.806243
 30
0.0
 10
-159.918761
 20
-72.444190
 30
0.0
  0
LWPOLYLINE
  5
122
100
AcDbEntity
  8
Layer_1
 62
1
100
AcDbPolyline
 90
2
 70
0
 10
-164.366936
 20
-69.478741
 30
0.0
 10
-162.884211
 20
-69.478741
 30
0.0
  0
SPLINE
  5
123
100
AcDbEntity
  8
Layer_1
 62
1
100
AcDbSpline
 70
8
 71
3
 72
8
 73
4
 74
0
 40
0
 40
0
 40
0
 40
0
 40
1
 40
1
 40
1
 40
1
 10
-159.918761
 20
-79.210115
 30
0.0
 10
-159.918761
 20
-80.848063
 30
0.0
 10
-161.246263
 20
-81.470010
 30
0.0
 10
-162.884211
 20
-81.470010
 30
0.0
  0
LWPOLYLINE
  5
124
100
AcDbEntity
  8
Layer_1
 62
1
100
AcDbPolyline
 90
2
 70
0
 10
-159.918761
 20
-72.444190
 30
0.0
 10
-159.918761
 20
-79.210115
 30
0.0
  0
SPLINE
  5
125
100
AcDbEntity
  8
Layer_1
 62
1
100
AcDbSpline
 70
8
 71
3
 72
8
 73
4
 74
0
 40
0
 40
0
 40
0
 40
0
 40
1
 40
1
 40
1
 40
1
 10
-168.722683
 20
-81.470010
 30
0.0
 10
-170.360277
 20
-81.470010
 30
0.0
 10
-171.688133
 20
-80.848063
 30
0.0
 10
-171.688133
 20
-79.210115
 30
0.0
  0
SPLINE
  5
126
100
AcDbEntity
  8
Layer_1
 62
1
100
AcDbSpline
 70
8
 71
3
 72
8
 73
4
 74
0
 40
0
 40
0
 40
0
 40
0
 40
1
 40
1
 40
1
 40
1
 10
-154.295518
 20
-71.176660
 30
0.0
 10
-154.295518
 20
-70.238977
 30
0.0
 10
-153.535282
 20
-69.478741
 30
0.0
 10
-152.597599
 20
-69.478741
 30
0.0
  0
LWPOLYLINE
  5
127
100
AcDbEntity
  8
Layer_1
 62
1
100
AcDbPolyline
 90
4
 70
0
 10
-162.884211
 20
-81.470010
 30
0.0
 10
-163.013680
 20
-81.470010
 30
0.0
 10
-162.884211
 20
-81.470010
 30
0.0
 10
-168.722683
 20
-81.470010
 30
0.0
  0
SPLINE
  5
128
100
AcDbEntity
  8
Layer_1
 62
1
100
AcDbSpline
 70
8
 71
3
 72
8
 73
4
 74
0
 40
0
 40
0
 40
0
 40
0
 40
1
 40
1
 40
1
 40
1
 10
-151.114521
 20
-69.478741
 30
0.0
 10
-149.476927
 20
-69.478741
 30
0.0
 10
-148.149071
 20
-70.806243
 30
0.0
 10
-148.149071
 20
-72.444190
 30
0.0
  0
LWPOLYLINE
  5
129
100
AcDbEntity
  8
Layer_1
 62
1
100
AcDbPolyline
 90
2
 70
0
 10
-152.597599
 20
-69.478741
 30
0.0
 10
-151.114521
 20
-69.478741
 30
0.0
  0
SPLINE
  5
12a
100
AcDbEntity
  8
Layer_1
 62
1
100
AcDbSpline
 70
8
 71
3
 72
8
 73
4
 74
0
 40
0
 40
0
 40
0
 40
0
 40
1
 40
1
 40
1
 40
1
 10
-148.149071
 20
-79.210115
 30
0.0
 10
-148.149071
 20
-80.848063
 30
0.0
 10
-149.476927
 20
-81.470010
 30
0.0
 10
-151.114521
 20
-81.470010
 30
0.0
  0
LWPOLYLINE
  5
12b
100
AcDbEntity
  8
Layer_1
 62
1
100
AcDbPolyline
 90
2
 70
0
 10
-148.149071
 20
-72.444190
 30
0.0
 10
-148.149071
 20
-79.210115
 30
0.0
  0
SPLINE
  5
12c
100
AcDbEntity
  8
Layer_1
 62
1
100
AcDbSpline
 70
8
 71
3
 72
8
 73
4
 74
0
 40
0
 40
0
 40
0
 40
0
 40
1
 40
1
 40
1
 40
1
 10
-156.952993
 20
-81.470010
 30
0.0
 10
-158.590940
 20
-81.470010
 30
0.0
 10
-159.918443
 20
-80.848063
 30
0.0
 10
-159.918443
 20
-79.210115
 30
0.0
  0
SPLINE
  5
12d
100
AcDbEntity
  8
Layer_1
 62
1
100
AcDbSpline
 70
8
 71
3
 72
8
 73
4
 74
0
 40
0
 40
0
 40
0
 40
0
 40
1
 40
1
 40
1
 40
1
 10
-142.526041
 20
-71.176660
 30
0.0
 10
-142.526041
 20
-70.238977
 30
0.0
 10
-141.765804
 20
-69.478741
 30
0.0
 10
-140.828121
 20
-69.478741
 30
0.0
  0
LWPOLYLINE
  5
12e
100
AcDbEntity
  8
Layer_1
 62
1
100
AcDbPolyline
 90
4
 70
0
 10
-151.114521
 20
-81.470010
 30
0.0
 10
-151.243991
 20
-81.470010
 30
0.0
 10
-151.114521
 20
-81.470010
 30
0.0
 10
-156.952993
 20
-81.470010
 30
0.0
  0
SPLINE
  5
12f
100
AcDbEntity
  8
Layer_1
 62
1
100
AcDbSpline
 70
8
 71
3
 72
8
 73
4
 74
0
 40
0
 40
0
 40
0
 40
0
 40
1
 40
1
 40
1
 40
1
 10
-139.345043
 20
-69.478741
 30
0.0
 10
-137.707449
 20
-69.478741
 30
0.0
 10
-136.379593
 20
-70.806243
 30
0.0
 10
-136.379593
 20
-72.444190
 30
0.0
  0
LWPOLYLINE
  5
130
100
AcDbEntity
  8
Layer_1
 62
1
100
AcDbPolyline
 90
2
 70
0
 10
-140.828121
 20
-69.478741
 30
0.0
 10
-139.345043
 20
-69.478741
 30
0.0
  0
SPLINE
  5
131
100
AcDbEntity
  8
Layer_1
 62
1
100
AcDbSpline
 70
8
 71
3
 72
8
 73
4
 74
0
 40
0
 40
0
 40
0
 40
0
 40
1
 40
1
 40
1
 40
1
 10
-136.379593
 20
-79.210115
 30
0.0
 10
-136.379593
 20
-80.848063
 30
0.0
 10
-137.707449
 20
-81.470010
 30
0.0
 10
-139.345043
 20
-81.470010
 30
0.0
  0
LWPOLYLINE
  5
132
100
AcDbEntity
  8
Layer_1
 62
1
100
AcDbPolyline
 90
2
 70
0
 10
-136.379593
 20
-72.444190
 30
0.0
 10
-136.379593
 20
-79.210115
 30
0.0
  0
SPLINE
  5
133
100
AcDbEntity
  8
Layer_1
 62
1
100
AcDbSpline
 70
8
 71
3
 72
8
 73
4
 74
0
 40
0
 40
0
 40
0
 40
0
 40
1
 40
1
 40
1
 40
1
 10
-145.183515
 20
-81.470010
 30
0.0
 10
-146.821463
 20
-81.470010
 30
0.0
 10
-148.148965
 20
-80.848063
 30
0.0
 10
-148.148965
 20
-79.210115
 30
0.0
  0
SPLINE
  5
134
100
AcDbEntity
  8
Layer_1
 62
1
100
AcDbSpline
 70
8
 71
3
 72
8
 73
4
 74
0
 40
0
 40
0
 40
0
 40
0
 40
1
 40
1
 40
1
 40
1
 10
-130.756563
 20
-71.176660
 30
0.0
 10
-130.756563
 20
-70.238977
 30
0.0
 10
-129.996327
 20
-69.478741
 30
0.0
 10
-129.058643
 20
-69.478741
 30
0.0
  0
LWPOLYLINE
  5
135
100
AcDbEntity
  8
Layer_1
 62
1
100
AcDbPolyline
 90
4
 70
0
 10
-139.345043
 20
-81.470010
 30
0.0
 10
-139.474866
 20
-81.470010
 30
0.0
 10
-139.345043
 20
-81.470010
 30
0.0
 10
-145.183515
 20
-81.470010
 30
0.0
  0
SPLINE
  5
136
100
AcDbEntity
  8
Layer_1
 62
1
100
AcDbSpline
 70
8
 71
3
 72
8
 73
4
 74
0
 40
0
 40
0
 40
0
 40
0
 40
1
 40
1
 40
1
 40
1
 10
-127.575918
 20
-69.478741
 30
0.0
 10
-125.937971
 20
-69.478741
 30
0.0
 10
-124.610468
 20
-70.806243
 30
0.0
 10
-124.610468
 20
-72.444190
 30
0.0
  0
LWPOLYLINE
  5
137
100
AcDbEntity
  8
Layer_1
 62
1
100
AcDbPolyline
 90
2
 70
0
 10
-129.058643
 20
-69.478741
 30
0.0
 10
-127.575918
 20
-69.478741
 30
0.0
  0
SPLINE
  5
138
100
AcDbEntity
  8
Layer_1
 62
1
100
AcDbSpline
 70
8
 71
3
 72
8
 73
4
 74
0
 40
0
 40
0
 40
0
 40
0
 40
1
 40
1
 40
1
 40
1
 10
-124.610468
 20
-79.210115
 30
0.0
 10
-124.610468
 20
-80.848063
 30
0.0
 10
-125.937971
 20
-81.470010
 30
0.0
 10
-127.575918
 20
-81.470010
 30
0.0
  0
LWPOLYLINE
  5
139
100
AcDbEntity
  8
Layer_1
 62
1
100
AcDbPolyline
 90
2
 70
0
 10
-124.610468
 20
-72.444190
 30
0.0
 10
-124.610468
 20
-79.210115
 30
0.0
  0
SPLINE
  5
13a
100
AcDbEntity
  8
Layer_1
 62
1
100
AcDbSpline
 70
8
 71
3
 72
8
 73
4
 74
0
 40
0
 40
0
 40
0
 40
0
 40
1
 40
1
 40
1
 40
1
 10
-133.414038
 20
-81.470010
 30
0.0
 10
-135.051985
 20
-81.470010
 30
0.0
 10
-136.379488
 20
-80.848063
 30
0.0
 10
-136.379488
 20
-79.210115
 30
0.0
  0
SPLINE
  5
13b
100
AcDbEntity
  8
Layer_1
 62
1
100
AcDbSpline
 70
8
 71
3
 72
8
 73
4
 74
0
 40
0
 40
0
 40
0
 40
0
 40
1
 40
1
 40
1
 40
1
 10
-118.987085
 20
-71.176660
 30
0.0
 10
-118.987085
 20
-70.238977
 30
0.0
 10
-118.226849
 20
-69.478741
 30
0.0
 10
-117.289166
 20
-69.478741
 30
0.0
  0
LWPOLYLINE
  5
13c
100
AcDbEntity
  8
Layer_1
 62
1
100
AcDbPolyline
 90
4
 70
0
 10
-127.575918
 20
-81.470010
 30
0.0
 10
-127.705388
 20
-81.470010
 30
0.0
 10
-127.575918
 20
-81.470010
 30
0.0
 10
-133.414038
 20
-81.470010
 30
0.0
  0
SPLINE
  5
13d
100
AcDbEntity
  8
Layer_1
 62
1
100
AcDbSpline
 70
8
 71
3
 72
8
 73
4
 74
0
 40
0
 40
0
 40
0
 40
0
 40
1
 40
1
 40
1
 40
1
 10
-115.806441
 20
-69.478741
 30
0.0
 10
-114.168493
 20
-69.478741
 30
0.0
 10
-112.840991
 20
-70.806243
 30
0.0
 10
-112.840991
 20
-72.444190
 30
0.0
  0
LWPOLYLINE
  5
13e
100
AcDbEntity
  8
Layer_1
 62
1
100
AcDbPolyline
 90
2
 70
0
 10
-117.289166
 20
-69.478741
 30
0.0
 10
-115.806441
 20
-69.478741
 30
0.0
  0
SPLINE
  5
13f
100
AcDbEntity
  8
Layer_1
 62
1
100
AcDbSpline
 70
8
 71
3
 72
8
 73
4
 74
0
 40
0
 40
0
 40
0
 40
0
 40
1
 40
1
 40
1
 40
1
 10
-112.840991
 20
-79.210115
 30
0.0
 10
-112.840991
 20
-80.848063
 30
0.0
 10
-114.168493
 20
-81.470010
 30
0.0
 10
-115.806441
 20
-81.470010
 30
0.0
  0
LWPOLYLINE
  5
140
100
AcDbEntity
  8
Layer_1
 62
1
100
AcDbPolyline
 90
2
 70
0
 10
-112.840991
 20
-72.444190
 30
0.0
 10
-112.840991
 20
-79.210115
 30
0.0
  0
SPLINE
  5
141
100
AcDbEntity
  8
Layer_1
 62
1
100
AcDbSpline
 70
8
 71
3
 72
8
 73
4
 74
0
 40
0
 40
0
 40
0
 40
0
 40
1
 40
1
 40
1
 40
1
 10
-121.644913
 20
-81.470010
 30
0.0
 10
-123.282507
 20
-81.470010
 30
0.0
 10
-124.610363
 20
-80.848063
 30
0.0
 10
-124.610363
 20
-79.210115
 30
0.0
  0
SPLINE
  5
142
100
AcDbEntity
  8
Layer_1
 62
1
100
AcDbSpline
 70
8
 71
3
 72
8
 73
4
 74
0
 40
0
 40
0
 40
0
 40
0
 40
1
 40
1
 40
1
 40
1
 10
-107.217607
 20
-71.176660
 30
0.0
 10
-107.217607
 20
-70.238977
 30
0.0
 10
-106.457371
 20
-69.478741
 30
0.0
 10
-105.519688
 20
-69.478741
 30
0.0
  0
LWPOLYLINE
  5
143
100
AcDbEntity
  8
Layer_1
 62
1
100
AcDbPolyline
 90
4
 70
0
 10
-115.806441
 20
-81.470010
 30
0.0
 10
-115.935910
 20
-81.470010
 30
0.0
 10
-115.806441
 20
-81.470010
 30
0.0
 10
-121.644913
 20
-81.470010
 30
0.0
  0
SPLINE
  5
144
100
AcDbEntity
  8
Layer_1
 62
1
100
AcDbSpline
 70
8
 71
3
 72
8
 73
4
 74
0
 40
0
 40
0
 40
0
 40
0
 40
1
 40
1
 40
1
 40
1
 10
-104.036963
 20
-69.478741
 30
0.0
 10
-102.399016
 20
-69.478741
 30
0.0
 10
-101.071513
 20
-70.806243
 30
0.0
 10
-101.071513
 20
-72.444190
 30
0.0
  0
LWPOLYLINE
  5
145
100
AcDbEntity
  8
Layer_1
 62
1
100
AcDbPolyline
 90
2
 70
0
 10
-105.519688
 20
-69.478741
 30
0.0
 10
-104.036963
 20
-69.478741
 30
0.0
  0
SPLINE
  5
146
100
AcDbEntity
  8
Layer_1
 62
1
100
AcDbSpline
 70
8
 71
3
 72
8
 73
4
 74
0
 40
0
 40
0
 40
0
 40
0
 40
1
 40
1
 40
1
 40
1
 10
-101.071513
 20
-79.210115
 30
0.0
 10
-101.071513
 20
-80.848063
 30
0.0
 10
-102.399016
 20
-81.470010
 30
0.0
 10
-104.036963
 20
-81.470010
 30
0.0
  0
LWPOLYLINE
  5
147
100
AcDbEntity
  8
Layer_1
 62
1
100
AcDbPolyline
 90
2
 70
0
 10
-101.071513
 20
-72.444190
 30
0.0
 10
-101.071513
 20
-79.210115
 30
0.0
  0
SPLINE
  5
148
100
AcDbEntity
  8
Layer_1
 62
1
100
AcDbSpline
 70
8
 71
3
 72
8
 73
4
 74
0
 40
0
 40
0
 40
0
 40
0
 40
1
 40
1
 40
1
 40
1
 10
-109.875435
 20
-81.470010
 30
0.0
 10
-111.513029
 20
-81.470010
 30
0.0
 10
-112.840885
 20
-80.848063
 30
0.0
 10
-112.840885
 20
-79.210115
 30
0.0
  0
SPLINE
  5
149
100
AcDbEntity
  8
Layer_1
 62
1
100
AcDbSpline
 70
8
 71
3
 72
8
 73
4
 74
0
 40
0
 40
0
 40
0
 40
0
 40
1
 40
1
 40
1
 40
1
 10
-95.448129
 20
-71.176660
 30
0.0
 10
-95.448129
 20
-70.238977
 30
0.0
 10
-94.687893
 20
-69.478741
 30
0.0
 10
-93.750210
 20
-69.478741
 30
0.0
  0
LWPOLYLINE
  5
14a
100
AcDbEntity
  8
Layer_1
 62
1
100
AcDbPolyline
 90
4
 70
0
 10
-104.036963
 20
-81.470010
 30
0.0
 10
-104.166432
 20
-81.470010
 30
0.0
 10
-104.036963
 20
-81.470010
 30
0.0
 10
-109.875435
 20
-81.470010
 30
0.0
  0
SPLINE
  5
14b
100
AcDbEntity
  8
Layer_1
 62
1
100
AcDbSpline
 70
8
 71
3
 72
8
 73
4
 74
0
 40
0
 40
0
 40
0
 40
0
 40
1
 40
1
 40
1
 40
1
 10
-92.267485
 20
-69.478741
 30
0.0
 10
-90.629538
 20
-69.478741
 30
0.0
 10
-89.302035
 20
-70.806243
 30
0.0
 10
-89.302035
 20
-72.444190
 30
0.0
  0
LWPOLYLINE
  5
14c
100
AcDbEntity
  8
Layer_1
 62
1
100
AcDbPolyline
 90
2
 70
0
 10
-93.750210
 20
-69.478741
 30
0.0
 10
-92.267485
 20
-69.478741
 30
0.0
  0
SPLINE
  5
14d
100
AcDbEntity
  8
Layer_1
 62
1
100
AcDbSpline
 70
8
 71
3
 72
8
 73
4
 74
0
 40
0
 40
0
 40
0
 40
0
 40
1
 40
1
 40
1
 40
1
 10
-89.302035
 20
-79.210115
 30
0.0
 10
-89.302035
 20
-80.848063
 30
0.0
 10
-90.629538
 20
-81.470010
 30
0.0
 10
-92.267485
 20
-81.470010
 30
0.0
  0
LWPOLYLINE
  5
14e
100
AcDbEntity
  8
Layer_1
 62
1
100
AcDbPolyline
 90
2
 70
0
 10
-89.302035
 20
-72.444190
 30
0.0
 10
-89.302035
 20
-79.210115
 30
0.0
  0
SPLINE
  5
14f
100
AcDbEntity
  8
Layer_1
 62
1
100
AcDbSpline
 70
8
 71
3
 72
8
 73
4
 74
0
 40
0
 40
0
 40
0
 40
0
 40
1
 40
1
 40
1
 40
1
 10
-98.105957
 20
-81.470010
 30
0.0
 10
-99.743551
 20
-81.470010
 30
0.0
 10
-101.071407
 20
-80.848063
 30
0.0
 10
-101.071407
 20
-79.210115
 30
0.0
  0
SPLINE
  5
150
100
AcDbEntity
  8
Layer_1
 62
1
100
AcDbSpline
 70
8
 71
3
 72
8
 73
4
 74
0
 40
0
 40
0
 40
0
 40
0
 40
1
 40
1
 40
1
 40
1
 10
-83.678652
 20
-71.176660
 30
0.0
 10
-83.678652
 20
-70.238977
 30
0.0
 10
-82.918415
 20
-69.478741
 30
0.0
 10
-81.980732
 20
-69.478741
 30
0.0
  0
LWPOLYLINE
  5
151
100
AcDbEntity
  8
Layer_1
 62
1
100
AcDbPolyline
 90
4
 70
0
 10
-92.267485
 20
-81.470010
 30
0.0
 10
-92.396954
 20
-81.470010
 30
0.0
 10
-92.267485
 20
-81.470010
 30
0.0
 10
-98.105957
 20
-81.470010
 30
0.0
  0
SPLINE
  5
152
100
AcDbEntity
  8
Layer_1
 62
1
100
AcDbSpline
 70
8
 71
3
 72
8
 73
4
 74
0
 40
0
 40
0
 40
0
 40
0
 40
1
 40
1
 40
1
 40
1
 10
-80.498007
 20
-69.478741
 30
0.0
 10
-78.860060
 20
-69.478741
 30
0.0
 10
-77.532557
 20
-70.806243
 30
0.0
 10
-77.532557
 20
-72.444190
 30
0.0
  0
LWPOLYLINE
  5
153
100
AcDbEntity
  8
Layer_1
 62
1
100
AcDbPolyline
 90
2
 70
0
 10
-81.980732
 20
-69.478741
 30
0.0
 10
-80.498007
 20
-69.478741
 30
0.0
  0
SPLINE
  5
154
100
AcDbEntity
  8
Layer_1
 62
1
100
AcDbSpline
 70
8
 71
3
 72
8
 73
4
 74
0
 40
0
 40
0
 40
0
 40
0
 40
1
 40
1
 40
1
 40
1
 10
-77.532557
 20
-78.504560
 30
0.0
 10
-77.532557
 20
-80.142507
 30
0.0
 10
-78.860060
 20
-81.470010
 30
0.0
 10
-80.498007
 20
-81.470010
 30
0.0
  0
LWPOLYLINE
  5
155
100
AcDbEntity
  8
Layer_1
 62
1
100
AcDbPolyline
 90
2
 70
0
 10
-77.532557
 20
-72.444190
 30
0.0
 10
-77.532557
 20
-78.504560
 30
0.0
  0
SPLINE
  5
156
100
AcDbEntity
  8
Layer_1
 62
1
100
AcDbSpline
 70
8
 71
3
 72
8
 73
4
 74
0
 40
0
 40
0
 40
0
 40
0
 40
1
 40
1
 40
1
 40
1
 10
-86.336479
 20
-81.470010
 30
0.0
 10
-87.974074
 20
-81.470010
 30
0.0
 10
-89.301929
 20
-80.848063
 30
0.0
 10
-89.301929
 20
-79.210115
 30
0.0
  0
LWPOLYLINE
  5
157
100
AcDbEntity
  8
Layer_1
 62
1
100
AcDbPolyline
 90
4
 70
0
 10
-80.498007
 20
-81.470010
 30
0.0
 10
-80.627477
 20
-81.470010
 30
0.0
 10
-80.498007
 20
-81.470010
 30
0.0
 10
-86.336479
 20
-81.470010
 30
0.0
  0
SPLINE
  5
158
100
AcDbEntity
  8
Layer_1
 62
1
100
AcDbSpline
 70
8
 71
3
 72
8
 73
4
 74
0
 40
0
 40
0
 40
0
 40
0
 40
1
 40
1
 40
1
 40
1
 10
-74.567037
 20
-82.166181
 30
0.0
 10
-76.204631
 20
-82.166181
 30
0.0
 10
-77.532487
 20
-80.485548
 30
0.0
 10
-77.532487
 20
-78.847954
 30
0.0
  0
SPLINE
  5
159
100
AcDbEntity
  8
Layer_1
 62
1
100
AcDbSpline
 70
8
 71
3
 72
8
 73
4
 74
0
 40
0
 40
0
 40
0
 40
0
 40
1
 40
1
 40
1
 40
1
 10
487.252023
 20
-66.822747
 30
0.0
 10
487.252023
 20
-67.760431
 30
0.0
 10
486.491787
 20
-68.520667
 30
0.0
 10
485.554104
 20
-68.520667
 30
0.0
  0
LWPOLYLINE
  5
15a
100
AcDbEntity
  8
Layer_1
 62
1
100
AcDbPolyline
 90
2
 70
0
 10
-74.605842
 20
-82.166181
 30
0.0
 10
-74.567037
 20
-82.166181
 30
0.0
  0
SPLINE
  5
15b
100
AcDbEntity
  8
Layer_1
 62
1
100
AcDbSpline
 70
8
 71
3
 72
8
 73
4
 74
0
 40
0
 40
0
 40
0
 40
0
 40
1
 40
1
 40
1
 40
1
 10
484.071379
 20
-68.520667
 30
0.0
 10
482.433432
 20
-68.520667
 30
0.0
 10
481.105929
 20
-67.192811
 30
0.0
 10
481.105929
 20
-65.555217
 30
0.0
  0
LWPOLYLINE
  5
15c
100
AcDbEntity
  8
Layer_1
 62
1
100
AcDbPolyline
 90
2
 70
0
 10
485.554104
 20
-68.520667
 30
0.0
 10
484.071379
 20
-68.520667
 30
0.0
  0
SPLINE
  5
15d
100
AcDbEntity
  8
Layer_1
 62
1
100
AcDbSpline
 70
8
 71
3
 72
8
 73
4
 74
0
 40
0
 40
0
 40
0
 40
0
 40
1
 40
1
 40
1
 40
1
 10
481.105929
 20
-59.494847
 30
0.0
 10
481.105929
 20
-57.856900
 30
0.0
 10
482.433432
 20
-56.529045
 30
0.0
 10
484.071379
 20
-56.529045
 30
0.0
  0
LWPOLYLINE
  5
15e
100
AcDbEntity
  8
Layer_1
 62
1
100
AcDbPolyline
 90
2
 70
0
 10
481.105929
 20
-65.555217
 30
0.0
 10
481.105929
 20
-59.494847
 30
0.0
  0
SPLINE
  5
15f
100
AcDbEntity
  8
Layer_1
 62
1
100
AcDbSpline
 70
8
 71
3
 72
8
 73
4
 74
0
 40
0
 40
0
 40
0
 40
0
 40
1
 40
1
 40
1
 40
1
 10
489.909851
 20
-56.529045
 30
0.0
 10
491.547445
 20
-56.529045
 30
0.0
 10
492.875301
 20
-57.856900
 30
0.0
 10
492.875301
 20
-59.494847
 30
0.0
  0
SPLINE
  5
160
100
AcDbEntity
  8
Layer_1
 62
1
100
AcDbSpline
 70
8
 71
3
 72
8
 73
4
 74
0
 40
0
 40
0
 40
0
 40
0
 40
1
 40
1
 40
1
 40
1
 10
475.482545
 20
-66.822747
 30
0.0
 10
475.482545
 20
-67.760431
 30
0.0
 10
474.722309
 20
-68.520667
 30
0.0
 10
473.784626
 20
-68.520667
 30
0.0
  0
LWPOLYLINE
  5
161
100
AcDbEntity
  8
Layer_1
 62
1
100
AcDbPolyline
 90
4
 70
0
 10
484.071379
 20
-56.529045
 30
0.0
 10
484.200848
 20
-56.529045
 30
0.0
 10
484.071379
 20
-56.529045
 30
0.0
 10
489.909851
 20
-56.529045
 30
0.0
  0
SPLINE
  5
162
100
AcDbEntity
  8
Layer_1
 62
1
100
AcDbSpline
 70
8
 71
3
 72
8
 73
4
 74
0
 40
0
 40
0
 40
0
 40
0
 40
1
 40
1
 40
1
 40
1
 10
472.301901
 20
-68.520667
 30
0.0
 10
470.663954
 20
-68.520667
 30
0.0
 10
469.336451
 20
-67.192811
 30
0.0
 10
469.336451
 20
-65.555217
 30
0.0
  0
LWPOLYLINE
  5
163
100
AcDbEntity
  8
Layer_1
 62
1
100
AcDbPolyline
 90
2
 70
0
 10
473.784626
 20
-68.520667
 30
0.0
 10
472.301901
 20
-68.520667
 30
0.0
  0
SPLINE
  5
164
100
AcDbEntity
  8
Layer_1
 62
1
100
AcDbSpline
 70
8
 71
3
 72
8
 73
4
 74
0
 40
0
 40
0
 40
0
 40
0
 40
1
 40
1
 40
1
 40
1
 10
469.336451
 20
-59.494847
 30
0.0
 10
469.336451
 20
-57.856900
 30
0.0
 10
470.663954
 20
-56.529045
 30
0.0
 10
472.301901
 20
-56.529045
 30
0.0
  0
LWPOLYLINE
  5
165
100
AcDbEntity
  8
Layer_1
 62
1
100
AcDbPolyline
 90
2
 70
0
 10
469.336451
 20
-65.555217
 30
0.0
 10
469.336451
 20
-59.494847
 30
0.0
  0
SPLINE
  5
166
100
AcDbEntity
  8
Layer_1
 62
1
100
AcDbSpline
 70
8
 71
3
 72
8
 73
4
 74
0
 40
0
 40
0
 40
0
 40
0
 40
1
 40
1
 40
1
 40
1
 10
478.140373
 20
-56.529045
 30
0.0
 10
479.777967
 20
-56.529045
 30
0.0
 10
481.105823
 20
-57.856900
 30
0.0
 10
481.105823
 20
-59.494847
 30
0.0
  0
SPLINE
  5
167
100
AcDbEntity
  8
Layer_1
 62
1
100
AcDbSpline
 70
8
 71
3
 72
8
 73
4
 74
0
 40
0
 40
0
 40
0
 40
0
 40
1
 40
1
 40
1
 40
1
 10
463.713067
 20
-66.822747
 30
0.0
 10
463.713067
 20
-67.760431
 30
0.0
 10
462.952831
 20
-68.520667
 30
0.0
 10
462.015148
 20
-68.520667
 30
0.0
  0
LWPOLYLINE
  5
168
100
AcDbEntity
  8
Layer_1
 62
1
100
AcDbPolyline
 90
4
 70
0
 10
472.301901
 20
-56.529045
 30
0.0
 10
472.431370
 20
-56.529045
 30
0.0
 10
472.301901
 20
-56.529045
 30
0.0
 10
478.140373
 20
-56.529045
 30
0.0
  0
SPLINE
  5
169
100
AcDbEntity
  8
Layer_1
 62
1
100
AcDbSpline
 70
8
 71
3
 72
8
 73
4
 74
0
 40
0
 40
0
 40
0
 40
0
 40
1
 40
1
 40
1
 40
1
 10
460.532423
 20
-68.520667
 30
0.0
 10
458.894476
 20
-68.520667
 30
0.0
 10
457.566973
 20
-67.192811
 30
0.0
 10
457.566973
 20
-65.555217
 30
0.0
  0
LWPOLYLINE
  5
16a
100
AcDbEntity
  8
Layer_1
 62
1
100
AcDbPolyline
 90
2
 70
0
 10
462.015148
 20
-68.520667
 30
0.0
 10
460.532423
 20
-68.520667
 30
0.0
  0
SPLINE
  5
16b
100
AcDbEntity
  8
Layer_1
 62
1
100
AcDbSpline
 70
8
 71
3
 72
8
 73
4
 74
0
 40
0
 40
0
 40
0
 40
0
 40
1
 40
1
 40
1
 40
1
 10
457.566973
 20
-59.494847
 30
0.0
 10
457.566973
 20
-57.856900
 30
0.0
 10
458.894476
 20
-56.529045
 30
0.0
 10
460.532423
 20
-56.529045
 30
0.0
  0
LWPOLYLINE
  5
16c
100
AcDbEntity
  8
Layer_1
 62
1
100
AcDbPolyline
 90
2
 70
0
 10
457.566973
 20
-65.555217
 30
0.0
 10
457.566973
 20
-59.494847
 30
0.0
  0
SPLINE
  5
16d
100
AcDbEntity
  8
Layer_1
 62
1
100
AcDbSpline
 70
8
 71
3
 72
8
 73
4
 74
0
 40
0
 40
0
 40
0
 40
0
 40
1
 40
1
 40
1
 40
1
 10
466.370895
 20
-56.529045
 30
0.0
 10
468.008490
 20
-56.529045
 30
0.0
 10
469.336345
 20
-57.856900
 30
0.0
 10
469.336345
 20
-59.494847
 30
0.0
  0
SPLINE
  5
16e
100
AcDbEntity
  8
Layer_1
 62
1
100
AcDbSpline
 70
8
 71
3
 72
8
 73
4
 74
0
 40
0
 40
0
 40
0
 40
0
 40
1
 40
1
 40
1
 40
1
 10
451.943766
 20
-66.822747
 30
0.0
 10
451.943766
 20
-67.760431
 30
0.0
 10
451.183530
 20
-68.520667
 30
0.0
 10
450.245847
 20
-68.520667
 30
0.0
  0
LWPOLYLINE
  5
16f
100
AcDbEntity
  8
Layer_1
 62
1
100
AcDbPolyline
 90
4
 70
0
 10
460.532423
 20
-56.529045
 30
0.0
 10
460.661893
 20
-56.529045
 30
0.0
 10
460.532423
 20
-56.529045
 30
0.0
 10
466.370895
 20
-56.529045
 30
0.0
  0
SPLINE
  5
170
100
AcDbEntity
  8
Layer_1
 62
1
100
AcDbSpline
 70
8
 71
3
 72
8
 73
4
 74
0
 40
0
 40
0
 40
0
 40
0
 40
1
 40
1
 40
1
 40
1
 10
448.762769
 20
-68.520667
 30
0.0
 10
447.125175
 20
-68.520667
 30
0.0
 10
445.797319
 20
-67.192811
 30
0.0
 10
445.797319
 20
-65.555217
 30
0.0
  0
LWPOLYLINE
  5
171
100
AcDbEntity
  8
Layer_1
 62
1
100
AcDbPolyline
 90
2
 70
0
 10
450.245847
 20
-68.520667
 30
0.0
 10
448.762769
 20
-68.520667
 30
0.0
  0
SPLINE
  5
172
100
AcDbEntity
  8
Layer_1
 62
1
100
AcDbSpline
 70
8
 71
3
 72
8
 73
4
 74
0
 40
0
 40
0
 40
0
 40
0
 40
1
 40
1
 40
1
 40
1
 10
445.797319
 20
-59.494847
 30
0.0
 10
445.797319
 20
-57.856900
 30
0.0
 10
447.125175
 20
-56.529045
 30
0.0
 10
448.762769
 20
-56.529045
 30
0.0
  0
LWPOLYLINE
  5
173
100
AcDbEntity
  8
Layer_1
 62
1
100
AcDbPolyline
 90
2
 70
0
 10
445.797319
 20
-65.555217
 30
0.0
 10
445.797319
 20
-59.494847
 30
0.0
  0
SPLINE
  5
174
100
AcDbEntity
  8
Layer_1
 62
1
100
AcDbSpline
 70
8
 71
3
 72
8
 73
4
 74
0
 40
0
 40
0
 40
0
 40
0
 40
1
 40
1
 40
1
 40
1
 10
454.601241
 20
-56.529045
 30
0.0
 10
456.239188
 20
-56.529045
 30
0.0
 10
457.566691
 20
-57.856900
 30
0.0
 10
457.566691
 20
-59.494847
 30
0.0
  0
SPLINE
  5
175
100
AcDbEntity
  8
Layer_1
 62
1
100
AcDbSpline
 70
8
 71
3
 72
8
 73
4
 74
0
 40
0
 40
0
 40
0
 40
0
 40
1
 40
1
 40
1
 40
1
 10
440.174288
 20
-66.822747
 30
0.0
 10
440.174288
 20
-67.760431
 30
0.0
 10
439.414052
 20
-68.520667
 30
0.0
 10
438.476369
 20
-68.520667
 30
0.0
  0
LWPOLYLINE
  5
176
100
AcDbEntity
  8
Layer_1
 62
1
100
AcDbPolyline
 90
4
 70
0
 10
448.762769
 20
-56.529045
 30
0.0
 10
448.892238
 20
-56.529045
 30
0.0
 10
448.762769
 20
-56.529045
 30
0.0
 10
454.601241
 20
-56.529045
 30
0.0
  0
SPLINE
  5
177
100
AcDbEntity
  8
Layer_1
 62
1
100
AcDbSpline
 70
8
 71
3
 72
8
 73
4
 74
0
 40
0
 40
0
 40
0
 40
0
 40
1
 40
1
 40
1
 40
1
 10
436.993291
 20
-68.520667
 30
0.0
 10
435.355697
 20
-68.520667
 30
0.0
 10
434.027841
 20
-67.192811
 30
0.0
 10
434.027841
 20
-65.555217
 30
0.0
  0
LWPOLYLINE
  5
178
100
AcDbEntity
  8
Layer_1
 62
1
100
AcDbPolyline
 90
2
 70
0
 10
438.476369
 20
-68.520667
 30
0.0
 10
436.993291
 20
-68.520667
 30
0.0
  0
SPLINE
  5
179
100
AcDbEntity
  8
Layer_1
 62
1
100
AcDbSpline
 70
8
 71
3
 72
8
 73
4
 74
0
 40
0
 40
0
 40
0
 40
0
 40
1
 40
1
 40
1
 40
1
 10
434.027841
 20
-59.494847
 30
0.0
 10
434.027841
 20
-57.856900
 30
0.0
 10
435.355697
 20
-56.529045
 30
0.0
 10
436.993291
 20
-56.529045
 30
0.0
  0
LWPOLYLINE
  5
17a
100
AcDbEntity
  8
Layer_1
 62
1
100
AcDbPolyline
 90
2
 70
0
 10
434.027841
 20
-65.555217
 30
0.0
 10
434.027841
 20
-59.494847
 30
0.0
  0
SPLINE
  5
17b
100
AcDbEntity
  8
Layer_1
 62
1
100
AcDbSpline
 70
8
 71
3
 72
8
 73
4
 74
0
 40
0
 40
0
 40
0
 40
0
 40
1
 40
1
 40
1
 40
1
 10
442.831763
 20
-56.529045
 30
0.0
 10
444.469710
 20
-56.529045
 30
0.0
 10
445.797213
 20
-57.856900
 30
0.0
 10
445.797213
 20
-59.494847
 30
0.0
  0
SPLINE
  5
17c
100
AcDbEntity
  8
Layer_1
 62
1
100
AcDbSpline
 70
8
 71
3
 72
8
 73
4
 74
0
 40
0
 40
0
 40
0
 40
0
 40
1
 40
1
 40
1
 40
1
 10
428.404810
 20
-66.822747
 30
0.0
 10
428.404810
 20
-67.760431
 30
0.0
 10
427.644574
 20
-68.520667
 30
0.0
 10
426.706891
 20
-68.520667
 30
0.0
  0
LWPOLYLINE
  5
17d
100
AcDbEntity
  8
Layer_1
 62
1
100
AcDbPolyline
 90
4
 70
0
 10
436.993291
 20
-56.529045
 30
0.0
 10
437.123113
 20
-56.529045
 30
0.0
 10
436.993291
 20
-56.529045
 30
0.0
 10
442.831763
 20
-56.529045
 30
0.0
  0
SPLINE
  5
17e
100
AcDbEntity
  8
Layer_1
 62
1
100
AcDbSpline
 70
8
 71
3
 72
8
 73
4
 74
0
 40
0
 40
0
 40
0
 40
0
 40
1
 40
1
 40
1
 40
1
 10
425.224166
 20
-68.520667
 30
0.0
 10
423.586219
 20
-68.520667
 30
0.0
 10
422.258716
 20
-67.192811
 30
0.0
 10
422.258716
 20
-65.555217
 30
0.0
  0
LWPOLYLINE
  5
17f
100
AcDbEntity
  8
Layer_1
 62
1
100
AcDbPolyline
 90
2
 70
0
 10
426.706891
 20
-68.520667
 30
0.0
 10
425.224166
 20
-68.520667
 30
0.0
  0
SPLINE
  5
180
100
AcDbEntity
  8
Layer_1
 62
1
100
AcDbSpline
 70
8
 71
3
 72
8
 73
4
 74
0
 40
0
 40
0
 40
0
 40
0
 40
1
 40
1
 40
1
 40
1
 10
422.258716
 20
-59.494847
 30
0.0
 10
422.258716
 20
-57.856900
 30
0.0
 10
423.586219
 20
-56.529045
 30
0.0
 10
425.224166
 20
-56.529045
 30
0.0
  0
LWPOLYLINE
  5
181
100
AcDbEntity
  8
Layer_1
 62
1
100
AcDbPolyline
 90
2
 70
0
 10
422.258716
 20
-65.555217
 30
0.0
 10
422.258716
 20
-59.494847
 30
0.0
  0
SPLINE
  5
182
100
AcDbEntity
  8
Layer_1
 62
1
100
AcDbSpline
 70
8
 71
3
 72
8
 73
4
 74
0
 40
0
 40
0
 40
0
 40
0
 40
1
 40
1
 40
1
 40
1
 10
431.062285
 20
-56.529045
 30
0.0
 10
432.700233
 20
-56.529045
 30
0.0
 10
434.027735
 20
-57.856900
 30
0.0
 10
434.027735
 20
-59.494847
 30
0.0
  0
SPLINE
  5
183
100
AcDbEntity
  8
Layer_1
 62
1
100
AcDbSpline
 70
8
 71
3
 72
8
 73
4
 74
0
 40
0
 40
0
 40
0
 40
0
 40
1
 40
1
 40
1
 40
1
 10
416.635333
 20
-66.822747
 30
0.0
 10
416.635333
 20
-67.760431
 30
0.0
 10
415.875097
 20
-68.520667
 30
0.0
 10
414.937413
 20
-68.520667
 30
0.0
  0
LWPOLYLINE
  5
184
100
AcDbEntity
  8
Layer_1
 62
1
100
AcDbPolyline
 90
4
 70
0
 10
425.224166
 20
-56.529045
 30
0.0
 10
425.353636
 20
-56.529045
 30
0.0
 10
425.224166
 20
-56.529045
 30
0.0
 10
431.062285
 20
-56.529045
 30
0.0
  0
SPLINE
  5
185
100
AcDbEntity
  8
Layer_1
 62
1
100
AcDbSpline
 70
8
 71
3
 72
8
 73
4
 74
0
 40
0
 40
0
 40
0
 40
0
 40
1
 40
1
 40
1
 40
1
 10
413.454688
 20
-68.520667
 30
0.0
 10
411.816741
 20
-68.520667
 30
0.0
 10
410.489238
 20
-67.192811
 30
0.0
 10
410.489238
 20
-65.555217
 30
0.0
  0
LWPOLYLINE
  5
186
100
AcDbEntity
  8
Layer_1
 62
1
100
AcDbPolyline
 90
2
 70
0
 10
414.937413
 20
-68.520667
 30
0.0
 10
413.454688
 20
-68.520667
 30
0.0
  0
SPLINE
  5
187
100
AcDbEntity
  8
Layer_1
 62
1
100
AcDbSpline
 70
8
 71
3
 72
8
 73
4
 74
0
 40
0
 40
0
 40
0
 40
0
 40
1
 40
1
 40
1
 40
1
 10
410.489238
 20
-59.494847
 30
0.0
 10
410.489238
 20
-57.856900
 30
0.0
 10
411.816741
 20
-56.529045
 30
0.0
 10
413.454688
 20
-56.529045
 30
0.0
  0
LWPOLYLINE
  5
188
100
AcDbEntity
  8
Layer_1
 62
1
100
AcDbPolyline
 90
2
 70
0
 10
410.489238
 20
-65.555217
 30
0.0
 10
410.489238
 20
-59.494847
 30
0.0
  0
SPLINE
  5
189
100
AcDbEntity
  8
Layer_1
 62
1
100
AcDbSpline
 70
8
 71
3
 72
8
 73
4
 74
0
 40
0
 40
0
 40
0
 40
0
 40
1
 40
1
 40
1
 40
1
 10
419.293160
 20
-56.529045
 30
0.0
 10
420.930755
 20
-56.529045
 30
0.0
 10
422.258610
 20
-57.856900
 30
0.0
 10
422.258610
 20
-59.494847
 30
0.0
  0
SPLINE
  5
18a
100
AcDbEntity
  8
Layer_1
 62
1
100
AcDbSpline
 70
8
 71
3
 72
8
 73
4
 74
0
 40
0
 40
0
 40
0
 40
0
 40
1
 40
1
 40
1
 40
1
 10
404.865855
 20
-66.822747
 30
0.0
 10
404.865855
 20
-67.760431
 30
0.0
 10
404.105619
 20
-68.520667
 30
0.0
 10
403.167935
 20
-68.520667
 30
0.0
  0
LWPOLYLINE
  5
18b
100
AcDbEntity
  8
Layer_1
 62
1
100
AcDbPolyline
 90
4
 70
0
 10
413.454688
 20
-56.529045
 30
0.0
 10
413.584158
 20
-56.529045
 30
0.0
 10
413.454688
 20
-56.529045
 30
0.0
 10
419.293160
 20
-56.529045
 30
0.0
  0
SPLINE
  5
18c
100
AcDbEntity
  8
Layer_1
 62
1
100
AcDbSpline
 70
8
 71
3
 72
8
 73
4
 74
0
 40
0
 40
0
 40
0
 40
0
 40
1
 40
1
 40
1
 40
1
 10
401.685211
 20
-68.520667
 30
0.0
 10
400.047263
 20
-68.520667
 30
0.0
 10
398.719761
 20
-67.192811
 30
0.0
 10
398.719761
 20
-65.555217
 30
0.0
  0
LWPOLYLINE
  5
18d
100
AcDbEntity
  8
Layer_1
 62
1
100
AcDbPolyline
 90
2
 70
0
 10
403.167935
 20
-68.520667
 30
0.0
 10
401.685211
 20
-68.520667
 30
0.0
  0
SPLINE
  5
18e
100
AcDbEntity
  8
Layer_1
 62
1
100
AcDbSpline
 70
8
 71
3
 72
8
 73
4
 74
0
 40
0
 40
0
 40
0
 40
0
 40
1
 40
1
 40
1
 40
1
 10
398.719761
 20
-59.494847
 30
0.0
 10
398.719761
 20
-57.856900
 30
0.0
 10
400.047263
 20
-56.529045
 30
0.0
 10
401.685211
 20
-56.529045
 30
0.0
  0
LWPOLYLINE
  5
18f
100
AcDbEntity
  8
Layer_1
 62
1
100
AcDbPolyline
 90
2
 70
0
 10
398.719761
 20
-65.555217
 30
0.0
 10
398.719761
 20
-59.494847
 30
0.0
  0
SPLINE
  5
190
100
AcDbEntity
  8
Layer_1
 62
1
100
AcDbSpline
 70
8
 71
3
 72
8
 73
4
 74
0
 40
0
 40
0
 40
0
 40
0
 40
1
 40
1
 40
1
 40
1
 10
407.523683
 20
-56.529045
 30
0.0
 10
409.161277
 20
-56.529045
 30
0.0
 10
410.489133
 20
-57.856900
 30
0.0
 10
410.489133
 20
-59.494847
 30
0.0
  0
SPLINE
  5
191
100
AcDbEntity
  8
Layer_1
 62
1
100
AcDbSpline
 70
8
 71
3
 72
8
 73
4
 74
0
 40
0
 40
0
 40
0
 40
0
 40
1
 40
1
 40
1
 40
1
 10
398.719619
 20
-59.151383
 30
0.0
 10
398.719619
 20
-57.513436
 30
0.0
 10
397.391764
 20
-55.833155
 30
0.0
 10
395.754170
 20
-55.833155
 30
0.0
  0
LWPOLYLINE
  5
192
100
AcDbEntity
  8
Layer_1
 62
1
100
AcDbPolyline
 90
4
 70
0
 10
401.685211
 20
-56.529045
 30
0.0
 10
401.814680
 20
-56.529045
 30
0.0
 10
401.685211
 20
-56.529045
 30
0.0
 10
407.523683
 20
-56.529045
 30
0.0
  0
SPLINE
  5
193
100
AcDbEntity
  8
Layer_1
 62
1
100
AcDbSpline
 70
8
 71
3
 72
8
 73
4
 74
0
 40
0
 40
0
 40
0
 40
0
 40
1
 40
1
 40
1
 40
1
 10
-180.491737
 20
-55.827511
 30
0.0
 10
-181.931423
 20
-55.827511
 30
0.0
 10
-183.251518
 20
-56.373611
 30
0.0
 10
-184.280218
 20
-57.282366
 30
0.0
  0
SPLINE
  5
194
100
AcDbEntity
  8
Layer_1
 62
1
100
AcDbSpline
 70
8
 71
3
 72
8
 73
4
 74
0
 40
0
 40
0
 40
0
 40
0
 40
1
 40
1
 40
1
 40
1
 10
-177.834333
 20
-71.176660
 30
0.0
 10
-177.834333
 20
-70.238977
 30
0.0
 10
-177.074097
 20
-69.478741
 30
0.0
 10
-176.136413
 20
-69.478741
 30
0.0
  0
LWPOLYLINE
  5
195
100
AcDbEntity
  8
Layer_1
 62
1
100
AcDbPolyline
 90
2
 70
0
 10
395.754170
 20
-55.833155
 30
0.0
 10
-180.491737
 20
-55.827511
 30
0.0
  0
SPLINE
  5
196
100
AcDbEntity
  8
Layer_1
 62
1
100
AcDbSpline
 70
8
 71
3
 72
8
 73
4
 74
0
 40
0
 40
0
 40
0
 40
0
 40
1
 40
1
 40
1
 40
1
 10
-174.653688
 20
-69.478741
 30
0.0
 10
-173.015741
 20
-69.478741
 30
0.0
 10
-171.688239
 20
-70.806243
 30
0.0
 10
-171.688239
 20
-72.444190
 30
0.0
  0
LWPOLYLINE
  5
197
100
AcDbEntity
  8
Layer_1
 62
1
100
AcDbPolyline
 90
2
 70
0
 10
-176.136413
 20
-69.478741
 30
0.0
 10
-174.653688
 20
-69.478741
 30
0.0
  0
SPLINE
  5
198
100
AcDbEntity
  8
Layer_1
 62
1
100
AcDbSpline
 70
8
 71
3
 72
8
 73
4
 74
0
 40
0
 40
0
 40
0
 40
0
 40
1
 40
1
 40
1
 40
1
 10
-171.688239
 20
-79.210115
 30
0.0
 10
-171.688239
 20
-80.848063
 30
0.0
 10
-173.015741
 20
-81.470010
 30
0.0
 10
-174.653688
 20
-81.470010
 30
0.0
  0
LWPOLYLINE
  5
199
100
AcDbEntity
  8
Layer_1
 62
1
100
AcDbPolyline
 90
2
 70
0
 10
-171.688239
 20
-72.444190
 30
0.0
 10
-171.688239
 20
-79.210115
 30
0.0
  0
SPLINE
  5
19a
100
AcDbEntity
  8
Layer_1
 62
1
100
AcDbSpline
 70
8
 71
3
 72
8
 73
4
 74
0
 40
0
 40
0
 40
0
 40
0
 40
1
 40
1
 40
1
 40
1
 10
-180.491808
 20
-81.461896
 30
0.0
 10
-183.777227
 20
-81.461896
 30
0.0
 10
-186.440347
 20
-78.619213
 30
0.0
 10
-186.440347
 20
-75.111896
 30
0.0
  0
LWPOLYLINE
  5
19b
100
AcDbEntity
  8
Layer_1
 62
1
100
AcDbPolyline
 90
5
 70
0
 10
-174.653688
 20
-81.470010
 30
0.0
 10
-174.783158
 20
-81.470010
 30
0.0
 10
-180.491808
 20
-81.470010
 30
0.0
 10
-180.530966
 20
-81.461896
 30
0.0
 10
-180.491808
 20
-81.461896
 30
0.0
  0
SPLINE
  5
19c
100
AcDbEntity
  8
Layer_1
 62
1
100
AcDbSpline
 70
8
 71
3
 72
8
 73
4
 74
0
 40
0
 40
0
 40
0
 40
0
 40
1
 40
1
 40
1
 40
1
 10
-186.440347
 20
-62.177652
 30
0.0
 10
-186.440347
 20
-60.356260
 30
0.0
 10
-185.718210
 20
-58.718666
 30
0.0
 10
-184.567449
 20
-57.560849
 30
0.0
  0
LWPOLYLINE
  5
19d
100
AcDbEntity
  8
Layer_1
 62
1
100
AcDbPolyline
 90
2
 70
0
 10
-186.440347
 20
-75.111896
 30
0.0
 10
-186.440347
 20
-62.177652
 30
0.0
  0
SPLINE
  5
19e
100
AcDbEntity
  8
Layer_1
 62
1
100
AcDbSpline
 70
8
 71
3
 72
8
 73
4
 74
0
 40
0
 40
0
 40
0
 40
0
 40
1
 40
1
 40
1
 40
1
 10
54.456776
 20
-33.641881
 30
0.0
 10
54.456776
 20
-33.428098
 30
0.0
 10
53.536379
 20
-33.635179
 30
0.0
 10
53.338823
 20
-33.716317
 30
0.0
  0
SPLINE
  5
19f
100
AcDbEntity
  8
Layer_1
 62
1
100
AcDbSpline
 70
8
 71
3
 72
8
 73
4
 74
0
 40
0
 40
0
 40
0
 40
0
 40
1
 40
1
 40
1
 40
1
 10
53.338823
 20
-33.716317
 30
0.0
 10
52.235334
 20
-34.171401
 30
0.0
 10
49.325623
 20
-37.779612
 30
0.0
 10
47.685207
 20
-39.304670
 30
0.0
  0
SPLINE
  5
1a0
100
AcDbEntity
  8
Layer_1
 62
1
100
AcDbSpline
 70
8
 71
3
 72
8
 73
4
 74
0
 40
0
 40
0
 40
0
 40
0
 40
1
 40
1
 40
1
 40
1
 10
47.685207
 20
-39.304670
 30
0.0
 10
47.278101
 20
-39.682848
 30
0.0
 10
47.048443
 20
-40.212367
 30
0.0
 10
47.048443
 20
-40.767992
 30
0.0
  0
LWPOLYLINE
  5
1a1
100
AcDbEntity
  8
Layer_1
 62
1
100
AcDbPolyline
 90
3
 70
0
 10
64.420984
 20
-35.300290
 30
0.0
 10
54.456776
 20
-35.404712
 30
0.0
 10
54.456776
 20
-33.641881
 30
0.0
  0
SPLINE
  5
1a2
100
AcDbEntity
  8
Layer_1
 62
1
100
AcDbSpline
 70
8
 71
3
 72
8
 73
4
 74
0
 40
0
 40
0
 40
0
 40
0
 40
1
 40
1
 40
1
 40
1
 10
47.048443
 20
-43.709101
 30
0.0
 10
47.048443
 20
-44.264726
 30
0.0
 10
47.278101
 20
-44.794245
 30
0.0
 10
47.685207
 20
-45.172423
 30
0.0
  0
SPLINE
  5
1a3
100
AcDbEntity
  8
Layer_1
 62
1
100
AcDbSpline
 70
8
 71
3
 72
8
 73
4
 74
0
 40
0
 40
0
 40
0
 40
0
 40
1
 40
1
 40
1
 40
1
 10
47.685207
 20
-45.172423
 30
0.0
 10
49.325623
 20
-46.697481
 30
0.0
 10
52.235334
 20
-50.305692
 30
0.0
 10
53.338823
 20
-50.760775
 30
0.0
  0
SPLINE
  5
1a4
100
AcDbEntity
  8
Layer_1
 62
1
100
AcDbSpline
 70
8
 71
3
 72
8
 73
4
 74
0
 40
0
 40
0
 40
0
 40
0
 40
1
 40
1
 40
1
 40
1
 10
53.338823
 20
-50.760775
 30
0.0
 10
53.536379
 20
-50.842267
 30
0.0
 10
54.456776
 20
-51.048995
 30
0.0
 10
54.456776
 20
-50.835212
 30
0.0
  0
LWPOLYLINE
  5
1a5
100
AcDbEntity
  8
Layer_1
 62
1
100
AcDbPolyline
 90
2
 70
0
 10
47.048443
 20
-40.767992
 30
0.0
 10
47.048443
 20
-43.709101
 30
0.0
  0
LWPOLYLINE
  5
1a6
100
AcDbEntity
  8
Layer_1
 62
1
100
AcDbPolyline
 90
3
 70
0
 10
54.456776
 20
-50.835212
 30
0.0
 10
54.456776
 20
-49.072028
 30
0.0
 10
64.420984
 20
-49.176450
 30
0.0
  0
SPLINE
  5
1a7
100
AcDbEntity
  8
Layer_1
 62
1
100
AcDbSpline
 70
8
 71
3
 72
8
 73
4
 74
0
 40
0
 40
0
 40
0
 40
0
 40
1
 40
1
 40
1
 40
1
 10
266.947280
 20
-33.641881
 30
0.0
 10
266.947280
 20
-33.428098
 30
0.0
 10
267.867677
 20
-33.635179
 30
0.0
 10
268.065585
 20
-33.716317
 30
0.0
  0
SPLINE
  5
1a8
100
AcDbEntity
  8
Layer_1
 62
1
100
AcDbSpline
 70
8
 71
3
 72
8
 73
4
 74
0
 40
0
 40
0
 40
0
 40
0
 40
1
 40
1
 40
1
 40
1
 10
268.065585
 20
-33.716317
 30
0.0
 10
269.168721
 20
-34.171401
 30
0.0
 10
272.078433
 20
-37.779612
 30
0.0
 10
273.718849
 20
-39.304670
 30
0.0
  0
SPLINE
  5
1a9
100
AcDbEntity
  8
Layer_1
 62
1
100
AcDbSpline
 70
8
 71
3
 72
8
 73
4
 74
0
 40
0
 40
0
 40
0
 40
0
 40
1
 40
1
 40
1
 40
1
 10
273.718849
 20
-39.304670
 30
0.0
 10
274.125955
 20
-39.682848
 30
0.0
 10
274.355613
 20
-40.212367
 30
0.0
 10
274.355613
 20
-40.767992
 30
0.0
  0
LWPOLYLINE
  5
1aa
100
AcDbEntity
  8
Layer_1
 62
1
100
AcDbPolyline
 90
3
 70
0
 10
256.983072
 20
-35.300290
 30
0.0
 10
266.947280
 20
-35.404712
 30
0.0
 10
266.947280
 20
-33.641881
 30
0.0
  0
SPLINE
  5
1ab
100
AcDbEntity
  8
Layer_1
 62
1
100
AcDbSpline
 70
8
 71
3
 72
8
 73
4
 74
0
 40
0
 40
0
 40
0
 40
0
 40
1
 40
1
 40
1
 40
1
 10
274.355613
 20
-43.709101
 30
0.0
 10
274.355613
 20
-44.264726
 30
0.0
 10
274.125955
 20
-44.794245
 30
0.0
 10
273.718849
 20
-45.172423
 30
0.0
  0
SPLINE
  5
1ac
100
AcDbEntity
  8
Layer_1
 62
1
100
AcDbSpline
 70
8
 71
3
 72
8
 73
4
 74
0
 40
0
 40
0
 40
0
 40
0
 40
1
 40
1
 40
1
 40
1
 10
273.718849
 20
-45.172423
 30
0.0
 10
272.078433
 20
-46.697481
 30
0.0
 10
269.168721
 20
-50.305692
 30
0.0
 10
268.065585
 20
-50.760775
 30
0.0
  0
SPLINE
  5
1ad
100
AcDbEntity
  8
Layer_1
 62
1
100
AcDbSpline
 70
8
 71
3
 72
8
 73
4
 74
0
 40
0
 40
0
 40
0
 40
0
 40
1
 40
1
 40
1
 40
1
 10
268.065585
 20
-50.760775
 30
0.0
 10
267.867677
 20
-50.842267
 30
0.0
 10
266.947280
 20
-51.048995
 30
0.0
 10
266.947280
 20
-50.835212
 30
0.0
  0
LWPOLYLINE
  5
1ae
100
AcDbEntity
  8
Layer_1
 62
1
100
AcDbPolyline
 90
2
 70
0
 10
274.355613
 20
-40.767992
 30
0.0
 10
274.355613
 20
-43.709101
 30
0.0
  0
SPLINE
  5
1af
100
AcDbEntity
  8
Layer_1
 62
1
100
AcDbSpline
 70
8
 71
3
 72
8
 73
4
 74
0
 40
0
 40
0
 40
0
 40
0
 40
1
 40
1
 40
1
 40
1
 10
-166.064855
 20
-44.828570
 30
0.0
 10
-166.064855
 20
-43.890887
 30
0.0
 10
-165.304619
 20
-43.130651
 30
0.0
 10
-164.366936
 20
-43.130651
 30
0.0
  0
LWPOLYLINE
  5
1b0
100
AcDbEntity
  8
Layer_1
 62
1
100
AcDbPolyline
 90
3
 70
0
 10
266.947280
 20
-50.835212
 30
0.0
 10
266.947280
 20
-49.072028
 30
0.0
 10
256.983072
 20
-49.176450
 30
0.0
  0
SPLINE
  5
1b1
100
AcDbEntity
  8
Layer_1
 62
1
100
AcDbSpline
 70
8
 71
3
 72
8
 73
4
 74
0
 40
0
 40
0
 40
0
 40
0
 40
1
 40
1
 40
1
 40
1
 10
-162.884211
 20
-43.130651
 30
0.0
 10
-161.246263
 20
-43.130651
 30
0.0
 10
-159.918761
 20
-44.458506
 30
0.0
 10
-159.918761
 20
-46.096101
 30
0.0
  0
LWPOLYLINE
  5
1b2
100
AcDbEntity
  8
Layer_1
 62
1
100
AcDbPolyline
 90
2
 70
0
 10
-164.366936
 20
-43.130651
 30
0.0
 10
-162.884211
 20
-43.130651
 30
0.0
  0
SPLINE
  5
1b3
100
AcDbEntity
  8
Layer_1
 62
1
100
AcDbSpline
 70
8
 71
3
 72
8
 73
4
 74
0
 40
0
 40
0
 40
0
 40
0
 40
1
 40
1
 40
1
 40
1
 10
-159.918761
 20
-52.862026
 30
0.0
 10
-159.918761
 20
-54.499973
 30
0.0
 10
-161.246263
 20
-55.122273
 30
0.0
 10
-162.884211
 20
-55.122273
 30
0.0
  0
LWPOLYLINE
  5
1b4
100
AcDbEntity
  8
Layer_1
 62
1
100
AcDbPolyline
 90
2
 70
0
 10
-159.918761
 20
-46.096101
 30
0.0
 10
-159.918761
 20
-52.862026
 30
0.0
  0
SPLINE
  5
1b5
100
AcDbEntity
  8
Layer_1
 62
1
100
AcDbSpline
 70
8
 71
3
 72
8
 73
4
 74
0
 40
0
 40
0
 40
0
 40
0
 40
1
 40
1
 40
1
 40
1
 10
-168.722683
 20
-55.122273
 30
0.0
 10
-170.360277
 20
-55.122273
 30
0.0
 10
-171.688133
 20
-54.499973
 30
0.0
 10
-171.688133
 20
-52.862026
 30
0.0
  0
SPLINE
  5
1b6
100
AcDbEntity
  8
Layer_1
 62
1
100
AcDbSpline
 70
8
 71
3
 72
8
 73
4
 74
0
 40
0
 40
0
 40
0
 40
0
 40
1
 40
1
 40
1
 40
1
 10
-154.295518
 20
-44.828570
 30
0.0
 10
-154.295518
 20
-43.890887
 30
0.0
 10
-153.535282
 20
-43.130651
 30
0.0
 10
-152.597599
 20
-43.130651
 30
0.0
  0
LWPOLYLINE
  5
1b7
100
AcDbEntity
  8
Layer_1
 62
1
100
AcDbPolyline
 90
4
 70
0
 10
-162.884211
 20
-55.122273
 30
0.0
 10
-163.013680
 20
-55.122273
 30
0.0
 10
-162.884211
 20
-55.122273
 30
0.0
 10
-168.722683
 20
-55.122273
 30
0.0
  0
SPLINE
  5
1b8
100
AcDbEntity
  8
Layer_1
 62
1
100
AcDbSpline
 70
8
 71
3
 72
8
 73
4
 74
0
 40
0
 40
0
 40
0
 40
0
 40
1
 40
1
 40
1
 40
1
 10
-151.114521
 20
-43.130651
 30
0.0
 10
-149.476927
 20
-43.130651
 30
0.0
 10
-148.149071
 20
-44.458506
 30
0.0
 10
-148.149071
 20
-46.096101
 30
0.0
  0
LWPOLYLINE
  5
1b9
100
AcDbEntity
  8
Layer_1
 62
1
100
AcDbPolyline
 90
2
 70
0
 10
-152.597599
 20
-43.130651
 30
0.0
 10
-151.114521
 20
-43.130651
 30
0.0
  0
SPLINE
  5
1ba
100
AcDbEntity
  8
Layer_1
 62
1
100
AcDbSpline
 70
8
 71
3
 72
8
 73
4
 74
0
 40
0
 40
0
 40
0
 40
0
 40
1
 40
1
 40
1
 40
1
 10
-148.149071
 20
-52.862026
 30
0.0
 10
-148.149071
 20
-54.499973
 30
0.0
 10
-149.476927
 20
-55.122273
 30
0.0
 10
-151.114521
 20
-55.122273
 30
0.0
  0
LWPOLYLINE
  5
1bb
100
AcDbEntity
  8
Layer_1
 62
1
100
AcDbPolyline
 90
2
 70
0
 10
-148.149071
 20
-46.096101
 30
0.0
 10
-148.149071
 20
-52.862026
 30
0.0
  0
SPLINE
  5
1bc
100
AcDbEntity
  8
Layer_1
 62
1
100
AcDbSpline
 70
8
 71
3
 72
8
 73
4
 74
0
 40
0
 40
0
 40
0
 40
0
 40
1
 40
1
 40
1
 40
1
 10
-156.952993
 20
-55.122273
 30
0.0
 10
-158.590940
 20
-55.122273
 30
0.0
 10
-159.918443
 20
-54.499973
 30
0.0
 10
-159.918443
 20
-52.862026
 30
0.0
  0
SPLINE
  5
1bd
100
AcDbEntity
  8
Layer_1
 62
1
100
AcDbSpline
 70
8
 71
3
 72
8
 73
4
 74
0
 40
0
 40
0
 40
0
 40
0
 40
1
 40
1
 40
1
 40
1
 10
-142.526041
 20
-44.828570
 30
0.0
 10
-142.526041
 20
-43.890887
 30
0.0
 10
-141.765804
 20
-43.130651
 30
0.0
 10
-140.828121
 20
-43.130651
 30
0.0
  0
LWPOLYLINE
  5
1be
100
AcDbEntity
  8
Layer_1
 62
1
100
AcDbPolyline
 90
4
 70
0
 10
-151.114521
 20
-55.122273
 30
0.0
 10
-151.243991
 20
-55.122273
 30
0.0
 10
-151.114521
 20
-55.122273
 30
0.0
 10
-156.952993
 20
-55.122273
 30
0.0
  0
SPLINE
  5
1bf
100
AcDbEntity
  8
Layer_1
 62
1
100
AcDbSpline
 70
8
 71
3
 72
8
 73
4
 74
0
 40
0
 40
0
 40
0
 40
0
 40
1
 40
1
 40
1
 40
1
 10
-139.345043
 20
-43.130651
 30
0.0
 10
-137.707449
 20
-43.130651
 30
0.0
 10
-136.379593
 20
-44.458506
 30
0.0
 10
-136.379593
 20
-46.096101
 30
0.0
  0
LWPOLYLINE
  5
1c0
100
AcDbEntity
  8
Layer_1
 62
1
100
AcDbPolyline
 90
2
 70
0
 10
-140.828121
 20
-43.130651
 30
0.0
 10
-139.345043
 20
-43.130651
 30
0.0
  0
SPLINE
  5
1c1
100
AcDbEntity
  8
Layer_1
 62
1
100
AcDbSpline
 70
8
 71
3
 72
8
 73
4
 74
0
 40
0
 40
0
 40
0
 40
0
 40
1
 40
1
 40
1
 40
1
 10
-136.379593
 20
-52.862026
 30
0.0
 10
-136.379593
 20
-54.499973
 30
0.0
 10
-137.707449
 20
-55.122273
 30
0.0
 10
-139.345043
 20
-55.122273
 30
0.0
  0
LWPOLYLINE
  5
1c2
100
AcDbEntity
  8
Layer_1
 62
1
100
AcDbPolyline
 90
2
 70
0
 10
-136.379593
 20
-46.096101
 30
0.0
 10
-136.379593
 20
-52.862026
 30
0.0
  0
SPLINE
  5
1c3
100
AcDbEntity
  8
Layer_1
 62
1
100
AcDbSpline
 70
8
 71
3
 72
8
 73
4
 74
0
 40
0
 40
0
 40
0
 40
0
 40
1
 40
1
 40
1
 40
1
 10
-145.183515
 20
-55.122273
 30
0.0
 10
-146.821463
 20
-55.122273
 30
0.0
 10
-148.148965
 20
-54.499973
 30
0.0
 10
-148.148965
 20
-52.862026
 30
0.0
  0
SPLINE
  5
1c4
100
AcDbEntity
  8
Layer_1
 62
1
100
AcDbSpline
 70
8
 71
3
 72
8
 73
4
 74
0
 40
0
 40
0
 40
0
 40
0
 40
1
 40
1
 40
1
 40
1
 10
-130.756563
 20
-44.828570
 30
0.0
 10
-130.756563
 20
-43.890887
 30
0.0
 10
-129.996327
 20
-43.130651
 30
0.0
 10
-129.058643
 20
-43.130651
 30
0.0
  0
LWPOLYLINE
  5
1c5
100
AcDbEntity
  8
Layer_1
 62
1
100
AcDbPolyline
 90
4
 70
0
 10
-139.345043
 20
-55.122273
 30
0.0
 10
-139.474866
 20
-55.122273
 30
0.0
 10
-139.345043
 20
-55.122273
 30
0.0
 10
-145.183515
 20
-55.122273
 30
0.0
  0
SPLINE
  5
1c6
100
AcDbEntity
  8
Layer_1
 62
1
100
AcDbSpline
 70
8
 71
3
 72
8
 73
4
 74
0
 40
0
 40
0
 40
0
 40
0
 40
1
 40
1
 40
1
 40
1
 10
-127.575918
 20
-43.130651
 30
0.0
 10
-125.937971
 20
-43.130651
 30
0.0
 10
-124.610468
 20
-44.458506
 30
0.0
 10
-124.610468
 20
-46.096101
 30
0.0
  0
LWPOLYLINE
  5
1c7
100
AcDbEntity
  8
Layer_1
 62
1
100
AcDbPolyline
 90
2
 70
0
 10
-129.058643
 20
-43.130651
 30
0.0
 10
-127.575918
 20
-43.130651
 30
0.0
  0
SPLINE
  5
1c8
100
AcDbEntity
  8
Layer_1
 62
1
100
AcDbSpline
 70
8
 71
3
 72
8
 73
4
 74
0
 40
0
 40
0
 40
0
 40
0
 40
1
 40
1
 40
1
 40
1
 10
-124.610468
 20
-52.862026
 30
0.0
 10
-124.610468
 20
-54.499973
 30
0.0
 10
-125.937971
 20
-55.122273
 30
0.0
 10
-127.575918
 20
-55.122273
 30
0.0
  0
LWPOLYLINE
  5
1c9
100
AcDbEntity
  8
Layer_1
 62
1
100
AcDbPolyline
 90
2
 70
0
 10
-124.610468
 20
-46.096101
 30
0.0
 10
-124.610468
 20
-52.862026
 30
0.0
  0
SPLINE
  5
1ca
100
AcDbEntity
  8
Layer_1
 62
1
100
AcDbSpline
 70
8
 71
3
 72
8
 73
4
 74
0
 40
0
 40
0
 40
0
 40
0
 40
1
 40
1
 40
1
 40
1
 10
-133.414038
 20
-55.122273
 30
0.0
 10
-135.051985
 20
-55.122273
 30
0.0
 10
-136.379488
 20
-54.499973
 30
0.0
 10
-136.379488
 20
-52.862026
 30
0.0
  0
SPLINE
  5
1cb
100
AcDbEntity
  8
Layer_1
 62
1
100
AcDbSpline
 70
8
 71
3
 72
8
 73
4
 74
0
 40
0
 40
0
 40
0
 40
0
 40
1
 40
1
 40
1
 40
1
 10
-118.987085
 20
-44.828570
 30
0.0
 10
-118.987085
 20
-43.890887
 30
0.0
 10
-118.226849
 20
-43.130651
 30
0.0
 10
-117.289166
 20
-43.130651
 30
0.0
  0
LWPOLYLINE
  5
1cc
100
AcDbEntity
  8
Layer_1
 62
1
100
AcDbPolyline
 90
4
 70
0
 10
-127.575918
 20
-55.122273
 30
0.0
 10
-127.705388
 20
-55.122273
 30
0.0
 10
-127.575918
 20
-55.122273
 30
0.0
 10
-133.414038
 20
-55.122273
 30
0.0
  0
SPLINE
  5
1cd
100
AcDbEntity
  8
Layer_1
 62
1
100
AcDbSpline
 70
8
 71
3
 72
8
 73
4
 74
0
 40
0
 40
0
 40
0
 40
0
 40
1
 40
1
 40
1
 40
1
 10
-115.806441
 20
-43.130651
 30
0.0
 10
-114.168493
 20
-43.130651
 30
0.0
 10
-112.840991
 20
-44.458506
 30
0.0
 10
-112.840991
 20
-46.096101
 30
0.0
  0
LWPOLYLINE
  5
1ce
100
AcDbEntity
  8
Layer_1
 62
1
100
AcDbPolyline
 90
2
 70
0
 10
-117.289166
 20
-43.130651
 30
0.0
 10
-115.806441
 20
-43.130651
 30
0.0
  0
SPLINE
  5
1cf
100
AcDbEntity
  8
Layer_1
 62
1
100
AcDbSpline
 70
8
 71
3
 72
8
 73
4
 74
0
 40
0
 40
0
 40
0
 40
0
 40
1
 40
1
 40
1
 40
1
 10
-112.840991
 20
-52.862026
 30
0.0
 10
-112.840991
 20
-54.499973
 30
0.0
 10
-114.168493
 20
-55.122273
 30
0.0
 10
-115.806441
 20
-55.122273
 30
0.0
  0
LWPOLYLINE
  5
1d0
100
AcDbEntity
  8
Layer_1
 62
1
100
AcDbPolyline
 90
2
 70
0
 10
-112.840991
 20
-46.096101
 30
0.0
 10
-112.840991
 20
-52.862026
 30
0.0
  0
SPLINE
  5
1d1
100
AcDbEntity
  8
Layer_1
 62
1
100
AcDbSpline
 70
8
 71
3
 72
8
 73
4
 74
0
 40
0
 40
0
 40
0
 40
0
 40
1
 40
1
 40
1
 40
1
 10
-121.644913
 20
-55.122273
 30
0.0
 10
-123.282507
 20
-55.122273
 30
0.0
 10
-124.610363
 20
-54.499973
 30
0.0
 10
-124.610363
 20
-52.862026
 30
0.0
  0
SPLINE
  5
1d2
100
AcDbEntity
  8
Layer_1
 62
1
100
AcDbSpline
 70
8
 71
3
 72
8
 73
4
 74
0
 40
0
 40
0
 40
0
 40
0
 40
1
 40
1
 40
1
 40
1
 10
-107.217607
 20
-44.828570
 30
0.0
 10
-107.217607
 20
-43.890887
 30
0.0
 10
-106.457371
 20
-43.130651
 30
0.0
 10
-105.519688
 20
-43.130651
 30
0.0
  0
LWPOLYLINE
  5
1d3
100
AcDbEntity
  8
Layer_1
 62
1
100
AcDbPolyline
 90
4
 70
0
 10
-115.806441
 20
-55.122273
 30
0.0
 10
-115.935910
 20
-55.122273
 30
0.0
 10
-115.806441
 20
-55.122273
 30
0.0
 10
-121.644913
 20
-55.122273
 30
0.0
  0
SPLINE
  5
1d4
100
AcDbEntity
  8
Layer_1
 62
1
100
AcDbSpline
 70
8
 71
3
 72
8
 73
4
 74
0
 40
0
 40
0
 40
0
 40
0
 40
1
 40
1
 40
1
 40
1
 10
-104.036963
 20
-43.130651
 30
0.0
 10
-102.399016
 20
-43.130651
 30
0.0
 10
-101.071513
 20
-44.458506
 30
0.0
 10
-101.071513
 20
-46.096101
 30
0.0
  0
LWPOLYLINE
  5
1d5
100
AcDbEntity
  8
Layer_1
 62
1
100
AcDbPolyline
 90
2
 70
0
 10
-105.519688
 20
-43.130651
 30
0.0
 10
-104.036963
 20
-43.130651
 30
0.0
  0
SPLINE
  5
1d6
100
AcDbEntity
  8
Layer_1
 62
1
100
AcDbSpline
 70
8
 71
3
 72
8
 73
4
 74
0
 40
0
 40
0
 40
0
 40
0
 40
1
 40
1
 40
1
 40
1
 10
-101.071513
 20
-52.862026
 30
0.0
 10
-101.071513
 20
-54.499973
 30
0.0
 10
-102.399016
 20
-55.122273
 30
0.0
 10
-104.036963
 20
-55.122273
 30
0.0
  0
LWPOLYLINE
  5
1d7
100
AcDbEntity
  8
Layer_1
 62
1
100
AcDbPolyline
 90
2
 70
0
 10
-101.071513
 20
-46.096101
 30
0.0
 10
-101.071513
 20
-52.862026
 30
0.0
  0
SPLINE
  5
1d8
100
AcDbEntity
  8
Layer_1
 62
1
100
AcDbSpline
 70
8
 71
3
 72
8
 73
4
 74
0
 40
0
 40
0
 40
0
 40
0
 40
1
 40
1
 40
1
 40
1
 10
-109.875435
 20
-55.122273
 30
0.0
 10
-111.513029
 20
-55.122273
 30
0.0
 10
-112.840885
 20
-54.499973
 30
0.0
 10
-112.840885
 20
-52.862026
 30
0.0
  0
SPLINE
  5
1d9
100
AcDbEntity
  8
Layer_1
 62
1
100
AcDbSpline
 70
8
 71
3
 72
8
 73
4
 74
0
 40
0
 40
0
 40
0
 40
0
 40
1
 40
1
 40
1
 40
1
 10
-95.448129
 20
-44.828570
 30
0.0
 10
-95.448129
 20
-43.890887
 30
0.0
 10
-94.687893
 20
-43.130651
 30
0.0
 10
-93.750210
 20
-43.130651
 30
0.0
  0
LWPOLYLINE
  5
1da
100
AcDbEntity
  8
Layer_1
 62
1
100
AcDbPolyline
 90
4
 70
0
 10
-104.036963
 20
-55.122273
 30
0.0
 10
-104.166432
 20
-55.122273
 30
0.0
 10
-104.036963
 20
-55.122273
 30
0.0
 10
-109.875435
 20
-55.122273
 30
0.0
  0
SPLINE
  5
1db
100
AcDbEntity
  8
Layer_1
 62
1
100
AcDbSpline
 70
8
 71
3
 72
8
 73
4
 74
0
 40
0
 40
0
 40
0
 40
0
 40
1
 40
1
 40
1
 40
1
 10
-92.267485
 20
-43.130651
 30
0.0
 10
-90.629538
 20
-43.130651
 30
0.0
 10
-89.302035
 20
-44.458506
 30
0.0
 10
-89.302035
 20
-46.096101
 30
0.0
  0
LWPOLYLINE
  5
1dc
100
AcDbEntity
  8
Layer_1
 62
1
100
AcDbPolyline
 90
2
 70
0
 10
-93.750210
 20
-43.130651
 30
0.0
 10
-92.267485
 20
-43.130651
 30
0.0
  0
SPLINE
  5
1dd
100
AcDbEntity
  8
Layer_1
 62
1
100
AcDbSpline
 70
8
 71
3
 72
8
 73
4
 74
0
 40
0
 40
0
 40
0
 40
0
 40
1
 40
1
 40
1
 40
1
 10
-89.302035
 20
-52.862026
 30
0.0
 10
-89.302035
 20
-54.499973
 30
0.0
 10
-90.629538
 20
-55.122273
 30
0.0
 10
-92.267485
 20
-55.122273
 30
0.0
  0
LWPOLYLINE
  5
1de
100
AcDbEntity
  8
Layer_1
 62
1
100
AcDbPolyline
 90
2
 70
0
 10
-89.302035
 20
-46.096101
 30
0.0
 10
-89.302035
 20
-52.862026
 30
0.0
  0
SPLINE
  5
1df
100
AcDbEntity
  8
Layer_1
 62
1
100
AcDbSpline
 70
8
 71
3
 72
8
 73
4
 74
0
 40
0
 40
0
 40
0
 40
0
 40
1
 40
1
 40
1
 40
1
 10
-98.105957
 20
-55.122273
 30
0.0
 10
-99.743551
 20
-55.122273
 30
0.0
 10
-101.071407
 20
-54.499973
 30
0.0
 10
-101.071407
 20
-52.862026
 30
0.0
  0
SPLINE
  5
1e0
100
AcDbEntity
  8
Layer_1
 62
1
100
AcDbSpline
 70
8
 71
3
 72
8
 73
4
 74
0
 40
0
 40
0
 40
0
 40
0
 40
1
 40
1
 40
1
 40
1
 10
-83.678652
 20
-44.828570
 30
0.0
 10
-83.678652
 20
-43.890887
 30
0.0
 10
-82.918415
 20
-43.130651
 30
0.0
 10
-81.980732
 20
-43.130651
 30
0.0
  0
LWPOLYLINE
  5
1e1
100
AcDbEntity
  8
Layer_1
 62
1
100
AcDbPolyline
 90
4
 70
0
 10
-92.267485
 20
-55.122273
 30
0.0
 10
-92.396954
 20
-55.122273
 30
0.0
 10
-92.267485
 20
-55.122273
 30
0.0
 10
-98.105957
 20
-55.122273
 30
0.0
  0
SPLINE
  5
1e2
100
AcDbEntity
  8
Layer_1
 62
1
100
AcDbSpline
 70
8
 71
3
 72
8
 73
4
 74
0
 40
0
 40
0
 40
0
 40
0
 40
1
 40
1
 40
1
 40
1
 10
-80.498007
 20
-43.130651
 30
0.0
 10
-78.860060
 20
-43.130651
 30
0.0
 10
-77.532557
 20
-44.458506
 30
0.0
 10
-77.532557
 20
-46.096101
 30
0.0
  0
LWPOLYLINE
  5
1e3
100
AcDbEntity
  8
Layer_1
 62
1
100
AcDbPolyline
 90
2
 70
0
 10
-81.980732
 20
-43.130651
 30
0.0
 10
-80.498007
 20
-43.130651
 30
0.0
  0
SPLINE
  5
1e4
100
AcDbEntity
  8
Layer_1
 62
1
100
AcDbSpline
 70
8
 71
3
 72
8
 73
4
 74
0
 40
0
 40
0
 40
0
 40
0
 40
1
 40
1
 40
1
 40
1
 10
-77.532557
 20
-52.156470
 30
0.0
 10
-77.532557
 20
-53.794417
 30
0.0
 10
-78.860060
 20
-55.122273
 30
0.0
 10
-80.498007
 20
-55.122273
 30
0.0
  0
LWPOLYLINE
  5
1e5
100
AcDbEntity
  8
Layer_1
 62
1
100
AcDbPolyline
 90
2
 70
0
 10
-77.532557
 20
-46.096101
 30
0.0
 10
-77.532557
 20
-52.156470
 30
0.0
  0
SPLINE
  5
1e6
100
AcDbEntity
  8
Layer_1
 62
1
100
AcDbSpline
 70
8
 71
3
 72
8
 73
4
 74
0
 40
0
 40
0
 40
0
 40
0
 40
1
 40
1
 40
1
 40
1
 10
-86.336479
 20
-55.122273
 30
0.0
 10
-87.974074
 20
-55.122273
 30
0.0
 10
-89.301929
 20
-54.499973
 30
0.0
 10
-89.301929
 20
-52.862026
 30
0.0
  0
LWPOLYLINE
  5
1e7
100
AcDbEntity
  8
Layer_1
 62
1
100
AcDbPolyline
 90
4
 70
0
 10
-80.498007
 20
-55.122273
 30
0.0
 10
-80.627477
 20
-55.122273
 30
0.0
 10
-80.498007
 20
-55.122273
 30
0.0
 10
-86.336479
 20
-55.122273
 30
0.0
  0
SPLINE
  5
1e8
100
AcDbEntity
  8
Layer_1
 62
1
100
AcDbSpline
 70
8
 71
3
 72
8
 73
4
 74
0
 40
0
 40
0
 40
0
 40
0
 40
1
 40
1
 40
1
 40
1
 10
-74.567037
 20
-55.818092
 30
0.0
 10
-76.204631
 20
-55.818092
 30
0.0
 10
-77.532487
 20
-54.137458
 30
0.0
 10
-77.532487
 20
-52.499864
 30
0.0
  0
SPLINE
  5
1e9
100
AcDbEntity
  8
Layer_1
 62
1
100
AcDbSpline
 70
8
 71
3
 72
8
 73
4
 74
0
 40
0
 40
0
 40
0
 40
0
 40
1
 40
1
 40
1
 40
1
 10
487.252023
 20
-40.474658
 30
0.0
 10
487.252023
 20
-41.412341
 30
0.0
 10
486.491787
 20
-42.172577
 30
0.0
 10
485.554104
 20
-42.172577
 30
0.0
  0
LWPOLYLINE
  5
1ea
100
AcDbEntity
  8
Layer_1
 62
1
100
AcDbPolyline
 90
2
 70
0
 10
-74.605842
 20
-55.818092
 30
0.0
 10
-74.567037
 20
-55.818092
 30
0.0
  0
SPLINE
  5
1eb
100
AcDbEntity
  8
Layer_1
 62
1
100
AcDbSpline
 70
8
 71
3
 72
8
 73
4
 74
0
 40
0
 40
0
 40
0
 40
0
 40
1
 40
1
 40
1
 40
1
 10
484.071379
 20
-42.172577
 30
0.0
 10
482.433432
 20
-42.172577
 30
0.0
 10
481.105929
 20
-40.845074
 30
0.0
 10
481.105929
 20
-39.207127
 30
0.0
  0
LWPOLYLINE
  5
1ec
100
AcDbEntity
  8
Layer_1
 62
1
100
AcDbPolyline
 90
2
 70
0
 10
485.554104
 20
-42.172577
 30
0.0
 10
484.071379
 20
-42.172577
 30
0.0
  0
SPLINE
  5
1ed
100
AcDbEntity
  8
Layer_1
 62
1
100
AcDbSpline
 70
8
 71
3
 72
8
 73
4
 74
0
 40
0
 40
0
 40
0
 40
0
 40
1
 40
1
 40
1
 40
1
 10
481.105929
 20
-33.146758
 30
0.0
 10
481.105929
 20
-31.508811
 30
0.0
 10
482.433432
 20
-30.181308
 30
0.0
 10
484.071379
 20
-30.181308
 30
0.0
  0
LWPOLYLINE
  5
1ee
100
AcDbEntity
  8
Layer_1
 62
1
100
AcDbPolyline
 90
2
 70
0
 10
481.105929
 20
-39.207127
 30
0.0
 10
481.105929
 20
-33.146758
 30
0.0
  0
SPLINE
  5
1ef
100
AcDbEntity
  8
Layer_1
 62
1
100
AcDbSpline
 70
8
 71
3
 72
8
 73
4
 74
0
 40
0
 40
0
 40
0
 40
0
 40
1
 40
1
 40
1
 40
1
 10
489.909851
 20
-30.181308
 30
0.0
 10
491.547445
 20
-30.181308
 30
0.0
 10
492.875301
 20
-31.508811
 30
0.0
 10
492.875301
 20
-33.146758
 30
0.0
  0
SPLINE
  5
1f0
100
AcDbEntity
  8
Layer_1
 62
1
100
AcDbSpline
 70
8
 71
3
 72
8
 73
4
 74
0
 40
0
 40
0
 40
0
 40
0
 40
1
 40
1
 40
1
 40
1
 10
475.482545
 20
-40.474658
 30
0.0
 10
475.482545
 20
-41.412341
 30
0.0
 10
474.722309
 20
-42.172577
 30
0.0
 10
473.784626
 20
-42.172577
 30
0.0
  0
LWPOLYLINE
  5
1f1
100
AcDbEntity
  8
Layer_1
 62
1
100
AcDbPolyline
 90
4
 70
0
 10
484.071379
 20
-30.181308
 30
0.0
 10
484.200848
 20
-30.181308
 30
0.0
 10
484.071379
 20
-30.181308
 30
0.0
 10
489.909851
 20
-30.181308
 30
0.0
  0
SPLINE
  5
1f2
100
AcDbEntity
  8
Layer_1
 62
1
100
AcDbSpline
 70
8
 71
3
 72
8
 73
4
 74
0
 40
0
 40
0
 40
0
 40
0
 40
1
 40
1
 40
1
 40
1
 10
472.301901
 20
-42.172577
 30
0.0
 10
470.663954
 20
-42.172577
 30
0.0
 10
469.336451
 20
-40.845074
 30
0.0
 10
469.336451
 20
-39.207127
 30
0.0
  0
LWPOLYLINE
  5
1f3
100
AcDbEntity
  8
Layer_1
 62
1
100
AcDbPolyline
 90
2
 70
0
 10
473.784626
 20
-42.172577
 30
0.0
 10
472.301901
 20
-42.172577
 30
0.0
  0
SPLINE
  5
1f4
100
AcDbEntity
  8
Layer_1
 62
1
100
AcDbSpline
 70
8
 71
3
 72
8
 73
4
 74
0
 40
0
 40
0
 40
0
 40
0
 40
1
 40
1
 40
1
 40
1
 10
469.336451
 20
-33.146758
 30
0.0
 10
469.336451
 20
-31.508811
 30
0.0
 10
470.663954
 20
-30.181308
 30
0.0
 10
472.301901
 20
-30.181308
 30
0.0
  0
LWPOLYLINE
  5
1f5
100
AcDbEntity
  8
Layer_1
 62
1
100
AcDbPolyline
 90
2
 70
0
 10
469.336451
 20
-39.207127
 30
0.0
 10
469.336451
 20
-33.146758
 30
0.0
  0
SPLINE
  5
1f6
100
AcDbEntity
  8
Layer_1
 62
1
100
AcDbSpline
 70
8
 71
3
 72
8
 73
4
 74
0
 40
0
 40
0
 40
0
 40
0
 40
1
 40
1
 40
1
 40
1
 10
478.140373
 20
-30.181308
 30
0.0
 10
479.777967
 20
-30.181308
 30
0.0
 10
481.105823
 20
-31.508811
 30
0.0
 10
481.105823
 20
-33.146758
 30
0.0
  0
SPLINE
  5
1f7
100
AcDbEntity
  8
Layer_1
 62
1
100
AcDbSpline
 70
8
 71
3
 72
8
 73
4
 74
0
 40
0
 40
0
 40
0
 40
0
 40
1
 40
1
 40
1
 40
1
 10
463.713067
 20
-40.474658
 30
0.0
 10
463.713067
 20
-41.412341
 30
0.0
 10
462.952831
 20
-42.172577
 30
0.0
 10
462.015148
 20
-42.172577
 30
0.0
  0
LWPOLYLINE
  5
1f8
100
AcDbEntity
  8
Layer_1
 62
1
100
AcDbPolyline
 90
4
 70
0
 10
472.301901
 20
-30.181308
 30
0.0
 10
472.431370
 20
-30.181308
 30
0.0
 10
472.301901
 20
-30.181308
 30
0.0
 10
478.140373
 20
-30.181308
 30
0.0
  0
SPLINE
  5
1f9
100
AcDbEntity
  8
Layer_1
 62
1
100
AcDbSpline
 70
8
 71
3
 72
8
 73
4
 74
0
 40
0
 40
0
 40
0
 40
0
 40
1
 40
1
 40
1
 40
1
 10
460.532423
 20
-42.172577
 30
0.0
 10
458.894476
 20
-42.172577
 30
0.0
 10
457.566973
 20
-40.845074
 30
0.0
 10
457.566973
 20
-39.207127
 30
0.0
  0
LWPOLYLINE
  5
1fa
100
AcDbEntity
  8
Layer_1
 62
1
100
AcDbPolyline
 90
2
 70
0
 10
462.015148
 20
-42.172577
 30
0.0
 10
460.532423
 20
-42.172577
 30
0.0
  0
SPLINE
  5
1fb
100
AcDbEntity
  8
Layer_1
 62
1
100
AcDbSpline
 70
8
 71
3
 72
8
 73
4
 74
0
 40
0
 40
0
 40
0
 40
0
 40
1
 40
1
 40
1
 40
1
 10
457.566973
 20
-33.146758
 30
0.0
 10
457.566973
 20
-31.508811
 30
0.0
 10
458.894476
 20
-30.181308
 30
0.0
 10
460.532423
 20
-30.181308
 30
0.0
  0
LWPOLYLINE
  5
1fc
100
AcDbEntity
  8
Layer_1
 62
1
100
AcDbPolyline
 90
2
 70
0
 10
457.566973
 20
-39.207127
 30
0.0
 10
457.566973
 20
-33.146758
 30
0.0
  0
SPLINE
  5
1fd
100
AcDbEntity
  8
Layer_1
 62
1
100
AcDbSpline
 70
8
 71
3
 72
8
 73
4
 74
0
 40
0
 40
0
 40
0
 40
0
 40
1
 40
1
 40
1
 40
1
 10
466.370895
 20
-30.181308
 30
0.0
 10
468.008490
 20
-30.181308
 30
0.0
 10
469.336345
 20
-31.508811
 30
0.0
 10
469.336345
 20
-33.146758
 30
0.0
  0
SPLINE
  5
1fe
100
AcDbEntity
  8
Layer_1
 62
1
100
AcDbSpline
 70
8
 71
3
 72
8
 73
4
 74
0
 40
0
 40
0
 40
0
 40
0
 40
1
 40
1
 40
1
 40
1
 10
451.943766
 20
-40.474658
 30
0.0
 10
451.943766
 20
-41.412341
 30
0.0
 10
451.183530
 20
-42.172577
 30
0.0
 10
450.245847
 20
-42.172577
 30
0.0
  0
LWPOLYLINE
  5
1ff
100
AcDbEntity
  8
Layer_1
 62
1
100
AcDbPolyline
 90
4
 70
0
 10
460.532423
 20
-30.181308
 30
0.0
 10
460.661893
 20
-30.181308
 30
0.0
 10
460.532423
 20
-30.181308
 30
0.0
 10
466.370895
 20
-30.181308
 30
0.0
  0
SPLINE
  5
200
100
AcDbEntity
  8
Layer_1
 62
1
100
AcDbSpline
 70
8
 71
3
 72
8
 73
4
 74
0
 40
0
 40
0
 40
0
 40
0
 40
1
 40
1
 40
1
 40
1
 10
448.762769
 20
-42.172577
 30
0.0
 10
447.125175
 20
-42.172577
 30
0.0
 10
445.797319
 20
-40.845074
 30
0.0
 10
445.797319
 20
-39.207127
 30
0.0
  0
LWPOLYLINE
  5
201
100
AcDbEntity
  8
Layer_1
 62
1
100
AcDbPolyline
 90
2
 70
0
 10
450.245847
 20
-42.172577
 30
0.0
 10
448.762769
 20
-42.172577
 30
0.0
  0
SPLINE
  5
202
100
AcDbEntity
  8
Layer_1
 62
1
100
AcDbSpline
 70
8
 71
3
 72
8
 73
4
 74
0
 40
0
 40
0
 40
0
 40
0
 40
1
 40
1
 40
1
 40
1
 10
445.797319
 20
-33.146758
 30
0.0
 10
445.797319
 20
-31.508811
 30
0.0
 10
447.125175
 20
-30.181308
 30
0.0
 10
448.762769
 20
-30.181308
 30
0.0
  0
LWPOLYLINE
  5
203
100
AcDbEntity
  8
Layer_1
 62
1
100
AcDbPolyline
 90
2
 70
0
 10
445.797319
 20
-39.207127
 30
0.0
 10
445.797319
 20
-33.146758
 30
0.0
  0
SPLINE
  5
204
100
AcDbEntity
  8
Layer_1
 62
1
100
AcDbSpline
 70
8
 71
3
 72
8
 73
4
 74
0
 40
0
 40
0
 40
0
 40
0
 40
1
 40
1
 40
1
 40
1
 10
454.601241
 20
-30.181308
 30
0.0
 10
456.239188
 20
-30.181308
 30
0.0
 10
457.566691
 20
-31.508811
 30
0.0
 10
457.566691
 20
-33.146758
 30
0.0
  0
SPLINE
  5
205
100
AcDbEntity
  8
Layer_1
 62
1
100
AcDbSpline
 70
8
 71
3
 72
8
 73
4
 74
0
 40
0
 40
0
 40
0
 40
0
 40
1
 40
1
 40
1
 40
1
 10
440.174288
 20
-40.474658
 30
0.0
 10
440.174288
 20
-41.412341
 30
0.0
 10
439.414052
 20
-42.172577
 30
0.0
 10
438.476369
 20
-42.172577
 30
0.0
  0
LWPOLYLINE
  5
206
100
AcDbEntity
  8
Layer_1
 62
1
100
AcDbPolyline
 90
4
 70
0
 10
448.762769
 20
-30.181308
 30
0.0
 10
448.892238
 20
-30.181308
 30
0.0
 10
448.762769
 20
-30.181308
 30
0.0
 10
454.601241
 20
-30.181308
 30
0.0
  0
SPLINE
  5
207
100
AcDbEntity
  8
Layer_1
 62
1
100
AcDbSpline
 70
8
 71
3
 72
8
 73
4
 74
0
 40
0
 40
0
 40
0
 40
0
 40
1
 40
1
 40
1
 40
1
 10
436.993291
 20
-42.172577
 30
0.0
 10
435.355697
 20
-42.172577
 30
0.0
 10
434.027841
 20
-40.845074
 30
0.0
 10
434.027841
 20
-39.207127
 30
0.0
  0
LWPOLYLINE
  5
208
100
AcDbEntity
  8
Layer_1
 62
1
100
AcDbPolyline
 90
2
 70
0
 10
438.476369
 20
-42.172577
 30
0.0
 10
436.993291
 20
-42.172577
 30
0.0
  0
SPLINE
  5
209
100
AcDbEntity
  8
Layer_1
 62
1
100
AcDbSpline
 70
8
 71
3
 72
8
 73
4
 74
0
 40
0
 40
0
 40
0
 40
0
 40
1
 40
1
 40
1
 40
1
 10
434.027841
 20
-33.146758
 30
0.0
 10
434.027841
 20
-31.508811
 30
0.0
 10
435.355697
 20
-30.181308
 30
0.0
 10
436.993291
 20
-30.181308
 30
0.0
  0
LWPOLYLINE
  5
20a
100
AcDbEntity
  8
Layer_1
 62
1
100
AcDbPolyline
 90
2
 70
0
 10
434.027841
 20
-39.207127
 30
0.0
 10
434.027841
 20
-33.146758
 30
0.0
  0
SPLINE
  5
20b
100
AcDbEntity
  8
Layer_1
 62
1
100
AcDbSpline
 70
8
 71
3
 72
8
 73
4
 74
0
 40
0
 40
0
 40
0
 40
0
 40
1
 40
1
 40
1
 40
1
 10
442.831763
 20
-30.181308
 30
0.0
 10
444.469710
 20
-30.181308
 30
0.0
 10
445.797213
 20
-31.508811
 30
0.0
 10
445.797213
 20
-33.146758
 30
0.0
  0
SPLINE
  5
20c
100
AcDbEntity
  8
Layer_1
 62
1
100
AcDbSpline
 70
8
 71
3
 72
8
 73
4
 74
0
 40
0
 40
0
 40
0
 40
0
 40
1
 40
1
 40
1
 40
1
 10
428.404810
 20
-40.474658
 30
0.0
 10
428.404810
 20
-41.412341
 30
0.0
 10
427.644574
 20
-42.172577
 30
0.0
 10
426.706891
 20
-42.172577
 30
0.0
  0
LWPOLYLINE
  5
20d
100
AcDbEntity
  8
Layer_1
 62
1
100
AcDbPolyline
 90
4
 70
0
 10
436.993291
 20
-30.181308
 30
0.0
 10
437.123113
 20
-30.181308
 30
0.0
 10
436.993291
 20
-30.181308
 30
0.0
 10
442.831763
 20
-30.181308
 30
0.0
  0
SPLINE
  5
20e
100
AcDbEntity
  8
Layer_1
 62
1
100
AcDbSpline
 70
8
 71
3
 72
8
 73
4
 74
0
 40
0
 40
0
 40
0
 40
0
 40
1
 40
1
 40
1
 40
1
 10
425.224166
 20
-42.172577
 30
0.0
 10
423.586219
 20
-42.172577
 30
0.0
 10
422.258716
 20
-40.845074
 30
0.0
 10
422.258716
 20
-39.207127
 30
0.0
  0
LWPOLYLINE
  5
20f
100
AcDbEntity
  8
Layer_1
 62
1
100
AcDbPolyline
 90
2
 70
0
 10
426.706891
 20
-42.172577
 30
0.0
 10
425.224166
 20
-42.172577
 30
0.0
  0
SPLINE
  5
210
100
AcDbEntity
  8
Layer_1
 62
1
100
AcDbSpline
 70
8
 71
3
 72
8
 73
4
 74
0
 40
0
 40
0
 40
0
 40
0
 40
1
 40
1
 40
1
 40
1
 10
422.258716
 20
-33.146758
 30
0.0
 10
422.258716
 20
-31.508811
 30
0.0
 10
423.586219
 20
-30.181308
 30
0.0
 10
425.224166
 20
-30.181308
 30
0.0
  0
LWPOLYLINE
  5
211
100
AcDbEntity
  8
Layer_1
 62
1
100
AcDbPolyline
 90
2
 70
0
 10
422.258716
 20
-39.207127
 30
0.0
 10
422.258716
 20
-33.146758
 30
0.0
  0
SPLINE
  5
212
100
AcDbEntity
  8
Layer_1
 62
1
100
AcDbSpline
 70
8
 71
3
 72
8
 73
4
 74
0
 40
0
 40
0
 40
0
 40
0
 40
1
 40
1
 40
1
 40
1
 10
431.062285
 20
-30.181308
 30
0.0
 10
432.700233
 20
-30.181308
 30
0.0
 10
434.027735
 20
-31.508811
 30
0.0
 10
434.027735
 20
-33.146758
 30
0.0
  0
SPLINE
  5
213
100
AcDbEntity
  8
Layer_1
 62
1
100
AcDbSpline
 70
8
 71
3
 72
8
 73
4
 74
0
 40
0
 40
0
 40
0
 40
0
 40
1
 40
1
 40
1
 40
1
 10
416.635333
 20
-40.474658
 30
0.0
 10
416.635333
 20
-41.412341
 30
0.0
 10
415.875097
 20
-42.172577
 30
0.0
 10
414.937413
 20
-42.172577
 30
0.0
  0
LWPOLYLINE
  5
214
100
AcDbEntity
  8
Layer_1
 62
1
100
AcDbPolyline
 90
4
 70
0
 10
425.224166
 20
-30.181308
 30
0.0
 10
425.353636
 20
-30.181308
 30
0.0
 10
425.224166
 20
-30.181308
 30
0.0
 10
431.062285
 20
-30.181308
 30
0.0
  0
SPLINE
  5
215
100
AcDbEntity
  8
Layer_1
 62
1
100
AcDbSpline
 70
8
 71
3
 72
8
 73
4
 74
0
 40
0
 40
0
 40
0
 40
0
 40
1
 40
1
 40
1
 40
1
 10
413.454688
 20
-42.172577
 30
0.0
 10
411.816741
 20
-42.172577
 30
0.0
 10
410.489238
 20
-40.845074
 30
0.0
 10
410.489238
 20
-39.207127
 30
0.0
  0
LWPOLYLINE
  5
216
100
AcDbEntity
  8
Layer_1
 62
1
100
AcDbPolyline
 90
2
 70
0
 10
414.937413
 20
-42.172577
 30
0.0
 10
413.454688
 20
-42.172577
 30
0.0
  0
SPLINE
  5
217
100
AcDbEntity
  8
Layer_1
 62
1
100
AcDbSpline
 70
8
 71
3
 72
8
 73
4
 74
0
 40
0
 40
0
 40
0
 40
0
 40
1
 40
1
 40
1
 40
1
 10
410.489238
 20
-33.146758
 30
0.0
 10
410.489238
 20
-31.508811
 30
0.0
 10
411.816741
 20
-30.181308
 30
0.0
 10
413.454688
 20
-30.181308
 30
0.0
  0
LWPOLYLINE
  5
218
100
AcDbEntity
  8
Layer_1
 62
1
100
AcDbPolyline
 90
2
 70
0
 10
410.489238
 20
-39.207127
 30
0.0
 10
410.489238
 20
-33.146758
 30
0.0
  0
SPLINE
  5
219
100
AcDbEntity
  8
Layer_1
 62
1
100
AcDbSpline
 70
8
 71
3
 72
8
 73
4
 74
0
 40
0
 40
0
 40
0
 40
0
 40
1
 40
1
 40
1
 40
1
 10
419.293160
 20
-30.181308
 30
0.0
 10
420.930755
 20
-30.181308
 30
0.0
 10
422.258610
 20
-31.508811
 30
0.0
 10
422.258610
 20
-33.146758
 30
0.0
  0
SPLINE
  5
21a
100
AcDbEntity
  8
Layer_1
 62
1
100
AcDbSpline
 70
8
 71
3
 72
8
 73
4
 74
0
 40
0
 40
0
 40
0
 40
0
 40
1
 40
1
 40
1
 40
1
 10
404.865855
 20
-40.474658
 30
0.0
 10
404.865855
 20
-41.412341
 30
0.0
 10
404.105619
 20
-42.172577
 30
0.0
 10
403.167935
 20
-42.172577
 30
0.0
  0
LWPOLYLINE
  5
21b
100
AcDbEntity
  8
Layer_1
 62
1
100
AcDbPolyline
 90
4
 70
0
 10
413.454688
 20
-30.181308
 30
0.0
 10
413.584158
 20
-30.181308
 30
0.0
 10
413.454688
 20
-30.181308
 30
0.0
 10
419.293160
 20
-30.181308
 30
0.0
  0
SPLINE
  5
21c
100
AcDbEntity
  8
Layer_1
 62
1
100
AcDbSpline
 70
8
 71
3
 72
8
 73
4
 74
0
 40
0
 40
0
 40
0
 40
0
 40
1
 40
1
 40
1
 40
1
 10
401.685211
 20
-42.172577
 30
0.0
 10
400.047263
 20
-42.172577
 30
0.0
 10
398.719761
 20
-40.845074
 30
0.0
 10
398.719761
 20
-39.207127
 30
0.0
  0
LWPOLYLINE
  5
21d
100
AcDbEntity
  8
Layer_1
 62
1
100
AcDbPolyline
 90
2
 70
0
 10
403.167935
 20
-42.172577
 30
0.0
 10
401.685211
 20
-42.172577
 30
0.0
  0
SPLINE
  5
21e
100
AcDbEntity
  8
Layer_1
 62
1
100
AcDbSpline
 70
8
 71
3
 72
8
 73
4
 74
0
 40
0
 40
0
 40
0
 40
0
 40
1
 40
1
 40
1
 40
1
 10
398.719761
 20
-33.146758
 30
0.0
 10
398.719761
 20
-31.508811
 30
0.0
 10
400.047263
 20
-30.181308
 30
0.0
 10
401.685211
 20
-30.181308
 30
0.0
  0
LWPOLYLINE
  5
21f
100
AcDbEntity
  8
Layer_1
 62
1
100
AcDbPolyline
 90
2
 70
0
 10
398.719761
 20
-39.207127
 30
0.0
 10
398.719761
 20
-33.146758
 30
0.0
  0
SPLINE
  5
220
100
AcDbEntity
  8
Layer_1
 62
1
100
AcDbSpline
 70
8
 71
3
 72
8
 73
4
 74
0
 40
0
 40
0
 40
0
 40
0
 40
1
 40
1
 40
1
 40
1
 10
407.523683
 20
-30.181308
 30
0.0
 10
409.161277
 20
-30.181308
 30
0.0
 10
410.489133
 20
-31.508811
 30
0.0
 10
410.489133
 20
-33.146758
 30
0.0
  0
SPLINE
  5
221
100
AcDbEntity
  8
Layer_1
 62
1
100
AcDbSpline
 70
8
 71
3
 72
8
 73
4
 74
0
 40
0
 40
0
 40
0
 40
0
 40
1
 40
1
 40
1
 40
1
 10
398.719619
 20
-32.803470
 30
0.0
 10
398.719619
 20
-31.165523
 30
0.0
 10
397.391764
 20
-29.485242
 30
0.0
 10
395.754170
 20
-29.485242
 30
0.0
  0
LWPOLYLINE
  5
222
100
AcDbEntity
  8
Layer_1
 62
1
100
AcDbPolyline
 90
4
 70
0
 10
401.685211
 20
-30.181308
 30
0.0
 10
401.814680
 20
-30.181308
 30
0.0
 10
401.685211
 20
-30.181308
 30
0.0
 10
407.523683
 20
-30.181308
 30
0.0
  0
SPLINE
  5
223
100
AcDbEntity
  8
Layer_1
 62
1
100
AcDbSpline
 70
8
 71
3
 72
8
 73
4
 74
0
 40
0
 40
0
 40
0
 40
0
 40
1
 40
1
 40
1
 40
1
 10
-180.491737
 20
-29.479598
 30
0.0
 10
-181.931423
 20
-29.479598
 30
0.0
 10
-183.251518
 20
-30.025698
 30
0.0
 10
-184.280218
 20
-30.934453
 30
0.0
  0
SPLINE
  5
224
100
AcDbEntity
  8
Layer_1
 62
1
100
AcDbSpline
 70
8
 71
3
 72
8
 73
4
 74
0
 40
0
 40
0
 40
0
 40
0
 40
1
 40
1
 40
1
 40
1
 10
-177.834333
 20
-44.828570
 30
0.0
 10
-177.834333
 20
-43.890887
 30
0.0
 10
-177.074097
 20
-43.130651
 30
0.0
 10
-176.136413
 20
-43.130651
 30
0.0
  0
LWPOLYLINE
  5
225
100
AcDbEntity
  8
Layer_1
 62
1
100
AcDbPolyline
 90
2
 70
0
 10
395.754170
 20
-29.485242
 30
0.0
 10
-180.491737
 20
-29.479598
 30
0.0
  0
SPLINE
  5
226
100
AcDbEntity
  8
Layer_1
 62
1
100
AcDbSpline
 70
8
 71
3
 72
8
 73
4
 74
0
 40
0
 40
0
 40
0
 40
0
 40
1
 40
1
 40
1
 40
1
 10
-174.653688
 20
-43.130651
 30
0.0
 10
-173.015741
 20
-43.130651
 30
0.0
 10
-171.688239
 20
-44.458506
 30
0.0
 10
-171.688239
 20
-46.096101
 30
0.0
  0
LWPOLYLINE
  5
227
100
AcDbEntity
  8
Layer_1
 62
1
100
AcDbPolyline
 90
2
 70
0
 10
-176.136413
 20
-43.130651
 30
0.0
 10
-174.653688
 20
-43.130651
 30
0.0
  0
SPLINE
  5
228
100
AcDbEntity
  8
Layer_1
 62
1
100
AcDbSpline
 70
8
 71
3
 72
8
 73
4
 74
0
 40
0
 40
0
 40
0
 40
0
 40
1
 40
1
 40
1
 40
1
 10
-171.688239
 20
-52.862026
 30
0.0
 10
-171.688239
 20
-54.499973
 30
0.0
 10
-173.015741
 20
-55.122273
 30
0.0
 10
-174.653688
 20
-55.122273
 30
0.0
  0
LWPOLYLINE
  5
229
100
AcDbEntity
  8
Layer_1
 62
1
100
AcDbPolyline
 90
2
 70
0
 10
-171.688239
 20
-46.096101
 30
0.0
 10
-171.688239
 20
-52.862026
 30
0.0
  0
SPLINE
  5
22a
100
AcDbEntity
  8
Layer_1
 62
1
100
AcDbSpline
 70
8
 71
3
 72
8
 73
4
 74
0
 40
0
 40
0
 40
0
 40
0
 40
1
 40
1
 40
1
 40
1
 10
-180.491808
 20
-55.114159
 30
0.0
 10
-183.777227
 20
-55.114159
 30
0.0
 10
-186.440347
 20
-52.271123
 30
0.0
 10
-186.440347
 20
-48.764159
 30
0.0
  0
LWPOLYLINE
  5
22b
100
AcDbEntity
  8
Layer_1
 62
1
100
AcDbPolyline
 90
5
 70
0
 10
-174.653688
 20
-55.122273
 30
0.0
 10
-174.783158
 20
-55.122273
 30
0.0
 10
-180.491808
 20
-55.122273
 30
0.0
 10
-180.530966
 20
-55.114159
 30
0.0
 10
-180.491808
 20
-55.114159
 30
0.0
  0
SPLINE
  5
22c
100
AcDbEntity
  8
Layer_1
 62
1
100
AcDbSpline
 70
8
 71
3
 72
8
 73
4
 74
0
 40
0
 40
0
 40
0
 40
0
 40
1
 40
1
 40
1
 40
1
 10
-186.440347
 20
-35.829562
 30
0.0
 10
-186.440347
 20
-34.008523
 30
0.0
 10
-185.718210
 20
-32.370929
 30
0.0
 10
-184.567449
 20
-31.212759
 30
0.0
  0
LWPOLYLINE
  5
22d
100
AcDbEntity
  8
Layer_1
 62
1
100
AcDbPolyline
 90
2
 70
0
 10
-186.440347
 20
-48.764159
 30
0.0
 10
-186.440347
 20
-35.829562
 30
0.0
  0
SPLINE
  5
22e
100
AcDbEntity
  8
Layer_1
 62
1
100
AcDbSpline
 70
8
 71
3
 72
8
 73
4
 74
0
 40
0
 40
0
 40
0
 40
0
 40
1
 40
1
 40
1
 40
1
 10
54.456776
 20
-7.293792
 30
0.0
 10
54.456776
 20
-7.080008
 30
0.0
 10
53.536379
 20
-7.287089
 30
0.0
 10
53.338823
 20
-7.368581
 30
0.0
  0
SPLINE
  5
22f
100
AcDbEntity
  8
Layer_1
 62
1
100
AcDbSpline
 70
8
 71
3
 72
8
 73
4
 74
0
 40
0
 40
0
 40
0
 40
0
 40
1
 40
1
 40
1
 40
1
 10
53.338823
 20
-7.368581
 30
0.0
 10
52.235334
 20
-7.823311
 30
0.0
 10
49.325623
 20
-11.431522
 30
0.0
 10
47.685207
 20
-12.956580
 30
0.0
  0
SPLINE
  5
230
100
AcDbEntity
  8
Layer_1
 62
1
100
AcDbSpline
 70
8
 71
3
 72
8
 73
4
 74
0
 40
0
 40
0
 40
0
 40
0
 40
1
 40
1
 40
1
 40
1
 10
47.685207
 20
-12.956580
 30
0.0
 10
47.278101
 20
-13.334758
 30
0.0
 10
47.048443
 20
-13.864278
 30
0.0
 10
47.048443
 20
-14.419903
 30
0.0
  0
LWPOLYLINE
  5
231
100
AcDbEntity
  8
Layer_1
 62
1
100
AcDbPolyline
 90
3
 70
0
 10
64.420984
 20
-8.952200
 30
0.0
 10
54.456776
 20
-9.056622
 30
0.0
 10
54.456776
 20
-7.293792
 30
0.0
  0
SPLINE
  5
232
100
AcDbEntity
  8
Layer_1
 62
1
100
AcDbSpline
 70
8
 71
3
 72
8
 73
4
 74
0
 40
0
 40
0
 40
0
 40
0
 40
1
 40
1
 40
1
 40
1
 10
47.048443
 20
-17.361011
 30
0.0
 10
47.048443
 20
-17.916636
 30
0.0
 10
47.278101
 20
-18.446155
 30
0.0
 10
47.685207
 20
-18.824333
 30
0.0
  0
SPLINE
  5
233
100
AcDbEntity
  8
Layer_1
 62
1
100
AcDbSpline
 70
8
 71
3
 72
8
 73
4
 74
0
 40
0
 40
0
 40
0
 40
0
 40
1
 40
1
 40
1
 40
1
 10
47.685207
 20
-18.824333
 30
0.0
 10
49.325623
 20
-20.349391
 30
0.0
 10
52.235334
 20
-23.957602
 30
0.0
 10
53.338823
 20
-24.412686
 30
0.0
  0
SPLINE
  5
234
100
AcDbEntity
  8
Layer_1
 62
1
100
AcDbSpline
 70
8
 71
3
 72
8
 73
4
 74
0
 40
0
 40
0
 40
0
 40
0
 40
1
 40
1
 40
1
 40
1
 10
53.338823
 20
-24.412686
 30
0.0
 10
53.536379
 20
-24.494177
 30
0.0
 10
54.456776
 20
-24.700905
 30
0.0
 10
54.456776
 20
-24.487122
 30
0.0
  0
LWPOLYLINE
  5
235
100
AcDbEntity
  8
Layer_1
 62
1
100
AcDbPolyline
 90
2
 70
0
 10
47.048443
 20
-14.419903
 30
0.0
 10
47.048443
 20
-17.361011
 30
0.0
  0
LWPOLYLINE
  5
236
100
AcDbEntity
  8
Layer_1
 62
1
100
AcDbPolyline
 90
3
 70
0
 10
54.456776
 20
-24.487122
 30
0.0
 10
54.456776
 20
-22.724291
 30
0.0
 10
64.420984
 20
-22.828714
 30
0.0
  0
SPLINE
  5
237
100
AcDbEntity
  8
Layer_1
 62
1
100
AcDbSpline
 70
8
 71
3
 72
8
 73
4
 74
0
 40
0
 40
0
 40
0
 40
0
 40
1
 40
1
 40
1
 40
1
 10
266.947280
 20
-7.293792
 30
0.0
 10
266.947280
 20
-7.080008
 30
0.0
 10
267.867677
 20
-7.287089
 30
0.0
 10
268.065585
 20
-7.368581
 30
0.0
  0
SPLINE
  5
238
100
AcDbEntity
  8
Layer_1
 62
1
100
AcDbSpline
 70
8
 71
3
 72
8
 73
4
 74
0
 40
0
 40
0
 40
0
 40
0
 40
1
 40
1
 40
1
 40
1
 10
268.065585
 20
-7.368581
 30
0.0
 10
269.168721
 20
-7.823311
 30
0.0
 10
272.078433
 20
-11.431522
 30
0.0
 10
273.718849
 20
-12.956580
 30
0.0
  0
SPLINE
  5
239
100
AcDbEntity
  8
Layer_1
 62
1
100
AcDbSpline
 70
8
 71
3
 72
8
 73
4
 74
0
 40
0
 40
0
 40
0
 40
0
 40
1
 40
1
 40
1
 40
1
 10
273.718849
 20
-12.956580
 30
0.0
 10
274.125955
 20
-13.334758
 30
0.0
 10
274.355613
 20
-13.864278
 30
0.0
 10
274.355613
 20
-14.419903
 30
0.0
  0
LWPOLYLINE
  5
23a
100
AcDbEntity
  8
Layer_1
 62
1
100
AcDbPolyline
 90
3
 70
0
 10
256.983072
 20
-8.952200
 30
0.0
 10
266.947280
 20
-9.056622
 30
0.0
 10
266.947280
 20
-7.293792
 30
0.0
  0
SPLINE
  5
23b
100
AcDbEntity
  8
Layer_1
 62
1
100
AcDbSpline
 70
8
 71
3
 72
8
 73
4
 74
0
 40
0
 40
0
 40
0
 40
0
 40
1
 40
1
 40
1
 40
1
 10
274.355613
 20
-17.361011
 30
0.0
 10
274.355613
 20
-17.916636
 30
0.0
 10
274.125955
 20
-18.446155
 30
0.0
 10
273.718849
 20
-18.824333
 30
0.0
  0
SPLINE
  5
23c
100
AcDbEntity
  8
Layer_1
 62
1
100
AcDbSpline
 70
8
 71
3
 72
8
 73
4
 74
0
 40
0
 40
0
 40
0
 40
0
 40
1
 40
1
 40
1
 40
1
 10
273.718849
 20
-18.824333
 30
0.0
 10
272.078433
 20
-20.349391
 30
0.0
 10
269.168721
 20
-23.957602
 30
0.0
 10
268.065585
 20
-24.412686
 30
0.0
  0
SPLINE
  5
23d
100
AcDbEntity
  8
Layer_1
 62
1
100
AcDbSpline
 70
8
 71
3
 72
8
 73
4
 74
0
 40
0
 40
0
 40
0
 40
0
 40
1
 40
1
 40
1
 40
1
 10
268.065585
 20
-24.412686
 30
0.0
 10
267.867677
 20
-24.494177
 30
0.0
 10
266.947280
 20
-24.700905
 30
0.0
 10
266.947280
 20
-24.487122
 30
0.0
  0
LWPOLYLINE
  5
23e
100
AcDbEntity
  8
Layer_1
 62
1
100
AcDbPolyline
 90
2
 70
0
 10
274.355613
 20
-14.419903
 30
0.0
 10
274.355613
 20
-17.361011
 30
0.0
  0
SPLINE
  5
23f
100
AcDbEntity
  8
Layer_1
 62
1
100
AcDbSpline
 70
8
 71
3
 72
8
 73
4
 74
0
 40
0
 40
0
 40
0
 40
0
 40
1
 40
1
 40
1
 40
1
 10
-166.064855
 20
-18.480657
 30
0.0
 10
-166.064855
 20
-17.542974
 30
0.0
 10
-165.304619
 20
-16.782738
 30
0.0
 10
-164.366936
 20
-16.782738
 30
0.0
  0
LWPOLYLINE
  5
240
100
AcDbEntity
  8
Layer_1
 62
1
100
AcDbPolyline
 90
3
 70
0
 10
266.947280
 20
-24.487122
 30
0.0
 10
266.947280
 20
-22.724291
 30
0.0
 10
256.983072
 20
-22.828714
 30
0.0
  0
SPLINE
  5
241
100
AcDbEntity
  8
Layer_1
 62
1
100
AcDbSpline
 70
8
 71
3
 72
8
 73
4
 74
0
 40
0
 40
0
 40
0
 40
0
 40
1
 40
1
 40
1
 40
1
 10
-162.884211
 20
-16.782738
 30
0.0
 10
-161.246263
 20
-16.782738
 30
0.0
 10
-159.918761
 20
-18.110240
 30
0.0
 10
-159.918761
 20
-19.748187
 30
0.0
  0
LWPOLYLINE
  5
242
100
AcDbEntity
  8
Layer_1
 62
1
100
AcDbPolyline
 90
2
 70
0
 10
-164.366936
 20
-16.782738
 30
0.0
 10
-162.884211
 20
-16.782738
 30
0.0
  0
SPLINE
  5
243
100
AcDbEntity
  8
Layer_1
 62
1
100
AcDbSpline
 70
8
 71
3
 72
8
 73
4
 74
0
 40
0
 40
0
 40
0
 40
0
 40
1
 40
1
 40
1
 40
1
 10
-159.918761
 20
-26.514112
 30
0.0
 10
-159.918761
 20
-28.152060
 30
0.0
 10
-161.246263
 20
-28.774007
 30
0.0
 10
-162.884211
 20
-28.774007
 30
0.0
  0
LWPOLYLINE
  5
244
100
AcDbEntity
  8
Layer_1
 62
1
100
AcDbPolyline
 90
2
 70
0
 10
-159.918761
 20
-19.748187
 30
0.0
 10
-159.918761
 20
-26.514112
 30
0.0
  0
SPLINE
  5
245
100
AcDbEntity
  8
Layer_1
 62
1
100
AcDbSpline
 70
8
 71
3
 72
8
 73
4
 74
0
 40
0
 40
0
 40
0
 40
0
 40
1
 40
1
 40
1
 40
1
 10
-168.722683
 20
-28.774007
 30
0.0
 10
-170.360277
 20
-28.774007
 30
0.0
 10
-171.688133
 20
-28.152060
 30
0.0
 10
-171.688133
 20
-26.514112
 30
0.0
  0
SPLINE
  5
246
100
AcDbEntity
  8
Layer_1
 62
1
100
AcDbSpline
 70
8
 71
3
 72
8
 73
4
 74
0
 40
0
 40
0
 40
0
 40
0
 40
1
 40
1
 40
1
 40
1
 10
-154.295518
 20
-18.480657
 30
0.0
 10
-154.295518
 20
-17.542974
 30
0.0
 10
-153.535282
 20
-16.782738
 30
0.0
 10
-152.597599
 20
-16.782738
 30
0.0
  0
LWPOLYLINE
  5
247
100
AcDbEntity
  8
Layer_1
 62
1
100
AcDbPolyline
 90
4
 70
0
 10
-162.884211
 20
-28.774007
 30
0.0
 10
-163.013680
 20
-28.774007
 30
0.0
 10
-162.884211
 20
-28.774007
 30
0.0
 10
-168.722683
 20
-28.774007
 30
0.0
  0
SPLINE
  5
248
100
AcDbEntity
  8
Layer_1
 62
1
100
AcDbSpline
 70
8
 71
3
 72
8
 73
4
 74
0
 40
0
 40
0
 40
0
 40
0
 40
1
 40
1
 40
1
 40
1
 10
-151.114521
 20
-16.782738
 30
0.0
 10
-149.476927
 20
-16.782738
 30
0.0
 10
-148.149071
 20
-18.110240
 30
0.0
 10
-148.149071
 20
-19.748187
 30
0.0
  0
LWPOLYLINE
  5
249
100
AcDbEntity
  8
Layer_1
 62
1
100
AcDbPolyline
 90
2
 70
0
 10
-152.597599
 20
-16.782738
 30
0.0
 10
-151.114521
 20
-16.782738
 30
0.0
  0
SPLINE
  5
24a
100
AcDbEntity
  8
Layer_1
 62
1
100
AcDbSpline
 70
8
 71
3
 72
8
 73
4
 74
0
 40
0
 40
0
 40
0
 40
0
 40
1
 40
1
 40
1
 40
1
 10
-148.149071
 20
-26.514112
 30
0.0
 10
-148.149071
 20
-28.152060
 30
0.0
 10
-149.476927
 20
-28.774007
 30
0.0
 10
-151.114521
 20
-28.774007
 30
0.0
  0
LWPOLYLINE
  5
24b
100
AcDbEntity
  8
Layer_1
 62
1
100
AcDbPolyline
 90
2
 70
0
 10
-148.149071
 20
-19.748187
 30
0.0
 10
-148.149071
 20
-26.514112
 30
0.0
  0
SPLINE
  5
24c
100
AcDbEntity
  8
Layer_1
 62
1
100
AcDbSpline
 70
8
 71
3
 72
8
 73
4
 74
0
 40
0
 40
0
 40
0
 40
0
 40
1
 40
1
 40
1
 40
1
 10
-156.952993
 20
-28.774007
 30
0.0
 10
-158.590940
 20
-28.774007
 30
0.0
 10
-159.918443
 20
-28.152060
 30
0.0
 10
-159.918443
 20
-26.514112
 30
0.0
  0
SPLINE
  5
24d
100
AcDbEntity
  8
Layer_1
 62
1
100
AcDbSpline
 70
8
 71
3
 72
8
 73
4
 74
0
 40
0
 40
0
 40
0
 40
0
 40
1
 40
1
 40
1
 40
1
 10
-142.526041
 20
-18.480657
 30
0.0
 10
-142.526041
 20
-17.542974
 30
0.0
 10
-141.765804
 20
-16.782738
 30
0.0
 10
-140.828121
 20
-16.782738
 30
0.0
  0
LWPOLYLINE
  5
24e
100
AcDbEntity
  8
Layer_1
 62
1
100
AcDbPolyline
 90
4
 70
0
 10
-151.114521
 20
-28.774007
 30
0.0
 10
-151.243991
 20
-28.774007
 30
0.0
 10
-151.114521
 20
-28.774007
 30
0.0
 10
-156.952993
 20
-28.774007
 30
0.0
  0
SPLINE
  5
24f
100
AcDbEntity
  8
Layer_1
 62
1
100
AcDbSpline
 70
8
 71
3
 72
8
 73
4
 74
0
 40
0
 40
0
 40
0
 40
0
 40
1
 40
1
 40
1
 40
1
 10
-139.345043
 20
-16.782738
 30
0.0
 10
-137.707449
 20
-16.782738
 30
0.0
 10
-136.379593
 20
-18.110240
 30
0.0
 10
-136.379593
 20
-19.748187
 30
0.0
  0
LWPOLYLINE
  5
250
100
AcDbEntity
  8
Layer_1
 62
1
100
AcDbPolyline
 90
2
 70
0
 10
-140.828121
 20
-16.782738
 30
0.0
 10
-139.345043
 20
-16.782738
 30
0.0
  0
SPLINE
  5
251
100
AcDbEntity
  8
Layer_1
 62
1
100
AcDbSpline
 70
8
 71
3
 72
8
 73
4
 74
0
 40
0
 40
0
 40
0
 40
0
 40
1
 40
1
 40
1
 40
1
 10
-136.379593
 20
-26.514112
 30
0.0
 10
-136.379593
 20
-28.152060
 30
0.0
 10
-137.707449
 20
-28.774007
 30
0.0
 10
-139.345043
 20
-28.774007
 30
0.0
  0
LWPOLYLINE
  5
252
100
AcDbEntity
  8
Layer_1
 62
1
100
AcDbPolyline
 90
2
 70
0
 10
-136.379593
 20
-19.748187
 30
0.0
 10
-136.379593
 20
-26.514112
 30
0.0
  0
SPLINE
  5
253
100
AcDbEntity
  8
Layer_1
 62
1
100
AcDbSpline
 70
8
 71
3
 72
8
 73
4
 74
0
 40
0
 40
0
 40
0
 40
0
 40
1
 40
1
 40
1
 40
1
 10
-145.183515
 20
-28.774007
 30
0.0
 10
-146.821463
 20
-28.774007
 30
0.0
 10
-148.148965
 20
-28.152060
 30
0.0
 10
-148.148965
 20
-26.514112
 30
0.0
  0
SPLINE
  5
254
100
AcDbEntity
  8
Layer_1
 62
1
100
AcDbSpline
 70
8
 71
3
 72
8
 73
4
 74
0
 40
0
 40
0
 40
0
 40
0
 40
1
 40
1
 40
1
 40
1
 10
-130.756563
 20
-18.480657
 30
0.0
 10
-130.756563
 20
-17.542974
 30
0.0
 10
-129.996327
 20
-16.782738
 30
0.0
 10
-129.058643
 20
-16.782738
 30
0.0
  0
LWPOLYLINE
  5
255
100
AcDbEntity
  8
Layer_1
 62
1
100
AcDbPolyline
 90
4
 70
0
 10
-139.345043
 20
-28.774007
 30
0.0
 10
-139.474866
 20
-28.774007
 30
0.0
 10
-139.345043
 20
-28.774007
 30
0.0
 10
-145.183515
 20
-28.774007
 30
0.0
  0
SPLINE
  5
256
100
AcDbEntity
  8
Layer_1
 62
1
100
AcDbSpline
 70
8
 71
3
 72
8
 73
4
 74
0
 40
0
 40
0
 40
0
 40
0
 40
1
 40
1
 40
1
 40
1
 10
-127.575918
 20
-16.782738
 30
0.0
 10
-125.937971
 20
-16.782738
 30
0.0
 10
-124.610468
 20
-18.110240
 30
0.0
 10
-124.610468
 20
-19.748187
 30
0.0
  0
LWPOLYLINE
  5
257
100
AcDbEntity
  8
Layer_1
 62
1
100
AcDbPolyline
 90
2
 70
0
 10
-129.058643
 20
-16.782738
 30
0.0
 10
-127.575918
 20
-16.782738
 30
0.0
  0
SPLINE
  5
258
100
AcDbEntity
  8
Layer_1
 62
1
100
AcDbSpline
 70
8
 71
3
 72
8
 73
4
 74
0
 40
0
 40
0
 40
0
 40
0
 40
1
 40
1
 40
1
 40
1
 10
-124.610468
 20
-26.514112
 30
0.0
 10
-124.610468
 20
-28.152060
 30
0.0
 10
-125.937971
 20
-28.774007
 30
0.0
 10
-127.575918
 20
-28.774007
 30
0.0
  0
LWPOLYLINE
  5
259
100
AcDbEntity
  8
Layer_1
 62
1
100
AcDbPolyline
 90
2
 70
0
 10
-124.610468
 20
-19.748187
 30
0.0
 10
-124.610468
 20
-26.514112
 30
0.0
  0
SPLINE
  5
25a
100
AcDbEntity
  8
Layer_1
 62
1
100
AcDbSpline
 70
8
 71
3
 72
8
 73
4
 74
0
 40
0
 40
0
 40
0
 40
0
 40
1
 40
1
 40
1
 40
1
 10
-133.414038
 20
-28.774007
 30
0.0
 10
-135.051985
 20
-28.774007
 30
0.0
 10
-136.379488
 20
-28.152060
 30
0.0
 10
-136.379488
 20
-26.514112
 30
0.0
  0
SPLINE
  5
25b
100
AcDbEntity
  8
Layer_1
 62
1
100
AcDbSpline
 70
8
 71
3
 72
8
 73
4
 74
0
 40
0
 40
0
 40
0
 40
0
 40
1
 40
1
 40
1
 40
1
 10
-118.987085
 20
-18.480657
 30
0.0
 10
-118.987085
 20
-17.542974
 30
0.0
 10
-118.226849
 20
-16.782738
 30
0.0
 10
-117.289166
 20
-16.782738
 30
0.0
  0
LWPOLYLINE
  5
25c
100
AcDbEntity
  8
Layer_1
 62
1
100
AcDbPolyline
 90
4
 70
0
 10
-127.575918
 20
-28.774007
 30
0.0
 10
-127.705388
 20
-28.774007
 30
0.0
 10
-127.575918
 20
-28.774007
 30
0.0
 10
-133.414038
 20
-28.774007
 30
0.0
  0
SPLINE
  5
25d
100
AcDbEntity
  8
Layer_1
 62
1
100
AcDbSpline
 70
8
 71
3
 72
8
 73
4
 74
0
 40
0
 40
0
 40
0
 40
0
 40
1
 40
1
 40
1
 40
1
 10
-115.806441
 20
-16.782738
 30
0.0
 10
-114.168493
 20
-16.782738
 30
0.0
 10
-112.840991
 20
-18.110240
 30
0.0
 10
-112.840991
 20
-19.748187
 30
0.0
  0
LWPOLYLINE
  5
25e
100
AcDbEntity
  8
Layer_1
 62
1
100
AcDbPolyline
 90
2
 70
0
 10
-117.289166
 20
-16.782738
 30
0.0
 10
-115.806441
 20
-16.782738
 30
0.0
  0
SPLINE
  5
25f
100
AcDbEntity
  8
Layer_1
 62
1
100
AcDbSpline
 70
8
 71
3
 72
8
 73
4
 74
0
 40
0
 40
0
 40
0
 40
0
 40
1
 40
1
 40
1
 40
1
 10
-112.840991
 20
-26.514112
 30
0.0
 10
-112.840991
 20
-28.152060
 30
0.0
 10
-114.168493
 20
-28.774007
 30
0.0
 10
-115.806441
 20
-28.774007
 30
0.0
  0
LWPOLYLINE
  5
260
100
AcDbEntity
  8
Layer_1
 62
1
100
AcDbPolyline
 90
2
 70
0
 10
-112.840991
 20
-19.748187
 30
0.0
 10
-112.840991
 20
-26.514112
 30
0.0
  0
SPLINE
  5
261
100
AcDbEntity
  8
Layer_1
 62
1
100
AcDbSpline
 70
8
 71
3
 72
8
 73
4
 74
0
 40
0
 40
0
 40
0
 40
0
 40
1
 40
1
 40
1
 40
1
 10
-121.644913
 20
-28.774007
 30
0.0
 10
-123.282507
 20
-28.774007
 30
0.0
 10
-124.610363
 20
-28.152060
 30
0.0
 10
-124.610363
 20
-26.514112
 30
0.0
  0
SPLINE
  5
262
100
AcDbEntity
  8
Layer_1
 62
1
100
AcDbSpline
 70
8
 71
3
 72
8
 73
4
 74
0
 40
0
 40
0
 40
0
 40
0
 40
1
 40
1
 40
1
 40
1
 10
-107.217607
 20
-18.480657
 30
0.0
 10
-107.217607
 20
-17.542974
 30
0.0
 10
-106.457371
 20
-16.782738
 30
0.0
 10
-105.519688
 20
-16.782738
 30
0.0
  0
LWPOLYLINE
  5
263
100
AcDbEntity
  8
Layer_1
 62
1
100
AcDbPolyline
 90
4
 70
0
 10
-115.806441
 20
-28.774007
 30
0.0
 10
-115.935910
 20
-28.774007
 30
0.0
 10
-115.806441
 20
-28.774007
 30
0.0
 10
-121.644913
 20
-28.774007
 30
0.0
  0
SPLINE
  5
264
100
AcDbEntity
  8
Layer_1
 62
1
100
AcDbSpline
 70
8
 71
3
 72
8
 73
4
 74
0
 40
0
 40
0
 40
0
 40
0
 40
1
 40
1
 40
1
 40
1
 10
-104.036963
 20
-16.782738
 30
0.0
 10
-102.399016
 20
-16.782738
 30
0.0
 10
-101.071513
 20
-18.110240
 30
0.0
 10
-101.071513
 20
-19.748187
 30
0.0
  0
LWPOLYLINE
  5
265
100
AcDbEntity
  8
Layer_1
 62
1
100
AcDbPolyline
 90
2
 70
0
 10
-105.519688
 20
-16.782738
 30
0.0
 10
-104.036963
 20
-16.782738
 30
0.0
  0
SPLINE
  5
266
100
AcDbEntity
  8
Layer_1
 62
1
100
AcDbSpline
 70
8
 71
3
 72
8
 73
4
 74
0
 40
0
 40
0
 40
0
 40
0
 40
1
 40
1
 40
1
 40
1
 10
-101.071513
 20
-26.514112
 30
0.0
 10
-101.071513
 20
-28.152060
 30
0.0
 10
-102.399016
 20
-28.774007
 30
0.0
 10
-104.036963
 20
-28.774007
 30
0.0
  0
LWPOLYLINE
  5
267
100
AcDbEntity
  8
Layer_1
 62
1
100
AcDbPolyline
 90
2
 70
0
 10
-101.071513
 20
-19.748187
 30
0.0
 10
-101.071513
 20
-26.514112
 30
0.0
  0
SPLINE
  5
268
100
AcDbEntity
  8
Layer_1
 62
1
100
AcDbSpline
 70
8
 71
3
 72
8
 73
4
 74
0
 40
0
 40
0
 40
0
 40
0
 40
1
 40
1
 40
1
 40
1
 10
-109.875435
 20
-28.774007
 30
0.0
 10
-111.513029
 20
-28.774007
 30
0.0
 10
-112.840885
 20
-28.152060
 30
0.0
 10
-112.840885
 20
-26.514112
 30
0.0
  0
SPLINE
  5
269
100
AcDbEntity
  8
Layer_1
 62
1
100
AcDbSpline
 70
8
 71
3
 72
8
 73
4
 74
0
 40
0
 40
0
 40
0
 40
0
 40
1
 40
1
 40
1
 40
1
 10
-95.448129
 20
-18.480657
 30
0.0
 10
-95.448129
 20
-17.542974
 30
0.0
 10
-94.687893
 20
-16.782738
 30
0.0
 10
-93.750210
 20
-16.782738
 30
0.0
  0
LWPOLYLINE
  5
26a
100
AcDbEntity
  8
Layer_1
 62
1
100
AcDbPolyline
 90
4
 70
0
 10
-104.036963
 20
-28.774007
 30
0.0
 10
-104.166432
 20
-28.774007
 30
0.0
 10
-104.036963
 20
-28.774007
 30
0.0
 10
-109.875435
 20
-28.774007
 30
0.0
  0
SPLINE
  5
26b
100
AcDbEntity
  8
Layer_1
 62
1
100
AcDbSpline
 70
8
 71
3
 72
8
 73
4
 74
0
 40
0
 40
0
 40
0
 40
0
 40
1
 40
1
 40
1
 40
1
 10
-92.267485
 20
-16.782738
 30
0.0
 10
-90.629538
 20
-16.782738
 30
0.0
 10
-89.302035
 20
-18.110240
 30
0.0
 10
-89.302035
 20
-19.748187
 30
0.0
  0
LWPOLYLINE
  5
26c
100
AcDbEntity
  8
Layer_1
 62
1
100
AcDbPolyline
 90
2
 70
0
 10
-93.750210
 20
-16.782738
 30
0.0
 10
-92.267485
 20
-16.782738
 30
0.0
  0
SPLINE
  5
26d
100
AcDbEntity
  8
Layer_1
 62
1
100
AcDbSpline
 70
8
 71
3
 72
8
 73
4
 74
0
 40
0
 40
0
 40
0
 40
0
 40
1
 40
1
 40
1
 40
1
 10
-89.302035
 20
-26.514112
 30
0.0
 10
-89.302035
 20
-28.152060
 30
0.0
 10
-90.629538
 20
-28.774007
 30
0.0
 10
-92.267485
 20
-28.774007
 30
0.0
  0
LWPOLYLINE
  5
26e
100
AcDbEntity
  8
Layer_1
 62
1
100
AcDbPolyline
 90
2
 70
0
 10
-89.302035
 20
-19.748187
 30
0.0
 10
-89.302035
 20
-26.514112
 30
0.0
  0
SPLINE
  5
26f
100
AcDbEntity
  8
Layer_1
 62
1
100
AcDbSpline
 70
8
 71
3
 72
8
 73
4
 74
0
 40
0
 40
0
 40
0
 40
0
 40
1
 40
1
 40
1
 40
1
 10
-98.105957
 20
-28.774007
 30
0.0
 10
-99.743551
 20
-28.774007
 30
0.0
 10
-101.071407
 20
-28.152060
 30
0.0
 10
-101.071407
 20
-26.514112
 30
0.0
  0
SPLINE
  5
270
100
AcDbEntity
  8
Layer_1
 62
1
100
AcDbSpline
 70
8
 71
3
 72
8
 73
4
 74
0
 40
0
 40
0
 40
0
 40
0
 40
1
 40
1
 40
1
 40
1
 10
-83.678652
 20
-18.480657
 30
0.0
 10
-83.678652
 20
-17.542974
 30
0.0
 10
-82.918415
 20
-16.782738
 30
0.0
 10
-81.980732
 20
-16.782738
 30
0.0
  0
LWPOLYLINE
  5
271
100
AcDbEntity
  8
Layer_1
 62
1
100
AcDbPolyline
 90
4
 70
0
 10
-92.267485
 20
-28.774007
 30
0.0
 10
-92.396954
 20
-28.774007
 30
0.0
 10
-92.267485
 20
-28.774007
 30
0.0
 10
-98.105957
 20
-28.774007
 30
0.0
  0
SPLINE
  5
272
100
AcDbEntity
  8
Layer_1
 62
1
100
AcDbSpline
 70
8
 71
3
 72
8
 73
4
 74
0
 40
0
 40
0
 40
0
 40
0
 40
1
 40
1
 40
1
 40
1
 10
-80.498007
 20
-16.782738
 30
0.0
 10
-78.860060
 20
-16.782738
 30
0.0
 10
-77.532557
 20
-18.110240
 30
0.0
 10
-77.532557
 20
-19.748187
 30
0.0
  0
LWPOLYLINE
  5
273
100
AcDbEntity
  8
Layer_1
 62
1
100
AcDbPolyline
 90
2
 70
0
 10
-81.980732
 20
-16.782738
 30
0.0
 10
-80.498007
 20
-16.782738
 30
0.0
  0
SPLINE
  5
274
100
AcDbEntity
  8
Layer_1
 62
1
100
AcDbSpline
 70
8
 71
3
 72
8
 73
4
 74
0
 40
0
 40
0
 40
0
 40
0
 40
1
 40
1
 40
1
 40
1
 10
-77.532557
 20
-25.808557
 30
0.0
 10
-77.532557
 20
-27.446504
 30
0.0
 10
-78.860060
 20
-28.774007
 30
0.0
 10
-80.498007
 20
-28.774007
 30
0.0
  0
LWPOLYLINE
  5
275
100
AcDbEntity
  8
Layer_1
 62
1
100
AcDbPolyline
 90
2
 70
0
 10
-77.532557
 20
-19.748187
 30
0.0
 10
-77.532557
 20
-25.808557
 30
0.0
  0
SPLINE
  5
276
100
AcDbEntity
  8
Layer_1
 62
1
100
AcDbSpline
 70
8
 71
3
 72
8
 73
4
 74
0
 40
0
 40
0
 40
0
 40
0
 40
1
 40
1
 40
1
 40
1
 10
-86.336479
 20
-28.774007
 30
0.0
 10
-87.974074
 20
-28.774007
 30
0.0
 10
-89.301929
 20
-28.152060
 30
0.0
 10
-89.301929
 20
-26.514112
 30
0.0
  0
LWPOLYLINE
  5
277
100
AcDbEntity
  8
Layer_1
 62
1
100
AcDbPolyline
 90
4
 70
0
 10
-80.498007
 20
-28.774007
 30
0.0
 10
-80.627477
 20
-28.774007
 30
0.0
 10
-80.498007
 20
-28.774007
 30
0.0
 10
-86.336479
 20
-28.774007
 30
0.0
  0
SPLINE
  5
278
100
AcDbEntity
  8
Layer_1
 62
1
100
AcDbSpline
 70
8
 71
3
 72
8
 73
4
 74
0
 40
0
 40
0
 40
0
 40
0
 40
1
 40
1
 40
1
 40
1
 10
-74.567037
 20
-29.470143
 30
0.0
 10
-76.204631
 20
-29.470143
 30
0.0
 10
-77.532487
 20
-27.789510
 30
0.0
 10
-77.532487
 20
-26.151915
 30
0.0
  0
SPLINE
  5
279
100
AcDbEntity
  8
Layer_1
 62
1
100
AcDbSpline
 70
8
 71
3
 72
8
 73
4
 74
0
 40
0
 40
0
 40
0
 40
0
 40
1
 40
1
 40
1
 40
1
 10
487.252023
 20
-14.126744
 30
0.0
 10
487.252023
 20
-15.064428
 30
0.0
 10
486.491787
 20
-15.824664
 30
0.0
 10
485.554104
 20
-15.824664
 30
0.0
  0
LWPOLYLINE
  5
27a
100
AcDbEntity
  8
Layer_1
 62
1
100
AcDbPolyline
 90
2
 70
0
 10
-74.605842
 20
-29.470143
 30
0.0
 10
-74.567037
 20
-29.470143
 30
0.0
  0
SPLINE
  5
27b
100
AcDbEntity
  8
Layer_1
 62
1
100
AcDbSpline
 70
8
 71
3
 72
8
 73
4
 74
0
 40
0
 40
0
 40
0
 40
0
 40
1
 40
1
 40
1
 40
1
 10
484.071379
 20
-15.824664
 30
0.0
 10
482.433432
 20
-15.824664
 30
0.0
 10
481.105929
 20
-14.496808
 30
0.0
 10
481.105929
 20
-12.859214
 30
0.0
  0
LWPOLYLINE
  5
27c
100
AcDbEntity
  8
Layer_1
 62
1
100
AcDbPolyline
 90
2
 70
0
 10
485.554104
 20
-15.824664
 30
0.0
 10
484.071379
 20
-15.824664
 30
0.0
  0
SPLINE
  5
27d
100
AcDbEntity
  8
Layer_1
 62
1
100
AcDbSpline
 70
8
 71
3
 72
8
 73
4
 74
0
 40
0
 40
0
 40
0
 40
0
 40
1
 40
1
 40
1
 40
1
 10
481.105929
 20
-6.798844
 30
0.0
 10
481.105929
 20
-5.160897
 30
0.0
 10
482.433432
 20
-3.833042
 30
0.0
 10
484.071379
 20
-3.833042
 30
0.0
  0
LWPOLYLINE
  5
27e
100
AcDbEntity
  8
Layer_1
 62
1
100
AcDbPolyline
 90
2
 70
0
 10
481.105929
 20
-12.859214
 30
0.0
 10
481.105929
 20
-6.798844
 30
0.0
  0
SPLINE
  5
27f
100
AcDbEntity
  8
Layer_1
 62
1
100
AcDbSpline
 70
8
 71
3
 72
8
 73
4
 74
0
 40
0
 40
0
 40
0
 40
0
 40
1
 40
1
 40
1
 40
1
 10
489.909851
 20
-3.833042
 30
0.0
 10
491.547445
 20
-3.833042
 30
0.0
 10
492.875301
 20
-5.160897
 30
0.0
 10
492.875301
 20
-6.798844
 30
0.0
  0
SPLINE
  5
280
100
AcDbEntity
  8
Layer_1
 62
1
100
AcDbSpline
 70
8
 71
3
 72
8
 73
4
 74
0
 40
0
 40
0
 40
0
 40
0
 40
1
 40
1
 40
1
 40
1
 10
475.482545
 20
-14.126744
 30
0.0
 10
475.482545
 20
-15.064428
 30
0.0
 10
474.722309
 20
-15.824664
 30
0.0
 10
473.784626
 20
-15.824664
 30
0.0
  0
LWPOLYLINE
  5
281
100
AcDbEntity
  8
Layer_1
 62
1
100
AcDbPolyline
 90
4
 70
0
 10
484.071379
 20
-3.833042
 30
0.0
 10
484.200848
 20
-3.833042
 30
0.0
 10
484.071379
 20
-3.833042
 30
0.0
 10
489.909851
 20
-3.833042
 30
0.0
  0
SPLINE
  5
282
100
AcDbEntity
  8
Layer_1
 62
1
100
AcDbSpline
 70
8
 71
3
 72
8
 73
4
 74
0
 40
0
 40
0
 40
0
 40
0
 40
1
 40
1
 40
1
 40
1
 10
472.301901
 20
-15.824664
 30
0.0
 10
470.663954
 20
-15.824664
 30
0.0
 10
469.336451
 20
-14.496808
 30
0.0
 10
469.336451
 20
-12.859214
 30
0.0
  0
LWPOLYLINE
  5
283
100
AcDbEntity
  8
Layer_1
 62
1
100
AcDbPolyline
 90
2
 70
0
 10
473.784626
 20
-15.824664
 30
0.0
 10
472.301901
 20
-15.824664
 30
0.0
  0
SPLINE
  5
284
100
AcDbEntity
  8
Layer_1
 62
1
100
AcDbSpline
 70
8
 71
3
 72
8
 73
4
 74
0
 40
0
 40
0
 40
0
 40
0
 40
1
 40
1
 40
1
 40
1
 10
469.336451
 20
-6.798844
 30
0.0
 10
469.336451
 20
-5.160897
 30
0.0
 10
470.663954
 20
-3.833042
 30
0.0
 10
472.301901
 20
-3.833042
 30
0.0
  0
LWPOLYLINE
  5
285
100
AcDbEntity
  8
Layer_1
 62
1
100
AcDbPolyline
 90
2
 70
0
 10
469.336451
 20
-12.859214
 30
0.0
 10
469.336451
 20
-6.798844
 30
0.0
  0
SPLINE
  5
286
100
AcDbEntity
  8
Layer_1
 62
1
100
AcDbSpline
 70
8
 71
3
 72
8
 73
4
 74
0
 40
0
 40
0
 40
0
 40
0
 40
1
 40
1
 40
1
 40
1
 10
478.140373
 20
-3.833042
 30
0.0
 10
479.777967
 20
-3.833042
 30
0.0
 10
481.105823
 20
-5.160897
 30
0.0
 10
481.105823
 20
-6.798844
 30
0.0
  0
SPLINE
  5
287
100
AcDbEntity
  8
Layer_1
 62
1
100
AcDbSpline
 70
8
 71
3
 72
8
 73
4
 74
0
 40
0
 40
0
 40
0
 40
0
 40
1
 40
1
 40
1
 40
1
 10
463.713067
 20
-14.126744
 30
0.0
 10
463.713067
 20
-15.064428
 30
0.0
 10
462.952831
 20
-15.824664
 30
0.0
 10
462.015148
 20
-15.824664
 30
0.0
  0
LWPOLYLINE
  5
288
100
AcDbEntity
  8
Layer_1
 62
1
100
AcDbPolyline
 90
4
 70
0
 10
472.301901
 20
-3.833042
 30
0.0
 10
472.431370
 20
-3.833042
 30
0.0
 10
472.301901
 20
-3.833042
 30
0.0
 10
478.140373
 20
-3.833042
 30
0.0
  0
SPLINE
  5
289
100
AcDbEntity
  8
Layer_1
 62
1
100
AcDbSpline
 70
8
 71
3
 72
8
 73
4
 74
0
 40
0
 40
0
 40
0
 40
0
 40
1
 40
1
 40
1
 40
1
 10
460.532423
 20
-15.824664
 30
0.0
 10
458.894476
 20
-15.824664
 30
0.0
 10
457.566973
 20
-14.496808
 30
0.0
 10
457.566973
 20
-12.859214
 30
0.0
  0
LWPOLYLINE
  5
28a
100
AcDbEntity
  8
Layer_1
 62
1
100
AcDbPolyline
 90
2
 70
0
 10
462.015148
 20
-15.824664
 30
0.0
 10
460.532423
 20
-15.824664
 30
0.0
  0
SPLINE
  5
28b
100
AcDbEntity
  8
Layer_1
 62
1
100
AcDbSpline
 70
8
 71
3
 72
8
 73
4
 74
0
 40
0
 40
0
 40
0
 40
0
 40
1
 40
1
 40
1
 40
1
 10
457.566973
 20
-6.798844
 30
0.0
 10
457.566973
 20
-5.160897
 30
0.0
 10
458.894476
 20
-3.833042
 30
0.0
 10
460.532423
 20
-3.833042
 30
0.0
  0
LWPOLYLINE
  5
28c
100
AcDbEntity
  8
Layer_1
 62
1
100
AcDbPolyline
 90
2
 70
0
 10
457.566973
 20
-12.859214
 30
0.0
 10
457.566973
 20
-6.798844
 30
0.0
  0
SPLINE
  5
28d
100
AcDbEntity
  8
Layer_1
 62
1
100
AcDbSpline
 70
8
 71
3
 72
8
 73
4
 74
0
 40
0
 40
0
 40
0
 40
0
 40
1
 40
1
 40
1
 40
1
 10
466.370895
 20
-3.833042
 30
0.0
 10
468.008490
 20
-3.833042
 30
0.0
 10
469.336345
 20
-5.160897
 30
0.0
 10
469.336345
 20
-6.798844
 30
0.0
  0
SPLINE
  5
28e
100
AcDbEntity
  8
Layer_1
 62
1
100
AcDbSpline
 70
8
 71
3
 72
8
 73
4
 74
0
 40
0
 40
0
 40
0
 40
0
 40
1
 40
1
 40
1
 40
1
 10
451.943766
 20
-14.126744
 30
0.0
 10
451.943766
 20
-15.064428
 30
0.0
 10
451.183530
 20
-15.824664
 30
0.0
 10
450.245847
 20
-15.824664
 30
0.0
  0
LWPOLYLINE
  5
28f
100
AcDbEntity
  8
Layer_1
 62
1
100
AcDbPolyline
 90
4
 70
0
 10
460.532423
 20
-3.833042
 30
0.0
 10
460.661893
 20
-3.833042
 30
0.0
 10
460.532423
 20
-3.833042
 30
0.0
 10
466.370895
 20
-3.833042
 30
0.0
  0
SPLINE
  5
290
100
AcDbEntity
  8
Layer_1
 62
1
100
AcDbSpline
 70
8
 71
3
 72
8
 73
4
 74
0
 40
0
 40
0
 40
0
 40
0
 40
1
 40
1
 40
1
 40
1
 10
448.762769
 20
-15.824664
 30
0.0
 10
447.125175
 20
-15.824664
 30
0.0
 10
445.797319
 20
-14.496808
 30
0.0
 10
445.797319
 20
-12.859214
 30
0.0
  0
LWPOLYLINE
  5
291
100
AcDbEntity
  8
Layer_1
 62
1
100
AcDbPolyline
 90
2
 70
0
 10
450.245847
 20
-15.824664
 30
0.0
 10
448.762769
 20
-15.824664
 30
0.0
  0
SPLINE
  5
292
100
AcDbEntity
  8
Layer_1
 62
1
100
AcDbSpline
 70
8
 71
3
 72
8
 73
4
 74
0
 40
0
 40
0
 40
0
 40
0
 40
1
 40
1
 40
1
 40
1
 10
445.797319
 20
-6.798844
 30
0.0
 10
445.797319
 20
-5.160897
 30
0.0
 10
447.125175
 20
-3.833042
 30
0.0
 10
448.762769
 20
-3.833042
 30
0.0
  0
LWPOLYLINE
  5
293
100
AcDbEntity
  8
Layer_1
 62
1
100
AcDbPolyline
 90
2
 70
0
 10
445.797319
 20
-12.859214
 30
0.0
 10
445.797319
 20
-6.798844
 30
0.0
  0
SPLINE
  5
294
100
AcDbEntity
  8
Layer_1
 62
1
100
AcDbSpline
 70
8
 71
3
 72
8
 73
4
 74
0
 40
0
 40
0
 40
0
 40
0
 40
1
 40
1
 40
1
 40
1
 10
454.601241
 20
-3.833042
 30
0.0
 10
456.239188
 20
-3.833042
 30
0.0
 10
457.566691
 20
-5.160897
 30
0.0
 10
457.566691
 20
-6.798844
 30
0.0
  0
SPLINE
  5
295
100
AcDbEntity
  8
Layer_1
 62
1
100
AcDbSpline
 70
8
 71
3
 72
8
 73
4
 74
0
 40
0
 40
0
 40
0
 40
0
 40
1
 40
1
 40
1
 40
1
 10
440.174288
 20
-14.126744
 30
0.0
 10
440.174288
 20
-15.064428
 30
0.0
 10
439.414052
 20
-15.824664
 30
0.0
 10
438.476369
 20
-15.824664
 30
0.0
  0
LWPOLYLINE
  5
296
100
AcDbEntity
  8
Layer_1
 62
1
100
AcDbPolyline
 90
4
 70
0
 10
448.762769
 20
-3.833042
 30
0.0
 10
448.892238
 20
-3.833042
 30
0.0
 10
448.762769
 20
-3.833042
 30
0.0
 10
454.601241
 20
-3.833042
 30
0.0
  0
SPLINE
  5
297
100
AcDbEntity
  8
Layer_1
 62
1
100
AcDbSpline
 70
8
 71
3
 72
8
 73
4
 74
0
 40
0
 40
0
 40
0
 40
0
 40
1
 40
1
 40
1
 40
1
 10
436.993291
 20
-15.824664
 30
0.0
 10
435.355697
 20
-15.824664
 30
0.0
 10
434.027841
 20
-14.496808
 30
0.0
 10
434.027841
 20
-12.859214
 30
0.0
  0
LWPOLYLINE
  5
298
100
AcDbEntity
  8
Layer_1
 62
1
100
AcDbPolyline
 90
2
 70
0
 10
438.476369
 20
-15.824664
 30
0.0
 10
436.993291
 20
-15.824664
 30
0.0
  0
SPLINE
  5
299
100
AcDbEntity
  8
Layer_1
 62
1
100
AcDbSpline
 70
8
 71
3
 72
8
 73
4
 74
0
 40
0
 40
0
 40
0
 40
0
 40
1
 40
1
 40
1
 40
1
 10
434.027841
 20
-6.798844
 30
0.0
 10
434.027841
 20
-5.160897
 30
0.0
 10
435.355697
 20
-3.833042
 30
0.0
 10
436.993291
 20
-3.833042
 30
0.0
  0
LWPOLYLINE
  5
29a
100
AcDbEntity
  8
Layer_1
 62
1
100
AcDbPolyline
 90
2
 70
0
 10
434.027841
 20
-12.859214
 30
0.0
 10
434.027841
 20
-6.798844
 30
0.0
  0
SPLINE
  5
29b
100
AcDbEntity
  8
Layer_1
 62
1
100
AcDbSpline
 70
8
 71
3
 72
8
 73
4
 74
0
 40
0
 40
0
 40
0
 40
0
 40
1
 40
1
 40
1
 40
1
 10
442.831763
 20
-3.833042
 30
0.0
 10
444.469710
 20
-3.833042
 30
0.0
 10
445.797213
 20
-5.160897
 30
0.0
 10
445.797213
 20
-6.798844
 30
0.0
  0
SPLINE
  5
29c
100
AcDbEntity
  8
Layer_1
 62
1
100
AcDbSpline
 70
8
 71
3
 72
8
 73
4
 74
0
 40
0
 40
0
 40
0
 40
0
 40
1
 40
1
 40
1
 40
1
 10
428.404810
 20
-14.126744
 30
0.0
 10
428.404810
 20
-15.064428
 30
0.0
 10
427.644574
 20
-15.824664
 30
0.0
 10
426.706891
 20
-15.824664
 30
0.0
  0
LWPOLYLINE
  5
29d
100
AcDbEntity
  8
Layer_1
 62
1
100
AcDbPolyline
 90
4
 70
0
 10
436.993291
 20
-3.833042
 30
0.0
 10
437.123113
 20
-3.833042
 30
0.0
 10
436.993291
 20
-3.833042
 30
0.0
 10
442.831763
 20
-3.833042
 30
0.0
  0
SPLINE
  5
29e
100
AcDbEntity
  8
Layer_1
 62
1
100
AcDbSpline
 70
8
 71
3
 72
8
 73
4
 74
0
 40
0
 40
0
 40
0
 40
0
 40
1
 40
1
 40
1
 40
1
 10
425.224166
 20
-15.824664
 30
0.0
 10
423.586219
 20
-15.824664
 30
0.0
 10
422.258716
 20
-14.496808
 30
0.0
 10
422.258716
 20
-12.859214
 30
0.0
  0
LWPOLYLINE
  5
29f
100
AcDbEntity
  8
Layer_1
 62
1
100
AcDbPolyline
 90
2
 70
0
 10
426.706891
 20
-15.824664
 30
0.0
 10
425.224166
 20
-15.824664
 30
0.0
  0
SPLINE
  5
2a0
100
AcDbEntity
  8
Layer_1
 62
1
100
AcDbSpline
 70
8
 71
3
 72
8
 73
4
 74
0
 40
0
 40
0
 40
0
 40
0
 40
1
 40
1
 40
1
 40
1
 10
422.258716
 20
-6.798844
 30
0.0
 10
422.258716
 20
-5.160897
 30
0.0
 10
423.586219
 20
-3.833042
 30
0.0
 10
425.224166
 20
-3.833042
 30
0.0
  0
LWPOLYLINE
  5
2a1
100
AcDbEntity
  8
Layer_1
 62
1
100
AcDbPolyline
 90
2
 70
0
 10
422.258716
 20
-12.859214
 30
0.0
 10
422.258716
 20
-6.798844
 30
0.0
  0
SPLINE
  5
2a2
100
AcDbEntity
  8
Layer_1
 62
1
100
AcDbSpline
 70
8
 71
3
 72
8
 73
4
 74
0
 40
0
 40
0
 40
0
 40
0
 40
1
 40
1
 40
1
 40
1
 10
431.062285
 20
-3.833042
 30
0.0
 10
432.700233
 20
-3.833042
 30
0.0
 10
434.027735
 20
-5.160897
 30
0.0
 10
434.027735
 20
-6.798844
 30
0.0
  0
SPLINE
  5
2a3
100
AcDbEntity
  8
Layer_1
 62
1
100
AcDbSpline
 70
8
 71
3
 72
8
 73
4
 74
0
 40
0
 40
0
 40
0
 40
0
 40
1
 40
1
 40
1
 40
1
 10
416.635333
 20
-14.126744
 30
0.0
 10
416.635333
 20
-15.064428
 30
0.0
 10
415.875097
 20
-15.824664
 30
0.0
 10
414.937413
 20
-15.824664
 30
0.0
  0
LWPOLYLINE
  5
2a4
100
AcDbEntity
  8
Layer_1
 62
1
100
AcDbPolyline
 90
4
 70
0
 10
425.224166
 20
-3.833042
 30
0.0
 10
425.353636
 20
-3.833042
 30
0.0
 10
425.224166
 20
-3.833042
 30
0.0
 10
431.062285
 20
-3.833042
 30
0.0
  0
SPLINE
  5
2a5
100
AcDbEntity
  8
Layer_1
 62
1
100
AcDbSpline
 70
8
 71
3
 72
8
 73
4
 74
0
 40
0
 40
0
 40
0
 40
0
 40
1
 40
1
 40
1
 40
1
 10
413.454688
 20
-15.824664
 30
0.0
 10
411.816741
 20
-15.824664
 30
0.0
 10
410.489238
 20
-14.496808
 30
0.0
 10
410.489238
 20
-12.859214
 30
0.0
  0
LWPOLYLINE
  5
2a6
100
AcDbEntity
  8
Layer_1
 62
1
100
AcDbPolyline
 90
2
 70
0
 10
414.937413
 20
-15.824664
 30
0.0
 10
413.454688
 20
-15.824664
 30
0.0
  0
SPLINE
  5
2a7
100
AcDbEntity
  8
Layer_1
 62
1
100
AcDbSpline
 70
8
 71
3
 72
8
 73
4
 74
0
 40
0
 40
0
 40
0
 40
0
 40
1
 40
1
 40
1
 40
1
 10
410.489238
 20
-6.798844
 30
0.0
 10
410.489238
 20
-5.160897
 30
0.0
 10
411.816741
 20
-3.833042
 30
0.0
 10
413.454688
 20
-3.833042
 30
0.0
  0
LWPOLYLINE
  5
2a8
100
AcDbEntity
  8
Layer_1
 62
1
100
AcDbPolyline
 90
2
 70
0
 10
410.489238
 20
-12.859214
 30
0.0
 10
410.489238
 20
-6.798844
 30
0.0
  0
SPLINE
  5
2a9
100
AcDbEntity
  8
Layer_1
 62
1
100
AcDbSpline
 70
8
 71
3
 72
8
 73
4
 74
0
 40
0
 40
0
 40
0
 40
0
 40
1
 40
1
 40
1
 40
1
 10
419.293160
 20
-3.833042
 30
0.0
 10
420.930755
 20
-3.833042
 30
0.0
 10
422.258610
 20
-5.160897
 30
0.0
 10
422.258610
 20
-6.798844
 30
0.0
  0
SPLINE
  5
2aa
100
AcDbEntity
  8
Layer_1
 62
1
100
AcDbSpline
 70
8
 71
3
 72
8
 73
4
 74
0
 40
0
 40
0
 40
0
 40
0
 40
1
 40
1
 40
1
 40
1
 10
404.865855
 20
-14.126744
 30
0.0
 10
404.865855
 20
-15.064428
 30
0.0
 10
404.105619
 20
-15.824664
 30
0.0
 10
403.167935
 20
-15.824664
 30
0.0
  0
LWPOLYLINE
  5
2ab
100
AcDbEntity
  8
Layer_1
 62
1
100
AcDbPolyline
 90
4
 70
0
 10
413.454688
 20
-3.833042
 30
0.0
 10
413.584158
 20
-3.833042
 30
0.0
 10
413.454688
 20
-3.833042
 30
0.0
 10
419.293160
 20
-3.833042
 30
0.0
  0
SPLINE
  5
2ac
100
AcDbEntity
  8
Layer_1
 62
1
100
AcDbSpline
 70
8
 71
3
 72
8
 73
4
 74
0
 40
0
 40
0
 40
0
 40
0
 40
1
 40
1
 40
1
 40
1
 10
401.685211
 20
-15.824664
 30
0.0
 10
400.047263
 20
-15.824664
 30
0.0
 10
398.719761
 20
-14.496808
 30
0.0
 10
398.719761
 20
-12.859214
 30
0.0
  0
LWPOLYLINE
  5
2ad
100
AcDbEntity
  8
Layer_1
 62
1
100
AcDbPolyline
 90
2
 70
0
 10
403.167935
 20
-15.824664
 30
0.0
 10
401.685211
 20
-15.824664
 30
0.0
  0
SPLINE
  5
2ae
100
AcDbEntity
  8
Layer_1
 62
1
100
AcDbSpline
 70
8
 71
3
 72
8
 73
4
 74
0
 40
0
 40
0
 40
0
 40
0
 40
1
 40
1
 40
1
 40
1
 10
398.719761
 20
-6.798844
 30
0.0
 10
398.719761
 20
-5.160897
 30
0.0
 10
400.047263
 20
-3.833042
 30
0.0
 10
401.685211
 20
-3.833042
 30
0.0
  0
LWPOLYLINE
  5
2af
100
AcDbEntity
  8
Layer_1
 62
1
100
AcDbPolyline
 90
2
 70
0
 10
398.719761
 20
-12.859214
 30
0.0
 10
398.719761
 20
-6.798844
 30
0.0
  0
SPLINE
  5
2b0
100
AcDbEntity
  8
Layer_1
 62
1
100
AcDbSpline
 70
8
 71
3
 72
8
 73
4
 74
0
 40
0
 40
0
 40
0
 40
0
 40
1
 40
1
 40
1
 40
1
 10
407.523683
 20
-3.833042
 30
0.0
 10
409.161277
 20
-3.833042
 30
0.0
 10
410.489133
 20
-5.160897
 30
0.0
 10
410.489133
 20
-6.798844
 30
0.0
  0
SPLINE
  5
2b1
100
AcDbEntity
  8
Layer_1
 62
1
100
AcDbSpline
 70
8
 71
3
 72
8
 73
4
 74
0
 40
0
 40
0
 40
0
 40
0
 40
1
 40
1
 40
1
 40
1
 10
398.719619
 20
-6.455380
 30
0.0
 10
398.719619
 20
-4.817433
 30
0.0
 10
397.391764
 20
-3.137152
 30
0.0
 10
395.754170
 20
-3.137152
 30
0.0
  0
LWPOLYLINE
  5
2b2
100
AcDbEntity
  8
Layer_1
 62
1
100
AcDbPolyline
 90
4
 70
0
 10
401.685211
 20
-3.833042
 30
0.0
 10
401.814680
 20
-3.833042
 30
0.0
 10
401.685211
 20
-3.833042
 30
0.0
 10
407.523683
 20
-3.833042
 30
0.0
  0
SPLINE
  5
2b3
100
AcDbEntity
  8
Layer_1
 62
1
100
AcDbSpline
 70
8
 71
3
 72
8
 73
4
 74
0
 40
0
 40
0
 40
0
 40
0
 40
1
 40
1
 40
1
 40
1
 10
-180.491737
 20
-3.131508
 30
0.0
 10
-181.931423
 20
-3.131508
 30
0.0
 10
-183.251518
 20
-3.677608
 30
0.0
 10
-184.280218
 20
-4.586363
 30
0.0
  0
SPLINE
  5
2b4
100
AcDbEntity
  8
Layer_1
 62
1
100
AcDbSpline
 70
8
 71
3
 72
8
 73
4
 74
0
 40
0
 40
0
 40
0
 40
0
 40
1
 40
1
 40
1
 40
1
 10
-177.834333
 20
-18.480657
 30
0.0
 10
-177.834333
 20
-17.542974
 30
0.0
 10
-177.074097
 20
-16.782738
 30
0.0
 10
-176.136413
 20
-16.782738
 30
0.0
  0
LWPOLYLINE
  5
2b5
100
AcDbEntity
  8
Layer_1
 62
1
100
AcDbPolyline
 90
2
 70
0
 10
395.754170
 20
-3.137152
 30
0.0
 10
-180.491737
 20
-3.131508
 30
0.0
  0
SPLINE
  5
2b6
100
AcDbEntity
  8
Layer_1
 62
1
100
AcDbSpline
 70
8
 71
3
 72
8
 73
4
 74
0
 40
0
 40
0
 40
0
 40
0
 40
1
 40
1
 40
1
 40
1
 10
-174.653688
 20
-16.782738
 30
0.0
 10
-173.015741
 20
-16.782738
 30
0.0
 10
-171.688239
 20
-18.110240
 30
0.0
 10
-171.688239
 20
-19.748187
 30
0.0
  0
LWPOLYLINE
  5
2b7
100
AcDbEntity
  8
Layer_1
 62
1
100
AcDbPolyline
 90
2
 70
0
 10
-176.136413
 20
-16.782738
 30
0.0
 10
-174.653688
 20
-16.782738
 30
0.0
  0
SPLINE
  5
2b8
100
AcDbEntity
  8
Layer_1
 62
1
100
AcDbSpline
 70
8
 71
3
 72
8
 73
4
 74
0
 40
0
 40
0
 40
0
 40
0
 40
1
 40
1
 40
1
 40
1
 10
-171.688239
 20
-26.514112
 30
0.0
 10
-171.688239
 20
-28.152060
 30
0.0
 10
-173.015741
 20
-28.774007
 30
0.0
 10
-174.653688
 20
-28.774007
 30
0.0
  0
LWPOLYLINE
  5
2b9
100
AcDbEntity
  8
Layer_1
 62
1
100
AcDbPolyline
 90
2
 70
0
 10
-171.688239
 20
-19.748187
 30
0.0
 10
-171.688239
 20
-26.514112
 30
0.0
  0
SPLINE
  5
2ba
100
AcDbEntity
  8
Layer_1
 62
1
100
AcDbSpline
 70
8
 71
3
 72
8
 73
4
 74
0
 40
0
 40
0
 40
0
 40
0
 40
1
 40
1
 40
1
 40
1
 10
-180.491808
 20
-28.765893
 30
0.0
 10
-183.777227
 20
-28.765893
 30
0.0
 10
-186.440347
 20
-25.923210
 30
0.0
 10
-186.440347
 20
-22.415893
 30
0.0
  0
LWPOLYLINE
  5
2bb
100
AcDbEntity
  8
Layer_1
 62
1
100
AcDbPolyline
 90
5
 70
0
 10
-174.653688
 20
-28.774007
 30
0.0
 10
-174.783158
 20
-28.774007
 30
0.0
 10
-180.491808
 20
-28.774007
 30
0.0
 10
-180.530966
 20
-28.765893
 30
0.0
 10
-180.491808
 20
-28.765893
 30
0.0
  0
SPLINE
  5
2bc
100
AcDbEntity
  8
Layer_1
 62
1
100
AcDbSpline
 70
8
 71
3
 72
8
 73
4
 74
0
 40
0
 40
0
 40
0
 40
0
 40
1
 40
1
 40
1
 40
1
 10
-186.440347
 20
-9.481649
 30
0.0
 10
-186.440347
 20
-7.660257
 30
0.0
 10
-185.718210
 20
-6.022663
 30
0.0
 10
-184.567449
 20
-4.864846
 30
0.0
  0
SPLINE
  5
2bd
100
AcDbEntity
  8
Layer_1
 62
1
100
AcDbSpline
 70
8
 71
3
 72
8
 73
4
 74
0
 40
0
 40
0
 40
0
 40
0
 40
1
 40
1
 40
1
 40
1
 10
505.467633
 20
-28.020967
 30
0.0
 10
504.438580
 20
-28.929370
 30
0.0
 10
503.118838
 20
-29.475823
 30
0.0
 10
501.679152
 20
-29.475823
 30
0.0
  0
LWPOLYLINE
  5
2be
100
AcDbEntity
  8
Layer_1
 62
1
100
AcDbPolyline
 90
2
 70
0
 10
-186.440347
 20
-22.415893
 30
0.0
 10
-186.440347
 20
-9.481649
 30
0.0
  0
SPLINE
  5
2bf
100
AcDbEntity
  8
Layer_1
 62
1
100
AcDbSpline
 70
8
 71
3
 72
8
 73
4
 74
0
 40
0
 40
0
 40
0
 40
0
 40
1
 40
1
 40
1
 40
1
 10
499.021501
 20
-14.126744
 30
0.0
 10
499.021501
 20
-15.064428
 30
0.0
 10
498.261265
 20
-15.824664
 30
0.0
 10
497.323581
 20
-15.824664
 30
0.0
  0
LWPOLYLINE
  5
2c0
100
AcDbEntity
  8
Layer_1
 62
1
100
AcDbPolyline
 90
2
 70
0
 10
501.679152
 20
-29.475823
 30
0.0
 10
395.754099
 20
-29.471589
 30
0.0
  0
SPLINE
  5
2c1
100
AcDbEntity
  8
Layer_1
 62
1
100
AcDbSpline
 70
8
 71
3
 72
8
 73
4
 74
0
 40
0
 40
0
 40
0
 40
0
 40
1
 40
1
 40
1
 40
1
 10
495.840857
 20
-15.824664
 30
0.0
 10
494.202909
 20
-15.824664
 30
0.0
 10
492.875407
 20
-14.496808
 30
0.0
 10
492.875407
 20
-12.859214
 30
0.0
  0
LWPOLYLINE
  5
2c2
100
AcDbEntity
  8
Layer_1
 62
1
100
AcDbPolyline
 90
2
 70
0
 10
497.323581
 20
-15.824664
 30
0.0
 10
495.840857
 20
-15.824664
 30
0.0
  0
SPLINE
  5
2c3
100
AcDbEntity
  8
Layer_1
 62
1
100
AcDbSpline
 70
8
 71
3
 72
8
 73
4
 74
0
 40
0
 40
0
 40
0
 40
0
 40
1
 40
1
 40
1
 40
1
 10
492.875407
 20
-6.798844
 30
0.0
 10
492.875407
 20
-5.160897
 30
0.0
 10
494.202909
 20
-3.833042
 30
0.0
 10
495.840857
 20
-3.833042
 30
0.0
  0
LWPOLYLINE
  5
2c4
100
AcDbEntity
  8
Layer_1
 62
1
100
AcDbPolyline
 90
2
 70
0
 10
492.875407
 20
-12.859214
 30
0.0
 10
492.875407
 20
-6.798844
 30
0.0
  0
SPLINE
  5
2c5
100
AcDbEntity
  8
Layer_1
 62
1
100
AcDbSpline
 70
8
 71
3
 72
8
 73
4
 74
0
 40
0
 40
0
 40
0
 40
0
 40
1
 40
1
 40
1
 40
1
 10
501.679329
 20
-3.841156
 30
0.0
 10
504.964395
 20
-3.841156
 30
0.0
 10
507.627515
 20
-6.684192
 30
0.0
 10
507.627515
 20
-10.191155
 30
0.0
  0
LWPOLYLINE
  5
2c6
100
AcDbEntity
  8
Layer_1
 62
1
100
AcDbPolyline
 90
6
 70
0
 10
495.840857
 20
-3.833042
 30
0.0
 10
495.970326
 20
-3.833042
 30
0.0
 10
495.840857
 20
-3.833042
 30
0.0
 10
501.679329
 20
-3.833042
 30
0.0
 10
501.718134
 20
-3.841156
 30
0.0
 10
501.679329
 20
-3.841156
 30
0.0
  0
SPLINE
  5
2c7
100
AcDbEntity
  8
Layer_1
 62
1
100
AcDbSpline
 70
8
 71
3
 72
8
 73
4
 74
0
 40
0
 40
0
 40
0
 40
0
 40
1
 40
1
 40
1
 40
1
 10
507.627515
 20
-23.125752
 30
0.0
 10
507.627515
 20
-24.946791
 30
0.0
 10
506.905378
 20
-26.584386
 30
0.0
 10
505.754617
 20
-27.742555
 30
0.0
  0
SPLINE
  5
2c8
100
AcDbEntity
  8
Layer_1
 62
1
100
AcDbSpline
 70
8
 71
3
 72
8
 73
4
 74
0
 40
0
 40
0
 40
0
 40
0
 40
1
 40
1
 40
1
 40
1
 10
505.467633
 20
-54.368881
 30
0.0
 10
504.438580
 20
-55.277283
 30
0.0
 10
503.118838
 20
-55.823736
 30
0.0
 10
501.679152
 20
-55.823736
 30
0.0
  0
LWPOLYLINE
  5
2c9
100
AcDbEntity
  8
Layer_1
 62
1
100
AcDbPolyline
 90
3
 70
0
 10
507.627515
 20
-10.191155
 30
0.0
 10
507.627515
 20
-10.181630
 30
0.0
 10
507.627515
 20
-23.125752
 30
0.0
  0
SPLINE
  5
2ca
100
AcDbEntity
  8
Layer_1
 62
1
100
AcDbSpline
 70
8
 71
3
 72
8
 73
4
 74
0
 40
0
 40
0
 40
0
 40
0
 40
1
 40
1
 40
1
 40
1
 10
499.021501
 20
-40.474658
 30
0.0
 10
499.021501
 20
-41.412341
 30
0.0
 10
498.261265
 20
-42.172577
 30
0.0
 10
497.323581
 20
-42.172577
 30
0.0
  0
LWPOLYLINE
  5
2cb
100
AcDbEntity
  8
Layer_1
 62
1
100
AcDbPolyline
 90
2
 70
0
 10
501.679152
 20
-55.823736
 30
0.0
 10
395.754099
 20
-55.819503
 30
0.0
  0
SPLINE
  5
2cc
100
AcDbEntity
  8
Layer_1
 62
1
100
AcDbSpline
 70
8
 71
3
 72
8
 73
4
 74
0
 40
0
 40
0
 40
0
 40
0
 40
1
 40
1
 40
1
 40
1
 10
495.840857
 20
-42.172577
 30
0.0
 10
494.202909
 20
-42.172577
 30
0.0
 10
492.875407
 20
-40.845074
 30
0.0
 10
492.875407
 20
-39.207127
 30
0.0
  0
LWPOLYLINE
  5
2cd
100
AcDbEntity
  8
Layer_1
 62
1
100
AcDbPolyline
 90
2
 70
0
 10
497.323581
 20
-42.172577
 30
0.0
 10
495.840857
 20
-42.172577
 30
0.0
  0
SPLINE
  5
2ce
100
AcDbEntity
  8
Layer_1
 62
1
100
AcDbSpline
 70
8
 71
3
 72
8
 73
4
 74
0
 40
0
 40
0
 40
0
 40
0
 40
1
 40
1
 40
1
 40
1
 10
492.875407
 20
-33.146758
 30
0.0
 10
492.875407
 20
-31.508811
 30
0.0
 10
494.202909
 20
-30.181308
 30
0.0
 10
495.840857
 20
-30.181308
 30
0.0
  0
LWPOLYLINE
  5
2cf
100
AcDbEntity
  8
Layer_1
 62
1
100
AcDbPolyline
 90
2
 70
0
 10
492.875407
 20
-39.207127
 30
0.0
 10
492.875407
 20
-33.146758
 30
0.0
  0
SPLINE
  5
2d0
100
AcDbEntity
  8
Layer_1
 62
1
100
AcDbSpline
 70
8
 71
3
 72
8
 73
4
 74
0
 40
0
 40
0
 40
0
 40
0
 40
1
 40
1
 40
1
 40
1
 10
501.679329
 20
-30.189422
 30
0.0
 10
504.964395
 20
-30.189422
 30
0.0
 10
507.627515
 20
-33.032105
 30
0.0
 10
507.627515
 20
-36.539422
 30
0.0
  0
LWPOLYLINE
  5
2d1
100
AcDbEntity
  8
Layer_1
 62
1
100
AcDbPolyline
 90
6
 70
0
 10
495.840857
 20
-30.181308
 30
0.0
 10
495.970326
 20
-30.181308
 30
0.0
 10
495.840857
 20
-30.181308
 30
0.0
 10
501.679329
 20
-30.181308
 30
0.0
 10
501.718134
 20
-30.189422
 30
0.0
 10
501.679329
 20
-30.189422
 30
0.0
  0
SPLINE
  5
2d2
100
AcDbEntity
  8
Layer_1
 62
1
100
AcDbSpline
 70
8
 71
3
 72
8
 73
4
 74
0
 40
0
 40
0
 40
0
 40
0
 40
1
 40
1
 40
1
 40
1
 10
507.627515
 20
-49.473666
 30
0.0
 10
507.627515
 20
-51.294705
 30
0.0
 10
506.905378
 20
-52.932299
 30
0.0
 10
505.754617
 20
-54.090468
 30
0.0
  0
SPLINE
  5
2d3
100
AcDbEntity
  8
Layer_1
 62
1
100
AcDbSpline
 70
8
 71
3
 72
8
 73
4
 74
0
 40
0
 40
0
 40
0
 40
0
 40
1
 40
1
 40
1
 40
1
 10
505.467633
 20
-80.716970
 30
0.0
 10
504.438580
 20
-81.625373
 30
0.0
 10
503.118838
 20
-82.171826
 30
0.0
 10
501.679152
 20
-82.171826
 30
0.0
  0
LWPOLYLINE
  5
2d4
100
AcDbEntity
  8
Layer_1
 62
1
100
AcDbPolyline
 90
3
 70
0
 10
507.627515
 20
-36.539422
 30
0.0
 10
507.627515
 20
-36.529544
 30
0.0
 10
507.627515
 20
-49.473666
 30
0.0
  0
SPLINE
  5
2d5
100
AcDbEntity
  8
Layer_1
 62
1
100
AcDbSpline
 70
8
 71
3
 72
8
 73
4
 74
0
 40
0
 40
0
 40
0
 40
0
 40
1
 40
1
 40
1
 40
1
 10
505.754759
 20
-80.438452
 30
0.0
 10
506.905520
 20
-79.280636
 30
0.0
 10
507.627656
 20
-77.643041
 30
0.0
 10
507.627303
 20
-75.821650
 30
0.0
  0
LWPOLYLINE
  5
2d6
100
AcDbEntity
  8
Layer_1
 62
1
100
AcDbPolyline
 90
2
 70
0
 10
501.679152
 20
-82.171826
 30
0.0
 10
-74.605913
 20
-82.175706
 30
0.0
  0
SPLINE
  5
2d7
100
AcDbEntity
  8
Layer_1
 62
1
100
AcDbSpline
 70
8
 71
3
 72
8
 73
4
 74
0
 40
0
 40
0
 40
0
 40
0
 40
1
 40
1
 40
1
 40
1
 10
507.627303
 20
-62.887405
 30
0.0
 10
507.627303
 20
-59.380442
 30
0.0
 10
504.964184
 20
-56.537406
 30
0.0
 10
501.679117
 20
-56.537406
 30
0.0
  0
LWPOLYLINE
  5
2d8
100
AcDbEntity
  8
Layer_1
 62
1
100
AcDbPolyline
 90
3
 70
0
 10
507.627303
 20
-75.821650
 30
0.0
 10
507.627303
 20
-62.877880
 30
0.0
 10
507.627303
 20
-62.887405
 30
0.0
  0
SPLINE
  5
2d9
100
AcDbEntity
  8
Layer_1
 62
1
100
AcDbSpline
 70
8
 71
3
 72
8
 73
4
 74
0
 40
0
 40
0
 40
0
 40
0
 40
1
 40
1
 40
1
 40
1
 10
495.840645
 20
-56.529292
 30
0.0
 10
494.203050
 20
-56.529292
 30
0.0
 10
492.875195
 20
-57.856794
 30
0.0
 10
492.875195
 20
-59.494742
 30
0.0
  0
LWPOLYLINE
  5
2da
100
AcDbEntity
  8
Layer_1
 62
1
100
AcDbPolyline
 90
6
 70
0
 10
501.679117
 20
-56.537406
 30
0.0
 10
501.718275
 20
-56.537406
 30
0.0
 10
501.679117
 20
-56.529292
 30
0.0
 10
495.840645
 20
-56.529292
 30
0.0
 10
495.970114
 20
-56.529292
 30
0.0
 10
495.840645
 20
-56.529292
 30
0.0
  0
SPLINE
  5
2db
100
AcDbEntity
  8
Layer_1
 62
1
100
AcDbSpline
 70
8
 71
3
 72
8
 73
4
 74
0
 40
0
 40
0
 40
0
 40
0
 40
1
 40
1
 40
1
 40
1
 10
492.875195
 20
-65.555111
 30
0.0
 10
492.875195
 20
-67.193058
 30
0.0
 10
494.203050
 20
-68.520561
 30
0.0
 10
495.840645
 20
-68.520561
 30
0.0
  0
LWPOLYLINE
  5
2dc
100
AcDbEntity
  8
Layer_1
 62
1
100
AcDbPolyline
 90
2
 70
0
 10
492.875195
 20
-59.494742
 30
0.0
 10
492.875195
 20
-65.555111
 30
0.0
  0
SPLINE
  5
2dd
100
AcDbEntity
  8
Layer_1
 62
1
100
AcDbSpline
 70
8
 71
3
 72
8
 73
4
 74
0
 40
0
 40
0
 40
0
 40
0
 40
1
 40
1
 40
1
 40
1
 10
497.323723
 20
-68.520561
 30
0.0
 10
498.261406
 20
-68.520561
 30
0.0
 10
499.021642
 20
-67.760325
 30
0.0
 10
499.021642
 20
-66.822641
 30
0.0
  0
LWPOLYLINE
  5
2de
100
AcDbEntity
  8
Layer_1
 62
1
100
AcDbPolyline
 90
2
 70
0
 10
495.840645
 20
-68.520561
 30
0.0
 10
497.323723
 20
-68.520561
 30
0.0
  0
ENDSEC
  0
SECTION
  2
OBJECTS
  0
DICTIONARY
  5
C
330
0
100
AcDbDictionary
  3
ACAD_GROUP
350
D
  3
ACAD_MLINESTYLE
350
17
  0
DICTIONARY
  5
D
330
C
100
AcDbDictionary
  0
DICTIONARY
  5
1A
330
C
100
AcDbDictionary
  0
DICTIONARY
  5
17
330
C
100
AcDbDictionary
  3
STANDARD
350
18
  0
DICTIONARY
  5
19
330
C
100
AcDbDictionary
  0
ENDSEC
  0
EOF
