  0
SECTION
  2
HEADER
  9
$ACADVER
  1
AC1014
  9
$HANDSEED
  5
FFFF
  9
$MEASUREMENT
 70
     1
  0
ENDSEC
  0
SECTION
  2
TABLES
  0
TABLE
  2
VPORT
  5
8
330
0
100
AcDbSymbolTable
 70
     4
  0
VPORT
  5
2E
330
8
100
AcDbSymbolTableRecord
100
AcDbViewportTableRecord
  2
*ACTIVE
 70
     0
 10
0.0
 20
0.0
 11
1.0
 21
1.0
 12
210.0
 22
148.5
 13
0.0
 23
0.0
 14
10.0
 24
10.0
 15
10.0
 25
10.0
 16
0.0
 26
0.0
 36
1.0
 17
0.0
 27
0.0
 37
0.0
 40
341.0
 41
1.24
 42
50.0
 43
0.0
 44
0.0
 50
0.0
 51
0.0
 71
     0
 72
   100
 73
     1
 74
     3
 75
     0
 76
     0
 77
     0
 78
     0
  0
ENDTAB
  0
TABLE
  2
LTYPE
  5
5
330
0
100
AcDbSymbolTable
 70
     1
  0
LTYPE
  5
14
330
5
100
AcDbSymbolTableRecord
100
AcDbLinetypeTableRecord
  2
BYBLOCK
 70
     0
  3

 72
    65
 73
     0
 40
0.0
  0
LTYPE
  5
15
330
5
100
AcDbSymbolTableRecord
100
AcDbLinetypeTableRecord
  2
BYLAYER
 70
     0
  3

 72
    65
 73
     0
 40
0.0
  0
LTYPE
  5
16
330
5
100
AcDbSymbolTableRecord
100
AcDbLinetypeTableRecord
  2
CONTINUOUS
 70
     0
  3
Solid line
 72
    65
 73
     0
 40
0.0
  0
ENDTAB
  0
TABLE
  2
LAYER
  5
2
100
AcDbSymbolTable
 70
2
  0
LAYER
  5
50
100
AcDbSymbolTableRecord
100
AcDbLayerTableRecord
  2
0
 70
0
  6
CONTINUOUS
  0
LAYER
  5
51
100
AcDbSymbolTableRecord
100
AcDbLayerTableRecord
  2
Layer_1
 70
0
  6
CONTINUOUS
  0
ENDTAB
  0
TABLE
  2
STYLE
  5
3
330
0
100
AcDbSymbolTable
 70
     1
  0
STYLE
  5
11
330
3
100
AcDbSymbolTableRecord
100
AcDbTextStyleTableRecord
  2
STANDARD
 70
     0
 40
0.0
 41
1.0
 50
0.0
 71
     0
 42
2.5
  3
txt
  4

  0
ENDTAB
  0
TABLE
  2
VIEW
  5
6
330
0
100
AcDbSymbolTable
 70
     0
  0
ENDTAB
  0
TABLE
  2
UCS
  5
7
330
0
100
AcDbSymbolTable
 70
     0
  0
ENDTAB
  0
TABLE
  2
APPID
  5
9
330
0
100
AcDbSymbolTable
 70
     2
  0
APPID
  5
12
330
9
100
AcDbSymbolTableRecord
100
AcDbRegAppTableRecord
  2
ACAD
 70
     0
  0
ENDTAB
  0
TABLE
  2
DIMSTYLE
  5
A
330
0
100
AcDbSymbolTable
 70
     1
  0
DIMSTYLE
105
27
330
A
100
AcDbSymbolTableRecord
100
AcDbDimStyleTableRecord
  2
ISO-25
 70
     0
  3

  4

  5

  6

  7

 40
1.0
 41
2.5
 42
0.625
 43
3.75
 44
1.25
 45
0.0
 46
0.0
 47
0.0
 48
0.0
140
2.5
141
2.5
142
0.0
143
0.03937007874016
144
1.0
145
0.0
146
1.0
147
0.625
 71
     0
 72
     0
 73
     0
 74
     0
 75
     0
 76
     0
 77
     1
 78
     8
170
     0
171
     3
172
     1
173
     0
174
     0
175
     0
176
     0
177
     0
178
     0
270
     2
271
     2
272
     2
273
     2
274
     3
340
11
275
     0
280
     0
281
     0
282
     0
283
     0
284
     8
285
     0
286
     0
287
     3
288
     0
  0
ENDTAB
  0
TABLE
  2
BLOCK_RECORD
  5
1
330
0
100
AcDbSymbolTable
 70
     1
  0
BLOCK_RECORD
  5
1F
330
1
100
AcDbSymbolTableRecord
100
AcDbBlockTableRecord
  2
*MODEL_SPACE
  0
BLOCK_RECORD
  5
1B
330
1
100
AcDbSymbolTableRecord
100
AcDbBlockTableRecord
  2
*PAPER_SPACE
  0
ENDTAB
  0
ENDSEC
  0
SECTION
  2
BLOCKS
  0
BLOCK
  5
20
330
1F
100
AcDbEntity
  8
0
100
AcDbBlockBegin
  2
*MODEL_SPACE
 70
     0
 10
0.0
 20
0.0
 30
0.0
  3
*MODEL_SPACE
  1

  0
ENDBLK
  5
21
330
1F
100
AcDbEntity
  8
0
100
AcDbBlockEnd
  0
BLOCK
  5
1C
330
1B
100
AcDbEntity
 67
     1
  8
0
100
AcDbBlockBegin
  2
*PAPER_SPACE
  1

  0
ENDBLK
  5
1D
330
1B
100
AcDbEntity
 67
     1
  8
0
100
AcDbBlockEnd
  0
ENDSEC
  0
SECTION
  2
ENTITIES
  0
SPLINE
  5
100
100
AcDbEntity
  8
Layer_1
 62
1
100
AcDbSpline
 70
8
 71
3
 72
8
 73
4
 74
0
 40
0
 40
0
 40
0
 40
0
 40
1
 40
1
 40
1
 40
1
 10
513.321646
 20
38.465385
 30
0.0
 10
513.627716
 20
38.085655
 30
0.0
 10
513.794668
 20
37.612646
 30
0.0
 10
513.794986
 20
37.124898
 30
0.0
  0
SPLINE
  5
101
100
AcDbEntity
  8
Layer_1
 62
1
100
AcDbSpline
 70
8
 71
3
 72
8
 73
4
 74
0
 40
0
 40
0
 40
0
 40
0
 40
1
 40
1
 40
1
 40
1
 10
513.794986
 20
37.124898
 30
0.0
 10
513.794801
 20
35.944290
 30
0.0
 10
512.837803
 20
34.987218
 30
0.0
 10
511.657153
 20
34.987043
 30
0.0
  0
SPLINE
  5
102
100
AcDbEntity
  8
Layer_1
 62
1
100
AcDbSpline
 70
8
 71
3
 72
8
 73
4
 74
0
 40
0
 40
0
 40
0
 40
0
 40
1
 40
1
 40
1
 40
1
 10
511.657153
 20
34.987043
 30
0.0
 10
511.169711
 20
34.987043
 30
0.0
 10
510.697112
 20
35.154919
 30
0.0
 10
510.317700
 20
35.460917
 30
0.0
  0
SPLINE
  5
103
100
AcDbEntity
  8
Layer_1
 62
1
100
AcDbSpline
 70
8
 71
3
 72
8
 73
4
 74
0
 40
0
 40
0
 40
0
 40
0
 40
1
 40
1
 40
1
 40
1
 10
510.317700
 20
35.460917
 30
0.0
 10
508.136448
 20
37.624963
 30
0.0
 10
507.159315
 20
48.482487
 30
0.0
 10
506.948892
 20
45.657194
 30
0.0
  0
LWPOLYLINE
  5
104
100
AcDbEntity
  8
Layer_1
 62
1
100
AcDbPolyline
 90
3
 70
0
 10
505.890559
 20
122.555343
 30
0.0
 10
505.890559
 20
48.032758
 30
0.0
 10
513.321646
 20
38.465385
 30
0.0
  0
SPLINE
  5
105
100
AcDbEntity
  8
Layer_1
 62
1
100
AcDbSpline
 70
8
 71
3
 72
8
 73
4
 74
0
 40
0
 40
0
 40
0
 40
0
 40
1
 40
1
 40
1
 40
1
 10
505.890559
 20
31.448230
 30
0.0
 10
505.646534
 20
28.172239
 30
0.0
 10
508.733586
 20
25.500291
 30
0.0
 10
512.240559
 20
25.500291
 30
0.0
  0
LWPOLYLINE
  5
106
100
AcDbEntity
  8
Layer_1
 62
1
100
AcDbPolyline
 90
2
 70
0
 10
506.948892
 20
45.657194
 30
0.0
 10
505.890559
 20
31.448230
 30
0.0
  0
LWPOLYLINE
  5
107
100
AcDbEntity
  8
Layer_1
 62
1
100
AcDbPolyline
 90
2
 70
0
 10
512.240559
 20
25.500291
 30
0.0
 10
515.890486
 20
25.500291
 30
0.0
  0
SPLINE
  5
108
100
AcDbEntity
  8
Layer_1
 62
1
100
AcDbSpline
 70
8
 71
3
 72
8
 73
4
 74
0
 40
0
 40
0
 40
0
 40
0
 40
1
 40
1
 40
1
 40
1
 10
525.889858
 20
25.500291
 30
0.0
 10
529.397174
 20
25.500291
 30
0.0
 10
532.484068
 20
28.172265
 30
0.0
 10
532.239858
 20
31.448230
 30
0.0
  0
LWPOLYLINE
  5
109
100
AcDbEntity
  8
Layer_1
 62
1
100
AcDbPolyline
 90
2
 70
0
 10
522.240486
 20
25.500291
 30
0.0
 10
525.889858
 20
25.500291
 30
0.0
  0
SPLINE
  5
10a
100
AcDbEntity
  8
Layer_1
 62
1
100
AcDbSpline
 70
8
 71
3
 72
8
 73
4
 74
0
 40
0
 40
0
 40
0
 40
0
 40
1
 40
1
 40
1
 40
1
 10
531.181524
 20
45.644791
 30
0.0
 10
530.971657
 20
48.459957
 30
0.0
 10
530.005398
 20
37.629450
 30
0.0
 10
527.829809
 20
35.473837
 30
0.0
  0
SPLINE
  5
10b
100
AcDbEntity
  8
Layer_1
 62
1
100
AcDbSpline
 70
8
 71
3
 72
8
 73
4
 74
0
 40
0
 40
0
 40
0
 40
0
 40
1
 40
1
 40
1
 40
1
 10
527.829809
 20
35.473837
 30
0.0
 10
527.447724
 20
35.159583
 30
0.0
 10
526.968484
 20
34.987572
 30
0.0
 10
526.473819
 20
34.987043
 30
0.0
  0
SPLINE
  5
10c
100
AcDbEntity
  8
Layer_1
 62
1
100
AcDbSpline
 70
8
 71
3
 72
8
 73
4
 74
0
 40
0
 40
0
 40
0
 40
0
 40
1
 40
1
 40
1
 40
1
 10
526.473819
 20
34.987043
 30
0.0
 10
525.292958
 20
34.986937
 30
0.0
 10
524.335563
 20
35.944044
 30
0.0
 10
524.335430
 20
37.124898
 30
0.0
  0
SPLINE
  5
10d
100
AcDbEntity
  8
Layer_1
 62
1
100
AcDbSpline
 70
8
 71
3
 72
8
 73
4
 74
0
 40
0
 40
0
 40
0
 40
0
 40
1
 40
1
 40
1
 40
1
 10
524.335430
 20
37.124898
 30
0.0
 10
524.335430
 20
37.619774
 30
0.0
 10
524.507886
 20
38.099205
 30
0.0
 10
524.822237
 20
38.481406
 30
0.0
  0
SPLINE
  5
10e
100
AcDbEntity
  8
Layer_1
 62
1
100
AcDbSpline
 70
8
 71
3
 72
8
 73
4
 74
0
 40
0
 40
0
 40
0
 40
0
 40
1
 40
1
 40
1
 40
1
 10
524.822237
 20
38.481406
 30
0.0
 10
524.822237
 20
38.481406
 30
0.0
 10
524.990803
 20
38.667757
 30
0.0
 10
525.078539
 20
38.742370
 30
0.0
  0
LWPOLYLINE
  5
10f
100
AcDbEntity
  8
Layer_1
 62
1
100
AcDbPolyline
 90
2
 70
0
 10
532.239858
 20
31.448230
 30
0.0
 10
531.181524
 20
45.644791
 30
0.0
  0
LWPOLYLINE
  5
110
100
AcDbEntity
  8
Layer_1
 62
1
100
AcDbPolyline
 90
3
 70
0
 10
525.078539
 20
38.742370
 30
0.0
 10
532.239355
 20
48.019841
 30
0.0
 10
532.239355
 20
122.555343
 30
0.0
  0
LWPOLYLINE
  5
111
100
AcDbEntity
  8
Layer_1
 62
1
100
AcDbPolyline
 90
2
 70
0
 10
532.239355
 20
128.891907
 30
0.0
 10
532.239355
 20
243.788771
 30
0.0
  0
SPLINE
  5
112
100
AcDbEntity
  8
Layer_1
 62
1
100
AcDbSpline
 70
8
 71
3
 72
8
 73
4
 74
0
 40
0
 40
0
 40
0
 40
0
 40
1
 40
1
 40
1
 40
1
 10
524.855813
 20
332.061936
 30
0.0
 10
524.519977
 20
332.449709
 30
0.0
 10
524.334743
 20
332.945258
 30
0.0
 10
524.333896
 20
333.458232
 30
0.0
  0
SPLINE
  5
113
100
AcDbEntity
  8
Layer_1
 62
1
100
AcDbSpline
 70
8
 71
3
 72
8
 73
4
 74
0
 40
0
 40
0
 40
0
 40
0
 40
1
 40
1
 40
1
 40
1
 10
524.333896
 20
333.458232
 30
0.0
 10
524.333790
 20
334.639261
 30
0.0
 10
525.291238
 20
335.596709
 30
0.0
 10
526.472258
 20
335.596603
 30
0.0
  0
SPLINE
  5
114
100
AcDbEntity
  8
Layer_1
 62
1
100
AcDbSpline
 70
8
 71
3
 72
8
 73
4
 74
0
 40
0
 40
0
 40
0
 40
0
 40
1
 40
1
 40
1
 40
1
 10
526.472258
 20
335.596603
 30
0.0
 10
526.985338
 20
335.596603
 30
0.0
 10
527.481141
 20
335.410963
 30
0.0
 10
527.869073
 20
335.075188
 30
0.0
  0
SPLINE
  5
115
100
AcDbEntity
  8
Layer_1
 62
1
100
AcDbSpline
 70
8
 71
3
 72
8
 73
4
 74
0
 40
0
 40
0
 40
0
 40
0
 40
1
 40
1
 40
1
 40
1
 10
527.869073
 20
335.075188
 30
0.0
 10
530.031036
 20
332.930124
 30
0.0
 10
531.561942
 20
321.487282
 30
0.0
 10
531.709156
 20
324.406588
 30
0.0
  0
SPLINE
  5
116
100
AcDbEntity
  8
Layer_1
 62
1
100
AcDbSpline
 70
8
 71
3
 72
8
 73
4
 74
0
 40
0
 40
0
 40
0
 40
0
 40
1
 40
1
 40
1
 40
1
 10
531.709156
 20
324.406588
 30
0.0
 10
532.238323
 20
334.901550
 30
0.0
 10
532.238323
 20
335.636568
 30
0.0
 10
532.238323
 20
339.134889
 30
0.0
  0
SPLINE
  5
117
100
AcDbEntity
  8
Layer_1
 62
1
100
AcDbSpline
 70
8
 71
3
 72
8
 73
4
 74
0
 40
0
 40
0
 40
0
 40
0
 40
1
 40
1
 40
1
 40
1
 10
532.238323
 20
339.134889
 30
0.0
 10
532.238323
 20
342.419956
 30
0.0
 10
529.395640
 20
345.083363
 30
0.0
 10
525.888323
 20
345.083363
 30
0.0
  0
LWPOLYLINE
  5
118
100
AcDbEntity
  8
Layer_1
 62
1
100
AcDbPolyline
 90
3
 70
0
 10
532.239355
 20
250.125335
 30
0.0
 10
532.239355
 20
322.560707
 30
0.0
 10
524.855813
 20
332.061936
 30
0.0
  0
LWPOLYLINE
  5
119
100
AcDbEntity
  8
Layer_1
 62
1
100
AcDbPolyline
 90
2
 70
0
 10
525.888323
 20
345.083363
 30
0.0
 10
522.240486
 20
345.083363
 30
0.0
  0
SPLINE
  5
11a
100
AcDbEntity
  8
Layer_1
 62
1
100
AcDbSpline
 70
8
 71
3
 72
8
 73
4
 74
0
 40
0
 40
0
 40
0
 40
0
 40
1
 40
1
 40
1
 40
1
 10
512.240559
 20
345.083363
 30
0.0
 10
508.733586
 20
345.083363
 30
0.0
 10
505.890559
 20
342.419956
 30
0.0
 10
505.890559
 20
339.134889
 30
0.0
  0
SPLINE
  5
11b
100
AcDbEntity
  8
Layer_1
 62
1
100
AcDbSpline
 70
8
 71
3
 72
8
 73
4
 74
0
 40
0
 40
0
 40
0
 40
0
 40
1
 40
1
 40
1
 40
1
 10
505.890559
 20
339.134889
 30
0.0
 10
505.890559
 20
335.630853
 30
0.0
 10
505.890559
 20
334.901572
 30
0.0
 10
506.419726
 20
324.389535
 30
0.0
  0
SPLINE
  5
11c
100
AcDbEntity
  8
Layer_1
 62
1
100
AcDbSpline
 70
8
 71
3
 72
8
 73
4
 74
0
 40
0
 40
0
 40
0
 40
0
 40
1
 40
1
 40
1
 40
1
 10
506.419726
 20
324.389535
 30
0.0
 10
506.566305
 20
321.477566
 30
0.0
 10
508.111339
 20
332.908576
 30
0.0
 10
510.234488
 20
335.051418
 30
0.0
  0
SPLINE
  5
11d
100
AcDbEntity
  8
Layer_1
 62
1
100
AcDbSpline
 70
8
 71
3
 72
8
 73
4
 74
0
 40
0
 40
0
 40
0
 40
0
 40
1
 40
1
 40
1
 40
1
 10
510.234488
 20
335.051418
 30
0.0
 10
510.625701
 20
335.401692
 30
0.0
 10
511.132113
 20
335.595756
 30
0.0
 10
511.657153
 20
335.596603
 30
0.0
  0
SPLINE
  5
11e
100
AcDbEntity
  8
Layer_1
 62
1
100
AcDbSpline
 70
8
 71
3
 72
8
 73
4
 74
0
 40
0
 40
0
 40
0
 40
0
 40
1
 40
1
 40
1
 40
1
 10
511.657153
 20
335.596603
 30
0.0
 10
512.838015
 20
335.596460
 30
0.0
 10
513.795092
 20
334.639084
 30
0.0
 10
513.794986
 20
333.458232
 30
0.0
  0
SPLINE
  5
11f
100
AcDbEntity
  8
Layer_1
 62
1
100
AcDbSpline
 70
8
 71
3
 72
8
 73
4
 74
0
 40
0
 40
0
 40
0
 40
0
 40
1
 40
1
 40
1
 40
1
 10
513.794986
 20
333.458232
 30
0.0
 10
513.794986
 20
332.933228
 30
0.0
 10
513.600385
 20
332.426847
 30
0.0
 10
513.250341
 20
332.035581
 30
0.0
  0
LWPOLYLINE
  5
120
100
AcDbEntity
  8
Layer_1
 62
1
100
AcDbPolyline
 90
2
 70
0
 10
515.890486
 20
345.083363
 30
0.0
 10
512.240559
 20
345.083363
 30
0.0
  0
LWPOLYLINE
  5
121
100
AcDbEntity
  8
Layer_1
 62
1
100
AcDbPolyline
 90
3
 70
0
 10
513.250341
 20
332.035581
 30
0.0
 10
505.890559
 20
322.543654
 30
0.0
 10
505.890559
 20
250.125335
 30
0.0
  0
SPLINE
  5
122
100
AcDbEntity
  8
Layer_1
 62
1
100
AcDbSpline
 70
8
 71
3
 72
8
 73
4
 74
0
 40
0
 40
0
 40
0
 40
0
 40
1
 40
1
 40
1
 40
1
 10
489.889485
 20
327.543348
 30
0.0
 10
489.889485
 20
331.050312
 30
0.0
 10
487.182453
 20
333.893348
 30
0.0
 10
483.842300
 20
333.893348
 30
0.0
  0
LWPOLYLINE
  5
123
100
AcDbEntity
  8
Layer_1
 62
1
100
AcDbPolyline
 90
2
 70
0
 10
489.889485
 20
250.125335
 30
0.0
 10
489.889485
 20
327.543348
 30
0.0
  0
LWPOLYLINE
  5
124
100
AcDbEntity
  8
Layer_1
 62
1
100
AcDbPolyline
 90
2
 70
0
 10
483.842300
 20
333.893348
 30
0.0
 10
431.945735
 20
333.893348
 30
0.0
  0
LWPOLYLINE
  5
125
100
AcDbEntity
  8
Layer_1
 62
1
100
AcDbPolyline
 90
2
 70
0
 10
425.595735
 20
333.893348
 30
0.0
 10
274.783234
 20
333.893348
 30
0.0
  0
SPLINE
  5
126
100
AcDbEntity
  8
Layer_1
 62
1
100
AcDbSpline
 70
8
 71
3
 72
8
 73
4
 74
0
 40
0
 40
0
 40
0
 40
0
 40
1
 40
1
 40
1
 40
1
 10
216.537171
 20
333.893348
 30
0.0
 10
213.197425
 20
333.893348
 30
0.0
 10
210.489478
 20
331.050312
 30
0.0
 10
210.489478
 20
327.543348
 30
0.0
  0
LWPOLYLINE
  5
127
100
AcDbEntity
  8
Layer_1
 62
1
100
AcDbPolyline
 90
2
 70
0
 10
268.433234
 20
333.893348
 30
0.0
 10
216.537171
 20
333.893348
 30
0.0
  0
LWPOLYLINE
  5
128
100
AcDbEntity
  8
Layer_1
 62
1
100
AcDbPolyline
 90
2
 70
0
 10
210.489478
 20
327.543348
 30
0.0
 10
210.489478
 20
250.125335
 30
0.0
  0
SPLINE
  5
129
100
AcDbEntity
  8
Layer_1
 62
1
100
AcDbSpline
 70
8
 71
3
 72
8
 73
4
 74
0
 40
0
 40
0
 40
0
 40
0
 40
1
 40
1
 40
1
 40
1
 10
210.489478
 20
173.134686
 30
0.0
 10
210.489478
 20
157.329930
 30
0.0
 10
212.352365
 20
142.456089
 30
0.0
 10
215.997153
 20
128.891907
 30
0.0
  0
SPLINE
  5
12a
100
AcDbEntity
  8
Layer_1
 62
1
100
AcDbSpline
 70
8
 71
3
 72
8
 73
4
 74
0
 40
0
 40
0
 40
0
 40
0
 40
1
 40
1
 40
1
 40
1
 10
217.860606
 20
122.555343
 30
0.0
 10
226.854643
 20
94.470565
 30
0.0
 10
243.949417
 20
72.656246
 30
0.0
 10
268.433234
 20
60.869701
 30
0.0
  0
SPLINE
  5
12b
100
AcDbEntity
  8
Layer_1
 62
1
100
AcDbSpline
 70
8
 71
3
 72
8
 73
4
 74
0
 40
0
 40
0
 40
0
 40
0
 40
1
 40
1
 40
1
 40
1
 10
274.783234
 20
58.106047
 30
0.0
 10
286.361983
 20
53.573554
 30
0.0
 10
299.423615
 20
51.134379
 30
0.0
 10
313.904870
 20
51.134379
 30
0.0
  0
LWPOLYLINE
  5
12c
100
AcDbEntity
  8
Layer_1
 62
1
100
AcDbPolyline
 90
2
 70
0
 10
210.489478
 20
243.788771
 30
0.0
 10
210.489478
 20
173.134686
 30
0.0
  0
SPLINE
  5
12d
100
AcDbEntity
  8
Layer_1
 62
1
100
AcDbSpline
 70
8
 71
3
 72
8
 73
4
 74
0
 40
0
 40
0
 40
0
 40
0
 40
1
 40
1
 40
1
 40
1
 10
386.474601
 20
51.134379
 30
0.0
 10
400.955671
 20
51.134379
 30
0.0
 10
414.017144
 20
53.573149
 30
0.0
 10
425.595735
 20
58.105531
 30
0.0
  0
SPLINE
  5
12e
100
AcDbEntity
  8
Layer_1
 62
1
100
AcDbSpline
 70
8
 71
3
 72
8
 73
4
 74
0
 40
0
 40
0
 40
0
 40
0
 40
1
 40
1
 40
1
 40
1
 10
431.945735
 20
60.869186
 30
0.0
 10
456.429694
 20
72.655743
 30
0.0
 10
473.524873
 20
94.470261
 30
0.0
 10
482.518881
 20
122.555343
 30
0.0
  0
SPLINE
  5
12f
100
AcDbEntity
  8
Layer_1
 62
1
100
AcDbSpline
 70
8
 71
3
 72
8
 73
4
 74
0
 40
0
 40
0
 40
0
 40
0
 40
1
 40
1
 40
1
 40
1
 10
484.382315
 20
128.891907
 30
0.0
 10
488.027056
 20
142.456111
 30
0.0
 10
489.889485
 20
157.329951
 30
0.0
 10
489.889485
 20
173.134686
 30
0.0
  0
LWPOLYLINE
  5
130
100
AcDbEntity
  8
Layer_1
 62
1
100
AcDbPolyline
 90
2
 70
0
 10
313.904870
 20
51.134379
 30
0.0
 10
386.474601
 20
51.134379
 30
0.0
  0
LWPOLYLINE
  5
131
100
AcDbEntity
  8
Layer_1
 62
1
100
AcDbPolyline
 90
2
 70
0
 10
489.889485
 20
173.134686
 30
0.0
 10
489.889485
 20
243.788771
 30
0.0
  0
LWPOLYLINE
  5
132
100
AcDbEntity
  8
Layer_1
 62
1
100
AcDbPolyline
 90
2
 70
0
 10
505.890559
 20
243.788771
 30
0.0
 10
505.890559
 20
128.891907
 30
0.0
  0
LWPOLYLINE
  5
133
100
AcDbEntity
  8
Layer_1
 62
1
100
AcDbPolyline
 90
2
 70
0
 10
222.096974
 20
270.504548
 30
0.0
 10
222.096974
 20
255.304412
 30
0.0
  0
LWPOLYLINE
  5
134
100
AcDbEntity
  8
Layer_1
 62
1
100
AcDbPolyline
 90
2
 70
0
 10
227.802520
 20
269.904544
 30
0.0
 10
227.802520
 20
255.904558
 30
0.0
  0
LWPOLYLINE
  5
135
100
AcDbEntity
  8
Layer_1
 62
1
100
AcDbPolyline
 90
2
 70
0
 10
478.282498
 20
270.504548
 30
0.0
 10
478.282498
 20
255.304412
 30
0.0
  0
LWPOLYLINE
  5
136
100
AcDbEntity
  8
Layer_1
 62
1
100
AcDbPolyline
 90
2
 70
0
 10
472.576952
 20
269.904544
 30
0.0
 10
472.576952
 20
255.904558
 30
0.0
  0
SPLINE
  5
137
100
AcDbEntity
  8
Layer_1
 62
1
100
AcDbSpline
 70
8
 71
3
 72
8
 73
4
 74
0
 40
0
 40
0
 40
0
 40
0
 40
1
 40
1
 40
1
 40
1
 10
509.523850
 20
79.189019
 30
0.0
 10
509.310067
 20
79.189019
 30
0.0
 10
509.164369
 20
78.974177
 30
0.0
 10
509.245861
 20
78.776621
 30
0.0
  0
SPLINE
  5
138
100
AcDbEntity
  8
Layer_1
 62
1
100
AcDbSpline
 70
8
 71
3
 72
8
 73
4
 74
0
 40
0
 40
0
 40
0
 40
0
 40
1
 40
1
 40
1
 40
1
 10
509.245861
 20
78.776621
 30
0.0
 10
509.810658
 20
77.406432
 30
0.0
 10
514.899478
 20
70.369574
 30
0.0
 10
514.899478
 20
70.369574
 30
0.0
  0
LWPOLYLINE
  5
139
100
AcDbEntity
  8
Layer_1
 62
1
100
AcDbPolyline
 90
3
 70
0
 10
511.711425
 20
89.153227
 30
0.0
 10
511.815847
 20
79.189019
 30
0.0
 10
509.523850
 20
79.189019
 30
0.0
  0
SPLINE
  5
13a
100
AcDbEntity
  8
Layer_1
 62
1
100
AcDbSpline
 70
8
 71
3
 72
8
 73
4
 74
0
 40
0
 40
0
 40
0
 40
0
 40
1
 40
1
 40
1
 40
1
 10
522.399533
 20
70.369574
 30
0.0
 10
522.399533
 20
70.369574
 30
0.0
 10
527.488705
 20
77.406432
 30
0.0
 10
528.053855
 20
78.776621
 30
0.0
  0
SPLINE
  5
13b
100
AcDbEntity
  8
Layer_1
 62
1
100
AcDbSpline
 70
8
 71
3
 72
8
 73
4
 74
0
 40
0
 40
0
 40
0
 40
0
 40
1
 40
1
 40
1
 40
1
 10
528.053855
 20
78.776621
 30
0.0
 10
528.135347
 20
78.974177
 30
0.0
 10
527.989297
 20
79.189019
 30
0.0
 10
527.775513
 20
79.189019
 30
0.0
  0
LWPOLYLINE
  5
13c
100
AcDbEntity
  8
Layer_1
 62
1
100
AcDbPolyline
 90
2
 70
0
 10
514.899478
 20
70.369574
 30
0.0
 10
522.399533
 20
70.369574
 30
0.0
  0
LWPOLYLINE
  5
13d
100
AcDbEntity
  8
Layer_1
 62
1
100
AcDbPolyline
 90
3
 70
0
 10
527.775513
 20
79.189019
 30
0.0
 10
525.483163
 20
79.189019
 30
0.0
 10
525.587938
 20
89.153227
 30
0.0
  0
SPLINE
  5
13e
100
AcDbEntity
  8
Layer_1
 62
1
100
AcDbSpline
 70
8
 71
3
 72
8
 73
4
 74
0
 40
0
 40
0
 40
0
 40
0
 40
1
 40
1
 40
1
 40
1
 10
509.523850
 20
291.679452
 30
0.0
 10
509.310067
 20
291.679452
 30
0.0
 10
509.164369
 20
291.894294
 30
0.0
 10
509.245861
 20
292.091849
 30
0.0
  0
SPLINE
  5
13f
100
AcDbEntity
  8
Layer_1
 62
1
100
AcDbSpline
 70
8
 71
3
 72
8
 73
4
 74
0
 40
0
 40
0
 40
0
 40
0
 40
1
 40
1
 40
1
 40
1
 10
509.245861
 20
292.091849
 30
0.0
 10
509.810658
 20
293.462038
 30
0.0
 10
514.899478
 20
300.498896
 30
0.0
 10
514.899478
 20
300.498896
 30
0.0
  0
LWPOLYLINE
  5
140
100
AcDbEntity
  8
Layer_1
 62
1
100
AcDbPolyline
 90
3
 70
0
 10
511.711425
 20
281.715244
 30
0.0
 10
511.815847
 20
291.679452
 30
0.0
 10
509.523850
 20
291.679452
 30
0.0
  0
SPLINE
  5
141
100
AcDbEntity
  8
Layer_1
 62
1
100
AcDbSpline
 70
8
 71
3
 72
8
 73
4
 74
0
 40
0
 40
0
 40
0
 40
0
 40
1
 40
1
 40
1
 40
1
 10
522.399533
 20
300.498896
 30
0.0
 10
522.399533
 20
300.498896
 30
0.0
 10
527.488705
 20
293.462038
 30
0.0
 10
528.053855
 20
292.091849
 30
0.0
  0
SPLINE
  5
142
100
AcDbEntity
  8
Layer_1
 62
1
100
AcDbSpline
 70
8
 71
3
 72
8
 73
4
 74
0
 40
0
 40
0
 40
0
 40
0
 40
1
 40
1
 40
1
 40
1
 10
528.053855
 20
292.091849
 30
0.0
 10
528.135347
 20
291.894294
 30
0.0
 10
527.989297
 20
291.679452
 30
0.0
 10
527.775513
 20
291.679452
 30
0.0
  0
LWPOLYLINE
  5
143
100
AcDbEntity
  8
Layer_1
 62
1
100
AcDbPolyline
 90
2
 70
0
 10
514.899478
 20
300.498896
 30
0.0
 10
522.399533
 20
300.498896
 30
0.0
  0
LWPOLYLINE
  5
144
100
AcDbEntity
  8
Layer_1
 62
1
100
AcDbPolyline
 90
3
 70
0
 10
527.775513
 20
291.679452
 30
0.0
 10
525.483163
 20
291.679452
 30
0.0
 10
525.587938
 20
281.715244
 30
0.0
  0
SPLINE
  5
145
100
AcDbEntity
  8
Layer_1
 62
7
100
AcDbSpline
 70
8
 71
3
 72
8
 73
4
 74
0
 40
0
 40
0
 40
0
 40
0
 40
1
 40
1
 40
1
 40
1
 10
519.212503
 20
222.320873
 30
0.0
 10
519.760273
 20
222.320873
 30
0.0
 10
520.170248
 20
222.427670
 30
0.0
 10
520.442428
 20
222.641266
 30
0.0
  0
SPLINE
  5
146
100
AcDbEntity
  8
Layer_1
 62
7
100
AcDbSpline
 70
8
 71
3
 72
8
 73
4
 74
0
 40
0
 40
0
 40
0
 40
0
 40
1
 40
1
 40
1
 40
1
 10
520.442428
 20
222.641266
 30
0.0
 10
520.714584
 20
222.854861
 30
0.0
 10
520.850662
 20
223.175254
 30
0.0
 10
520.850662
 20
223.602444
 30
0.0
  0
SPLINE
  5
147
100
AcDbEntity
  8
Layer_1
 62
7
100
AcDbSpline
 70
8
 71
3
 72
8
 73
4
 74
0
 40
0
 40
0
 40
0
 40
0
 40
1
 40
1
 40
1
 40
1
 10
520.850662
 20
223.602444
 30
0.0
 10
520.850662
 20
224.115759
 30
0.0
 10
520.687020
 20
224.520560
 30
0.0
 10
520.359737
 20
224.816846
 30
0.0
  0
SPLINE
  5
148
100
AcDbEntity
  8
Layer_1
 62
7
100
AcDbSpline
 70
8
 71
3
 72
8
 73
4
 74
0
 40
0
 40
0
 40
0
 40
0
 40
1
 40
1
 40
1
 40
1
 10
520.359737
 20
224.816846
 30
0.0
 10
520.032453
 20
225.113109
 30
0.0
 10
519.586307
 20
225.261240
 30
0.0
 10
519.021298
 20
225.261240
 30
0.0
  0
LWPOLYLINE
  5
149
100
AcDbEntity
  8
Layer_1
 62
7
100
AcDbPolyline
 90
4
 70
0
 10
519.243512
 20
221.370031
 30
0.0
 10
515.750201
 20
221.370031
 30
0.0
 10
515.750201
 20
222.320873
 30
0.0
 10
519.212503
 20
222.320873
 30
0.0
  0
SPLINE
  5
14a
100
AcDbEntity
  8
Layer_1
 62
7
100
AcDbSpline
 70
8
 71
3
 72
8
 73
4
 74
0
 40
0
 40
0
 40
0
 40
0
 40
1
 40
1
 40
1
 40
1
 10
520.638784
 20
225.261240
 30
0.0
 10
520.986740
 20
225.033863
 30
0.0
 10
521.246843
 20
224.766869
 30
0.0
 10
521.419093
 20
224.460258
 30
0.0
  0
SPLINE
  5
14b
100
AcDbEntity
  8
Layer_1
 62
7
100
AcDbSpline
 70
8
 71
3
 72
8
 73
4
 74
0
 40
0
 40
0
 40
0
 40
0
 40
1
 40
1
 40
1
 40
1
 10
521.419093
 20
224.460258
 30
0.0
 10
521.591343
 20
224.150214
 30
0.0
 10
521.677467
 20
223.793650
 30
0.0
 10
521.677467
 20
223.390566
 30
0.0
  0
SPLINE
  5
14c
100
AcDbEntity
  8
Layer_1
 62
7
100
AcDbSpline
 70
8
 71
3
 72
8
 73
4
 74
0
 40
0
 40
0
 40
0
 40
0
 40
1
 40
1
 40
1
 40
1
 10
521.677467
 20
223.390566
 30
0.0
 10
521.677467
 20
222.725650
 30
0.0
 10
521.470763
 20
222.222671
 30
0.0
 10
521.057355
 20
221.881629
 30
0.0
  0
SPLINE
  5
14d
100
AcDbEntity
  8
Layer_1
 62
7
100
AcDbSpline
 70
8
 71
3
 72
8
 73
4
 74
0
 40
0
 40
0
 40
0
 40
0
 40
1
 40
1
 40
1
 40
1
 10
521.057355
 20
221.881629
 30
0.0
 10
520.647403
 20
221.540564
 30
0.0
 10
520.042789
 20
221.370031
 30
0.0
 10
519.243512
 20
221.370031
 30
0.0
  0
LWPOLYLINE
  5
14e
100
AcDbEntity
  8
Layer_1
 62
7
100
AcDbPolyline
 90
6
 70
0
 10
519.021298
 20
225.261240
 30
0.0
 10
515.750201
 20
225.261240
 30
0.0
 10
515.750201
 20
226.217268
 30
0.0
 10
523.791065
 20
226.217268
 30
0.0
 10
523.791065
 20
225.261240
 30
0.0
 10
520.638784
 20
225.261240
 30
0.0
  0
LWPOLYLINE
  5
14f
100
AcDbEntity
  8
Layer_1
 62
7
100
AcDbPolyline
 90
1
 70
1
 10
519.243512
 20
221.370031
 30
0.0
  0
SPLINE
  5
150
100
AcDbEntity
  8
Layer_1
 62
7
100
AcDbSpline
 70
8
 71
3
 72
8
 73
4
 74
0
 40
0
 40
0
 40
0
 40
0
 40
1
 40
1
 40
1
 40
1
 10
517.657071
 20
218.522656
 30
0.0
 10
517.185078
 20
218.522656
 30
0.0
 10
516.881900
 20
218.458921
 30
0.0
 10
516.747539
 20
218.331450
 30
0.0
  0
SPLINE
  5
151
100
AcDbEntity
  8
Layer_1
 62
7
100
AcDbSpline
 70
8
 71
3
 72
8
 73
4
 74
0
 40
0
 40
0
 40
0
 40
0
 40
1
 40
1
 40
1
 40
1
 10
516.747539
 20
218.331450
 30
0.0
 10
516.613178
 20
218.200523
 30
0.0
 10
516.545997
 20
217.936974
 30
0.0
 10
516.545997
 20
217.540805
 30
0.0
  0
LWPOLYLINE
  5
152
100
AcDbEntity
  8
Layer_1
 62
7
100
AcDbPolyline
 90
6
 70
0
 10
523.181253
 20
218.522656
 30
0.0
 10
521.537944
 20
218.522656
 30
0.0
 10
521.537944
 20
216.564104
 30
0.0
 10
520.798980
 20
216.564104
 30
0.0
 10
520.798980
 20
218.522656
 30
0.0
 10
517.657071
 20
218.522656
 30
0.0
  0
SPLINE
  5
153
100
AcDbEntity
  8
Layer_1
 62
7
100
AcDbSpline
 70
8
 71
3
 72
8
 73
4
 74
0
 40
0
 40
0
 40
0
 40
0
 40
1
 40
1
 40
1
 40
1
 10
515.750201
 20
217.540805
 30
0.0
 10
515.750201
 20
218.274606
 30
0.0
 10
515.886279
 20
218.781030
 30
0.0
 10
516.158436
 20
219.060077
 30
0.0
  0
SPLINE
  5
154
100
AcDbEntity
  8
Layer_1
 62
7
100
AcDbSpline
 70
8
 71
3
 72
8
 73
4
 74
0
 40
0
 40
0
 40
0
 40
0
 40
1
 40
1
 40
1
 40
1
 10
516.158436
 20
219.060077
 30
0.0
 10
516.434049
 20
219.339125
 30
0.0
 10
516.933594
 20
219.478648
 30
0.0
 10
517.657071
 20
219.478648
 30
0.0
  0
LWPOLYLINE
  5
155
100
AcDbEntity
  8
Layer_1
 62
7
100
AcDbPolyline
 90
4
 70
0
 10
516.545997
 20
217.540805
 30
0.0
 10
516.545997
 20
216.564104
 30
0.0
 10
515.750201
 20
216.564104
 30
0.0
 10
515.750201
 20
217.540805
 30
0.0
  0
LWPOLYLINE
  5
156
100
AcDbEntity
  8
Layer_1
 62
7
100
AcDbPolyline
 90
7
 70
0
 10
517.657071
 20
219.478648
 30
0.0
 10
520.798980
 20
219.478648
 30
0.0
 10
520.798980
 20
220.176302
 30
0.0
 10
521.537944
 20
220.176302
 30
0.0
 10
521.537944
 20
219.478648
 30
0.0
 10
523.181253
 20
219.478648
 30
0.0
 10
523.181253
 20
218.522656
 30
0.0
  0
SPLINE
  5
157
100
AcDbEntity
  8
Layer_1
 62
7
100
AcDbSpline
 70
8
 71
3
 72
8
 73
4
 74
0
 40
0
 40
0
 40
0
 40
0
 40
1
 40
1
 40
1
 40
1
 10
517.657071
 20
214.367851
 30
0.0
 10
517.185078
 20
214.367851
 30
0.0
 10
516.881900
 20
214.304116
 30
0.0
 10
516.747539
 20
214.176645
 30
0.0
  0
SPLINE
  5
158
100
AcDbEntity
  8
Layer_1
 62
7
100
AcDbSpline
 70
8
 71
3
 72
8
 73
4
 74
0
 40
0
 40
0
 40
0
 40
0
 40
1
 40
1
 40
1
 40
1
 10
516.747539
 20
214.176645
 30
0.0
 10
516.613178
 20
214.045741
 30
0.0
 10
516.545997
 20
213.782193
 30
0.0
 10
516.545997
 20
213.386000
 30
0.0
  0
LWPOLYLINE
  5
159
100
AcDbEntity
  8
Layer_1
 62
7
100
AcDbPolyline
 90
6
 70
0
 10
523.181253
 20
214.367851
 30
0.0
 10
521.537944
 20
214.367851
 30
0.0
 10
521.537944
 20
212.409334
 30
0.0
 10
520.798980
 20
212.409334
 30
0.0
 10
520.798980
 20
214.367851
 30
0.0
 10
517.657071
 20
214.367851
 30
0.0
  0
SPLINE
  5
15a
100
AcDbEntity
  8
Layer_1
 62
7
100
AcDbSpline
 70
8
 71
3
 72
8
 73
4
 74
0
 40
0
 40
0
 40
0
 40
0
 40
1
 40
1
 40
1
 40
1
 10
515.750201
 20
213.386000
 30
0.0
 10
515.750201
 20
214.119801
 30
0.0
 10
515.886279
 20
214.626237
 30
0.0
 10
516.158436
 20
214.905308
 30
0.0
  0
SPLINE
  5
15b
100
AcDbEntity
  8
Layer_1
 62
7
100
AcDbSpline
 70
8
 71
3
 72
8
 73
4
 74
0
 40
0
 40
0
 40
0
 40
0
 40
1
 40
1
 40
1
 40
1
 10
516.158436
 20
214.905308
 30
0.0
 10
516.434049
 20
215.184355
 30
0.0
 10
516.933594
 20
215.323879
 30
0.0
 10
517.657071
 20
215.323879
 30
0.0
  0
LWPOLYLINE
  5
15c
100
AcDbEntity
  8
Layer_1
 62
7
100
AcDbPolyline
 90
4
 70
0
 10
516.545997
 20
213.386000
 30
0.0
 10
516.545997
 20
212.409334
 30
0.0
 10
515.750201
 20
212.409334
 30
0.0
 10
515.750201
 20
213.386000
 30
0.0
  0
LWPOLYLINE
  5
15d
100
AcDbEntity
  8
Layer_1
 62
7
100
AcDbPolyline
 90
7
 70
0
 10
517.657071
 20
215.323879
 30
0.0
 10
520.798980
 20
215.323879
 30
0.0
 10
520.798980
 20
216.021497
 30
0.0
 10
521.537944
 20
216.021497
 30
0.0
 10
521.537944
 20
215.323879
 30
0.0
 10
523.181253
 20
215.323879
 30
0.0
 10
523.181253
 20
214.367851
 30
0.0
  0
SPLINE
  5
15e
100
AcDbEntity
  8
Layer_1
 62
7
100
AcDbSpline
 70
8
 71
3
 72
8
 73
4
 74
0
 40
0
 40
0
 40
0
 40
0
 40
1
 40
1
 40
1
 40
1
 10
520.659457
 20
210.233754
 30
0.0
 10
521.003956
 20
210.033941
 30
0.0
 10
521.258897
 20
209.782445
 30
0.0
 10
521.424279
 20
209.479268
 30
0.0
  0
SPLINE
  5
15f
100
AcDbEntity
  8
Layer_1
 62
7
100
AcDbSpline
 70
8
 71
3
 72
8
 73
4
 74
0
 40
0
 40
0
 40
0
 40
0
 40
1
 40
1
 40
1
 40
1
 10
521.424279
 20
209.479268
 30
0.0
 10
521.593071
 20
209.172657
 30
0.0
 10
521.677467
 20
208.807473
 30
0.0
 10
521.677467
 20
208.383717
 30
0.0
  0
SPLINE
  5
160
100
AcDbEntity
  8
Layer_1
 62
7
100
AcDbSpline
 70
8
 71
3
 72
8
 73
4
 74
0
 40
0
 40
0
 40
0
 40
0
 40
1
 40
1
 40
1
 40
1
 10
521.677467
 20
208.383717
 30
0.0
 10
521.677467
 20
207.680936
 30
0.0
 10
521.398420
 20
207.110777
 30
0.0
 10
520.840326
 20
206.673238
 30
0.0
  0
SPLINE
  5
161
100
AcDbEntity
  8
Layer_1
 62
7
100
AcDbSpline
 70
8
 71
3
 72
8
 73
4
 74
0
 40
0
 40
0
 40
0
 40
0
 40
1
 40
1
 40
1
 40
1
 10
520.840326
 20
206.673238
 30
0.0
 10
520.282208
 20
206.232266
 30
0.0
 10
519.548406
 20
206.011780
 30
0.0
 10
518.638922
 20
206.011780
 30
0.0
  0
SPLINE
  5
162
100
AcDbEntity
  8
Layer_1
 62
7
100
AcDbSpline
 70
8
 71
3
 72
8
 73
4
 74
0
 40
0
 40
0
 40
0
 40
0
 40
1
 40
1
 40
1
 40
1
 10
518.638922
 20
206.011780
 30
0.0
 10
517.729414
 20
206.011780
 30
0.0
 10
516.995601
 20
206.232266
 30
0.0
 10
516.437483
 20
206.673238
 30
0.0
  0
SPLINE
  5
163
100
AcDbEntity
  8
Layer_1
 62
7
100
AcDbSpline
 70
8
 71
3
 72
8
 73
4
 74
0
 40
0
 40
0
 40
0
 40
0
 40
1
 40
1
 40
1
 40
1
 10
516.437483
 20
206.673238
 30
0.0
 10
515.879388
 20
207.110777
 30
0.0
 10
515.600341
 20
207.680936
 30
0.0
 10
515.600341
 20
208.383717
 30
0.0
  0
SPLINE
  5
164
100
AcDbEntity
  8
Layer_1
 62
7
100
AcDbSpline
 70
8
 71
3
 72
8
 73
4
 74
0
 40
0
 40
0
 40
0
 40
0
 40
1
 40
1
 40
1
 40
1
 10
515.600341
 20
208.383717
 30
0.0
 10
515.600341
 20
208.807473
 30
0.0
 10
515.683020
 20
209.172657
 30
0.0
 10
515.848379
 20
209.479268
 30
0.0
  0
SPLINE
  5
165
100
AcDbEntity
  8
Layer_1
 62
7
100
AcDbSpline
 70
8
 71
3
 72
8
 73
4
 74
0
 40
0
 40
0
 40
0
 40
0
 40
1
 40
1
 40
1
 40
1
 10
515.848379
 20
209.479268
 30
0.0
 10
516.017195
 20
209.782445
 30
0.0
 10
516.273853
 20
210.033941
 30
0.0
 10
516.618352
 20
210.233754
 30
0.0
  0
LWPOLYLINE
  5
166
100
AcDbEntity
  8
Layer_1
 62
7
100
AcDbPolyline
 90
6
 70
0
 10
516.618352
 20
210.233754
 30
0.0
 10
513.548762
 20
210.233754
 30
0.0
 10
513.548762
 20
211.189746
 30
0.0
 10
521.537944
 20
211.189746
 30
0.0
 10
521.537944
 20
210.233754
 30
0.0
 10
520.659457
 20
210.233754
 30
0.0
  0
SPLINE
  5
167
100
AcDbEntity
  8
Layer_1
 62
7
100
AcDbSpline
 70
8
 71
3
 72
8
 73
4
 74
0
 40
0
 40
0
 40
0
 40
0
 40
1
 40
1
 40
1
 40
1
 10
518.638922
 20
206.998817
 30
0.0
 10
519.338269
 20
206.998817
 30
0.0
 10
519.886038
 20
207.143503
 30
0.0
 10
520.282231
 20
207.432875
 30
0.0
  0
SPLINE
  5
168
100
AcDbEntity
  8
Layer_1
 62
7
100
AcDbSpline
 70
8
 71
3
 72
8
 73
4
 74
0
 40
0
 40
0
 40
0
 40
0
 40
1
 40
1
 40
1
 40
1
 10
520.282231
 20
207.432875
 30
0.0
 10
520.681858
 20
207.718813
 30
0.0
 10
520.881671
 20
208.113277
 30
0.0
 10
520.881671
 20
208.616268
 30
0.0
  0
SPLINE
  5
169
100
AcDbEntity
  8
Layer_1
 62
7
100
AcDbSpline
 70
8
 71
3
 72
8
 73
4
 74
0
 40
0
 40
0
 40
0
 40
0
 40
1
 40
1
 40
1
 40
1
 10
520.881671
 20
208.616268
 30
0.0
 10
520.881671
 20
209.119258
 30
0.0
 10
520.681858
 20
209.515451
 30
0.0
 10
520.282231
 20
209.804847
 30
0.0
  0
SPLINE
  5
16a
100
AcDbEntity
  8
Layer_1
 62
7
100
AcDbSpline
 70
8
 71
3
 72
8
 73
4
 74
0
 40
0
 40
0
 40
0
 40
0
 40
1
 40
1
 40
1
 40
1
 10
520.282231
 20
209.804847
 30
0.0
 10
519.886038
 20
210.090785
 30
0.0
 10
519.338269
 20
210.233754
 30
0.0
 10
518.638922
 20
210.233754
 30
0.0
  0
SPLINE
  5
16b
100
AcDbEntity
  8
Layer_1
 62
7
100
AcDbSpline
 70
8
 71
3
 72
8
 73
4
 74
0
 40
0
 40
0
 40
0
 40
0
 40
1
 40
1
 40
1
 40
1
 10
518.638922
 20
210.233754
 30
0.0
 10
517.939552
 20
210.233754
 30
0.0
 10
517.390053
 20
210.090785
 30
0.0
 10
516.990427
 20
209.804847
 30
0.0
  0
SPLINE
  5
16c
100
AcDbEntity
  8
Layer_1
 62
7
100
AcDbSpline
 70
8
 71
3
 72
8
 73
4
 74
0
 40
0
 40
0
 40
0
 40
0
 40
1
 40
1
 40
1
 40
1
 10
516.990427
 20
209.804847
 30
0.0
 10
516.594234
 20
209.515451
 30
0.0
 10
516.396137
 20
209.119258
 30
0.0
 10
516.396137
 20
208.616268
 30
0.0
  0
SPLINE
  5
16d
100
AcDbEntity
  8
Layer_1
 62
7
100
AcDbSpline
 70
8
 71
3
 72
8
 73
4
 74
0
 40
0
 40
0
 40
0
 40
0
 40
1
 40
1
 40
1
 40
1
 10
516.396137
 20
208.616268
 30
0.0
 10
516.396137
 20
208.113277
 30
0.0
 10
516.594234
 20
207.718813
 30
0.0
 10
516.990427
 20
207.432875
 30
0.0
  0
SPLINE
  5
16e
100
AcDbEntity
  8
Layer_1
 62
7
100
AcDbSpline
 70
8
 71
3
 72
8
 73
4
 74
0
 40
0
 40
0
 40
0
 40
0
 40
1
 40
1
 40
1
 40
1
 10
516.990427
 20
207.432875
 30
0.0
 10
517.390053
 20
207.143503
 30
0.0
 10
517.939552
 20
206.998817
 30
0.0
 10
518.638922
 20
206.998817
 30
0.0
  0
LWPOLYLINE
  5
16f
100
AcDbEntity
  8
Layer_1
 62
7
100
AcDbPolyline
 90
1
 70
1
 10
516.618352
 20
210.233754
 30
0.0
  0
LWPOLYLINE
  5
170
100
AcDbEntity
  8
Layer_1
 62
7
100
AcDbPolyline
 90
1
 70
1
 10
518.638922
 20
206.998817
 30
0.0
  0
SPLINE
  5
171
100
AcDbEntity
  8
Layer_1
 62
7
100
AcDbSpline
 70
8
 71
3
 72
8
 73
4
 74
0
 40
0
 40
0
 40
0
 40
0
 40
1
 40
1
 40
1
 40
1
 10
520.468251
 20
200.745937
 30
0.0
 10
520.606046
 20
201.014660
 30
0.0
 10
520.709398
 20
201.293719
 30
0.0
 10
520.778307
 20
201.583114
 30
0.0
  0
SPLINE
  5
172
100
AcDbEntity
  8
Layer_1
 62
7
100
AcDbSpline
 70
8
 71
3
 72
8
 73
4
 74
0
 40
0
 40
0
 40
0
 40
0
 40
1
 40
1
 40
1
 40
1
 10
520.778307
 20
201.583114
 30
0.0
 10
520.847217
 20
201.872509
 30
0.0
 10
520.881671
 20
202.172229
 30
0.0
 10
520.881671
 20
202.482274
 30
0.0
  0
SPLINE
  5
173
100
AcDbEntity
  8
Layer_1
 62
7
100
AcDbSpline
 70
8
 71
3
 72
8
 73
4
 74
0
 40
0
 40
0
 40
0
 40
0
 40
1
 40
1
 40
1
 40
1
 10
520.881671
 20
202.482274
 30
0.0
 10
520.881671
 20
202.954267
 30
0.0
 10
520.809317
 20
203.309114
 30
0.0
 10
520.664607
 20
203.546816
 30
0.0
  0
SPLINE
  5
174
100
AcDbEntity
  8
Layer_1
 62
7
100
AcDbSpline
 70
8
 71
3
 72
8
 73
4
 74
0
 40
0
 40
0
 40
0
 40
0
 40
1
 40
1
 40
1
 40
1
 10
520.664607
 20
203.546816
 30
0.0
 10
520.519921
 20
203.781084
 30
0.0
 10
520.302881
 20
203.898218
 30
0.0
 10
520.013485
 20
203.898218
 30
0.0
  0
SPLINE
  5
175
100
AcDbEntity
  8
Layer_1
 62
7
100
AcDbSpline
 70
8
 71
3
 72
8
 73
4
 74
0
 40
0
 40
0
 40
0
 40
0
 40
1
 40
1
 40
1
 40
1
 10
520.013485
 20
203.898218
 30
0.0
 10
519.792999
 20
203.898218
 30
0.0
 10
519.619033
 20
203.813810
 30
0.0
 10
519.491586
 20
203.644994
 30
0.0
  0
SPLINE
  5
176
100
AcDbEntity
  8
Layer_1
 62
7
100
AcDbSpline
 70
8
 71
3
 72
8
 73
4
 74
0
 40
0
 40
0
 40
0
 40
0
 40
1
 40
1
 40
1
 40
1
 10
519.491586
 20
203.644994
 30
0.0
 10
519.367549
 20
203.476178
 30
0.0
 10
519.248686
 20
203.136841
 30
0.0
 10
519.134998
 20
202.626983
 30
0.0
  0
LWPOLYLINE
  5
177
100
AcDbEntity
  8
Layer_1
 62
7
100
AcDbPolyline
 90
2
 70
0
 10
521.367411
 20
200.745937
 30
0.0
 10
520.468251
 20
200.745937
 30
0.0
  0
SPLINE
  5
178
100
AcDbEntity
  8
Layer_1
 62
7
100
AcDbSpline
 70
8
 71
3
 72
8
 73
4
 74
0
 40
0
 40
0
 40
0
 40
0
 40
1
 40
1
 40
1
 40
1
 10
519.062643
 20
202.301405
 30
0.0
 10
518.917957
 20
201.626165
 30
0.0
 10
518.712982
 20
201.147304
 30
0.0
 10
518.447716
 20
200.864823
 30
0.0
  0
SPLINE
  5
179
100
AcDbEntity
  8
Layer_1
 62
7
100
AcDbSpline
 70
8
 71
3
 72
8
 73
4
 74
0
 40
0
 40
0
 40
0
 40
0
 40
1
 40
1
 40
1
 40
1
 10
518.447716
 20
200.864823
 30
0.0
 10
518.185885
 20
200.578861
 30
0.0
 10
517.818984
 20
200.435881
 30
0.0
 10
517.347014
 20
200.435881
 30
0.0
  0
SPLINE
  5
17a
100
AcDbEntity
  8
Layer_1
 62
7
100
AcDbSpline
 70
8
 71
3
 72
8
 73
4
 74
0
 40
0
 40
0
 40
0
 40
0
 40
1
 40
1
 40
1
 40
1
 10
517.347014
 20
200.435881
 30
0.0
 10
516.809569
 20
200.435881
 30
0.0
 10
516.384096
 20
200.649476
 30
0.0
 10
516.070594
 20
201.076666
 30
0.0
  0
SPLINE
  5
17b
100
AcDbEntity
  8
Layer_1
 62
7
100
AcDbSpline
 70
8
 71
3
 72
8
 73
4
 74
0
 40
0
 40
0
 40
0
 40
0
 40
1
 40
1
 40
1
 40
1
 10
516.070594
 20
201.076666
 30
0.0
 10
515.757092
 20
201.500423
 30
0.0
 10
515.600341
 20
202.084376
 30
0.0
 10
515.600341
 20
202.828525
 30
0.0
  0
SPLINE
  5
17c
100
AcDbEntity
  8
Layer_1
 62
7
100
AcDbSpline
 70
8
 71
3
 72
8
 73
4
 74
0
 40
0
 40
0
 40
0
 40
0
 40
1
 40
1
 40
1
 40
1
 10
515.600341
 20
202.828525
 30
0.0
 10
515.600341
 20
203.138570
 30
0.0
 10
515.631350
 20
203.462408
 30
0.0
 10
515.693369
 20
203.800040
 30
0.0
  0
SPLINE
  5
17d
100
AcDbEntity
  8
Layer_1
 62
7
100
AcDbSpline
 70
8
 71
3
 72
8
 73
4
 74
0
 40
0
 40
0
 40
0
 40
0
 40
1
 40
1
 40
1
 40
1
 10
515.693369
 20
203.800040
 30
0.0
 10
515.751930
 20
204.134215
 30
0.0
 10
515.841500
 20
204.487333
 30
0.0
 10
515.962079
 20
204.859396
 30
0.0
  0
LWPOLYLINE
  5
17e
100
AcDbEntity
  8
Layer_1
 62
7
100
AcDbPolyline
 90
2
 70
0
 10
519.134998
 20
202.626983
 30
0.0
 10
519.062643
 20
202.301405
 30
0.0
  0
SPLINE
  5
17f
100
AcDbEntity
  8
Layer_1
 62
7
100
AcDbSpline
 70
8
 71
3
 72
8
 73
4
 74
0
 40
0
 40
0
 40
0
 40
0
 40
1
 40
1
 40
1
 40
1
 10
516.943931
 20
204.859396
 30
0.0
 10
516.761333
 20
204.508006
 30
0.0
 10
516.623526
 20
204.161778
 30
0.0
 10
516.530510
 20
203.820713
 30
0.0
  0
SPLINE
  5
180
100
AcDbEntity
  8
Layer_1
 62
7
100
AcDbSpline
 70
8
 71
3
 72
8
 73
4
 74
0
 40
0
 40
0
 40
0
 40
0
 40
1
 40
1
 40
1
 40
1
 10
516.530510
 20
203.820713
 30
0.0
 10
516.440928
 20
203.479647
 30
0.0
 10
516.396137
 20
203.142027
 30
0.0
 10
516.396137
 20
202.807852
 30
0.0
  0
SPLINE
  5
181
100
AcDbEntity
  8
Layer_1
 62
7
100
AcDbSpline
 70
8
 71
3
 72
8
 73
4
 74
0
 40
0
 40
0
 40
0
 40
0
 40
1
 40
1
 40
1
 40
1
 10
516.396137
 20
202.807852
 30
0.0
 10
516.396137
 20
202.359989
 30
0.0
 10
516.471937
 20
202.015478
 30
0.0
 10
516.623538
 20
201.774319
 30
0.0
  0
SPLINE
  5
182
100
AcDbEntity
  8
Layer_1
 62
7
100
AcDbSpline
 70
8
 71
3
 72
8
 73
4
 74
0
 40
0
 40
0
 40
0
 40
0
 40
1
 40
1
 40
1
 40
1
 10
516.623538
 20
201.774319
 30
0.0
 10
516.778548
 20
201.533161
 30
0.0
 10
516.995589
 20
201.412581
 30
0.0
 10
517.274660
 20
201.412581
 30
0.0
  0
SPLINE
  5
183
100
AcDbEntity
  8
Layer_1
 62
7
100
AcDbSpline
 70
8
 71
3
 72
8
 73
4
 74
0
 40
0
 40
0
 40
0
 40
0
 40
1
 40
1
 40
1
 40
1
 10
517.274660
 20
201.412581
 30
0.0
 10
517.533034
 20
201.412581
 30
0.0
 10
517.731119
 20
201.500435
 30
0.0
 10
517.868914
 20
201.676141
 30
0.0
  0
SPLINE
  5
184
100
AcDbEntity
  8
Layer_1
 62
7
100
AcDbSpline
 70
8
 71
3
 72
8
 73
4
 74
0
 40
0
 40
0
 40
0
 40
0
 40
1
 40
1
 40
1
 40
1
 10
517.868914
 20
201.676141
 30
0.0
 10
518.006732
 20
201.848391
 30
0.0
 10
518.139377
 20
202.229074
 30
0.0
 10
518.266847
 20
202.818189
 30
0.0
  0
LWPOLYLINE
  5
185
100
AcDbEntity
  8
Layer_1
 62
7
100
AcDbPolyline
 90
2
 70
0
 10
515.962079
 20
204.859396
 30
0.0
 10
516.943931
 20
204.859396
 30
0.0
  0
SPLINE
  5
186
100
AcDbEntity
  8
Layer_1
 62
7
100
AcDbSpline
 70
8
 71
3
 72
8
 73
4
 74
0
 40
0
 40
0
 40
0
 40
0
 40
1
 40
1
 40
1
 40
1
 10
518.344352
 20
203.148918
 30
0.0
 10
518.468366
 20
203.738010
 30
0.0
 10
518.657843
 20
204.163472
 30
0.0
 10
518.912783
 20
204.425303
 30
0.0
  0
SPLINE
  5
187
100
AcDbEntity
  8
Layer_1
 62
7
100
AcDbSpline
 70
8
 71
3
 72
8
 73
4
 74
0
 40
0
 40
0
 40
0
 40
0
 40
1
 40
1
 40
1
 40
1
 10
518.912783
 20
204.425303
 30
0.0
 10
519.171181
 20
204.687135
 30
0.0
 10
519.524312
 20
204.818051
 30
0.0
 10
519.972175
 20
204.818051
 30
0.0
  0
SPLINE
  5
188
100
AcDbEntity
  8
Layer_1
 62
7
100
AcDbSpline
 70
8
 71
3
 72
8
 73
4
 74
0
 40
0
 40
0
 40
0
 40
0
 40
1
 40
1
 40
1
 40
1
 10
519.972175
 20
204.818051
 30
0.0
 10
520.516487
 20
204.818051
 30
0.0
 10
520.936787
 20
204.625128
 30
0.0
 10
521.233073
 20
204.239284
 30
0.0
  0
SPLINE
  5
189
100
AcDbEntity
  8
Layer_1
 62
7
100
AcDbSpline
 70
8
 71
3
 72
8
 73
4
 74
0
 40
0
 40
0
 40
0
 40
0
 40
1
 40
1
 40
1
 40
1
 10
521.233073
 20
204.239284
 30
0.0
 10
521.529336
 20
203.853439
 30
0.0
 10
521.677467
 20
203.305669
 30
0.0
 10
521.677467
 20
202.595974
 30
0.0
  0
SPLINE
  5
18a
100
AcDbEntity
  8
Layer_1
 62
7
100
AcDbSpline
 70
8
 71
3
 72
8
 73
4
 74
0
 40
0
 40
0
 40
0
 40
0
 40
1
 40
1
 40
1
 40
1
 10
521.677467
 20
202.595974
 30
0.0
 10
521.677467
 20
202.244560
 30
0.0
 10
521.651632
 20
201.913831
 30
0.0
 10
521.599962
 20
201.603787
 30
0.0
  0
SPLINE
  5
18b
100
AcDbEntity
  8
Layer_1
 62
7
100
AcDbSpline
 70
8
 71
3
 72
8
 73
4
 74
0
 40
0
 40
0
 40
0
 40
0
 40
1
 40
1
 40
1
 40
1
 10
521.599962
 20
201.603787
 30
0.0
 10
521.548292
 20
201.293719
 30
0.0
 10
521.470775
 20
201.007769
 30
0.0
 10
521.367411
 20
200.745937
 30
0.0
  0
LWPOLYLINE
  5
18c
100
AcDbEntity
  8
Layer_1
 62
7
100
AcDbPolyline
 90
2
 70
0
 10
518.266847
 20
202.818189
 30
0.0
 10
518.344352
 20
203.148918
 30
0.0
  0
LWPOLYLINE
  5
18d
100
AcDbEntity
  8
Layer_1
 62
7
100
AcDbPolyline
 90
1
 70
1
 10
521.367411
 20
200.745937
 30
0.0
  0
LWPOLYLINE
  5
18e
100
AcDbEntity
  8
Layer_1
 62
7
100
AcDbPolyline
 90
4
 70
1
 10
517.062781
 20
198.673720
 30
0.0
 10
517.062781
 20
197.583355
 30
0.0
 10
515.750201
 20
197.583355
 30
0.0
 10
515.750201
 20
198.673720
 30
0.0
  0
LWPOLYLINE
  5
18f
100
AcDbEntity
  8
Layer_1
 62
7
100
AcDbPolyline
 90
4
 70
1
 10
521.222737
 20
198.673720
 30
0.0
 10
521.222737
 20
197.583355
 30
0.0
 10
519.910157
 20
197.583355
 30
0.0
 10
519.910157
 20
198.673720
 30
0.0
  0
LWPOLYLINE
  5
190
100
AcDbEntity
  8
Layer_1
 62
7
100
AcDbPolyline
 90
4
 70
1
 10
523.465486
 20
193.650765
 30
0.0
 10
523.465486
 20
192.772277
 30
0.0
 10
514.768350
 20
195.459456
 30
0.0
 10
514.768350
 20
196.337943
 30
0.0
  0
LWPOLYLINE
  5
191
100
AcDbEntity
  8
Layer_1
 62
7
100
AcDbPolyline
 90
4
 70
1
 10
523.465486
 20
190.074762
 30
0.0
 10
523.465486
 20
189.196275
 30
0.0
 10
514.768350
 20
191.883454
 30
0.0
 10
514.768350
 20
192.761941
 30
0.0
  0
LWPOLYLINE
  5
192
100
AcDbEntity
  8
Layer_1
 62
7
100
AcDbPolyline
 90
11
 70
1
 10
523.791065
 20
188.224760
 30
0.0
 10
523.791065
 20
187.268733
 30
0.0
 10
519.041970
 20
187.268733
 30
0.0
 10
521.537944
 20
184.431694
 30
0.0
 10
521.537944
 20
183.217292
 30
0.0
 10
518.830127
 20
186.286881
 30
0.0
 10
515.750201
 20
183.088104
 30
0.0
 10
515.750201
 20
184.328365
 30
0.0
 10
518.576904
 20
187.268733
 30
0.0
 10
515.750201
 20
187.268733
 30
0.0
 10
515.750201
 20
188.224760
 30
0.0
  0
LWPOLYLINE
  5
193
100
AcDbEntity
  8
Layer_1
 62
7
100
AcDbPolyline
 90
4
 70
1
 10
521.537944
 20
182.049421
 30
0.0
 10
521.537944
 20
181.098579
 30
0.0
 10
515.750201
 20
181.098579
 30
0.0
 10
515.750201
 20
182.049421
 30
0.0
  0
LWPOLYLINE
  5
194
100
AcDbEntity
  8
Layer_1
 62
7
100
AcDbPolyline
 90
4
 70
1
 10
523.791065
 20
182.049421
 30
0.0
 10
523.791065
 20
181.098579
 30
0.0
 10
522.586999
 20
181.098579
 30
0.0
 10
522.586999
 20
182.049421
 30
0.0
  0
LWPOLYLINE
  5
195
100
AcDbEntity
  8
Layer_1
 62
7
100
AcDbPolyline
 90
11
 70
1
 10
523.791065
 20
179.150364
 30
0.0
 10
523.791065
 20
178.194371
 30
0.0
 10
519.041970
 20
178.194371
 30
0.0
 10
521.537944
 20
175.357332
 30
0.0
 10
521.537944
 20
174.142930
 30
0.0
 10
518.830127
 20
177.212520
 30
0.0
 10
515.750201
 20
174.013743
 30
0.0
 10
515.750201
 20
175.253968
 30
0.0
 10
518.576904
 20
178.194371
 30
0.0
 10
515.750201
 20
178.194371
 30
0.0
 10
515.750201
 20
179.150364
 30
0.0
  0
LWPOLYLINE
  5
196
100
AcDbEntity
  8
Layer_1
 62
7
100
AcDbPolyline
 90
4
 70
1
 10
517.062781
 20
172.840686
 30
0.0
 10
517.062781
 20
171.750321
 30
0.0
 10
515.750201
 20
171.750321
 30
0.0
 10
515.750201
 20
172.840686
 30
0.0
  0
SPLINE
  5
197
100
AcDbEntity
  8
Layer_1
 62
7
100
AcDbSpline
 70
8
 71
3
 72
8
 73
4
 74
0
 40
0
 40
0
 40
0
 40
0
 40
1
 40
1
 40
1
 40
1
 10
517.657071
 20
168.665209
 30
0.0
 10
517.185078
 20
168.665209
 30
0.0
 10
516.881900
 20
168.601473
 30
0.0
 10
516.747539
 20
168.474003
 30
0.0
  0
SPLINE
  5
198
100
AcDbEntity
  8
Layer_1
 62
7
100
AcDbSpline
 70
8
 71
3
 72
8
 73
4
 74
0
 40
0
 40
0
 40
0
 40
0
 40
1
 40
1
 40
1
 40
1
 10
516.747539
 20
168.474003
 30
0.0
 10
516.613178
 20
168.343099
 30
0.0
 10
516.545997
 20
168.079550
 30
0.0
 10
516.545997
 20
167.683357
 30
0.0
  0
LWPOLYLINE
  5
199
100
AcDbEntity
  8
Layer_1
 62
7
100
AcDbPolyline
 90
6
 70
0
 10
523.181253
 20
168.665209
 30
0.0
 10
521.537944
 20
168.665209
 30
0.0
 10
521.537944
 20
166.706692
 30
0.0
 10
520.798980
 20
166.706692
 30
0.0
 10
520.798980
 20
168.665209
 30
0.0
 10
517.657071
 20
168.665209
 30
0.0
  0
SPLINE
  5
19a
100
AcDbEntity
  8
Layer_1
 62
7
100
AcDbSpline
 70
8
 71
3
 72
8
 73
4
 74
0
 40
0
 40
0
 40
0
 40
0
 40
1
 40
1
 40
1
 40
1
 10
515.750201
 20
167.683357
 30
0.0
 10
515.750201
 20
168.417182
 30
0.0
 10
515.886279
 20
168.923618
 30
0.0
 10
516.158436
 20
169.202665
 30
0.0
  0
SPLINE
  5
19b
100
AcDbEntity
  8
Layer_1
 62
7
100
AcDbSpline
 70
8
 71
3
 72
8
 73
4
 74
0
 40
0
 40
0
 40
0
 40
0
 40
1
 40
1
 40
1
 40
1
 10
516.158436
 20
169.202665
 30
0.0
 10
516.434049
 20
169.481713
 30
0.0
 10
516.933594
 20
169.621236
 30
0.0
 10
517.657071
 20
169.621236
 30
0.0
  0
LWPOLYLINE
  5
19c
100
AcDbEntity
  8
Layer_1
 62
7
100
AcDbPolyline
 90
4
 70
0
 10
516.545997
 20
167.683357
 30
0.0
 10
516.545997
 20
166.706692
 30
0.0
 10
515.750201
 20
166.706692
 30
0.0
 10
515.750201
 20
167.683357
 30
0.0
  0
SPLINE
  5
19d
100
AcDbEntity
  8
Layer_1
 62
7
100
AcDbSpline
 70
8
 71
3
 72
8
 73
4
 74
0
 40
0
 40
0
 40
0
 40
0
 40
1
 40
1
 40
1
 40
1
 10
520.871335
 20
163.208195
 30
0.0
 10
520.871335
 20
163.718076
 30
0.0
 10
520.671522
 20
164.121149
 30
0.0
 10
520.271895
 20
164.417411
 30
0.0
  0
SPLINE
  5
19e
100
AcDbEntity
  8
Layer_1
 62
7
100
AcDbSpline
 70
8
 71
3
 72
8
 73
4
 74
0
 40
0
 40
0
 40
0
 40
0
 40
1
 40
1
 40
1
 40
1
 10
520.271895
 20
164.417411
 30
0.0
 10
519.875702
 20
164.713698
 30
0.0
 10
519.331378
 20
164.861841
 30
0.0
 10
518.638922
 20
164.861841
 30
0.0
  0
SPLINE
  5
19f
100
AcDbEntity
  8
Layer_1
 62
7
100
AcDbSpline
 70
8
 71
3
 72
8
 73
4
 74
0
 40
0
 40
0
 40
0
 40
0
 40
1
 40
1
 40
1
 40
1
 10
518.638922
 20
164.861841
 30
0.0
 10
517.946443
 20
164.861841
 30
0.0
 10
517.400390
 20
164.715426
 30
0.0
 10
517.000763
 20
164.422597
 30
0.0
  0
SPLINE
  5
1a0
100
AcDbEntity
  8
Layer_1
 62
7
100
AcDbSpline
 70
8
 71
3
 72
8
 73
4
 74
0
 40
0
 40
0
 40
0
 40
0
 40
1
 40
1
 40
1
 40
1
 10
517.000763
 20
164.422597
 30
0.0
 10
516.604570
 20
164.126311
 30
0.0
 10
516.406474
 20
163.721510
 30
0.0
 10
516.406474
 20
163.208195
 30
0.0
  0
SPLINE
  5
1a1
100
AcDbEntity
  8
Layer_1
 62
7
100
AcDbSpline
 70
8
 71
3
 72
8
 73
4
 74
0
 40
0
 40
0
 40
0
 40
0
 40
1
 40
1
 40
1
 40
1
 10
516.406474
 20
163.208195
 30
0.0
 10
516.406474
 20
162.701771
 30
0.0
 10
516.606299
 20
162.300415
 30
0.0
 10
517.005949
 20
162.004129
 30
0.0
  0
SPLINE
  5
1a2
100
AcDbEntity
  8
Layer_1
 62
7
100
AcDbSpline
 70
8
 71
3
 72
8
 73
4
 74
0
 40
0
 40
0
 40
0
 40
0
 40
1
 40
1
 40
1
 40
1
 10
517.005949
 20
162.004129
 30
0.0
 10
517.405576
 20
161.707843
 30
0.0
 10
517.949900
 20
161.559700
 30
0.0
 10
518.638922
 20
161.559700
 30
0.0
  0
SPLINE
  5
1a3
100
AcDbEntity
  8
Layer_1
 62
7
100
AcDbSpline
 70
8
 71
3
 72
8
 73
4
 74
0
 40
0
 40
0
 40
0
 40
0
 40
1
 40
1
 40
1
 40
1
 10
518.638922
 20
161.559700
 30
0.0
 10
519.324487
 20
161.559700
 30
0.0
 10
519.867082
 20
161.707843
 30
0.0
 10
520.266709
 20
162.004129
 30
0.0
  0
SPLINE
  5
1a4
100
AcDbEntity
  8
Layer_1
 62
7
100
AcDbSpline
 70
8
 71
3
 72
8
 73
4
 74
0
 40
0
 40
0
 40
0
 40
0
 40
1
 40
1
 40
1
 40
1
 10
520.266709
 20
162.004129
 30
0.0
 10
520.669793
 20
162.300415
 30
0.0
 10
520.871335
 20
162.701771
 30
0.0
 10
520.871335
 20
163.208195
 30
0.0
  0
LWPOLYLINE
  5
1a5
100
AcDbEntity
  8
Layer_1
 62
7
100
AcDbPolyline
 90
7
 70
0
 10
517.657071
 20
169.621236
 30
0.0
 10
520.798980
 20
169.621236
 30
0.0
 10
520.798980
 20
170.318854
 30
0.0
 10
521.537944
 20
170.318854
 30
0.0
 10
521.537944
 20
169.621236
 30
0.0
 10
523.181253
 20
169.621236
 30
0.0
 10
523.181253
 20
168.665209
 30
0.0
  0
SPLINE
  5
1a6
100
AcDbEntity
  8
Layer_1
 62
7
100
AcDbSpline
 70
8
 71
3
 72
8
 73
4
 74
0
 40
0
 40
0
 40
0
 40
0
 40
1
 40
1
 40
1
 40
1
 10
521.677467
 20
163.208195
 30
0.0
 10
521.677467
 20
162.381378
 30
0.0
 10
521.408757
 20
161.731973
 30
0.0
 10
520.871335
 20
161.259980
 30
0.0
  0
SPLINE
  5
1a7
100
AcDbEntity
  8
Layer_1
 62
7
100
AcDbSpline
 70
8
 71
3
 72
8
 73
4
 74
0
 40
0
 40
0
 40
0
 40
0
 40
1
 40
1
 40
1
 40
1
 10
520.871335
 20
161.259980
 30
0.0
 10
520.333890
 20
160.788010
 30
0.0
 10
519.589752
 20
160.552025
 30
0.0
 10
518.638922
 20
160.552025
 30
0.0
  0
SPLINE
  5
1a8
100
AcDbEntity
  8
Layer_1
 62
7
100
AcDbSpline
 70
8
 71
3
 72
8
 73
4
 74
0
 40
0
 40
0
 40
0
 40
0
 40
1
 40
1
 40
1
 40
1
 10
518.638922
 20
160.552025
 30
0.0
 10
517.691502
 20
160.552025
 30
0.0
 10
516.947352
 20
160.788010
 30
0.0
 10
516.406474
 20
161.259980
 30
0.0
  0
SPLINE
  5
1a9
100
AcDbEntity
  8
Layer_1
 62
7
100
AcDbSpline
 70
8
 71
3
 72
8
 73
4
 74
0
 40
0
 40
0
 40
0
 40
0
 40
1
 40
1
 40
1
 40
1
 10
516.406474
 20
161.259980
 30
0.0
 10
515.869052
 20
161.731973
 30
0.0
 10
515.600341
 20
162.381378
 30
0.0
 10
515.600341
 20
163.208195
 30
0.0
  0
SPLINE
  5
1aa
100
AcDbEntity
  8
Layer_1
 62
7
100
AcDbSpline
 70
8
 71
3
 72
8
 73
4
 74
0
 40
0
 40
0
 40
0
 40
0
 40
1
 40
1
 40
1
 40
1
 10
515.600341
 20
163.208195
 30
0.0
 10
515.600341
 20
164.038469
 30
0.0
 10
515.869052
 20
164.689591
 30
0.0
 10
516.406474
 20
165.161561
 30
0.0
  0
SPLINE
  5
1ab
100
AcDbEntity
  8
Layer_1
 62
7
100
AcDbSpline
 70
8
 71
3
 72
8
 73
4
 74
0
 40
0
 40
0
 40
0
 40
0
 40
1
 40
1
 40
1
 40
1
 10
516.406474
 20
165.161561
 30
0.0
 10
516.947352
 20
165.630097
 30
0.0
 10
517.691502
 20
165.864365
 30
0.0
 10
518.638922
 20
165.864365
 30
0.0
  0
SPLINE
  5
1ac
100
AcDbEntity
  8
Layer_1
 62
7
100
AcDbSpline
 70
8
 71
3
 72
8
 73
4
 74
0
 40
0
 40
0
 40
0
 40
0
 40
1
 40
1
 40
1
 40
1
 10
518.638922
 20
165.864365
 30
0.0
 10
519.589752
 20
165.864365
 30
0.0
 10
520.333890
 20
165.630097
 30
0.0
 10
520.871335
 20
165.161561
 30
0.0
  0
SPLINE
  5
1ad
100
AcDbEntity
  8
Layer_1
 62
7
100
AcDbSpline
 70
8
 71
3
 72
8
 73
4
 74
0
 40
0
 40
0
 40
0
 40
0
 40
1
 40
1
 40
1
 40
1
 10
520.871335
 20
165.161561
 30
0.0
 10
521.408757
 20
164.689591
 30
0.0
 10
521.677467
 20
164.038469
 30
0.0
 10
521.677467
 20
163.208195
 30
0.0
  0
LWPOLYLINE
  5
1ae
100
AcDbEntity
  8
Layer_1
 62
7
100
AcDbPolyline
 90
1
 70
1
 10
520.871335
 20
163.208195
 30
0.0
  0
LWPOLYLINE
  5
1af
100
AcDbEntity
  8
Layer_1
 62
7
100
AcDbPolyline
 90
1
 70
1
 10
521.677467
 20
163.208195
 30
0.0
  0
LWPOLYLINE
  5
1b0
100
AcDbEntity
  8
Layer_1
 62
7
100
AcDbPolyline
 90
4
 70
1
 10
523.465486
 20
157.291230
 30
0.0
 10
523.465486
 20
156.412743
 30
0.0
 10
514.768350
 20
159.099921
 30
0.0
 10
514.768350
 20
159.978409
 30
0.0
  0
SPLINE
  5
1b1
100
AcDbEntity
  8
Layer_1
 62
7
100
AcDbSpline
 70
8
 71
3
 72
8
 73
4
 74
0
 40
0
 40
0
 40
0
 40
0
 40
1
 40
1
 40
1
 40
1
 10
518.416707
 20
154.826266
 30
0.0
 10
517.762140
 20
154.784920
 30
0.0
 10
517.262595
 20
154.588552
 30
0.0
 10
516.918072
 20
154.237162
 30
0.0
  0
SPLINE
  5
1b2
100
AcDbEntity
  8
Layer_1
 62
7
100
AcDbSpline
 70
8
 71
3
 72
8
 73
4
 74
0
 40
0
 40
0
 40
0
 40
0
 40
1
 40
1
 40
1
 40
1
 10
516.918072
 20
154.237162
 30
0.0
 10
516.577006
 20
153.882315
 30
0.0
 10
516.406474
 20
153.389672
 30
0.0
 10
516.406474
 20
152.759235
 30
0.0
  0
SPLINE
  5
1b3
100
AcDbEntity
  8
Layer_1
 62
7
100
AcDbSpline
 70
8
 71
3
 72
8
 73
4
 74
0
 40
0
 40
0
 40
0
 40
0
 40
1
 40
1
 40
1
 40
1
 10
516.406474
 20
152.759235
 30
0.0
 10
516.406474
 20
152.394039
 30
0.0
 10
516.451265
 20
152.040909
 30
0.0
 10
516.540847
 20
151.699843
 30
0.0
  0
SPLINE
  5
1b4
100
AcDbEntity
  8
Layer_1
 62
7
100
AcDbSpline
 70
8
 71
3
 72
8
 73
4
 74
0
 40
0
 40
0
 40
0
 40
0
 40
1
 40
1
 40
1
 40
1
 10
516.540847
 20
151.699843
 30
0.0
 10
516.630429
 20
151.355344
 30
0.0
 10
516.764790
 20
151.014279
 30
0.0
 10
516.943931
 20
150.676647
 30
0.0
  0
LWPOLYLINE
  5
1b5
100
AcDbEntity
  8
Layer_1
 62
7
100
AcDbPolyline
 90
3
 70
0
 10
518.881774
 20
150.454432
 30
0.0
 10
518.416707
 20
150.454432
 30
0.0
 10
518.416707
 20
154.826266
 30
0.0
  0
SPLINE
  5
1b6
100
AcDbEntity
  8
Layer_1
 62
7
100
AcDbSpline
 70
8
 71
3
 72
8
 73
4
 74
0
 40
0
 40
0
 40
0
 40
0
 40
1
 40
1
 40
1
 40
1
 10
516.044735
 20
150.676647
 30
0.0
 10
515.900049
 20
151.017712
 30
0.0
 10
515.789806
 20
151.367397
 30
0.0
 10
515.714006
 20
151.725702
 30
0.0
  0
SPLINE
  5
1b7
100
AcDbEntity
  8
Layer_1
 62
7
100
AcDbSpline
 70
8
 71
3
 72
8
 73
4
 74
0
 40
0
 40
0
 40
0
 40
0
 40
1
 40
1
 40
1
 40
1
 10
515.714006
 20
151.725702
 30
0.0
 10
515.638229
 20
152.083983
 30
0.0
 10
515.600341
 20
152.447438
 30
0.0
 10
515.600341
 20
152.816067
 30
0.0
  0
SPLINE
  5
1b8
100
AcDbEntity
  8
Layer_1
 62
7
100
AcDbSpline
 70
8
 71
3
 72
8
 73
4
 74
0
 40
0
 40
0
 40
0
 40
0
 40
1
 40
1
 40
1
 40
1
 10
515.600341
 20
152.816067
 30
0.0
 10
515.600341
 20
153.739357
 30
0.0
 10
515.869052
 20
154.471442
 30
0.0
 10
516.406474
 20
155.012321
 30
0.0
  0
SPLINE
  5
1b9
100
AcDbEntity
  8
Layer_1
 62
7
100
AcDbSpline
 70
8
 71
3
 72
8
 73
4
 74
0
 40
0
 40
0
 40
0
 40
0
 40
1
 40
1
 40
1
 40
1
 10
516.406474
 20
155.012321
 30
0.0
 10
516.943919
 20
155.549742
 30
0.0
 10
517.670841
 20
155.818453
 30
0.0
 10
518.587240
 20
155.818453
 30
0.0
  0
SPLINE
  5
1ba
100
AcDbEntity
  8
Layer_1
 62
7
100
AcDbSpline
 70
8
 71
3
 72
8
 73
4
 74
0
 40
0
 40
0
 40
0
 40
0
 40
1
 40
1
 40
1
 40
1
 10
518.587240
 20
155.818453
 30
0.0
 10
519.534636
 20
155.818453
 30
0.0
 10
520.285665
 20
155.563524
 30
0.0
 10
520.840326
 20
155.053666
 30
0.0
  0
SPLINE
  5
1bb
100
AcDbEntity
  8
Layer_1
 62
7
100
AcDbSpline
 70
8
 71
3
 72
8
 73
4
 74
0
 40
0
 40
0
 40
0
 40
0
 40
1
 40
1
 40
1
 40
1
 10
520.840326
 20
155.053666
 30
0.0
 10
521.398420
 20
154.540328
 30
0.0
 10
521.677467
 20
153.849577
 30
0.0
 10
521.677467
 20
152.981414
 30
0.0
  0
SPLINE
  5
1bc
100
AcDbEntity
  8
Layer_1
 62
7
100
AcDbSpline
 70
8
 71
3
 72
8
 73
4
 74
0
 40
0
 40
0
 40
0
 40
0
 40
1
 40
1
 40
1
 40
1
 10
521.677467
 20
152.981414
 30
0.0
 10
521.677467
 20
152.202834
 30
0.0
 10
521.425984
 20
151.587883
 30
0.0
 10
520.923017
 20
151.136563
 30
0.0
  0
SPLINE
  5
1bd
100
AcDbEntity
  8
Layer_1
 62
7
100
AcDbSpline
 70
8
 71
3
 72
8
 73
4
 74
0
 40
0
 40
0
 40
0
 40
0
 40
1
 40
1
 40
1
 40
1
 10
520.923017
 20
151.136563
 30
0.0
 10
520.423460
 20
150.681809
 30
0.0
 10
519.743046
 20
150.454432
 30
0.0
 10
518.881774
 20
150.454432
 30
0.0
  0
LWPOLYLINE
  5
1be
100
AcDbEntity
  8
Layer_1
 62
7
100
AcDbPolyline
 90
2
 70
0
 10
516.943931
 20
150.676647
 30
0.0
 10
516.044735
 20
150.676647
 30
0.0
  0
SPLINE
  5
1bf
100
AcDbEntity
  8
Layer_1
 62
7
100
AcDbSpline
 70
8
 71
3
 72
8
 73
4
 74
0
 40
0
 40
0
 40
0
 40
0
 40
1
 40
1
 40
1
 40
1
 10
519.160857
 20
151.405309
 30
0.0
 10
519.681063
 20
151.412130
 30
0.0
 10
520.096188
 20
151.558544
 30
0.0
 10
520.406233
 20
151.844553
 30
0.0
  0
SPLINE
  5
1c0
100
AcDbEntity
  8
Layer_1
 62
7
100
AcDbSpline
 70
8
 71
3
 72
8
 73
4
 74
0
 40
0
 40
0
 40
0
 40
0
 40
1
 40
1
 40
1
 40
1
 10
520.406233
 20
151.844553
 30
0.0
 10
520.716301
 20
152.127034
 30
0.0
 10
520.871335
 20
152.502542
 30
0.0
 10
520.871335
 20
152.971078
 30
0.0
  0
SPLINE
  5
1c1
100
AcDbEntity
  8
Layer_1
 62
7
100
AcDbSpline
 70
8
 71
3
 72
8
 73
4
 74
0
 40
0
 40
0
 40
0
 40
0
 40
1
 40
1
 40
1
 40
1
 10
520.871335
 20
152.971078
 30
0.0
 10
520.871335
 20
153.501632
 30
0.0
 10
520.721475
 20
153.927106
 30
0.0
 10
520.421755
 20
154.247499
 30
0.0
  0
SPLINE
  5
1c2
100
AcDbEntity
  8
Layer_1
 62
7
100
AcDbSpline
 70
8
 71
3
 72
8
 73
4
 74
0
 40
0
 40
0
 40
0
 40
0
 40
1
 40
1
 40
1
 40
1
 10
520.421755
 20
154.247499
 30
0.0
 10
520.122035
 20
154.564458
 30
0.0
 10
519.700007
 20
154.747044
 30
0.0
 10
519.155671
 20
154.795257
 30
0.0
  0
LWPOLYLINE
  5
1c3
100
AcDbEntity
  8
Layer_1
 62
7
100
AcDbPolyline
 90
1
 70
1
 10
518.881774
 20
150.454432
 30
0.0
  0
SPLINE
  5
1c4
100
AcDbEntity
  8
Layer_1
 62
7
100
AcDbSpline
 70
8
 71
3
 72
8
 73
4
 74
0
 40
0
 40
0
 40
0
 40
0
 40
1
 40
1
 40
1
 40
1
 10
518.659595
 20
146.263503
 30
0.0
 10
518.659595
 20
147.031759
 30
0.0
 10
518.571741
 20
147.564018
 30
0.0
 10
518.396034
 20
147.860281
 30
0.0
  0
SPLINE
  5
1c5
100
AcDbEntity
  8
Layer_1
 62
7
100
AcDbSpline
 70
8
 71
3
 72
8
 73
4
 74
0
 40
0
 40
0
 40
0
 40
0
 40
1
 40
1
 40
1
 40
1
 10
518.396034
 20
147.860281
 30
0.0
 10
518.220328
 20
148.156567
 30
0.0
 10
517.920608
 20
148.304710
 30
0.0
 10
517.496874
 20
148.304710
 30
0.0
  0
SPLINE
  5
1c6
100
AcDbEntity
  8
Layer_1
 62
7
100
AcDbSpline
 70
8
 71
3
 72
8
 73
4
 74
0
 40
0
 40
0
 40
0
 40
0
 40
1
 40
1
 40
1
 40
1
 10
517.496874
 20
148.304710
 30
0.0
 10
517.159243
 20
148.304710
 30
0.0
 10
516.890520
 20
148.194467
 30
0.0
 10
516.690707
 20
147.973981
 30
0.0
  0
SPLINE
  5
1c7
100
AcDbEntity
  8
Layer_1
 62
7
100
AcDbSpline
 70
8
 71
3
 72
8
 73
4
 74
0
 40
0
 40
0
 40
0
 40
0
 40
1
 40
1
 40
1
 40
1
 10
516.690707
 20
147.973981
 30
0.0
 10
516.494327
 20
147.750038
 30
0.0
 10
516.396137
 20
147.446872
 30
0.0
 10
516.396137
 20
147.064485
 30
0.0
  0
SPLINE
  5
1c8
100
AcDbEntity
  8
Layer_1
 62
7
100
AcDbSpline
 70
8
 71
3
 72
8
 73
4
 74
0
 40
0
 40
0
 40
0
 40
0
 40
1
 40
1
 40
1
 40
1
 10
516.396137
 20
147.064485
 30
0.0
 10
516.396137
 20
146.537388
 30
0.0
 10
516.582180
 20
146.115359
 30
0.0
 10
516.954267
 20
145.798400
 30
0.0
  0
SPLINE
  5
1c9
100
AcDbEntity
  8
Layer_1
 62
7
100
AcDbSpline
 70
8
 71
3
 72
8
 73
4
 74
0
 40
0
 40
0
 40
0
 40
0
 40
1
 40
1
 40
1
 40
1
 10
516.954267
 20
145.798400
 30
0.0
 10
517.329764
 20
145.478008
 30
0.0
 10
517.827580
 20
145.317811
 30
0.0
 10
518.447716
 20
145.317811
 30
0.0
  0
LWPOLYLINE
  5
1ca
100
AcDbEntity
  8
Layer_1
 62
7
100
AcDbPolyline
 90
2
 70
0
 10
519.155671
 20
154.795257
 30
0.0
 10
519.160857
 20
151.405309
 30
0.0
  0
LWPOLYLINE
  5
1cb
100
AcDbEntity
  8
Layer_1
 62
7
100
AcDbPolyline
 90
3
 70
0
 10
518.447716
 20
145.317811
 30
0.0
 10
518.659595
 20
145.317811
 30
0.0
 10
518.659595
 20
146.263503
 30
0.0
  0
SPLINE
  5
1cc
100
AcDbEntity
  8
Layer_1
 62
7
100
AcDbSpline
 70
8
 71
3
 72
8
 73
4
 74
0
 40
0
 40
0
 40
0
 40
0
 40
1
 40
1
 40
1
 40
1
 10
516.628688
 20
145.317811
 30
0.0
 10
516.277298
 20
145.534864
 30
0.0
 10
516.017195
 20
145.805303
 30
0.0
 10
515.848379
 20
146.129130
 30
0.0
  0
SPLINE
  5
1cd
100
AcDbEntity
  8
Layer_1
 62
7
100
AcDbSpline
 70
8
 71
3
 72
8
 73
4
 74
0
 40
0
 40
0
 40
0
 40
0
 40
1
 40
1
 40
1
 40
1
 10
515.848379
 20
146.129130
 30
0.0
 10
515.683020
 20
146.452980
 30
0.0
 10
515.600341
 20
146.849161
 30
0.0
 10
515.600341
 20
147.317673
 30
0.0
  0
SPLINE
  5
1ce
100
AcDbEntity
  8
Layer_1
 62
7
100
AcDbSpline
 70
8
 71
3
 72
8
 73
4
 74
0
 40
0
 40
0
 40
0
 40
0
 40
1
 40
1
 40
1
 40
1
 10
515.600341
 20
147.317673
 30
0.0
 10
515.600341
 20
147.910246
 30
0.0
 10
515.765700
 20
148.382227
 30
0.0
 10
516.096417
 20
148.733617
 30
0.0
  0
SPLINE
  5
1cf
100
AcDbEntity
  8
Layer_1
 62
7
100
AcDbSpline
 70
8
 71
3
 72
8
 73
4
 74
0
 40
0
 40
0
 40
0
 40
0
 40
1
 40
1
 40
1
 40
1
 10
516.096417
 20
148.733617
 30
0.0
 10
516.430592
 20
149.081574
 30
0.0
 10
516.876738
 20
149.255552
 30
0.0
 10
517.434856
 20
149.255552
 30
0.0
  0
SPLINE
  5
1d0
100
AcDbEntity
  8
Layer_1
 62
7
100
AcDbSpline
 70
8
 71
3
 72
8
 73
4
 74
0
 40
0
 40
0
 40
0
 40
0
 40
1
 40
1
 40
1
 40
1
 10
517.434856
 20
149.255552
 30
0.0
 10
518.085966
 20
149.255552
 30
0.0
 10
518.576892
 20
149.038511
 30
0.0
 10
518.907633
 20
148.604430
 30
0.0
  0
SPLINE
  5
1d1
100
AcDbEntity
  8
Layer_1
 62
7
100
AcDbSpline
 70
8
 71
3
 72
8
 73
4
 74
0
 40
0
 40
0
 40
0
 40
0
 40
1
 40
1
 40
1
 40
1
 10
518.907633
 20
148.604430
 30
0.0
 10
519.238350
 20
148.166915
 30
0.0
 10
519.403709
 20
147.515793
 30
0.0
 10
519.403709
 20
146.651064
 30
0.0
  0
LWPOLYLINE
  5
1d2
100
AcDbEntity
  8
Layer_1
 62
7
100
AcDbPolyline
 90
4
 70
0
 10
519.052307
 20
144.366969
 30
0.0
 10
515.750201
 20
144.366969
 30
0.0
 10
515.750201
 20
145.317811
 30
0.0
 10
516.628688
 20
145.317811
 30
0.0
  0
SPLINE
  5
1d3
100
AcDbEntity
  8
Layer_1
 62
7
100
AcDbSpline
 70
8
 71
3
 72
8
 73
4
 74
0
 40
0
 40
0
 40
0
 40
0
 40
1
 40
1
 40
1
 40
1
 10
519.496736
 20
145.317811
 30
0.0
 10
519.934275
 20
145.317811
 30
0.0
 10
520.271895
 20
145.462509
 30
0.0
 10
520.509597
 20
145.751904
 30
0.0
  0
SPLINE
  5
1d4
100
AcDbEntity
  8
Layer_1
 62
7
100
AcDbSpline
 70
8
 71
3
 72
8
 73
4
 74
0
 40
0
 40
0
 40
0
 40
0
 40
1
 40
1
 40
1
 40
1
 10
520.509597
 20
145.751904
 30
0.0
 10
520.750755
 20
146.037842
 30
0.0
 10
520.871335
 20
146.440915
 30
0.0
 10
520.871335
 20
146.961121
 30
0.0
  0
SPLINE
  5
1d5
100
AcDbEntity
  8
Layer_1
 62
7
100
AcDbSpline
 70
8
 71
3
 72
8
 73
4
 74
0
 40
0
 40
0
 40
0
 40
0
 40
1
 40
1
 40
1
 40
1
 10
520.871335
 20
146.961121
 30
0.0
 10
520.871335
 20
147.291862
 30
0.0
 10
520.831718
 20
147.613983
 30
0.0
 10
520.752484
 20
147.927485
 30
0.0
  0
SPLINE
  5
1d6
100
AcDbEntity
  8
Layer_1
 62
7
100
AcDbSpline
 70
8
 71
3
 72
8
 73
4
 74
0
 40
0
 40
0
 40
0
 40
0
 40
1
 40
1
 40
1
 40
1
 10
520.752484
 20
147.927485
 30
0.0
 10
520.673250
 20
148.240987
 30
0.0
 10
520.554388
 20
148.542423
 30
0.0
 10
520.395896
 20
148.831795
 30
0.0
  0
LWPOLYLINE
  5
1d7
100
AcDbEntity
  8
Layer_1
 62
7
100
AcDbPolyline
 90
3
 70
0
 10
519.403709
 20
146.651064
 30
0.0
 10
519.403709
 20
145.317811
 30
0.0
 10
519.496736
 20
145.317811
 30
0.0
  0
SPLINE
  5
1d8
100
AcDbEntity
  8
Layer_1
 62
7
100
AcDbSpline
 70
8
 71
3
 72
8
 73
4
 74
0
 40
0
 40
0
 40
0
 40
0
 40
1
 40
1
 40
1
 40
1
 10
521.274419
 20
148.831795
 30
0.0
 10
521.408780
 20
148.483839
 30
0.0
 10
521.508687
 20
148.146219
 30
0.0
 10
521.574139
 20
147.818935
 30
0.0
  0
SPLINE
  5
1d9
100
AcDbEntity
  8
Layer_1
 62
7
100
AcDbSpline
 70
8
 71
3
 72
8
 73
4
 74
0
 40
0
 40
0
 40
0
 40
0
 40
1
 40
1
 40
1
 40
1
 10
521.574139
 20
147.818935
 30
0.0
 10
521.643024
 20
147.491651
 30
0.0
 10
521.677467
 20
147.172987
 30
0.0
 10
521.677467
 20
146.862943
 30
0.0
  0
SPLINE
  5
1da
100
AcDbEntity
  8
Layer_1
 62
7
100
AcDbSpline
 70
8
 71
3
 72
8
 73
4
 74
0
 40
0
 40
0
 40
0
 40
0
 40
1
 40
1
 40
1
 40
1
 10
521.677467
 20
146.862943
 30
0.0
 10
521.677467
 20
146.025777
 30
0.0
 10
521.460427
 20
145.400491
 30
0.0
 10
521.026345
 20
144.987082
 30
0.0
  0
SPLINE
  5
1db
100
AcDbEntity
  8
Layer_1
 62
7
100
AcDbSpline
 70
8
 71
3
 72
8
 73
4
 74
0
 40
0
 40
0
 40
0
 40
0
 40
1
 40
1
 40
1
 40
1
 10
521.026345
 20
144.987082
 30
0.0
 10
520.592264
 20
144.573674
 30
0.0
 10
519.934251
 20
144.366969
 30
0.0
 10
519.052307
 20
144.366969
 30
0.0
  0
LWPOLYLINE
  5
1dc
100
AcDbEntity
  8
Layer_1
 62
7
100
AcDbPolyline
 90
2
 70
0
 10
520.395896
 20
148.831795
 30
0.0
 10
521.274419
 20
148.831795
 30
0.0
  0
SPLINE
  5
1dd
100
AcDbEntity
  8
Layer_1
 62
7
100
AcDbSpline
 70
8
 71
3
 72
8
 73
4
 74
0
 40
0
 40
0
 40
0
 40
0
 40
1
 40
1
 40
1
 40
1
 10
521.472680
 20
316.373896
 30
0.0
 10
521.472695
 20
315.735448
 30
0.0
 10
521.219081
 20
315.123145
 30
0.0
 10
520.767632
 20
314.671689
 30
0.0
  0
SPLINE
  5
1de
100
AcDbEntity
  8
Layer_1
 62
7
100
AcDbSpline
 70
8
 71
3
 72
8
 73
4
 74
0
 40
0
 40
0
 40
0
 40
0
 40
1
 40
1
 40
1
 40
1
 10
520.767632
 20
314.671689
 30
0.0
 10
520.316184
 20
314.220234
 30
0.0
 10
519.703882
 20
313.966609
 30
0.0
 10
519.065430
 20
313.966611
 30
0.0
  0
SPLINE
  5
1df
100
AcDbEntity
  8
Layer_1
 62
7
100
AcDbSpline
 70
8
 71
3
 72
8
 73
4
 74
0
 40
0
 40
0
 40
0
 40
0
 40
1
 40
1
 40
1
 40
1
 10
519.065430
 20
313.966611
 30
0.0
 10
518.426973
 20
313.966600
 30
0.0
 10
517.814661
 20
314.220220
 30
0.0
 10
517.363205
 20
314.671677
 30
0.0
  0
SPLINE
  5
1e0
100
AcDbEntity
  8
Layer_1
 62
7
100
AcDbSpline
 70
8
 71
3
 72
8
 73
4
 74
0
 40
0
 40
0
 40
0
 40
0
 40
1
 40
1
 40
1
 40
1
 10
517.363205
 20
314.671677
 30
0.0
 10
516.911749
 20
315.123133
 30
0.0
 10
516.658130
 20
315.735442
 30
0.0
 10
516.658145
 20
316.373896
 30
0.0
  0
SPLINE
  5
1e1
100
AcDbEntity
  8
Layer_1
 62
7
100
AcDbSpline
 70
8
 71
3
 72
8
 73
4
 74
0
 40
0
 40
0
 40
0
 40
0
 40
1
 40
1
 40
1
 40
1
 10
516.658145
 20
316.373896
 30
0.0
 10
516.658140
 20
317.012343
 30
0.0
 10
516.911762
 20
317.624643
 30
0.0
 10
517.363218
 20
318.076092
 30
0.0
  0
SPLINE
  5
1e2
100
AcDbEntity
  8
Layer_1
 62
7
100
AcDbSpline
 70
8
 71
3
 72
8
 73
4
 74
0
 40
0
 40
0
 40
0
 40
0
 40
1
 40
1
 40
1
 40
1
 10
517.363218
 20
318.076092
 30
0.0
 10
517.814673
 20
318.527541
 30
0.0
 10
518.426979
 20
318.781157
 30
0.0
 10
519.065430
 20
318.781145
 30
0.0
  0
SPLINE
  5
1e3
100
AcDbEntity
  8
Layer_1
 62
7
100
AcDbSpline
 70
8
 71
3
 72
8
 73
4
 74
0
 40
0
 40
0
 40
0
 40
0
 40
1
 40
1
 40
1
 40
1
 10
519.065430
 20
318.781145
 30
0.0
 10
519.703876
 20
318.781147
 30
0.0
 10
520.316172
 20
318.527527
 30
0.0
 10
520.767620
 20
318.076080
 30
0.0
  0
SPLINE
  5
1e4
100
AcDbEntity
  8
Layer_1
 62
7
100
AcDbSpline
 70
8
 71
3
 72
8
 73
4
 74
0
 40
0
 40
0
 40
0
 40
0
 40
1
 40
1
 40
1
 40
1
 10
520.767620
 20
318.076080
 30
0.0
 10
521.219068
 20
317.624632
 30
0.0
 10
521.472686
 20
317.012337
 30
0.0
 10
521.472680
 20
316.373896
 30
0.0
  0
LWPOLYLINE
  5
1e5
100
AcDbEntity
  8
Layer_1
 62
7
100
AcDbPolyline
 90
1
 70
1
 10
519.052307
 20
144.366969
 30
0.0
  0
SPLINE
  5
1e6
100
AcDbEntity
  8
Layer_1
 62
7
100
AcDbSpline
 70
8
 71
3
 72
8
 73
4
 74
0
 40
0
 40
0
 40
0
 40
0
 40
1
 40
1
 40
1
 40
1
 10
521.472680
 20
54.494575
 30
0.0
 10
521.472695
 20
53.856127
 30
0.0
 10
521.219081
 20
53.243823
 30
0.0
 10
520.767632
 20
52.792368
 30
0.0
  0
SPLINE
  5
1e7
100
AcDbEntity
  8
Layer_1
 62
7
100
AcDbSpline
 70
8
 71
3
 72
8
 73
4
 74
0
 40
0
 40
0
 40
0
 40
0
 40
1
 40
1
 40
1
 40
1
 10
520.767632
 20
52.792368
 30
0.0
 10
520.316184
 20
52.340913
 30
0.0
 10
519.703882
 20
52.087288
 30
0.0
 10
519.065430
 20
52.087290
 30
0.0
  0
SPLINE
  5
1e8
100
AcDbEntity
  8
Layer_1
 62
7
100
AcDbSpline
 70
8
 71
3
 72
8
 73
4
 74
0
 40
0
 40
0
 40
0
 40
0
 40
1
 40
1
 40
1
 40
1
 10
519.065430
 20
52.087290
 30
0.0
 10
518.426973
 20
52.087278
 30
0.0
 10
517.814661
 20
52.340899
 30
0.0
 10
517.363205
 20
52.792356
 30
0.0
  0
SPLINE
  5
1e9
100
AcDbEntity
  8
Layer_1
 62
7
100
AcDbSpline
 70
8
 71
3
 72
8
 73
4
 74
0
 40
0
 40
0
 40
0
 40
0
 40
1
 40
1
 40
1
 40
1
 10
517.363205
 20
52.792356
 30
0.0
 10
516.911749
 20
53.243812
 30
0.0
 10
516.658130
 20
53.856121
 30
0.0
 10
516.658145
 20
54.494575
 30
0.0
  0
SPLINE
  5
1ea
100
AcDbEntity
  8
Layer_1
 62
7
100
AcDbSpline
 70
8
 71
3
 72
8
 73
4
 74
0
 40
0
 40
0
 40
0
 40
0
 40
1
 40
1
 40
1
 40
1
 10
516.658145
 20
54.494575
 30
0.0
 10
516.658140
 20
55.133022
 30
0.0
 10
516.911762
 20
55.745322
 30
0.0
 10
517.363218
 20
56.196771
 30
0.0
  0
SPLINE
  5
1eb
100
AcDbEntity
  8
Layer_1
 62
7
100
AcDbSpline
 70
8
 71
3
 72
8
 73
4
 74
0
 40
0
 40
0
 40
0
 40
0
 40
1
 40
1
 40
1
 40
1
 10
517.363218
 20
56.196771
 30
0.0
 10
517.814673
 20
56.648220
 30
0.0
 10
518.426979
 20
56.901836
 30
0.0
 10
519.065430
 20
56.901824
 30
0.0
  0
SPLINE
  5
1ec
100
AcDbEntity
  8
Layer_1
 62
7
100
AcDbSpline
 70
8
 71
3
 72
8
 73
4
 74
0
 40
0
 40
0
 40
0
 40
0
 40
1
 40
1
 40
1
 40
1
 10
519.065430
 20
56.901824
 30
0.0
 10
519.703876
 20
56.901826
 30
0.0
 10
520.316172
 20
56.648206
 30
0.0
 10
520.767620
 20
56.196758
 30
0.0
  0
SPLINE
  5
1ed
100
AcDbEntity
  8
Layer_1
 62
7
100
AcDbSpline
 70
8
 71
3
 72
8
 73
4
 74
0
 40
0
 40
0
 40
0
 40
0
 40
1
 40
1
 40
1
 40
1
 10
520.767620
 20
56.196758
 30
0.0
 10
521.219068
 20
55.745311
 30
0.0
 10
521.472686
 20
55.133016
 30
0.0
 10
521.472680
 20
54.494575
 30
0.0
  0
LWPOLYLINE
  5
1ee
100
AcDbEntity
  8
Layer_1
 62
7
100
AcDbPolyline
 90
1
 70
1
 10
521.472680
 20
316.373896
 30
0.0
  0
LWPOLYLINE
  5
1ef
100
AcDbEntity
  8
Layer_1
 62
7
100
AcDbPolyline
 90
1
 70
1
 10
521.472680
 20
54.494575
 30
0.0
  0
ENDSEC
  0
SECTION
  2
OBJECTS
  0
DICTIONARY
  5
C
330
0
100
AcDbDictionary
  3
ACAD_GROUP
350
D
  3
ACAD_MLINESTYLE
350
17
  0
DICTIONARY
  5
D
330
C
100
AcDbDictionary
  0
DICTIONARY
  5
1A
330
C
100
AcDbDictionary
  0
DICTIONARY
  5
17
330
C
100
AcDbDictionary
  3
STANDARD
350
18
  0
DICTIONARY
  5
19
330
C
100
AcDbDictionary
  0
ENDSEC
  0
EOF
